<svg width="360" height="450" viewBox="0 0 360 450" fill="none" xmlns="http://www.w3.org/2000/svg">
  <path
    d="M128.258 190.352C127.414 190.348 126.729 191.029 126.729 191.873L126.704 200.692C126.7 201.536 127.385 202.221 128.225 202.221L128.258 190.352Z"
    fill="#485B78" />
  <path
    d="M128.151 205.686C127.307 205.682 126.622 206.367 126.622 207.207L126.598 216.026C126.594 216.87 127.279 217.555 128.118 217.555L128.151 205.686Z"
    fill="#485B78" />
  <path
    d="M233.261 190.348C234.105 190.352 234.786 191.037 234.782 191.877L234.713 218.269C234.708 219.113 234.028 219.793 233.184 219.789L233.261 190.348Z"
    fill="#485B78" />
  <path
    d="M232.511 165.481C232.552 152.52 232.572 146.037 229.449 141.487C228.442 140.019 227.219 138.722 225.829 137.654C221.523 134.344 215.367 134.327 203.057 134.299L159.003 134.193C146.69 134.164 140.538 134.148 136.212 137.438C134.813 138.502 133.586 139.787 132.567 141.254C129.419 145.788 129.399 152.271 129.358 165.232L128.918 307.058C128.877 320.019 128.857 326.502 131.98 331.052C132.987 332.52 134.21 333.816 135.6 334.884C139.906 338.195 146.062 338.211 158.371 338.24L202.426 338.346C214.739 338.375 220.891 338.391 225.217 335.101C226.615 334.036 227.843 332.752 228.862 331.284C232.01 326.746 232.03 320.268 232.071 307.306L232.511 165.481Z"
    fill="#485B78" />
  <path fill-rule="evenodd" clip-rule="evenodd"
    d="M158.298 135.371L203.257 135.481C209.577 135.497 214.184 135.51 217.764 135.921C221.311 136.329 223.651 137.112 225.519 138.527C226.795 139.497 227.92 140.671 228.846 142.005C230.199 143.949 230.937 146.388 231.308 150.082C231.683 153.804 231.671 158.595 231.651 165.163L231.206 308.097C231.186 314.67 231.17 319.456 230.77 323.179C230.375 326.869 229.62 329.303 228.254 331.244C227.321 332.573 226.191 333.739 224.907 334.705C223.032 336.112 220.687 336.882 217.136 337.274C213.556 337.669 208.949 337.661 202.629 337.645L157.67 337.535C151.35 337.518 146.743 337.506 143.167 337.094C139.62 336.687 137.28 335.904 135.413 334.485C134.136 333.515 133.015 332.34 132.086 331.007C130.732 329.062 129.994 326.624 129.619 322.93C129.244 319.208 129.256 314.417 129.276 307.849L129.717 164.914C129.737 158.342 129.754 153.555 130.153 149.833C130.549 146.143 131.303 143.709 132.669 141.768C133.602 140.439 134.732 139.273 136.016 138.307C137.888 136.9 140.236 136.129 143.787 135.738C147.371 135.347 151.978 135.355 158.298 135.371ZM230.199 140.985C233.384 145.572 233.363 152.104 233.326 165.167L232.882 308.101C232.841 321.165 232.821 327.696 229.608 332.267C228.568 333.743 227.317 335.039 225.89 336.112C221.474 339.426 215.191 339.414 202.629 339.382L157.67 339.272C145.104 339.243 138.821 339.227 134.43 335.887C133.011 334.811 131.764 333.506 130.736 332.026C127.552 327.44 127.572 320.908 127.613 307.845L128.053 164.91C128.094 151.847 128.114 145.315 131.327 140.745C132.367 139.269 133.619 137.972 135.046 136.9C139.461 133.585 145.744 133.597 158.306 133.63L203.265 133.74C215.831 133.769 222.114 133.785 226.505 137.124C227.924 138.201 229.172 139.501 230.199 140.985Z"
    fill="url(#paint0_linear_189_4116)" />
  <path
    d="M227.9 164.278C227.933 153.882 227.949 148.683 225.315 145.034C224.463 143.856 223.431 142.816 222.257 141.96C218.62 139.306 213.422 139.293 203.029 139.265L158.518 139.159C148.122 139.134 142.923 139.122 139.274 141.76C138.096 142.612 137.056 143.644 136.196 144.818C133.537 148.455 133.521 153.653 133.489 164.05L133.036 308.252C133.003 318.649 132.987 323.848 135.625 327.497C136.477 328.675 137.509 329.715 138.683 330.571C142.32 333.229 147.518 333.237 157.911 333.266L202.422 333.372C212.819 333.396 218.017 333.409 221.67 330.771C222.848 329.918 223.888 328.887 224.748 327.713C227.407 324.076 227.423 318.877 227.456 308.481L227.9 164.278Z"
    fill="url(#paint1_linear_189_4116)" />
  <path
    d="M170.571 144.104L180.446 144.076C182.501 144.072 184.172 145.731 184.176 147.786C184.18 149.841 182.521 151.513 180.466 151.517L170.591 151.545C168.536 151.549 166.864 149.89 166.86 147.835C166.852 145.78 168.512 144.113 170.571 144.104Z"
    fill="#485B78" />
  <path
    d="M190.3 151.382C192.212 151.382 193.762 149.77 193.762 147.782C193.762 145.794 192.212 144.182 190.3 144.182C188.389 144.182 186.839 145.794 186.839 147.782C186.839 149.77 188.389 151.382 190.3 151.382Z"
    fill="#485B78" />
  <path
    d="M147.881 195.555C147.881 192.403 150.437 189.846 153.589 189.846H263.339C266.491 189.846 269.047 192.403 269.047 195.555V232.009C269.047 235.16 266.491 237.717 263.339 237.717H179.756L167.79 255.917L166.045 237.717H153.593C150.441 237.717 147.885 235.16 147.885 232.009V195.555H147.881Z"
    fill="#EEF0F2" />
  <path
    d="M167.794 218.746L167.941 214.668L164.495 216.854L163.606 215.296L167.239 213.404L163.606 211.513L164.495 209.955L167.941 212.141L167.794 208.063H169.571L169.425 212.141L172.87 209.955L173.759 211.513L170.126 213.404L173.759 215.296L172.87 216.854L169.425 214.668L169.571 218.746H167.794Z"
    fill="#EA5B44" />
  <path
    d="M194.218 218.746L194.365 214.668L190.915 216.854L190.026 215.296L193.659 213.404L190.026 211.513L190.915 209.955L194.365 212.141L194.218 208.063H195.995L195.849 212.141L199.298 209.955L200.187 211.513L196.554 213.404L200.187 215.296L199.298 216.854L195.849 214.668L195.995 218.746H194.218Z"
    fill="#EA5B44" />
  <path
    d="M220.639 218.746L220.785 214.668L217.336 216.854L216.447 215.296L220.08 213.404L216.447 211.513L217.336 209.955L220.785 212.141L220.639 208.063H222.416L222.27 212.141L225.719 209.955L226.608 211.513L222.975 213.404L226.608 215.296L225.719 216.854L222.27 214.668L222.416 218.746H220.639Z"
    fill="#EA5B44" />
  <path
    d="M247.062 218.746L247.209 214.668L243.764 216.854L242.875 215.296L246.508 213.404L242.875 211.513L243.764 209.955L247.209 212.141L247.062 208.063H248.84L248.693 212.141L252.138 209.955L253.027 211.513L249.394 213.404L253.027 215.296L252.138 216.854L248.693 214.668L248.84 218.746H247.062Z"
    fill="#EA5B44" />
  <path
    d="M285.079 194.849C285.079 198.033 284.133 201.148 282.363 203.799C280.594 206.449 278.078 208.512 275.134 209.731C272.191 210.95 268.953 211.268 265.83 210.648C262.707 210.029 259.837 208.491 257.586 206.241C255.335 203.99 253.798 201.12 253.179 197.993C252.559 194.87 252.877 191.628 254.096 188.688C255.315 185.745 257.378 183.229 260.028 181.46C262.678 179.69 265.789 178.748 268.978 178.748C273.247 178.748 277.344 180.444 280.365 183.466C283.382 186.483 285.079 190.576 285.079 194.849Z"
    fill="#EA5B44" />
  <path
    d="M269.186 203.55L269.043 203.485C268.974 203.452 262.002 200.121 262.002 190.185V189.924L262.259 189.867C264.673 189.337 266.1 188.587 267.139 188.04C267.946 187.616 268.534 187.31 269.178 187.31C269.826 187.31 270.409 187.616 271.216 188.04C272.256 188.587 273.683 189.337 276.097 189.867L276.354 189.924V190.185C276.354 199.791 269.394 203.444 269.325 203.481L269.186 203.55Z"
    fill="white" />
  <path
    d="M268.632 197.813L266.169 195.453C265.843 195.143 265.835 194.625 266.144 194.299C266.454 193.973 266.972 193.96 267.298 194.274L268.632 195.554L271.469 192.835C271.795 192.521 272.309 192.533 272.623 192.859C272.933 193.186 272.925 193.699 272.599 194.013L268.632 197.813Z"
    fill="#EA5B44" />
  <defs>
    <linearGradient id="paint0_linear_189_4116" x1="123.401" y1="128.958" x2="231.07" y2="331.882"
      gradientUnits="userSpaceOnUse">
      <stop stop-color="#8B97A7" />
      <stop offset="0.4792" stop-color="#97A0AD" />
      <stop offset="1" stop-color="#D2D2D2" />
    </linearGradient>
    <linearGradient id="paint1_linear_189_4116" x1="180.465" y1="326.946" x2="180.465" y2="137.313"
      gradientUnits="userSpaceOnUse">
      <stop stop-color="white" />
      <stop offset="0.9991" stop-color="white" />
    </linearGradient>
  </defs>
</svg>