<svg width="86" height="86" viewBox="0 0 86 86" fill="none" xmlns="http://www.w3.org/2000/svg">
  <g clip-path="url(#clip0_202_2348)">
    <path d="M17.2 43H14.3328V45.8672H17.2V43Z" fill="url(#paint0_linear_202_2348)" />
    <path d="M25.8 43H22.9327V45.8672H25.8V43Z" fill="url(#paint1_linear_202_2348)" />
    <path d="M34.3999 43H31.5327V45.8672H34.3999V43Z" fill="url(#paint2_linear_202_2348)" />
    <path d="M43 43H40.1328V45.8672H43V43Z" fill="url(#paint3_linear_202_2348)" />
    <path
      d="M84.5672 17.2H68.8V0H60.2V17.2H45.8672V5.73277H22.9328V2.86723H14.3328V5.73445H8.6V38.0281C3.45344 39.8455 0.00839844 44.7082 0 50.1672V51.6H2.20711C-0.957422 55.1425 -0.651719 60.5779 2.88906 63.7425C2.91426 63.766 2.94113 63.7878 2.96633 63.8113C1.14723 64.8141 0.0134375 66.7222 0 68.8C0.00503906 69.8112 0.280508 70.8005 0.802891 71.6672H0V73.1C0 80.2252 5.77477 86 12.9 86H44.4328C45.9495 85.9933 47.4529 85.7212 48.8755 85.1971C49.1157 85.6893 49.618 86.0017 50.1655 86H78.8328C79.5702 86.005 80.1916 85.4457 80.2655 84.71L86 27.3772C86 27.3772 86 27.3772 86 27.305C86 27.2328 86 27.305 86 27.2328V18.6328C86 17.8416 85.3584 17.2 84.5672 17.2ZM63.0672 2.86723H65.9345V17.2H63.0672V2.86723ZM83.1328 20.0672V25.8H45.8672V20.0672H83.1328ZM40.1328 8.6H43V22.9328H40.1328V8.6ZM34.4 8.6H37.2672V22.9328H34.4V8.6ZM28.6672 8.6H31.5345V22.9328H28.6672V8.6ZM25.8 8.6V22.9328H22.9328V8.6H25.8ZM20.0672 5.73277V22.9328H17.2V5.73277H20.0672ZM11.4672 8.6H14.3345V22.9328H11.4672V8.6ZM11.4672 37.2672V25.8H43V27.2328L43.9893 37.2655L11.4672 37.2672ZM12.9 40.1328H44.4328C49.4214 40.1311 53.6526 43.7945 54.3664 48.7328H2.96633C3.6802 43.7962 7.91133 40.1328 12.9 40.1328ZM48.7328 63.0672H8.6C5.48754 63.0689 2.94449 60.588 2.86723 57.4772C3.70371 57.6855 4.49148 58.0483 5.18855 58.5522C6.73723 59.6625 8.60336 60.2403 10.5064 60.2C12.3911 60.2269 14.2337 59.6491 15.7672 58.5522C16.8607 57.7191 18.2061 57.2891 19.5801 57.3345C20.939 57.3009 22.2676 57.7309 23.3493 58.5522C24.898 59.6625 26.7641 60.2403 28.6672 60.2C30.567 60.2353 32.4264 59.6575 33.97 58.5522C36.2258 56.928 39.2677 56.928 41.5236 58.5522C44.7183 60.7493 48.936 60.7493 52.1308 58.5522C52.8329 58.0466 53.6257 57.6821 54.4672 57.4772C54.39 60.5863 51.8452 63.0689 48.7328 63.0672ZM56.4022 51.6H57.3345V50.1672C57.3311 48.5531 57.0254 46.954 56.4308 45.4507C56.55 45.3314 56.6508 45.197 56.7314 45.0492C58.7605 40.7543 63.8886 38.9184 68.1802 40.9491C72.4752 42.9782 74.3111 48.1063 72.2803 52.3979C70.2513 56.6928 65.1232 58.5287 60.8316 56.498C58.7622 55.5221 57.1665 53.7584 56.4022 51.6ZM48.7328 51.6C50.8643 51.6118 52.8127 52.8043 53.792 54.6957C52.6448 54.9678 51.5614 55.4532 50.5955 56.1284C48.3397 57.7527 45.2978 57.7527 43.042 56.1284C39.8422 53.9297 35.6195 53.9297 32.4213 56.1284C30.1705 57.7544 27.132 57.7544 24.8829 56.1284C23.3409 55.0165 21.4798 54.4336 19.5801 54.4655C17.7005 54.442 15.8613 55.0182 14.3345 56.1133C13.2376 56.9498 11.8855 57.3798 10.5081 57.3311C9.14926 57.3647 7.82062 56.9347 6.73891 56.1133C5.76973 55.4448 4.68633 54.9577 3.54246 54.6805C4.52676 52.7943 6.4752 51.6067 8.60168 51.5983L48.7328 51.6ZM2.86723 68.8C2.86723 67.2161 4.15051 65.9328 5.73445 65.9328H51.6C53.1839 65.9328 54.4672 67.2161 54.4672 68.8C54.4672 70.3839 53.1839 71.6672 51.6 71.6672H5.73277C4.14883 71.6672 2.86723 70.3839 2.86723 68.8ZM12.9 83.1328C7.91133 83.1345 3.67852 79.4711 2.96633 74.5328H54.3664C53.6543 79.4711 49.4214 83.1345 44.4328 83.1328H12.9ZM77.5428 83.1328H52.5171C55.5573 80.6888 57.3277 77.0002 57.3328 73.1V71.6672H56.5299C57.0523 70.8022 57.3277 69.8112 57.3328 68.8C57.3193 66.7239 56.1856 64.8141 54.3664 63.8113C56.1688 62.2526 57.2437 60.0136 57.3328 57.6334C62.2492 61.6261 69.4702 60.8769 73.4628 55.9605C77.4554 51.044 76.7063 43.823 71.7898 39.8304C69.7305 38.1575 67.1539 37.2504 64.5 37.2655C60.583 37.2706 56.9397 39.2761 54.8384 42.5834C52.927 39.9514 50.09 38.139 46.8986 37.5091L46.01 28.6655H82.99L77.5428 83.1328Z"
      fill="url(#paint4_linear_202_2348)" />
  </g>
  <defs>
    <linearGradient id="paint0_linear_202_2348" x1="-0.472575" y1="44.4334" x2="85.5291"
      y2="44.4334" gradientUnits="userSpaceOnUse">
      <stop stop-color="#F44336" />
      <stop offset="1" stop-color="#D9D9D9" />
    </linearGradient>
    <linearGradient id="paint1_linear_202_2348" x1="-0.472609" y1="44.4334" x2="85.5291"
      y2="44.4334" gradientUnits="userSpaceOnUse">
      <stop stop-color="#D9D9D9" />
      <stop stop-color="#D9D9D9" />
      <stop offset="0.0001" stop-color="#D9D9D9" />
      <stop offset="1" stop-color="#F44336" />
    </linearGradient>
    <linearGradient id="paint2_linear_202_2348" x1="-0.472638" y1="44.4334" x2="85.5291"
      y2="44.4334" gradientUnits="userSpaceOnUse">
      <stop stop-color="#F44336" />
      <stop offset="1" stop-color="#D9D9D9" />
    </linearGradient>
    <linearGradient id="paint3_linear_202_2348" x1="-0.472544" y1="44.4334" x2="85.5292"
      y2="44.4334" gradientUnits="userSpaceOnUse">
      <stop stop-color="#F44336" />
      <stop offset="1" stop-color="#D9D9D9" />
    </linearGradient>
    <linearGradient id="paint4_linear_202_2348" x1="-0.472565" y1="43.0001" x2="85.5274"
      y2="43.0001" gradientUnits="userSpaceOnUse">
      <stop stop-color="#F44336" />
      <stop offset="1" stop-color="#D9D9D9" />
    </linearGradient>
    <clipPath id="clip0_202_2348">
      <rect width="86" height="86" fill="white" />
    </clipPath>
  </defs>
</svg>