<svg width="111" height="106" viewBox="0 0 111 106" fill="none" xmlns="http://www.w3.org/2000/svg">
  <g clip-path="url(#clip0_206_2879)">
    <path
      d="M105.304 53C105.304 82.2711 81.7375 106 52.667 106C23.5965 106 0.0302734 82.2711 0.0302734 53C0.0302734 23.7289 23.5965 0 52.667 0C81.7375 0 105.304 23.7289 105.304 53Z"
      fill="#E0DFDF" />
    <path
      d="M64.2601 77.008C64.2601 64.3616 74.478 54.0731 87.0378 54.0731C92.5528 54.0731 97.6145 56.0568 101.561 59.3536V25.094H8.49951V81.8364C10.9272 85.5962 13.8126 89.0293 17.0825 92.0492H69.8589C66.3741 88.0212 64.2601 82.758 64.2601 77.008Z"
      fill="#EEF6FF" />
    <path
      d="M8.49951 25.094V81.8364C10.4138 84.8044 12.6202 87.5626 15.0694 90.0807V25.094H8.49951Z"
      fill="#D9EAFC" />
    <path
      d="M99.4128 11.8979H10.6479C9.46631 11.8979 8.49951 12.8714 8.49951 14.0612V25.3102H101.561V14.0612C101.561 12.8714 100.594 11.8979 99.4128 11.8979Z"
      fill="#485B78" />
    <path
      d="M17.2179 11.8979H10.6479C9.46631 11.8979 8.49951 12.8714 8.49951 14.0612V25.3102H15.0694V14.0612C15.0694 12.8714 16.0362 11.8979 17.2179 11.8979Z"
      fill="#485B78" />
    <path
      d="M32.3813 40.9484C32.3813 41.5433 31.8979 42.0301 31.3071 42.0301H16.0317C15.4409 42.0301 14.9575 41.5433 14.9575 40.9484V31.8065C14.9575 31.2116 15.4409 30.7249 16.0317 30.7249H31.305C31.8958 30.7249 32.3792 31.2116 32.3792 31.8065V40.9484H32.3813Z"
      fill="#8B97A7" />
    <path
      d="M53.2879 40.9484C53.2879 41.5433 52.8045 42.0301 52.2137 42.0301H36.9404C36.3496 42.0301 35.8662 41.5433 35.8662 40.9484V31.8065C35.8662 31.2116 36.3496 30.7249 36.9404 30.7249H52.2137C52.8045 30.7249 53.2879 31.2116 53.2879 31.8065V40.9484Z"
      fill="#8B97A7" />
    <path
      d="M74.1941 40.9484C74.1941 41.5433 73.7107 42.0301 73.1199 42.0301H57.8467C57.2559 42.0301 56.7725 41.5433 56.7725 40.9484V31.8065C56.7725 31.2116 57.2559 30.7249 57.8467 30.7249H73.1199C73.7107 30.7249 74.1941 31.2116 74.1941 31.8065V40.9484Z"
      fill="#8B97A7" />
    <path
      d="M95.1028 40.9484C95.1028 41.5433 94.6194 42.0301 94.0286 42.0301H78.7554C78.1646 42.0301 77.6812 41.5433 77.6812 40.9484V31.8065C77.6812 31.2116 78.1646 30.7249 78.7554 30.7249H94.0286C94.6194 30.7249 95.1028 31.2116 95.1028 31.8065V40.9484Z"
      fill="#485B78" />
    <path
      d="M32.3813 55.3711C32.3813 55.966 31.8979 56.4527 31.3071 56.4527H16.0317C15.4409 56.4527 14.9575 55.966 14.9575 55.3711V46.2291C14.9575 45.6342 15.4409 45.1475 16.0317 45.1475H31.305C31.8958 45.1475 32.3792 45.6342 32.3792 46.2291V55.3711H32.3813Z"
      fill="#8B97A7" />
    <path
      d="M53.2879 55.3711C53.2879 55.966 52.8045 56.4527 52.2137 56.4527H36.9404C36.3496 56.4527 35.8662 55.966 35.8662 55.3711V46.2291C35.8662 45.6342 36.3496 45.1475 36.9404 45.1475H52.2137C52.8045 45.1475 53.2879 45.6342 53.2879 46.2291V55.3711Z"
      fill="#8B97A7" />
    <path
      d="M74.1941 55.3711C74.1941 55.966 73.7107 56.4527 73.1199 56.4527H57.8467C57.2559 56.4527 56.7725 55.966 56.7725 55.3711V46.2291C56.7725 45.6342 57.2559 45.1475 57.8467 45.1475H73.1199C73.7107 45.1475 74.1941 45.6342 74.1941 46.2291V55.3711Z"
      fill="#8B97A7" />
    <path
      d="M87.0376 54.0731C89.8692 54.0731 92.5806 54.5988 95.0835 55.5528C95.0942 55.4944 95.1028 55.4338 95.1028 55.3711V46.2291C95.1028 45.6342 94.6194 45.1475 94.0286 45.1475H78.7554C78.1646 45.1475 77.6812 45.6342 77.6812 46.2291V55.3711C77.6812 55.609 77.7606 55.8275 77.8917 56.0071C80.6911 54.7653 83.7849 54.0731 87.0376 54.0731Z"
      fill="#485B78" />
    <path
      d="M32.3813 69.7956C32.3813 70.3905 31.8979 70.8772 31.3071 70.8772H16.0317C15.4409 70.8772 14.9575 70.3905 14.9575 69.7956V60.6537C14.9575 60.0588 15.4409 59.572 16.0317 59.572H31.305C31.8958 59.572 32.3792 60.0588 32.3792 60.6537V69.7956H32.3813Z"
      fill="#8B97A7" />
    <path
      d="M53.2879 69.7956C53.2879 70.3905 52.8045 70.8772 52.2137 70.8772H36.9404C36.3496 70.8772 35.8662 70.3905 35.8662 69.7956V60.6537C35.8662 60.0588 36.3496 59.572 36.9404 59.572H52.2137C52.8045 59.572 53.2879 60.0588 53.2879 60.6537V69.7956Z"
      fill="#8B97A7" />
    <path
      d="M72.2584 59.572H57.8467C57.2559 59.572 56.7725 60.0588 56.7725 60.6537V69.7956C56.7725 70.3905 57.2559 70.8772 57.8467 70.8772H65.0891C66.318 66.4188 68.8574 62.5011 72.2584 59.572Z"
      fill="#8B97A7" />
    <path
      d="M32.3813 84.2202C32.3813 84.8151 31.8979 85.3018 31.3071 85.3018H16.0317C15.4409 85.3018 14.9575 84.8151 14.9575 84.2202V75.0782C14.9575 74.4833 15.4409 73.9966 16.0317 73.9966H31.305C31.8958 73.9966 32.3792 74.4833 32.3792 75.0782V84.2202H32.3813Z"
      fill="#8B97A7" />
    <path
      d="M53.2879 84.2202C53.2879 84.8151 52.8045 85.3018 52.2137 85.3018H36.9404C36.3496 85.3018 35.8662 84.8151 35.8662 84.2202V75.0782C35.8662 74.4833 36.3496 73.9966 36.9404 73.9966H52.2137C52.8045 73.9966 53.2879 74.4833 53.2879 75.0782V84.2202Z"
      fill="#8B97A7" />
    <path
      d="M64.26 77.0079C64.26 75.9868 64.3266 74.983 64.4555 73.9966H57.8447C57.2539 73.9966 56.7705 74.4833 56.7705 75.0782V84.2202C56.7705 84.8151 57.2539 85.3018 57.8447 85.3018H65.8004C64.8078 82.7297 64.26 79.9326 64.26 77.0079Z"
      fill="#8B97A7" />
    <path
      d="M16.3584 6.78613C15.4689 6.78613 14.7471 7.51299 14.7471 8.40858V17.3364C14.7471 18.232 15.4689 18.9588 16.3584 18.9588C17.2479 18.9588 17.9697 18.232 17.9697 17.3364V8.40858C17.9697 7.51083 17.2479 6.78613 16.3584 6.78613Z"
      fill="#C3DDF4" />
    <path
      d="M24.0928 6.78613C23.2033 6.78613 22.4814 7.51299 22.4814 8.40858V17.3364C22.4814 18.232 23.2033 18.9588 24.0928 18.9588C24.9822 18.9588 25.7041 18.232 25.7041 17.3364V8.40858C25.7041 7.51083 24.9822 6.78613 24.0928 6.78613Z"
      fill="#C3DDF4" />
    <path
      d="M31.8271 6.78613C30.9377 6.78613 30.2158 7.51299 30.2158 8.40858V17.3364C30.2158 18.232 30.9377 18.9588 31.8271 18.9588C32.7166 18.9588 33.4385 18.232 33.4385 17.3364V8.40858C33.4385 7.51083 32.7166 6.78613 31.8271 6.78613Z"
      fill="#C3DDF4" />
    <path
      d="M39.5615 6.78613C38.6721 6.78613 37.9502 7.51299 37.9502 8.40858V17.3364C37.9502 18.232 38.6721 18.9588 39.5615 18.9588C40.451 18.9588 41.1729 18.232 41.1729 17.3364V8.40858C41.1729 7.51083 40.451 6.78613 39.5615 6.78613Z"
      fill="#C3DDF4" />
    <path
      d="M47.2959 6.78613C46.4064 6.78613 45.6846 7.51299 45.6846 8.40858V17.3364C45.6846 18.232 46.4064 18.9588 47.2959 18.9588C48.1854 18.9588 48.9072 18.232 48.9072 17.3364V8.40858C48.9072 7.51083 48.1854 6.78613 47.2959 6.78613Z"
      fill="#C3DDF4" />
    <path
      d="M55.0303 6.78613C54.1408 6.78613 53.4189 7.51299 53.4189 8.40858V17.3364C53.4189 18.232 54.1408 18.9588 55.0303 18.9588C55.9197 18.9588 56.6416 18.232 56.6416 17.3364V8.40858C56.6416 7.51083 55.9197 6.78613 55.0303 6.78613Z"
      fill="#C3DDF4" />
    <path
      d="M62.7646 6.78613C61.8752 6.78613 61.1533 7.51299 61.1533 8.40858V17.3364C61.1533 18.232 61.8752 18.9588 62.7646 18.9588C63.6541 18.9588 64.376 18.232 64.376 17.3364V8.40858C64.376 7.51083 63.6541 6.78613 62.7646 6.78613Z"
      fill="#C3DDF4" />
    <path
      d="M70.499 6.78613C69.6096 6.78613 68.8877 7.51299 68.8877 8.40858V17.3364C68.8877 18.232 69.6096 18.9588 70.499 18.9588C71.3885 18.9588 72.1104 18.232 72.1104 17.3364V8.40858C72.1104 7.51083 71.3885 6.78613 70.499 6.78613Z"
      fill="#C3DDF4" />
    <path
      d="M78.2334 6.78613C77.3439 6.78613 76.6221 7.51299 76.6221 8.40858V17.3364C76.6221 18.232 77.3439 18.9588 78.2334 18.9588C79.1229 18.9588 79.8447 18.232 79.8447 17.3364V8.40858C79.8447 7.51083 79.1229 6.78613 78.2334 6.78613Z"
      fill="#C3DDF4" />
    <path
      d="M85.9678 6.78613C85.0783 6.78613 84.3564 7.51299 84.3564 8.40858V17.3364C84.3564 18.232 85.0783 18.9588 85.9678 18.9588C86.8572 18.9588 87.5791 18.232 87.5791 17.3364V8.40858C87.5791 7.51083 86.8572 6.78613 85.9678 6.78613Z"
      fill="#C3DDF4" />
    <path
      d="M93.7021 6.78613C92.8127 6.78613 92.0908 7.51299 92.0908 8.40858V17.3364C92.0908 18.232 92.8127 18.9588 93.7021 18.9588C94.5916 18.9588 95.3135 18.232 95.3135 17.3364V8.40858C95.3135 7.51083 94.5916 6.78613 93.7021 6.78613Z"
      fill="#C3DDF4" />
    <path
      d="M110.03 77.008C110.03 89.795 99.7369 100.159 87.0375 100.159C74.3402 100.159 64.0449 89.795 64.0449 77.008C64.0449 64.2231 74.3381 53.8567 87.0375 53.8567C99.7369 53.8567 110.03 64.2231 110.03 77.008Z"
      fill="#1A2B63" />
    <path
      d="M87.0375 94.1021C77.6768 94.1021 70.0605 86.4333 70.0605 77.0079C70.0605 67.5826 77.6768 59.9138 87.0375 59.9138C96.3982 59.9138 104.014 67.5826 104.014 77.0079C104.014 86.4333 96.3982 94.1021 87.0375 94.1021Z"
      fill="white" />
    <path
      d="M73.2856 77.0079C73.2856 68.1299 80.0425 60.8137 88.6513 59.9939C88.1206 59.9441 87.5835 59.9138 87.0399 59.9138C77.6792 59.9138 70.063 67.5826 70.063 77.0079C70.063 86.4333 77.6792 94.1021 87.0399 94.1021C87.5835 94.1021 88.1206 94.0739 88.6513 94.0242C80.0425 93.2022 73.2856 85.886 73.2856 77.0079Z"
      fill="#EEF6FF" />
    <path
      d="M87.0376 59.9138V73.4688C88.9755 73.4688 90.5524 75.0567 90.5524 77.0079H104.015C104.015 67.5826 96.3983 59.9138 87.0376 59.9138Z"
      fill="#D9D9D9" />
    <path
      d="M87.0376 73.471C87.6198 73.471 88.1655 73.6159 88.6489 73.869V64.9196C88.6489 64.024 87.9271 63.2971 87.0376 63.2971C86.1481 63.2971 85.4263 64.024 85.4263 64.9196V73.869C85.9097 73.6137 86.4575 73.471 87.0376 73.471Z"
      fill="#F44336" />
    <path
      d="M96.349 75.3855H90.1572C90.4086 75.8722 90.5525 76.4239 90.5525 77.0079C90.5525 77.5942 90.4086 78.1437 90.1572 78.6304H96.349C97.2385 78.6304 97.9604 77.9035 97.9604 77.0079C97.9604 76.1124 97.2385 75.3855 96.349 75.3855Z"
      fill="#F44336" />
    <path
      d="M87.0303 80C85.3765 80 84.0303 78.6538 84.0303 77C84.0303 75.3462 85.3765 74 87.0303 74C88.6841 74 90.0303 75.3462 90.0303 77C90.0303 78.6538 88.6841 80 87.0303 80Z"
      fill="#BBBBBB" />
    <path
      d="M87.0376 92.4797C86.1481 92.4797 85.4263 91.7528 85.4263 90.8572V89.1266C85.4263 88.231 86.1481 87.5042 87.0376 87.5042C87.9271 87.5042 88.6489 88.231 88.6489 89.1266V90.8572C88.6489 91.7528 87.9292 92.4797 87.0376 92.4797Z"
      fill="#F44336" />
    <path
      d="M77.312 88.4236C76.8995 88.4236 76.487 88.2656 76.1733 87.9476C75.5438 87.3138 75.5438 86.2863 76.1733 85.6524L77.3893 84.428C78.0188 83.7942 79.0393 83.7942 79.6688 84.428C80.2983 85.0619 80.2983 86.0894 79.6688 86.7232L78.4528 87.9476C78.137 88.2656 77.7266 88.4236 77.312 88.4236Z"
      fill="#F44336" />
    <path
      d="M75.002 78.6304H73.2832C72.3938 78.6304 71.6719 77.9035 71.6719 77.0079C71.6719 76.1124 72.3938 75.3855 73.2832 75.3855H75.002C75.8914 75.3855 76.6133 76.1124 76.6133 77.0079C76.6133 77.9057 75.8936 78.6304 75.002 78.6304Z"
      fill="#F44336" />
    <path
      d="M78.528 70.0639C78.1155 70.0639 77.703 69.906 77.3893 69.588L76.1733 68.3636C75.5438 67.7298 75.5438 66.7022 76.1733 66.0684C76.8028 65.4346 77.8233 65.4346 78.4528 66.0684L79.6688 67.2928C80.2983 67.9266 80.2983 68.9542 79.6688 69.588C79.353 69.9039 78.9405 70.0639 78.528 70.0639Z"
      fill="#F44336" />
    <path
      d="M96.7638 88.4236C96.3513 88.4236 95.9388 88.2656 95.6251 87.9476L94.4091 86.7232C93.7796 86.0894 93.7796 85.0619 94.4091 84.428C95.0386 83.7942 96.0591 83.7942 96.6886 84.428L97.9046 85.6524C98.5341 86.2863 98.5341 87.3138 97.9046 87.9476C97.5888 88.2656 97.1763 88.4236 96.7638 88.4236Z"
      fill="#F44336" />
    <path
      d="M22.6961 39.8323C22.2063 39.8323 21.7444 39.6073 21.4372 39.2244L17.8922 34.7616C17.3358 34.0629 17.4497 33.0396 18.1436 32.4815C18.8376 31.9212 19.8516 32.0359 20.4081 32.7346L22.694 35.6118L28.5249 28.2718C29.0813 27.5731 30.0954 27.4584 30.7893 28.0187C31.4833 28.579 31.5971 29.6 31.0407 30.2988L23.9508 39.2223C23.6479 39.6073 23.186 39.8323 22.6961 39.8323Z"
      fill="#485B78" />
    <path
      d="M22.6961 68.4673C22.2063 68.4673 21.7444 68.2423 21.4372 67.8572L17.8922 63.3944C17.3358 62.6957 17.4497 61.6746 18.1436 61.1143C18.8376 60.554 19.8516 60.6665 20.4081 61.3674L22.694 64.2446L28.5249 56.9046C29.0813 56.2059 30.0954 56.0912 30.7893 56.6515C31.4833 57.2118 31.5971 58.2307 31.0407 58.9316L23.9508 67.8551C23.6479 68.2423 23.186 68.4673 22.6961 68.4673Z"
      fill="#485B78" />
    <path
      d="M43.751 54.2439C43.2612 54.2439 42.7993 54.0189 42.492 53.6338L38.9471 49.171C38.3907 48.4723 38.5024 47.4512 39.1985 46.8909C39.8924 46.3307 40.9065 46.4431 41.4629 47.144L43.7489 50.0212L49.5797 42.6812C50.1362 41.9825 51.1502 41.8678 51.8442 42.4281C52.5381 42.9884 52.652 44.0073 52.0956 44.7082L45.0057 53.6317C44.7028 54.0189 44.2409 54.2439 43.751 54.2439Z"
      fill="#485B78" />
  </g>
  <defs>
    <clipPath id="clip0_206_2879">
      <rect width="110" height="106" fill="white" transform="translate(0.0302734)" />
    </clipPath>
  </defs>
</svg>