<svg width="51" height="52" viewBox="0 0 51 52" fill="none" xmlns="http://www.w3.org/2000/svg">
  <path opacity="0.13"
    d="M25.576 51.5414C35.5869 51.5121 43.7005 50.8854 43.6983 50.1416C43.6961 49.3978 35.579 48.8185 25.5681 48.8478C15.5573 48.8771 7.44366 49.5039 7.44584 50.2477C7.44801 50.9915 15.5652 51.5707 25.576 51.5414Z"
    fill="#D9D9D9" />
  <path
    d="M36.9142 39.5805C44.6936 33.2797 45.8923 21.8654 39.5914 14.086C33.2906 6.30656 21.8763 5.10791 14.0969 11.4087C6.31745 17.7096 5.11882 29.1239 11.4196 36.9033C17.7205 44.6827 29.1348 45.8814 36.9142 39.5805Z"
    stroke="#D9D9D9" stroke-miterlimit="10" />
  <path
    d="M36.6355 36.3319C42.6118 30.1851 42.4735 20.3573 36.3266 14.381C30.1797 8.40474 20.352 8.54304 14.3757 14.6899C8.39941 20.8368 8.53772 30.6646 14.6846 36.6408C20.8315 42.6171 30.6592 42.4788 36.6355 36.3319Z"
    fill="#51A555" />
  <path d="M29.7019 3.74983L38.5116 3.729" stroke="#D9D9D9" stroke-miterlimit="10"
    stroke-linecap="round" />
  <path d="M35.075 6.42952L43.8847 6.40869" stroke="#D9D9D9" stroke-miterlimit="10"
    stroke-linecap="round" />
  <path d="M21.7668 4.85372L26.1752 4.83984" stroke="#D9D9D9" stroke-miterlimit="10"
    stroke-linecap="round" />
  <path d="M17.4902 47.1112L26.293 47.0835" stroke="#D9D9D9" stroke-miterlimit="10"
    stroke-linecap="round" />
  <path d="M24.0925 45.6532L32.8953 45.6255" stroke="#D9D9D9" stroke-miterlimit="10"
    stroke-linecap="round" />
  <path d="M12.6655 44.966L17.0669 44.9521" stroke="#D9D9D9" stroke-miterlimit="10"
    stroke-linecap="round" />
  <path opacity="0.35" d="M34.9988 17.1484C34.9988 17.1484 43.3573 24.3406 35.0543 34.9484"
    stroke="white" stroke-width="3" stroke-miterlimit="10" stroke-linecap="round" />
  <g clip-path="url(#clip0_261_10088)">
    <path
      d="M25.1546 25.7971C27.4058 25.7971 29.2304 23.9724 29.2304 21.7213C29.2304 19.4701 27.4058 17.6455 25.1546 17.6455C22.9035 17.6455 21.0789 19.4701 21.0789 21.7213C21.0814 23.9713 22.9046 25.7945 25.1546 25.7971ZM25.1546 18.2278C27.0841 18.2278 28.6482 19.7918 28.6482 21.7213C28.6482 23.6507 27.0841 25.2148 25.1546 25.2148C23.2252 25.2148 21.6611 23.6507 21.6611 21.7213C21.6633 19.7926 23.2259 18.2299 25.1546 18.2278Z"
      fill="#D9D9D9" />
    <path
      d="M24.2812 24.3414C24.3583 24.3414 24.4326 24.3108 24.4871 24.2562L27.9807 20.7627C28.0942 20.6492 28.0942 20.4647 27.9807 20.3511L27.1073 19.4777C26.9938 19.3642 26.8093 19.3642 26.6957 19.4777L24.2812 21.8919L23.6138 21.2245C23.5002 21.111 23.3157 21.111 23.2022 21.2245L22.3288 22.0979C22.2153 22.2114 22.2153 22.3959 22.3288 22.5095L24.0756 24.2562C24.1298 24.3108 24.204 24.3414 24.2812 24.3414ZM23.4078 21.8417L24.0752 22.5091C24.1887 22.6226 24.3732 22.6226 24.4868 22.5091L26.9013 20.0949L27.3631 20.5567L24.2812 23.6387L22.946 22.3035L23.4078 21.8417Z"
      fill="#D9D9D9" />
    <path
      d="M32.7239 25.7975H29.3097C29.7136 25.3758 29.9651 24.8314 30.0244 24.2506C30.0404 23.954 30.1492 23.6698 30.3348 23.4376C31.1915 22.454 31.1915 20.9892 30.3348 20.0059C30.1492 19.7738 30.0404 19.4896 30.0244 19.193C29.901 17.955 28.9218 16.9753 27.6834 16.8523C27.3868 16.8363 27.1026 16.7275 26.8704 16.5419C25.8868 15.6853 24.422 15.6853 23.4387 16.5419C23.2066 16.7275 22.9224 16.8363 22.6258 16.8523C21.3878 16.9757 20.4081 17.955 20.2851 19.1933C20.2691 19.4899 20.1603 19.7741 19.9747 20.0063C19.1181 20.99 19.1181 22.4547 19.9747 23.438C20.1603 23.6701 20.2691 23.9544 20.2851 24.2509C20.3444 24.8317 20.5959 25.3761 20.9998 25.7975H17.5853C16.7818 25.7986 16.1307 26.4497 16.1296 27.2532V32.4935C16.1307 33.297 16.7818 33.948 17.5853 33.9491H32.7239C33.5274 33.948 34.1784 33.297 34.1795 32.4935V27.2532C34.1784 26.4497 33.5274 25.7986 32.7239 25.7975ZM20.4136 23.0555C19.748 22.2909 19.748 21.1526 20.4136 20.388C20.6796 20.0656 20.8372 19.6679 20.8645 19.2508C20.9594 18.2883 21.7211 17.527 22.6833 17.4317C23.1003 17.4044 23.4984 17.2468 23.8209 16.9808C24.5854 16.3152 25.7237 16.3152 26.4883 16.9808C26.8107 17.2468 27.2085 17.4044 27.6255 17.4317C28.5881 17.5266 29.3494 18.2883 29.4447 19.2505C29.472 19.6675 29.6296 20.0656 29.8956 20.388C30.5612 21.1526 30.5612 22.2909 29.8956 23.0555C29.6296 23.3779 29.472 23.7757 29.4447 24.1927C29.3494 25.1553 28.5881 25.9165 27.6259 26.0119C27.2088 26.0392 26.8107 26.1968 26.4883 26.4628C25.7237 27.1284 24.5854 27.1284 23.8209 26.4628C23.4984 26.1968 23.1007 26.0392 22.6836 26.0119C21.7211 25.9165 20.9598 25.1553 20.8645 24.1931C20.8372 23.7757 20.6796 23.3779 20.4136 23.0555ZM33.5973 32.4935C33.5973 32.9756 33.2061 33.3669 32.7239 33.3669H17.5853C17.1031 33.3669 16.7119 32.9756 16.7119 32.4935V27.2532C16.7119 26.771 17.1031 26.3798 17.5853 26.3798H21.8317C22.0836 26.4919 22.3518 26.5632 22.6258 26.5916C22.9224 26.6076 23.2066 26.7164 23.4387 26.902C24.4224 27.7587 25.8871 27.7587 26.8704 26.902C27.1026 26.7164 27.3868 26.6076 27.6834 26.5916C27.9574 26.5632 28.2256 26.4919 28.4774 26.3798H32.7239C33.2061 26.3798 33.5973 26.771 33.5973 27.2532V32.4935Z"
      fill="#D9D9D9" />
    <path
      d="M18.744 28.6504C18.7163 28.5146 18.597 28.4175 18.4587 28.4175H17.8764C17.7382 28.4175 17.6188 28.5146 17.5911 28.6504L17.3 30.106C17.296 30.1253 17.2942 30.1446 17.2942 30.1642V31.3288H17.8764V30.4554H18.4587V31.3288H19.041V30.1642C19.041 30.1446 19.0391 30.1253 19.0351 30.106L18.744 28.6504ZM18.2203 28.9997L18.395 29.8731H17.9405L18.1152 28.9997H18.2203Z"
      fill="#D9D9D9" />
    <path
      d="M20.2054 28.4175H19.6232C19.4623 28.4175 19.332 28.5478 19.332 28.7086V31.3288H19.9143V30.1642H20.2054C20.6876 30.1642 21.0788 29.773 21.0788 29.2909C21.0788 28.8087 20.6876 28.4175 20.2054 28.4175ZM20.2054 29.582H19.9143V28.9997H20.2054C20.3663 28.9997 20.4965 29.13 20.4965 29.2909C20.4965 29.4517 20.3663 29.582 20.2054 29.582Z"
      fill="#D9D9D9" />
    <path
      d="M22.2433 28.4175H21.661C21.5002 28.4175 21.3699 28.5478 21.3699 28.7086V31.3288H21.9521V30.1642H22.2433C22.7254 30.1642 23.1166 29.773 23.1166 29.2909C23.1166 28.8087 22.7254 28.4175 22.2433 28.4175ZM22.2433 29.582H21.9521V28.9997H22.2433C22.4041 28.9997 22.5344 29.13 22.5344 29.2909C22.5344 29.4517 22.4041 29.582 22.2433 29.582Z"
      fill="#D9D9D9" />
    <path
      d="M25.1545 29.2909C25.1545 28.8087 24.7633 28.4175 24.2811 28.4175H23.6988C23.538 28.4175 23.4077 28.5478 23.4077 28.7086V31.3288H23.99V30.1642H24.1523C24.4212 30.4732 24.5704 30.8688 24.5722 31.2785V31.3288H25.1545V31.2785C25.1534 30.8284 25.0195 30.3884 24.7702 30.0139C25.0104 29.8516 25.1545 29.5809 25.1545 29.2909ZM23.99 28.9997H24.2811C24.4419 28.9997 24.5722 29.13 24.5722 29.2909C24.5722 29.4517 24.4419 29.582 24.2811 29.582H23.99V28.9997Z"
      fill="#D9D9D9" />
    <path
      d="M28.6482 29.8375L28.4207 30.7465H28.2933L28.0659 29.8375V28.4175H27.4836V29.8731C27.4836 29.8968 27.4866 29.9204 27.4924 29.9437L27.7835 31.1082C27.8159 31.2378 27.9323 31.3288 28.0659 31.3288H28.6482C28.7817 31.3288 28.8982 31.2378 28.9305 31.1082L29.2217 29.9437C29.2275 29.9208 29.2304 29.8971 29.2304 29.8731V28.4175H28.6482V29.8375Z"
      fill="#D9D9D9" />
    <path
      d="M29.5215 28.7086V31.0376C29.5215 31.1985 29.6518 31.3288 29.8126 31.3288H30.9771V30.7465H30.1037V30.1642H30.9771V29.582H30.1037V28.9997H30.9771V28.4175H29.8126C29.6518 28.4175 29.5215 28.5478 29.5215 28.7086Z"
      fill="#D9D9D9" />
    <path
      d="M26.3192 28.4175C25.837 28.4175 25.4458 28.8087 25.4458 29.2909V30.4554C25.4458 30.9375 25.837 31.3288 26.3192 31.3288C26.8014 31.3288 27.1926 30.9375 27.1926 30.4554V29.2909C27.1926 28.8083 26.8014 28.4175 26.3192 28.4175ZM26.6103 30.4554C26.6103 30.6162 26.48 30.7465 26.3192 30.7465C26.1583 30.7465 26.0281 30.6162 26.0281 30.4554V29.2909C26.0281 29.13 26.1583 28.9997 26.3192 28.9997C26.48 28.9997 26.6103 29.13 26.6103 29.2909V30.4554Z"
      fill="#D9D9D9" />
    <path
      d="M32.1417 28.4175H31.5594C31.3986 28.4175 31.2683 28.5478 31.2683 28.7086V31.0376C31.2683 31.1985 31.3986 31.3288 31.5594 31.3288H32.1417C32.6239 31.3288 33.0151 30.9375 33.0151 30.4554V29.2909C33.0151 28.8083 32.6239 28.4175 32.1417 28.4175ZM32.4328 30.4554C32.4328 30.6162 32.3025 30.7465 32.1417 30.7465H31.8506V28.9997H32.1417C32.3025 28.9997 32.4328 29.13 32.4328 29.2909V30.4554Z"
      fill="#D9D9D9" />
  </g>
  <defs>
    <clipPath id="clip0_261_10088">
      <rect width="18.0499" height="18.0499" fill="white" transform="translate(16.1296 15.8989)" />
    </clipPath>
  </defs>
</svg>