<svg width="51" height="52" viewBox="0 0 51 52" fill="none" xmlns="http://www.w3.org/2000/svg">
  <path opacity="0.13"
    d="M25.5775 51.5419C35.5883 51.5126 43.702 50.8859 43.6998 50.1421C43.6976 49.3983 35.5805 48.819 25.5696 48.8483C15.5588 48.8776 7.44512 49.5044 7.4473 50.2482C7.44948 50.992 15.5666 51.5712 25.5775 51.5419Z"
    fill="#485B78" />
  <path
    d="M36.9149 39.5805C44.6944 33.2797 45.893 21.8654 39.5922 14.086C33.2913 6.30656 21.877 5.10791 14.0976 11.4087C6.31818 17.7096 5.11955 29.1239 11.4204 36.9033C17.7212 44.6827 29.1355 45.8814 36.9149 39.5805Z"
    stroke="#485B78" stroke-miterlimit="10" />
  <path
    d="M36.6355 36.3324C42.6118 30.1855 42.4735 20.3578 36.3266 14.3815C30.1797 8.40523 20.352 8.54352 14.3757 14.6904C8.39941 20.8373 8.53772 30.665 14.6846 36.6413C20.8315 42.6176 30.6592 42.4793 36.6355 36.3324Z"
    fill="#F44336" />
  <path d="M29.7031 3.75032L38.5129 3.72949" stroke="#485B78" stroke-miterlimit="10"
    stroke-linecap="round" />
  <path d="M35.0762 6.43001L43.8859 6.40918" stroke="#485B78" stroke-miterlimit="10"
    stroke-linecap="round" />
  <path d="M21.7676 4.85372L26.1759 4.83984" stroke="#485B78" stroke-miterlimit="10"
    stroke-linecap="round" />
  <path d="M17.4922 47.1117L26.295 47.084" stroke="#485B78" stroke-miterlimit="10"
    stroke-linecap="round" />
  <path d="M24.0938 45.6537L32.8965 45.626" stroke="#485B78" stroke-miterlimit="10"
    stroke-linecap="round" />
  <path d="M12.666 44.966L17.0674 44.9521" stroke="#485B78" stroke-miterlimit="10"
    stroke-linecap="round" />
  <path opacity="0.35" d="M35 17.1484C35 17.1484 43.3585 24.3406 35.0555 34.9484" stroke="white"
    stroke-width="3" stroke-miterlimit="10" stroke-linecap="round" />
  <g clip-path="url(#clip0_544_17819)">
    <path
      d="M25.1559 25.7971C27.407 25.7971 29.2316 23.9724 29.2316 21.7213C29.2316 19.4701 27.407 17.6455 25.1559 17.6455C22.9047 17.6455 21.0801 19.4701 21.0801 21.7213C21.0826 23.9713 22.9058 25.7945 25.1559 25.7971ZM25.1559 18.2278C27.0853 18.2278 28.6494 19.7918 28.6494 21.7213C28.6494 23.6507 27.0853 25.2148 25.1559 25.2148C23.2264 25.2148 21.6623 23.6507 21.6623 21.7213C21.6645 19.7926 23.2271 18.2299 25.1559 18.2278Z"
      fill="#FFB1AB" />
    <path
      d="M24.2817 24.3414C24.3588 24.3414 24.4331 24.3108 24.4876 24.2562L27.9812 20.7627C28.0947 20.6492 28.0947 20.4647 27.9812 20.3511L27.1078 19.4777C26.9942 19.3642 26.8097 19.3642 26.6962 19.4777L24.2817 21.8919L23.6143 21.2245C23.5007 21.111 23.3162 21.111 23.2027 21.2245L22.3293 22.0979C22.2158 22.2114 22.2158 22.3959 22.3293 22.5095L24.0761 24.2562C24.1303 24.3108 24.2045 24.3414 24.2817 24.3414ZM23.4083 21.8417L24.0757 22.5091C24.1892 22.6226 24.3737 22.6226 24.4873 22.5091L26.9018 20.0949L27.3636 20.5567L24.2817 23.6387L22.9465 22.3035L23.4083 21.8417Z"
      fill="#FFB1AB" />
    <path
      d="M32.7251 25.7966H29.3109C29.7148 25.3748 29.9663 24.8304 30.0256 24.2496C30.0416 23.953 30.1504 23.6688 30.336 23.4366C31.1927 22.453 31.1927 20.9882 30.336 20.005C30.1504 19.7728 30.0416 19.4886 30.0256 19.192C29.9023 17.954 28.923 16.9743 27.6846 16.8513C27.388 16.8353 27.1038 16.7265 26.8716 16.5409C25.888 15.6843 24.4232 15.6843 23.44 16.5409C23.2078 16.7265 22.9236 16.8353 22.627 16.8513C21.389 16.9747 20.4093 17.954 20.2863 19.1924C20.2703 19.4889 20.1615 19.7732 19.9759 20.0053C19.1193 20.989 19.1193 22.4537 19.9759 23.437C20.1615 23.6692 20.2703 23.9534 20.2863 24.25C20.3457 24.8308 20.5971 25.3752 21.0011 25.7966H17.5865C16.783 25.7977 16.132 26.4487 16.1309 27.2522V32.4925C16.132 33.296 16.783 33.947 17.5865 33.9481H32.7251C33.5286 33.947 34.1796 33.296 34.1807 32.4925V27.2522C34.1796 26.4487 33.5286 25.7977 32.7251 25.7966ZM20.4148 23.0545C19.7492 22.2899 19.7492 21.1516 20.4148 20.3871C20.6808 20.0646 20.8384 19.6669 20.8657 19.2499C20.9607 18.2873 21.7223 17.526 22.6845 17.4307C23.1015 17.4034 23.4996 17.2458 23.8221 16.9798C24.5866 16.3142 25.7249 16.3142 26.4895 16.9798C26.8119 17.2458 27.2097 17.4034 27.6267 17.4307C28.5893 17.5257 29.3506 18.2873 29.4459 19.2495C29.4732 19.6665 29.6308 20.0646 29.8968 20.3871C30.5624 21.1516 30.5624 22.2899 29.8968 23.0545C29.6308 23.3769 29.4732 23.7747 29.4459 24.1917C29.3506 25.1543 28.5893 25.9156 27.6271 26.0109C27.2101 26.0382 26.8119 26.1958 26.4895 26.4618C25.7249 27.1274 24.5866 27.1274 23.8221 26.4618C23.4996 26.1958 23.1019 26.0382 22.6849 26.0109C21.7223 25.9156 20.961 25.1543 20.8657 24.1921C20.8384 23.7747 20.6808 23.3769 20.4148 23.0545ZM33.5985 32.4925C33.5985 32.9747 33.2073 33.3659 32.7251 33.3659H17.5865C17.1043 33.3659 16.7131 32.9747 16.7131 32.4925V27.2522C16.7131 26.77 17.1043 26.3788 17.5865 26.3788H21.8329C22.0848 26.4909 22.353 26.5622 22.627 26.5906C22.9236 26.6066 23.2078 26.7154 23.44 26.901C24.4236 27.7577 25.8883 27.7577 26.8716 26.901C27.1038 26.7154 27.388 26.6066 27.6846 26.5906C27.9586 26.5622 28.2268 26.4909 28.4786 26.3788H32.7251C33.2073 26.3788 33.5985 26.77 33.5985 27.2522V32.4925Z"
      fill="#FFB1AB" />
    <path
      d="M18.7447 28.6499C18.7171 28.5142 18.5977 28.417 18.4594 28.417H17.8772C17.7389 28.417 17.6195 28.5142 17.5919 28.6499L17.3007 30.1055C17.2967 30.1248 17.2949 30.1441 17.2949 30.1638V31.3283H17.8772V30.4549H18.4594V31.3283H19.0417V30.1638C19.0417 30.1441 19.0399 30.1248 19.0359 30.1055L18.7447 28.6499ZM18.2211 28.9992L18.3957 29.8726H17.9412L18.1159 28.9992H18.2211Z"
      fill="#FFB1AB" />
    <path
      d="M20.2074 28.417H19.6251C19.4643 28.417 19.334 28.5473 19.334 28.7081V31.3283H19.9162V30.1638H20.2074C20.6895 30.1638 21.0807 29.7726 21.0807 29.2904C21.0807 28.8082 20.6895 28.417 20.2074 28.417ZM20.2074 29.5815H19.9162V28.9992H20.2074C20.3682 28.9992 20.4985 29.1295 20.4985 29.2904C20.4985 29.4512 20.3682 29.5815 20.2074 29.5815Z"
      fill="#FFB1AB" />
    <path
      d="M22.2445 28.417H21.6622C21.5014 28.417 21.3711 28.5473 21.3711 28.7081V31.3283H21.9533V30.1638H22.2445C22.7267 30.1638 23.1179 29.7726 23.1179 29.2904C23.1179 28.8082 22.7267 28.417 22.2445 28.417ZM22.2445 29.5815H21.9533V28.9992H22.2445C22.4053 28.9992 22.5356 29.1295 22.5356 29.2904C22.5356 29.4512 22.4053 29.5815 22.2445 29.5815Z"
      fill="#FFB1AB" />
    <path
      d="M25.155 29.2904C25.155 28.8082 24.7638 28.417 24.2816 28.417H23.6993C23.5385 28.417 23.4082 28.5473 23.4082 28.7081V31.3283H23.9905V30.1638H24.1528C24.4217 30.4727 24.5709 30.8683 24.5727 31.278V31.3283H25.155V31.278C25.1539 30.8279 25.02 30.3879 24.7707 30.0135C25.0109 29.8512 25.155 29.5804 25.155 29.2904ZM23.9905 28.9992H24.2816C24.4424 28.9992 24.5727 29.1295 24.5727 29.2904C24.5727 29.4512 24.4424 29.5815 24.2816 29.5815H23.9905V28.9992Z"
      fill="#FFB1AB" />
    <path
      d="M28.6489 29.837L28.4214 30.746H28.2941L28.0666 29.837V28.417H27.4844V29.8726C27.4844 29.8963 27.4873 29.9199 27.4931 29.9432L27.7842 31.1077C27.8166 31.2373 27.9331 31.3283 28.0666 31.3283H28.6489C28.7824 31.3283 28.8989 31.2373 28.9313 31.1077L29.2224 29.9432C29.2282 29.9203 29.2311 29.8966 29.2311 29.8726V28.417H28.6489V29.837Z"
      fill="#FFB1AB" />
    <path
      d="M29.5234 28.7081V31.0371C29.5234 31.198 29.6537 31.3283 29.8146 31.3283H30.9791V30.746H30.1057V30.1638H30.9791V29.5815H30.1057V28.9992H30.9791V28.417H29.8146C29.6537 28.417 29.5234 28.5473 29.5234 28.7081Z"
      fill="#FFB1AB" />
    <path
      d="M26.3206 28.417C25.8385 28.417 25.4473 28.8082 25.4473 29.2904V30.4549C25.4473 30.9371 25.8385 31.3283 26.3206 31.3283C26.8028 31.3283 27.194 30.9371 27.194 30.4549V29.2904C27.194 28.8078 26.8028 28.417 26.3206 28.417ZM26.6118 30.4549C26.6118 30.6157 26.4815 30.746 26.3206 30.746C26.1598 30.746 26.0295 30.6157 26.0295 30.4549V29.2904C26.0295 29.1295 26.1598 28.9992 26.3206 28.9992C26.4815 28.9992 26.6118 29.1295 26.6118 29.2904V30.4549Z"
      fill="#FFB1AB" />
    <path
      d="M32.1429 28.417H31.5607C31.3998 28.417 31.2695 28.5473 31.2695 28.7081V31.0371C31.2695 31.198 31.3998 31.3283 31.5607 31.3283H32.1429C32.6251 31.3283 33.0163 30.9371 33.0163 30.4549V29.2904C33.0163 28.8078 32.6251 28.417 32.1429 28.417ZM32.434 30.4549C32.434 30.6157 32.3038 30.746 32.1429 30.746H31.8518V28.9992H32.1429C32.3038 28.9992 32.434 29.1295 32.434 29.2904V30.4549Z"
      fill="#FFB1AB" />
  </g>
  <defs>
    <clipPath id="clip0_544_17819">
      <rect width="18.0499" height="18.0499" fill="white" transform="translate(16.1309 15.8984)" />
    </clipPath>
  </defs>
</svg>