<svg width="51" height="52" viewBox="0 0 51 52" fill="none" xmlns="http://www.w3.org/2000/svg">
  <path opacity="0.13"
    d="M25.576 51.5414C35.5869 51.5121 43.7005 50.8854 43.6983 50.1416C43.6961 49.3978 35.579 48.8185 25.5681 48.8478C15.5573 48.8771 7.44366 49.5039 7.44584 50.2477C7.44801 50.9915 15.5652 51.5707 25.576 51.5414Z"
    fill="#485B78" />
  <path
    d="M36.9142 39.5805C44.6936 33.2797 45.8923 21.8654 39.5914 14.086C33.2906 6.30656 21.8763 5.10791 14.0969 11.4087C6.31745 17.7096 5.11882 29.1239 11.4196 36.9033C17.7205 44.6827 29.1348 45.8814 36.9142 39.5805Z"
    stroke="#485B78" stroke-miterlimit="10" />
  <path
    d="M36.6355 36.3319C42.6118 30.1851 42.4735 20.3573 36.3266 14.381C30.1797 8.40474 20.352 8.54304 14.3757 14.6899C8.39941 20.8368 8.53772 30.6646 14.6846 36.6408C20.8315 42.6171 30.6592 42.4788 36.6355 36.3319Z"
    fill="#51A555" />
  <path d="M29.7019 3.74983L38.5116 3.729" stroke="#485B78" stroke-miterlimit="10"
    stroke-linecap="round" />
  <path d="M35.075 6.42952L43.8847 6.40869" stroke="#485B78" stroke-miterlimit="10"
    stroke-linecap="round" />
  <path d="M21.7668 4.85372L26.1752 4.83984" stroke="#485B78" stroke-miterlimit="10"
    stroke-linecap="round" />
  <path d="M17.4902 47.1112L26.293 47.0835" stroke="#485B78" stroke-miterlimit="10"
    stroke-linecap="round" />
  <path d="M24.0925 45.6532L32.8953 45.6255" stroke="#485B78" stroke-miterlimit="10"
    stroke-linecap="round" />
  <path d="M12.6655 44.966L17.0669 44.9521" stroke="#485B78" stroke-miterlimit="10"
    stroke-linecap="round" />
  <path opacity="0.35" d="M34.9988 17.1484C34.9988 17.1484 43.3573 24.3406 35.0543 34.9484"
    stroke="white" stroke-width="3" stroke-miterlimit="10" stroke-linecap="round" />
  <g clip-path="url(#clip0_261_10113)">
    <path
      d="M34.9669 20.2654C34.905 20.0351 34.7539 19.8386 34.5469 19.7194C34.3399 19.5998 34.0939 19.5675 33.8629 19.6294C33.6323 19.6916 33.4361 19.8424 33.3169 20.0494L33.1669 20.3104C33.0244 20.2286 32.8425 20.2766 32.7589 20.4184L31.9969 21.717L31.7359 21.567C31.6669 21.5269 31.5844 21.516 31.5075 21.537C31.4303 21.558 31.3646 21.6086 31.3249 21.678C31.2435 21.8213 31.293 22.0035 31.4359 22.086L31.6969 22.236L29.1473 26.6543L28.5173 28.3373L28.2173 28.8979C28.0418 29.2035 28.0605 29.583 28.2653 29.8699L27.5903 30.6975L27.4013 30.2239C27.3161 30.0128 27.1189 29.868 26.892 29.8504C26.6651 29.8324 26.4476 29.9449 26.3306 30.1399L26.2226 30.3229L26.1206 29.1233C26.0974 28.8394 25.8773 28.6114 25.5949 28.5769C25.3121 28.5428 25.0444 28.7123 24.954 28.9823L24.216 31.1959C24.1646 31.3526 24.2486 31.521 24.405 31.5739C24.4343 31.5874 24.4658 31.5956 24.498 31.5979C24.627 31.5983 24.7418 31.5161 24.783 31.3939L25.5176 29.1803L25.6226 30.3979C25.6444 30.6578 25.8311 30.8738 26.085 30.9326C26.3389 30.9915 26.6018 30.8798 26.7353 30.6559L26.8463 30.4729L27.0323 30.9439C27.1114 31.1423 27.2899 31.284 27.501 31.3155C27.7125 31.347 27.9244 31.2638 28.0579 31.0969L28.7569 30.2123C28.8341 30.2325 28.914 30.2426 28.9939 30.2423C29.3153 30.2449 29.6138 30.0754 29.7769 29.7983L30.0769 29.2973L31.2199 27.9086L33.7965 23.4364L34.0575 23.5864C34.1273 23.6261 34.1779 23.6921 34.1985 23.7694C34.2191 23.8463 34.2086 23.9284 34.1685 23.9974L32.9689 26.076C32.9235 26.1443 32.9081 26.2279 32.9265 26.3081C32.9445 26.388 32.9948 26.457 33.0649 26.499C33.1339 26.5391 33.2164 26.55 33.2933 26.529C33.3705 26.508 33.4361 26.4574 33.4759 26.388L34.6755 24.3094C34.7951 24.1024 34.8274 23.8564 34.7655 23.6254C34.7033 23.3948 34.5525 23.1986 34.3455 23.0794L34.0845 22.9294L34.8345 21.6308C34.9163 21.4883 34.8683 21.3064 34.7265 21.2228L34.8765 20.9618C34.9999 20.751 35.0321 20.5001 34.9669 20.2654ZM33.8359 20.3494C33.8756 20.28 33.9416 20.229 34.0189 20.2084C34.0958 20.1893 34.1775 20.2001 34.2469 20.2384C34.3166 20.2781 34.3673 20.3441 34.3879 20.4214C34.407 20.4983 34.3961 20.58 34.3579 20.6494L34.2079 20.9104L33.6859 20.6104L33.8359 20.3494ZM29.7476 28.7243L29.5976 28.6373L29.1536 28.3793L29.5796 27.2396L30.5243 27.7856L29.7476 28.7243ZM28.848 29.5909C28.7213 29.5024 28.6823 29.3325 28.758 29.1979L28.908 28.9369L29.43 29.2369L29.28 29.4949C29.238 29.5676 29.1675 29.6198 29.0854 29.6381C29.0029 29.6561 28.917 29.6393 28.848 29.5909ZM30.8666 27.2933L29.829 26.6933L32.2286 22.536L33.2663 23.136L30.8666 27.2933ZM33.5659 22.617L32.5283 22.017L33.1283 20.9794L34.1659 21.5794L33.5659 22.617Z"
      fill="#D9D9D9" />
    <path
      d="M21.7332 29.4409L20.6716 30.4999L20.0356 29.8639C19.9186 29.7476 19.7296 29.7476 19.6126 29.8639C19.5556 29.9201 19.5237 29.997 19.5237 30.0769C19.5237 30.1568 19.5556 30.2336 19.6126 30.2899L20.2486 30.9259C20.3611 31.0376 20.5129 31.0999 20.6716 31.0999C20.8309 31.1006 20.9843 31.0384 21.0976 30.9259L22.1562 29.8639C22.2582 29.7446 22.2511 29.5676 22.1404 29.4566C22.0294 29.3456 21.8521 29.3389 21.7332 29.4409Z"
      fill="#D9D9D9" />
    <path
      d="M18.1997 30.2477C18.1997 31.6558 19.3412 32.7973 20.7493 32.7973C22.1575 32.7973 23.299 31.6558 23.299 30.2477C23.299 30.0819 23.1647 29.9477 22.999 29.9477C22.8332 29.9477 22.699 30.0819 22.699 30.2477C22.699 31.3243 21.826 32.1973 20.7493 32.1973C19.6727 32.1973 18.7997 31.3243 18.7997 30.2477C18.7997 29.1711 19.6727 28.2981 20.7493 28.2981C21.1716 28.2969 21.5822 28.4338 21.919 28.6881C22.0513 28.7874 22.2396 28.7604 22.339 28.628C22.4383 28.4957 22.4117 28.3074 22.279 28.208C21.5065 27.6287 20.4726 27.5357 19.609 27.9673C18.7453 28.3989 18.1997 29.2821 18.1997 30.2477Z"
      fill="#D9D9D9" />
    <path
      d="M27.7982 18.3998C27.964 18.3998 28.0982 18.2656 28.0982 18.0998C28.0982 17.9341 27.964 17.7998 27.7982 17.7998H19.9997C19.834 17.7998 19.6997 17.9341 19.6997 18.0998V19.2994C19.6997 19.4652 19.834 19.5994 19.9997 19.5994H27.7982C27.964 19.5994 28.0982 19.4652 28.0982 19.2994C28.0982 19.1337 27.964 18.9994 27.7982 18.9994H20.2997V18.3994H27.7982V18.3998Z"
      fill="#D9D9D9" />
    <path
      d="M20.8994 20.1992C20.7336 20.1992 20.5994 20.3335 20.5994 20.4992C20.5994 20.665 20.7336 20.7992 20.8994 20.7992H26.8982C27.064 20.7992 27.1982 20.665 27.1982 20.4992C27.1982 20.3335 27.064 20.1992 26.8982 20.1992H20.8994Z"
      fill="#D9D9D9" />
    <path
      d="M28.6982 22.2988H22.0993C21.9336 22.2988 21.7993 22.4331 21.7993 22.5988C21.7993 22.7646 21.9336 22.8988 22.0993 22.8988H28.6982C28.8639 22.8988 28.9982 22.7646 28.9982 22.5988C28.9982 22.4331 28.8636 22.2988 28.6982 22.2988Z"
      fill="#D9D9D9" />
    <path
      d="M25.6985 24.3986C25.6985 24.2329 25.5642 24.0986 25.3985 24.0986H19.3996C19.2339 24.0986 19.0996 24.2329 19.0996 24.3986C19.0996 24.5644 19.2339 24.6986 19.3996 24.6986H25.3985C25.5642 24.6986 25.6985 24.5644 25.6985 24.3986Z"
      fill="#D9D9D9" />
    <path
      d="M28.6982 24.0986H26.5986C26.4328 24.0986 26.2986 24.2329 26.2986 24.3986C26.2986 24.5644 26.4328 24.6986 26.5986 24.6986H28.6982C28.864 24.6986 28.9982 24.5644 28.9982 24.3986C28.9982 24.2329 28.8636 24.0986 28.6982 24.0986Z"
      fill="#D9D9D9" />
    <path
      d="M22.3992 26.1981C22.565 26.1981 22.6992 26.0639 22.6992 25.8981C22.6992 25.7324 22.565 25.5981 22.3992 25.5981H19.3996C19.2339 25.5981 19.0996 25.7324 19.0996 25.8981C19.0996 26.0639 19.2339 26.1981 19.3996 26.1981H22.3992Z"
      fill="#D9D9D9" />
    <path
      d="M23.5988 26.1981H25.6985C25.8642 26.1981 25.9985 26.0639 25.9985 25.8981C25.9985 25.7324 25.8642 25.5981 25.6985 25.5981H23.5988C23.4331 25.5981 23.2988 25.7324 23.2988 25.8981C23.2988 26.0643 23.4331 26.1981 23.5988 26.1981Z"
      fill="#D9D9D9" />
    <path
      d="M30.4977 29.7977C30.332 29.7977 30.1977 29.932 30.1977 30.0977V33.0974C30.1977 33.2631 30.0635 33.3974 29.8977 33.3974H17.9C17.7342 33.3974 17.6 33.2631 17.6 33.0974V16.9C17.6 16.7342 17.7342 16.6 17.9 16.6H29.8981C30.0639 16.6 30.1981 16.7342 30.1981 16.9V22.5332C30.1981 22.699 30.3324 22.8332 30.4981 22.8332C30.6639 22.8332 30.7981 22.699 30.7981 22.5332V16.9C30.7981 16.4031 30.3954 16 29.8981 16H17.9C17.4027 16 17 16.4027 17 16.9V33.0974C17 33.5946 17.4027 33.9974 17.9 33.9974H29.8981C30.395 33.9974 30.7981 33.5946 30.7981 33.0974V30.0977C30.7977 29.932 30.6635 29.7977 30.4977 29.7977Z"
      fill="#D9D9D9" />
  </g>
  <defs>
    <clipPath id="clip0_261_10113">
      <rect width="18" height="17.997" fill="white" transform="translate(17 16)" />
    </clipPath>
  </defs>
</svg>