<svg width="51" height="52" viewBox="0 0 51 52" fill="none" xmlns="http://www.w3.org/2000/svg">
  <path opacity="0.13"
    d="M25.5775 51.5419C35.5883 51.5126 43.702 50.8859 43.6998 50.1421C43.6976 49.3983 35.5805 48.819 25.5696 48.8483C15.5588 48.8776 7.44512 49.5044 7.4473 50.2482C7.44948 50.992 15.5666 51.5712 25.5775 51.5419Z"
    fill="#485B78" />
  <path
    d="M36.9149 39.5805C44.6944 33.2797 45.893 21.8654 39.5922 14.086C33.2913 6.30656 21.877 5.10791 14.0976 11.4087C6.31818 17.7096 5.11955 29.1239 11.4204 36.9033C17.7212 44.6827 29.1355 45.8814 36.9149 39.5805Z"
    stroke="#485B78" stroke-miterlimit="10" />
  <path
    d="M36.6355 36.3324C42.6118 30.1855 42.4735 20.3578 36.3266 14.3815C30.1797 8.40523 20.352 8.54352 14.3757 14.6904C8.39941 20.8373 8.53772 30.665 14.6846 36.6413C20.8315 42.6176 30.6592 42.4793 36.6355 36.3324Z"
    fill="#F44336" />
  <path d="M29.7031 3.75032L38.5129 3.72949" stroke="#485B78" stroke-miterlimit="10"
    stroke-linecap="round" />
  <path d="M35.0762 6.43001L43.8859 6.40918" stroke="#485B78" stroke-miterlimit="10"
    stroke-linecap="round" />
  <path d="M21.7676 4.85372L26.1759 4.83984" stroke="#485B78" stroke-miterlimit="10"
    stroke-linecap="round" />
  <path d="M17.4922 47.1117L26.295 47.084" stroke="#485B78" stroke-miterlimit="10"
    stroke-linecap="round" />
  <path d="M24.0938 45.6537L32.8965 45.626" stroke="#485B78" stroke-miterlimit="10"
    stroke-linecap="round" />
  <path d="M12.666 44.966L17.0674 44.9521" stroke="#485B78" stroke-miterlimit="10"
    stroke-linecap="round" />
  <path opacity="0.35" d="M35 17.1484C35 17.1484 43.3585 24.3406 35.0555 34.9484" stroke="white"
    stroke-width="3" stroke-miterlimit="10" stroke-linecap="round" />
  <g clip-path="url(#clip0_544_17998)">
    <path
      d="M34.9671 20.2654C34.9053 20.0351 34.7541 19.8386 34.5471 19.7194C34.3401 19.5998 34.0941 19.5675 33.8631 19.6294C33.6325 19.6916 33.4364 19.8424 33.3171 20.0494L33.1671 20.3104C33.0246 20.2286 32.8428 20.2766 32.7591 20.4184L31.9971 21.717L31.7361 21.567C31.6671 21.5269 31.5846 21.516 31.5078 21.537C31.4305 21.558 31.3649 21.6086 31.3251 21.678C31.2438 21.8213 31.2933 22.0035 31.4361 22.086L31.6971 22.236L29.1475 26.6543L28.5175 28.3373L28.2175 28.8979C28.042 29.2035 28.0608 29.583 28.2655 29.8699L27.5905 30.6975L27.4015 30.2239C27.3164 30.0128 27.1191 29.868 26.8923 29.8504C26.6654 29.8324 26.4479 29.9449 26.3309 30.1399L26.2229 30.3229L26.1209 29.1233C26.0976 28.8394 25.8775 28.6114 25.5951 28.5769C25.3124 28.5428 25.0446 28.7123 24.9543 28.9823L24.2163 31.1959C24.1649 31.3526 24.2489 31.521 24.4053 31.5739C24.4345 31.5874 24.466 31.5956 24.4983 31.5979C24.6273 31.5983 24.742 31.5161 24.7833 31.3939L25.5179 29.1803L25.6229 30.3979C25.6446 30.6578 25.8314 30.8738 26.0853 30.9326C26.3391 30.9915 26.602 30.8798 26.7355 30.6559L26.8465 30.4729L27.0325 30.9439C27.1116 31.1423 27.2901 31.284 27.5013 31.3155C27.7128 31.347 27.9246 31.2638 28.0581 31.0969L28.7571 30.2123C28.8344 30.2325 28.9143 30.2426 28.9941 30.2423C29.3155 30.2449 29.614 30.0754 29.7771 29.7983L30.0771 29.2973L31.2201 27.9086L33.7968 23.4364L34.0578 23.5864C34.1275 23.6261 34.1781 23.6921 34.1988 23.7694C34.2194 23.8463 34.2089 23.9284 34.1688 23.9974L32.9691 26.076C32.9238 26.1443 32.9084 26.2279 32.9268 26.3081C32.9448 26.388 32.995 26.457 33.0651 26.499C33.1341 26.5391 33.2166 26.55 33.2935 26.529C33.3708 26.508 33.4364 26.4574 33.4761 26.388L34.6758 24.3094C34.7954 24.1024 34.8276 23.8564 34.7658 23.6254C34.7035 23.3948 34.5528 23.1986 34.3458 23.0794L34.0848 22.9294L34.8348 21.6308C34.9165 21.4883 34.8685 21.3064 34.7268 21.2228L34.8768 20.9618C35.0001 20.751 35.0324 20.5001 34.9671 20.2654ZM33.8361 20.3494C33.8759 20.28 33.9419 20.229 34.0191 20.2084C34.096 20.1893 34.1778 20.2001 34.2471 20.2384C34.3169 20.2781 34.3675 20.3441 34.3881 20.4214C34.4073 20.4983 34.3964 20.58 34.3581 20.6494L34.2081 20.9104L33.6861 20.6104L33.8361 20.3494ZM29.7479 28.7243L29.5979 28.6373L29.1539 28.3793L29.5799 27.2396L30.5245 27.7856L29.7479 28.7243ZM28.8483 29.5909C28.7215 29.5024 28.6825 29.3325 28.7583 29.1979L28.9083 28.9369L29.4303 29.2369L29.2803 29.4949C29.2383 29.5676 29.1678 29.6198 29.0856 29.6381C29.0031 29.6561 28.9173 29.6393 28.8483 29.5909ZM30.8669 27.2933L29.8293 26.6933L32.2289 22.536L33.2665 23.136L30.8669 27.2933ZM33.5661 22.617L32.5285 22.017L33.1285 20.9794L34.1661 21.5794L33.5661 22.617Z"
      fill="#FFB1AB" />
    <path
      d="M21.7329 29.4404L20.6713 30.4994L20.0353 29.8634C19.9183 29.7471 19.7293 29.7471 19.6123 29.8634C19.5553 29.9196 19.5234 29.9965 19.5234 30.0764C19.5234 30.1563 19.5553 30.2331 19.6123 30.2894L20.2483 30.9254C20.3608 31.0371 20.5127 31.0994 20.6713 31.0994C20.8307 31.1001 20.9841 31.0379 21.0973 30.9254L22.1559 29.8634C22.2579 29.7441 22.2508 29.5671 22.1402 29.4561C22.0292 29.3451 21.8518 29.3384 21.7329 29.4404Z"
      fill="#FFB1AB" />
    <path
      d="M18.1992 30.2477C18.1992 31.6558 19.3407 32.7973 20.7488 32.7973C22.157 32.7973 23.2985 31.6558 23.2985 30.2477C23.2985 30.0819 23.1642 29.9477 22.9985 29.9477C22.8327 29.9477 22.6985 30.0819 22.6985 30.2477C22.6985 31.3243 21.8255 32.1973 20.7488 32.1973C19.6722 32.1973 18.7992 31.3243 18.7992 30.2477C18.7992 29.1711 19.6722 28.2981 20.7488 28.2981C21.1711 28.2969 21.5817 28.4338 21.9185 28.6881C22.0508 28.7874 22.2391 28.7604 22.3385 28.628C22.4378 28.4957 22.4112 28.3074 22.2785 28.208C21.506 27.6287 20.4721 27.5357 19.6085 27.9673C18.7448 28.3989 18.1992 29.2821 18.1992 30.2477Z"
      fill="#FFB1AB" />
    <path
      d="M27.7977 18.3998C27.9635 18.3998 28.0977 18.2656 28.0977 18.0998C28.0977 17.9341 27.9635 17.7998 27.7977 17.7998H19.9992C19.8335 17.7998 19.6992 17.9341 19.6992 18.0998V19.2994C19.6992 19.4652 19.8335 19.5994 19.9992 19.5994H27.7977C27.9635 19.5994 28.0977 19.4652 28.0977 19.2994C28.0977 19.1337 27.9635 18.9994 27.7977 18.9994H20.2992V18.3994H27.7977V18.3998Z"
      fill="#FFB1AB" />
    <path
      d="M20.8996 20.1992C20.7339 20.1992 20.5996 20.3335 20.5996 20.4992C20.5996 20.665 20.7339 20.7992 20.8996 20.7992H26.8985C27.0642 20.7992 27.1985 20.665 27.1985 20.4992C27.1985 20.3335 27.0642 20.1992 26.8985 20.1992H20.8996Z"
      fill="#FFB1AB" />
    <path
      d="M28.6977 22.2988H22.0988C21.9331 22.2988 21.7988 22.4331 21.7988 22.5988C21.7988 22.7646 21.9331 22.8988 22.0988 22.8988H28.6977C28.8635 22.8988 28.9977 22.7646 28.9977 22.5988C28.9977 22.4331 28.8631 22.2988 28.6977 22.2988Z"
      fill="#FFB1AB" />
    <path
      d="M25.6985 24.3986C25.6985 24.2329 25.5642 24.0986 25.3985 24.0986H19.3996C19.2339 24.0986 19.0996 24.2329 19.0996 24.3986C19.0996 24.5644 19.2339 24.6986 19.3996 24.6986H25.3985C25.5642 24.6986 25.6985 24.5644 25.6985 24.3986Z"
      fill="#FFB1AB" />
    <path
      d="M28.6985 24.0986H26.5988C26.4331 24.0986 26.2988 24.2329 26.2988 24.3986C26.2988 24.5644 26.4331 24.6986 26.5988 24.6986H28.6985C28.8642 24.6986 28.9985 24.5644 28.9985 24.3986C28.9985 24.2329 28.8638 24.0986 28.6985 24.0986Z"
      fill="#FFB1AB" />
    <path
      d="M22.3992 26.1977C22.565 26.1977 22.6992 26.0634 22.6992 25.8977C22.6992 25.7319 22.565 25.5977 22.3992 25.5977H19.3996C19.2339 25.5977 19.0996 25.7319 19.0996 25.8977C19.0996 26.0634 19.2339 26.1977 19.3996 26.1977H22.3992Z"
      fill="#FFB1AB" />
    <path
      d="M23.5988 26.1977H25.6985C25.8642 26.1977 25.9985 26.0634 25.9985 25.8977C25.9985 25.7319 25.8642 25.5977 25.6985 25.5977H23.5988C23.4331 25.5977 23.2988 25.7319 23.2988 25.8977C23.2988 26.0638 23.4331 26.1977 23.5988 26.1977Z"
      fill="#FFB1AB" />
    <path
      d="M30.4977 29.7977C30.332 29.7977 30.1977 29.932 30.1977 30.0977V33.0974C30.1977 33.2631 30.0635 33.3974 29.8977 33.3974H17.9C17.7342 33.3974 17.6 33.2631 17.6 33.0974V16.9C17.6 16.7342 17.7342 16.6 17.9 16.6H29.8981C30.0639 16.6 30.1981 16.7342 30.1981 16.9V22.5332C30.1981 22.699 30.3324 22.8332 30.4981 22.8332C30.6639 22.8332 30.7981 22.699 30.7981 22.5332V16.9C30.7981 16.4031 30.3954 16 29.8981 16H17.9C17.4027 16 17 16.4027 17 16.9V33.0974C17 33.5946 17.4027 33.9974 17.9 33.9974H29.8981C30.395 33.9974 30.7981 33.5946 30.7981 33.0974V30.0977C30.7977 29.932 30.6635 29.7977 30.4977 29.7977Z"
      fill="#FFB1AB" />
  </g>
  <defs>
    <clipPath id="clip0_544_17998">
      <rect width="18" height="17.997" fill="white" transform="translate(17 16)" />
    </clipPath>
  </defs>
</svg>