<svg width="52" height="52" viewBox="0 0 52 52" fill="none" xmlns="http://www.w3.org/2000/svg">
  <path
    d="M34.9798 40.362C43.9673 35.4406 47.1245 24.4104 42.0316 15.7255C36.9386 7.04064 25.5241 3.98976 16.5366 8.9112C7.54903 13.8326 4.39183 24.8628 9.48478 33.5477C14.5777 42.2326 25.9922 45.2835 34.9798 40.362Z"
    stroke="#D9D9D9" stroke-miterlimit="10" />
  <path
    d="M25.7647 40.1112C34.6115 40.1112 41.7833 33.1809 41.7833 24.632C41.7833 16.0831 34.6115 9.15283 25.7647 9.15283C16.9179 9.15283 9.74609 16.0831 9.74609 24.632C9.74609 33.1809 16.9179 40.1112 25.7647 40.1112Z"
    fill="#51A555" />
  <path d="M30.0986 2.93638L39.1897 2.90869" stroke="#D9D9D9" stroke-miterlimit="10"
    stroke-linecap="round" />
  <path d="M35.6436 5.60825L44.7346 5.58057" stroke="#D9D9D9" stroke-miterlimit="10"
    stroke-linecap="round" />
  <path d="M21.9102 4.03679L26.4593 4.02295" stroke="#D9D9D9" stroke-miterlimit="10"
    stroke-linecap="round" />
  <path d="M17.4976 46.1687L26.5886 46.1479" stroke="#D9D9D9" stroke-miterlimit="10"
    stroke-linecap="round" />
  <path d="M24.3105 44.7146L33.4016 44.6938" stroke="#D9D9D9" stroke-miterlimit="10"
    stroke-linecap="round" />
  <path d="M12.5186 44.0363L17.0605 44.0225" stroke="#D9D9D9" stroke-miterlimit="10"
    stroke-linecap="round" />
  <path opacity="0.35" d="M35.5649 16.2969C35.5649 16.2969 44.1903 23.4688 35.6223 34.0467"
    stroke="white" stroke-width="3" stroke-miterlimit="10" stroke-linecap="round" />
  <path opacity="0.13"
    d="M44.5485 50.1905C44.5485 50.9313 36.181 51.5612 25.8506 51.5889C15.5202 51.6166 7.14551 51.042 7.14551 50.2944C7.14551 49.5536 15.513 48.9237 25.8434 48.896C36.1667 48.8683 44.5485 49.4498 44.5485 50.1905Z"
    fill="#D9D9D9" />
  <g clip-path="url(#clip0_261_10038)">
    <g clip-path="url(#clip1_261_10038)">
      <path
        d="M27.7311 33.5548H16.6941C15.7982 33.5536 15.0723 32.8521 15.071 31.9864V21.9485C15.071 21.7751 15.2163 21.6348 15.3957 21.6348H20.2649C20.3509 21.6348 20.4337 21.6677 20.4946 21.7265L22.0223 23.2032H27.7311C28.627 23.2044 29.3529 23.9058 29.3542 24.7716V31.9864C29.3529 32.8521 28.627 33.5536 27.7311 33.5548ZM15.7203 22.2621V31.9864C15.7203 32.5059 16.1565 32.9274 16.6941 32.9274H27.7311C28.2687 32.9274 28.7049 32.5059 28.7049 31.9864V24.7716C28.7049 24.2521 28.2687 23.8306 27.7311 23.8306H21.888C21.802 23.8306 21.7192 23.7976 21.6583 23.7388L20.1306 22.2621H15.7203Z"
        fill="#D9D9D9" />
      <path
        d="M32.2758 32.3001H29.0296V31.6727H31.9511V20.0663H22.8619V23.5169H22.2126V19.7526C22.2126 19.5793 22.3579 19.439 22.5373 19.439H32.2758C32.4551 19.439 32.6004 19.5793 32.6004 19.7526V31.9864C32.6004 32.1597 32.4551 32.3001 32.2758 32.3001Z"
        fill="#D9D9D9" />
      <path
        d="M35.5218 30.1043H32.2757V29.4769H35.1972V17.8705H26.108V19.7526H25.4587V17.5568C25.4587 17.3835 25.604 17.2432 25.7834 17.2432H35.5218C35.7012 17.2432 35.8465 17.3835 35.8465 17.5568V29.7906C35.8465 29.9639 35.7012 30.1043 35.5218 30.1043Z"
        fill="#D9D9D9" />
      <path d="M23.511 20.6938H24.1602V21.3212H23.511V20.6938Z" fill="#D9D9D9" />
      <path d="M24.8096 20.6938H27.4065V21.3212H24.8096V20.6938Z" fill="#D9D9D9" />
      <path d="M23.511 21.9482H31.3018V22.5756H23.511V21.9482Z" fill="#D9D9D9" />
      <path
        d="M22.5373 32.3H16.6942C16.5149 32.3 16.3696 32.1596 16.3696 31.9863V30.1042C16.3696 29.9309 16.5149 29.7905 16.6942 29.7905H22.5373C22.7167 29.7905 22.862 29.9309 22.862 30.1042V31.9863C22.862 32.1596 22.7167 32.3 22.5373 32.3ZM17.0189 31.6726H22.2127V30.4179H17.0189V31.6726Z"
        fill="#D9D9D9" />
      <path d="M17.668 30.7314H18.3172V31.3588H17.668V30.7314Z" fill="#D9D9D9" />
      <path d="M18.9666 30.7314H21.5635V31.3588H18.9666V30.7314Z" fill="#D9D9D9" />
      <path
        d="M22.3077 22.4839L20.7799 21.0073H17.0189V21.9483H16.3696V20.6936C16.3696 20.5203 16.5149 20.3799 16.6942 20.3799H20.9143C21.0003 20.3799 21.0831 20.4128 21.1439 20.4716L22.767 22.0401L22.3077 22.4839Z"
        fill="#D9D9D9" />
    </g>
  </g>
  <defs>
    <clipPath id="clip0_261_10038">
      <rect width="20.7754" height="20.0758" fill="white" transform="translate(13.686 14.5664)" />
    </clipPath>
    <clipPath id="clip1_261_10038">
      <rect width="20.7754" height="16.3116" fill="white" transform="translate(15.071 17.2432)" />
    </clipPath>
  </defs>
</svg>