<svg width="52" height="52" viewBox="0 0 52 52" fill="none" xmlns="http://www.w3.org/2000/svg">
  <path
    d="M34.9803 40.362C43.9678 35.4406 47.125 24.4104 42.0321 15.7255C36.9391 7.04064 25.5246 3.98976 16.5371 8.9112C7.54952 13.8326 4.39232 24.8628 9.48527 33.5477C14.5782 42.2326 25.9927 45.2835 34.9803 40.362Z"
    stroke="#485B78" stroke-miterlimit="10" />
  <path
    d="M25.7647 40.1107C34.6115 40.1107 41.7833 33.1804 41.7833 24.6315C41.7833 16.0826 34.6115 9.15234 25.7647 9.15234C16.9179 9.15234 9.74609 16.0826 9.74609 24.6315C9.74609 33.1804 16.9179 40.1107 25.7647 40.1107Z"
    fill="#F44336" />
  <path d="M30.0996 2.93589L39.1907 2.9082" stroke="#485B78" stroke-miterlimit="10"
    stroke-linecap="round" />
  <path d="M35.6445 5.60874L44.7356 5.58105" stroke="#485B78" stroke-miterlimit="10"
    stroke-linecap="round" />
  <path d="M21.9102 4.03728L26.4593 4.02344" stroke="#485B78" stroke-miterlimit="10"
    stroke-linecap="round" />
  <path d="M17.498 46.1682L26.5891 46.1475" stroke="#485B78" stroke-miterlimit="10"
    stroke-linecap="round" />
  <path d="M24.3105 44.7151L33.4016 44.6943" stroke="#485B78" stroke-miterlimit="10"
    stroke-linecap="round" />
  <path d="M12.5195 44.0363L17.0615 44.0225" stroke="#485B78" stroke-miterlimit="10"
    stroke-linecap="round" />
  <path opacity="0.35" d="M35.5664 16.2969C35.5664 16.2969 44.1918 23.4688 35.6237 34.0467"
    stroke="white" stroke-width="3" stroke-miterlimit="10" stroke-linecap="round" />
  <path opacity="0.13"
    d="M44.5494 50.191C44.5494 50.9317 36.182 51.5617 25.8515 51.5894C15.5211 51.6171 7.14648 51.0425 7.14648 50.2948C7.14648 49.5541 15.514 48.9241 25.8444 48.8965C36.1676 48.8688 44.5494 49.4503 44.5494 50.191Z"
    fill="#485B78" />
  <g clip-path="url(#clip0_544_17305)">
    <g clip-path="url(#clip1_544_17305)">
      <path
        d="M27.7323 33.5548H16.6953C15.7994 33.5536 15.0735 32.8521 15.0723 31.9864V21.9485C15.0723 21.7751 15.2175 21.6348 15.3969 21.6348H20.2661C20.3521 21.6348 20.4349 21.6677 20.4958 21.7265L22.0235 23.2032H27.7323C28.6282 23.2044 29.3542 23.9058 29.3554 24.7716V31.9864C29.3542 32.8521 28.6282 33.5536 27.7323 33.5548ZM15.7215 22.2621V31.9864C15.7215 32.5059 16.1577 32.9274 16.6953 32.9274H27.7323C28.2699 32.9274 28.7061 32.5059 28.7061 31.9864V24.7716C28.7061 24.2521 28.2699 23.8306 27.7323 23.8306H21.8892C21.8032 23.8306 21.7204 23.7976 21.6595 23.7388L20.1318 22.2621H15.7215Z"
        fill="#FFB1AB" />
      <path
        d="M32.276 32.2996H29.0298V31.6722H31.9514V20.0658H22.8621V23.5164H22.2129V19.7522C22.2129 19.5789 22.3582 19.4385 22.5375 19.4385H32.276C32.4553 19.4385 32.6006 19.5789 32.6006 19.7522V31.9859C32.6006 32.1592 32.4553 32.2996 32.276 32.2996Z"
        fill="#FFB1AB" />
      <path
        d="M35.524 30.1042H32.2779V29.4769H35.1994V17.8705H26.1102V19.7526H25.4609V17.5568C25.4609 17.3835 25.6062 17.2432 25.7856 17.2432H35.524C35.7034 17.2432 35.8487 17.3835 35.8487 17.5568V29.7906C35.8487 29.9639 35.7034 30.1042 35.524 30.1042Z"
        fill="#FFB1AB" />
      <path d="M23.5117 20.6934H24.161V21.3207H23.5117V20.6934Z" fill="#FFB1AB" />
      <path d="M24.8105 20.6934H27.4075V21.3207H24.8105V20.6934Z" fill="#FFB1AB" />
      <path d="M23.5117 21.9482H31.3025V22.5756H23.5117V21.9482Z" fill="#FFB1AB" />
      <path
        d="M22.5388 32.3005H16.6957C16.5164 32.3005 16.3711 32.1601 16.3711 31.9868V30.1047C16.3711 29.9314 16.5164 29.791 16.6957 29.791H22.5388C22.7182 29.791 22.8634 29.9314 22.8634 30.1047V31.9868C22.8634 32.1601 22.7182 32.3005 22.5388 32.3005ZM17.0203 31.6731H22.2142V30.4184H17.0203V31.6731Z"
        fill="#FFB1AB" />
      <path d="M17.6699 30.7314H18.3192V31.3588H17.6699V30.7314Z" fill="#FFB1AB" />
      <path d="M18.9668 30.7314H21.5637V31.3588H18.9668V30.7314Z" fill="#FFB1AB" />
      <path
        d="M22.3091 22.4839L20.7814 21.0073H17.0203V21.9483H16.3711V20.6936C16.3711 20.5203 16.5164 20.3799 16.6957 20.3799H20.9157C21.0017 20.3799 21.0845 20.4128 21.1454 20.4716L22.7685 22.0401L22.3091 22.4839Z"
        fill="#FFB1AB" />
    </g>
  </g>
  <defs>
    <clipPath id="clip0_544_17305">
      <rect width="20.7754" height="20.0758" fill="white" transform="translate(13.6875 14.5664)" />
    </clipPath>
    <clipPath id="clip1_544_17305">
      <rect width="20.7754" height="16.3116" fill="white" transform="translate(15.0723 17.2432)" />
    </clipPath>
  </defs>
</svg>