<svg width="342" height="302" viewBox="0 0 342 302" fill="none" xmlns="http://www.w3.org/2000/svg">
  <g clip-path="url(#clip0_2201_3147)">
    <path
      d="M92.1636 231.513L48.0716 250.479C43.3604 252.351 39.6156 249.633 40.4008 245.405V75.0167C40.4008 71.0907 44.4476 68.4331 48.0716 69.9431L92.1636 88.9087C93.6736 89.5731 94.7004 91.0831 94.7004 92.7139V227.708C94.64 229.339 93.6736 230.849 92.1636 231.513Z"
      fill="#14345A" />
    <path
      d="M91.7408 229.701L48.434 248.546C46.924 249.21 45.2328 248.063 45.2328 246.432V74.473C45.2328 72.7818 48.6756 71.8758 50.1856 72.5402L91.7408 91.2038C92.1636 91.385 92.4052 91.8078 92.4052 92.2306V228.735C92.4052 229.097 92.1636 229.52 91.7408 229.701Z"
      fill="#BBBBBB" />
    <path
      d="M92.4656 228.674L49.1588 247.277C47.6488 247.942 45.9576 246.794 45.9576 245.163V75.1375C45.9576 73.5067 49.4004 72.5403 50.9104 73.2047L92.4656 91.6267C92.8884 91.8079 93.13 92.2307 93.13 92.6535V227.647C93.13 228.07 92.8884 228.493 92.4656 228.674Z"
      fill="white" />
    <path
      d="M92.828 226.681L51.5144 244.982C50.0648 245.647 48.434 244.499 48.434 242.929V75.5604C48.434 73.9296 50.0648 72.8424 51.5144 73.5068L92.828 91.808C93.2508 91.9892 93.4924 92.3516 93.4924 92.8348V225.654C93.4924 226.077 93.1904 226.5 92.828 226.681Z"
      fill="#FAFAFA" />
    <path d="M89.5664 220.641L56.2256 230.788V139.403L89.5664 145.564V220.641Z" fill="#8C98A8" />
    <path d="M76.7012 145.805V222.03L88.5396 218.467V147.98L76.7012 145.805Z" fill="#14345A" />
    <path d="M75.5536 145.564L57.2524 142.181V227.949L75.5536 222.393V145.564Z" fill="#14345A" />
    <path
      d="M56.7088 167.368H56.588L56.4672 166.764L71.3256 160.664L71.5672 161.207L56.7088 167.368V167.308V167.368Z"
      fill="#8C98A8" />
    <path d="M79.2984 164.469L71.9296 164.952L55.8028 138.799L63.534 139.826L79.2984 164.469Z"
      fill="#F48981" />
    <path d="M85.3384 164.046L78.7548 164.469L62.93 139.765L69.876 140.671L85.3384 164.046Z"
      fill="#F44336" />
    <path d="M90.714 163.684L84.7948 164.046L69.3324 140.611L75.614 141.457L90.714 163.684Z"
      fill="#F48981" />
    <path d="M95.6064 163.321L90.2308 163.684L75.1308 141.396L80.8688 142.121L95.6064 163.321Z"
      fill="#F44336" />
    <path d="M100.016 163.019L95.1836 163.382L80.3856 142.061L85.6404 142.785L100.016 163.019Z"
      fill="#F48981" />
    <path d="M104.062 162.778L99.6532 163.08L85.2176 142.725L89.9892 143.329L104.062 162.778Z"
      fill="#F44336" />
    <path
      d="M85.7008 131.853L56.588 126.9C55.4404 126.719 54.5948 125.692 54.5948 124.545V110.653C54.5948 109.143 56.0444 107.995 57.494 108.297L86.5464 114.881C87.6336 115.122 88.4188 116.089 88.4188 117.176L88.4792 129.437C88.4792 130.947 87.1504 132.095 85.7008 131.853Z"
      fill="#8C98A8" />
    <path
      d="M86.1236 91.687V92.4118L85.58 92.1702V93.9822L86.184 94.2238V94.8882L91.5596 96.8814V93.6802L86.1236 91.687Z"
      fill="#14345A" />
    <path d="M52.4204 82.0834L51.3936 81.7814V80.3318L52.4204 80.6338V82.0834Z" fill="#14345A" />
    <path d="M54.172 82.6271L53.0848 82.2647V80.0903L54.172 80.3923V82.6271Z" fill="#14345A" />
    <path d="M55.8632 83.1706L54.8364 82.8082V79.5466L55.8632 79.8486V83.1706Z" fill="#14345A" />
    <path d="M57.5544 83.7142L56.5276 83.3518V79.2446L57.5544 79.607V83.7142Z" fill="#14345A" />
    <path
      d="M81.4728 86.2512C77.2448 84.56 73.0772 82.5064 68.8492 80.8152C69.8156 82.446 70.782 84.0768 71.7484 85.7076L79.3588 88.2444C80.2044 87.58 80.8084 87.0968 81.4728 86.2512Z"
      fill="#14345A" />
    <path
      d="M44.206 118.444V101.11C44.206 100.626 43.7832 100.204 43.3 100.204C42.8168 100.204 42.394 100.626 42.394 101.11V118.444H44.206Z"
      fill="#BBBBBB" />
    <path
      d="M42.3336 120.981V139.162C42.3336 139.645 42.7564 140.068 43.2396 140.068C43.7228 140.068 44.1456 139.645 44.1456 139.162V120.981H42.3336Z"
      fill="#BBBBBB" />
    <path
      d="M43.0584 94.2844C43.9257 94.2844 44.6288 93.5813 44.6288 92.714C44.6288 91.8467 43.9257 91.1436 43.0584 91.1436C42.1911 91.1436 41.488 91.8467 41.488 92.714C41.488 93.5813 42.1911 94.2844 43.0584 94.2844Z"
      fill="#BBBBBB" />
    <path
      d="M153.168 216.836C151.356 216.836 149.483 216.836 147.611 216.836C108.955 216.836 77.6676 217.198 77.6676 217.742C77.6676 218.225 109.015 218.648 147.611 218.648C149.483 218.648 151.295 218.648 153.168 218.648V216.836Z"
      fill="#F44336" />
    <path
      d="M156.248 211.4C155.584 211.4 154.919 211.4 154.255 211.4C140.182 211.4 128.766 211.702 128.766 212.064C128.766 212.427 140.182 212.729 154.255 212.729C154.919 212.729 155.584 212.729 156.248 212.729V211.4Z"
      fill="#F44336" />
    <path
      d="M153.772 196.058C152.805 196.058 151.839 196.058 150.812 196.058C130.336 196.058 113.787 196.3 113.787 196.602C113.787 196.904 130.397 197.146 150.812 197.146C151.778 197.146 152.805 197.146 153.772 197.146V196.058Z"
      fill="#F44336" />
    <path
      d="M164.704 232.963C173.044 232.963 179.804 226.202 179.804 217.863C179.804 209.523 173.044 202.763 164.704 202.763C156.365 202.763 149.604 209.523 149.604 217.863C149.604 226.202 156.365 232.963 164.704 232.963Z"
      fill="#14345A" />
    <path
      d="M164.704 227.647C170.108 227.647 174.489 223.267 174.489 217.863C174.489 212.459 170.108 208.078 164.704 208.078C159.3 208.078 154.919 212.459 154.919 217.863C154.919 223.267 159.3 227.647 164.704 227.647Z"
      fill="#FAFAFA" />
    <path
      d="M217.977 217.319C219.668 215.447 220.272 212.729 221.178 210.313C222.93 205.541 226.252 201.434 230.359 198.897C231.446 198.233 232.594 197.629 233.62 196.783C234.647 195.938 235.432 194.79 235.614 193.401C235.734 192.314 235.432 191.287 235.13 190.26C233.137 183.556 231.144 176.851 228.728 170.328C228.124 168.637 227.218 166.764 225.648 166.342C224.56 166.04 223.473 166.523 222.446 167.006C219.306 168.456 215.923 170.147 214.232 173.348C213.024 175.643 212.782 178.422 212.843 181.079C213.024 186.938 214.534 192.616 215.198 198.414C215.863 204.212 215.561 210.494 212.601 215.266C211.937 216.353 211.152 217.319 210.427 218.286C212.662 219.856 215.984 219.494 217.977 217.319Z"
      fill="#14345A" />
    <path
      d="M188.018 187.119C190.555 187.421 193.454 188.206 194.36 190.139C195.146 191.71 194.24 193.461 193.636 195.032C192.367 198.293 192.186 201.796 193.092 205.179C193.756 207.595 195.085 210.011 197.743 211.279C200.098 212.427 203.058 212.427 205.836 212.427C209.823 212.427 214.172 212.306 217.192 210.313C218.52 213.393 215.984 216.776 212.48 218.467C208.977 220.158 204.689 220.46 200.582 220.702C185.542 221.547 170.442 221.608 155.402 221.064C152.926 221.004 150.268 220.822 148.456 219.494C146.222 217.923 146.161 215.205 146.222 212.85C146.342 207.414 146.644 201.676 150.45 197.146C152.805 194.367 156.308 192.253 160.174 190.743C164.04 189.294 168.207 188.448 172.435 187.784C177.448 187.059 182.824 186.515 188.018 187.119Z"
      fill="#F44336" />
    <path
      d="M201.367 219.131C204.447 218.95 207.588 218.769 210.427 217.621C213.266 216.474 215.802 214.118 216.406 211.158C216.527 210.615 216.467 209.83 215.923 209.648C214.896 212.185 212.239 213.695 209.581 214.239C206.924 214.782 204.145 214.541 201.427 214.601C198.709 214.662 195.87 215.084 193.696 216.776C193.334 217.078 192.971 217.38 192.79 217.863C192.609 218.346 192.609 218.89 192.971 219.192C193.334 219.554 193.938 219.554 194.421 219.494C196.716 219.373 199.072 219.252 201.367 219.131Z"
      fill="#14345A" />
    <path
      d="M163.677 192.616C170.804 190.018 178.475 189.294 186.025 189.898C187.656 190.018 189.589 190.441 190.253 191.891C190.736 192.918 190.434 194.065 190.193 195.152C189.166 200.347 189.649 205.843 191.703 210.736C192.186 211.944 192.79 213.152 193.032 214.48C193.213 215.809 192.971 217.259 191.944 218.104C190.918 219.01 189.408 219.01 188.079 219.01C179.442 218.95 170.744 218.89 162.228 217.44C159.63 217.017 156.852 216.292 155.282 214.178C153.711 212.125 153.772 209.346 153.953 206.749C154.194 203.186 154.738 199.441 157.033 196.723C158.724 194.73 161.201 193.522 163.677 192.616Z"
      fill="#F44336" />
    <path
      d="M230.419 155.288C231.325 157.342 231.325 159.637 231.265 161.872C230.842 161.932 230.419 161.932 229.996 161.993C229.392 159.094 228.547 156.255 227.399 153.537C227.943 153.235 228.728 153.356 229.272 153.718C229.815 154.141 230.117 154.684 230.419 155.288Z"
      fill="white" />
    <path
      d="M230.902 163.382C230.902 160.604 230.359 157.765 229.151 155.228C228.547 153.899 227.58 152.51 226.131 152.389C225.346 152.329 224.621 152.691 223.956 153.054C222.628 153.718 221.299 154.503 220.272 155.59C218.52 157.463 217.856 160.06 217.252 162.476C217.131 162.959 217.01 163.442 217.252 163.926C217.554 164.469 218.218 164.65 218.883 164.65C219.124 165.496 219.426 166.342 219.668 167.187C219.728 167.308 219.728 167.489 219.849 167.55C219.97 167.61 220.151 167.61 220.272 167.55C221.299 167.308 222.326 167.006 223.352 166.764C223.836 166.644 224.319 166.523 224.681 166.16C224.983 165.858 225.104 165.436 225.285 165.073C225.466 164.711 225.648 164.348 225.889 163.986C227.52 163.744 229.211 163.563 230.902 163.382Z"
      fill="#F44336" />
    <path
      d="M222.688 157.765C221.661 157.584 220.453 157.825 219.668 158.49C218.883 159.214 218.52 160.483 219.124 161.389C219.668 162.295 220.876 162.597 221.842 162.295C222.809 161.993 223.594 161.147 224.017 160.181C224.258 159.698 224.379 159.094 224.138 158.61C223.896 158.127 223.292 157.886 222.688 157.765Z"
      fill="#14345A" />
    <path
      d="M238.875 232.963C247.215 232.963 253.975 226.202 253.975 217.863C253.975 209.523 247.215 202.763 238.875 202.763C230.536 202.763 223.775 209.523 223.775 217.863C223.775 226.202 230.536 232.963 238.875 232.963Z"
      fill="#14345A" />
    <path
      d="M238.875 227.647C244.279 227.647 248.66 223.267 248.66 217.863C248.66 212.459 244.279 208.078 238.875 208.078C233.471 208.078 229.09 212.459 229.09 217.863C229.09 223.267 233.471 227.647 238.875 227.647Z"
      fill="#FAFAFA" />
    <path
      d="M233.198 222.332C235.01 223.963 237.848 223.48 240.023 222.514C241.352 221.91 242.68 221.064 243.103 219.735C243.526 218.527 243.164 217.198 242.801 215.99C241.231 210.736 239.298 205.602 237.003 200.588C236.52 199.562 235.916 198.354 234.768 198.112C234.406 197.991 233.983 198.052 233.62 197.87C233.258 197.75 232.956 197.327 233.137 196.964C231.204 197.568 229.332 198.414 227.58 199.501C226.976 199.864 226.312 200.347 226.07 201.072C225.829 201.736 226.07 202.521 226.252 203.246C227.882 208.44 229.513 213.635 231.144 218.769C231.688 220.037 232.171 221.426 233.198 222.332Z"
      fill="#14345A" />
    <path
      d="M237.365 221.608C235.674 221.608 234.345 220.218 234.345 218.588C234.345 216.957 235.734 215.568 237.365 215.568C238.996 215.568 240.385 216.957 240.385 218.588C240.385 220.218 239.056 221.608 237.365 221.608ZM237.365 215.99C235.916 215.99 234.768 217.138 234.768 218.588C234.768 220.037 235.916 221.185 237.365 221.185C238.815 221.185 239.962 220.037 239.962 218.588C239.962 217.138 238.815 215.99 237.365 215.99Z"
      fill="white" />
    <path
      d="M169.657 192.797C165.55 192.012 161.201 193.22 157.698 195.575C154.255 197.931 151.597 201.374 149.725 205.118C147.792 208.863 146.584 212.91 145.497 216.957C145.316 217.621 145.134 218.406 145.436 219.01C145.678 219.554 146.222 219.856 146.765 220.098C150.51 221.91 154.678 222.514 158.785 222.755C167.301 223.359 175.938 222.816 184.274 221.124C185.18 220.943 186.146 220.702 186.931 220.218C187.535 219.796 188.079 219.192 188.502 218.588C190.374 215.749 190.736 212.125 190.012 208.803C189.287 205.481 187.475 202.521 185.24 199.924C183.005 197.387 180.348 195.213 177.267 193.884C174.187 192.555 170.623 192.132 167.422 193.099"
      fill="#14345A" />
    <path
      d="M170.986 192.193C170.986 192.555 170.684 192.797 170.382 192.797H139.759C139.396 192.797 139.155 192.495 139.155 192.193C139.155 191.83 139.457 191.589 139.759 191.589H170.382C170.744 191.589 170.986 191.83 170.986 192.193Z"
      fill="#14345A" />
    <path
      d="M257.72 217.803C257.176 213.212 255.848 209.769 252.888 206.327C251.861 205.119 250.714 203.729 248.539 202.28C243.043 198.656 235.795 197.991 230.178 201.374C224.621 204.696 221.118 211.159 220.816 217.803H257.72Z"
      fill="#F44336" />
    <path
      d="M222.748 216.897C223.171 212.487 225.889 208.32 229.815 206.266C233.741 204.213 238.694 204.213 242.62 206.387C246.486 208.561 249.204 212.729 249.506 217.138L222.748 216.897Z"
      fill="#F44336" />
    <path
      d="M251.499 212.004C251.438 212.004 251.318 211.944 251.318 211.883C248.6 206.931 243.949 203.488 238.815 202.642C233.379 201.736 227.701 203.971 224.681 208.259C224.621 208.38 224.44 208.38 224.379 208.32C224.258 208.259 224.258 208.078 224.319 208.018C227.399 203.609 233.258 201.253 238.875 202.219C244.13 203.125 248.902 206.629 251.68 211.702C251.74 211.823 251.68 211.944 251.62 212.004C251.559 211.944 251.499 212.004 251.499 212.004Z"
      fill="white" />
    <path
      d="M194.783 189.596C195.327 189.052 194.964 188.086 194.542 187.421C192.85 185.066 190.253 183.435 187.535 182.529C184.817 181.623 181.858 181.321 179.019 181.079C177.63 180.958 176.18 180.898 175.032 181.623C173.402 182.65 172.918 184.824 172.677 186.696C172.496 188.025 172.435 189.777 173.643 190.381C174.126 190.622 174.73 190.622 175.274 190.622C181.374 190.441 187.414 190.2 193.515 190.018C193.938 189.958 194.421 189.958 194.783 189.596Z"
      fill="#14345A" />
    <path
      d="M189.106 188.69C189.045 188.69 188.985 188.629 188.924 188.569C185.965 184.16 180.046 181.925 174.912 183.193C174.791 183.193 174.67 183.133 174.61 183.012C174.549 182.891 174.67 182.77 174.791 182.71C180.106 181.381 186.206 183.676 189.287 188.267C189.347 188.388 189.347 188.508 189.226 188.569C189.166 188.69 189.166 188.69 189.106 188.69Z"
      fill="white" />
    <path
      d="M216.769 184.22C216.346 183.676 215.5 183.858 214.836 183.978C213.809 184.22 212.601 184.643 212.239 185.67C212.058 186.092 212.118 186.576 212.178 187.059C212.48 189.716 212.722 192.434 213.024 195.092C213.145 195.998 213.99 196.662 214.896 196.542L216.829 196.3C217.252 196.24 217.735 196.179 218.037 195.877C218.46 195.454 218.4 194.73 218.339 194.186C217.916 191.226 217.494 188.206 217.131 185.247C217.071 184.884 217.01 184.462 216.769 184.22Z"
      fill="white" />
    <path d="M213.266 182.952L213.507 184.884L215.44 184.401L214.836 182.589L213.266 182.952Z"
      fill="white" />
    <path
      d="M212.178 183.495C213.266 183.254 214.353 183.133 215.44 183.072C215.38 182.408 215.319 181.744 215.259 181.019C214.111 181.14 213.024 181.321 211.876 181.442C211.937 182.166 211.997 182.831 212.178 183.495Z"
      fill="#F44336" />
    <path
      d="M210.487 183.193C210.427 183.374 210.427 183.616 210.608 183.797C210.729 183.978 211.031 183.978 211.152 183.797C211.091 183.495 211.272 183.193 211.514 183.012C211.756 182.831 212.058 182.77 212.36 182.77C212.662 182.77 212.964 182.77 213.266 182.71C213.084 182.468 213.024 182.227 213.084 181.925C212.601 182.106 212.118 182.106 211.635 182.287C211.152 182.408 210.668 182.71 210.487 183.193Z"
      fill="#F44336" />
    <path
      d="M219.124 190.864C219.004 189.052 218.822 187.24 218.46 185.488C217.433 188.085 214.836 189.958 212.118 190.199C212.178 190.743 212.239 191.287 212.299 191.83C214.474 191.347 216.769 191.045 219.124 190.864Z"
      fill="#14345A" />
    <path
      d="M140.423 162.053C138.913 163.08 137.403 164.167 136.618 165.798C135.712 167.67 135.833 169.845 136.074 171.898C136.558 176.549 137.222 181.2 138.007 185.851C138.309 187.723 138.792 189.777 140.302 190.924C141.631 191.891 143.322 191.951 144.953 191.951C152.503 191.951 159.993 191.951 167.543 191.891C168.872 191.891 170.382 191.83 171.227 190.804C171.892 190.018 171.892 188.931 171.952 187.904C172.133 178.18 172.314 168.395 172.496 158.671C172.496 157.523 172.496 156.255 171.892 155.228C171.288 154.322 170.321 153.778 169.294 153.416C165.55 152.148 161.382 152.872 157.577 154.02C151.476 155.832 145.678 158.55 140.423 162.053Z"
      fill="#F44336" />
    <path
      d="M169.596 172.684C159.268 172.684 149 173.771 138.913 176.006C138.853 173.046 138.792 170.086 138.732 167.127C148.336 162.053 158.966 158.912 169.778 158.006C169.657 162.899 169.596 167.791 169.596 172.684Z"
      fill="#F48981" />
    <path
      d="M154.919 187.3C158.055 187.3 160.597 184.758 160.597 181.623C160.597 178.487 158.055 175.945 154.919 175.945C151.784 175.945 149.242 178.487 149.242 181.623C149.242 184.758 151.784 187.3 154.919 187.3Z"
      fill="#F48981" />
    <path
      d="M161.503 154.805C155.946 155.772 150.691 157.825 145.497 160.06C142.658 161.268 139.638 162.718 138.007 165.375C139.698 163.624 142.296 162.174 144.53 161.268C148.456 159.698 151.597 158.429 155.644 157.1C159.63 155.772 164.523 154.745 168.63 155.651C166.637 154.201 163.919 154.382 161.503 154.805Z"
      fill="white" />
    <path
      d="M167.603 195.273C163.496 194.488 159.147 195.696 155.644 198.052C152.201 200.407 149.544 203.85 147.671 207.595C145.738 211.34 144.53 215.387 143.443 219.433C143.262 220.098 143.081 220.883 143.383 221.487C143.624 222.031 144.168 222.333 144.712 222.574C148.456 224.386 152.624 224.99 156.731 225.232C165.248 225.836 173.885 225.292 182.22 223.601C183.126 223.42 184.092 223.178 184.878 222.695C185.482 222.272 186.025 221.668 186.448 221.064C188.32 218.225 188.683 214.601 187.958 211.279C187.233 207.957 185.421 204.998 183.186 202.401C180.952 199.864 178.294 197.689 175.214 196.361C172.133 195.032 168.57 194.609 165.368 195.575"
      fill="#F44336" />
    <path
      d="M180.831 201.072C180.589 201.072 180.348 201.072 180.106 201.072C180.166 202.099 179.019 202.703 177.992 203.005C167.664 206.327 157.214 209.105 146.705 211.883C145.92 214.662 145.134 217.501 144.349 220.279C157.516 219.796 170.382 216.232 183.066 212.608C184.213 212.306 185.542 211.823 185.844 210.675C186.086 209.769 185.602 208.803 185.059 207.957C183.67 205.662 182.22 203.367 180.831 201.072Z"
      fill="#F48981" />
    <path
      d="M148.215 208.561H148.154C148.034 208.501 147.973 208.38 148.034 208.259C150.087 203.246 154.315 199.078 159.449 197.206C164.523 195.334 170.442 195.636 175.334 198.112C175.455 198.172 175.516 198.293 175.455 198.414C175.395 198.535 175.274 198.595 175.153 198.535C170.442 196.119 164.644 195.817 159.63 197.629C154.678 199.501 150.51 203.548 148.517 208.44C148.336 208.501 148.275 208.561 148.215 208.561Z"
      fill="white" />
    <path
      d="M181.676 221.487C181.676 221.729 181.435 221.91 181.193 221.97C178.536 222.574 177.207 222.695 174.67 222.635C174.428 222.635 174.368 222.453 174.428 222.212C174.489 221.97 174.73 221.789 174.972 221.789C177.448 221.849 178.717 221.668 181.314 221.125C181.556 221.125 181.676 221.245 181.676 221.487Z"
      fill="#14345A" />
    <path
      d="M181.978 219.735C181.978 219.977 181.737 220.158 181.495 220.219C178.838 220.823 177.509 220.943 174.972 220.883C174.73 220.883 174.67 220.702 174.73 220.46C174.791 220.219 175.032 220.037 175.274 220.037C177.75 220.098 179.019 219.917 181.616 219.373C181.858 219.373 181.978 219.494 181.978 219.735Z"
      fill="#14345A" />
    <path
      d="M182.28 217.923C182.28 218.165 182.039 218.346 181.797 218.407C179.14 219.011 177.811 219.131 175.274 219.071C175.032 219.071 174.972 218.89 175.032 218.648C175.093 218.407 175.334 218.225 175.576 218.225C178.052 218.286 179.321 218.105 181.918 217.561C182.099 217.621 182.28 217.742 182.28 217.923Z"
      fill="#14345A" />
    <path
      d="M221.722 209.528C223.654 205.783 226.554 202.521 229.936 199.924C232.292 198.112 235.07 196.481 236.278 193.824C237.728 190.562 236.52 186.757 235.312 183.374C233.983 179.75 232.654 176.066 231.325 172.442C230.782 170.992 230.057 169.603 229.211 168.274C228.486 167.187 226.976 165.919 225.466 166.281C225.466 168.576 222.869 170.63 221.601 172.502C219.426 175.704 219.728 179.932 219.97 183.797C220.332 189.112 220.453 194.488 219.547 199.803C218.641 205.058 216.648 210.252 213.145 214.299C212.48 215.024 211.756 215.93 212.058 216.896C212.42 217.923 213.809 218.165 214.836 217.923C216.648 217.44 218.098 216.051 219.124 214.48C220.212 212.91 220.876 211.158 221.722 209.528Z"
      fill="#F44336" />
    <path
      d="M223.473 182.045C224.258 182.166 224.862 181.321 225.164 180.535C225.768 178.905 225.708 177.093 226.493 175.522C226.735 175.039 227.097 174.556 227.218 174.012C227.399 173.469 227.339 172.804 226.976 172.442C226.614 172.079 225.95 172.019 225.466 172.2C224.983 172.381 224.56 172.804 224.198 173.227C222.507 175.22 221.601 177.938 222.205 180.475C222.386 181.139 222.748 181.925 223.473 182.045Z"
      fill="white" />
    <path
      d="M213.87 214.782C213.809 214.782 213.749 214.782 213.749 214.722C213.628 214.661 213.628 214.48 213.749 214.42C220.091 206.93 220.936 197.447 220.574 190.864C220.453 189.233 220.453 187.602 220.453 185.971C220.453 184.643 220.453 183.253 220.393 181.925V181.321C220.272 178.542 220.151 175.703 221.722 173.348C222.205 172.623 222.748 172.019 223.232 171.415C224.379 170.086 225.406 168.818 225.95 166.583C226.01 166.462 226.131 166.402 226.252 166.402C226.372 166.462 226.433 166.583 226.433 166.704C225.829 168.999 224.742 170.328 223.594 171.717C223.111 172.321 222.567 172.925 222.084 173.65C220.574 175.885 220.695 178.663 220.816 181.381V181.985C220.876 183.314 220.876 184.703 220.876 186.032C220.876 187.663 220.876 189.293 220.997 190.924C221.42 197.629 220.514 207.232 214.111 214.782C214.051 214.782 213.99 214.782 213.87 214.782Z"
      fill="white" />
  </g>
  <g clip-path="url(#clip1_2201_3147)">
    <path
      d="M310.298 151.572C308.16 150.826 307.707 150.288 306.309 148.506L302.896 153.686C304.788 155.55 306.515 156.835 308.982 158.037C308.694 155.675 309.023 153.106 310.298 151.572Z"
      fill="#F9867D" />
    <path
      d="M308.982 154.846C309.146 153.561 309.558 152.401 310.298 151.572C308.406 150.909 307.831 150.371 306.72 149.003C306.186 151.448 307.255 153.437 308.982 154.846Z"
      fill="#14345A" />
    <path
      d="M314.204 145.522C314.122 144.693 313.587 143.989 312.888 143.574C312.189 143.16 311.367 142.994 310.586 142.87C309.558 142.704 308.406 142.663 307.543 143.243C306.967 143.657 306.597 144.279 306.391 144.942C305.692 146.807 305.939 148.962 306.967 150.702C307.954 152.442 309.311 153.851 311.202 154.183C311.86 152.94 312.436 152.194 312.97 150.743C313.094 150.412 312.929 150.08 312.97 149.915C313.053 149.707 313.423 149.5 313.505 149.293C313.793 148.34 313.916 147.76 314.163 146.765C314.122 146.351 314.204 145.937 314.204 145.522Z"
      fill="#F9867D" />
    <path
      d="M309.352 148.008C309.434 147.718 309.763 147.47 310.051 147.553C310.339 147.636 310.544 147.967 310.544 148.257C310.503 148.671 310.462 148.962 310.586 149.169C310.956 148.381 311.408 147.594 311.984 146.931C310.38 146.185 308.817 145.398 307.214 144.652C307.09 144.61 306.967 144.528 306.844 144.528C306.72 144.528 306.597 144.569 306.515 144.652C306.062 144.942 305.816 145.481 305.692 146.019C305.61 146.558 305.651 147.097 305.651 147.636C305.651 148.174 305.61 148.754 305.322 149.21C306.268 149.293 307.214 149.127 308.077 148.754C308.447 148.589 308.817 148.381 309.187 148.506C309.27 148.34 309.311 148.133 309.352 148.008Z"
      fill="#14345A" />
    <path
      d="M308.324 142.539C309.146 142.29 310.051 142.456 310.914 142.663C311.86 142.912 312.847 143.243 313.628 143.823C313.875 144.03 314.163 144.279 314.245 144.569C314.327 144.818 314.286 145.066 314.286 145.315C314.245 145.729 314.245 146.102 314.204 146.517C314.204 146.765 314.163 147.014 313.998 147.18C313.793 147.346 313.546 147.346 313.299 147.304C311.984 147.18 310.627 147.097 309.393 146.558C308.612 146.185 307.872 145.647 307.008 145.481C306.803 145.439 306.597 145.398 306.474 145.274C306.268 145.066 306.309 144.693 306.391 144.403C306.72 143.45 307.461 142.787 308.324 142.539Z"
      fill="#14345A" />
    <path
      d="M311.202 142.414C312.107 142.746 312.97 143.16 313.793 143.616C314.081 143.782 314.41 143.989 314.533 144.321C314.656 144.611 314.574 144.901 314.533 145.191C314.368 146.102 314.081 146.973 313.793 147.843C311.449 147.76 309.146 147.097 307.132 145.978C306.638 145.688 306.104 145.315 306.104 144.735C306.104 144.445 306.227 144.196 306.35 143.989C306.638 143.492 306.885 142.953 307.337 142.58C307.913 142.166 308.571 142 309.27 142C309.928 142 310.586 142.207 311.202 142.414Z"
      fill="#485B78" />
    <path
      d="M314.245 145.895C314.368 145.481 314.492 145.025 314.368 144.611C314.245 144.196 313.916 143.865 313.505 143.658C313.135 143.45 312.683 143.326 312.271 143.16C312.477 143.409 312.559 143.741 312.518 144.072C312.518 144.404 312.436 144.735 312.312 145.025C312.066 145.895 311.696 146.724 311.243 147.511C311.613 147.594 311.984 147.677 312.354 147.677C312.724 147.677 313.094 147.594 313.423 147.387C313.875 147.097 314.081 146.476 314.245 145.895Z"
      fill="#D9D9D9" />
    <path
      d="M313.916 147.221C314.41 147.263 314.451 147.594 316.178 148.174C315.232 148.754 314.327 149.003 313.258 148.63C312.189 148.257 311.243 147.843 310.215 147.304C311.449 147.594 312.683 147.18 313.916 147.221Z"
      fill="#485B78" />
    <path
      d="M307.214 143.865C307.214 143.782 307.132 143.741 307.09 143.699C307.008 143.658 306.967 143.616 306.885 143.616C306.803 143.616 306.762 143.699 306.72 143.782C306.638 143.948 306.515 144.113 306.515 144.321C306.515 144.528 306.597 144.735 306.803 144.777C306.926 144.528 307.049 144.279 307.214 144.072C307.173 143.989 307.214 143.948 307.214 143.865Z"
      fill="#14345A" />
    <path
      d="M313.135 151.158C313.094 150.951 313.053 150.661 312.888 150.578C312.724 150.495 312.559 150.495 312.395 150.495C311.531 150.495 311.408 150.578 310.544 150.619C310.215 151.448 309.434 151.904 308.982 152.65C309.27 152.981 309.352 153.727 309.763 153.893C310.174 154.059 310.586 154.183 311.038 154.307C311.161 154.349 311.326 154.39 311.449 154.307C311.531 154.266 311.572 154.224 311.613 154.142C311.819 153.934 311.901 153.727 312.107 153.52C312.395 153.188 312.806 152.815 313.012 152.401C313.217 151.987 313.258 151.572 313.135 151.158Z"
      fill="white" />
    <path
      d="M309.434 153.023C309.105 152.94 308.9 152.65 308.817 152.194C308.53 150.868 308.653 149.459 309.105 148.174C309.146 148.091 309.229 148.05 309.311 148.091C309.393 148.133 309.434 148.216 309.393 148.299C308.941 149.542 308.859 150.868 309.105 152.152C309.187 152.484 309.311 152.691 309.475 152.733C309.558 152.774 309.599 152.857 309.599 152.94C309.558 152.981 309.516 153.023 309.434 153.023Z"
      fill="white" />
    <path
      d="M310.873 151.158C310.832 151.158 310.75 151.116 310.75 151.075C310.339 150.329 310.257 149.417 310.544 148.63C310.586 148.547 310.668 148.506 310.75 148.547C310.832 148.589 310.873 148.672 310.832 148.754C310.586 149.459 310.627 150.288 311.038 150.951C311.079 151.034 311.038 151.116 310.997 151.158C310.956 151.158 310.914 151.158 310.873 151.158Z"
      fill="white" />
    <path
      d="M327.609 177.762C327.115 177.265 326.663 176.726 326.293 176.104C326.211 175.98 326.128 175.856 326.128 175.69C326.087 175.566 326.128 175.4 326.211 175.275C326.334 175.11 326.539 175.11 326.745 175.027C326.951 174.985 327.156 174.861 327.238 174.654C327.362 174.488 327.362 174.198 327.197 174.074C326.498 174.447 325.594 174.115 324.813 174.281C324.442 174.364 324.113 174.571 323.785 174.737C323.209 174.53 322.633 174.281 322.099 173.949C322.099 173.949 322.099 173.949 322.099 173.991C315.849 170.013 309.187 160.648 306.433 156.462C303.184 154.805 301.211 155.882 301.539 159.031C303.513 170.469 313.711 175.773 320.66 177.306C320.618 177.347 320.618 177.389 320.577 177.472C321.153 177.638 321.729 177.803 322.304 178.01C322.839 178.508 323.414 178.964 324.072 179.295C324.319 179.419 324.607 179.544 324.854 179.461C325.1 179.378 325.306 179.171 325.553 179.129C325.758 179.088 325.964 179.171 326.169 179.129C326.498 179.088 326.663 178.715 326.992 178.591C327.156 178.549 327.321 178.549 327.485 178.508C327.65 178.466 327.814 178.383 327.855 178.218C327.896 178.052 327.732 177.886 327.609 177.762Z"
      fill="#14345A" />
    <path d="M339.41 172.582H321.893V175.483H339.41V172.582Z" fill="#485B78" />
    <path d="M339.41 174.82H321.893V175.524H339.41V174.82Z" fill="#14345A" />
    <path d="M342 169.764H324.484V172.665H342V169.764Z" fill="#485B78" />
    <path d="M342 171.877H324.484V172.665H342V171.877Z" fill="#14345A" />
    <path d="M340.232 175.317H322.715V178.218H340.232V175.317Z" fill="#485B78" />
    <path
      d="M308.9 231.591C308.859 231.384 308.859 231.177 308.817 230.97C306.145 231.177 303.513 231.218 300.84 231.135C300.676 231.135 300.47 231.135 300.306 231.177C300.141 231.218 300.018 231.135 299.936 231.301C299.854 231.467 299.812 231.923 299.936 232.047C301.334 232.254 302.773 232.171 304.212 232.254C305.035 232.296 305.816 232.379 306.638 232.337C307.461 232.296 308.242 232.089 308.9 231.591Z"
      fill="white" />
    <path
      d="M304.706 231.923C306.145 231.964 307.666 232.006 308.941 231.301C308.941 230.721 308.53 230.224 308.036 229.975C307.543 229.685 306.967 229.602 306.433 229.519C305.898 229.436 305.322 229.271 304.87 228.939C304.418 228.608 304.089 228.027 304.253 227.489C302.979 227.613 301.663 227.655 300.388 227.613C300.018 228.939 299.854 230.307 299.936 231.674C301.498 231.757 303.102 231.84 304.706 231.923Z"
      fill="#14345A" />
    <path
      d="M303.965 228.815C304.048 228.773 304.089 228.815 304.171 228.856C305.158 229.436 306.227 229.768 307.378 229.809C307.214 230.058 306.885 230.141 306.597 230.182C306.309 230.224 306.021 230.141 305.734 230.058C305.117 229.892 304.418 229.726 304.007 229.188C303.965 229.146 303.924 229.063 303.924 228.981C303.842 228.939 303.883 228.856 303.965 228.815Z"
      fill="#334767" />
    <path
      d="M304.377 229.934C304.336 229.934 304.294 229.934 304.253 229.892C304.171 229.851 304.171 229.727 304.212 229.644C304.418 229.395 304.623 229.146 304.829 228.939C304.911 228.856 304.993 228.898 305.076 228.939C305.158 229.022 305.117 229.105 305.076 229.188C304.87 229.395 304.664 229.602 304.5 229.851C304.5 229.892 304.418 229.934 304.377 229.934Z"
      fill="white" />
    <path
      d="M305.117 230.182C305.076 230.182 305.035 230.182 305.035 230.141C304.952 230.099 304.911 229.975 304.993 229.892C305.158 229.644 305.322 229.436 305.528 229.229C305.61 229.146 305.692 229.188 305.775 229.229C305.857 229.312 305.816 229.395 305.775 229.478C305.569 229.644 305.446 229.851 305.281 230.058C305.199 230.182 305.158 230.182 305.117 230.182Z"
      fill="white" />
    <path
      d="M305.939 230.307C305.898 230.307 305.898 230.307 305.857 230.307C305.775 230.265 305.734 230.182 305.775 230.099C305.898 229.892 306.021 229.685 306.186 229.519C306.268 229.436 306.35 229.436 306.433 229.519C306.515 229.602 306.515 229.685 306.433 229.768C306.309 229.934 306.186 230.099 306.104 230.265C306.062 230.265 306.021 230.307 305.939 230.307Z"
      fill="white" />
    <path
      d="M300.183 229.188H305.734C305.363 213.234 305.857 197.238 307.049 181.326C303.883 181.533 300.676 180.87 297.757 179.461L295.248 179.295C292.905 188.287 294.179 197.943 296.03 207.059C297.592 214.435 299.484 221.729 300.183 229.188Z"
      fill="#14345A" />
    <path
      d="M305.775 232.213C305.734 232.005 305.734 231.798 305.692 231.591C302.855 231.798 299.977 231.84 297.099 231.757C296.893 231.757 296.688 231.757 296.523 231.798C296.317 231.84 296.194 231.757 296.112 231.923C296.03 232.088 295.988 232.544 296.112 232.668C297.633 232.876 299.155 232.793 300.717 232.876C301.581 232.917 302.444 233 303.308 232.959C304.171 232.959 305.076 232.751 305.775 232.213Z"
      fill="white" />
    <path
      d="M301.211 232.461C302.732 232.544 304.377 232.544 305.734 231.798C305.734 231.177 305.281 230.679 304.747 230.389C304.212 230.099 303.595 230.016 303.02 229.892C302.444 229.768 301.827 229.643 301.334 229.312C300.84 228.939 300.512 228.317 300.676 227.737C299.319 227.903 297.921 227.945 296.564 227.862C296.194 229.271 296.03 230.721 296.071 232.171C297.798 232.296 299.525 232.378 301.211 232.461Z"
      fill="#14345A" />
    <path
      d="M300.594 228.773C300.676 228.773 300.717 228.815 300.799 228.856C301.704 229.478 302.773 229.933 303.883 230.099C303.678 230.306 303.39 230.389 303.061 230.389C302.773 230.389 302.485 230.265 302.197 230.182C301.581 229.975 300.923 229.726 300.553 229.188C300.512 229.146 300.47 229.063 300.47 228.98C300.512 228.898 300.553 228.815 300.594 228.773Z"
      fill="#334767" />
    <path
      d="M300.964 229.933C300.923 229.933 300.882 229.933 300.84 229.892C300.758 229.851 300.758 229.726 300.84 229.643C301.046 229.395 301.293 229.188 301.539 228.98C301.622 228.939 301.704 228.939 301.786 229.022C301.827 229.105 301.827 229.188 301.745 229.27C301.498 229.436 301.293 229.643 301.128 229.892C301.046 229.892 301.005 229.933 300.964 229.933Z"
      fill="white" />
    <path
      d="M301.622 230.265C301.581 230.265 301.539 230.265 301.539 230.224C301.457 230.182 301.457 230.058 301.498 229.975C301.663 229.726 301.868 229.561 302.074 229.353C302.156 229.312 302.238 229.312 302.321 229.395C302.362 229.478 302.362 229.561 302.28 229.643C302.074 229.809 301.91 229.975 301.745 230.182C301.745 230.224 301.704 230.265 301.622 230.265Z"
      fill="white" />
    <path
      d="M302.485 230.431C302.444 230.431 302.444 230.431 302.403 230.389C302.321 230.348 302.28 230.223 302.362 230.141C302.485 229.933 302.65 229.768 302.814 229.602C302.896 229.56 302.979 229.56 303.061 229.602C303.102 229.685 303.102 229.768 303.061 229.851C302.896 229.975 302.773 230.141 302.691 230.306C302.567 230.389 302.526 230.431 302.485 230.431Z"
      fill="white" />
    <path
      d="M295.947 229.188H302.485C302.197 213.068 304.664 197.238 305.857 181.326C302.691 181.533 299.484 180.87 296.564 179.461L294.056 179.295C291.712 188.287 292.987 197.943 294.837 207.059C296.359 214.435 295.783 221.439 295.947 229.188Z"
      fill="#485B78" />
    <path
      d="M305.857 181.326C304.418 181.409 303.02 181.326 301.622 181.077C300.388 196.948 298.99 213.275 300.84 229.188H302.485C302.197 213.068 304.664 197.238 305.857 181.326Z"
      fill="#334767" />
    <path d="M306.597 182.652H293.727V184.143H306.597V182.652Z" fill="#14345A" />
    <path d="M297.839 182.403H297.222V184.434H297.839V182.403Z" fill="#485B78" />
    <path d="M304.294 182.403H303.678V184.434H304.294V182.403Z" fill="#485B78" />
    <path
      d="M302.691 153.23C298.291 157.415 296.317 161.145 294.632 166.988C293.151 172.126 292.576 176.436 292 181.491C291.877 182.61 292.822 183.522 293.891 183.398C298.168 182.9 301.622 182.693 305.857 183.522C306.72 183.688 307.502 183.025 307.502 182.154C307.502 176.063 310.832 169.35 310.709 166.449C310.627 163.838 310.133 162.678 309.64 160.109C309.516 159.487 309.393 158.783 309.311 158.078C306.844 156.877 304.582 154.97 302.691 153.106V153.23Z"
      fill="#485B78" />
    <path
      d="M309.722 160.067C309.599 159.446 309.475 158.741 309.393 158.037C307.378 157.042 305.487 155.592 303.842 154.059C299.895 158.286 304.212 164.087 302.979 169.018C302.115 172.872 299.566 175.856 300.429 179.71C300.429 180.124 300.84 181.409 300.84 181.864C300.429 182.279 299.977 182.652 299.525 182.983C301.581 182.942 303.637 183.108 305.857 183.563C306.72 183.729 307.502 183.066 307.502 182.196C307.502 176.104 310.832 169.391 310.709 166.491C310.668 163.797 310.174 162.678 309.722 160.067Z"
      fill="#334767" />
    <path
      d="M300.635 161.601C301.293 166.532 304.13 171.132 308.242 173.949C308.612 172.748 308.982 171.504 309.393 170.303C305.281 167.236 302.526 162.346 302.033 157.208C301.334 157.622 300.882 158.368 300.676 159.156C300.47 159.943 300.512 160.772 300.635 161.601Z"
      fill="#14345A" />
    <path
      d="M303.39 152.443C302.937 152.816 302.485 153.23 302.074 153.603C304.336 155.426 306.474 157.374 308.488 159.446C308.612 158.783 308.694 158.244 309.229 157.871C309.352 158.12 309.393 158.949 309.516 159.156C309.845 158.534 310.051 157.167 309.64 156.628C309.229 156.089 308.653 155.716 308.077 155.343C306.515 154.39 304.952 153.437 303.39 152.443Z"
      fill="white" />
    <path
      d="M299.278 158.451C299.237 158.244 299.072 158.203 298.908 158.286C298.743 158.369 298.62 158.534 298.497 158.7C297.14 160.482 296.03 162.927 295.413 165.537C295.372 165.745 295.331 165.952 295.331 166.159C295.331 166.366 295.413 166.532 295.536 166.573C295.66 166.573 295.783 166.408 295.865 166.283C297.181 164.294 298.332 161.891 299.196 159.322C299.237 159.032 299.36 158.7 299.278 158.451Z"
      fill="#D9D9D9" />
    <path
      d="M305.857 157.001C302.609 155.343 300.635 156.421 300.964 159.57C303.102 172.043 315.191 177.223 321.975 178.093C323.168 178.052 323.62 176.477 323.867 175.731C317 172.955 308.941 161.684 305.857 157.001Z"
      fill="#485B78" />
    <path
      d="M326.992 178.218C326.498 177.72 326.046 177.182 325.676 176.56C325.594 176.436 325.512 176.311 325.512 176.146C325.47 176.021 325.512 175.856 325.594 175.731C325.717 175.566 325.923 175.566 326.128 175.483C326.334 175.441 326.539 175.317 326.622 175.11C326.745 174.944 326.745 174.654 326.581 174.53C325.882 174.903 324.977 174.571 324.196 174.737C323.826 174.82 323.497 175.027 323.168 175.193C322.592 174.985 322.016 174.737 321.482 174.405C320.947 175.566 320.454 176.684 319.919 177.845C320.495 178.01 321.071 178.176 321.646 178.383C322.181 178.881 322.757 179.337 323.414 179.668C323.661 179.792 323.949 179.917 324.196 179.834C324.442 179.751 324.648 179.544 324.895 179.502C325.1 179.461 325.306 179.544 325.512 179.502C325.84 179.461 326.005 179.088 326.334 178.964C326.498 178.922 326.663 178.922 326.827 178.881C326.992 178.839 327.156 178.756 327.197 178.591C327.28 178.508 327.115 178.342 326.992 178.218Z"
      fill="white" />
    <path
      d="M302.485 160.73C302.403 161.103 302.403 161.476 302.526 161.808C302.814 162.678 303.719 163.258 304.623 163.175C305.446 163.092 306.145 162.471 306.391 161.684C306.638 160.896 306.35 159.985 305.775 159.404C305.363 159.031 304.788 158.783 304.212 158.949C303.39 159.156 302.691 159.902 302.485 160.73Z"
      fill="#D9D9D9" />
  </g>
  <defs>
    <clipPath id="clip0_2201_3147">
      <rect width="302" height="302" fill="white" transform="translate(-2)" />
    </clipPath>
    <clipPath id="clip1_2201_3147">
      <rect width="50" height="91" fill="white" transform="translate(292 142)" />
    </clipPath>
  </defs>
</svg>