<svg width="51" height="52" viewBox="0 0 51 52" fill="none" xmlns="http://www.w3.org/2000/svg">
  <path
    d="M34.7166 40.362C43.7041 35.4406 46.8613 24.4104 41.7684 15.7255C36.6755 7.04064 25.261 3.98976 16.2734 8.9112C7.28585 13.8326 4.12865 24.8628 9.22159 33.5477C14.3145 42.2326 25.729 45.2835 34.7166 40.362Z"
    stroke="#485B78" stroke-miterlimit="10" />
  <path
    d="M25.501 40.1107C34.3478 40.1107 41.5196 33.1804 41.5196 24.6315C41.5196 16.0826 34.3478 9.15234 25.501 9.15234C16.6542 9.15234 9.48242 16.0826 9.48242 24.6315C9.48242 33.1804 16.6542 40.1107 25.501 40.1107Z"
    fill="#F44336" />
  <path d="M29.8359 2.93589L38.927 2.9082" stroke="#485B78" stroke-miterlimit="10"
    stroke-linecap="round" />
  <path d="M35.3809 5.60874L44.4719 5.58105" stroke="#485B78" stroke-miterlimit="10"
    stroke-linecap="round" />
  <path d="M21.6465 4.03728L26.1956 4.02344" stroke="#485B78" stroke-miterlimit="10"
    stroke-linecap="round" />
  <path d="M17.2344 46.1682L26.3254 46.1475" stroke="#485B78" stroke-miterlimit="10"
    stroke-linecap="round" />
  <path d="M24.0469 44.7151L33.1379 44.6943" stroke="#485B78" stroke-miterlimit="10"
    stroke-linecap="round" />
  <path d="M12.2559 44.0363L16.7978 44.0225" stroke="#485B78" stroke-miterlimit="10"
    stroke-linecap="round" />
  <path opacity="0.35" d="M35.3008 16.2969C35.3008 16.2969 43.9262 23.4688 35.3581 34.0467"
    stroke="white" stroke-width="3" stroke-miterlimit="10" stroke-linecap="round" />
  <path opacity="0.13"
    d="M44.2858 50.191C44.2858 50.9317 35.9183 51.5617 25.5879 51.5894C15.2575 51.6171 6.88281 51.0425 6.88281 50.2948C6.88281 49.5541 15.2503 48.9241 25.5807 48.8965C35.904 48.8688 44.2858 49.4503 44.2858 50.191Z"
    fill="#485B78" />
  <g clip-path="url(#clip0_544_17021)">
    <path
      d="M14.0394 31.9396C14.0768 32.0752 14.2111 32.1704 14.3652 32.1704H28.4747C28.6288 32.1704 28.7632 32.0752 28.8006 31.9396L29.1365 30.7208C29.1814 30.5574 29.0723 30.3921 28.8921 30.3514C28.8652 30.3453 28.8379 30.3422 28.8106 30.3422H28.4575C28.3004 27.3953 25.9434 24.9276 22.7503 24.3662C22.7545 24.3266 22.7637 24.2877 22.7637 24.2481C22.7637 23.5751 22.162 23.0293 21.42 23.0293C20.678 23.0293 20.0762 23.5751 20.0762 24.2481C20.0762 24.2877 20.0854 24.3266 20.0896 24.3662C16.8965 24.9276 14.5395 27.3953 14.3825 30.3422H14.0293C13.8437 30.3422 13.6934 30.4786 13.6934 30.6469C13.6934 30.6721 13.6967 30.6968 13.7034 30.7208L14.0394 31.9396ZM28.2122 31.561H14.6277L14.4597 30.9516H28.3802L28.2122 31.561ZM20.7481 24.2481C20.7481 23.9114 21.0488 23.6387 21.42 23.6387C21.7912 23.6387 22.0918 23.9114 22.0918 24.2481C22.0918 24.2584 22.0889 24.2687 22.0885 24.2786C21.868 24.2595 21.6459 24.2481 21.42 24.2481C21.194 24.2481 20.9719 24.2599 20.7514 24.2786C20.751 24.2687 20.7481 24.2584 20.7481 24.2481ZM21.42 24.8575C24.8109 24.8625 27.6059 27.2708 27.7856 30.3422H15.0543C15.2341 27.2708 18.0291 24.8625 21.42 24.8575Z"
      fill="#FFB1AB" />
    <path
      d="M16.4727 28.0562L17.0543 28.3609C18.188 26.5841 20.4871 25.7088 22.6791 26.2196L22.8471 25.6296C20.3628 25.0503 17.7572 26.0425 16.4727 28.0562Z"
      fill="#FFB1AB" />
    <path
      d="M15.8887 29.3516L16.5391 29.504C16.5941 29.3097 16.6639 29.1189 16.7466 28.9326L16.1238 28.7041C16.0298 28.9151 15.9512 29.1315 15.8887 29.3516Z"
      fill="#FFB1AB" />
    <path
      d="M33.5137 15.4112H32.5059V14.1924C32.5059 14.0241 32.3556 13.8877 32.17 13.8877C32.1528 13.8877 32.1356 13.8888 32.1183 13.8915L21.3683 15.415V15.4207C21.2058 15.4417 21.0852 15.5674 21.084 15.7159V22.4194H21.7559V16.0206H33.1778V31.5606H29.4825V32.17H33.5137C33.6994 32.17 33.8497 32.0336 33.8497 31.8653V15.7159C33.8497 15.5476 33.6994 15.4112 33.5137 15.4112ZM31.834 15.4112H25.746L31.834 14.5481V15.4112Z"
      fill="#FFB1AB" />
    <path
      d="M24.3783 19.3042L23.4281 18.4426L22.9531 18.8734L23.9034 19.7349C24.4678 20.2469 25.3513 20.328 26.0173 19.9288L26.9915 20.8125L23.9034 23.6135L24.3783 24.0442L27.4665 21.2436L30.5546 24.0446L31.0295 23.6138L27.9414 20.8128L28.4407 20.36C29.1067 20.7584 29.9898 20.6776 30.5546 20.1661L31.0295 19.7353C31.6968 19.1507 31.7153 18.1863 31.0707 17.5811C30.4261 16.9758 29.3629 16.9591 28.6956 17.5437C28.6817 17.5559 28.6679 17.5685 28.6544 17.5811L28.1795 18.0118C27.6151 18.5237 27.5257 19.3251 27.9658 19.9292L27.4665 20.3817L26.4922 19.498C26.9323 18.894 26.8429 18.0926 26.2785 17.5807L25.3286 16.7188L24.8537 17.1495L25.8036 18.0115C26.1026 18.2853 26.1798 18.6997 25.9976 19.0475L24.3788 17.5792L23.9038 18.0099L25.5226 19.4782C25.1388 19.6454 24.6811 19.5754 24.3783 19.3042ZM28.6544 18.4426L29.1294 18.0118C29.5296 17.661 30.1678 17.6713 30.5546 18.0343C30.9317 18.3885 30.9317 18.9503 30.5546 19.3046L30.0797 19.7353C29.6929 20.0983 29.055 20.1086 28.6544 19.7578C28.2543 19.407 28.2429 18.8284 28.6297 18.4651C28.6376 18.4575 28.646 18.4499 28.6544 18.4426Z"
      fill="#FFB1AB" />
    <path d="M31.498 24.8574H32.1699V25.4668H31.498V24.8574Z" fill="#FFB1AB" />
    <path d="M31.498 26.0762H32.1699V26.6856H31.498V26.0762Z" fill="#FFB1AB" />
    <path d="M31.498 27.2949H32.1699V27.9043H31.498V27.2949Z" fill="#FFB1AB" />
    <path d="M26.459 24.8574H30.8262V25.4668H26.459V24.8574Z" fill="#FFB1AB" />
    <path d="M27.8027 26.0762H30.8262V26.6856H27.8027V26.0762Z" fill="#FFB1AB" />
    <path d="M28.8105 27.2949H30.8262V27.9043H28.8105V27.2949Z" fill="#FFB1AB" />
    <path d="M19.7402 16.3252H20.4121V21.8099H19.7402V16.3252Z" fill="#FFB1AB" />
  </g>
  <defs>
    <clipPath id="clip0_544_17021">
      <rect width="20.1564" height="18.2823" fill="white" transform="translate(13.6934 13.8877)" />
    </clipPath>
  </defs>
</svg>