<svg width="51" height="52" viewBox="0 0 51 52" fill="none" xmlns="http://www.w3.org/2000/svg">
  <path
    d="M34.7166 40.362C43.7041 35.4406 46.8613 24.4104 41.7684 15.7255C36.6755 7.04064 25.261 3.98976 16.2734 8.9112C7.28585 13.8326 4.12865 24.8628 9.22159 33.5477C14.3145 42.2326 25.729 45.2835 34.7166 40.362Z"
    stroke="#D9D9D9" stroke-miterlimit="10" />
  <path
    d="M25.5015 40.1112C34.3483 40.1112 41.5201 33.1809 41.5201 24.632C41.5201 16.0831 34.3483 9.15283 25.5015 9.15283C16.6547 9.15283 9.48291 16.0831 9.48291 24.632C9.48291 33.1809 16.6547 40.1112 25.5015 40.1112Z"
    fill="#51A555" />
  <path d="M29.8354 2.93638L38.9265 2.90869" stroke="#D9D9D9" stroke-miterlimit="10"
    stroke-linecap="round" />
  <path d="M35.3804 5.60825L44.4714 5.58057" stroke="#D9D9D9" stroke-miterlimit="10"
    stroke-linecap="round" />
  <path d="M21.647 4.03679L26.1961 4.02295" stroke="#D9D9D9" stroke-miterlimit="10"
    stroke-linecap="round" />
  <path d="M17.2344 46.1687L26.3254 46.1479" stroke="#D9D9D9" stroke-miterlimit="10"
    stroke-linecap="round" />
  <path d="M24.0474 44.7146L33.1384 44.6938" stroke="#D9D9D9" stroke-miterlimit="10"
    stroke-linecap="round" />
  <path d="M12.2554 44.0363L16.7973 44.0225" stroke="#D9D9D9" stroke-miterlimit="10"
    stroke-linecap="round" />
  <path opacity="0.35" d="M35.3018 16.2969C35.3018 16.2969 43.9271 23.4688 35.3591 34.0467"
    stroke="white" stroke-width="3" stroke-miterlimit="10" stroke-linecap="round" />
  <path opacity="0.13"
    d="M44.2853 50.1905C44.2853 50.9313 35.9178 51.5612 25.5874 51.5889C15.257 51.6166 6.88232 51.042 6.88232 50.2944C6.88232 49.5536 15.2498 48.9237 25.5802 48.896C35.9035 48.8683 44.2853 49.4498 44.2853 50.1905Z"
    fill="#D9D9D9" />
  <g clip-path="url(#clip0_261_10063)">
    <path
      d="M14.0399 31.9391C14.0772 32.0747 14.2116 32.17 14.3657 32.17H28.4752C28.6293 32.17 28.7637 32.0747 28.801 31.9391L29.137 30.7203C29.1819 30.5569 29.0727 30.3916 28.8926 30.3509C28.8657 30.3448 28.8384 30.3417 28.8111 30.3417H28.458C28.3009 27.3948 25.9439 24.9271 22.7508 24.3657C22.755 24.3261 22.7642 24.2872 22.7642 24.2476C22.7642 23.5746 22.1625 23.0288 21.4205 23.0288C20.6785 23.0288 20.0767 23.5746 20.0767 24.2476C20.0767 24.2872 20.0859 24.3261 20.0901 24.3657C16.897 24.9271 14.54 27.3948 14.3829 30.3417H14.0298C13.8442 30.3417 13.6938 30.4781 13.6938 30.6464C13.6938 30.6716 13.6972 30.6963 13.7039 30.7203L14.0399 31.9391ZM28.2127 31.5605H14.6282L14.4602 30.9511H28.3807L28.2127 31.5605ZM20.7486 24.2476C20.7486 23.9109 21.0492 23.6382 21.4205 23.6382C21.7917 23.6382 22.0923 23.9109 22.0923 24.2476C22.0923 24.2579 22.0894 24.2682 22.089 24.2781C21.8685 24.2591 21.6464 24.2476 21.4205 24.2476C21.1945 24.2476 20.9724 24.2594 20.7519 24.2781C20.7515 24.2682 20.7486 24.2579 20.7486 24.2476ZM21.4205 24.857C24.8113 24.862 27.6064 27.2703 27.7861 30.3417H15.0548C15.2346 27.2703 18.0296 24.862 21.4205 24.857Z"
      fill="#D9D9D9" />
    <path
      d="M16.4736 28.0567L17.0552 28.3614C18.189 26.5846 20.4881 25.7093 22.6801 26.2201L22.8481 25.6301C20.3638 25.0508 17.7582 26.043 16.4736 28.0567Z"
      fill="#D9D9D9" />
    <path
      d="M15.8896 29.3516L16.5401 29.504C16.5951 29.3097 16.6648 29.1189 16.7476 28.9326L16.1248 28.7041C16.0307 28.9151 15.9522 29.1315 15.8896 29.3516Z"
      fill="#D9D9D9" />
    <path
      d="M33.5142 15.4112H32.5064V14.1924C32.5064 14.0241 32.3561 13.8877 32.1705 13.8877C32.1533 13.8877 32.136 13.8888 32.1188 13.8915L21.3688 15.415V15.4207C21.2063 15.4417 21.0857 15.5674 21.0845 15.7159V22.4194H21.7564V16.0206H33.1783V31.5606H29.483V32.17H33.5142C33.6998 32.17 33.8502 32.0336 33.8502 31.8653V15.7159C33.8502 15.5476 33.6998 15.4112 33.5142 15.4112ZM31.8345 15.4112H25.7465L31.8345 14.5481V15.4112Z"
      fill="#D9D9D9" />
    <path
      d="M24.3793 19.3047L23.429 18.4431L22.9541 18.8739L23.9044 19.7354C24.4688 20.2473 25.3523 20.3285 26.0183 19.9293L26.9925 20.8129L23.9044 23.6139L24.3793 24.0447L27.4674 21.2441L30.5556 24.0451L31.0305 23.6143L27.9424 20.8133L28.4417 20.3605C29.1077 20.7589 29.9908 20.6781 30.5556 20.1666L31.0305 19.7358C31.6978 19.1512 31.7162 18.1868 31.0717 17.5816C30.4271 16.9763 29.3638 16.9596 28.6966 17.5442C28.6827 17.5564 28.6689 17.569 28.6554 17.5816L28.1805 18.0123C27.6161 18.5242 27.5267 19.3256 27.9667 19.9297L27.4674 20.3822L26.4932 19.4985C26.9333 18.8944 26.8439 18.0931 26.2795 17.5812L25.3296 16.7192L24.8547 17.15L25.8045 18.0119C26.1035 18.2858 26.1808 18.7002 25.9986 19.0479L24.3797 17.5796L23.9048 18.0104L25.5236 19.4787C25.1398 19.6459 24.6821 19.5758 24.3793 19.3047ZM28.6554 18.4431L29.1303 18.0123C29.5305 17.6615 30.1688 17.6718 30.5556 18.0348C30.9327 18.389 30.9327 18.9508 30.5556 19.305L30.0806 19.7358C29.6939 20.0988 29.056 20.1091 28.6554 19.7583C28.2552 19.4075 28.2439 18.8289 28.6306 18.4656C28.6386 18.458 28.647 18.4503 28.6554 18.4431Z"
      fill="#D9D9D9" />
    <path d="M31.4985 24.8569H32.1704V25.4663H31.4985V24.8569Z" fill="#D9D9D9" />
    <path d="M31.4985 26.0757H32.1704V26.6851H31.4985V26.0757Z" fill="#D9D9D9" />
    <path d="M31.4985 27.2949H32.1704V27.9043H31.4985V27.2949Z" fill="#D9D9D9" />
    <path d="M26.4595 24.8569H30.8267V25.4663H26.4595V24.8569Z" fill="#D9D9D9" />
    <path d="M27.8032 26.0757H30.8267V26.6851H27.8032V26.0757Z" fill="#D9D9D9" />
    <path d="M28.811 27.2949H30.8267V27.9043H28.811V27.2949Z" fill="#D9D9D9" />
    <path d="M19.7407 16.3252H20.4126V21.8099H19.7407V16.3252Z" fill="#D9D9D9" />
  </g>
  <defs>
    <clipPath id="clip0_261_10063">
      <rect width="20.1564" height="18.2823" fill="white" transform="translate(13.6938 13.8877)" />
    </clipPath>
  </defs>
</svg>