<svg width="111" height="69" viewBox="0 0 111 69" fill="none" xmlns="http://www.w3.org/2000/svg">
  <path
    d="M95.8264 26.5999L102.735 24.5573L106.066 19.6055H109.335L104.77 26.1047L95.6414 30.3757L95.8264 26.5999Z"
    fill="#7A7A7A" />
  <path
    d="M101.562 35.2036L106.867 35.4512L108.471 37.989L110.506 38.2985C110.506 38.2985 110.692 42.0743 109.89 42.4457H106.374L101.562 35.2036Z"
    fill="#C43759" />
  <path
    d="M93.0506 69C100.647 69 106.806 62.8201 106.806 55.1968C106.806 47.5735 100.647 41.3936 93.0506 41.3936C85.4538 41.3936 79.2954 47.5735 79.2954 55.1968C79.2954 62.8201 85.4538 69 93.0506 69Z"
    fill="#7A7A7A" />
  <path
    d="M93.0507 63.0575C97.3771 63.0575 100.884 59.538 100.884 55.1965C100.884 50.8549 97.3771 47.3354 93.0507 47.3354C88.7243 47.3354 85.217 50.8549 85.217 55.1965C85.217 59.538 88.7243 63.0575 93.0507 63.0575Z"
    fill="white" />
  <path
    d="M93.0503 61.077C96.2866 61.077 98.9101 58.4443 98.9101 55.1967C98.9101 51.9491 96.2866 49.3164 93.0503 49.3164C89.814 49.3164 87.1904 51.9491 87.1904 55.1967C87.1904 58.4443 89.814 61.077 93.0503 61.077Z"
    fill="#7A7A7A" />
  <path
    d="M93.6058 57.4868C94.6278 57.4868 95.4563 56.6554 95.4563 55.6299C95.4563 54.6043 94.6278 53.7729 93.6058 53.7729C92.5839 53.7729 91.7554 54.6043 91.7554 55.6299C91.7554 56.6554 92.5839 57.4868 93.6058 57.4868Z"
    fill="white" />
  <path
    d="M52.5867 55.1962V58.1054H54.067V56.6199L70.4129 59.1577V57.9816H80.0354L81.1457 50.9253H74.9774L52.5867 55.1962Z"
    fill="#7A7A7A" />
  <path
    d="M103.598 60.2719L79.7273 56.001C79.7273 56.001 78.3703 53.9584 80.3441 51.2349L104.647 54.9487C104.709 54.9487 105.264 57.4246 103.598 60.2719Z"
    fill="#485B78" />
  <path
    d="M13.9119 69C21.5087 69 27.6671 62.8201 27.6671 55.1968C27.6671 47.5735 21.5087 41.3936 13.9119 41.3936C6.31514 41.3936 0.156738 47.5735 0.156738 55.1968C0.156738 62.8201 6.31514 69 13.9119 69Z"
    fill="#7A7A7A" />
  <path
    d="M9.16235 42.198C9.16235 42.198 17.2428 43.6217 19.9568 46.2833C22.6708 48.9449 24.3362 51.7922 27.4204 52.4111L26.8652 49.9971L21.4372 44.1787L12.5549 41.2695L10.5194 41.7647C10.4577 41.7647 9.40908 42.0742 9.16235 42.198Z"
    fill="#7A7A7A" />
  <path
    d="M13.9118 63.0575C18.2382 63.0575 21.7455 59.538 21.7455 55.1965C21.7455 50.8549 18.2382 47.3354 13.9118 47.3354C9.58538 47.3354 6.07812 50.8549 6.07812 55.1965C6.07812 59.538 9.58538 63.0575 13.9118 63.0575Z"
    fill="white" />
  <path
    d="M13.9121 61.077C17.1484 61.077 19.7719 58.4443 19.7719 55.1967C19.7719 51.9491 17.1484 49.3164 13.9121 49.3164C10.6758 49.3164 8.05225 51.9491 8.05225 55.1967C8.05225 58.4443 10.6758 61.077 13.9121 61.077Z"
    fill="#7A7A7A" />
  <path
    d="M14.4054 57.4868C15.4274 57.4868 16.2559 56.6554 16.2559 55.6299C16.2559 54.6043 15.4274 53.7729 14.4054 53.7729C13.3834 53.7729 12.5549 54.6043 12.5549 55.6299C12.5549 56.6554 13.3834 57.4868 14.4054 57.4868Z"
    fill="white" />
  <path
    d="M32.4164 52.7829C32.4164 52.7829 28.7155 52.9067 25.2612 49.9975C21.807 47.0264 20.8201 42.0746 1.39014 40.6509C1.39014 40.6509 4.35089 34.2754 10.7042 33.4089C17.0575 32.4804 22.9173 34.523 25.8781 38.2369C28.8388 41.9508 31.7379 48.6357 32.4164 51.3592C32.7865 52.6591 32.4164 52.7829 32.4164 52.7829Z"
    fill="#485B78" />
  <path d="M34.8838 11.6203L35.8707 9.33008H40.0651L35.7473 20.1622L34.8838 11.6203Z" fill="#485B78" />
  <path
    d="M32.6019 38.0513C32.6019 38.0513 35.1309 47.8311 40.6823 48.3882C46.2337 48.8834 61.2226 48.3882 61.2226 48.3882C61.2226 48.3882 66.7123 42.8174 64.245 36.6895C61.7777 30.5616 60.4207 29.4475 60.4207 29.4475L60.6057 26.105H95.7031V30.3759C95.7031 30.3759 108.471 37.8037 109.89 52.7829H77.26L75.9647 55.6302H43.0262C43.0262 55.6302 31.8617 50.6784 32.6019 38.0513Z"
    fill="#485B78" />
  <path
    d="M44.3831 55.6294C44.3831 55.6294 35.8709 50.5538 34.4522 42.8166L33.0952 39.7217L34.0821 48.2636L38.77 53.6487L43.0261 55.6294H44.3831Z"
    fill="#485B78" />
  <path
    d="M77.0129 53.959L76.7661 53.8352C76.4577 53.7114 69.9194 50.4308 70.0427 43.4364C70.1661 36.5657 73.8671 32.3567 80.5288 31.6139C81.5774 31.4901 82.7493 31.4282 83.9213 31.4282C87.4372 31.4282 96.1961 32.0472 102.118 37.618C107.731 42.9412 110.383 52.0402 110.506 52.4116L110.938 53.8971H77.0129V53.959Z"
    fill="#485B78" />
  <path
    d="M95.7645 29.3234L60.5438 28.0854C60.5438 28.0854 59.9887 20.5958 60.8522 19.5435C61.7158 18.4913 94.4075 19.1721 94.901 19.5435C95.3327 19.9149 96.1963 22.5146 95.7645 29.3234Z"
    fill="#7A7A7A" />
  <path
    d="M77.2596 52.7826C77.2596 52.7826 71.0914 49.7496 71.2147 43.4979C71.3381 37.2462 74.5456 33.4705 80.6521 32.7896C86.7587 32.1087 95.826 33.3467 101.254 38.4842C106.682 43.6836 109.334 52.7826 109.334 52.7826H77.2596Z"
    fill="#485B78" />
  <path
    d="M91.077 39.2269H78.5554V36.6891C78.5554 34.8322 80.0975 33.2847 81.948 33.2847H85.1555C88.4246 33.2229 91.077 35.8845 91.077 39.2269Z"
    fill="#D9D9D9" />
  <path
    d="M31.9233 1.09768V8.77301C31.9233 8.77301 39.3869 9.14441 41.114 8.40163C42.8411 7.59696 42.9028 3.44979 40.4972 2.27373C38.1533 1.03578 31.9233 1.09768 31.9233 1.09768Z"
    fill="#485B78" />
  <path
    d="M33.28 5.36864L39.7567 7.10179H42.2857V5.43054C42.2857 4.87346 41.9156 4.44018 41.4221 4.25448C39.2632 3.6355 33.28 2.14995 33.28 5.36864Z"
    fill="#D9D9D9" />
  <path d="M32.787 0.974121H31.8V8.89703H32.787V0.974121Z" fill="#485B78" />
  <path d="M60.4824 28.642L95.7648 30.1276V29.3229L60.5441 28.085L60.4824 28.642Z" fill="#485B78" />
  <path
    d="M33.5271 11.1252C33.5271 11.1252 27.7289 25.4236 24.0896 27.2186C24.0896 27.2186 21.0055 28.7041 20.7588 33.037C20.7588 33.037 26.4336 36.07 27.1121 37.0604C27.7906 38.0507 30.9981 54.0823 43.0262 55.6297C43.0262 55.6297 33.4654 49.997 33.157 38.8554C32.8486 27.7138 36.6112 17.7482 36.7346 16.5103C36.9196 15.3342 37.1046 10.5681 33.5271 11.1252Z"
    fill="#485B78" />
  <path d="M105.14 20.9678H108.409L108.964 20.1631H105.695L105.14 20.9678Z" fill="#7A7A7A" />
  <path
    d="M43.7663 9.39218C44.4817 9.39218 45.0616 8.81023 45.0616 8.09234C45.0616 7.37445 44.4817 6.79248 43.7663 6.79248C43.0509 6.79248 42.4709 7.37445 42.4709 8.09234C42.4709 8.81023 43.0509 9.39218 43.7663 9.39218Z"
    fill="#D9D9D9" />
</svg>