<svg width="51" height="52" viewBox="0 0 51 52" fill="none" xmlns="http://www.w3.org/2000/svg">
<path d="M34.7165 40.362C43.704 35.4406 46.8612 24.4104 41.7683 15.7255C36.6753 7.04064 25.2608 3.98976 16.2733 8.9112C7.28573 13.8326 4.12853 24.8628 9.22147 33.5477C14.3144 42.2326 25.7289 45.2835 34.7165 40.362Z" stroke="#485B78" stroke-miterlimit="10"/>
<path d="M25.5014 40.1112C34.3482 40.1112 41.52 33.1809 41.52 24.632C41.52 16.0831 34.3482 9.15283 25.5014 9.15283C16.6546 9.15283 9.48279 16.0831 9.48279 24.632C9.48279 33.1809 16.6546 40.1112 25.5014 40.1112Z" fill="#F44336"/>
<path d="M29.8353 2.93638L38.9264 2.90869" stroke="#485B78" stroke-miterlimit="10" stroke-linecap="round"/>
<path d="M35.3802 5.60825L44.4713 5.58057" stroke="#485B78" stroke-miterlimit="10" stroke-linecap="round"/>
<path d="M21.6469 4.03679L26.196 4.02295" stroke="#485B78" stroke-miterlimit="10" stroke-linecap="round"/>
<path d="M17.2343 46.1687L26.3253 46.1479" stroke="#485B78" stroke-miterlimit="10" stroke-linecap="round"/>
<path d="M24.0472 44.7146L33.1383 44.6938" stroke="#485B78" stroke-miterlimit="10" stroke-linecap="round"/>
<path d="M12.2552 44.0363L16.7972 44.0225" stroke="#485B78" stroke-miterlimit="10" stroke-linecap="round"/>
<g clip-path="url(#clip0_87_44882)">
<path d="M32.2505 25.9631C32.7204 25.5049 32.9456 25.1553 32.9573 25.132C33.035 25.0117 33.0078 24.8524 32.9029 24.7592C32.3282 24.2583 31.6252 23.9359 30.8835 23.8117V22.2427C30.8835 21.1786 30.5029 20.1728 29.8194 19.3883H29.9981C30.4485 19.3883 30.8175 19.0194 30.8175 18.5689V16.6117C30.8175 16.1612 30.4485 15.7922 29.9981 15.7922H28.7864C28.6621 15.3379 28.2388 15 27.7417 15C27.1437 15 26.6583 15.4854 26.6583 16.0835C26.6583 16.4369 26.8291 16.7553 27.0932 16.9495C27.0155 17.1515 26.9728 17.3689 26.9728 17.5903C26.9728 18.3282 27.4194 18.9612 28.0563 19.2369L27.6835 20.6893C27.6447 20.8447 27.7379 21.0039 27.8932 21.0427C27.9165 21.0505 27.9437 21.0505 27.967 21.0505C28.0951 21.0505 28.2155 20.9612 28.2505 20.833L28.6233 19.3767C28.6738 19.3806 28.7204 19.3845 28.7709 19.3845H28.9883C29.8194 20.1029 30.2971 21.1359 30.2971 22.2388V23.7534C30.266 23.7534 30.235 23.7495 30.2039 23.7495C28.033 23.7495 26.2466 25.4388 26.099 27.5748H15.8583C15.7068 27.5748 15.5825 27.4505 15.5825 27.299V26.9223C15.5825 25.8427 16.0058 24.833 16.7748 24.0757C17.5437 23.3184 18.5612 22.9107 19.6408 22.9262C20.8563 22.9417 21.8427 23.9592 21.8427 25.1942C21.8427 25.6641 22.0252 26.1068 22.3592 26.4408C22.6932 26.7748 23.1359 26.9573 23.6058 26.9573C24.2155 26.9573 24.8136 26.8019 25.3456 26.5029C25.8777 26.2039 26.3243 25.7728 26.6388 25.2524C26.7437 25.0777 26.8447 24.899 26.9379 24.7243C27.3456 23.9592 27.6602 23.1437 27.8777 22.301L27.9204 22.1417C27.9592 21.9864 27.866 21.8272 27.7107 21.7883C27.5553 21.7495 27.3961 21.8427 27.3573 21.9981L27.3146 22.1573C27.1087 22.9573 26.8097 23.7262 26.4252 24.4524C26.3359 24.6194 26.2427 24.7864 26.1417 24.9534C25.8816 25.3845 25.5087 25.7456 25.0621 25.9942C24.6194 26.2427 24.1184 26.3748 23.6097 26.3748C23.2951 26.3748 22.9961 26.2505 22.7748 26.0291C22.5534 25.8078 22.4291 25.5087 22.4291 25.1942C22.4291 24.7204 22.3126 24.2738 22.1107 23.8816H22.6117C23.233 23.8816 23.7417 23.3767 23.7417 22.7515V21.6485C23.7417 21.0272 23.233 20.5184 22.6117 20.5184H19.6602C19.501 20.5184 19.3689 20.6505 19.3689 20.8097C19.3689 20.9689 19.501 21.101 19.6602 21.101H22.6039C22.9068 21.101 23.1515 21.3456 23.1515 21.6485V22.7515C23.1515 23.0544 22.9068 23.299 22.6039 23.299H21.7029C21.1942 22.7243 20.4602 22.3553 19.6447 22.3437C18.868 22.332 18.1184 22.5146 17.4505 22.8641C17.1126 22.5534 16.9146 22.1107 16.9146 21.6485C16.9146 21.501 16.9728 21.365 17.0738 21.2602C17.1786 21.1553 17.3146 21.101 17.4621 21.101H18.301C18.4602 21.101 18.5922 20.9689 18.5922 20.8097C18.5922 20.6505 18.4602 20.5184 18.301 20.5184H17.466C17.1631 20.5184 16.8796 20.635 16.666 20.8485C16.4524 21.0621 16.3359 21.3456 16.3359 21.6485C16.3359 22.2194 16.5573 22.767 16.9417 23.1786C16.7398 23.3223 16.5456 23.4854 16.3631 23.6641C15.4854 24.534 15 25.6913 15 26.9262V27.3029C15 27.7767 15.3845 28.1612 15.8583 28.1612H16.266C16.4136 29.567 17.6019 30.666 19.0466 30.666C20.4913 30.666 21.6796 29.567 21.8272 28.1612H26.3786C26.7437 28.1612 27.0893 28.1417 27.4194 28.1068C27.5398 29.5359 28.7437 30.6621 30.2039 30.6621C30.635 30.6621 31.0466 30.565 31.4311 30.3786C31.5748 30.3087 31.6369 30.134 31.5631 29.9903C31.4932 29.8466 31.3184 29.7845 31.1748 29.8583C30.8718 30.0058 30.5456 30.0835 30.2039 30.0835C29.0388 30.0835 28.0796 29.1786 27.9981 28.033C28.2078 27.9981 28.4097 27.9592 28.6039 27.9126C28.6272 28.7786 29.334 29.4738 30.2039 29.4738C31.0854 29.4738 31.8039 28.7553 31.8039 27.8738C31.8039 27.435 31.6252 27.0233 31.3184 26.7282C31.3495 26.7087 31.3767 26.6854 31.4078 26.666C31.5553 26.5612 31.6874 26.4602 31.8117 26.3553C32.1961 26.7631 32.4136 27.3029 32.4136 27.8738C32.4136 28.2971 32.2932 28.7087 32.068 29.0621C31.9825 29.1981 32.0214 29.3767 32.1573 29.466C32.2078 29.4971 32.2621 29.5126 32.3126 29.5126C32.4097 29.5126 32.5029 29.466 32.5573 29.3767C32.8447 28.9262 32.9961 28.4058 32.9961 27.8738C33 27.1553 32.7282 26.4796 32.2505 25.9631ZM27.7417 15.5825C28.0175 15.5825 28.2427 15.8078 28.2427 16.0835C28.2427 16.3592 28.0175 16.5845 27.7417 16.5845C27.466 16.5845 27.2408 16.3592 27.2408 16.0835C27.2408 15.8078 27.466 15.5825 27.7417 15.5825ZM27.5592 17.5903C27.5592 17.4427 27.5864 17.299 27.6369 17.1592C27.6718 17.1631 27.7068 17.1631 27.7417 17.1631C28.2388 17.1631 28.6544 16.8291 28.7825 16.3748H29.9903C30.1223 16.3748 30.2272 16.4796 30.2272 16.6117V18.565C30.2272 18.6971 30.1223 18.8019 29.9903 18.8019H28.767C28.1029 18.8058 27.5592 18.2583 27.5592 17.5903ZM20.0214 28.1612C19.8971 28.5806 19.5049 28.8874 19.0466 28.8874C18.5845 28.8874 18.1961 28.5806 18.0718 28.1612H20.0214ZM19.0466 30.0835C17.9243 30.0835 16.9961 29.2447 16.8524 28.1612H17.4699C17.6058 28.9068 18.2621 29.4699 19.0427 29.4699C19.8272 29.4699 20.4796 28.9029 20.6155 28.1612H21.233C21.0971 29.2447 20.1689 30.0835 19.0466 30.0835ZM31.2252 27.8699C31.2252 28.433 30.767 28.8874 30.2078 28.8874C29.6485 28.8874 29.1903 28.4291 29.1903 27.8699C29.1903 27.8311 29.1942 27.7883 29.1981 27.7495C29.8311 27.5515 30.367 27.3029 30.8097 27.0505C31.066 27.2369 31.2252 27.5398 31.2252 27.8699ZM31.0505 26.2039C30.2 26.8019 28.767 27.5087 26.6854 27.5748C26.8369 25.765 28.3592 24.3359 30.2078 24.3359C30.9689 24.3359 31.7068 24.5806 32.3126 25.0311C32.1068 25.2874 31.6951 25.7495 31.0505 26.2039Z" fill="#FFB1AB"/>
<path d="M19.0466 24.3398H17.532C17.3728 24.3398 17.2408 24.4719 17.2408 24.6311C17.2408 24.7903 17.3728 24.9224 17.532 24.9224H19.0466C19.2058 24.9224 19.3379 24.7903 19.3379 24.6311C19.3379 24.4719 19.2058 24.3398 19.0466 24.3398Z" fill="#FFB1AB"/>
<path d="M19.0466 25.3804H17.532C17.3728 25.3804 17.2408 25.5124 17.2408 25.6716C17.2408 25.8309 17.3728 25.9629 17.532 25.9629H19.0466C19.2058 25.9629 19.3379 25.8309 19.3379 25.6716C19.3379 25.5085 19.2058 25.3804 19.0466 25.3804Z" fill="#FFB1AB"/>
</g>
<path opacity="0.35" d="M35.3016 16.2969C35.3016 16.2969 43.927 23.4688 35.3589 34.0467" stroke="white" stroke-width="3" stroke-miterlimit="10" stroke-linecap="round"/>
<path opacity="0.13" d="M44.2852 50.1905C44.2852 50.9313 35.9177 51.5612 25.5873 51.5889C15.2569 51.6166 6.8822 51.042 6.8822 50.2944C6.8822 49.5536 15.2497 48.9237 25.5801 48.896C35.9034 48.8683 44.2852 49.4498 44.2852 50.1905Z" fill="#485B78"/>
<defs>
<clipPath id="clip0_87_44882">
<rect width="18" height="15.666" fill="white" transform="translate(15 15)"/>
</clipPath>
</defs>
</svg>
