<svg width="14" height="10" viewBox="0 0 14 10" fill="none" xmlns="http://www.w3.org/2000/svg">
    <g clip-path="url(#clip0_496_3927)">
        <path d="M1.2963 1.90479H11.1481C11.864 1.90479 12.4444 2.43782 12.4444 3.09526V8.80955C12.4444 9.46699 11.864 10 11.1481 10H1.2963C0.580417 10 0 9.46699 0 8.80955V3.09526C0 2.43782 0.580417 1.90479 1.2963 1.90479Z" fill="#EA5B44"/>
        <path d="M11.6668 4.28571C12.9555 4.28571 14.0002 3.32632 14.0002 2.14286C14.0002 0.95939 12.9555 0 11.6668 0C10.3782 0 9.3335 0.95939 9.3335 2.14286C9.3335 3.32632 10.3782 4.28571 11.6668 4.28571Z" fill="#8B97A7"/>
        <path d="M0 4.28564H12.4444V5.71422H0V4.28564Z" fill="#485B78"/>
        <path d="M12.4447 1.90472H11.9262V1.42852C11.9262 1.29698 11.8102 1.19043 11.6669 1.19043C11.5237 1.19043 11.4077 1.29698 11.4077 1.42852V1.90472H10.8891C10.7459 1.90472 10.6299 2.01126 10.6299 2.14281C10.6299 2.27436 10.7459 2.38091 10.8891 2.38091H11.4077V2.8571C11.4077 2.98864 11.5237 3.09519 11.6669 3.09519C11.8102 3.09519 11.9262 2.98864 11.9262 2.8571V2.38091H12.4447C12.5879 2.38091 12.704 2.27436 12.704 2.14281C12.704 2.01126 12.5879 1.90472 12.4447 1.90472Z" fill="white"/>
        <path d="M2.85196 7.38098H1.81492C1.67168 7.38098 1.55566 7.27443 1.55566 7.14288C1.55566 7.01133 1.67168 6.90479 1.81492 6.90479H2.85196C2.9952 6.90479 3.11122 7.01133 3.11122 7.14288C3.11122 7.27443 2.9952 7.38098 2.85196 7.38098Z" fill="white"/>
        <path d="M4.92618 7.38098H3.88914C3.7459 7.38098 3.62988 7.27443 3.62988 7.14288C3.62988 7.01133 3.7459 6.90479 3.88914 6.90479H4.92618C5.06942 6.90479 5.18544 7.01133 5.18544 7.14288C5.18544 7.27443 5.06942 7.38098 4.92618 7.38098Z" fill="white"/>
        <path d="M7.51854 6.90479H10.6296C10.7729 6.90479 10.8889 7.01133 10.8889 7.14288V8.57145C10.8889 8.703 10.7729 8.80955 10.6296 8.80955H7.51854C7.3753 8.80955 7.25928 8.703 7.25928 8.57145V7.14288C7.25928 7.01133 7.3753 6.90479 7.51854 6.90479Z" fill="white"/>
    </g>
    <defs>
        <clipPath id="clip0_496_3927">
            <rect width="14" height="10" fill="white"/>
        </clipPath>
    </defs>
</svg>
