<svg width="20" height="23" viewBox="0 0 20 23" fill="none" xmlns="http://www.w3.org/2000/svg">
<g clip-path="url(#clip0_129_1833)">
<path d="M14.7225 0C14.7763 0 14.8409 0 14.8948 0C15.0348 1.61 14.3778 2.81 13.5701 3.67C12.7839 4.53 11.7069 5.37 9.96211 5.24C9.84364 3.67 10.5006 2.55 11.3084 1.69C12.0515 0.88 13.4085 0.16 14.7225 0Z" fill="black"/>
<path d="M20 16.72C20 16.74 20 16.75 20 16.77C19.5153 18.15 18.8153 19.33 17.9537 20.43C17.1782 21.43 16.2197 22.76 14.518 22.76C13.0425 22.76 12.0732 21.88 10.5547 21.86C8.96069 21.84 8.07755 22.6 6.62359 22.79C6.46204 22.79 6.28971 22.79 6.12816 22.79C5.06193 22.65 4.18955 21.86 3.56489 21.15C1.71244 19.05 0.269251 16.34 0 12.87C0 12.53 0 12.19 0 11.85C0.118471 9.37 1.41088 7.35 3.13409 6.37C4.04954 5.85 5.29887 5.41 6.68821 5.61C7.29133 5.7 7.89445 5.89 8.43296 6.07C8.93915 6.25 9.57458 6.57 10.1777 6.56C10.587 6.55 10.9855 6.35 11.4055 6.21C12.6117 5.81 13.7857 5.34 15.3366 5.56C17.1998 5.82 18.5245 6.59 19.343 7.78C17.7598 8.71 16.5213 10.12 16.7259 12.52C16.9198 14.69 18.2876 15.96 20 16.72Z" fill="black"/>
</g>
<defs>
<clipPath id="clip0_129_1833">
<rect width="20" height="22.77" fill="white"/>
</clipPath>
</defs>
</svg>
