<svg width="18" height="20" viewBox="0 0 18 20" fill="none" xmlns="http://www.w3.org/2000/svg">
    <rect x="1.36963" y="5.9873" width="15.2187" height="12.8333" rx="1" fill="#8B97A7"/>
    <path d="M0.19873 5.10352H17.7587V16.3332C17.7561 18.3502 16.0238 19.9847 13.8863 19.9871H4.07145C1.93366 19.9847 0.201338 18.3502 0.19873 16.3334V16.3332V5.10352ZM15.9276 6.83119H2.02983V16.3332C2.03137 17.3965 2.94452 18.258 4.0713 18.2595H13.886C15.013 18.258 15.9261 17.3964 15.9276 16.3333V16.3332V6.83119ZM13.3916 8.43786H11.5605V4.31741C11.5605 2.97208 10.4046 1.88144 8.9787 1.88144C7.55278 1.88144 6.39689 2.97208 6.39689 4.31741V8.43786H4.56587V4.31741C4.56587 2.01793 6.54159 0.153809 8.97878 0.153809C11.416 0.153809 13.3917 2.01793 13.3917 4.31745L13.3916 8.43786Z" fill="#8B97A7"/>
    <path d="M4.88184 5.9873C6.0525 8.62849 9.33037 12.3261 13.0765 5.9873" stroke="white"/>
</svg>
