<svg width="18" height="20" viewBox="0 0 18 20" fill="none" xmlns="http://www.w3.org/2000/svg">
    <rect x="1.1709" y="5.8335" width="15.2187" height="12.8333" rx="1" fill="white"/>
    <path d="M0 4.94971H17.56V16.1794C17.5574 18.1964 15.8251 19.8309 13.6875 19.8333H3.87272C1.73493 19.8309 0.00260706 18.1964 0 16.1796V16.1794V4.94971ZM15.7289 6.67738H1.8311V16.1794C1.83264 17.2427 2.74579 18.1042 3.87257 18.1057H13.6873C14.8142 18.1042 15.7274 17.2426 15.7289 16.1795V16.1794V6.67738ZM13.1929 8.28405H11.3618V4.1636C11.3618 2.81827 10.2059 1.72763 8.77997 1.72763C7.35405 1.72763 6.19816 2.81827 6.19816 4.1636V8.28405H4.36714V4.1636C4.36714 1.86412 6.34286 0 8.78005 0C11.2172 0 13.1929 1.86412 13.1929 4.16364L13.1929 8.28405Z" fill="white"/>
    <path d="M4.68311 5.8335C5.85377 8.47468 9.13164 12.1723 12.8778 5.8335" stroke="#DDDDDD"/>
</svg>
