<svg width="14" height="14" viewBox="0 0 14 14" fill="none" xmlns="http://www.w3.org/2000/svg">
    <path fill-rule="evenodd" clip-rule="evenodd" d="M6.69958 0.0892972C6.88177 -0.0294402 7.11877 -0.0294402 7.30097 0.0892972L13.758 4.3059C14.2041 4.59741 13.9936 5.27855 13.4575 5.27855H0.543047C0.00662377 5.27855 -0.203881 4.59741 0.242534 4.3059L6.69958 0.0892972ZM7.00009 0.804566L1.3103 4.51991H12.6899L7.00009 0.804566Z" fill="#485B78" />
    <path fill-rule="evenodd" clip-rule="evenodd" d="M11.6456 10.9661C11.4318 10.9661 11.2583 10.7962 11.2583 10.5868V6.4157C11.2583 6.20631 11.4318 6.03638 11.6456 6.03638C11.8593 6.03638 12.0328 6.20631 12.0328 6.4157V10.5868C12.0328 10.7965 11.8593 10.9661 11.6456 10.9661Z" fill="#485B78" />
    <path fill-rule="evenodd" clip-rule="evenodd" d="M8.54888 10.9661C8.33511 10.9661 8.16162 10.7962 8.16162 10.5868V6.4157C8.16162 6.20631 8.33511 6.03638 8.54888 6.03638C8.76265 6.03638 8.93613 6.20631 8.93613 6.4157V10.5868C8.93577 10.7965 8.76265 10.9661 8.54888 10.9661Z" fill="#485B78" />
    <path fill-rule="evenodd" clip-rule="evenodd" d="M5.45122 10.9661C5.23745 10.9661 5.06396 10.7962 5.06396 10.5868V6.4157C5.06396 6.20631 5.23745 6.03638 5.45122 6.03638C5.66499 6.03638 5.83848 6.20631 5.83848 6.4157V10.5868C5.83848 10.7965 5.66499 10.9661 5.45122 10.9661Z" fill="#485B78" />
    <path fill-rule="evenodd" clip-rule="evenodd" d="M2.35454 10.9661C2.14077 10.9661 1.96729 10.7962 1.96729 10.5868V6.4157C1.96729 6.20631 2.14077 6.03638 2.35454 6.03638C2.56831 6.03638 2.7418 6.20631 2.7418 6.4157V10.5868C2.7418 10.7965 2.56831 10.9661 2.35454 10.9661Z" fill="#485B78" />
    <path fill-rule="evenodd" clip-rule="evenodd" d="M0.418945 12.8625C0.418945 12.2343 0.939037 11.7249 1.58035 11.7249H12.4199C13.0612 11.7249 13.5813 12.2343 13.5813 12.8625C13.5813 13.4906 13.0612 14.0001 12.4199 14.0001H1.58035C0.938674 14.0001 0.418945 13.4906 0.418945 12.8625ZM1.58035 12.4831C1.36658 12.4831 1.19309 12.6531 1.19309 12.8625C1.19309 13.0718 1.36658 13.2418 1.58035 13.2418H12.4199C12.6337 13.2418 12.8071 13.0718 12.8071 12.8625C12.8071 12.6531 12.6337 12.4831 12.4199 12.4831H1.58035Z" fill="#485B78" />
</svg>
