<svg width="19" height="23" viewBox="0 0 19 23" fill="none" xmlns="http://www.w3.org/2000/svg">
    <path d="M18.0392 16.0449L16.1937 14.1954V9.63821C16.2182 7.94594 15.6276 6.30196 14.5308 5.00983C13.434 3.7177 11.9051 2.86467 10.2265 2.60827C9.25223 2.48041 8.26184 2.56108 7.32138 2.84489C6.38092 3.12871 5.512 3.60914 4.77262 4.25414C4.03323 4.89913 3.44037 5.69386 3.03359 6.58529C2.62682 7.47672 2.41548 8.44436 2.41369 9.42364V14.1954L0.568155 16.0449C0.336341 16.2797 0.17914 16.5775 0.116204 16.9009C0.0532679 17.2243 0.0873891 17.5591 0.214302 17.8633C0.341214 18.1675 0.555288 18.4277 0.82976 18.6113C1.10423 18.7949 1.42693 18.8938 1.7575 18.8957H5.2025V19.2431C5.25039 20.2804 5.70895 21.2565 6.47769 21.9575C7.24643 22.6585 8.26265 23.0272 9.30369 22.9828C10.3447 23.0272 11.3609 22.6585 12.1297 21.9575C12.8984 21.2565 13.357 20.2804 13.4049 19.2431V18.8957H16.8499C17.1804 18.8938 17.5031 18.7949 17.7776 18.6113C18.0521 18.4277 18.2662 18.1675 18.3931 17.8633C18.52 17.5591 18.5541 17.2243 18.4912 16.9009C18.4282 16.5775 18.271 16.2797 18.0392 16.0449ZM11.3543 19.2431C11.2974 19.7346 11.0525 20.1852 10.6705 20.5012C10.2885 20.8172 9.79889 20.9741 9.30369 20.9393C8.80848 20.9741 8.31889 20.8172 7.93689 20.5012C7.55489 20.1852 7.30995 19.7346 7.25309 19.2431V18.8957H11.3543V19.2431Z" fill="#8B97A7"/>
    <rect x="8" width="2.34133" height="3.5" fill="#8B97A7"/>
</svg>
