<svg width="18" height="13" viewBox="0 0 18 13" fill="none" xmlns="http://www.w3.org/2000/svg">
    <g clip-path="url(#clip0_1757_4749)">
        <path fill-rule="evenodd" clip-rule="evenodd" d="M6.50011 5.89489C6.16662 5.89489 5.89489 6.16622 5.89489 6.50011C5.89489 6.8336 6.16662 7.10533 6.50011 7.10533C6.83399 7.10533 7.10533 6.83399 7.10533 6.50011C7.10533 6.16662 6.8336 5.89489 6.50011 5.89489ZM6.50011 7.48264C5.95824 7.48264 5.51758 7.04197 5.51758 6.50011C5.51758 5.95824 5.95824 5.51758 6.50011 5.51758C7.04197 5.51758 7.48264 5.95824 7.48264 6.50011C7.48264 7.04197 7.04197 7.48264 6.50011 7.48264Z" fill="#8B97A7"/>
        <path fill-rule="evenodd" clip-rule="evenodd" d="M6.49989 2.79776C6.3955 2.79776 6.31104 2.71329 6.31104 2.6089V1.45863C6.31104 1.35424 6.3955 1.26978 6.49989 1.26978C6.60428 1.26978 6.68875 1.35424 6.68875 1.45863V2.6089C6.68875 2.71329 6.60388 2.79776 6.49989 2.79776Z" fill="#E2B3AB"/>
        <path fill-rule="evenodd" clip-rule="evenodd" d="M6.49989 5.89473C6.3955 5.89473 6.31104 5.81027 6.31104 5.70588V3.32924C6.31104 3.22485 6.3955 3.14038 6.49989 3.14038C6.60428 3.14038 6.68875 3.22485 6.68875 3.32924V5.70628C6.68875 5.81027 6.60388 5.89473 6.49989 5.89473Z" fill="#8B97A7"/>
        <path fill-rule="evenodd" clip-rule="evenodd" d="M7.18793 6.29193C7.12259 6.29193 7.05924 6.25806 7.02417 6.1975C6.97238 6.10705 7.00306 5.99191 7.0935 5.93971L8.39438 5.18867C8.48482 5.13648 8.59997 5.16755 8.65216 5.2576C8.70436 5.34804 8.67288 5.46319 8.58283 5.51538L7.28236 6.26643C7.25247 6.28356 7.2202 6.29193 7.18793 6.29193Z" fill="#8B97A7"/>
        <path fill-rule="evenodd" clip-rule="evenodd" d="M8.44553 3.31885C8.41326 3.31885 8.38099 3.31048 8.35111 3.29335C8.26106 3.24116 8.22998 3.12561 8.28218 3.03557L8.85791 2.03869C8.90971 1.94825 9.02525 1.91757 9.1153 1.96976C9.20574 2.02196 9.23682 2.1375 9.18462 2.22755L8.60889 3.22442C8.57383 3.28498 8.51048 3.31885 8.44553 3.31885Z" fill="#E2B3AB"/>
        <path fill-rule="evenodd" clip-rule="evenodd" d="M9.87023 4.74333C9.80489 4.74333 9.74154 4.70946 9.70648 4.6489C9.65428 4.55845 9.68536 4.44331 9.77581 4.39111L10.7727 3.81538C10.8631 3.76319 10.9783 3.79426 11.0305 3.88431C11.0827 3.97435 11.0516 4.0899 10.9611 4.14209L9.96426 4.71783C9.93478 4.73496 9.90211 4.74333 9.87023 4.74333Z" fill="#E2B3AB"/>
        <path fill-rule="evenodd" clip-rule="evenodd" d="M6.49989 11.7301C6.3955 11.7301 6.31104 11.6457 6.31104 11.5413V10.391C6.31104 10.2866 6.3955 10.2021 6.49989 10.2021C6.60428 10.2021 6.68875 10.2866 6.68875 10.391V11.5413C6.68875 11.6457 6.60388 11.7301 6.49989 11.7301Z" fill="#E2B3AB"/>
        <path fill-rule="evenodd" clip-rule="evenodd" d="M3.97874 11.0555C3.94646 11.0555 3.91419 11.0475 3.88431 11.0304C3.79426 10.9782 3.76319 10.8631 3.81538 10.7726L4.39111 9.77575C4.44331 9.68531 4.55805 9.65463 4.6485 9.70682C4.73894 9.75902 4.77002 9.87417 4.71783 9.96461L4.14249 10.9615C4.10743 11.0216 4.04408 11.0555 3.97874 11.0555Z" fill="#E2B3AB"/>
        <path fill-rule="evenodd" clip-rule="evenodd" d="M2.13392 9.21012C2.06858 9.21012 2.00523 9.17626 1.97017 9.11569C1.91797 9.02525 1.94905 8.9101 2.03909 8.85791L3.03637 8.28218C3.12681 8.22998 3.24196 8.26106 3.29415 8.35111C3.34595 8.44115 3.31527 8.5567 3.22482 8.60889L2.22755 9.18462C2.19847 9.20176 2.16579 9.21012 2.13392 9.21012Z" fill="#E2B3AB"/>
        <path fill-rule="evenodd" clip-rule="evenodd" d="M2.60906 6.68875H1.45839C1.3544 6.68875 1.26953 6.60428 1.26953 6.49989C1.26953 6.3955 1.354 6.31104 1.45839 6.31104H2.60906C2.71344 6.31104 2.79791 6.3955 2.79791 6.49989C2.79791 6.60428 2.71305 6.68875 2.60906 6.68875Z" fill="#E2B3AB"/>
        <path fill-rule="evenodd" clip-rule="evenodd" d="M3.13 4.74317C3.09852 4.74317 3.06585 4.7352 3.03597 4.71807L2.03909 4.14234C1.94905 4.09014 1.91797 3.9746 1.97017 3.88455C2.02196 3.79451 2.13751 3.76343 2.22755 3.81562L3.22482 4.39096C3.31527 4.44315 3.34595 4.5587 3.29375 4.64874C3.25909 4.7093 3.19534 4.74317 3.13 4.74317Z" fill="#E2B3AB"/>
        <path fill-rule="evenodd" clip-rule="evenodd" d="M4.55496 3.31876C4.48961 3.31876 4.42587 3.2849 4.3908 3.22434L3.81587 2.22746C3.76367 2.13702 3.79475 2.02187 3.8848 1.96968C3.97524 1.91748 4.09039 1.94856 4.14258 2.03861L4.71831 3.03548C4.77011 3.12592 4.73943 3.24107 4.64899 3.29326C4.6195 3.3108 4.58683 3.31876 4.55496 3.31876Z" fill="#E2B3AB"/>
        <path fill-rule="evenodd" clip-rule="evenodd" d="M7.10069 4.23695C7.0465 4.23695 6.99272 4.21384 6.95526 4.16922L6.49946 3.62377L6.04405 4.16922C5.97712 4.2493 5.85799 4.26006 5.7783 4.19312C5.69822 4.12619 5.68746 4.00746 5.75439 3.92737L6.35483 3.2086C6.39069 3.16557 6.44368 3.14087 6.49946 3.14087C6.55564 3.14087 6.60863 3.16557 6.64449 3.2086L7.24492 3.92737C7.31146 4.00746 7.3007 4.12619 7.22062 4.19312C7.18596 4.22261 7.14293 4.23695 7.10069 4.23695Z" fill="#8B97A7"/>
        <path fill-rule="evenodd" clip-rule="evenodd" d="M6.50022 11.7302C3.61638 11.7302 1.27002 9.38382 1.27002 6.49998C1.27002 3.61613 3.61638 1.26978 6.50022 1.26978C9.298 1.26978 11.593 3.45716 11.7244 6.24976C11.7292 6.35375 11.6491 6.4422 11.5448 6.44699C11.4412 6.45137 11.3519 6.37128 11.3475 6.26729C11.2252 3.6763 9.096 1.64669 6.50022 1.64669C3.82476 1.64669 1.64733 3.82372 1.64733 6.49958C1.64733 9.17544 3.82436 11.3525 6.50022 11.3525C7.34489 11.3525 8.17682 11.1321 8.90595 10.7154C8.99639 10.6636 9.11154 10.6951 9.16333 10.7855C9.21473 10.8759 9.18365 10.9915 9.09281 11.0429C8.3075 11.4923 7.41024 11.7302 6.50022 11.7302Z" fill="#E2B3AB"/>
        <path fill-rule="evenodd" clip-rule="evenodd" d="M6.5 13C2.91612 13 0 10.0839 0 6.5C0 2.91572 2.91572 0 6.5 0C7.98774 0 9.44201 0.515569 10.5947 1.45188C11.7306 2.37465 12.5299 3.66516 12.8454 5.08597C12.8677 5.18757 12.8036 5.28837 12.702 5.31108C12.6004 5.33339 12.4996 5.26965 12.4773 5.16765C11.8609 2.39178 9.34679 0.377314 6.5 0.377314C3.1241 0.377314 0.377314 3.1241 0.377314 6.5C0.377314 9.8759 3.1237 12.6223 6.4996 12.6223C7.74031 12.6223 8.93601 12.2529 9.95559 11.5537C10.0417 11.4947 10.1588 11.5166 10.2178 11.6027C10.2767 11.6888 10.2548 11.8063 10.1691 11.8653C9.08621 12.6075 7.81761 13 6.5 13Z" fill="#E2B3AB"/>
        <path fill-rule="evenodd" clip-rule="evenodd" d="M8.98063 10.4213L9.43683 11.3337C9.4966 11.4529 9.60696 11.521 9.74004 11.521H16.0352C16.1687 11.521 16.2791 11.4529 16.3384 11.3337L16.7947 10.4213H8.98063ZM16.0348 11.8983H9.73964C9.46273 11.8983 9.22288 11.7505 9.09896 11.5023L8.5061 10.3165C8.47701 10.258 8.4802 10.1886 8.51447 10.1329C8.54913 10.0771 8.60969 10.0432 8.67543 10.0432H17.0999C17.1656 10.0432 17.2262 10.0771 17.26 10.1329C17.2947 10.1886 17.2979 10.258 17.2684 10.3165L16.6759 11.5019C16.5516 11.7505 16.3118 11.8983 16.0348 11.8983Z" fill="#8B97A7"/>
        <path fill-rule="evenodd" clip-rule="evenodd" d="M16.0017 10.4212C15.8973 10.4212 15.8128 10.3368 15.8128 10.2324V9.06138C15.8128 7.44853 14.5004 6.1365 12.8876 6.1365C11.2747 6.1365 9.96267 7.44853 9.96267 9.06138V10.2324C9.96267 10.3368 9.87821 10.4212 9.77382 10.4212C9.66983 10.4212 9.58496 10.3368 9.58496 10.2324V9.06138C9.58496 7.24055 11.0663 5.75879 12.8872 5.75879C14.7084 5.75879 16.1901 7.24015 16.1901 9.06138V10.2324C16.1905 10.3368 16.1057 10.4212 16.0017 10.4212Z" fill="#8B97A7"/>
        <path fill-rule="evenodd" clip-rule="evenodd" d="M13.5092 6.19948C13.4048 6.19948 13.3204 6.11501 13.3204 6.01063V5.70543C13.3204 5.46677 13.1259 5.27233 12.8869 5.27233C12.6482 5.27233 12.4534 5.46677 12.4534 5.70583V6.01102C12.4534 6.11541 12.3685 6.19988 12.2645 6.19988C12.1605 6.19988 12.0757 6.11541 12.0757 6.01102V5.70583C12.0757 5.25879 12.4395 4.89502 12.8865 4.89502C13.3335 4.89502 13.6973 5.25879 13.6973 5.70583V6.01102C13.6981 6.11462 13.6136 6.19948 13.5092 6.19948Z" fill="#8B97A7"/>
        <path fill-rule="evenodd" clip-rule="evenodd" d="M8.3119 6.22771C8.29676 6.22771 8.28083 6.22572 8.26529 6.22173C8.16449 6.19583 8.10313 6.09304 8.12942 5.99184L8.25971 5.48384L7.7549 5.34239C7.6541 5.3145 7.59553 5.21012 7.62382 5.10971C7.65171 5.00931 7.75609 4.95074 7.8561 4.97863L8.53941 5.16948C8.63862 5.19697 8.69679 5.29857 8.67129 5.39818L8.49518 6.08507C8.47287 6.17113 8.39597 6.22771 8.3119 6.22771Z" fill="#8B97A7"/>
    </g>
    <defs>
        <clipPath id="clip0_1757_4749">
            <rect width="17.2887" height="13" fill="white"/>
        </clipPath>
    </defs>
</svg>
