<svg width="18" height="17" viewBox="0 0 18 17" fill="none" xmlns="http://www.w3.org/2000/svg">
    <path d="M14.3498 10.2408C14.0012 9.89978 13.5808 9.71742 13.1353 9.71742C12.6933 9.71742 12.2693 9.8964 11.9064 10.2375L10.7709 11.3012C10.6775 11.2539 10.5841 11.21 10.4943 11.1661C10.3649 11.1053 10.2427 11.0479 10.1385 10.9871C9.07496 10.3523 8.10839 9.52494 7.18135 8.45446C6.7322 7.92091 6.43037 7.47178 6.21119 7.01589C6.50583 6.76262 6.77891 6.49923 7.04481 6.24596C7.14541 6.1514 7.24602 6.05347 7.34663 5.95892C8.1012 5.24977 8.1012 4.33125 7.34663 3.6221L6.36569 2.7002C6.2543 2.59552 6.13932 2.48746 6.03153 2.37939C5.81594 2.17003 5.58956 1.9539 5.35601 1.75129C5.00747 1.42711 4.59066 1.25488 4.15229 1.25488C3.71392 1.25488 3.28992 1.42711 2.9306 1.75129C2.92701 1.75467 2.92701 1.75467 2.92342 1.75804L1.70173 2.91632C1.24181 3.34857 0.979503 3.87537 0.922012 4.48659C0.835775 5.47264 1.14479 6.39116 1.38194 6.99225C1.96404 8.46797 2.83359 9.83561 4.13073 11.3012C5.70455 13.0673 7.59816 14.462 9.76126 15.4447C10.5877 15.8127 11.6908 16.2484 12.9233 16.3227C12.9987 16.326 13.0778 16.3294 13.1496 16.3294C13.9797 16.3294 14.6767 16.0491 15.2229 15.4919C15.2265 15.4852 15.2337 15.4818 15.2373 15.4751C15.4241 15.2623 15.6397 15.0698 15.8661 14.8638C16.0206 14.7254 16.1787 14.5802 16.3332 14.4282C16.6889 14.0804 16.8758 13.6752 16.8758 13.2598C16.8758 12.8411 16.6853 12.4392 16.3224 12.1015L14.3498 10.2408ZM15.6361 13.7967C15.6325 13.7967 15.6325 13.8001 15.6361 13.7967C15.496 13.9386 15.3523 14.0669 15.1978 14.2087C14.9642 14.4181 14.727 14.6376 14.5043 14.8841C14.1414 15.2488 13.7138 15.421 13.1532 15.421C13.0993 15.421 13.0418 15.421 12.9879 15.4176C11.9208 15.3535 10.929 14.9618 10.1853 14.6275C8.15151 13.7022 6.36569 12.3886 4.88171 10.7237C3.65643 9.33583 2.83718 8.05261 2.29461 6.67483C1.96044 5.83397 1.83828 5.17885 1.89217 4.56088C1.9281 4.16578 2.0898 3.83822 2.38803 3.55794L3.61331 2.40641C3.78938 2.25107 3.97622 2.16665 4.15948 2.16665C4.38585 2.16665 4.5691 2.29497 4.68408 2.40303C4.68767 2.40641 4.69127 2.40979 4.69486 2.41316C4.91404 2.60565 5.12245 2.80489 5.34163 3.01763C5.45302 3.12569 5.56801 3.23375 5.68299 3.34519L6.66393 4.26709C7.04481 4.62504 7.04481 4.95598 6.66393 5.31393C6.55973 5.41186 6.45912 5.50979 6.35491 5.60434C6.05309 5.89476 5.76563 6.16491 5.45302 6.42831C5.44584 6.43506 5.43865 6.43844 5.43506 6.4452C5.12604 6.73561 5.18353 7.01927 5.24821 7.21175C5.2518 7.22188 5.2554 7.23202 5.25899 7.24215C5.51411 7.82298 5.87343 8.37003 6.41959 9.02178L6.42318 9.02516C7.4149 10.1733 8.46052 11.0682 9.61394 11.7537C9.76126 11.8415 9.91217 11.9124 10.0559 11.98C10.1853 12.0407 10.3074 12.0981 10.4116 12.1589C10.426 12.1657 10.4404 12.1758 10.4547 12.1826C10.5769 12.24 10.6919 12.267 10.8105 12.267C11.1087 12.267 11.2955 12.0914 11.3566 12.034L12.5855 10.8791C12.7077 10.7643 12.9017 10.6258 13.1281 10.6258C13.3509 10.6258 13.5341 10.7575 13.6455 10.8723C13.6491 10.8757 13.6491 10.8757 13.6527 10.8791L15.6325 12.7398C16.0026 13.0842 16.0026 13.4388 15.6361 13.7967Z" fill="white"/>
    <path d="M10.0956 4.13581C11.037 4.28439 11.8922 4.70313 12.5749 5.34474C13.2576 5.98635 13.6995 6.79006 13.8612 7.67481C13.9008 7.89769 14.1056 8.05302 14.3391 8.05302C14.3679 8.05302 14.393 8.04965 14.4218 8.04627C14.6877 8.00575 14.8637 7.76936 14.8206 7.51947C14.6266 6.44899 14.0876 5.47306 13.2648 4.69975C12.4419 3.92644 11.4035 3.4199 10.2645 3.23755C9.99856 3.19703 9.75063 3.36249 9.70391 3.60901C9.6572 3.85552 9.82968 4.09528 10.0956 4.13581Z" fill="white"/>
    <path d="M17.9 7.38753C17.5802 5.62478 16.6963 4.02075 15.3381 2.74428C13.9798 1.46781 12.2731 0.637085 10.3974 0.33654C10.1351 0.29264 9.88719 0.461486 9.84047 0.708C9.79736 0.957892 9.97342 1.1909 10.2393 1.2348C11.9137 1.50157 13.4409 2.24787 14.6553 3.38589C15.8698 4.52729 16.6603 5.96247 16.9442 7.53611C16.9837 7.75899 17.1885 7.91433 17.4221 7.91433C17.4508 7.91433 17.476 7.91095 17.5047 7.90757C17.7671 7.87043 17.9467 7.63404 17.9 7.38753Z" fill="white"/>
</svg>
