<svg width="16" height="21" viewBox="0 0 16 21" fill="none" xmlns="http://www.w3.org/2000/svg">
    <path
        d="M13.8891 6.56011C13.4782 6.05313 12.6812 6.16979 12.4293 6.77283C12.3352 6.99807 12.2054 7.2007 12.044 7.37548C11.9415 7.48608 11.7573 7.42997 11.7392 7.27941C11.583 5.97039 11.1533 4.88417 10.4621 4.05105C9.82129 3.27888 9.20333 3.08432 8.78802 2.28671C8.57296 1.87419 8.45561 1.40071 8.43839 0.880411C8.41116 0.0606068 7.40753 -0.307518 6.86887 0.306831C6.34383 0.905841 5.88486 1.54683 5.5052 2.21244C5.41108 2.37753 5.46755 2.58783 5.63095 2.68269C5.79475 2.77755 6.00341 2.72063 6.09752 2.55595C6.45436 1.9307 6.88609 1.32725 7.3811 0.76295C7.51005 0.616023 7.74875 0.703211 7.75515 0.903016C7.77558 1.52826 7.91976 2.10144 8.18288 2.6068C8.67628 3.55457 9.35311 3.78747 9.93783 4.49264C10.5426 5.22162 10.9202 6.18714 11.0608 7.36135C11.1477 8.09114 12.044 8.38499 12.5438 7.84492C12.7605 7.6108 12.9335 7.33996 13.0593 7.03964C13.1113 6.91492 13.2747 6.8907 13.3596 6.99524C16.1322 10.4161 15.9015 15.557 12.8554 18.221C10.1781 20.5626 5.82199 20.5626 3.14471 18.221C0.0977747 15.5562 -0.132507 10.4145 2.64249 6.99363C2.72579 6.8907 2.88959 6.90886 2.94046 7.03197C3.03457 7.25882 3.15512 7.46953 3.2989 7.65843C3.7943 8.30951 4.82637 7.96843 4.83518 7.15105C4.84479 6.2376 4.98736 5.33626 5.2609 4.46519C5.31777 4.28395 5.21805 4.0902 5.03823 4.03289C4.85841 3.97557 4.66617 4.07608 4.6093 4.25731C4.31814 5.18408 4.16235 6.15243 4.15194 7.14378C4.15074 7.24752 4.08065 7.28627 4.0386 7.3004C4.00256 7.31251 3.91125 7.33067 3.84156 7.23904C3.73383 7.09736 3.64292 6.93873 3.57163 6.76638C3.32212 6.16454 2.52435 6.05152 2.11384 6.55769C-1.0252 10.4278 -0.530995 15.9178 2.69736 18.7417C5.63175 21.3081 10.3688 21.3089 13.304 18.7417C16.5303 15.9194 17.0273 10.4315 13.8891 6.56011Z"
        fill="#F44336" />
    <path
        d="M5.19598 13.1804C5.27007 13.0056 5.18957 12.803 5.01616 12.7283C4.84275 12.6536 4.6417 12.7348 4.56761 12.9095C4.38458 13.341 4.01693 13.6393 3.51472 13.7168V10.9781C3.51472 10.788 3.36173 10.6338 3.1731 10.6338C2.98447 10.6338 2.83148 10.788 2.83148 10.9781V15.4557C2.83148 15.6459 2.98447 15.8001 3.1731 15.8001C3.36173 15.8001 3.51472 15.6459 3.51472 15.4557V14.4107C3.63166 14.3978 3.76262 14.3748 3.90119 14.3344C4.2352 14.6541 4.46588 15.0497 4.54478 15.5139C4.57682 15.7012 4.75344 15.8275 4.93926 15.7952C5.12549 15.7629 5.25004 15.5849 5.21841 15.3976C5.1295 14.8749 4.89441 14.4099 4.54478 14.0155C4.83594 13.7992 5.0538 13.5162 5.19598 13.1804Z"
        fill="#F44336" />
    <path d="M7.51522 13.5986C7.62776 13.7511 7.84202 13.783 7.99341 13.6696C8.14479 13.5562 8.17643 13.3402 8.0639 13.1876C7.83922 12.8825 7.47998 12.7004 7.10352 12.7004C6.44391 12.7004 5.90765 13.2413 5.90765 13.9057V14.5947C5.90765 15.2596 6.44431 15.8 7.10352 15.8C7.48278 15.8 7.84323 15.616 8.0679 15.3076C8.17964 15.1542 8.1468 14.9387 7.99461 14.826C7.84242 14.7134 7.62856 14.7465 7.51683 14.8999C7.22367 15.3019 6.59049 15.0916 6.59049 14.5947V13.9057C6.59049 13.4096 7.22086 13.1997 7.51522 13.5986Z" fill="#F44336" />
    <path d="M9.77282 13.8629C9.24297 13.8629 8.81165 14.2977 8.81165 14.8317C8.81165 15.3657 9.24297 15.8004 9.77282 15.8004H10.2426C10.7724 15.8004 11.2038 15.3657 11.2038 14.8317V13.6692C11.2038 13.1352 10.7724 12.7004 10.2426 12.7004H9.49488C9.30625 12.7004 9.15326 12.8546 9.15326 13.0447C9.15326 13.2349 9.30625 13.3891 9.49488 13.3891H10.2426C10.3956 13.3891 10.5201 13.5146 10.5201 13.6688V13.8625H9.77282V13.8629ZM10.5205 14.8317C10.5205 14.9859 10.396 15.1114 10.243 15.1114H9.77322C9.62024 15.1114 9.49568 14.9859 9.49568 14.8317C9.49568 14.6775 9.62024 14.552 9.77322 14.552H10.5209V14.8317H10.5205Z" fill="#F44336" />
    <path d="M12.229 10.634C12.0404 10.634 11.8874 10.7882 11.8874 10.9783V14.4227C11.8874 15.1823 12.5005 15.8003 13.2543 15.8003C13.4429 15.8003 13.5959 15.6461 13.5959 15.456C13.5959 15.2659 13.4429 15.1117 13.2543 15.1117C12.8774 15.1117 12.5706 14.8025 12.5706 14.4227V10.9783C12.5706 10.7882 12.4176 10.634 12.229 10.634Z" fill="#F44336" />
</svg>
