<svg width="15" height="18" viewBox="0 0 15 18" fill="none" xmlns="http://www.w3.org/2000/svg">
    <g clip-path="url(#clip0_303_11131)">
        <path d="M4.3703 3.78316C3.75412 4.6922 2.7794 5.53163 1.95326 6.33823C-1.52139 9.52473 -0.0571696 14.812 3.95665 16.7145C7.22681 18.3785 11.6609 17.3522 13.7875 14.3811C13.8887 14.2411 13.8575 14.0456 13.7175 13.9444C13.5775 13.8431 13.382 13.8744 13.2808 14.0144C13.2804 14.0151 13.2796 14.0159 13.2792 14.0163C11.5792 16.3864 7.64047 17.878 4.23307 16.1526C0.815892 14.4222 -0.963464 10.0639 2.38803 6.78825C3.25014 5.94764 4.22955 5.10585 4.88874 4.13426C4.98532 3.99077 4.94739 3.79646 4.8039 3.69988C4.6608 3.6037 4.46727 3.64124 4.3703 3.78316Z" fill="#F44336" />
        <path
            d="M9.45072 4.43686C9.66889 2.15979 7.68505 0.568103 5.74461 0.0516164C5.4932 -0.0476929 5.2074 -0.00194805 4.99979 0.170866C4.83909 0.360492 4.79648 0.623231 4.88914 0.853519C5.05218 1.36961 5.08072 1.91894 4.97164 2.44911C4.93606 2.61802 5.04358 2.78418 5.21248 2.82016C5.91077 2.93002 5.6363 1.12291 5.49125 0.684224C5.45919 0.607592 5.52409 0.647472 5.58821 0.657247C7.43404 1.12603 9.26735 2.74548 8.76259 4.81494C8.62536 5.6274 8.41735 6.85547 9.29393 7.28868C10.2941 7.8079 11.4185 6.62049 11.6758 5.7877C11.7208 5.62115 11.7223 5.65907 11.8556 5.75173C14.0569 7.3094 14.9323 10.155 13.9865 12.6803C13.9278 12.843 14.0123 13.022 14.1749 13.0807C14.3329 13.1374 14.5073 13.06 14.5706 12.9043C15.6282 10.1487 14.6871 7.07208 12.229 5.24971C11.7403 4.83645 11.2336 4.97446 11.0792 5.60042C10.9411 6.03989 10.228 7.02751 9.57153 6.72801C8.99444 6.41679 9.38777 5.09567 9.45072 4.43686Z"
            fill="#F44336" />
        <path d="M5.71117 10.4865H6.44074C6.46967 10.4865 6.49274 10.51 6.49313 10.5389C6.49313 10.7117 6.6331 10.8517 6.80591 10.8517C6.97873 10.8517 7.1187 10.7117 7.1187 10.5389C7.11831 10.1648 6.81491 9.86135 6.44074 9.86096H5.71117C5.337 9.86135 5.03359 10.1648 5.0332 10.5389V11.9985C5.03359 12.3726 5.337 12.6756 5.71117 12.676H6.44074C6.81491 12.6756 7.11831 12.3726 7.1187 11.9985C7.1187 11.8256 6.97873 11.6857 6.80591 11.6857C6.6331 11.6857 6.49313 11.8256 6.49313 11.9985C6.49313 12.0274 6.46967 12.0505 6.44074 12.0505H5.71117C5.68223 12.0505 5.65916 12.027 5.65877 11.9985V10.5389C5.65916 10.51 5.68262 10.4865 5.71117 10.4865Z" fill="#F44336" />
        <path d="M9.63428 12.676C9.8071 12.676 9.94707 12.5361 9.94707 12.3632V10.5389C9.94668 10.1648 9.64327 9.86135 9.26911 9.86096H8.53953C8.16536 9.86135 7.86196 10.1648 7.86157 10.5389V12.3632C7.86509 12.5361 8.0078 12.6733 8.18061 12.6698C8.34873 12.6666 8.48401 12.531 8.48714 12.3632V11.5813H9.3215V12.3632C9.3215 12.5357 9.46147 12.676 9.63428 12.676ZM8.48714 10.9557V10.5389C8.48714 10.51 8.5106 10.4869 8.53953 10.4865H9.26911C9.29804 10.4865 9.32111 10.51 9.3215 10.5389V10.9557H8.48714Z" fill="#F44336" />
        <path d="M4.22797 9.98605C4.12436 9.84803 3.92887 9.81988 3.79085 9.9231L3.79046 9.92349L2.83138 10.6429V10.1737C2.83138 10.0009 2.69141 9.86093 2.5186 9.86093C2.34578 9.86093 2.20581 10.0009 2.20581 10.1737V12.3632C2.20581 12.536 2.34578 12.676 2.5186 12.676C2.69141 12.676 2.83138 12.536 2.83138 12.3632V11.894L3.79046 12.6134C3.93082 12.7143 4.12592 12.6823 4.22679 12.5423C4.32493 12.4058 4.29756 12.2166 4.16541 12.113L3.03977 11.2685L4.16541 10.4239C4.30343 10.3207 4.33197 10.1248 4.22836 9.98683C4.22797 9.98644 4.22797 9.98605 4.22797 9.98605Z" fill="#F44336" />
        <path d="M11.0027 9.86096C10.8299 9.86096 10.6899 10.0009 10.6899 10.1737V12.3632C10.6899 12.5361 10.8299 12.676 11.0027 12.676H12.4623C12.6351 12.676 12.775 12.5361 12.775 12.3632C12.775 12.1904 12.6351 12.0505 12.4623 12.0505H11.3155V10.1737C11.3155 10.0009 11.1755 9.86096 11.0027 9.86096Z" fill="#F44336" />
    </g>
    <defs>
        <clipPath id="clip0_303_11131">
            <rect width="15" height="17.5101" fill="white" />
        </clipPath>
    </defs>
</svg>
