<svg width="43" height="39" viewBox="0 0 43 39" fill="none" xmlns="http://www.w3.org/2000/svg">
    <g clip-path="url(#clip0_10_625)">
        <path d="M4.94949 38.9999H38.061C40.7967 38.9999 43.0104 36.7581 43.0104 33.9875V9.02028C43.0104 6.24968 40.7967 4.00781 38.061 4.00781H4.94949C2.2137 4.00781 0 6.24968 0 9.02028V33.9981C0 36.7581 2.2137 38.9999 4.94949 38.9999Z" fill="#9E9E9E" />
        <path d="M21.5 28.7318C26.1712 28.7318 29.958 24.8969 29.958 20.1662C29.958 15.4355 26.1712 11.6006 21.5 11.6006C16.8288 11.6006 13.042 15.4355 13.042 20.1662C13.042 24.8969 16.8288 28.7318 21.5 28.7318Z" stroke="white" stroke-width="3" stroke-miterlimit="10" />
        <path d="M16.8848 0H27.1701L29.9581 4.81155H14.1177L16.8848 0Z" fill="#9E9E9E" />
    </g>
    <defs>
        <clipPath id="clip0_10_625">
            <rect width="43" height="39" fill="black" />
        </clipPath>
    </defs>
</svg>
