<svg width="14" height="12" viewBox="0 0 14 12" fill="none" xmlns="http://www.w3.org/2000/svg">
    <g clip-path="url(#clip0_245_11043)">
        <path d="M1.61146 12H12.3919C13.2827 12 14.0034 11.3102 14.0034 10.4577V2.77545C14.0034 1.92296 13.2827 1.23315 12.3919 1.23315H1.61146C0.720738 1.23315 0 1.92296 0 2.77545V10.4609C0 11.3102 0.720738 12 1.61146 12Z" fill="#485B78" />
        <path d="M6.99986 8.84049C8.52072 8.84049 9.75362 7.6605 9.75362 6.20491C9.75362 4.74932 8.52072 3.56934 6.99986 3.56934C5.479 3.56934 4.24609 4.74932 4.24609 6.20491C4.24609 7.6605 5.479 8.84049 6.99986 8.84049Z" stroke="white" stroke-miterlimit="10" />
        <path d="M5.49711 0H8.84583L9.75355 1.48048H4.59619L5.49711 0Z" fill="#485B78" />
    </g>
    <defs>
        <clipPath id="clip0_245_11043">
            <rect width="14" height="12" fill="white" />
        </clipPath>
    </defs>
</svg>
