<svg width="17" height="9" viewBox="0 0 17 9" fill="none" xmlns="http://www.w3.org/2000/svg">
    <path d="M15.3087 2.66504H0.791992V4.35198H15.3087V2.66504Z" fill="#F0F0F0"/>
    <path d="M15.0776 6.03955H0.558594V7.7287H15.0776V6.03955Z" fill="#F0F0F0"/>
    <g opacity="0.7">
        <path d="M14.5171 4.35226V6.0392H15.0777V7.72835H9.95996L11.5039 6.0392L13.0478 4.35226L13.8186 3.50879L15.3082 3.60594V4.35226H14.5171Z" fill="#E6E6E6"/>
    </g>
    <path d="M14.5167 4.35205H0V6.03899H14.5167V4.35205Z" fill="#E6E6E6"/>
    <path d="M14.9828 0.973633H0.463867V2.66057H14.9828V0.973633Z" fill="#E6E6E6"/>
    <path d="M8.30513 0.974121C8.30513 1.28545 8.04517 1.54159 7.72419 1.54159C7.4032 1.54159 7.14551 1.28766 7.14551 0.974121H8.30513Z" fill="#787878"/>
    <path d="M7.84028 4.35254C7.84028 4.66387 7.58033 4.9178 7.2616 4.9178C6.94062 4.9178 6.68066 4.66387 6.68066 4.35254H7.84028Z" fill="#787878"/>
    <path d="M13.3783 4.35203C13.3783 4.35203 12.9624 4.77376 12.8697 4.91949C12.7883 5.04756 11.6897 6.57552 10.7426 7.55589C10.7403 7.5581 10.7358 7.5603 10.7336 7.56472C10.5889 7.71266 10.451 7.84956 10.3176 7.96438C9.91754 8.25363 9.21453 8.14323 9.03595 8.12777C8.56126 8.27571 8.27192 8.13881 7.94189 7.84956L7.9012 7.87385V7.87605L7.58248 8.06815C7.52144 8.11231 7.44911 8.13881 7.36773 8.13881C7.17107 8.13881 7.01058 7.98425 7.01058 7.78994C7.01058 7.67733 7.06709 7.57797 7.15299 7.51394L7.14847 7.51173C7.08291 7.57135 6.99701 7.60667 6.90208 7.60667C6.70541 7.60667 6.54492 7.45211 6.54492 7.26001C6.54492 7.21585 6.55396 7.17169 6.57205 7.13195C6.59465 7.07675 7.74523 5.57528 7.92607 5.32136C8.14533 5.00781 9.33434 3.74702 9.29817 3.62337C9.26426 3.49752 8.82347 3.3827 8.53639 3.39815C8.24705 3.41582 7.25923 3.50635 7.25923 3.50635C7.06257 3.50635 6.90208 3.34958 6.90208 3.15969C6.90208 3.08903 6.92242 3.0272 6.95859 2.972C7.00154 2.90576 7.06709 2.85719 7.14395 2.83069V2.82848C7.14395 2.82848 7.34287 2.77328 7.61186 2.70041C8.11594 2.56352 8.86416 2.36921 8.98622 2.36921C9.17158 2.36921 10.8172 2.45311 11.1382 2.36921C11.4592 2.28751 12.0627 2.00488 12.0627 2.00488L13.3783 4.35203Z" fill="#F5C8AA"/>
    <g opacity="0.3">
        <path d="M10.7328 7.56265C10.5881 7.71059 10.4502 7.84749 10.3168 7.96231C9.91672 8.25156 9.21372 8.14116 9.03514 8.1257C8.56045 8.27364 8.27111 8.13674 7.94108 7.84749L7.90039 7.87178L8.34796 7.48096C8.19877 7.6841 8.61922 8.29572 9.29962 7.84749C9.57765 7.93802 10.2648 7.97997 10.7328 7.56265Z" fill="#F5C8AA"/>
    </g>
    <path d="M7.94434 7.84808C7.94434 7.84808 8.05736 7.7156 8.23594 7.53013C8.41677 7.34465 8.66542 7.10398 8.92086 6.87434C9.17855 6.6447 9.44528 6.4239 9.65099 6.26492C9.85669 6.10815 10.0014 6.00879 10.0014 6.00879C10.0014 6.00879 9.88834 6.14127 9.70976 6.32675C9.52892 6.51222 9.28027 6.7529 9.02258 6.98253C8.76488 7.21217 8.49815 7.43297 8.29245 7.58974C8.08901 7.74872 7.94434 7.84808 7.94434 7.84808Z" fill="#EBB496"/>
    <path d="M7.14844 7.51166C7.14844 7.51166 7.2479 7.3593 7.41517 7.14733C7.58245 6.93536 7.81753 6.66156 8.06393 6.40101C8.31258 6.14046 8.57253 5.88875 8.77597 5.7099C8.97941 5.53105 9.1286 5.42285 9.1286 5.42285C9.1286 5.42285 9.02914 5.57521 8.86187 5.78718C8.6946 5.99915 8.45951 6.27295 8.21312 6.53349C7.96447 6.79404 7.70451 7.04355 7.50107 7.2224C7.29763 7.40346 7.14844 7.51166 7.14844 7.51166Z" fill="#EBB496"/>
    <path d="M10.5297 6.55566C10.5297 6.55566 10.4551 6.66827 10.3285 6.82946C10.2019 6.98844 10.0256 7.19379 9.84024 7.3903C9.65262 7.58682 9.45822 7.7745 9.30451 7.90919C9.1508 8.04388 9.04004 8.12558 9.04004 8.12558C9.04004 8.12558 9.11689 8.01076 9.24122 7.85178C9.36555 7.6906 9.54412 7.48746 9.72948 7.29094C9.9171 7.09443 10.1115 6.90674 10.2652 6.77205C10.4189 6.63736 10.5297 6.55566 10.5297 6.55566Z" fill="#EBB496"/>
    <g opacity="0.4">
        <path d="M6.78008 7.40867C6.94057 7.53673 7.05133 7.49478 7.20504 7.2806C7.3565 7.06642 7.34971 6.95381 7.23217 6.85887C7.11463 6.76613 6.90666 6.87432 6.81624 6.98252C6.66931 7.16137 6.61958 7.28281 6.78008 7.40867Z" fill="#F5C8AA"/>
    </g>
    <g opacity="0.4">
        <path d="M7.2366 7.90706C7.38579 8.06383 7.51012 8.03733 7.70452 7.83419C7.89892 7.63105 7.91022 7.51182 7.79945 7.39479C7.69095 7.27776 7.4536 7.36167 7.34058 7.46324C7.15974 7.62884 7.08741 7.75028 7.2366 7.90706Z" fill="#F5C8AA"/>
    </g>
    <g opacity="0.4">
        <path d="M7.43563 3.16925C7.17116 3.27524 7.04684 3.24874 6.97676 3.0434C6.96772 3.01911 6.96546 2.99703 6.96094 2.97715C7.00389 2.91091 7.06944 2.86234 7.1463 2.83584V2.83363C7.1463 2.83363 7.34522 2.77843 7.61421 2.70557C7.65942 2.72765 7.69333 2.76077 7.70915 2.80934C7.75888 2.95728 7.69785 3.06327 7.43563 3.16925Z" fill="#F5C8AA"/>
    </g>
    <path d="M14.5488 0.000195374L11.7061 1.57617L13.5292 4.71399L16.3719 3.13802L14.5488 0.000195374Z" fill="#C80000"/>
    <path d="M14.5507 0.000194796L11.708 1.57617L12.643 3.18541L15.4857 1.60943L14.5507 0.000194796Z" fill="#DC1400"/>
</svg>
