<svg width="11" height="10" viewBox="0 0 11 10" fill="none" xmlns="http://www.w3.org/2000/svg">
    <g clip-path="url(#clip0_1722_13913)">
        <path d="M3.40576 4.84766H0.175781V5.2736H3.40576V4.84766Z" fill="#F0F0F0"/>
        <path d="M5.26354 3.06601L5.29725 2.20056L4.76096 1.84084L4.80233 1.76709L4.70886 1.78365C4.70886 1.78365 4.10056 2.33 4.00709 2.64307C3.59645 4.01724 3.35742 5.0949 3.35742 5.0949L4.74257 5.16865L5.26354 3.06601Z" fill="#EA5B44"/>
        <path d="M5.61872 2.03468C5.5988 2.03468 5.58042 2.03317 5.56509 2.03167C5.38122 2.01962 5.35211 1.9835 5.31381 2.1295C5.30614 2.15809 5.30155 2.19271 5.28929 2.23335C5.24792 2.37634 4.82502 1.97146 4.76066 1.83901L4.93994 1.51692C4.93994 1.51692 4.52776 1.31071 4.70397 0.707162C4.88018 0.10361 5.55437 0.281214 5.55437 0.281214C5.55437 0.281214 5.96808 0.391088 6.13356 0.853158C6.21783 1.08645 5.96195 2.04521 5.61872 2.03468Z" fill="#F0CDAF"/>
        <path d="M5.31369 2.13101C5.04554 1.89019 5.20336 1.50488 5.20336 1.50488C5.16506 1.75473 5.39183 1.98201 5.56651 2.03318C5.3811 2.01963 5.35199 1.98351 5.31369 2.13101Z" fill="#DCB99B"/>
        <path d="M6.21351 0.866587C6.10012 0.872607 5.95456 0.824444 5.87795 0.747683C5.81972 0.759724 5.76609 0.792836 5.71859 0.83799C5.5669 0.974955 5.46118 1.22029 5.45658 1.29254L5.3861 1.28802C5.3861 1.28802 5.35086 1.13751 5.22981 1.10289C5.10876 1.06827 5.04594 1.14804 5.03828 1.23835C5.03368 1.28501 5.06586 1.39037 5.06586 1.39037L4.99078 1.63269L4.87433 1.59958C4.87433 1.59958 4.44836 1.20072 4.57247 0.777785C4.60465 0.666406 4.65981 0.535461 4.75021 0.425588C4.90957 0.228417 5.17771 0.0929565 5.62972 0.220892C5.96682 0.315714 6.10779 0.464721 6.20585 0.607707C6.22424 0.691993 6.2273 0.77929 6.21351 0.866587Z" fill="#C89632"/>
        <path d="M6.2074 0.945065C6.20281 0.966136 6.19668 0.987208 6.18902 1.00677L5.72628 0.836696L5.18539 0.638021L4.73951 0.473963L4.72266 0.467942C4.86362 0.141332 5.22064 -0.0528281 5.58531 0.0133971C5.59757 0.0149022 5.60829 0.0179124 5.62208 0.0209227C5.91781 0.0886529 6.13539 0.31141 6.20281 0.582331C6.22579 0.665113 6.23345 0.75241 6.22426 0.839706C6.22119 0.872819 6.2166 0.908942 6.2074 0.945065Z" fill="#EA5B44"/>
        <path d="M6.20756 0.944851C6.20296 0.965923 6.19683 0.986994 6.18917 1.00656L5.72643 0.836483L5.18555 0.637807C5.19168 0.618241 5.19627 0.597169 5.2024 0.576097C5.26982 0.344309 5.40772 0.153159 5.58546 0.0131836C5.59772 0.0146887 5.60845 0.0176989 5.62224 0.0207092C5.91796 0.0884395 6.13554 0.311197 6.20296 0.582118C6.22594 0.664899 6.2336 0.752196 6.22441 0.839493C6.22135 0.872606 6.21675 0.908728 6.20756 0.944851Z" fill="#E2B3AB"/>
        <path d="M0.824219 6.45816C0.824219 6.559 0.908492 6.64028 1.00962 6.64028H5.53435C5.63701 6.64028 5.72128 6.559 5.72128 6.45816V6.30614C5.72128 6.2053 5.63701 6.12402 5.53435 6.12402H1.01115C0.908492 6.12402 0.825751 6.20681 0.825751 6.30614V6.45816H0.824219Z" fill="#485B78"/>
        <path d="M6.5844 0.967537L6.22432 0.74478L5.67118 0.702637C5.62215 0.913353 6.14771 1.08795 6.38367 1.0744C6.67633 1.05784 6.5844 0.967537 6.5844 0.967537Z" fill="#DA1400"/>
        <path d="M4.66769 5.16242L6.23518 5.31293C6.59985 5.35507 6.74082 5.43484 6.84348 5.58836C6.93542 5.72383 6.963 5.86832 6.963 6.08054C6.963 6.56218 6.78372 8.56248 6.78372 8.56248L6.07123 8.55194L6.17695 6.20546C6.17695 6.20546 4.29689 6.14375 3.85407 6.14375C3.3377 6.14375 3.35456 5.5989 3.35456 5.09619L4.66769 5.16242Z" fill="#1E5A78"/>
        <path d="M6.07031 8.5127L6.07644 8.7791H7.23788L6.78281 8.52323L6.07031 8.5127Z" fill="#323232"/>
        <path d="M1.73788 8.39528L2.18223 8.14844L2.83497 8.83929L2.9361 9.38263L1.6582 9.29383L1.73788 8.39528Z" fill="#323232"/>
        <path d="M1.73925 9.99976C1.28571 9.99976 0.917969 9.63702 0.917969 9.19151C0.917969 8.74599 1.28724 8.38477 1.73925 8.38477C2.1928 8.38477 2.56207 8.74599 2.56207 9.19151C2.56054 9.63702 2.19127 9.99976 1.73925 9.99976Z" fill="#485B78"/>
        <g opacity="0.1">
            <path d="M2.38168 9.19168C2.38168 9.53936 2.09362 9.82232 1.73967 9.82232C1.38572 9.82232 1.09766 9.53936 1.09766 9.19168C1.09766 8.844 1.38572 8.56104 1.73967 8.56104C2.09362 8.56104 2.38168 8.844 2.38168 9.19168Z" fill="white"/>
        </g>
        <path d="M2.38764 9.08327C2.38458 9.06069 2.37845 9.03811 2.37232 9.01704C2.36772 8.99898 2.36159 8.98092 2.35546 8.96436C2.3478 8.94329 2.33708 8.92222 2.32635 8.90115C2.23288 8.71752 2.05055 8.58357 1.83603 8.55196C1.81305 8.54895 1.79006 8.54594 1.76708 8.54594C1.75789 8.54443 1.74716 8.54443 1.73797 8.54443C1.72877 8.54443 1.71958 8.54443 1.71039 8.54594C1.6874 8.54594 1.66442 8.54895 1.64144 8.55196C1.42692 8.58206 1.24458 8.71752 1.15112 8.90115C1.14039 8.92071 1.1312 8.94178 1.122 8.96436C1.11434 8.98092 1.10975 8.99898 1.10515 9.01704C1.09902 9.03811 1.09289 9.06069 1.08983 9.08327C1.0837 9.11788 1.0791 9.15551 1.0791 9.19163C1.0791 9.37225 1.15418 9.5348 1.27676 9.6522L1.32886 9.69735C1.34418 9.70939 1.35797 9.71993 1.37483 9.72896C1.39474 9.74251 1.41466 9.75304 1.43458 9.76358C1.52499 9.81024 1.62918 9.83733 1.73797 9.83733C1.84982 9.83733 1.95095 9.81024 2.04288 9.76358L2.10417 9.72746C2.11796 9.71842 2.13329 9.70789 2.14861 9.69585L2.15014 9.69434L2.19917 9.6522L2.20071 9.65069C2.32175 9.5333 2.39683 9.37074 2.39683 9.19163C2.39683 9.15401 2.39377 9.11939 2.38764 9.08327ZM2.30337 8.98393C2.3095 8.99898 2.31562 9.01554 2.31869 9.03059C2.31869 9.03209 2.31869 9.03209 2.31869 9.0336L1.94176 9.15401L1.87281 9.17658C1.87281 9.17508 1.87281 9.17508 1.87281 9.17357C1.86974 9.15702 1.86514 9.14046 1.85595 9.12691C1.85595 9.12541 1.85442 9.12541 1.85442 9.1239L1.9249 9.10283L2.30183 8.98242C2.30337 8.98242 2.30337 8.98242 2.30337 8.98393ZM1.83603 8.60765C2.02297 8.63775 2.18538 8.75364 2.27272 8.91921L1.99385 9.00801L1.88047 9.04413L1.8345 9.05768V8.60765H1.83603ZM1.71039 8.60012C1.72111 8.59862 1.72877 8.59862 1.7349 8.59862H1.74256C1.74869 8.59862 1.75482 8.59862 1.76095 8.59862C1.76248 8.59862 1.76555 8.59862 1.76708 8.59862V9.06219H1.76555C1.75789 9.06069 1.74869 9.06069 1.7395 9.06069C1.73031 9.06069 1.71958 9.06069 1.71192 9.0637H1.71039V8.60012ZM1.73797 9.13293C1.77168 9.13293 1.79773 9.15852 1.79773 9.19013C1.79773 9.22174 1.77168 9.24883 1.73797 9.24883C1.70579 9.24883 1.67821 9.22174 1.67821 9.19013C1.67974 9.15852 1.70579 9.13293 1.73797 9.13293ZM1.64144 8.60765V9.05768L1.59547 9.04413L1.48361 9.00801L1.20321 8.9177C1.29208 8.75214 1.4545 8.63625 1.64144 8.60765ZM1.15725 9.03209C1.16184 9.01704 1.16644 9.00048 1.1741 8.98543C1.1741 8.98393 1.17563 8.98242 1.17563 8.98092L1.5541 9.10133L1.62611 9.1239C1.62611 9.1239 1.62611 9.1239 1.62611 9.12541C1.61692 9.14046 1.61079 9.15702 1.60926 9.17508C1.60926 9.17508 1.60926 9.17508 1.60926 9.17658L1.53878 9.15401L1.15878 9.0336C1.15725 9.03209 1.15725 9.03209 1.15725 9.03209ZM1.31047 9.60705C1.19708 9.49567 1.13579 9.34817 1.13579 9.19163C1.13579 9.16003 1.13733 9.12842 1.14346 9.09982L1.42539 9.19013L1.53724 9.22475L1.58168 9.2398L1.5541 9.27743L1.48515 9.37074L1.31047 9.60705ZM1.407 9.68682C1.40547 9.68531 1.40547 9.68531 1.407 9.68682C1.39015 9.67478 1.37636 9.66575 1.36257 9.65521C1.36257 9.65521 1.36257 9.65521 1.36103 9.6537L1.59547 9.33462L1.63837 9.27743C1.63837 9.27893 1.6399 9.28044 1.6399 9.28044C1.65063 9.29248 1.66442 9.30301 1.67821 9.30903C1.67821 9.31054 1.67974 9.31054 1.68127 9.31054L1.63837 9.36924L1.407 9.68682ZM1.73797 9.78465C1.64297 9.78465 1.55103 9.76358 1.46676 9.71993L1.64144 9.48363L1.71039 9.3888L1.7395 9.35118L1.76708 9.3888L1.83603 9.48212L2.01071 9.71842C1.92797 9.76207 1.83603 9.78465 1.73797 9.78465ZM2.11337 9.65521C2.10111 9.66424 2.08885 9.67478 2.07353 9.6823L2.072 9.68381L1.83603 9.36623L1.79466 9.30903C1.79619 9.30753 1.79773 9.30753 1.79926 9.30602C1.81305 9.3 1.82684 9.29097 1.83756 9.27893C1.8391 9.27743 1.84063 9.27743 1.84063 9.27592L1.882 9.33311L2.11643 9.65069L2.11337 9.65521ZM2.16853 9.60705L1.99539 9.37074L1.9249 9.27743L1.89732 9.2398L1.94176 9.22475L2.05361 9.19013L2.33401 9.09982C2.33861 9.13143 2.34167 9.16153 2.34167 9.19163C2.34167 9.34817 2.28038 9.49567 2.16853 9.60705Z" fill="#B4B4B4"/>
        <path d="M10.8314 8.51111C10.8314 8.99275 10.4346 9.38257 9.94423 9.38257C9.60101 9.38257 9.30375 9.19142 9.15666 8.90997C9.09384 8.79106 9.05859 8.6556 9.05859 8.51111C9.05859 8.02947 9.33133 7.63965 9.82012 7.63965C10.2568 7.63965 10.7441 7.9497 10.8161 8.35909C10.8268 8.40876 10.8314 8.45843 10.8314 8.51111Z" fill="#E2B3AB"/>
        <path d="M10.831 8.51113C10.831 8.99277 10.4341 9.38259 9.94383 9.38259C9.6006 9.38259 9.30335 9.19144 9.15625 8.90999C9.28189 8.47049 9.69254 8.1499 10.1783 8.1499C10.4173 8.1499 10.6395 8.22817 10.8172 8.35911C10.8264 8.40878 10.831 8.45845 10.831 8.51113Z" fill="#323232"/>
        <path d="M10.1768 9.99976C9.72321 9.99976 9.35547 9.63702 9.35547 9.19151C9.35547 8.74599 9.72474 8.38477 10.1768 8.38477C10.6303 8.38477 10.9996 8.74599 10.9996 9.19151C10.9996 9.63702 10.6303 9.99976 10.1768 9.99976Z" fill="#485B78"/>
        <g opacity="0.1">
            <path d="M10.8202 9.19168C10.8202 9.53936 10.5321 9.82232 10.1781 9.82232C9.82419 9.82232 9.53613 9.53936 9.53613 9.19168C9.53613 8.844 9.82419 8.56104 10.1781 8.56104C10.5321 8.56104 10.8202 8.844 10.8202 9.19168Z" fill="white"/>
        </g>
        <path d="M10.8261 9.08327C10.8231 9.06069 10.8169 9.03811 10.8108 9.01704C10.8062 8.99898 10.8001 8.98092 10.7939 8.96436C10.7863 8.94329 10.7756 8.92222 10.7648 8.90115C10.6714 8.71752 10.489 8.58357 10.2745 8.55196C10.2515 8.54895 10.2301 8.54594 10.2056 8.54594C10.1964 8.54443 10.1856 8.54443 10.1764 8.54443C10.1673 8.54443 10.1581 8.54443 10.1489 8.54594C10.1259 8.54594 10.1029 8.54895 10.0799 8.55196C9.8654 8.58206 9.68306 8.71752 9.58959 8.90115C9.57887 8.92071 9.56967 8.94178 9.56048 8.96436C9.55282 8.98092 9.54822 8.99898 9.54363 9.01704C9.5375 9.03811 9.53137 9.06069 9.5283 9.08327C9.52217 9.11788 9.51758 9.15551 9.51758 9.19163C9.51758 9.37225 9.59266 9.5348 9.71524 9.6522L9.7658 9.69735C9.78113 9.70939 9.79492 9.71993 9.81177 9.72896C9.83169 9.74251 9.85161 9.75304 9.87153 9.76358C9.96193 9.81024 10.0661 9.83733 10.1749 9.83733C10.2852 9.83733 10.3879 9.81024 10.4798 9.76358L10.5411 9.72746C10.5549 9.71842 10.5702 9.70789 10.5856 9.69585L10.5871 9.69434L10.6361 9.6522L10.6377 9.65069C10.7587 9.5333 10.8338 9.37074 10.8338 9.19163C10.8353 9.15401 10.8322 9.11939 10.8261 9.08327ZM10.7418 8.98393C10.748 8.99898 10.7541 9.01554 10.7572 9.03059C10.7572 9.03209 10.7572 9.03209 10.7572 9.0336L10.3802 9.15401L10.3113 9.17658C10.3113 9.17508 10.3113 9.17508 10.3113 9.17357C10.3082 9.15702 10.3036 9.14046 10.2944 9.12691C10.2944 9.12541 10.2929 9.12541 10.2929 9.1239L10.3634 9.10283L10.7403 8.98242C10.7418 8.98242 10.7418 8.98242 10.7418 8.98393ZM10.2745 8.60765C10.4614 8.63775 10.6239 8.75364 10.7112 8.91921L10.4323 9.00801L10.3189 9.04413L10.273 9.05768V8.60765H10.2745ZM10.1489 8.60012C10.1596 8.59862 10.1673 8.59862 10.1734 8.59862H10.181C10.1872 8.59862 10.1933 8.59862 10.1994 8.59862C10.201 8.59862 10.204 8.59862 10.2056 8.59862V9.06219H10.204C10.1964 9.06069 10.1872 9.06069 10.178 9.06069C10.1688 9.06069 10.1581 9.06069 10.1504 9.0637H10.1489V8.60012ZM10.1764 9.13293C10.2102 9.13293 10.2362 9.15852 10.2362 9.19013C10.2362 9.22174 10.2102 9.24883 10.1764 9.24883C10.1443 9.24883 10.1167 9.22174 10.1167 9.19013C10.1182 9.15852 10.1443 9.13293 10.1764 9.13293ZM10.0799 8.60765V9.05768L10.0339 9.04413L9.92209 9.00801L9.64169 8.9177C9.73056 8.75214 9.89298 8.63625 10.0799 8.60765ZM9.59572 9.03209C9.60032 9.01704 9.60492 9.00048 9.61105 8.98543C9.61105 8.98393 9.61258 8.98242 9.61258 8.98092L9.99104 9.10133L10.0631 9.1239C10.0631 9.1239 10.0631 9.1239 10.0631 9.12541C10.0539 9.14046 10.0477 9.15702 10.0462 9.17508C10.0462 9.17508 10.0462 9.17508 10.0462 9.17658L9.97572 9.15401L9.59572 9.0336C9.59572 9.03209 9.59572 9.03209 9.59572 9.03209ZM9.74895 9.60705C9.63556 9.49567 9.57427 9.34817 9.57427 9.19163C9.57427 9.16003 9.5758 9.12842 9.58193 9.09982L9.86387 9.19013L9.97572 9.22475L10.0202 9.2398L9.99258 9.27743L9.92362 9.37074L9.74895 9.60705ZM9.84548 9.68682C9.84395 9.68531 9.84395 9.68531 9.84548 9.68682C9.82862 9.67478 9.81483 9.66575 9.80104 9.65521C9.80104 9.65521 9.80104 9.65521 9.79951 9.6537L10.0339 9.33462L10.0768 9.27743C10.0768 9.27893 10.0784 9.28044 10.0799 9.28044C10.0906 9.29248 10.1044 9.30301 10.1182 9.30903C10.1182 9.31054 10.1198 9.31054 10.1213 9.31054L10.0784 9.36924L9.84548 9.68682ZM10.1764 9.78465C10.0814 9.78465 9.98951 9.76358 9.90524 9.71993L10.0799 9.48363L10.1489 9.3888L10.178 9.35118L10.2056 9.3888L10.2745 9.48212L10.4492 9.71842C10.3664 9.76207 10.2745 9.78465 10.1764 9.78465ZM10.5518 9.65521C10.5396 9.66424 10.5258 9.67478 10.512 9.6823L10.5105 9.68381L10.2745 9.36623L10.2331 9.30903C10.2347 9.30753 10.2362 9.30753 10.2377 9.30602C10.2515 9.3 10.2653 9.29097 10.276 9.27893C10.2776 9.27743 10.2791 9.27743 10.2791 9.27592L10.3205 9.33311L10.5549 9.65069L10.5518 9.65521ZM10.607 9.60705L10.4339 9.37074L10.3634 9.27743L10.3358 9.2398L10.3802 9.22475L10.4921 9.19013L10.7725 9.09982C10.7771 9.13143 10.7801 9.16153 10.7801 9.19163C10.7801 9.34817 10.7189 9.49567 10.607 9.60705Z" fill="#B4B4B4"/>
        <path d="M3.03838 9.4834H1.62411C1.55516 9.4834 1.5 9.42922 1.5 9.36149V9.02133C1.5 8.9536 1.55516 8.89941 1.62411 8.89941H3.03838V9.4834Z" fill="#B4B4B4"/>
        <path d="M2.93595 9.15707H1.71168C1.67797 9.15707 1.65039 9.12998 1.65039 9.09536C1.65039 9.06225 1.67797 9.03516 1.71168 9.03516H2.93595C2.96966 9.03516 2.99877 9.06225 2.99877 9.09536C2.99724 9.12998 2.96966 9.15707 2.93595 9.15707Z" fill="#969696"/>
        <path d="M2.93595 9.34799H1.71168C1.67797 9.34799 1.65039 9.3209 1.65039 9.28628C1.65039 9.25317 1.67797 9.22607 1.71168 9.22607H2.93595C2.96966 9.22607 2.99877 9.25317 2.99877 9.28628C2.99724 9.3209 2.96966 9.34799 2.93595 9.34799Z" fill="#969696"/>
        <path d="M8.96191 9.74421L9.35723 9.16324L9.19635 8.9751L8.96191 9.74421Z" fill="#323232"/>
        <path d="M9.74488 7.60822C9.75867 7.63832 9.76021 7.67294 9.74948 7.70304L9.04771 9.51972L8.9619 9.74248C8.94352 9.78913 8.89755 9.82074 8.84545 9.82074H3.15469C3.10566 9.82074 3.06122 9.79214 3.0413 9.7485L2.93558 9.51972L2.44679 8.46162L0.592773 7.32526L1.09688 6.6329H5.45766C5.45766 6.6329 4.72065 6.89178 4.72065 7.55403C4.72065 8.21779 4.72065 7.96493 4.72065 8.18618C4.72065 8.40744 4.7896 8.76716 5.31056 8.76716H7.29329C7.57216 8.76716 7.83724 8.58504 8.01498 8.40142C8.19425 8.21779 8.3536 8.02363 8.25247 7.47426C8.1636 6.99112 7.66409 4.99232 7.54611 4.51972C7.53232 4.46252 7.56143 4.40232 7.61812 4.37824L7.98433 4.22471C8.04562 4.19913 8.1161 4.22471 8.14522 4.28492L9.74488 7.60822Z" fill="#EA5B44"/>
        <path d="M7.56155 4.58141L7.27655 3.71748C7.25664 3.65577 7.28728 3.58954 7.34857 3.56696L7.84808 3.3713C7.91091 3.34722 7.98292 3.37581 8.00897 3.43752L8.2955 4.10881C8.32155 4.16901 8.29397 4.23825 8.23421 4.26534L7.56155 4.58141Z" fill="#EA5B44"/>
        <path d="M3.35581 8.22972C3.35581 8.33658 3.30831 8.43893 3.22404 8.50967C3.13976 8.5789 3.02944 8.60901 2.92218 8.59095L0.499701 8.19058C0.439943 8.18005 0.395508 8.13038 0.395508 8.07017V7.45458C0.395508 7.39438 0.439943 7.34471 0.499701 7.33417L2.92218 6.93532C3.03097 6.91726 3.14129 6.94736 3.22404 7.01659C3.30831 7.08583 3.35581 7.18818 3.35581 7.29654V8.22972Z" fill="#E2B3AB"/>
        <path d="M9.04768 9.521L8.96187 9.74375C8.94349 9.79041 8.89752 9.82202 8.84542 9.82202H3.15466C3.10563 9.82202 3.06119 9.79342 3.04127 9.74977L2.93555 9.521H9.04768Z" fill="#485B78"/>
        <path d="M1.30543 8.10471C1.27172 8.10471 1.24414 8.07762 1.24414 8.04451V7.48159C1.24414 7.44848 1.27172 7.42139 1.30543 7.42139C1.33914 7.42139 1.36825 7.44848 1.36825 7.48159V8.04451C1.36825 8.07762 1.34067 8.10471 1.30543 8.10471Z" fill="#EA5B44"/>
        <path d="M1.06478 8.10471C1.03107 8.10471 1.00195 8.07762 1.00195 8.04451V7.48159C1.00195 7.44848 1.02953 7.42139 1.06478 7.42139C1.09848 7.42139 1.12607 7.44848 1.12607 7.48159V8.04451C1.1276 8.07762 1.10002 8.10471 1.06478 8.10471Z" fill="#EA5B44"/>
        <path d="M0.824541 8.10471C0.790831 8.10471 0.761719 8.07762 0.761719 8.04451V7.48159C0.761719 7.44848 0.789299 7.42139 0.824541 7.42139C0.85825 7.42139 0.885831 7.44848 0.885831 7.48159V8.04451C0.887363 8.07762 0.859783 8.10471 0.824541 8.10471Z" fill="#EA5B44"/>
        <path d="M5.72105 4.00813L5.08057 4.13306L4.39566 2.83565L4.33743 2.72577C4.32671 2.69116 4.32364 2.65353 4.32824 2.61439L4.3405 2.60837L4.8063 2.37207H4.80783C4.85533 2.39615 4.89364 2.43378 4.92275 2.47743L4.93195 2.49398L4.94267 2.51506L4.95033 2.53011L5.72105 4.00813Z" fill="#E2B3AB"/>
        <path d="M4.96872 2.69556C4.93961 2.86564 4.77412 2.98153 4.59792 2.95294C4.51517 2.93939 4.44469 2.89574 4.39566 2.83704C4.36961 2.80544 4.34969 2.76781 4.33743 2.72717C4.32671 2.69255 4.32364 2.65492 4.32824 2.61579C4.32824 2.61278 4.32824 2.60977 4.32824 2.60827C4.32824 2.60375 4.32977 2.59923 4.32977 2.59472C4.35889 2.42464 4.52437 2.30875 4.70058 2.33734C4.73735 2.34337 4.77106 2.35541 4.8017 2.37196C4.80324 2.37196 4.80324 2.37347 4.80477 2.37347C4.85227 2.39755 4.89058 2.43367 4.91969 2.47732C4.92275 2.48334 4.92735 2.48786 4.93041 2.49388L4.94114 2.51495C4.9442 2.51946 4.94574 2.52398 4.94727 2.53C4.97025 2.57967 4.97791 2.63686 4.96872 2.69556Z" fill="#E2B3AB"/>
        <path d="M7.13093 4.30314C6.87964 4.31217 6.67126 4.18725 6.66513 4.02319C6.659 3.85913 6.97158 3.69809 7.22133 3.66798C7.67181 3.6138 7.64423 3.89375 7.65036 4.05931C7.65649 4.22337 7.38222 4.29261 7.13093 4.30314Z" fill="#F0CDAF"/>
        <path d="M6.76379 3.73389L6.80516 4.30884L5.40468 4.42022L5.38477 3.8257L6.76379 3.73389Z" fill="#E2B3AB"/>
        <path d="M6.85942 3.75574L6.76465 3.76221L6.80149 4.28323L6.89627 4.27676L6.85942 3.75574Z" fill="#F0F0F0"/>
        <path d="M5.08105 4.1327C5.17912 4.35244 5.28331 4.43071 5.40436 4.42017C5.52541 4.41114 5.51621 4.12818 5.51621 4.12818L5.38444 3.86328L5.08105 4.1327Z" fill="#E2B3AB"/>
        <path d="M7.65048 4.05742C7.65048 4.21395 7.52024 4.34188 7.36088 4.34188C7.20153 4.34188 7.07129 4.21395 7.07129 4.05742C7.07129 3.90088 7.20153 3.77295 7.36088 3.77295C7.52177 3.77295 7.65048 3.90088 7.65048 4.05742Z" fill="#646464"/>
        <path d="M7.52197 4.05741C7.52197 4.14471 7.44995 4.21545 7.36108 4.21545C7.27221 4.21545 7.2002 4.14471 7.2002 4.05741C7.2002 3.97011 7.27221 3.90088 7.36108 3.90088C7.44995 3.90088 7.52197 3.97162 7.52197 4.05741Z" fill="#787878"/>
        <path d="M3.354 5.69824H0.124023V6.12419H3.354V5.69824Z" fill="#F0F0F0"/>
        <path d="M3.22844 5.27246H0V5.69841H3.22844V5.27246Z" fill="#E6E6E6"/>
        <path d="M3.33098 4.42041H0.102539V4.84636H3.33098V4.42041Z" fill="#E6E6E6"/>
        <path d="M1.82333 4.42188H1.69922V6.12416H1.82333V4.42188Z" fill="#485B78"/>
        <path d="M1.68555 4.50618L1.71619 4.41737C1.73611 4.36018 1.83724 4.07571 1.90313 4.0125C1.97974 3.93724 2.11151 3.93724 2.18812 4.0125C2.26627 4.08926 2.26627 4.21569 2.18812 4.29245C2.12377 4.35566 1.83264 4.45651 1.77595 4.47607L1.68555 4.50618ZM2.04562 4.04561C2.01651 4.04561 1.98893 4.05615 1.96901 4.07722C1.9399 4.10581 1.88321 4.23826 1.83724 4.35717C1.95829 4.31202 2.09312 4.25633 2.12224 4.22773C2.16514 4.18559 2.16514 4.11785 2.12224 4.07722C2.10232 4.05615 2.07474 4.04561 2.04562 4.04561Z" fill="#485B78"/>
        <path d="M1.8356 4.50618L1.7452 4.47607C1.68697 4.45651 1.39738 4.35566 1.33302 4.29245C1.25488 4.21569 1.25488 4.08926 1.33302 4.0125C1.40963 3.93724 1.54141 3.93724 1.61802 4.0125C1.68237 4.07571 1.78504 4.36168 1.80495 4.41737L1.8356 4.50618ZM1.47552 4.04561C1.44641 4.04561 1.41883 4.05615 1.39891 4.07722C1.35601 4.11936 1.35601 4.18709 1.39891 4.22773C1.42802 4.25633 1.56286 4.31202 1.68391 4.35717C1.63794 4.23826 1.58125 4.10581 1.55213 4.07722C1.53221 4.05615 1.50463 4.04561 1.47552 4.04561Z" fill="#485B78"/>
    </g>
    <defs>
        <clipPath id="clip0_1722_13913">
            <rect width="11" height="10" fill="white"/>
        </clipPath>
    </defs>
</svg>
