<svg width="12" height="11" viewBox="0 0 12 11" fill="none" xmlns="http://www.w3.org/2000/svg">
    <g clip-path="url(#clip0_901_3501)">
        <path d="M10.3505 5.55002L10.0819 4.82034L7.18572 7.59046C6.90283 7.86171 6.52572 8.01078 6.12518 8.01078C5.72486 8.01078 5.34776 7.86171 5.06487 7.59046L2.94002 5.55809C2.65643 5.28752 2.50057 4.92682 2.50057 4.54393C2.50057 4.16082 2.65666 3.80035 2.94002 3.52954C3.22291 3.25852 3.60002 3.10922 4.00033 3.10922C4.40088 3.10922 4.77776 3.25852 5.06088 3.52954L6.12541 4.54729L8.97705 1.81954L8.7851 1.29834L8.69674 0.792377C8.64119 0.468222 8.4176 0.199437 8.10026 0.0736752C7.78127 -0.0529832 7.42526 -0.0137528 7.14588 0.177916L5.75627 1.13985L4.35119 0.175226C4.06924 -0.0150978 3.71229 -0.0529832 3.39518 0.0743477C3.08018 0.200558 2.85869 0.468894 2.80315 0.791257L2.53127 2.41091L0.827834 2.68149C0.489397 2.73462 0.208381 2.94848 0.076428 3.25202C-0.0555251 3.55667 -0.0145095 3.89809 0.185881 4.1653L1.19135 5.49421L0.183069 6.83835C-0.015447 7.10804 -0.0555251 7.4499 0.0775999 7.75276C0.210022 8.05405 0.4901 8.26589 0.826897 8.31902L2.52026 8.57951L2.80315 10.2084C2.85822 10.5316 3.08018 10.8 3.39518 10.9262C3.71276 11.0533 4.07018 11.0156 4.35471 10.8228L5.74408 9.86067L7.14541 10.8228C7.31697 10.9401 7.51643 11.0001 7.71893 11.0001C7.84736 11.0001 7.97627 10.9762 8.09979 10.9271C8.41783 10.8009 8.64073 10.5321 8.69627 10.2093L8.96862 8.5896L10.6716 8.31902C11.0096 8.26589 11.2896 8.05405 11.4221 7.75276C11.5552 7.45012 11.5156 7.10804 11.314 6.83499L10.3505 5.55002Z" fill="#FFC107"/>
        <path d="M6.12488 7.05445C5.99691 7.05445 5.86894 7.0076 5.77145 6.91435L3.6466 4.88198C3.45113 4.69502 3.45113 4.39284 3.6466 4.20587C3.84207 4.01891 4.15801 4.01891 4.35371 4.20587L6.12512 5.90018L11.1461 1.09725C11.3416 0.910291 11.6575 0.910291 11.8532 1.09725C12.0487 1.28421 12.0487 1.5864 11.8532 1.77336L6.47832 6.91435C6.38082 7.0076 6.25285 7.05445 6.12488 7.05445Z" fill="#485B78"/>
    </g>
    <defs>
        <clipPath id="clip0_901_3501">
            <rect width="12" height="11" fill="white"/>
        </clipPath>
    </defs>
</svg>
