<svg width="16" height="16" viewBox="0 0 16 16" fill="none" xmlns="http://www.w3.org/2000/svg">
    <path d="M8.00011 0C3.57886 0 0.000114866 3.57812 0.000114866 8C0.000114866 9.40312 0.366052 10.7738 1.06105 11.9825L0.0301149 15.1834C-0.0417601 15.4066 0.0173024 15.6513 0.182927 15.8169C0.34699 15.9809 0.591052 16.0422 0.816365 15.9697L4.0173 14.9391C5.22637 15.6341 6.59699 16 8.00011 16C12.4214 16 16.0001 12.4219 16.0001 8C16.0001 3.57875 12.422 0 8.00011 0ZM8.00011 14.75C6.73261 14.75 5.4973 14.3962 4.4273 13.7272C4.27324 13.6309 4.0823 13.605 3.90449 13.6622L1.59386 14.4062L2.33793 12.0956C2.39418 11.9203 2.37043 11.7291 2.27293 11.5728C1.60387 10.5028 1.25011 9.2675 1.25011 8C1.25011 4.27812 4.27824 1.25 8.00011 1.25C11.722 1.25 14.7501 4.27812 14.7501 8C14.7501 11.7219 11.722 14.75 8.00011 14.75ZM8.78136 8C8.78136 8.43125 8.43168 8.78125 8.00011 8.78125C7.56855 8.78125 7.21886 8.43125 7.21886 8C7.21886 7.56844 7.56855 7.21875 8.00011 7.21875C8.43168 7.21875 8.78136 7.56844 8.78136 8ZM11.9064 8C11.9064 8.43125 11.5567 8.78125 11.1251 8.78125C10.6936 8.78125 10.3439 8.43125 10.3439 8C10.3439 7.56844 10.6936 7.21875 11.1251 7.21875C11.5567 7.21875 11.9064 7.56844 11.9064 8ZM5.65636 8C5.65636 8.43125 5.30668 8.78125 4.87511 8.78125C4.44386 8.78125 4.09386 8.43125 4.09386 8C4.09386 7.56844 4.44386 7.21875 4.87511 7.21875C5.30668 7.21875 5.65636 7.56844 5.65636 8Z" fill="white"/>
</svg>
