<svg width="8" height="7" viewBox="0 0 8 7" fill="none" xmlns="http://www.w3.org/2000/svg">
    <g clip-path="url(#clip0_1722_14201)">
        <path d="M2.82019 5.70114L2.75153 5.58422C2.23655 4.7067 0.866499 2.84269 0.8528 2.82405L0.8125 2.76941L1.3278 2.26032L2.80267 3.29013C3.72703 2.09546 4.58815 1.27336 5.1514 0.791511C5.77374 0.259165 6.16766 0.0210263 6.18407 0.0111503L6.20271 0H7.11082L6.9571 0.136989C5.01504 1.86672 2.90828 5.54647 2.88725 5.58343L2.82019 5.70114Z" fill="#4CAE50"/>
        <path d="M2.82004 0.991147C2.88892 0.991147 2.94476 0.935306 2.94476 0.866423C2.94476 0.79754 2.88892 0.741699 2.82004 0.741699C2.75115 0.741699 2.69531 0.79754 2.69531 0.866423C2.69531 0.935306 2.75115 0.991147 2.82004 0.991147Z" fill="#F44336"/>
        <path d="M2.82004 6.38812C2.88892 6.38812 2.94476 6.33228 2.94476 6.2634C2.94476 6.19451 2.88892 6.13867 2.82004 6.13867C2.75115 6.13867 2.69531 6.19451 2.69531 6.2634C2.69531 6.33228 2.75115 6.38812 2.82004 6.38812Z" fill="#F44336"/>
        <path d="M0.124724 3.68939C0.193607 3.68939 0.249448 3.63355 0.249448 3.56467C0.249448 3.49578 0.193607 3.43994 0.124724 3.43994C0.0558408 3.43994 0 3.49578 0 3.56467C0 3.63355 0.0558408 3.68939 0.124724 3.68939Z" fill="#F44336"/>
        <path d="M5.51535 3.68939C5.58423 3.68939 5.64007 3.63355 5.64007 3.56467C5.64007 3.49578 5.58423 3.43994 5.51535 3.43994C5.44647 3.43994 5.39062 3.49578 5.39062 3.56467C5.39062 3.63355 5.44647 3.68939 5.51535 3.68939Z" fill="#F44336"/>
        <path d="M0.911833 5.59759C0.980716 5.59759 1.03656 5.54175 1.03656 5.47287C1.03656 5.40399 0.980716 5.34814 0.911833 5.34814C0.84295 5.34814 0.787109 5.40399 0.787109 5.47287C0.787109 5.54175 0.84295 5.59759 0.911833 5.59759Z" fill="#F44336"/>
        <path d="M0.913786 1.78363C0.98267 1.78363 1.03851 1.72779 1.03851 1.6589C1.03851 1.59002 0.98267 1.53418 0.913786 1.53418C0.844903 1.53418 0.789062 1.59002 0.789062 1.6589C0.789062 1.72779 0.844903 1.78363 0.913786 1.78363Z" fill="#F44336"/>
        <path d="M4.72629 5.59564C4.79517 5.59564 4.85101 5.5398 4.85101 5.47092C4.85101 5.40203 4.79517 5.34619 4.72629 5.34619C4.6574 5.34619 4.60156 5.40203 4.60156 5.47092C4.60156 5.5398 4.6574 5.59564 4.72629 5.59564Z" fill="#F44336"/>
        <path d="M0.483122 2.34027C0.552005 2.34027 0.607846 2.28443 0.607846 2.21554C0.607846 2.14666 0.552005 2.09082 0.483122 2.09082C0.414239 2.09082 0.358398 2.14666 0.358398 2.21554C0.358398 2.28443 0.414239 2.34027 0.483122 2.34027Z" fill="#F44336"/>
        <path d="M5.15695 5.03851C5.22583 5.03851 5.28167 4.98267 5.28167 4.91379C5.28167 4.8449 5.22583 4.78906 5.15695 4.78906C5.08807 4.78906 5.03223 4.8449 5.03223 4.91379C5.03223 4.98267 5.08807 5.03851 5.15695 5.03851Z" fill="#F44336"/>
        <path d="M1.59751 5.90792C1.60239 5.83921 1.55065 5.77955 1.48194 5.77467C1.41323 5.76978 1.35357 5.82153 1.34869 5.89024C1.3438 5.95895 1.39555 6.01861 1.46426 6.02349C1.53297 6.02838 1.59263 5.97663 1.59751 5.90792Z" fill="#F44336"/>
        <path d="M2.12179 1.08343C2.19068 1.08343 2.24652 1.02759 2.24652 0.958708C2.24652 0.889825 2.19068 0.833984 2.12179 0.833984C2.05291 0.833984 1.99707 0.889825 1.99707 0.958708C1.99707 1.02759 2.05291 1.08343 2.12179 1.08343Z" fill="#F44336"/>
        <path d="M3.51828 6.29583C3.58716 6.29583 3.643 6.23999 3.643 6.17111C3.643 6.10223 3.58716 6.04639 3.51828 6.04639C3.4494 6.04639 3.39355 6.10223 3.39355 6.17111C3.39355 6.23999 3.4494 6.29583 3.51828 6.29583Z" fill="#F44336"/>
        <path d="M0.216521 4.38714C0.285404 4.38714 0.341245 4.3313 0.341245 4.26242C0.341245 4.19354 0.285404 4.1377 0.216521 4.1377C0.147638 4.1377 0.0917969 4.19354 0.0917969 4.26242C0.0917969 4.3313 0.147638 4.38714 0.216521 4.38714Z" fill="#F44336"/>
        <path d="M5.42355 2.99212C5.49243 2.99212 5.54828 2.93628 5.54828 2.8674C5.54828 2.79852 5.49243 2.74268 5.42355 2.74268C5.35467 2.74268 5.29883 2.79852 5.29883 2.8674C5.29883 2.93628 5.35467 2.99212 5.42355 2.99212Z" fill="#F44336"/>
        <path d="M0.489894 5.03856C0.558674 5.03475 0.611343 4.97591 0.607533 4.90713C0.603724 4.83835 0.544879 4.78568 0.476099 4.78949C0.40732 4.7933 0.35465 4.85214 0.35846 4.92092C0.362269 4.9897 0.421114 5.04237 0.489894 5.03856Z" fill="#F44336"/>
        <path d="M4.16769 6.02386C4.23658 6.02386 4.29242 5.96802 4.29242 5.89914C4.29242 5.83026 4.23658 5.77441 4.16769 5.77441C4.09881 5.77441 4.04297 5.83026 4.04297 5.89914C4.04297 5.96802 4.09881 6.02386 4.16769 6.02386Z" fill="#F44336"/>
        <path d="M1.47238 1.3554C1.54126 1.3554 1.5971 1.29956 1.5971 1.23068C1.5971 1.1618 1.54126 1.10596 1.47238 1.10596C1.4035 1.10596 1.34766 1.1618 1.34766 1.23068C1.34766 1.29956 1.4035 1.3554 1.47238 1.3554Z" fill="#F44336"/>
        <path d="M3.51828 1.08343C3.58716 1.08343 3.643 1.02759 3.643 0.958708C3.643 0.889825 3.58716 0.833984 3.51828 0.833984C3.4494 0.833984 3.39355 0.889825 3.39355 0.958708C3.39355 1.02759 3.4494 1.08343 3.51828 1.08343Z" fill="#F44336"/>
        <path d="M2.12179 6.29583C2.19068 6.29583 2.24652 6.23999 2.24652 6.17111C2.24652 6.10223 2.19068 6.04639 2.12179 6.04639C2.05291 6.04639 1.99707 6.10223 1.99707 6.17111C1.99707 6.23999 2.05291 6.29583 2.12179 6.29583Z" fill="#F44336"/>
        <path d="M5.42355 4.38714C5.49243 4.38714 5.54828 4.3313 5.54828 4.26242C5.54828 4.19354 5.49243 4.1377 5.42355 4.1377C5.35467 4.1377 5.29883 4.19354 5.29883 4.26242C5.29883 4.3313 5.35467 4.38714 5.42355 4.38714Z" fill="#F44336"/>
        <path d="M0.216521 2.99212C0.285404 2.99212 0.341245 2.93628 0.341245 2.8674C0.341245 2.79852 0.285404 2.74268 0.216521 2.74268C0.147638 2.74268 0.0917969 2.79852 0.0917969 2.8674C0.0917969 2.93628 0.147638 2.99212 0.216521 2.99212Z" fill="#F44336"/>
    </g>
    <defs>
        <clipPath id="clip0_1722_14201">
            <rect width="7.1107" height="6.388" fill="white"/>
        </clipPath>
    </defs>
</svg>
