<svg width="14" height="14" viewBox="0 0 14 14" fill="none" xmlns="http://www.w3.org/2000/svg">
    <path d="M12.9156 6.08112C12.7159 6.01199 12.5071 5.97262 12.2957 5.96445C12.2538 5.96124 12.2024 5.95745 12.161 5.9522C12.1817 5.92479 12.2059 5.89445 12.2263 5.86879C12.4016 5.67337 12.5278 5.43916 12.5946 5.1857C12.7299 4.59479 12.7599 3.48237 12.0147 3.06237C11.6843 2.88504 11.2953 2.85237 10.9399 2.97166C10.4687 3.11312 10.0704 3.43074 9.82726 3.85833C9.56193 4.37166 9.70422 4.89374 9.81852 5.31287C9.88849 5.57245 9.95614 5.81745 9.87246 5.8962C9.77507 5.98954 9.48495 5.91137 9.20417 5.83466C9.11611 5.81133 9.02601 5.78799 8.93533 5.76466C8.63326 5.09645 7.96818 4.66712 7.23516 4.66654C7.22874 4.66654 7.22262 4.66654 7.21591 4.66654C7.19317 4.4892 7.14885 4.31508 7.08354 4.14854C6.61847 2.96729 5.31251 2.36995 4.45557 2.62429C4.21035 2.7007 3.9908 2.84333 3.82139 3.03641C3.63041 2.76283 3.38344 2.53358 3.09653 2.36354C2.43816 2.01441 1.66402 1.9552 0.960159 2.2002C0.567116 2.30754 0.239676 2.57995 0.0626898 2.94687C-0.154826 3.49812 0.249298 4.12345 0.984069 5.2592C1.0625 5.38054 1.14444 5.49924 1.22549 5.61883C1.03189 5.69058 0.843821 5.77633 0.662752 5.87549C0.413164 5.99595 0.211977 6.1972 0.0915558 6.44687C0.0174956 6.70208 -0.0119535 6.96808 0.0043747 7.2332C0.00874833 10.9686 3.03472 13.9955 6.76893 13.9999H7.23545C10.9697 13.9955 13.9956 10.9686 14 7.2332C13.9962 7.19704 13.9878 7.16174 13.9749 7.12762C13.7679 6.65658 13.3892 6.28237 12.9156 6.08112ZM9.08345 6.28762C9.48962 6.39787 9.90891 6.51162 10.1961 6.23512C10.4795 5.96358 10.3725 5.57099 10.269 5.19154C10.1655 4.81208 10.0602 4.42562 10.2419 4.07416C10.4267 3.75916 10.7241 3.52583 11.074 3.42083C11.3085 3.34033 11.5656 3.35841 11.7864 3.47129C12.2558 3.73583 12.2552 4.57991 12.14 5.08274C12.0876 5.26679 11.9925 5.43624 11.8628 5.57683C11.735 5.73666 11.5758 5.93529 11.6922 6.17095C11.8047 6.39554 12.0473 6.41391 12.2616 6.42966C12.4284 6.4352 12.5934 6.46495 12.7515 6.51833C12.9938 6.6172 13.202 6.78462 13.3507 7.00016H11.0146C11.0682 6.70558 11.1271 6.41041 11.1953 6.1202C11.3225 5.57829 11.4773 5.03579 11.6554 4.50816L11.2137 4.35883C11.0306 4.90045 10.8714 5.45724 10.7408 6.01345C10.6644 6.33895 10.5988 6.6697 10.5405 7.00016H9.04059C9.10328 6.7677 9.11786 6.52533 9.08345 6.28762ZM7.46871 5.59987V5.1542C7.99967 5.24491 8.43207 5.63195 8.58049 6.14995L8.09472 6.31183L8.24226 6.75516L8.63005 6.62595C8.62247 6.75341 8.59682 6.87941 8.55424 6.99987H5.91665C5.863 6.85024 5.83559 6.69216 5.83589 6.5332C5.83589 6.48654 5.83851 6.43958 5.84317 6.3932L6.22864 6.52183L6.37617 6.07849L5.96855 5.94258C6.16333 5.52637 6.54937 5.23179 7.00248 5.15449V5.59987H7.46871ZM4.58911 3.07258C5.22504 2.88299 6.28637 3.39749 6.64996 4.32062C6.70187 4.45274 6.73715 4.5907 6.75464 4.73158C5.7662 4.99087 5.17313 6.00062 5.42797 6.99083L5.40873 6.99987H4.33281C4.43253 6.89604 4.5305 6.78987 4.61914 6.67787C5.17022 5.96883 5.51078 5.11891 5.60117 4.22524L5.13756 4.17449C5.05534 4.98066 4.74918 5.74745 4.25351 6.38854C4.24038 6.40516 4.22464 6.41945 4.21123 6.4352C4.55383 5.46366 4.50514 4.39704 4.07535 3.46079C4.20015 3.27908 4.38034 3.14287 4.58911 3.07258ZM0.496846 3.11924C0.627763 2.88154 0.85111 2.70887 1.11411 2.64237C1.68997 2.44374 2.32211 2.48954 2.86356 2.76895C3.97942 3.41354 4.23455 5.27058 3.70972 6.43783C3.69135 6.47895 3.66948 6.51658 3.64849 6.55449C3.60358 6.36433 3.55285 6.17591 3.49133 5.99245C3.11024 4.87479 2.44486 3.87583 1.56051 3.09358L1.24736 3.43949C2.07194 4.16837 2.6927 5.09908 3.04872 6.14062C3.14173 6.42149 3.21404 6.70849 3.26506 6.99987H2.86182C2.3224 6.36929 1.82614 5.70341 1.37565 5.00662C0.712903 3.9817 0.372926 3.4322 0.496846 3.11895V3.11924ZM0.517548 6.63529C0.594815 6.47895 0.724858 6.35499 0.884933 6.28529C1.08204 6.17708 1.28818 6.08695 1.50132 6.01608C1.74333 6.35354 1.99496 6.68137 2.25592 7.00016H0.483142C0.458649 6.87766 0.470604 6.75079 0.517548 6.63529ZM7.23545 13.5332H6.76893C3.38286 13.5294 0.604437 10.851 0.475269 7.46654H13.5294C13.3999 10.851 10.6215 13.5294 7.23545 13.5332Z" fill="#485B78"/>
    <path d="M7.46847 6.06689H7.00195V6.53356H7.46847V6.06689Z" fill="#485B78"/>
    <path d="M7.46875 2.8002V3.26686C7.46875 3.39578 7.57313 3.5002 7.70201 3.5002H8.63505C9.79406 3.49903 10.7332 2.55957 10.7344 1.4002V0.933529C10.7344 0.804612 10.63 0.700195 10.5011 0.700195H9.56809C8.40937 0.701362 7.47021 1.64082 7.46875 2.8002ZM9.56809 1.16686H10.2679V1.4002C10.2667 2.30174 9.53631 3.03236 8.63505 3.03353H8.33181L9.48587 2.0439L9.18263 1.68982L7.93702 2.7579C7.96005 1.87299 8.68345 1.16745 9.56809 1.16686Z" fill="#485B78"/>
    <path d="M5.36914 1.4002C5.36914 1.78665 5.68258 2.1002 6.06892 2.1002C6.45526 2.1002 6.7687 1.78665 6.7687 1.4002C6.7687 1.01374 6.45526 0.700195 6.06892 0.700195C5.68258 0.700195 5.36914 1.01374 5.36914 1.4002ZM6.30218 1.4002C6.30218 1.52911 6.1978 1.63353 6.06892 1.63353C5.94005 1.63353 5.83566 1.52911 5.83566 1.4002C5.83566 1.27128 5.94005 1.16686 6.06892 1.16686C6.1978 1.16686 6.30218 1.27128 6.30218 1.4002Z" fill="#485B78"/>
    <path d="M2.33691 0.7C2.33691 1.08646 2.65036 1.4 3.0367 1.4C3.42303 1.4 3.73648 1.08646 3.73648 0.7C3.73648 0.313542 3.42303 0 3.0367 0C2.65036 0 2.33691 0.313542 2.33691 0.7ZM3.26996 0.7C3.26996 0.828917 3.16557 0.933333 3.0367 0.933333C2.90782 0.933333 2.80343 0.828917 2.80343 0.7C2.80343 0.571083 2.90782 0.466667 3.0367 0.466667C3.16557 0.466667 3.26996 0.571083 3.26996 0.7Z" fill="#485B78"/>
    <path d="M2.06977 9.6792L1.6709 9.92128C2.30595 10.9695 3.23141 11.8107 4.33473 12.3436L4.53767 11.9236C3.51541 11.4298 2.65817 10.6502 2.06977 9.6792Z" fill="#485B78"/>
    <path d="M5.36984 12.1333H4.90332V12.6H5.36984V12.1333Z" fill="#485B78"/>
</svg>
