<svg width="15" height="15" viewBox="0 0 15 15" fill="none" xmlns="http://www.w3.org/2000/svg">
    <g clip-path="url(#clip0_1174_4074)">
        <path d="M0.2575 14.8106C0.285313 14.9219 0.385312 15 0.5 15H11C11.1147 15 11.2147 14.9219 11.2425 14.8106L11.4925 13.8106C11.5259 13.6766 11.4447 13.5409 11.3106 13.5075C11.2906 13.5025 11.2703 13.5 11.25 13.5H10.9872C10.8703 11.0822 9.11625 9.0575 6.74 8.59688C6.74312 8.56438 6.75 8.5325 6.75 8.5C6.75 7.94781 6.30219 7.5 5.75 7.5C5.19781 7.5 4.75 7.94781 4.75 8.5C4.75 8.5325 4.75688 8.56438 4.76 8.59688C2.38375 9.0575 0.629687 11.0822 0.512812 13.5H0.25C0.111875 13.5 0 13.6119 0 13.75C0 13.7706 0.0025 13.7909 0.0075 13.8106L0.2575 14.8106ZM10.8047 14.5H0.695312L0.570312 14H10.9297L10.8047 14.5ZM5.25 8.5C5.25 8.22375 5.47375 8 5.75 8C6.02625 8 6.25 8.22375 6.25 8.5C6.25 8.50844 6.24781 8.51687 6.2475 8.525C6.08344 8.50937 5.91813 8.5 5.75 8.5C5.58187 8.5 5.41656 8.50969 5.2525 8.525C5.25219 8.51687 5.25 8.50844 5.25 8.5ZM5.75 9C8.27344 9.00406 10.3534 10.98 10.4872 13.5H1.01281C1.14656 10.98 3.22656 9.00406 5.75 9Z" fill="#8B97A7"/>
        <path d="M2.06836 11.6248L2.50117 11.8748C3.34492 10.417 5.05586 9.6989 6.68711 10.118L6.81211 9.6339C4.96336 9.15858 3.0243 9.97265 2.06836 11.6248Z" fill="#8B97A7"/>
        <path d="M1.63379 12.6875L2.11785 12.8125C2.15879 12.6531 2.21066 12.4966 2.27223 12.3438L1.80879 12.1562C1.73879 12.3294 1.68035 12.5069 1.63379 12.6875Z" fill="#8B97A7"/>
        <path d="M14.75 1.25H14V0.25C14 0.111875 13.8881 0 13.75 0C13.7372 0 13.7244 0.0009375 13.7116 0.003125L5.71156 1.25312V1.25781C5.59063 1.275 5.50094 1.37812 5.5 1.5V7H6V1.75H14.5V14.5H11.75V15H14.75C14.8881 15 15 14.8881 15 14.75V1.5C15 1.36188 14.8881 1.25 14.75 1.25ZM13.5 1.25H8.96937L13.5 0.541875V1.25Z" fill="#8B97A7"/>
        <path d="M7.95223 4.44449L7.24504 3.73762L6.8916 4.09105L7.59879 4.79793C8.01879 5.21793 8.67629 5.28449 9.17191 4.95699L9.89691 5.68199L7.59879 7.98012L7.95223 8.33356L10.2504 6.03574L12.5485 8.33387L12.9019 7.98043L10.6038 5.6823L10.9754 5.31074C11.471 5.63762 12.1282 5.57137 12.5485 5.15168L12.9019 4.79824C13.3985 4.31855 13.4122 3.5273 12.9325 3.03074C12.4529 2.53418 11.6616 2.52043 11.165 3.00012C11.1547 3.01012 11.1444 3.02043 11.1344 3.03074L10.781 3.38418C10.361 3.80418 10.2944 4.46168 10.6219 4.9573L10.2504 5.32855L9.52535 4.60355C9.85285 4.10793 9.78629 3.45043 9.36629 3.03043L8.65941 2.32324L8.30598 2.67668L9.01285 3.38387C9.23535 3.60855 9.29285 3.94855 9.15723 4.23387L7.95254 3.02918L7.5991 3.38262L8.80379 4.5873C8.51816 4.72449 8.17754 4.66699 7.95223 4.44449ZM11.1344 3.73762L11.4879 3.38418C11.7857 3.09637 12.2607 3.1048 12.5485 3.40262C12.8291 3.69324 12.8291 4.15418 12.5485 4.4448L12.195 4.79824C11.9072 5.09605 11.4325 5.10449 11.1344 4.81668C10.8366 4.52887 10.8282 4.05418 11.116 3.75605C11.1219 3.7498 11.1282 3.74355 11.1344 3.73762Z" fill="#8B97A7"/>
        <path d="M13.25 9H13.75V9.5H13.25V9Z" fill="#8B97A7"/>
        <path d="M13.25 10H13.75V10.5H13.25V10Z" fill="#8B97A7"/>
        <path d="M13.25 11H13.75V11.5H13.25V11Z" fill="#8B97A7"/>
        <path d="M9.5 9H12.75V9.5H9.5V9Z" fill="#8B97A7"/>
        <path d="M10.5 10H12.75V10.5H10.5V10Z" fill="#8B97A7"/>
        <path d="M11.25 11H12.75V11.5H11.25V11Z" fill="#8B97A7"/>
        <path d="M4.5 2H5V6.5H4.5V2Z" fill="#8B97A7"/>
    </g>
    <defs>
        <clipPath id="clip0_1174_4074">
            <rect width="15" height="15" fill="white"/>
        </clipPath>
    </defs>
</svg>
