<svg width="122" height="138" viewBox="0 0 122 138" fill="none" xmlns="http://www.w3.org/2000/svg">
  <path opacity="0.08"
    d="M10.0855 117.898C7.9085 111.893 7.98357 104.236 11.3617 94.5517C14.5897 85.243 23.0726 77.5859 30.6546 79.5377C34.4081 80.5136 37.486 83.5164 40.714 85.9186C45.5935 89.522 50.9985 89.3719 56.7038 88.7713C81.4018 86.4441 101.22 95.4525 100.92 108.74C100.62 122.102 80.3508 134.789 55.6529 137.041C40.0384 138.467 16.2412 134.939 10.0855 117.898Z"
    fill="url(#paint0_linear_544_16220)" />
  <path opacity="0.08"
    d="M120.138 60.3192C127.194 76.7594 111.054 103.334 84.1043 119.624C57.1542 135.914 29.6037 135.764 22.5471 119.324C15.4905 102.884 31.6305 76.309 58.5806 60.0189C85.5306 43.7287 113.081 43.8789 120.138 60.3192Z"
    fill="url(#paint1_linear_544_16220)" />
  <path
    d="M42.8173 50.2603L43.4179 59.8693C43.4179 59.8693 40.7905 61.5959 40.0398 61.4457C39.2891 61.2956 32.4577 60.1695 32.4577 59.6441C32.4577 59.1186 28.7793 44.1797 28.7793 44.1797L42.8173 50.2603Z"
    fill="#DE9574" />
  <path
    d="M22.0977 98.906C22.6982 98.6808 35.0847 98.5307 50.7743 104.536C49.348 106.638 48.6723 108.515 48.6723 108.515C48.6723 108.515 31.9318 107.989 31.4814 107.989C30.9559 107.989 22.8484 103.635 22.8484 103.335C22.8484 103.035 22.0977 98.906 22.0977 98.906Z"
    fill="#97A0AD" />
  <path
    d="M79.5258 90.1223C68.8659 106.187 60.9836 99.6561 54.978 88.9212C52.2004 98.455 48.8974 107.013 48.8974 107.013L25.3255 107.163H23.8241C23.8241 107.163 23.8241 106.337 23.8241 104.836C23.749 100.932 23.3736 92.6747 22.0224 84.2668C18.344 85.8433 14.4403 87.72 13.4644 89.7469C12.4885 91.7738 12.6387 93.8758 13.3894 96.0528C11.888 97.404 10.1614 99.1306 8.73504 100.557C3.10481 95.4522 -1.77472 88.9212 0.627514 83.2909C13.6146 62.1213 17.9686 59.8692 37.9372 58.9683C40.2643 58.8182 42.6666 58.9683 45.3691 59.719C53.7769 61.4456 57.3802 64.5235 59.8575 67.3762C67.3645 76.2344 67.5897 90.873 76.523 85.1677C77.3488 86.594 78.4748 88.4707 79.5258 90.1223Z"
    fill="url(#paint2_linear_544_16220)" />
  <path
    d="M79.5258 90.1223C68.8659 106.187 60.9836 99.6561 54.978 88.9212C52.2004 98.455 48.8974 107.013 48.8974 107.013L25.3255 107.163H23.8241C23.8241 107.163 23.8241 106.337 23.8241 104.836C23.749 100.932 23.3736 92.6747 22.0224 84.2668C18.344 85.8433 14.4403 87.72 13.4644 89.7469C12.4885 91.7738 12.6387 93.8758 13.3894 96.0528C11.888 97.404 10.1614 99.1306 8.73504 100.557C3.10481 95.4522 -1.77472 88.9212 0.627514 83.2909C13.6146 62.1213 17.9686 59.8692 37.9372 58.9683C40.2643 58.8182 42.6666 58.9683 45.3691 59.719C53.7769 61.4456 57.3802 64.5235 59.8575 67.3762C67.3645 76.2344 67.5897 90.873 76.523 85.1677C77.3488 86.594 78.4748 88.4707 79.5258 90.1223Z"
    fill="url(#paint3_linear_544_16220)" />
  <path
    d="M30.8815 55.8157C30.8815 55.8157 38.4635 51.837 44.6943 57.4673C44.6192 60.395 44.4691 61.9715 44.1688 62.2717C43.8685 62.572 37.6377 63.7731 37.3375 63.5479C37.0372 63.3227 30.8064 58.4432 30.6562 58.1429C30.6562 57.8426 30.8815 55.8157 30.8815 55.8157Z"
    fill="#81645B" />
  <path
    d="M30.8816 55.7402C39.5147 63.7727 44.4692 59.7189 44.6945 57.3167C45.5202 58.5929 45.295 58.1425 45.295 59.6438C45.295 61.1452 45.5953 64.5985 40.8659 65.3491C35.1606 66.25 30.1309 61.1452 29.8306 59.794C29.5304 58.5178 30.8816 55.7402 30.8816 55.7402Z"
    fill="#F2E1D5" />
  <path
    d="M45.295 59.7192C45.295 58.2178 44.0939 62.1215 43.2681 60.8453C37.0373 55.215 30.9567 55.7405 30.9567 55.7405C30.9567 55.7405 29.8306 58.0677 29.8306 59.494C29.3051 59.5691 28.8547 59.5691 28.4043 59.6442C31.1819 64.5988 40.5656 72.8564 56.4053 64.1483C53.928 62.4217 50.5499 60.8453 45.295 59.7192Z"
    fill="#F4F4F4" />
  <path
    d="M42.8173 50.2603L43.4179 59.8693C43.4179 59.8693 40.7905 61.5959 40.0398 61.4457C39.2891 61.2956 32.4577 60.1695 32.4577 59.6441C32.4577 59.1186 28.7793 44.1797 28.7793 44.1797L42.8173 50.2603Z"
    fill="#D39074" />
  <path
    d="M30.8816 55.7402C39.5147 63.7727 44.4692 59.7189 44.6945 57.3167C45.5202 58.5929 45.295 58.1425 45.295 59.6438C45.295 61.1452 45.5953 64.5985 40.8659 65.3491C35.1606 66.25 30.1309 61.1452 29.8306 59.794C29.5304 58.5178 30.8816 55.7402 30.8816 55.7402Z"
    fill="#D9D9D9" />
  <path
    d="M85.9074 78.4117C86.7332 79.2375 86.583 79.3876 87.4088 79.3126C88.2346 79.2375 90.2614 77.5859 90.2614 77.5859L84.2559 77.661L85.9074 78.4117Z"
    fill="#F5C0A2" />
  <path
    d="M31.481 46.0564C31.481 46.0564 30.5051 47.5578 29.7544 47.0324C29.7544 47.0324 18.7192 38.1741 23.6738 31.3428C23.9741 31.3428 24.3494 31.3428 24.7248 31.3428C24.7998 34.796 26.3763 38.4744 30.5051 41.7024C30.8054 43.6542 31.1807 45.3808 31.481 46.0564Z"
    fill="#A85432" />
  <path
    d="M20.8974 109.715C20.8974 109.715 14.3663 105.887 8.58594 100.557C10.0123 99.1306 11.8139 97.404 13.2403 96.0527C15.2671 101.983 21.7982 107.463 21.7982 107.463C21.7982 107.463 21.9483 108.815 20.8974 109.715Z"
    fill="url(#paint4_linear_544_16220)" />
  <path
    d="M85.906 78.4118C83.729 83.2163 81.6271 87.0448 79.6002 90.0476C78.5492 88.3961 77.3481 86.5944 76.4473 85.1681C78.5492 83.8169 81.0265 81.4897 84.2545 77.6611L85.906 78.4118Z"
    fill="url(#paint5_linear_544_16220)" />
  <path
    d="M76.4487 84.2666C77.0493 84.3417 80.5776 88.996 80.5776 89.5965C80.5776 90.1971 79.977 91.8486 79.3014 91.9988C78.6258 92.224 73.9714 86.4436 74.2717 85.768C74.572 85.0924 76.4487 84.2666 76.4487 84.2666Z"
    fill="url(#paint6_linear_544_16220)" />
  <path
    d="M47.8452 73.7573C48.746 74.3578 50.0222 74.0575 50.6228 73.1567C51.2233 72.2558 51.0732 71.1298 50.1724 70.5292C49.2715 69.9287 47.9954 70.229 47.3948 71.1298C46.7192 72.0306 46.9444 73.2318 47.8452 73.7573Z"
    fill="#995837" />
  <path
    d="M47.6206 73.6821C48.5214 74.2826 49.7976 73.9823 50.3982 73.0815C50.9987 72.1806 50.8486 71.0546 49.9478 70.454C49.0469 69.8535 47.7707 70.1538 47.1702 71.0546C46.4946 71.9555 46.7198 73.0815 47.6206 73.6821Z"
    fill="#485B78" />
  <path
    d="M49.7231 72.7058L47.8464 71.805C47.7713 71.7299 47.6963 71.6549 47.7713 71.5798C47.8464 71.5047 47.9215 71.4297 47.9965 71.5047L49.8733 72.4056C49.9483 72.4806 50.0234 72.5557 49.9483 72.6308C49.9483 72.7058 49.7982 72.7058 49.7231 72.7058Z"
    fill="#B3C9E2" />
  <path
    d="M48.5228 73.0063L49.5738 71.2797C49.6488 71.2047 49.5738 71.0545 49.4987 71.0545C49.4236 70.9795 49.2735 71.0545 49.2735 71.1296L48.2225 72.8562C48.1474 72.9313 48.2225 73.0814 48.2976 73.0814C48.3726 73.1565 48.4477 73.0814 48.5228 73.0063Z"
    fill="#B3C9E2" />
  <path
    d="M34.0354 74.433C34.9362 75.0336 36.2124 74.7333 36.8129 73.8325C37.4135 72.9316 37.2634 71.8056 36.3625 71.205C35.4617 70.6045 34.1855 70.9048 33.5849 71.8056C32.9844 72.7064 33.1345 73.9075 34.0354 74.433Z"
    fill="#995837" />
  <path
    d="M33.8843 74.3578C34.7851 74.9584 36.0613 74.6581 36.6619 73.7573C37.2624 72.8564 37.1123 71.7304 36.2114 71.1298C35.3106 70.5293 34.0344 70.8295 33.4339 71.7304C32.7582 72.6312 32.9834 73.7573 33.8843 74.3578Z"
    fill="#485B78" />
  <path
    d="M35.9868 73.3816L34.1101 72.4808C34.035 72.4057 33.9599 72.3307 34.035 72.2556C34.1101 72.1805 34.1851 72.1054 34.2602 72.1805L36.137 73.0813C36.212 73.1564 36.2871 73.2315 36.212 73.3066C36.212 73.3816 36.0619 73.3816 35.9868 73.3816Z"
    fill="#B3C9E2" />
  <path
    d="M34.7865 73.6821L35.8374 71.9555C35.9125 71.8804 35.8374 71.7303 35.7624 71.7303C35.6873 71.6552 35.5372 71.7303 35.5372 71.8054L34.4862 73.532C34.4111 73.6071 34.4862 73.7572 34.5612 73.7572C34.5612 73.8323 34.7114 73.7572 34.7865 73.6821Z"
    fill="#B3C9E2" />
  <path
    d="M48.2961 86.2191C48.8967 87.12 50.1729 87.3452 51.0737 86.8197C51.9745 86.2942 52.2748 85.0931 51.6743 84.1923C51.0737 83.2914 49.7975 83.0662 48.8967 83.5917C47.9208 84.1922 47.6956 85.3183 48.2961 86.2191Z"
    fill="#995837" />
  <path
    d="M48.1457 85.9935C48.7463 86.8944 50.0225 87.1196 50.9233 86.5941C51.8241 86.0686 52.1244 84.8675 51.5239 83.9667C50.9233 83.0658 49.6471 82.8406 48.7463 83.3661C47.7704 83.9667 47.5452 85.1678 48.1457 85.9935Z"
    fill="#485B78" />
  <path
    d="M50.472 85.9937L49.1208 84.4172C49.0457 84.3422 49.0457 84.192 49.1208 84.192C49.1958 84.117 49.346 84.117 49.421 84.192L50.7723 85.7685C50.8474 85.8436 50.8474 85.9937 50.7723 85.9937C50.6972 86.0688 50.5471 86.0688 50.472 85.9937Z"
    fill="#B3C9E2" />
  <path
    d="M49.1956 85.7681L50.8471 84.6421C50.9222 84.567 50.9222 84.4919 50.8471 84.4169C50.772 84.3418 50.697 84.3418 50.6219 84.3418L48.9704 85.4678C48.8953 85.5429 48.8953 85.618 48.9704 85.6931C49.0454 85.8432 49.1205 85.8432 49.1956 85.7681Z"
    fill="#B3C9E2" />
  <path
    d="M35.3844 88.321C36.135 89.0717 37.4112 89.1468 38.237 88.4712C39.0628 87.7955 39.1378 86.5944 38.3871 85.8437C37.6364 85.093 36.3603 85.018 35.5345 85.6936C34.7087 86.3692 34.6337 87.5703 35.3844 88.321Z"
    fill="#995837" />
  <path
    d="M35.1584 88.1706C35.9091 88.9213 37.1853 88.9964 38.0111 88.3208C38.8369 87.6452 38.9119 86.4441 38.1612 85.6934C37.4105 84.9427 36.1343 84.8676 35.3086 85.5432C34.5579 86.2188 34.4828 87.4199 35.1584 88.1706Z"
    fill="#485B78" />
  <path
    d="M37.4852 87.7206L35.8336 86.3694C35.7586 86.2943 35.7586 86.2193 35.8336 86.1442C35.9087 86.0691 35.9838 86.0691 36.1339 86.1442L37.7855 87.4954C37.8605 87.5705 37.8605 87.6456 37.7855 87.7206C37.7104 87.7957 37.5602 87.7957 37.4852 87.7206Z"
    fill="#B3C9E2" />
  <path
    d="M36.2092 87.7957L37.6356 86.3694C37.7106 86.2943 37.7106 86.2193 37.6356 86.1442C37.5605 86.0691 37.4104 86.0691 37.4104 86.1442L35.984 87.5705C35.909 87.6456 35.909 87.7206 35.984 87.7957C36.0591 87.8708 36.1342 87.8708 36.2092 87.7957Z"
    fill="#B3C9E2" />
  <path
    d="M44.9934 101.758C45.5939 102.659 46.8701 102.884 47.771 102.359C48.6718 101.833 48.9721 100.632 48.3715 99.7313C47.771 98.8305 46.4948 98.6053 45.5939 99.1308C44.618 99.7313 44.3928 100.932 44.9934 101.758Z"
    fill="#995837" />
  <path
    d="M44.843 101.533C45.4436 102.433 46.7197 102.659 47.6206 102.133C48.5214 101.608 48.8217 100.407 48.2211 99.5057C47.6206 98.6049 46.3444 98.3797 45.4436 98.9052C44.4677 99.5057 44.2424 100.707 44.843 101.533Z"
    fill="#485B78" />
  <path
    d="M47.1712 101.533L45.82 99.9563C45.7449 99.8813 45.7449 99.7311 45.82 99.7311C45.895 99.656 46.0452 99.656 46.1202 99.7311L47.4715 101.308C47.5466 101.383 47.5466 101.533 47.4715 101.533C47.3214 101.608 47.2463 101.608 47.1712 101.533Z"
    fill="#B3C9E2" />
  <path
    d="M45.8948 101.382L47.5463 100.256C47.6214 100.181 47.6214 100.106 47.5463 100.031C47.4713 99.9561 47.3962 99.9561 47.3211 99.9561L45.6696 101.082C45.5945 101.157 45.5945 101.232 45.6696 101.307C45.6696 101.382 45.8197 101.382 45.8948 101.382Z"
    fill="#B3C9E2" />
  <path
    d="M36.7359 102.058C37.4866 102.809 38.7628 102.884 39.5886 102.208C40.4143 101.533 40.4894 100.332 39.7387 99.581C38.988 98.8304 37.7118 98.7553 36.8861 99.4309C36.0603 100.107 35.9852 101.308 36.7359 102.058Z"
    fill="#995837" />
  <path
    d="M36.51 101.908C37.2607 102.659 38.5369 102.734 39.3626 102.058C40.1884 101.382 40.2635 100.181 39.5128 99.4306C38.7621 98.6799 37.4859 98.6049 36.6601 99.2805C35.9094 99.9561 35.8344 101.157 36.51 101.908Z"
    fill="#485B78" />
  <path
    d="M38.8367 101.457L37.1852 100.106C37.1101 100.031 37.1101 99.9556 37.1852 99.8805C37.2603 99.8055 37.3353 99.8055 37.4855 99.8805L39.137 101.232C39.2121 101.307 39.2121 101.382 39.137 101.457C39.062 101.532 38.9118 101.532 38.8367 101.457Z"
    fill="#B3C9E2" />
  <path
    d="M37.5608 101.532L38.9871 100.106C39.0622 100.031 39.0622 99.9556 38.9871 99.8805C38.9121 99.8055 38.7619 99.8055 38.7619 99.8805L37.3356 101.307C37.2605 101.382 37.2605 101.457 37.3356 101.532C37.4107 101.607 37.4857 101.607 37.5608 101.532Z"
    fill="#B3C9E2" />
  <path
    d="M23.5235 30.9671C22.2473 27.2136 19.9952 24.2108 17.8182 21.8837C15.7162 19.5565 30.0545 5.29325 41.7654 14.677C40.0388 21.2831 41.0898 26.3128 41.0898 26.3128C41.0898 26.3128 24.6495 34.3452 23.5235 30.9671Z"
    fill="url(#paint7_linear_544_16220)" />
  <path
    d="M48.9719 30.8924C45.3685 34.4957 35.7596 34.3456 31.4806 32.7691C31.1803 32.5439 47.6206 34.5708 49.2722 26.6885C50.3231 27.7395 50.5483 29.3159 48.9719 30.8924Z"
    fill="#993F24" />
  <path
    d="M41.3901 16.4791C41.4651 16.1038 41.5402 15.8035 41.7654 14.9777C30.0545 5.59403 15.7162 19.8573 17.8182 22.1844C17.9683 22.3346 19.0193 23.6108 19.1694 23.6858C19.8451 22.6349 20.3705 20.5329 21.2714 20.9083C23.1481 21.734 31.2557 21.8091 35.91 17.2298C39.7385 13.4764 40.7144 23.6108 40.7144 23.6108C40.7144 23.6108 40.7895 23.6108 40.9396 23.6108C40.7895 21.8842 40.8646 19.4069 41.3901 16.4791Z"
    fill="#D9D9D9" />
  <path
    d="M22.0981 1.54003C27.5782 -0.411783 33.2084 1.69017 35.4605 7.02012C37.4874 4.54282 46.8711 1.84031 46.4207 9.7977C45.9703 17.7551 36.8869 15.7282 34.7098 13.1008C33.1334 17.0044 24.4253 21.3584 19.9211 18.1304C20.0712 21.4335 15.3418 30.3668 9.2612 26.0878C3.10548 21.7338 7.23431 12.5002 14.1407 14.2268C13.39 10.098 15.1166 4.01733 22.0981 1.54003Z"
    fill="url(#paint8_linear_544_16220)" />
  <path
    d="M44.6192 5.21875C47.8472 11.1493 40.6405 15.2781 34.5599 11.2994C33.659 14.0019 26.9778 20.0826 19.1706 16.7044C18.4949 19.8573 14.8165 27.4394 6.93419 23.1604C6.85912 23.0854 6.78405 23.0853 6.70898 23.0853C7.1594 24.2114 7.98517 25.2624 9.18628 26.1632C15.342 30.5173 19.9963 21.5089 19.8462 18.2058C24.4254 21.3587 33.1335 17.0798 34.6349 13.1761C36.7369 15.8036 45.8954 17.8305 46.3458 9.87308C46.571 7.39578 45.8203 5.96945 44.6192 5.21875Z"
    fill="#F4F4F4" />
  <path
    d="M45.6689 29.3908C45.6689 29.3908 49.1221 34.5706 49.1221 36.2972C49.1221 38.0238 47.846 40.5011 48.3714 41.3269C49.4975 43.0535 48.6717 51.8366 48.7468 53.0378C48.972 55.1397 45.6689 57.4669 43.9423 57.0915C42.2157 56.7162 34.934 55.1397 32.7569 52.8876C30.655 50.5604 27.3519 41.5521 26.8264 40.5762C26.2259 39.6003 26.2259 35.3213 26.4511 34.1953C27.2018 29.5409 41.5401 27.8894 45.6689 29.3908Z"
    fill="url(#paint9_linear_544_16220)" />
  <path
    d="M31.4821 46.0567C30.5813 44.3301 29.155 34.571 31.4821 32.6943C35.0855 34.1206 45.0697 34.7963 48.9734 30.8926C52.877 26.989 45.8204 23.2355 42.3672 25.4125C43.2681 23.0854 39.5146 22.5599 36.737 26.5386C34.2597 29.166 26.9029 31.4181 23.75 31.268C18.7954 38.0243 29.8306 46.9576 29.8306 46.9576C30.5062 47.5581 31.4821 46.0567 31.4821 46.0567Z"
    fill="#A85432" />
  <path
    d="M49.1231 36.2978C49.1231 36.1477 49.1231 35.9225 49.048 35.6973C48.7477 35.7723 48.3724 35.7723 48.0721 35.8474C47.4715 35.9225 46.871 36.0726 46.2704 36.1477C45.5948 36.2978 44.8441 36.3729 44.3937 36.8984C44.0183 37.3488 43.8682 37.9493 43.7931 38.5499C43.7181 39.2255 43.7931 39.9012 43.9433 40.5768C44.0934 41.2524 44.3186 41.9281 44.6189 42.5286C45.1444 43.9549 45.7449 45.3813 46.4956 46.7325C46.6458 47.0328 46.871 47.3331 47.1713 47.5583C47.5466 47.7835 47.997 47.7835 48.4474 47.7835C48.5976 47.7835 48.6727 47.7835 48.8228 47.7835C48.8979 45.081 48.8979 42.0782 48.2222 41.1773C47.8469 40.5017 49.1231 38.0244 49.1231 36.2978Z"
    fill="#E39E7D" />
  <path
    d="M24.2755 107.313C24.2004 106.788 22.5489 106.788 21.2727 106.938C21.0475 106.713 21.0475 107.388 20.7472 107.088C18.2699 109.04 12.2644 103.109 11.9641 101.308C11.889 100.857 13.3153 99.0555 14.066 97.9295C13.7657 97.3289 13.4655 96.6533 13.2403 96.0527C11.7389 97.404 10.0123 99.1306 8.58594 100.557C13.0151 104.611 17.8195 107.764 19.9215 109.115C19.9965 109.19 20.0716 109.265 20.1467 109.34C20.8223 109.791 21.7231 110.466 22.3237 110.766C23.3747 111.292 24.3506 107.914 24.2755 107.313Z"
    fill="#F9E9E4" />
  <path
    d="M49.1229 35.5469C47.3963 35.8472 45.4445 36.1474 44.7689 36.748C44.3935 37.1233 44.6187 38.0992 44.919 38.1743C46.1201 38.4746 49.7986 38.2494 49.9487 37.3486C50.1739 36.5228 49.1229 35.5469 49.1229 35.5469Z"
    fill="#993F24" />
  <path
    d="M41.2408 37.6485C40.5652 36.6726 35.01 35.7718 34.1843 36.5225C33.2834 37.2732 33.2084 39.3 34.0341 39.225C35.2353 39.0748 40.6403 39.3 40.9406 38.6995C41.2408 38.0989 41.391 37.8737 41.2408 37.6485Z"
    fill="#993F24" />
  <path
    d="M46.1953 42.303C46.1953 43.1288 46.6457 43.8795 47.1712 43.8795C47.6967 43.8795 48.1471 43.2038 48.1471 42.303C48.1471 41.4022 47.6967 40.7266 47.1712 40.7266C46.5707 40.7266 46.1953 41.4022 46.1953 42.303Z"
    fill="#403331" />
  <path
    d="M48.972 48.234C47.7709 48.159 46.2695 48.0839 44.5429 48.0088C36.8107 53.1886 31.3306 48.3842 30.2796 45.6816L29.9043 47.5584C30.8802 49.8105 32.0062 51.9124 32.9071 52.8883C35.009 55.2155 42.3659 56.7169 44.0925 57.0922C45.8191 57.4676 49.1222 55.1404 48.8969 53.0385C48.7468 52.513 48.8969 50.4861 48.972 48.234Z"
    fill="#DAAB92" />
  <path
    d="M40.8652 49.0594C40.9403 50.711 42.0664 51.9872 44.0182 51.9872C45.4445 51.9872 46.6456 50.6359 46.7207 48.9844L40.8652 49.0594Z"
    fill="#27242D" />
  <path
    d="M44.094 50.561C45.0699 50.561 45.9707 49.9604 46.4212 49.0596L41.3164 49.1346C41.7668 49.9604 42.7427 50.4859 44.094 50.561Z"
    fill="#F8F8F2" />
  <path
    d="M27.7285 69.4033C28.1789 71.3551 31.9324 81.7148 32.1576 84.9428C32.3828 88.1708 33.9593 107.013 33.9593 107.013C33.9593 107.013 32.0075 107.839 32.4579 107.088C32.608 106.863 31.7072 87.4951 31.1817 83.8918C30.6562 80.2134 27.7285 69.4033 27.7285 69.4033Z"
    fill="#EAD0C0" />
  <path
    d="M43.7175 36.5225C43.7175 36.5225 46.5702 42.0776 48.6721 46.1314C47.3959 47.7078 43.3422 47.2574 43.2671 47.0322C43.192 46.807 43.7175 36.5225 43.7175 36.5225Z"
    fill="url(#paint10_linear_544_16220)" />
  <path
    d="M37.7129 43.0537C37.7129 44.0296 38.1633 44.7804 38.7639 44.7804C39.3644 44.7804 39.8148 44.0296 39.8148 43.0537C39.8148 42.0778 39.3644 41.3271 38.7639 41.3271C38.1633 41.3271 37.7129 42.0778 37.7129 43.0537Z"
    fill="#403331" />
  <path
    d="M14.0657 96.9533C13.2399 97.629 10.162 101.683 9.26119 101.608C8.36036 101.533 6.40854 100.106 6.70882 99.5057C7.0091 98.9051 13.39 94.1007 13.4651 94.7012C13.5402 95.2267 14.0657 96.9533 14.0657 96.9533Z"
    fill="url(#paint11_linear_544_16220)" />
  <path
    d="M31.481 46.0564C31.481 46.0564 30.5051 47.5578 29.7544 47.0324C29.7544 47.0324 18.7192 38.1741 23.6738 31.3428C23.9741 31.3428 24.3494 31.3428 24.7248 31.3428C23.5987 35.3965 24.4995 42.0778 30.8054 43.6542C31.0306 45.0055 31.1807 45.3808 31.481 46.0564Z"
    fill="#993F24" />
  <path
    d="M29.2288 44.7804C28.3279 43.6544 25.9257 41.3272 24.1991 42.0779C22.4725 42.9037 22.6226 46.3569 25.2501 47.0325C27.9526 47.7832 30.58 47.7082 30.505 47.483C30.505 47.3328 29.2288 44.7804 29.2288 44.7804Z"
    fill="#F7D2B0" />
  <path
    d="M27.2024 44.6299C26.3766 43.9543 25.4758 43.4288 24.8752 43.9543C24.0495 44.7801 24.8752 45.6809 25.5508 45.9812C24.8752 44.7801 25.8511 44.5548 27.2024 44.6299Z"
    fill="#DE9574" />
  <path
    d="M36.6606 26.5381C34.1833 29.1655 26.8265 31.4176 23.6736 31.2675C23.5985 31.3425 23.5985 31.4176 23.5234 31.4927C26.3761 31.9431 31.8562 31.4927 35.1592 28.9403C38.9878 25.9375 38.2371 24.0608 41.9155 23.8356C41.0147 23.1599 38.6125 23.7605 36.6606 26.5381Z"
    fill="#993F24" />
  <path
    d="M48.2216 26.5389C44.6934 23.6112 37.0363 29.5417 37.7119 31.3433C38.4626 33.2201 52.2754 29.917 48.2216 26.5389Z"
    fill="url(#paint12_linear_544_16220)" />
  <path
    d="M80.2762 88.9213C80.4263 89.2216 80.5764 89.4468 80.5764 89.597C80.5764 90.1975 79.9759 91.774 79.3003 91.9992C79.1501 91.9992 78.9249 91.849 78.5496 91.5488C68.4902 105.662 60.8331 99.281 55.0527 88.9213C55.8785 84.4922 56.6292 79.3875 57.0796 74.583C55.7284 86.6692 61.4337 95.6025 68.8656 95.9028C71.4179 95.9779 74.6459 93.951 77.6487 90.723C77.7989 90.5729 77.4235 90.4978 77.4986 90.3477C80.6515 86.8194 83.9546 81.9398 85.9064 78.4116C83.9546 82.6155 82.0778 86.1438 80.2762 88.9213Z"
    fill="#F4F4F4" />
  <path
    d="M33.8084 105.587C33.7333 105.587 33.6583 105.512 33.6583 105.437C33.6583 105.287 32.3821 91.9994 32.0818 85.7686C31.9317 82.3904 30.4303 78.1115 29.3042 74.7333C28.3283 71.8056 27.5026 69.5535 27.8028 68.6527C28.3283 67.0762 32.3821 65.725 34.7843 64.9743C35.3849 64.8241 35.8353 64.674 36.0605 64.5238C37.1865 64.0734 37.712 61.2959 37.712 60.2449C37.712 60.1698 37.7871 60.0947 37.8622 60.0947C37.9372 60.0947 38.0123 60.1698 38.0123 60.2449C38.0123 61.0706 37.4868 64.2236 36.1356 64.7491C35.9104 64.8241 35.3849 64.9742 34.8594 65.1995C32.6824 65.9502 28.5535 67.2263 28.1031 68.6527C27.8779 69.4784 28.6286 71.8056 29.6045 74.5832C30.8056 78.0364 32.2319 82.3154 32.4572 85.6935C32.7574 91.8492 34.0336 105.212 34.0336 105.287C33.9585 105.512 33.8835 105.587 33.8084 105.587Z"
    fill="#485B78" />
  <path
    d="M24.4254 98.0793C24.4254 93.5751 23.2243 87.7947 22.6237 80.6631C3.70616 87.3443 10.3123 94.3258 11.2131 95.677C12.0389 96.9532 11.8888 96.8781 12.189 98.9801C12.9397 98.0793 13.6904 97.3286 13.9907 97.0283C13.9907 97.0283 13.4652 95.3017 13.3902 94.7011C13.3902 94.6261 13.1649 94.6261 12.8647 94.7762C12.4893 93.0496 12.5644 91.3981 13.3151 89.8216C14.291 87.7947 18.1946 85.8429 21.873 84.3415C22.6237 88.9958 23.0742 93.5751 23.3744 97.4037C23.5996 100.557 23.6747 103.184 23.7498 104.911C23.7498 106.412 23.7498 107.238 23.7498 107.238H25.2512L48.8231 107.088C48.8231 107.088 49.2735 105.962 49.9491 104.16C33.3587 106.487 26.8276 100.782 24.4254 98.0793Z"
    fill="#D9D9D9" />
  <path
    d="M22.6974 105.586L22.0218 105.511C22.0218 105.511 17.7428 116.096 15.791 126.456C21.0459 131.636 32.0061 135.464 36.0598 136.065C40.489 136.815 47.7707 137.716 53.7012 136.965C53.0256 132.611 51.8245 116.321 48.9718 108.364C49.4222 108.139 50.3231 107.238 50.8486 104.46C36.4352 107.688 24.6492 102.058 22.1719 98.8301C22.1719 98.8301 21.6464 102.133 22.4722 105.286C22.5473 105.436 22.6224 105.511 22.6974 105.586Z"
    fill="#485B78" />
  <path
    d="M50.6236 105.436C48.6718 105.962 42.2158 107.839 36.0601 106.487C28.7784 104.986 23.5235 102.133 22.0221 101.308C22.0221 102.434 22.0971 103.86 22.4725 105.286C22.5476 105.361 22.6977 105.436 22.7728 105.512L22.0971 105.436C22.0971 105.436 22.0221 105.737 21.7969 106.262C22.4725 107.013 37.2612 115.871 49.7228 110.466C49.4976 109.715 49.2724 108.965 49.0472 108.289C49.2724 108.139 50.0231 107.463 50.6236 105.436Z"
    fill="#97A0AD" />
  <path
    d="M21.7211 102.284C20.8954 101.908 21.3458 105.887 21.7211 106.413C22.0965 106.938 37.2606 114.295 49.7972 109.716C51.0734 108.439 50.7731 106.112 50.0975 106.187C49.4219 106.262 43.0409 108.064 35.9844 106.863C28.2522 105.587 22.8472 102.809 21.7211 102.284Z"
    fill="#BBBBBB" />
  <path
    d="M48.5977 120.3L46.0453 114.67L45.6699 112.193C46.0453 112.042 46.3456 111.892 46.4206 111.517C46.7209 110.541 44.9192 109.415 44.9192 109.415C43.0425 110.016 43.1926 111.442 43.7181 111.967V114.219L41.0156 119.549C41.5411 120 42.9674 120.6 43.568 120.45L43.4929 124.804C44.619 125.18 45.2195 125.105 45.2195 125.105L44.9192 113.394L46.2705 128.258L47.7719 127.732L46.8711 121.426C47.4716 121.426 48.0722 120.751 48.5977 120.3Z"
    fill="#97A0AD" />
  <path
    d="M47.6964 120L44.8438 111.893C45.2191 111.743 45.5194 111.593 45.5945 111.217C45.8948 110.241 44.6936 109.19 44.0931 109.115C42.0662 108.89 42.3665 111.142 42.892 111.668L40.1895 119.325C40.7149 119.775 42.1413 120.376 42.7418 120.226L42.6668 124.58C43.7928 124.955 44.3934 124.88 44.3934 124.88L44.0931 113.169L45.4443 128.033L46.9457 127.507L46.0449 121.202C46.5704 121.127 47.1709 120.451 47.6964 120Z"
    fill="#485B78" />
  <path
    d="M20.446 107.013C21.7222 106.788 24.1995 106.713 24.2745 107.313C24.3496 107.914 23.3737 111.217 22.3978 110.767C21.7972 110.466 20.8213 109.791 20.2208 109.34C19.7704 108.965 19.395 108.515 19.395 107.914C19.2449 107.464 19.395 107.163 20.446 107.013Z"
    fill="#F7D2B0" />
  <path
    d="M20.446 107.013C21.7222 106.788 24.1995 106.713 24.2745 107.313C24.3496 107.914 23.3737 111.217 22.3978 110.767C21.7972 110.466 20.8213 109.791 20.2208 109.34C19.7704 108.965 19.395 108.515 19.395 107.914C19.2449 107.464 19.395 107.163 20.446 107.013Z"
    fill="#F9E9E4" />
  <path
    d="M84.1809 77.661C83.4302 78.5618 82.6795 79.3876 82.0039 80.1383C82.9798 80.2134 83.9557 80.2885 84.9316 80.2885C85.2319 79.6879 85.5322 79.0873 85.8325 78.4117C86.6582 79.2375 86.5081 79.3876 87.3339 79.3126C88.1596 79.2375 90.1865 77.5859 90.1865 77.5859L84.1809 77.661Z"
    fill="#F9E9E4" />
  <path
    d="M89.7359 78.1864C102.464 78.1864 112.782 76.4723 112.782 74.3579C112.782 72.2434 102.464 70.5293 89.7359 70.5293C77.0077 70.5293 66.6895 72.2434 66.6895 74.3579C66.6895 76.4723 77.0077 78.1864 89.7359 78.1864Z"
    fill="url(#paint13_linear_544_16220)" />
  <path
    d="M90.0372 77.3606C78.1762 77.3606 68.3421 75.8592 66.9158 73.9824C66.8407 74.1326 66.7656 74.2827 66.7656 74.4328C66.7656 76.5348 77.0502 78.2614 89.812 78.2614C102.574 78.2614 112.858 76.5348 112.858 74.4328C110.306 76.0844 101.072 77.3606 90.0372 77.3606Z"
    fill="url(#paint14_linear_544_16220)" />
  <path
    d="M88.9102 50.0352C65.5635 50.3355 69.5422 73.9074 69.5422 73.9074C69.5422 75.3337 78.4005 76.4597 89.2856 76.4597C100.171 76.4597 109.029 75.3337 109.029 73.9074C109.254 72.1808 111.731 49.7349 88.9102 50.0352Z"
    fill="url(#paint15_radial_544_16220)" />
  <path
    d="M97.9941 51.4619C109.555 62.7974 98.5196 74.133 85.3074 74.3582C78.7763 74.5083 72.9959 73.9828 69.3926 73.3072C69.4676 73.6826 69.4677 73.9078 69.4677 73.9078C69.4677 75.3341 78.3259 76.4601 89.211 76.4601C100.096 76.4601 108.954 75.3341 108.954 73.9078C109.18 72.4064 110.981 56.4165 97.9941 51.4619Z"
    fill="url(#paint16_linear_544_16220)" />
  <path
    d="M89.9619 49.9605C89.061 49.9605 88.0851 50.6361 90.0369 50.7112C92.0638 50.8613 92.5893 50.486 91.9137 50.1857C91.238 49.8854 89.9619 49.9605 89.9619 49.9605Z"
    fill="url(#paint17_linear_544_16220)" />
  <path
    d="M88.9848 50.4106C88.6094 49.5098 88.3091 48.0084 88.159 46.507C87.9338 45.1557 91.387 45.2308 91.3119 46.507C91.2369 47.8582 90.8615 49.5848 90.5612 50.4106C90.1108 50.861 88.9848 50.5608 88.9848 50.4106Z"
    fill="url(#paint18_radial_544_16220)" />
  <path opacity="0.28"
    d="M88.084 46.2068C88.6845 46.432 89.135 46.5071 89.8106 46.5071C90.261 46.5071 90.7865 46.3569 91.2369 46.2819C91.0868 45.2309 88.3092 45.1558 88.084 46.2068Z"
    fill="url(#paint19_linear_544_16220)" />
  <path opacity="0.28"
    d="M88.1597 50.3359C84.4062 50.411 76.674 51.6121 72.6953 58.0681C74.4219 58.7437 77.1244 59.044 77.5748 59.044C78.6258 56.2665 84.256 51.6121 88.1597 50.3359Z"
    fill="url(#paint20_linear_544_16220)" />
  <path opacity="0.28"
    d="M69.4668 73.3065C69.5419 73.757 69.5419 73.9822 69.5419 73.9822C69.5419 75.4085 78.4001 76.5345 89.2852 76.5345C100.17 76.5345 109.029 75.4085 109.029 73.9822C109.104 73.6068 109.179 72.4808 109.179 70.9043C106.326 75.1833 79.1508 77.1351 69.4668 73.3065Z"
    fill="url(#paint21_linear_544_16220)" />
  <path d="M42.892 111.668L41.5407 120.076L40.1895 119.325L42.892 111.668Z" fill="#BBBBBB" />
  <path
    d="M43.793 111.968C43.9431 112.043 44.2434 121.201 44.919 121.276C45.5946 121.351 46.4955 121.201 46.6456 120.976C46.7958 120.751 44.2434 111.893 44.2434 111.893L43.793 111.968Z"
    fill="#BBBBBB" />
  <path
    d="M43.7178 109.115C42.6669 109.115 42.3666 110.391 42.5918 110.917C42.817 111.442 43.7929 111.217 44.1683 110.917C44.6938 110.391 44.7688 109.115 43.7178 109.115Z"
    fill="#BBBBBB" />
  <path d="M45.5185 127.958L46.1942 127.808L44.918 121.577L45.5185 127.958Z" fill="#BBBBBB" />
  <defs>
    <linearGradient id="paint0_linear_544_16220" x1="35.8291" y1="62.754" x2="71.9437" y2="152.883"
      gradientUnits="userSpaceOnUse">
      <stop stop-color="#EEC4B1" />
      <stop offset="0.5" stop-color="#E4A68C" />
      <stop offset="0.5724" stop-color="#E3A287" />
      <stop offset="1" stop-color="#DD8F70" />
    </linearGradient>
    <linearGradient id="paint1_linear_544_16220" x1="41.8342" y1="62.4752" x2="101.059" y2="117.386"
      gradientUnits="userSpaceOnUse">
      <stop stop-color="#FCF2E9" />
      <stop offset="0.5" stop-color="#F9EBDC" />
      <stop offset="1" stop-color="#EACAB8" />
    </linearGradient>
    <linearGradient id="paint2_linear_544_16220" x1="-0.115226" y1="83.0185" x2="79.5585"
      y2="83.0185" gradientUnits="userSpaceOnUse">
      <stop stop-color="#D9D9D9" />
      <stop offset="0.3933" stop-color="white" />
      <stop offset="0.4849" stop-color="#F9FAFC" />
      <stop offset="0.6092" stop-color="#E8EDF3" />
      <stop offset="0.7521" stop-color="#CBD7E4" />
      <stop offset="0.9078" stop-color="#A4B9D0" />
      <stop offset="1" stop-color="#BBBBBB" />
    </linearGradient>
    <linearGradient id="paint3_linear_544_16220" x1="38.675" y1="49.8658" x2="41.6961" y2="160.839"
      gradientUnits="userSpaceOnUse">
      <stop stop-color="#D9D9D9" />
      <stop offset="0.3933" stop-color="white" />
      <stop offset="0.4849" stop-color="#F9FAFC" />
      <stop offset="0.6092" stop-color="#E8EDF3" />
      <stop offset="0.7521" stop-color="#CBD7E4" />
      <stop offset="0.9078" stop-color="#A4B9D0" />
      <stop offset="1" stop-color="#BBBBBB" />
    </linearGradient>
    <linearGradient id="paint4_linear_544_16220" x1="19.4215" y1="109.875" x2="6.58209" y2="91.8995"
      gradientUnits="userSpaceOnUse">
      <stop offset="0.00224557" stop-color="#F7D2B0" />
      <stop offset="0.9968" stop-color="#D9AD97" />
    </linearGradient>
    <linearGradient id="paint5_linear_544_16220" x1="78.3097" y1="87.2035" x2="89.6386" y2="71.9473"
      gradientUnits="userSpaceOnUse">
      <stop offset="0.00224557" stop-color="#F7D2B0" />
      <stop offset="0.9975" stop-color="#E7B791" />
    </linearGradient>
    <linearGradient id="paint6_linear_544_16220" x1="75.9438" y1="84.2017" x2="81.9859" y2="98.8538"
      gradientUnits="userSpaceOnUse">
      <stop offset="0.0024858" stop-color="#F7F0E8" />
      <stop offset="0.9998" stop-color="#EAD0C0" />
    </linearGradient>
    <linearGradient id="paint7_linear_544_16220" x1="17.2175" y1="26.5645" x2="51.7101" y2="12.3333"
      gradientUnits="userSpaceOnUse">
      <stop stop-color="#F4F4F4" />
      <stop offset="0.3933" stop-color="white" />
      <stop offset="0.4849" stop-color="#F9FAFC" />
      <stop offset="0.6092" stop-color="#E8EDF3" />
      <stop offset="0.7521" stop-color="#CBD7E4" />
      <stop offset="0.9078" stop-color="#A4B9D0" />
      <stop offset="1" stop-color="#BBBBBB" />
    </linearGradient>
    <linearGradient id="paint8_linear_544_16220" x1="19.79" y1="-10.297" x2="30.1618" y2="29.5021"
      gradientUnits="userSpaceOnUse">
      <stop stop-color="#D9D9D9" />
      <stop offset="0.3933" stop-color="white" />
      <stop offset="0.4849" stop-color="#F9FAFC" />
      <stop offset="0.6092" stop-color="#E8EDF3" />
      <stop offset="0.7521" stop-color="#CBD7E4" />
      <stop offset="0.9078" stop-color="#A4B9D0" />
      <stop offset="1" stop-color="#D9D9D9" />
    </linearGradient>
    <linearGradient id="paint9_linear_544_16220" x1="36.8919" y1="31.1441" x2="44.2934" y2="83.4082"
      gradientUnits="userSpaceOnUse">
      <stop offset="0.00224557" stop-color="#F7D2B0" />
      <stop offset="0.9975" stop-color="#E7B791" />
    </linearGradient>
    <linearGradient id="paint10_linear_544_16220" x1="41.8686" y1="35.8184" x2="53.0783"
      y2="65.0776" gradientUnits="userSpaceOnUse">
      <stop offset="0.00224557" stop-color="#F7D2B0" />
      <stop offset="0.9975" stop-color="#E7B791" />
    </linearGradient>
    <linearGradient id="paint11_linear_544_16220" x1="53.292" y1="62.5175" x2="57.0683" y2="59.3453"
      gradientUnits="userSpaceOnUse">
      <stop offset="0.0024858" stop-color="#F7F0E8" />
      <stop offset="0.9998" stop-color="#EAD0C0" />
    </linearGradient>
    <linearGradient id="paint12_linear_544_16220" x1="37.6974" y1="28.8471" x2="48.953" y2="28.8471"
      gradientUnits="userSpaceOnUse">
      <stop stop-color="#A85432" />
      <stop offset="0.9863" stop-color="#B76732" />
      <stop offset="1" stop-color="#B77032" />
    </linearGradient>
    <linearGradient id="paint13_linear_544_16220" x1="121.254" y1="72.0388" x2="54.3379"
      y2="77.0235" gradientUnits="userSpaceOnUse">
      <stop offset="0.00047" stop-color="#E1DFE0" />
      <stop offset="0.9993" stop-color="#B8B1B6" />
    </linearGradient>
    <linearGradient id="paint14_linear_544_16220" x1="66.7207" y1="76.0961" x2="112.741"
      y2="76.0961" gradientUnits="userSpaceOnUse">
      <stop offset="0.00047" stop-color="#F3F2F3" />
      <stop offset="0.9995" stop-color="#D9D9D9" />
    </linearGradient>
    <radialGradient id="paint15_radial_544_16220" cx="0" cy="0" r="1" gradientUnits="userSpaceOnUse"
      gradientTransform="translate(81.0194 56.176) scale(43.4195 43.4195)">
      <stop stop-color="#F4F4F4" />
      <stop offset="0.3524" stop-color="#B7AFB4" />
      <stop offset="0.523" stop-color="#A29A9E" />
      <stop offset="0.7408" stop-color="#A29A9E" />
      <stop offset="1" stop-color="#A29A9E" />
    </radialGradient>
    <linearGradient id="paint16_linear_544_16220" x1="122.113" y1="52.8808" x2="101.268"
      y2="64.0587" gradientUnits="userSpaceOnUse">
      <stop stop-color="#D9D9D9" />
      <stop offset="0.9985" stop-color="white" />
    </linearGradient>
    <linearGradient id="paint17_linear_544_16220" x1="88.9211" y1="50.3856" x2="92.201" y2="50.3856"
      gradientUnits="userSpaceOnUse">
      <stop stop-color="#D9D9D9" />
      <stop offset="0.9985" stop-color="white" />
    </linearGradient>
    <radialGradient id="paint18_radial_544_16220" cx="0" cy="0" r="1" gradientUnits="userSpaceOnUse"
      gradientTransform="translate(87.2623 41.3224) scale(10.3193 10.3193)">
      <stop stop-color="#D9D9D9" />
      <stop offset="0.3513" stop-color="#EEE4ED" />
      <stop offset="0.3616" stop-color="#D9D9D9" />
      <stop offset="0.5273" stop-color="#C4BBC1" />
      <stop offset="0.6578" stop-color="#ABA3A7" />
      <stop offset="0.7362" stop-color="#A29A9E" />
      <stop offset="0.8749" stop-color="#A39BA0" />
      <stop offset="0.9248" stop-color="#A89DA7" />
      <stop offset="0.9604" stop-color="#B1A0B2" />
      <stop offset="0.989" stop-color="#BEA5C3" />
      <stop offset="1" stop-color="#F4F4F4" />
    </radialGradient>
    <linearGradient id="paint19_linear_544_16220" x1="88.1193" y1="46.0086" x2="91.2807"
      y2="46.0086" gradientUnits="userSpaceOnUse">
      <stop offset="0.00047" stop-color="#BBBBBB" />
      <stop offset="0.9995" stop-color="#7A7A7A" />
    </linearGradient>
    <linearGradient id="paint20_linear_544_16220" x1="84.5382" y1="48.1986" x2="76.0793"
      y2="60.5849" gradientUnits="userSpaceOnUse">
      <stop stop-color="#E2E1E5" />
      <stop offset="0.9995" stop-color="#282B2F" />
    </linearGradient>
    <linearGradient id="paint21_linear_544_16220" x1="69.45" y1="73.6652" x2="109.192" y2="73.6652"
      gradientUnits="userSpaceOnUse">
      <stop stop-color="#E2E1E5" />
      <stop offset="0.999" stop-color="#B7B0B5" />
    </linearGradient>
  </defs>
</svg>