<svg width="269" height="233" viewBox="0 0 269 233" fill="none" xmlns="http://www.w3.org/2000/svg">
  <path d="M233.645 0H68.041V227.161H233.645V0Z" fill="#E6E7E8" />
  <path d="M228.539 5.55566H62.9355V232.717H228.539V5.55566Z" fill="white" />
  <path
    d="M73.0444 23.2049H70.944C70.8198 22.6007 70.6024 22.07 70.2919 21.6126C69.9869 21.1553 69.6143 20.7713 69.1739 20.4608C68.7391 20.1446 68.2564 19.9074 67.7256 19.7493C67.1949 19.5912 66.6415 19.5122 66.0656 19.5122C65.0154 19.5122 64.064 19.7776 63.2114 20.3083C62.3644 20.8391 61.6897 21.6211 61.1872 22.6544C60.6903 23.6876 60.4419 24.9552 60.4419 26.4572C60.4419 27.9591 60.6903 29.2267 61.1872 30.2599C61.6897 31.2932 62.3644 32.0752 63.2114 32.606C64.064 33.1367 65.0154 33.4021 66.0656 33.4021C66.6415 33.4021 67.1949 33.3231 67.7256 33.165C68.2564 33.0069 68.7391 32.7725 69.1739 32.462C69.6143 32.1458 69.9869 31.759 70.2919 31.3017C70.6024 30.8387 70.8198 30.3079 70.944 29.7094H73.0444C72.8863 30.5959 72.5984 31.3892 72.1805 32.0893C71.7627 32.7895 71.2433 33.3852 70.6222 33.8764C70.0011 34.362 69.3037 34.7318 68.5302 34.9859C67.7623 35.24 66.9408 35.367 66.0656 35.367C64.5863 35.367 63.2707 35.0057 62.1188 34.2829C60.967 33.5602 60.0607 32.5326 59.4001 31.2001C58.7395 29.8675 58.4092 28.2866 58.4092 26.4572C58.4092 24.6278 58.7395 23.0468 59.4001 21.7143C60.0607 20.3817 60.967 19.3541 62.1188 18.6314C63.2707 17.9086 64.5863 17.5473 66.0656 17.5473C66.9408 17.5473 67.7623 17.6743 68.5302 17.9284C69.3037 18.1825 70.0011 18.5551 70.6222 19.0464C71.2433 19.532 71.7627 20.1248 72.1805 20.825C72.5984 21.5195 72.8863 22.3128 73.0444 23.2049ZM91.0738 26.4572C91.0738 28.2866 90.7435 29.8675 90.0829 31.2001C89.4222 32.5326 88.516 33.5602 87.3642 34.2829C86.2123 35.0057 84.8967 35.367 83.4174 35.367C81.9381 35.367 80.6225 35.0057 79.4706 34.2829C78.3188 33.5602 77.4125 32.5326 76.7519 31.2001C76.0913 29.8675 75.761 28.2866 75.761 26.4572C75.761 24.6278 76.0913 23.0468 76.7519 21.7143C77.4125 20.3817 78.3188 19.3541 79.4706 18.6314C80.6225 17.9086 81.9381 17.5473 83.4174 17.5473C84.8967 17.5473 86.2123 17.9086 87.3642 18.6314C88.516 19.3541 89.4222 20.3817 90.0829 21.7143C90.7435 23.0468 91.0738 24.6278 91.0738 26.4572ZM89.0411 26.4572C89.0411 24.9552 88.7899 23.6876 88.2873 22.6544C87.7905 21.6211 87.1157 20.8391 86.2631 20.3083C85.4162 19.7776 84.4676 19.5122 83.4174 19.5122C82.3672 19.5122 81.4158 19.7776 80.5632 20.3083C79.7162 20.8391 79.0415 21.6211 78.539 22.6544C78.0421 23.6876 77.7937 24.9552 77.7937 26.4572C77.7937 27.9591 78.0421 29.2267 78.539 30.2599C79.0415 31.2932 79.7162 32.0752 80.5632 32.606C81.4158 33.1367 82.3672 33.4021 83.4174 33.4021C84.4676 33.4021 85.4162 33.1367 86.2631 32.606C87.1157 32.0752 87.7905 31.2932 88.2873 30.2599C88.7899 29.2267 89.0411 27.9591 89.0411 26.4572ZM108.36 17.7844V35.1299H106.327L96.8754 21.511H96.706V35.1299H94.6056V17.7844H96.6382L106.124 31.4372H106.293V17.7844H108.36ZM111.614 19.6477V17.7844H124.623V19.6477H119.169V35.1299H117.069V19.6477H111.614ZM127.865 35.1299V17.7844H133.726C135.081 17.7844 136.193 18.0159 137.063 18.4789C137.932 18.9363 138.576 19.5658 138.994 20.3676C139.412 21.1694 139.621 22.0813 139.621 23.1032C139.621 24.1252 139.412 25.0315 138.994 25.8219C138.576 26.6124 137.935 27.2335 137.071 27.6852C136.208 28.1313 135.104 28.3543 133.76 28.3543H129.017V26.4572H133.692C134.618 26.4572 135.363 26.3216 135.928 26.0506C136.498 25.7796 136.911 25.3956 137.165 24.8988C137.424 24.3963 137.554 23.7977 137.554 23.1032C137.554 22.4088 137.424 21.8018 137.165 21.2823C136.905 20.7629 136.49 20.362 135.92 20.0797C135.349 19.7917 134.596 19.6477 133.658 19.6477H129.966V35.1299H127.865ZM136.03 27.338L140.298 35.1299H137.859L133.658 27.338H136.03ZM143.832 35.1299H141.63L147.999 17.7844H150.167L156.536 35.1299H154.334L149.151 20.5285H149.015L143.832 35.1299ZM144.645 28.3543H153.521V30.2176H144.645V28.3543ZM172.381 23.2049H170.28C170.156 22.6007 169.939 22.07 169.628 21.6126C169.323 21.1553 168.95 20.7713 168.51 20.4608C168.075 20.1446 167.593 19.9074 167.062 19.7493C166.531 19.5912 165.978 19.5122 165.402 19.5122C164.352 19.5122 163.4 19.7776 162.548 20.3083C161.701 20.8391 161.026 21.6211 160.523 22.6544C160.026 23.6876 159.778 24.9552 159.778 26.4572C159.778 27.9591 160.026 29.2267 160.523 30.2599C161.026 31.2932 161.701 32.0752 162.548 32.606C163.4 33.1367 164.352 33.4021 165.402 33.4021C165.978 33.4021 166.531 33.3231 167.062 33.165C167.593 33.0069 168.075 32.7725 168.51 32.462C168.95 32.1458 169.323 31.759 169.628 31.3017C169.939 30.8387 170.156 30.3079 170.28 29.7094H172.381C172.223 30.5959 171.935 31.3892 171.517 32.0893C171.099 32.7895 170.579 33.3852 169.958 33.8764C169.337 34.362 168.64 34.7318 167.866 34.9859C167.098 35.24 166.277 35.367 165.402 35.367C163.922 35.367 162.607 35.0057 161.455 34.2829C160.303 33.5602 159.397 32.5326 158.736 31.2001C158.076 29.8675 157.745 28.2866 157.745 26.4572C157.745 24.6278 158.076 23.0468 158.736 21.7143C159.397 20.3817 160.303 19.3541 161.455 18.6314C162.607 17.9086 163.922 17.5473 165.402 17.5473C166.277 17.5473 167.098 17.6743 167.866 17.9284C168.64 18.1825 169.337 18.5551 169.958 19.0464C170.579 19.532 171.099 20.1248 171.517 20.825C171.935 21.5195 172.223 22.3128 172.381 23.2049ZM174.826 19.6477V17.7844H187.835V19.6477H182.381V35.1299H180.28V19.6477H174.826Z"
    fill="#F44336" />
  <path
    d="M193.407 206.968C198.092 206.968 201.89 203.17 201.89 198.485C201.89 193.8 198.092 190.002 193.407 190.002C188.722 190.002 184.924 193.8 184.924 198.485C184.924 203.17 188.722 206.968 193.407 206.968Z"
    fill="#F44336" />
  <path
    d="M193.406 211.922C200.828 211.922 206.844 205.906 206.844 198.484C206.844 191.063 200.828 185.047 193.406 185.047C185.985 185.047 179.969 191.063 179.969 198.484C179.969 205.906 185.985 211.922 193.406 211.922Z"
    fill="#F44336" stroke="#F57856" stroke-miterlimit="10" />
  <path
    d="M193.406 214.474C202.237 214.474 209.396 207.315 209.396 198.484C209.396 189.653 202.237 182.494 193.406 182.494C184.575 182.494 177.416 189.653 177.416 198.484C177.416 207.315 184.575 214.474 193.406 214.474Z"
    fill="#F44336" stroke="#F57856" stroke-miterlimit="10" />
  <path d="M88.459 57.6533H201.889" stroke="#F44336" stroke-miterlimit="10" stroke-linecap="round"
    stroke-linejoin="round" />
  <path d="M88.459 175.513H201.889" stroke="#F57856" stroke-miterlimit="10" stroke-linecap="round"
    stroke-linejoin="round" />
  <path d="M201.964 66.1367H88.459V70.4908H201.964V66.1367Z" fill="#808080" />
  <path d="M201.964 74.8447H88.459V79.1988H201.964V74.8447Z" fill="#808080" />
  <path d="M201.964 83.4775H88.459V87.8316H201.964V83.4775Z" fill="#AEAEAE" />
  <path d="M201.964 92.1104H88.459V96.4644H201.964V92.1104Z" fill="#AEAEAE" />
  <path d="M172.012 100.818H88.459V105.172H172.012V100.818Z" fill="#AEAEAE" />
  <path d="M201.964 109.452H88.459V113.806H201.964V109.452Z" fill="#808080" />
  <path d="M201.964 118.085H88.459V122.439H201.964V118.085Z" fill="#808080" />
  <path d="M201.964 126.718H88.459V131.072H201.964V126.718Z" fill="#AEAEAE" />
  <path d="M201.964 135.426H88.459V139.78H201.964V135.426Z" fill="#AEAEAE" />
  <path d="M201.964 144.059H88.459V148.413H201.964V144.059Z" fill="#AEAEAE" />
  <path d="M201.964 152.691H88.459V157.045H201.964V152.691Z" fill="#AEAEAE" />
  <path d="M141.909 161.4H88.459V165.754H141.909V161.4Z" fill="#AEAEAE" />
  <path d="M133.951 207.718H88.459V212.072H133.951V207.718Z" fill="#AEAEAE" />
  <path d="M121.114 201.037H88.459V205.391H121.114V201.037Z" fill="#808080" />
  <path opacity="0.08"
    d="M10.0855 212.898C7.9085 206.893 7.98357 199.236 11.3617 189.552C14.5897 180.243 23.0726 172.586 30.6546 174.538C34.4081 175.514 37.486 178.516 40.714 180.919C45.5935 184.522 50.9985 184.372 56.7038 183.771C81.4018 181.444 101.22 190.452 100.92 203.74C100.62 217.102 80.3508 229.789 55.6529 232.041C40.0384 233.467 16.2412 229.939 10.0855 212.898Z"
    fill="url(#paint0_linear_2413_8510)" />
  <path opacity="0.08"
    d="M120.138 155.319C127.194 171.759 111.054 198.334 84.1043 214.624C57.1542 230.914 29.6037 230.764 22.5471 214.324C15.4905 197.884 31.6305 171.309 58.5806 155.019C85.5306 138.729 113.081 138.879 120.138 155.319Z"
    fill="url(#paint1_linear_2413_8510)" />
  <path
    d="M42.8173 145.26L43.4179 154.869C43.4179 154.869 40.7905 156.596 40.0398 156.446C39.2891 156.296 32.4577 155.17 32.4577 154.644C32.4577 154.119 28.7793 139.18 28.7793 139.18L42.8173 145.26Z"
    fill="#DE9574" />
  <path
    d="M22.0977 193.906C22.6982 193.681 35.0847 193.531 50.7743 199.536C49.348 201.638 48.6723 203.515 48.6723 203.515C48.6723 203.515 31.9318 202.989 31.4814 202.989C30.9559 202.989 22.8484 198.635 22.8484 198.335C22.8484 198.035 22.0977 193.906 22.0977 193.906Z"
    fill="#97A0AD" />
  <path
    d="M79.5258 185.122C68.8659 201.187 60.9836 194.656 54.978 183.921C52.2004 193.455 48.8974 202.013 48.8974 202.013L25.3255 202.163H23.8241C23.8241 202.163 23.8241 201.337 23.8241 199.836C23.749 195.932 23.3736 187.675 22.0224 179.267C18.344 180.843 14.4403 182.72 13.4644 184.747C12.4885 186.774 12.6387 188.876 13.3894 191.053C11.888 192.404 10.1614 194.131 8.73504 195.557C3.10481 190.452 -1.77472 183.921 0.627514 178.291C13.6146 157.121 17.9686 154.869 37.9372 153.968C40.2643 153.818 42.6666 153.968 45.3691 154.719C53.7769 156.446 57.3802 159.524 59.8575 162.376C67.3645 171.234 67.5897 185.873 76.523 180.168C77.3488 181.594 78.4748 183.471 79.5258 185.122Z"
    fill="url(#paint2_linear_2413_8510)" />
  <path
    d="M79.5258 185.122C68.8659 201.187 60.9836 194.656 54.978 183.921C52.2004 193.455 48.8974 202.013 48.8974 202.013L25.3255 202.163H23.8241C23.8241 202.163 23.8241 201.337 23.8241 199.836C23.749 195.932 23.3736 187.675 22.0224 179.267C18.344 180.843 14.4403 182.72 13.4644 184.747C12.4885 186.774 12.6387 188.876 13.3894 191.053C11.888 192.404 10.1614 194.131 8.73504 195.557C3.10481 190.452 -1.77472 183.921 0.627514 178.291C13.6146 157.121 17.9686 154.869 37.9372 153.968C40.2643 153.818 42.6666 153.968 45.3691 154.719C53.7769 156.446 57.3802 159.524 59.8575 162.376C67.3645 171.234 67.5897 185.873 76.523 180.168C77.3488 181.594 78.4748 183.471 79.5258 185.122Z"
    fill="url(#paint3_linear_2413_8510)" />
  <path
    d="M30.8815 150.816C30.8815 150.816 38.4635 146.837 44.6943 152.467C44.6192 155.395 44.4691 156.971 44.1688 157.272C43.8685 157.572 37.6377 158.773 37.3375 158.548C37.0372 158.323 30.8064 153.443 30.6562 153.143C30.6562 152.843 30.8815 150.816 30.8815 150.816Z"
    fill="#81645B" />
  <path
    d="M30.8816 150.74C39.5147 158.773 44.4692 154.719 44.6945 152.317C45.5202 153.593 45.295 153.142 45.295 154.644C45.295 156.145 45.5953 159.598 40.8659 160.349C35.1606 161.25 30.1309 156.145 29.8306 154.794C29.5304 153.518 30.8816 150.74 30.8816 150.74Z"
    fill="#F2E1D5" />
  <path
    d="M45.295 154.719C45.295 153.218 44.0939 157.121 43.2681 155.845C37.0373 150.215 30.9567 150.741 30.9567 150.741C30.9567 150.741 29.8306 153.068 29.8306 154.494C29.3051 154.569 28.8547 154.569 28.4043 154.644C31.1819 159.599 40.5656 167.856 56.4053 159.148C53.928 157.422 50.5499 155.845 45.295 154.719Z"
    fill="#F4F4F4" />
  <path
    d="M42.8173 145.26L43.4179 154.869C43.4179 154.869 40.7905 156.596 40.0398 156.446C39.2891 156.296 32.4577 155.17 32.4577 154.644C32.4577 154.119 28.7793 139.18 28.7793 139.18L42.8173 145.26Z"
    fill="#D39074" />
  <path
    d="M30.8816 150.74C39.5147 158.773 44.4692 154.719 44.6945 152.317C45.5202 153.593 45.295 153.142 45.295 154.644C45.295 156.145 45.5953 159.598 40.8659 160.349C35.1606 161.25 30.1309 156.145 29.8306 154.794C29.5304 153.518 30.8816 150.74 30.8816 150.74Z"
    fill="#D9D9D9" />
  <path
    d="M85.9074 173.412C86.7332 174.237 86.583 174.388 87.4088 174.313C88.2346 174.237 90.2614 172.586 90.2614 172.586L84.2559 172.661L85.9074 173.412Z"
    fill="#F5C0A2" />
  <path
    d="M31.481 141.056C31.481 141.056 30.5051 142.558 29.7544 142.032C29.7544 142.032 18.7192 133.174 23.6738 126.343C23.9741 126.343 24.3494 126.343 24.7248 126.343C24.7998 129.796 26.3763 133.474 30.5051 136.702C30.8054 138.654 31.1807 140.381 31.481 141.056Z"
    fill="#A85432" />
  <path
    d="M20.8974 204.715C20.8974 204.715 14.3663 200.887 8.58594 195.557C10.0123 194.131 11.8139 192.404 13.2403 191.053C15.2671 196.983 21.7982 202.463 21.7982 202.463C21.7982 202.463 21.9483 203.815 20.8974 204.715Z"
    fill="url(#paint4_linear_2413_8510)" />
  <path
    d="M85.906 173.412C83.729 178.216 81.6271 182.045 79.6002 185.048C78.5492 183.396 77.3481 181.594 76.4473 180.168C78.5492 178.817 81.0265 176.49 84.2545 172.661L85.906 173.412Z"
    fill="url(#paint5_linear_2413_8510)" />
  <path
    d="M76.4487 179.267C77.0493 179.342 80.5776 183.996 80.5776 184.597C80.5776 185.197 79.977 186.849 79.3014 186.999C78.6258 187.224 73.9714 181.444 74.2717 180.768C74.572 180.092 76.4487 179.267 76.4487 179.267Z"
    fill="url(#paint6_linear_2413_8510)" />
  <path
    d="M47.8452 168.757C48.746 169.358 50.0222 169.058 50.6228 168.157C51.2233 167.256 51.0732 166.13 50.1724 165.529C49.2715 164.929 47.9954 165.229 47.3948 166.13C46.7192 167.031 46.9444 168.232 47.8452 168.757Z"
    fill="#995837" />
  <path
    d="M47.6206 168.682C48.5214 169.283 49.7976 168.982 50.3982 168.081C50.9987 167.181 50.8486 166.055 49.9478 165.454C49.0469 164.853 47.7707 165.154 47.1702 166.055C46.4946 166.955 46.7198 168.081 47.6206 168.682Z"
    fill="#485B78" />
  <path
    d="M49.7231 167.706L47.8464 166.805C47.7713 166.73 47.6963 166.655 47.7713 166.58C47.8464 166.505 47.9215 166.43 47.9965 166.505L49.8733 167.406C49.9483 167.481 50.0234 167.556 49.9483 167.631C49.9483 167.706 49.7982 167.706 49.7231 167.706Z"
    fill="#B3C9E2" />
  <path
    d="M48.5228 168.006L49.5738 166.28C49.6488 166.205 49.5738 166.055 49.4987 166.055C49.4236 165.979 49.2735 166.055 49.2735 166.13L48.2225 167.856C48.1474 167.931 48.2225 168.081 48.2976 168.081C48.3726 168.156 48.4477 168.081 48.5228 168.006Z"
    fill="#B3C9E2" />
  <path
    d="M34.0354 169.433C34.9362 170.034 36.2124 169.733 36.8129 168.832C37.4135 167.932 37.2634 166.806 36.3625 166.205C35.4617 165.604 34.1855 165.905 33.5849 166.806C32.9844 167.706 33.1345 168.908 34.0354 169.433Z"
    fill="#995837" />
  <path
    d="M33.8843 169.358C34.7851 169.958 36.0613 169.658 36.6619 168.757C37.2624 167.856 37.1123 166.73 36.2114 166.13C35.3106 165.529 34.0344 165.83 33.4339 166.73C32.7582 167.631 32.9834 168.757 33.8843 169.358Z"
    fill="#485B78" />
  <path
    d="M35.9868 168.382L34.1101 167.481C34.035 167.406 33.9599 167.331 34.035 167.256C34.1101 167.181 34.1851 167.105 34.2602 167.181L36.137 168.081C36.212 168.156 36.2871 168.231 36.212 168.307C36.212 168.382 36.0619 168.382 35.9868 168.382Z"
    fill="#B3C9E2" />
  <path
    d="M34.7865 168.682L35.8374 166.956C35.9125 166.88 35.8374 166.73 35.7624 166.73C35.6873 166.655 35.5372 166.73 35.5372 166.805L34.4862 168.532C34.4111 168.607 34.4862 168.757 34.5612 168.757C34.5612 168.832 34.7114 168.757 34.7865 168.682Z"
    fill="#B3C9E2" />
  <path
    d="M48.2961 181.219C48.8967 182.12 50.1729 182.345 51.0737 181.82C51.9745 181.294 52.2748 180.093 51.6743 179.192C51.0737 178.291 49.7975 178.066 48.8967 178.592C47.9208 179.192 47.6956 180.318 48.2961 181.219Z"
    fill="#995837" />
  <path
    d="M48.1457 180.994C48.7463 181.894 50.0225 182.12 50.9233 181.594C51.8241 181.069 52.1244 179.867 51.5239 178.967C50.9233 178.066 49.6471 177.841 48.7463 178.366C47.7704 178.967 47.5452 180.168 48.1457 180.994Z"
    fill="#485B78" />
  <path
    d="M50.472 180.994L49.1208 179.417C49.0457 179.342 49.0457 179.192 49.1208 179.192C49.1958 179.117 49.346 179.117 49.421 179.192L50.7723 180.769C50.8474 180.844 50.8474 180.994 50.7723 180.994C50.6972 181.069 50.5471 181.069 50.472 180.994Z"
    fill="#B3C9E2" />
  <path
    d="M49.1956 180.768L50.8471 179.642C50.9222 179.567 50.9222 179.492 50.8471 179.417C50.772 179.342 50.697 179.342 50.6219 179.342L48.9704 180.468C48.8953 180.543 48.8953 180.618 48.9704 180.693C49.0454 180.843 49.1205 180.843 49.1956 180.768Z"
    fill="#B3C9E2" />
  <path
    d="M35.3844 183.321C36.135 184.072 37.4112 184.147 38.237 183.471C39.0628 182.796 39.1378 181.594 38.3871 180.844C37.6364 180.093 36.3603 180.018 35.5345 180.694C34.7087 181.369 34.6337 182.57 35.3844 183.321Z"
    fill="#995837" />
  <path
    d="M35.1584 183.171C35.9091 183.921 37.1853 183.996 38.0111 183.321C38.8369 182.645 38.9119 181.444 38.1612 180.693C37.4105 179.943 36.1343 179.868 35.3086 180.543C34.5579 181.219 34.4828 182.42 35.1584 183.171Z"
    fill="#485B78" />
  <path
    d="M37.4852 182.721L35.8336 181.369C35.7586 181.294 35.7586 181.219 35.8336 181.144C35.9087 181.069 35.9838 181.069 36.1339 181.144L37.7855 182.495C37.8605 182.571 37.8605 182.646 37.7855 182.721C37.7104 182.796 37.5602 182.796 37.4852 182.721Z"
    fill="#B3C9E2" />
  <path
    d="M36.2092 182.796L37.6356 181.369C37.7106 181.294 37.7106 181.219 37.6356 181.144C37.5605 181.069 37.4104 181.069 37.4104 181.144L35.984 182.571C35.909 182.646 35.909 182.721 35.984 182.796C36.0591 182.871 36.1342 182.871 36.2092 182.796Z"
    fill="#B3C9E2" />
  <path
    d="M44.9934 196.758C45.5939 197.659 46.8701 197.884 47.771 197.359C48.6718 196.833 48.9721 195.632 48.3715 194.731C47.771 193.83 46.4948 193.605 45.5939 194.131C44.618 194.731 44.3928 195.932 44.9934 196.758Z"
    fill="#995837" />
  <path
    d="M44.843 196.533C45.4436 197.433 46.7197 197.659 47.6206 197.133C48.5214 196.608 48.8217 195.407 48.2211 194.506C47.6206 193.605 46.3444 193.38 45.4436 193.905C44.4677 194.506 44.2424 195.707 44.843 196.533Z"
    fill="#485B78" />
  <path
    d="M47.1712 196.533L45.82 194.956C45.7449 194.881 45.7449 194.731 45.82 194.731C45.895 194.656 46.0452 194.656 46.1202 194.731L47.4715 196.308C47.5466 196.383 47.5466 196.533 47.4715 196.533C47.3214 196.608 47.2463 196.608 47.1712 196.533Z"
    fill="#B3C9E2" />
  <path
    d="M45.8948 196.382L47.5463 195.256C47.6214 195.181 47.6214 195.106 47.5463 195.031C47.4713 194.956 47.3962 194.956 47.3211 194.956L45.6696 196.082C45.5945 196.157 45.5945 196.232 45.6696 196.307C45.6696 196.382 45.8197 196.382 45.8948 196.382Z"
    fill="#B3C9E2" />
  <path
    d="M36.7359 197.058C37.4866 197.809 38.7628 197.884 39.5886 197.208C40.4143 196.533 40.4894 195.332 39.7387 194.581C38.988 193.83 37.7118 193.755 36.8861 194.431C36.0603 195.107 35.9852 196.308 36.7359 197.058Z"
    fill="#995837" />
  <path
    d="M36.51 196.908C37.2607 197.659 38.5369 197.734 39.3626 197.058C40.1884 196.382 40.2635 195.181 39.5128 194.431C38.7621 193.68 37.4859 193.605 36.6601 194.281C35.9094 194.956 35.8344 196.157 36.51 196.908Z"
    fill="#485B78" />
  <path
    d="M38.8367 196.457L37.1852 195.106C37.1101 195.031 37.1101 194.956 37.1852 194.881C37.2603 194.805 37.3353 194.805 37.4855 194.881L39.137 196.232C39.2121 196.307 39.2121 196.382 39.137 196.457C39.062 196.532 38.9118 196.532 38.8367 196.457Z"
    fill="#B3C9E2" />
  <path
    d="M37.5608 196.532L38.9871 195.106C39.0622 195.031 39.0622 194.956 38.9871 194.881C38.9121 194.805 38.7619 194.805 38.7619 194.881L37.3356 196.307C37.2605 196.382 37.2605 196.457 37.3356 196.532C37.4107 196.607 37.4857 196.607 37.5608 196.532Z"
    fill="#B3C9E2" />
  <path
    d="M23.5235 125.967C22.2473 122.214 19.9952 119.211 17.8182 116.884C15.7162 114.557 30.0545 100.293 41.7654 109.677C40.0388 116.283 41.0898 121.313 41.0898 121.313C41.0898 121.313 24.6495 129.345 23.5235 125.967Z"
    fill="url(#paint7_linear_2413_8510)" />
  <path
    d="M48.9719 125.892C45.3685 129.496 35.7596 129.346 31.4806 127.769C31.1803 127.544 47.6206 129.571 49.2722 121.688C50.3231 122.739 50.5483 124.316 48.9719 125.892Z"
    fill="#993F24" />
  <path
    d="M41.3901 111.479C41.4651 111.104 41.5402 110.804 41.7654 109.978C30.0545 100.594 15.7162 114.857 17.8182 117.184C17.9683 117.335 19.0193 118.611 19.1694 118.686C19.8451 117.635 20.3705 115.533 21.2714 115.908C23.1481 116.734 31.2557 116.809 35.91 112.23C39.7385 108.476 40.7144 118.611 40.7144 118.611C40.7144 118.611 40.7895 118.611 40.9396 118.611C40.7895 116.884 40.8646 114.407 41.3901 111.479Z"
    fill="#D9D9D9" />
  <path
    d="M22.0981 96.54C27.5782 94.5882 33.2084 96.6902 35.4605 102.02C37.4874 99.5428 46.8711 96.8403 46.4207 104.798C45.9703 112.755 36.8869 110.728 34.7098 108.101C33.1334 112.004 24.4253 116.358 19.9211 113.13C20.0712 116.434 15.3418 125.367 9.2612 121.088C3.10548 116.734 7.23431 107.5 14.1407 109.227C13.39 105.098 15.1166 99.0173 22.0981 96.54Z"
    fill="url(#paint8_linear_2413_8510)" />
  <path
    d="M44.6192 100.219C47.8472 106.149 40.6405 110.278 34.5599 106.299C33.659 109.002 26.9778 115.083 19.1706 111.704C18.4949 114.857 14.8165 122.439 6.93419 118.16C6.85912 118.085 6.78405 118.085 6.70898 118.085C7.1594 119.211 7.98517 120.262 9.18628 121.163C15.342 125.517 19.9963 116.509 19.8462 113.206C24.4254 116.359 33.1335 112.08 34.6349 108.176C36.7369 110.804 45.8954 112.83 46.3458 104.873C46.571 102.396 45.8203 100.969 44.6192 100.219Z"
    fill="#F4F4F4" />
  <path
    d="M45.6689 124.391C45.6689 124.391 49.1221 129.571 49.1221 131.297C49.1221 133.024 47.846 135.501 48.3714 136.327C49.4975 138.053 48.6717 146.837 48.7468 148.038C48.972 150.14 45.6689 152.467 43.9423 152.092C42.2157 151.716 34.934 150.14 32.7569 147.888C30.655 145.56 27.3519 136.552 26.8264 135.576C26.2259 134.6 26.2259 130.321 26.4511 129.195C27.2018 124.541 41.5401 122.889 45.6689 124.391Z"
    fill="url(#paint9_linear_2413_8510)" />
  <path
    d="M31.4821 141.057C30.5813 139.33 29.155 129.571 31.4821 127.694C35.0855 129.121 45.0697 129.796 48.9734 125.893C52.877 121.989 45.8204 118.236 42.3672 120.413C43.2681 118.085 39.5146 117.56 36.737 121.539C34.2597 124.166 26.9029 126.418 23.75 126.268C18.7954 133.024 29.8306 141.958 29.8306 141.958C30.5062 142.558 31.4821 141.057 31.4821 141.057Z"
    fill="#A85432" />
  <path
    d="M49.1231 131.298C49.1231 131.148 49.1231 130.922 49.048 130.697C48.7477 130.772 48.3724 130.772 48.0721 130.847C47.4715 130.922 46.871 131.073 46.2704 131.148C45.5948 131.298 44.8441 131.373 44.3937 131.898C44.0183 132.349 43.8682 132.949 43.7931 133.55C43.7181 134.226 43.7931 134.901 43.9433 135.577C44.0934 136.252 44.3186 136.928 44.6189 137.529C45.1444 138.955 45.7449 140.381 46.4956 141.733C46.6458 142.033 46.871 142.333 47.1713 142.558C47.5466 142.783 47.997 142.783 48.4474 142.783C48.5976 142.783 48.6727 142.783 48.8228 142.783C48.8979 140.081 48.8979 137.078 48.2222 136.177C47.8469 135.502 49.1231 133.024 49.1231 131.298Z"
    fill="#E39E7D" />
  <path
    d="M24.2755 202.313C24.2004 201.788 22.5489 201.788 21.2727 201.938C21.0475 201.713 21.0475 202.388 20.7472 202.088C18.2699 204.04 12.2644 198.109 11.9641 196.308C11.889 195.857 13.3153 194.056 14.066 192.929C13.7657 192.329 13.4655 191.653 13.2403 191.053C11.7389 192.404 10.0123 194.131 8.58594 195.557C13.0151 199.611 17.8195 202.764 19.9215 204.115C19.9965 204.19 20.0716 204.265 20.1467 204.34C20.8223 204.791 21.7231 205.466 22.3237 205.766C23.3747 206.292 24.3506 202.914 24.2755 202.313Z"
    fill="#F9E9E4" />
  <path
    d="M49.1229 130.547C47.3963 130.847 45.4445 131.147 44.7689 131.748C44.3935 132.123 44.6187 133.099 44.919 133.174C46.1201 133.475 49.7986 133.249 49.9487 132.349C50.1739 131.523 49.1229 130.547 49.1229 130.547Z"
    fill="#993F24" />
  <path
    d="M41.2408 132.649C40.5652 131.673 35.01 130.772 34.1843 131.522C33.2834 132.273 33.2084 134.3 34.0341 134.225C35.2353 134.075 40.6403 134.3 40.9406 133.699C41.2408 133.099 41.391 132.874 41.2408 132.649Z"
    fill="#993F24" />
  <path
    d="M46.1953 137.303C46.1953 138.129 46.6457 138.879 47.1712 138.879C47.6967 138.879 48.1471 138.204 48.1471 137.303C48.1471 136.402 47.6967 135.727 47.1712 135.727C46.5707 135.727 46.1953 136.402 46.1953 137.303Z"
    fill="#403331" />
  <path
    d="M48.972 143.234C47.7709 143.159 46.2695 143.084 44.5429 143.009C36.8107 148.189 31.3306 143.384 30.2796 140.682L29.9043 142.558C30.8802 144.81 32.0062 146.912 32.9071 147.888C35.009 150.216 42.3659 151.717 44.0925 152.092C45.8191 152.468 49.1222 150.14 48.8969 148.038C48.7468 147.513 48.8969 145.486 48.972 143.234Z"
    fill="#DAAB92" />
  <path
    d="M40.8652 144.059C40.9403 145.711 42.0664 146.987 44.0182 146.987C45.4445 146.987 46.6456 145.636 46.7207 143.984L40.8652 144.059Z"
    fill="#27242D" />
  <path
    d="M44.094 145.561C45.0699 145.561 45.9707 144.96 46.4212 144.06L41.3164 144.135C41.7668 144.96 42.7427 145.486 44.094 145.561Z"
    fill="#F8F8F2" />
  <path
    d="M27.7285 164.403C28.1789 166.355 31.9324 176.715 32.1576 179.943C32.3828 183.171 33.9593 202.013 33.9593 202.013C33.9593 202.013 32.0075 202.839 32.4579 202.088C32.608 201.863 31.7072 182.495 31.1817 178.892C30.6562 175.213 27.7285 164.403 27.7285 164.403Z"
    fill="#EAD0C0" />
  <path
    d="M43.7175 131.522C43.7175 131.522 46.5702 137.078 48.6721 141.131C47.3959 142.708 43.3422 142.257 43.2671 142.032C43.192 141.807 43.7175 131.522 43.7175 131.522Z"
    fill="url(#paint10_linear_2413_8510)" />
  <path
    d="M37.7129 138.054C37.7129 139.03 38.1633 139.78 38.7639 139.78C39.3644 139.78 39.8148 139.03 39.8148 138.054C39.8148 137.078 39.3644 136.327 38.7639 136.327C38.1633 136.327 37.7129 137.078 37.7129 138.054Z"
    fill="#403331" />
  <path
    d="M14.0657 191.953C13.2399 192.629 10.162 196.683 9.26119 196.608C8.36036 196.533 6.40854 195.106 6.70882 194.506C7.0091 193.905 13.39 189.101 13.4651 189.701C13.5402 190.227 14.0657 191.953 14.0657 191.953Z"
    fill="url(#paint11_linear_2413_8510)" />
  <path
    d="M31.481 141.056C31.481 141.056 30.5051 142.558 29.7544 142.032C29.7544 142.032 18.7192 133.174 23.6738 126.343C23.9741 126.343 24.3494 126.343 24.7248 126.343C23.5987 130.397 24.4995 137.078 30.8054 138.654C31.0306 140.005 31.1807 140.381 31.481 141.056Z"
    fill="#993F24" />
  <path
    d="M29.2288 139.78C28.3279 138.654 25.9257 136.327 24.1991 137.078C22.4725 137.904 22.6226 141.357 25.2501 142.033C27.9526 142.783 30.58 142.708 30.505 142.483C30.505 142.333 29.2288 139.78 29.2288 139.78Z"
    fill="#F7D2B0" />
  <path
    d="M27.2024 139.63C26.3766 138.954 25.4758 138.429 24.8752 138.954C24.0495 139.78 24.8752 140.681 25.5508 140.981C24.8752 139.78 25.8511 139.555 27.2024 139.63Z"
    fill="#DE9574" />
  <path
    d="M36.6606 121.538C34.1833 124.166 26.8265 126.418 23.6736 126.267C23.5985 126.343 23.5985 126.418 23.5234 126.493C26.3761 126.943 31.8562 126.493 35.1592 123.94C38.9878 120.938 38.2371 119.061 41.9155 118.836C41.0147 118.16 38.6125 118.761 36.6606 121.538Z"
    fill="#993F24" />
  <path
    d="M48.2216 121.539C44.6934 118.611 37.0363 124.542 37.7119 126.343C38.4626 128.22 52.2754 124.917 48.2216 121.539Z"
    fill="url(#paint12_linear_2413_8510)" />
  <path
    d="M80.2762 183.921C80.4263 184.222 80.5764 184.447 80.5764 184.597C80.5764 185.198 79.9759 186.774 79.3003 186.999C79.1501 186.999 78.9249 186.849 78.5496 186.549C68.4902 200.662 60.8331 194.281 55.0527 183.921C55.8785 179.492 56.6292 174.387 57.0796 169.583C55.7284 181.669 61.4337 190.603 68.8656 190.903C71.4179 190.978 74.6459 188.951 77.6487 185.723C77.7989 185.573 77.4235 185.498 77.4986 185.348C80.6515 181.819 83.9546 176.94 85.9064 173.412C83.9546 177.615 82.0778 181.144 80.2762 183.921Z"
    fill="#F4F4F4" />
  <path
    d="M33.8084 200.587C33.7333 200.587 33.6583 200.512 33.6583 200.437C33.6583 200.287 32.3821 186.999 32.0818 180.769C31.9317 177.39 30.4303 173.111 29.3042 169.733C28.3283 166.806 27.5026 164.554 27.8028 163.653C28.3283 162.076 32.3821 160.725 34.7843 159.974C35.3849 159.824 35.8353 159.674 36.0605 159.524C37.1865 159.073 37.712 156.296 37.712 155.245C37.712 155.17 37.7871 155.095 37.8622 155.095C37.9372 155.095 38.0123 155.17 38.0123 155.245C38.0123 156.071 37.4868 159.224 36.1356 159.749C35.9104 159.824 35.3849 159.974 34.8594 160.199C32.6824 160.95 28.5535 162.226 28.1031 163.653C27.8779 164.478 28.6286 166.806 29.6045 169.583C30.8056 173.036 32.2319 177.315 32.4572 180.694C32.7574 186.849 34.0336 200.212 34.0336 200.287C33.9585 200.512 33.8835 200.587 33.8084 200.587Z"
    fill="#485B78" />
  <path
    d="M24.4254 193.079C24.4254 188.575 23.2243 182.795 22.6237 175.663C3.70616 182.344 10.3123 189.326 11.2131 190.677C12.0389 191.953 11.8888 191.878 12.189 193.98C12.9397 193.079 13.6904 192.329 13.9907 192.028C13.9907 192.028 13.4652 190.302 13.3902 189.701C13.3902 189.626 13.1649 189.626 12.8647 189.776C12.4893 188.05 12.5644 186.398 13.3151 184.822C14.291 182.795 18.1946 180.843 21.873 179.341C22.6237 183.996 23.0742 188.575 23.3744 192.404C23.5996 195.557 23.6747 198.184 23.7498 199.911C23.7498 201.412 23.7498 202.238 23.7498 202.238H25.2512L48.8231 202.088C48.8231 202.088 49.2735 200.962 49.9491 199.16C33.3587 201.487 26.8276 195.782 24.4254 193.079Z"
    fill="#D9D9D9" />
  <path
    d="M22.6974 200.586L22.0218 200.511C22.0218 200.511 17.7428 211.096 15.791 221.456C21.0459 226.636 32.0061 230.464 36.0598 231.065C40.489 231.815 47.7707 232.716 53.7012 231.965C53.0256 227.611 51.8245 211.321 48.9718 203.364C49.4222 203.139 50.3231 202.238 50.8486 199.46C36.4352 202.688 24.6492 197.058 22.1719 193.83C22.1719 193.83 21.6464 197.133 22.4722 200.286C22.5473 200.436 22.6224 200.511 22.6974 200.586Z"
    fill="#485B78" />
  <path
    d="M50.6236 200.436C48.6718 200.962 42.2158 202.839 36.0601 201.487C28.7784 199.986 23.5235 197.133 22.0221 196.308C22.0221 197.434 22.0971 198.86 22.4725 200.286C22.5476 200.361 22.6977 200.436 22.7728 200.512L22.0971 200.436C22.0971 200.436 22.0221 200.737 21.7969 201.262C22.4725 202.013 37.2612 210.871 49.7228 205.466C49.4976 204.715 49.2724 203.965 49.0472 203.289C49.2724 203.139 50.0231 202.463 50.6236 200.436Z"
    fill="#97A0AD" />
  <path
    d="M21.7211 197.284C20.8954 196.908 21.3458 200.887 21.7211 201.413C22.0965 201.938 37.2606 209.295 49.7972 204.716C51.0734 203.439 50.7731 201.112 50.0975 201.187C49.4219 201.262 43.0409 203.064 35.9844 201.863C28.2522 200.587 22.8472 197.809 21.7211 197.284Z"
    fill="#BBBBBB" />
  <path
    d="M48.5977 215.3L46.0453 209.67L45.6699 207.193C46.0453 207.042 46.3456 206.892 46.4206 206.517C46.7209 205.541 44.9192 204.415 44.9192 204.415C43.0425 205.016 43.1926 206.442 43.7181 206.967V209.219L41.0156 214.549C41.5411 215 42.9674 215.6 43.568 215.45L43.4929 219.804C44.619 220.18 45.2195 220.105 45.2195 220.105L44.9192 208.394L46.2705 223.258L47.7719 222.732L46.8711 216.426C47.4716 216.426 48.0722 215.751 48.5977 215.3Z"
    fill="#97A0AD" />
  <path
    d="M47.6964 215L44.8438 206.893C45.2191 206.743 45.5194 206.593 45.5945 206.217C45.8948 205.241 44.6936 204.19 44.0931 204.115C42.0662 203.89 42.3665 206.142 42.892 206.668L40.1895 214.325C40.7149 214.775 42.1413 215.376 42.7418 215.226L42.6668 219.58C43.7928 219.955 44.3934 219.88 44.3934 219.88L44.0931 208.169L45.4443 223.033L46.9457 222.507L46.0449 216.202C46.5704 216.127 47.1709 215.451 47.6964 215Z"
    fill="#485B78" />
  <path
    d="M20.446 202.013C21.7222 201.788 24.1995 201.713 24.2745 202.313C24.3496 202.914 23.3737 206.217 22.3978 205.767C21.7972 205.466 20.8213 204.791 20.2208 204.34C19.7704 203.965 19.395 203.515 19.395 202.914C19.2449 202.464 19.395 202.163 20.446 202.013Z"
    fill="#F7D2B0" />
  <path
    d="M20.446 202.013C21.7222 201.788 24.1995 201.713 24.2745 202.313C24.3496 202.914 23.3737 206.217 22.3978 205.767C21.7972 205.466 20.8213 204.791 20.2208 204.34C19.7704 203.965 19.395 203.515 19.395 202.914C19.2449 202.464 19.395 202.163 20.446 202.013Z"
    fill="#F9E9E4" />
  <path
    d="M84.1809 172.661C83.4302 173.562 82.6795 174.388 82.0039 175.138C82.9798 175.213 83.9557 175.288 84.9316 175.288C85.2319 174.688 85.5322 174.087 85.8325 173.412C86.6582 174.237 86.5081 174.388 87.3339 174.313C88.1596 174.237 90.1865 172.586 90.1865 172.586L84.1809 172.661Z"
    fill="#F9E9E4" />
  <path
    d="M89.7359 173.186C102.464 173.186 112.782 171.472 112.782 169.358C112.782 167.243 102.464 165.529 89.7359 165.529C77.0077 165.529 66.6895 167.243 66.6895 169.358C66.6895 171.472 77.0077 173.186 89.7359 173.186Z"
    fill="url(#paint13_linear_2413_8510)" />
  <path
    d="M90.0372 172.361C78.1762 172.361 68.3421 170.859 66.9158 168.982C66.8407 169.133 66.7656 169.283 66.7656 169.433C66.7656 171.535 77.0502 173.261 89.812 173.261C102.574 173.261 112.858 171.535 112.858 169.433C110.306 171.084 101.072 172.361 90.0372 172.361Z"
    fill="url(#paint14_linear_2413_8510)" />
  <path
    d="M88.9102 145.035C65.5635 145.335 69.5422 168.907 69.5422 168.907C69.5422 170.334 78.4005 171.46 89.2856 171.46C100.171 171.46 109.029 170.334 109.029 168.907C109.254 167.181 111.731 144.735 88.9102 145.035Z"
    fill="url(#paint15_radial_2413_8510)" />
  <path
    d="M97.9941 146.462C109.555 157.797 98.5196 169.133 85.3074 169.358C78.7763 169.508 72.9959 168.983 69.3926 168.307C69.4676 168.683 69.4677 168.908 69.4677 168.908C69.4677 170.334 78.3259 171.46 89.211 171.46C100.096 171.46 108.954 170.334 108.954 168.908C109.18 167.406 110.981 151.417 97.9941 146.462Z"
    fill="url(#paint16_linear_2413_8510)" />
  <path
    d="M89.9619 144.96C89.061 144.96 88.0851 145.636 90.0369 145.711C92.0638 145.861 92.5893 145.486 91.9137 145.186C91.238 144.885 89.9619 144.96 89.9619 144.96Z"
    fill="url(#paint17_linear_2413_8510)" />
  <path
    d="M88.9848 145.411C88.6094 144.51 88.3091 143.008 88.159 141.507C87.9338 140.156 91.387 140.231 91.3119 141.507C91.2369 142.858 90.8615 144.585 90.5612 145.411C90.1108 145.861 88.9848 145.561 88.9848 145.411Z"
    fill="url(#paint18_radial_2413_8510)" />
  <path opacity="0.28"
    d="M88.084 141.207C88.6845 141.432 89.135 141.507 89.8106 141.507C90.261 141.507 90.7865 141.357 91.2369 141.282C91.0868 140.231 88.3092 140.156 88.084 141.207Z"
    fill="url(#paint19_linear_2413_8510)" />
  <path opacity="0.28"
    d="M88.1597 145.336C84.4062 145.411 76.674 146.612 72.6953 153.068C74.4219 153.744 77.1244 154.044 77.5748 154.044C78.6258 151.266 84.256 146.612 88.1597 145.336Z"
    fill="url(#paint20_linear_2413_8510)" />
  <path opacity="0.28"
    d="M69.4668 168.307C69.5419 168.757 69.5419 168.982 69.5419 168.982C69.5419 170.408 78.4001 171.535 89.2852 171.535C100.17 171.535 109.029 170.408 109.029 168.982C109.104 168.607 109.179 167.481 109.179 165.904C106.326 170.183 79.1508 172.135 69.4668 168.307Z"
    fill="url(#paint21_linear_2413_8510)" />
  <path d="M42.892 206.668L41.5407 215.076L40.1895 214.325L42.892 206.668Z" fill="#BBBBBB" />
  <path
    d="M43.793 206.968C43.9431 207.043 44.2434 216.201 44.919 216.276C45.5946 216.351 46.4955 216.201 46.6456 215.976C46.7958 215.751 44.2434 206.893 44.2434 206.893L43.793 206.968Z"
    fill="#BBBBBB" />
  <path
    d="M43.7178 204.115C42.6669 204.115 42.3666 205.391 42.5918 205.917C42.817 206.442 43.7929 206.217 44.1683 205.917C44.6938 205.391 44.7688 204.115 43.7178 204.115Z"
    fill="#BBBBBB" />
  <path d="M45.5185 222.958L46.1942 222.808L44.918 216.577L45.5185 222.958Z" fill="#BBBBBB" />
  <defs>
    <linearGradient id="paint0_linear_2413_8510" x1="35.8291" y1="157.754" x2="71.9437" y2="247.883"
      gradientUnits="userSpaceOnUse">
      <stop stop-color="#EEC4B1" />
      <stop offset="0.5" stop-color="#E4A68C" />
      <stop offset="0.5724" stop-color="#E3A287" />
      <stop offset="1" stop-color="#DD8F70" />
    </linearGradient>
    <linearGradient id="paint1_linear_2413_8510" x1="41.8342" y1="157.475" x2="101.059" y2="212.386"
      gradientUnits="userSpaceOnUse">
      <stop stop-color="#FCF2E9" />
      <stop offset="0.5" stop-color="#F9EBDC" />
      <stop offset="1" stop-color="#EACAB8" />
    </linearGradient>
    <linearGradient id="paint2_linear_2413_8510" x1="-0.115226" y1="178.019" x2="79.5585"
      y2="178.019" gradientUnits="userSpaceOnUse">
      <stop stop-color="#D9D9D9" />
      <stop offset="0.3933" stop-color="white" />
      <stop offset="0.4849" stop-color="#F9FAFC" />
      <stop offset="0.6092" stop-color="#E8EDF3" />
      <stop offset="0.7521" stop-color="#CBD7E4" />
      <stop offset="0.9078" stop-color="#A4B9D0" />
      <stop offset="1" stop-color="#BBBBBB" />
    </linearGradient>
    <linearGradient id="paint3_linear_2413_8510" x1="38.675" y1="144.866" x2="41.6961" y2="255.839"
      gradientUnits="userSpaceOnUse">
      <stop stop-color="#D9D9D9" />
      <stop offset="0.3933" stop-color="white" />
      <stop offset="0.4849" stop-color="#F9FAFC" />
      <stop offset="0.6092" stop-color="#E8EDF3" />
      <stop offset="0.7521" stop-color="#CBD7E4" />
      <stop offset="0.9078" stop-color="#A4B9D0" />
      <stop offset="1" stop-color="#BBBBBB" />
    </linearGradient>
    <linearGradient id="paint4_linear_2413_8510" x1="19.4215" y1="204.875" x2="6.58209" y2="186.9"
      gradientUnits="userSpaceOnUse">
      <stop offset="0.00224557" stop-color="#F7D2B0" />
      <stop offset="0.9968" stop-color="#D9AD97" />
    </linearGradient>
    <linearGradient id="paint5_linear_2413_8510" x1="78.3097" y1="182.203" x2="89.6386" y2="166.947"
      gradientUnits="userSpaceOnUse">
      <stop offset="0.00224557" stop-color="#F7D2B0" />
      <stop offset="0.9975" stop-color="#E7B791" />
    </linearGradient>
    <linearGradient id="paint6_linear_2413_8510" x1="75.9438" y1="179.202" x2="81.9859" y2="193.854"
      gradientUnits="userSpaceOnUse">
      <stop offset="0.0024858" stop-color="#F7F0E8" />
      <stop offset="0.9998" stop-color="#EAD0C0" />
    </linearGradient>
    <linearGradient id="paint7_linear_2413_8510" x1="17.2175" y1="121.564" x2="51.7101" y2="107.333"
      gradientUnits="userSpaceOnUse">
      <stop stop-color="#F4F4F4" />
      <stop offset="0.3933" stop-color="white" />
      <stop offset="0.4849" stop-color="#F9FAFC" />
      <stop offset="0.6092" stop-color="#E8EDF3" />
      <stop offset="0.7521" stop-color="#CBD7E4" />
      <stop offset="0.9078" stop-color="#A4B9D0" />
      <stop offset="1" stop-color="#BBBBBB" />
    </linearGradient>
    <linearGradient id="paint8_linear_2413_8510" x1="19.79" y1="84.703" x2="30.1618" y2="124.502"
      gradientUnits="userSpaceOnUse">
      <stop stop-color="#D9D9D9" />
      <stop offset="0.3933" stop-color="white" />
      <stop offset="0.4849" stop-color="#F9FAFC" />
      <stop offset="0.6092" stop-color="#E8EDF3" />
      <stop offset="0.7521" stop-color="#CBD7E4" />
      <stop offset="0.9078" stop-color="#A4B9D0" />
      <stop offset="1" stop-color="#D9D9D9" />
    </linearGradient>
    <linearGradient id="paint9_linear_2413_8510" x1="36.8919" y1="126.144" x2="44.2934" y2="178.408"
      gradientUnits="userSpaceOnUse">
      <stop offset="0.00224557" stop-color="#F7D2B0" />
      <stop offset="0.9975" stop-color="#E7B791" />
    </linearGradient>
    <linearGradient id="paint10_linear_2413_8510" x1="41.8686" y1="130.818" x2="53.0783"
      y2="160.078" gradientUnits="userSpaceOnUse">
      <stop offset="0.00224557" stop-color="#F7D2B0" />
      <stop offset="0.9975" stop-color="#E7B791" />
    </linearGradient>
    <linearGradient id="paint11_linear_2413_8510" x1="53.292" y1="157.517" x2="57.0683" y2="154.345"
      gradientUnits="userSpaceOnUse">
      <stop offset="0.0024858" stop-color="#F7F0E8" />
      <stop offset="0.9998" stop-color="#EAD0C0" />
    </linearGradient>
    <linearGradient id="paint12_linear_2413_8510" x1="37.6974" y1="123.847" x2="48.953" y2="123.847"
      gradientUnits="userSpaceOnUse">
      <stop stop-color="#A85432" />
      <stop offset="0.9863" stop-color="#B76732" />
      <stop offset="1" stop-color="#B77032" />
    </linearGradient>
    <linearGradient id="paint13_linear_2413_8510" x1="121.254" y1="167.039" x2="54.3379"
      y2="172.024" gradientUnits="userSpaceOnUse">
      <stop offset="0.00047" stop-color="#E1DFE0" />
      <stop offset="0.9993" stop-color="#B8B1B6" />
    </linearGradient>
    <linearGradient id="paint14_linear_2413_8510" x1="66.7207" y1="171.096" x2="112.741"
      y2="171.096" gradientUnits="userSpaceOnUse">
      <stop offset="0.00047" stop-color="#F3F2F3" />
      <stop offset="0.9995" stop-color="#D9D9D9" />
    </linearGradient>
    <radialGradient id="paint15_radial_2413_8510" cx="0" cy="0" r="1" gradientUnits="userSpaceOnUse"
      gradientTransform="translate(81.0194 151.176) scale(43.4195 43.4195)">
      <stop stop-color="#F4F4F4" />
      <stop offset="0.3524" stop-color="#B7AFB4" />
      <stop offset="0.523" stop-color="#A29A9E" />
      <stop offset="0.7408" stop-color="#A29A9E" />
      <stop offset="1" stop-color="#A29A9E" />
    </radialGradient>
    <linearGradient id="paint16_linear_2413_8510" x1="122.113" y1="147.881" x2="101.268"
      y2="159.059" gradientUnits="userSpaceOnUse">
      <stop stop-color="#D9D9D9" />
      <stop offset="0.9985" stop-color="white" />
    </linearGradient>
    <linearGradient id="paint17_linear_2413_8510" x1="88.9211" y1="145.386" x2="92.201" y2="145.386"
      gradientUnits="userSpaceOnUse">
      <stop stop-color="#D9D9D9" />
      <stop offset="0.9985" stop-color="white" />
    </linearGradient>
    <radialGradient id="paint18_radial_2413_8510" cx="0" cy="0" r="1" gradientUnits="userSpaceOnUse"
      gradientTransform="translate(87.2623 136.322) scale(10.3193 10.3193)">
      <stop stop-color="#D9D9D9" />
      <stop offset="0.3513" stop-color="#EEE4ED" />
      <stop offset="0.3616" stop-color="#D9D9D9" />
      <stop offset="0.5273" stop-color="#C4BBC1" />
      <stop offset="0.6578" stop-color="#ABA3A7" />
      <stop offset="0.7362" stop-color="#A29A9E" />
      <stop offset="0.8749" stop-color="#A39BA0" />
      <stop offset="0.9248" stop-color="#A89DA7" />
      <stop offset="0.9604" stop-color="#B1A0B2" />
      <stop offset="0.989" stop-color="#BEA5C3" />
      <stop offset="1" stop-color="#F4F4F4" />
    </radialGradient>
    <linearGradient id="paint19_linear_2413_8510" x1="88.1193" y1="141.009" x2="91.2807"
      y2="141.009" gradientUnits="userSpaceOnUse">
      <stop offset="0.00047" stop-color="#BBBBBB" />
      <stop offset="0.9995" stop-color="#7A7A7A" />
    </linearGradient>
    <linearGradient id="paint20_linear_2413_8510" x1="84.5382" y1="143.199" x2="76.0793"
      y2="155.585" gradientUnits="userSpaceOnUse">
      <stop stop-color="#E2E1E5" />
      <stop offset="0.9995" stop-color="#282B2F" />
    </linearGradient>
    <linearGradient id="paint21_linear_2413_8510" x1="69.45" y1="168.665" x2="109.192" y2="168.665"
      gradientUnits="userSpaceOnUse">
      <stop stop-color="#E2E1E5" />
      <stop offset="0.999" stop-color="#B7B0B5" />
    </linearGradient>
  </defs>
</svg>