<?xml version="1.0" encoding="utf-8"?><!-- Generator: Adobe Illustrator 24.0.2, SVG Export Plug-In . SVG Version: 6.00 Build 0)  -->
<svg version="1.1" id="Layer_1" xmlns="http://www.w3.org/2000/svg" xmlns:xlink="http://www.w3.org/1999/xlink" x="0px" y="0px" viewBox="0 0 101 29" enable-background="new 0 0 101 29"
    xml:space="preserve">
<path fill="#F44336" d="M14,0h73c7.7,0,14,6.3,14,14v1c0,7.7-6.3,14-14,14H14C6.3,29,0,22.7,0,15v-1C0,6.3,6.3,0,14,0z" />
    <path fill="#FFFFFF" d="M50.6,11.7h-1.7c0-0.3-0.1-0.5-0.3-0.8c-0.1-0.2-0.3-0.4-0.5-0.6c-0.2-0.2-0.4-0.3-0.7-0.3
	C47.1,10,46.9,10,46.6,10c-0.5,0-1,0.1-1.4,0.4c-0.4,0.3-0.7,0.6-0.9,1.1c-0.2,0.5-0.3,1.1-0.3,1.8c0,0.7,0.1,1.3,0.3,1.8
	c0.2,0.5,0.5,0.9,0.9,1.1c0.4,0.2,0.9,0.4,1.4,0.4c0.3,0,0.5,0,0.8-0.1c0.2-0.1,0.5-0.2,0.7-0.3c0.2-0.1,0.4-0.3,0.5-0.5
	c0.1-0.2,0.2-0.5,0.3-0.7l1.7,0c-0.1,0.4-0.2,0.9-0.4,1.3c-0.2,0.4-0.5,0.7-0.8,1c-0.3,0.3-0.7,0.5-1.2,0.7c-0.5,0.2-1,0.2-1.5,0.2
	c-0.8,0-1.6-0.2-2.2-0.6c-0.7-0.4-1.2-0.9-1.5-1.7c-0.4-0.7-0.6-1.6-0.6-2.6c0-1,0.2-1.9,0.6-2.6c0.4-0.7,0.9-1.3,1.5-1.7
	c0.7-0.4,1.4-0.6,2.2-0.6c0.5,0,1,0.1,1.5,0.2c0.5,0.1,0.9,0.4,1.2,0.7c0.4,0.3,0.6,0.6,0.9,1C50.3,10.7,50.5,11.2,50.6,11.7z
	 M53.3,8.5V18h-1.7V8.5H53.3z M57.7,18.1c-0.7,0-1.3-0.2-1.8-0.5c-0.5-0.3-0.9-0.7-1.2-1.3c-0.3-0.5-0.4-1.2-0.4-1.9
	c0-0.7,0.1-1.4,0.4-1.9c0.3-0.6,0.7-1,1.2-1.3s1.1-0.5,1.8-0.5c0.7,0,1.3,0.2,1.8,0.5c0.5,0.3,0.9,0.7,1.2,1.3
	c0.3,0.6,0.4,1.2,0.4,1.9c0,0.7-0.1,1.4-0.4,1.9c-0.3,0.5-0.7,1-1.2,1.3C59,18,58.4,18.1,57.7,18.1z M57.7,16.8
	c0.4,0,0.7-0.1,0.9-0.3c0.3-0.2,0.4-0.5,0.6-0.8c0.1-0.4,0.2-0.7,0.2-1.2c0-0.4-0.1-0.8-0.2-1.2c-0.1-0.4-0.3-0.6-0.6-0.8
	c-0.3-0.2-0.6-0.3-0.9-0.3c-0.4,0-0.7,0.1-1,0.3c-0.3,0.2-0.4,0.5-0.6,0.8C56.1,13.7,56,14,56,14.5c0,0.4,0.1,0.8,0.2,1.2
	c0.1,0.4,0.3,0.6,0.6,0.8C57,16.7,57.3,16.8,57.7,16.8z M67.7,12.8l-1.5,0.2c0-0.2-0.1-0.3-0.2-0.4c-0.1-0.1-0.2-0.2-0.4-0.3
	c-0.2-0.1-0.4-0.1-0.7-0.1c-0.3,0-0.6,0.1-0.9,0.2c-0.2,0.2-0.3,0.3-0.3,0.6c0,0.2,0.1,0.4,0.2,0.5c0.2,0.1,0.4,0.2,0.8,0.3l1.2,0.3
	c0.7,0.1,1.2,0.4,1.5,0.7c0.3,0.3,0.5,0.7,0.5,1.2c0,0.4-0.1,0.8-0.4,1.2c-0.3,0.3-0.6,0.6-1.1,0.8s-1,0.3-1.6,0.3
	c-0.9,0-1.6-0.2-2.1-0.5c-0.5-0.4-0.8-0.9-0.9-1.5l1.6-0.2c0.1,0.3,0.2,0.6,0.5,0.7c0.2,0.2,0.6,0.2,0.9,0.2c0.4,0,0.7-0.1,1-0.2
	c0.2-0.2,0.4-0.4,0.4-0.6c0-0.2-0.1-0.4-0.2-0.5c-0.2-0.1-0.4-0.2-0.7-0.3L64,15c-0.7-0.1-1.2-0.4-1.5-0.7C62.2,13.9,62,13.5,62,13
	c0-0.4,0.1-0.8,0.4-1.1c0.2-0.3,0.6-0.6,1-0.7c0.4-0.2,0.9-0.3,1.5-0.3c0.8,0,1.5,0.2,2,0.5C67.3,11.7,67.6,12.2,67.7,12.8z
	 M72,18.1c-0.7,0-1.3-0.1-1.8-0.4c-0.5-0.3-0.9-0.7-1.2-1.3c-0.3-0.5-0.4-1.2-0.4-1.9c0-0.7,0.1-1.4,0.4-1.9c0.3-0.6,0.7-1,1.2-1.3
	c0.5-0.3,1.1-0.5,1.8-0.5c0.4,0,0.8,0.1,1.2,0.2c0.4,0.1,0.7,0.4,1,0.6c0.3,0.3,0.5,0.7,0.7,1.1c0.2,0.4,0.3,1,0.3,1.6v0.5h-5.8
	v-1.1h4.2c0-0.3-0.1-0.6-0.2-0.9c-0.1-0.3-0.3-0.5-0.6-0.6c-0.2-0.1-0.5-0.2-0.8-0.2c-0.3,0-0.6,0.1-0.9,0.2
	c-0.3,0.2-0.5,0.4-0.6,0.6c-0.1,0.3-0.2,0.6-0.2,0.9v1c0,0.4,0.1,0.8,0.2,1.1c0.2,0.3,0.4,0.5,0.6,0.7c0.3,0.2,0.6,0.2,1,0.2
	c0.2,0,0.5,0,0.7-0.1c0.2-0.1,0.4-0.2,0.5-0.3c0.1-0.1,0.3-0.3,0.3-0.5l1.6,0.2c-0.1,0.4-0.3,0.8-0.6,1.1c-0.3,0.3-0.6,0.5-1.1,0.7
	C73,18.1,72.5,18.1,72,18.1z M78.8,18.1c-0.6,0-1.1-0.1-1.5-0.4c-0.4-0.3-0.8-0.7-1-1.2c-0.3-0.5-0.4-1.2-0.4-2c0-0.8,0.1-1.5,0.4-2
	c0.3-0.5,0.6-1,1.1-1.2c0.4-0.3,0.9-0.4,1.5-0.4c0.4,0,0.8,0.1,1,0.2c0.3,0.1,0.5,0.3,0.6,0.5c0.2,0.2,0.3,0.4,0.4,0.5h0.1V8.5h1.7
	V18h-1.6v-1.1h-0.1c-0.1,0.2-0.2,0.4-0.4,0.5c-0.2,0.2-0.4,0.4-0.6,0.5C79.5,18.1,79.2,18.1,78.8,18.1z M79.2,16.8
	c0.4,0,0.7-0.1,0.9-0.3c0.2-0.2,0.4-0.5,0.6-0.8c0.1-0.3,0.2-0.7,0.2-1.2c0-0.5-0.1-0.9-0.2-1.2c-0.1-0.3-0.3-0.6-0.6-0.8
	c-0.2-0.2-0.5-0.3-0.9-0.3c-0.4,0-0.7,0.1-0.9,0.3c-0.2,0.2-0.4,0.5-0.6,0.8c-0.1,0.3-0.2,0.7-0.2,1.2c0,0.4,0.1,0.8,0.2,1.2
	c0.1,0.3,0.3,0.6,0.6,0.8C78.6,16.7,78.9,16.8,79.2,16.8z" />
    <g>
	<defs>
		<rect id="SVGID_1_" x="9" y="3" width="21" height="21" />
	</defs>
        <clipPath id="SVGID_2_">
		<use xlink:href="#SVGID_1_" overflow="visible" />
	</clipPath>
        <g clip-path="url(#SVGID_2_)">
		<path fill="#FFFFFF" d="M19.5,24C25.3,24,30,19.3,30,13.5C30,7.7,25.3,3,19.5,3C13.7,3,9,7.7,9,13.5C9,19.3,13.7,24,19.5,24z" />
            <path fill="none" stroke="#F44336" stroke-width="1.5" stroke-miterlimit="10" d="M23,3v7" />
            <path fill="none" stroke="#F44336" stroke-width="1.5" stroke-miterlimit="10" d="M16,3v7" />
            <path fill="#F44336" d="M18.2,24h2.7c0.6,0,1.2-0.5,1.2-1.2V16h-5v6.8C17,23.5,17.5,24,18.2,24z" />
            <path fill="none" stroke="#FFFFFF" stroke-width="1.5" stroke-miterlimit="10" d="M14,6l4,4" />
            <path fill="none" stroke="#F44336" stroke-width="0.5" stroke-miterlimit="10" d="M12.4,3.8L27,22" />
            <path fill="#F44336" d="M16.1,8h-1.9C13.5,8,13,8.7,13,9.5v6c0,0.8,0.5,1.5,1.2,1.5h8.3c0.2,0,0.4-0.1,0.5-0.2L16.1,8z" />
            <path fill="#F44336" d="M24.9,15.7l0.1-6c0-0.8-0.5-1.5-1.2-1.6L17.1,8l7.1,9C24.6,16.8,24.9,16.3,24.9,15.7z" />
	</g>
</g>
</svg>