<?xml version="1.0" encoding="utf-8"?><!-- Generator: Adobe Illustrator 24.0.2, SVG Export Plug-In . SVG Version: 6.00 Build 0)  -->
<svg version="1.1" id="Layer_1" xmlns="http://www.w3.org/2000/svg" xmlns:xlink="http://www.w3.org/1999/xlink" x="0px" y="0px" viewBox="0 0 101 29" enable-background="new 0 0 101 29"
    xml:space="preserve">
<g>
	<path fill="#27AA4B" d="M14,0h73c7.7,0,14,6.3,14,14v1c0,7.7-6.3,14-14,14H14C6.3,29,0,22.7,0,15v-1C0,6.3,6.3,0,14,0z" />
    <path fill="#FFFFFF" d="M48,13.3c0,1-0.2,1.9-0.6,2.6c-0.4,0.7-0.9,1.3-1.6,1.7c-0.7,0.4-1.4,0.6-2.2,0.6c-0.8,0-1.6-0.2-2.2-0.6
		c-0.7-0.4-1.2-0.9-1.6-1.7c-0.4-0.7-0.6-1.6-0.6-2.6c0-1,0.2-1.9,0.6-2.6c0.4-0.7,0.9-1.3,1.6-1.7c0.7-0.4,1.4-0.6,2.2-0.6
		c0.8,0,1.6,0.2,2.2,0.6c0.7,0.4,1.2,0.9,1.6,1.7C47.9,11.4,48,12.3,48,13.3z M46.3,13.3c0-0.7-0.1-1.3-0.3-1.8
		c-0.2-0.5-0.5-0.9-0.9-1.1c-0.4-0.3-0.8-0.4-1.4-0.4c-0.5,0-1,0.1-1.4,0.4c-0.4,0.3-0.7,0.6-0.9,1.1c-0.2,0.5-0.3,1.1-0.3,1.8
		s0.1,1.3,0.3,1.8c0.2,0.5,0.5,0.9,0.9,1.1c0.4,0.3,0.8,0.4,1.4,0.4c0.5,0,1-0.1,1.4-0.4c0.4-0.3,0.7-0.6,0.9-1.1
		C46.2,14.6,46.3,14,46.3,13.3z M49.2,20.7v-9.7h1.6v1.2h0.1c0.1-0.2,0.2-0.4,0.4-0.5c0.2-0.2,0.4-0.4,0.6-0.5
		c0.3-0.1,0.6-0.2,1-0.2c0.5,0,1,0.1,1.5,0.4c0.4,0.3,0.8,0.7,1.1,1.2c0.3,0.5,0.4,1.2,0.4,2c0,0.8-0.1,1.4-0.4,2
		c-0.3,0.5-0.6,1-1,1.2C54,18,53.5,18.1,53,18.1c-0.4,0-0.7-0.1-1-0.2c-0.3-0.1-0.5-0.3-0.6-0.5c-0.2-0.2-0.3-0.4-0.4-0.5h-0.1v3.8
		H49.2z M50.8,14.5c0,0.5,0.1,0.9,0.2,1.2c0.1,0.3,0.3,0.6,0.6,0.8c0.2,0.2,0.6,0.3,0.9,0.3c0.4,0,0.7-0.1,0.9-0.3
		c0.2-0.2,0.4-0.5,0.6-0.8c0.1-0.3,0.2-0.7,0.2-1.2c0-0.4-0.1-0.8-0.2-1.2c-0.1-0.3-0.3-0.6-0.6-0.8c-0.2-0.2-0.6-0.3-0.9-0.3
		c-0.4,0-0.7,0.1-0.9,0.3c-0.2,0.2-0.4,0.5-0.6,0.8C50.9,13.6,50.8,14,50.8,14.5z M60,18.1c-0.7,0-1.3-0.1-1.8-0.4
		c-0.5-0.3-0.9-0.7-1.2-1.3c-0.3-0.5-0.4-1.2-0.4-1.9c0-0.7,0.1-1.4,0.4-1.9c0.3-0.6,0.7-1,1.2-1.3c0.5-0.3,1.1-0.5,1.8-0.5
		c0.4,0,0.8,0.1,1.2,0.2c0.4,0.1,0.7,0.4,1,0.6c0.3,0.3,0.5,0.7,0.7,1.1c0.2,0.4,0.3,1,0.3,1.6v0.5h-5.8v-1.1h4.2
		c0-0.3-0.1-0.6-0.2-0.9c-0.1-0.3-0.3-0.5-0.6-0.6c-0.2-0.1-0.5-0.2-0.8-0.2c-0.3,0-0.6,0.1-0.9,0.2c-0.3,0.2-0.5,0.4-0.6,0.6
		c-0.1,0.3-0.2,0.6-0.2,0.9v1c0,0.4,0.1,0.8,0.2,1.1c0.2,0.3,0.4,0.5,0.6,0.7c0.3,0.2,0.6,0.2,1,0.2c0.2,0,0.5,0,0.7-0.1
		c0.2-0.1,0.4-0.2,0.5-0.3c0.1-0.1,0.3-0.3,0.3-0.5l1.6,0.2c-0.1,0.4-0.3,0.8-0.6,1.1c-0.3,0.3-0.6,0.5-1.1,0.7
		C61.1,18.1,60.6,18.1,60,18.1z M65.9,13.8V18h-1.7v-7.1h1.6v1.2h0.1c0.2-0.4,0.4-0.7,0.8-0.9c0.4-0.2,0.8-0.4,1.3-0.4
		c0.5,0,0.9,0.1,1.3,0.3c0.4,0.2,0.6,0.5,0.8,0.9c0.2,0.4,0.3,0.9,0.3,1.4V18h-1.7v-4.3c0-0.5-0.1-0.8-0.4-1.1
		c-0.2-0.3-0.6-0.4-1-0.4c-0.3,0-0.6,0.1-0.8,0.2c-0.2,0.1-0.4,0.3-0.5,0.5C65.9,13.2,65.9,13.5,65.9,13.8z M74.8,18.1
		c-0.7,0-1.3-0.1-1.8-0.4c-0.5-0.3-0.9-0.7-1.2-1.3c-0.3-0.5-0.4-1.2-0.4-1.9c0-0.7,0.1-1.4,0.4-1.9c0.3-0.6,0.7-1,1.2-1.3
		c0.5-0.3,1.1-0.5,1.8-0.5c0.4,0,0.8,0.1,1.2,0.2c0.4,0.1,0.7,0.4,1,0.6c0.3,0.3,0.5,0.7,0.7,1.1c0.2,0.4,0.3,1,0.3,1.6v0.5h-5.8
		v-1.1h4.2c0-0.3-0.1-0.6-0.2-0.9c-0.1-0.3-0.3-0.5-0.6-0.6c-0.2-0.1-0.5-0.2-0.8-0.2c-0.3,0-0.6,0.1-0.9,0.2
		c-0.3,0.2-0.5,0.4-0.6,0.6c-0.1,0.3-0.2,0.6-0.2,0.9v1c0,0.4,0.1,0.8,0.2,1.1c0.2,0.3,0.4,0.5,0.6,0.7c0.3,0.2,0.6,0.2,1,0.2
		c0.2,0,0.5,0,0.7-0.1c0.2-0.1,0.4-0.2,0.5-0.3c0.1-0.1,0.3-0.3,0.3-0.5l1.6,0.2c-0.1,0.4-0.3,0.8-0.6,1.1c-0.3,0.3-0.6,0.5-1.1,0.7
		C75.9,18.1,75.4,18.1,74.8,18.1z M81.6,18.1c-0.6,0-1.1-0.1-1.5-0.4c-0.4-0.3-0.8-0.7-1-1.2c-0.3-0.5-0.4-1.2-0.4-2
		c0-0.8,0.1-1.5,0.4-2c0.3-0.5,0.6-1,1.1-1.2c0.4-0.3,0.9-0.4,1.5-0.4c0.4,0,0.8,0.1,1,0.2c0.3,0.1,0.5,0.3,0.6,0.5
		c0.2,0.2,0.3,0.4,0.4,0.5h0.1V8.5h1.7V18h-1.6v-1.1h-0.1c-0.1,0.2-0.2,0.4-0.4,0.5c-0.2,0.2-0.4,0.4-0.6,0.5
		C82.4,18.1,82,18.1,81.6,18.1z M82.1,16.8c0.4,0,0.7-0.1,0.9-0.3c0.2-0.2,0.4-0.5,0.6-0.8c0.1-0.3,0.2-0.7,0.2-1.2
		c0-0.5-0.1-0.9-0.2-1.2c-0.1-0.3-0.3-0.6-0.6-0.8c-0.2-0.2-0.5-0.3-0.9-0.3c-0.4,0-0.7,0.1-0.9,0.3s-0.4,0.5-0.6,0.8
		c-0.1,0.3-0.2,0.7-0.2,1.2c0,0.4,0.1,0.8,0.2,1.2c0.1,0.3,0.3,0.6,0.6,0.8C81.4,16.7,81.7,16.8,82.1,16.8z" />
    <g>
		<defs>
			<rect id="SVGID_1_" x="9" y="3" width="21" height="21" />
		</defs>
        <clipPath id="SVGID_2_">
			<use xlink:href="#SVGID_1_" overflow="visible" />
		</clipPath>
        <g clip-path="url(#SVGID_2_)">
			<path fill="#FFFFFF" d="M19.5,24C25.3,24,30,19.3,30,13.5C30,7.7,25.3,3,19.5,3C13.7,3,9,7.7,9,13.5C9,19.3,13.7,24,19.5,24z" />
            <path fill="none" stroke="#27AA4B" stroke-width="1.5" stroke-miterlimit="10" d="M23,3v7" />
            <path fill="none" stroke="#27AA4B" stroke-width="1.5" stroke-miterlimit="10" d="M16,3v7" />
            <path fill="#27AA4B" d="M18.2,24h2.7c0.6,0,1.2-0.5,1.2-1.2V16h-5v6.8C17,23.5,17.5,24,18.2,24z" />
            <path fill="#27AA4B" d="M16.1,8h-1.9C13.5,8,13,8.7,13,9.5v6c0,0.8,0.5,1.5,1.2,1.5h8.3c0.2,0,0.4-0.1,0.5-0.2L16.1,8z" />
            <path fill="#27AA4B" d="M24.9,15.7l0.1-6c0-0.8-0.5-1.5-1.2-1.6L17.1,8l7.1,9C24.6,16.8,24.9,16.3,24.9,15.7z" />
            <path fill="#27AA4B" d="M23,8h-7v3.5l5,5.5h3.5v-1L23,8z" />
		</g>
	</g>
</g>
</svg>