<svg width="12" height="12" viewBox="0 0 12 12" fill="none" xmlns="http://www.w3.org/2000/svg">
    <g clip-path="url(#clip0_1712_5341)">
        <path d="M3.375 6.70312C3.47813 6.70312 3.5625 6.61875 3.5625 6.51562V3.9375H8.88375C8.98688 3.9375 9.07125 3.85313 9.07125 3.75C9.07125 3.64687 8.98688 3.5625 8.88375 3.5625H3.7125L4.41562 2.4375H5.94563L5.81625 2.955C5.80313 3.01125 5.81438 3.07125 5.85 3.11625C5.88563 3.16125 5.94188 3.1875 6 3.1875H7.5C7.55813 3.1875 7.6125 3.16125 7.64813 3.11625C7.68375 3.07125 7.69688 3.01125 7.68188 2.955L7.5525 2.4375H7.90688C8.01 2.4375 8.09438 2.35312 8.09438 2.25C8.09438 2.14688 8.01 2.0625 7.90688 2.0625H7.5V0.9375H8.17688C8.28 0.9375 8.36438 0.853125 8.36438 0.75C8.36438 0.646875 8.28 0.5625 8.17688 0.5625H4.3125C4.20938 0.5625 4.125 0.646875 4.125 0.75V2.19563L3.21562 3.65062C3.20062 3.675 3.1875 3.72187 3.1875 3.75V6.51562C3.1875 6.61875 3.27188 6.70312 3.375 6.70312ZM6.24 2.8125L6.33375 2.4375H7.16625L7.26 2.8125H6.24ZM7.125 0.9375V2.0625H6.375V0.9375H7.125ZM4.5 0.9375H6V2.0625H4.5V0.9375Z" fill="white"/>
        <path d="M10.3125 8.71875V4.125C10.3125 4.02187 10.2281 3.9375 10.125 3.9375C10.0219 3.9375 9.9375 4.02187 9.9375 4.125V8.71875C9.9375 8.82188 10.0219 8.90625 10.125 8.90625C10.2281 8.90625 10.3125 8.82188 10.3125 8.71875Z" fill="white"/>
        <path d="M5.72619 7.5C5.62307 7.5 5.53869 7.58437 5.53869 7.6875C5.53869 7.79063 5.62307 7.875 5.72619 7.875H8.62494C8.72807 7.875 8.81244 7.79063 8.81244 7.6875C8.81244 7.58437 8.72807 7.5 8.62494 7.5V7.3125C8.62494 6.8625 8.45057 6.43875 8.13182 6.11813C7.93307 5.92125 7.69307 5.77875 7.43432 5.69812C7.47369 5.62125 7.49994 5.53312 7.49994 5.4375C7.49994 5.12813 7.24682 4.875 6.93744 4.875C6.62807 4.875 6.37494 5.12813 6.37494 5.4375C6.37494 5.53312 6.40119 5.62312 6.44432 5.70187C6.08057 5.8125 5.75994 6.04313 5.54057 6.36563C5.48244 6.45188 5.50494 6.56813 5.59119 6.62625C5.67744 6.68438 5.79369 6.66187 5.85182 6.57562C6.09557 6.21562 6.50244 6 6.93744 6C7.28619 6 7.61807 6.13688 7.86557 6.3825C8.11307 6.63375 8.24994 6.96375 8.24994 7.3125V7.5H5.72619ZM6.74994 5.4375C6.74994 5.33437 6.83432 5.25 6.93744 5.25C7.04057 5.25 7.12494 5.33437 7.12494 5.4375C7.12494 5.54062 7.04057 5.625 6.93744 5.625C6.83432 5.625 6.74994 5.54062 6.74994 5.4375Z" fill="white"/>
        <path d="M9.61312 8.99999H5.12437L4.57687 8.58936L5.30062 7.65749C5.45438 7.46061 5.51813 7.20561 5.47875 6.95999C5.43937 6.71436 5.29688 6.49311 5.08875 6.35436C4.7325 6.11624 4.25437 6.16499 3.9525 6.46686L2.91 7.50936C2.06437 7.64811 1.30875 8.12624 0.82125 8.83311L0.140625 9.00374C0.058125 9.02624 0 9.10124 0 9.18749V11.8125C0 11.9156 0.084375 12 0.1875 12H3.22687C3.47625 12 3.72563 11.9362 3.945 11.8162L5.68125 10.8694L10.5206 10.3106C10.6163 10.3012 10.6875 10.2206 10.6875 10.125V10.0744C10.6875 9.48186 10.2056 8.99999 9.61312 8.99999ZM5.60437 10.5019C5.58 10.5037 5.5575 10.5112 5.53688 10.5244L3.76875 11.49C3.60188 11.5781 3.41625 11.625 3.22687 11.625H0.375V9.33374L0.9825 9.18186C1.0275 9.17061 1.06687 9.14249 1.09312 9.10311L1.10812 9.08061C1.54688 8.42436 2.24437 7.98374 3.02625 7.87124C3.06562 7.86561 3.10312 7.84686 3.13312 7.81874L4.21875 6.73311C4.395 6.55686 4.67438 6.52874 4.8825 6.66749C5.00625 6.74999 5.08687 6.87561 5.10938 7.01999C5.13375 7.16624 5.09625 7.31061 5.00625 7.42686L4.16437 8.50874C4.13437 8.54811 4.11938 8.59874 4.12687 8.64936C4.13438 8.69999 4.16062 8.74499 4.2 8.77499L4.95 9.33749C4.98187 9.36186 5.02125 9.37499 5.0625 9.37499H9.61312C9.96 9.37499 10.2487 9.62811 10.3031 9.95811L5.60437 10.5019Z" fill="white"/>
        <path d="M10.125 0C9.09187 0 8.25 0.841875 8.25 1.875C8.25 2.90812 9.09187 3.75 10.125 3.75C11.1581 3.75 12 2.90812 12 1.875C12 0.841875 11.1581 0 10.125 0ZM10.125 3.375C9.29813 3.375 8.625 2.70187 8.625 1.875C8.625 1.04813 9.29813 0.375 10.125 0.375C10.9519 0.375 11.625 1.04813 11.625 1.875C11.625 2.70187 10.9519 3.375 10.125 3.375Z" fill="white"/>
        <path d="M10.7419 1.3669L9.93756 2.17315L9.50818 1.74378C9.43506 1.67065 9.31693 1.67065 9.24381 1.74378C9.17068 1.8169 9.17068 1.93503 9.24381 2.00815L9.80631 2.57065C9.84193 2.60628 9.88881 2.62503 9.93756 2.62503C9.98631 2.62503 10.0332 2.60628 10.0707 2.57065L11.0082 1.63315C11.0813 1.56003 11.0813 1.4419 11.0082 1.36878C10.9351 1.29565 10.8151 1.29378 10.7419 1.3669Z" fill="white"/>
    </g>
    <defs>
        <clipPath id="clip0_1712_5341">
            <rect width="12" height="12" fill="white"/>
        </clipPath>
    </defs>
</svg>
