<svg width="6" height="6" viewBox="0 0 6 6" fill="none" xmlns="http://www.w3.org/2000/svg">
    <g clip-path="url(#clip0_1722_14319)">
        <path d="M1.20675 1.54755L1.54372 1.21094L2.99833 2.66418L4.45307 1.21094L4.79004 1.54755L3.33543 3.00066L4.79004 4.45391L4.45307 4.79053L2.99846 3.33742L1.54385 4.79053L1.20689 4.45391L2.6615 3.00066L1.20675 1.54755Z" fill="#EA5B44"/>
        <path d="M3.00005 0.265254C2.92672 0.265254 2.86728 0.205875 2.86728 0.132627C2.86728 0.0593792 2.92672 0 3.00005 0C3.07337 0 3.13281 0.0593792 3.13281 0.132627C3.13281 0.205875 3.07337 0.265254 3.00005 0.265254Z" fill="#828282"/>
        <path d="M3.00005 6.00012C2.92672 6.00012 2.86728 5.94074 2.86728 5.86749C2.86728 5.79424 2.92672 5.73486 3.00005 5.73486C3.07337 5.73486 3.13281 5.79424 3.13281 5.86749C3.13281 5.94074 3.07337 6.00012 3.00005 6.00012Z" fill="#828282"/>
        <path d="M5.86724 3.13293C5.79391 3.13293 5.73447 3.07355 5.73447 3.0003C5.73447 2.92705 5.79391 2.86768 5.86724 2.86768C5.94056 2.86768 6 2.92705 6 3.0003C6 3.07355 5.94056 3.13293 5.86724 3.13293Z" fill="#828282"/>
        <path d="M0.132861 3.13293C0.059537 3.13293 9.63211e-05 3.07355 9.63211e-05 3.0003C9.63211e-05 2.92705 0.059537 2.86768 0.132861 2.86768C0.206184 2.86768 0.265625 2.92705 0.265625 3.0003C0.265625 3.07355 0.206184 3.13293 0.132861 3.13293Z" fill="#828282"/>
        <path d="M0.970751 1.1051C0.897428 1.1051 0.837987 1.04572 0.837987 0.972471C0.837987 0.899223 0.897428 0.839844 0.970751 0.839844C1.04407 0.839844 1.10352 0.899223 1.10352 0.972471C1.10352 1.04572 1.04407 1.1051 0.970751 1.1051Z" fill="#828282"/>
        <path d="M5.02935 5.16027C4.95602 5.16027 4.89658 5.10089 4.89658 5.02765C4.89658 4.9544 4.95602 4.89502 5.02935 4.89502C5.10267 4.89502 5.16211 4.9544 5.16211 5.02765C5.16211 5.10089 5.10267 5.16027 5.02935 5.16027Z" fill="#828282"/>
        <path d="M5.02739 1.10705C4.95407 1.10705 4.89463 1.04767 4.89463 0.974424C4.89463 0.901176 4.95407 0.841797 5.02739 0.841797C5.10072 0.841797 5.16016 0.901176 5.16016 0.974424C5.16016 1.04767 5.10072 1.10705 5.02739 1.10705Z" fill="#828282"/>
        <path d="M0.972704 5.15783C0.899381 5.15783 0.83994 5.09845 0.83994 5.02521C0.83994 4.95196 0.899381 4.89258 0.972704 4.89258C1.04603 4.89258 1.10547 4.95196 1.10547 5.02521C1.10547 5.09845 1.04603 5.15783 0.972704 5.15783Z" fill="#828282"/>
        <path d="M5.4854 1.69885C5.41208 1.69885 5.35264 1.63947 5.35264 1.56622C5.35264 1.49297 5.41208 1.43359 5.4854 1.43359C5.55872 1.43359 5.61816 1.49297 5.61816 1.56622C5.61816 1.63947 5.55872 1.69885 5.4854 1.69885Z" fill="#828282"/>
        <path d="M0.51372 4.56652C0.440396 4.56652 0.380956 4.50714 0.380956 4.4339C0.380956 4.36065 0.440396 4.30127 0.51372 4.30127C0.587044 4.30127 0.646484 4.36065 0.646484 4.4339C0.646484 4.50714 0.587044 4.56652 0.51372 4.56652Z" fill="#828282"/>
        <path d="M4.43364 5.6134C4.36032 5.6134 4.30088 5.55402 4.30088 5.48077C4.30088 5.40752 4.36032 5.34814 4.43364 5.34814C4.50697 5.34814 4.56641 5.40752 4.56641 5.48077C4.56641 5.55402 4.50697 5.6134 4.43364 5.6134Z" fill="#828282"/>
        <path d="M1.56645 0.651973C1.49313 0.651973 1.43369 0.592594 1.43369 0.519346C1.43369 0.446098 1.49313 0.386719 1.56645 0.386719C1.63978 0.386719 1.69922 0.446098 1.69922 0.519346C1.69922 0.592594 1.63978 0.651973 1.56645 0.651973Z" fill="#828282"/>
        <path d="M3.74321 0.362911C3.66989 0.362911 3.61045 0.303531 3.61045 0.230283C3.61045 0.157035 3.66989 0.0976562 3.74321 0.0976562C3.81654 0.0976562 3.87598 0.157035 3.87598 0.230283C3.87598 0.303531 3.81654 0.362911 3.74321 0.362911Z" fill="#828282"/>
        <path d="M2.25688 5.90246C2.18356 5.90246 2.12412 5.84308 2.12412 5.76983C2.12412 5.69659 2.18356 5.63721 2.25688 5.63721C2.33021 5.63721 2.38965 5.69659 2.38965 5.76983C2.38965 5.84308 2.33021 5.90246 2.25688 5.90246Z" fill="#828282"/>
        <path d="M5.76958 3.87414C5.69626 3.87414 5.63682 3.81476 5.63682 3.74151C5.63682 3.66827 5.69626 3.60889 5.76958 3.60889C5.8429 3.60889 5.90234 3.66827 5.90234 3.74151C5.90234 3.81476 5.8429 3.87414 5.76958 3.87414Z" fill="#828282"/>
        <path d="M0.230517 2.39123C0.157193 2.39123 0.0977526 2.33185 0.0977526 2.2586C0.0977526 2.18536 0.157193 2.12598 0.230517 2.12598C0.303841 2.12598 0.363281 2.18536 0.363281 2.2586C0.363281 2.33185 0.303841 2.39123 0.230517 2.39123Z" fill="#828282"/>
        <path d="M0.51372 1.69885C0.440396 1.69885 0.380956 1.63947 0.380956 1.56622C0.380956 1.49297 0.440396 1.43359 0.51372 1.43359C0.587044 1.43359 0.646484 1.49297 0.646484 1.56622C0.646484 1.63947 0.587044 1.69885 0.51372 1.69885Z" fill="#828282"/>
        <path d="M5.4854 4.56652C5.41208 4.56652 5.35264 4.50714 5.35264 4.4339C5.35264 4.36065 5.41208 4.30127 5.4854 4.30127C5.55872 4.30127 5.61816 4.36065 5.61816 4.4339C5.61816 4.50714 5.55872 4.56652 5.4854 4.56652Z" fill="#828282"/>
        <path d="M1.56645 5.6134C1.49313 5.6134 1.43369 5.55402 1.43369 5.48077C1.43369 5.40752 1.49313 5.34814 1.56645 5.34814C1.63978 5.34814 1.69922 5.40752 1.69922 5.48077C1.69922 5.55402 1.63978 5.6134 1.56645 5.6134Z" fill="#828282"/>
        <path d="M4.43364 0.651973C4.36032 0.651973 4.30088 0.592594 4.30088 0.519346C4.30088 0.446098 4.36032 0.386719 4.43364 0.386719C4.50697 0.386719 4.56641 0.446098 4.56641 0.519346C4.56641 0.592594 4.50697 0.651973 4.43364 0.651973Z" fill="#828282"/>
        <path d="M2.25688 0.362911C2.18356 0.362911 2.12412 0.303531 2.12412 0.230283C2.12412 0.157035 2.18356 0.0976562 2.25688 0.0976562C2.33021 0.0976562 2.38965 0.157035 2.38965 0.230283C2.38965 0.303531 2.33021 0.362911 2.25688 0.362911Z" fill="#828282"/>
        <path d="M3.74321 5.90246C3.66989 5.90246 3.61045 5.84308 3.61045 5.76983C3.61045 5.69659 3.66989 5.63721 3.74321 5.63721C3.81654 5.63721 3.87598 5.69659 3.87598 5.76983C3.87598 5.84308 3.81654 5.90246 3.74321 5.90246Z" fill="#828282"/>
        <path d="M0.230517 3.87414C0.157193 3.87414 0.0977526 3.81476 0.0977526 3.74151C0.0977526 3.66827 0.157193 3.60889 0.230517 3.60889C0.303841 3.60889 0.363281 3.66827 0.363281 3.74151C0.363281 3.81476 0.303841 3.87414 0.230517 3.87414Z" fill="#828282"/>
        <path d="M5.76958 2.39123C5.69626 2.39123 5.63682 2.33185 5.63682 2.2586C5.63682 2.18536 5.69626 2.12598 5.76958 2.12598C5.8429 2.12598 5.90234 2.18536 5.90234 2.2586C5.90234 2.33185 5.8429 2.39123 5.76958 2.39123Z" fill="#828282"/>
    </g>
    <defs>
        <clipPath id="clip0_1722_14319">
            <rect width="6" height="6" fill="white" transform="matrix(-1 0 0 1 6 0)"/>
        </clipPath>
    </defs>
</svg>
