<svg width="16" height="15" viewBox="0 0 16 15" fill="none" xmlns="http://www.w3.org/2000/svg">
    <path fill-rule="evenodd" clip-rule="evenodd" d="M0.5 2.13157H7.95094C7.91844 1.96735 7.90094 1.79763 7.9 1.6237V1.60912C7.90031 1.43324 7.9175 1.26126 7.95031 1.0951H0.5C0.22375 1.0951 0 1.32701 0 1.61333C0 1.89966 0.22375 2.13189 0.5 2.13157ZM7.16937 7.49854V7.50502C7.16687 8.39218 6.46844 9.11349 5.61312 9.11349C4.75844 9.11349 4.06 8.39282 4.05656 7.50664V7.49757C4.0575 6.60912 4.75562 5.88683 5.61312 5.88683C6.47 5.88683 7.1675 6.6088 7.16937 7.4966V7.49854ZM15.5 6.9816H8.04937C8.08219 7.14711 8.09938 7.31846 8.1 7.49368V7.49725V7.50761C8.09938 7.68219 8.08187 7.85289 8.04937 8.01807H15.5003C15.7766 8.01807 16.0003 7.78616 16.0003 7.49984C16 7.21351 15.7762 6.9816 15.5 6.9816ZM3.17656 6.9816H0.5C0.22375 6.9816 0 7.21351 0 7.49984C0 7.78616 0.22375 8.01807 0.5 8.01807H3.17688C3.14438 7.85386 3.12687 7.68414 3.12594 7.5102V7.49563C3.12625 7.31975 3.14375 7.14776 3.17656 6.9816ZM10.3869 15C9.53 15 8.8325 14.278 8.83062 13.3902V13.388C8.83062 13.3857 8.83062 13.3838 8.83062 13.3815C8.83312 12.4943 9.53156 11.773 10.3869 11.773C11.2416 11.773 11.94 12.4937 11.9434 13.3799V13.3889C11.9425 14.2777 11.2444 15 10.3869 15ZM15.5 12.8681H12.8234C12.8562 13.0336 12.8734 13.205 12.8737 13.3802V13.3838V13.3941C12.8731 13.5687 12.8556 13.7394 12.8231 13.9046H15.5C15.7762 13.9046 16 13.6727 16 13.3863C16 13.1 15.7762 12.8681 15.5 12.8681ZM7.95062 12.8681H0.5C0.22375 12.8681 0 13.1 0 13.3863C0 13.6727 0.22375 13.9046 0.5 13.9046H7.95094C7.91844 13.7404 7.90094 13.5706 7.9 13.3967V13.3821C7.90063 13.2063 7.91781 13.0343 7.95062 12.8681ZM8.83062 1.61495C8.83062 1.61268 8.83062 1.61074 8.83062 1.60847C8.83312 0.721319 9.53156 0 10.3869 0C11.2416 0 11.94 0.720671 11.9434 1.60718V1.61625C11.9419 2.50437 11.2444 3.22699 10.3866 3.22699C9.52969 3.22699 8.83219 2.50502 8.83031 1.61722V1.61495H8.83062ZM12.8231 2.13189H15.5C15.7762 2.13189 16 1.89998 16 1.61366C16 1.32733 15.7762 1.09542 15.5 1.09542H12.8234C12.8562 1.26093 12.8734 1.43227 12.8737 1.6075V1.61106V1.62143C12.8734 1.79601 12.8559 1.9667 12.8231 2.13189Z" fill="#8B97A7"/>
</svg>
