<svg width="14" height="14" viewBox="0 0 14 14" fill="none" xmlns="http://www.w3.org/2000/svg">
  <g clip-path="url(#clip0_544_18230)">
    <path
      d="M8.39844 1.86608C8.52736 1.86608 8.63178 1.76166 8.63178 1.63275C8.63178 1.50383 8.52736 1.39941 8.39844 1.39941H2.33294C2.20403 1.39941 2.09961 1.50383 2.09961 1.63275V2.56579C2.09961 2.69471 2.20403 2.79912 2.33294 2.79912H8.39844C8.52736 2.79912 8.63178 2.69471 8.63178 2.56579C8.63178 2.43687 8.52736 2.33246 8.39844 2.33246H2.56628V1.86579H8.39844V1.86608Z"
      fill="#485B78" />
    <path
      d="M9.09821 4.89941H3.96575C3.83684 4.89941 3.73242 5.00383 3.73242 5.13275C3.73242 5.26166 3.83684 5.36608 3.96575 5.36608H9.09821C9.22713 5.36608 9.33155 5.26166 9.33155 5.13275C9.33155 5.00383 9.22684 4.89941 9.09821 4.89941Z"
      fill="#485B78" />
    <path
      d="M6.76527 6.53216C6.76527 6.40324 6.66085 6.29883 6.53194 6.29883H1.86615C1.73723 6.29883 1.63281 6.40324 1.63281 6.53216C1.63281 6.66108 1.73723 6.76549 1.86615 6.76549H6.53194C6.66085 6.76549 6.76527 6.66108 6.76527 6.53216Z"
      fill="#485B78" />
    <path
      d="M9.0988 6.29883H7.46576C7.33684 6.29883 7.23242 6.40324 7.23242 6.53216C7.23242 6.66108 7.33684 6.76549 7.46576 6.76549H9.0988C9.22771 6.76549 9.33213 6.66108 9.33213 6.53216C9.33213 6.40324 9.22742 6.29883 9.0988 6.29883Z"
      fill="#485B78" />
    <path
      d="M13.9751 3.31741C13.927 3.13833 13.8094 2.98549 13.6484 2.89274C13.4874 2.7997 13.2961 2.77462 13.1164 2.82274C12.937 2.87116 12.7845 2.98841 12.6918 3.14941L12.5751 3.35241C12.4643 3.28883 12.3228 3.32616 12.2578 3.43641L11.6651 4.44645L11.4621 4.32979C11.4084 4.29858 11.3443 4.29012 11.2845 4.30645C11.2244 4.32279 11.1733 4.36216 11.1424 4.41612C11.0791 4.52754 11.1176 4.66929 11.2288 4.73345L11.4318 4.85012L9.44871 8.28654L8.95871 9.59554L8.72538 10.0316C8.58888 10.2693 8.60346 10.5645 8.76271 10.7876L8.23771 11.4313L8.09071 11.0629C8.0245 10.8987 7.87109 10.7861 7.69463 10.7724C7.51817 10.7584 7.349 10.8459 7.258 10.9976L7.174 11.1399L7.09467 10.2069C7.07659 9.98608 6.90538 9.80875 6.68575 9.78191C6.46584 9.75537 6.25759 9.8872 6.1873 10.0972L5.61329 11.8189C5.57334 11.9408 5.63867 12.0718 5.7603 12.1129C5.78305 12.1234 5.80754 12.1298 5.83263 12.1316C5.93296 12.1319 6.02221 12.068 6.0543 11.9729L6.62567 10.2512L6.70734 11.1982C6.72425 11.4004 6.8695 11.5684 7.06696 11.6142C7.26442 11.66 7.46888 11.573 7.57271 11.3989L7.65905 11.2566L7.80371 11.6229C7.86525 11.7772 8.00409 11.8875 8.1683 11.912C8.3328 11.9365 8.49759 11.8717 8.60142 11.7419L9.14509 11.0539C9.20517 11.0696 9.2673 11.0775 9.32942 11.0772C9.57938 11.0792 9.81155 10.9474 9.93842 10.7319L10.1718 10.3422L11.0608 9.26216L13.0648 5.78374L13.2678 5.90041C13.322 5.93133 13.3614 5.98266 13.3775 6.04274C13.3935 6.10254 13.3853 6.16641 13.3541 6.22008L12.4211 7.83679C12.3858 7.88987 12.3738 7.95491 12.3881 8.01733C12.4021 8.07945 12.4412 8.13312 12.4958 8.16579C12.5494 8.197 12.6136 8.20545 12.6734 8.18912C12.7335 8.17279 12.7845 8.13341 12.8154 8.07945L13.7485 6.46274C13.8415 6.30174 13.8666 6.11041 13.8185 5.93074C13.77 5.75137 13.6528 5.59883 13.4918 5.50608L13.2888 5.38941L13.8721 4.37937C13.9357 4.26854 13.8984 4.12708 13.7881 4.06204L13.9048 3.85904C14.0008 3.69512 14.0258 3.49999 13.9751 3.31741ZM13.0954 3.38275C13.1263 3.32879 13.1777 3.28912 13.2378 3.27308C13.2975 3.2582 13.3611 3.26666 13.4151 3.29641C13.4693 3.32733 13.5087 3.37866 13.5248 3.43874C13.5396 3.49854 13.5312 3.56212 13.5014 3.61608L13.3848 3.81908L12.9788 3.58574L13.0954 3.38275ZM9.91567 9.89654L9.799 9.82887L9.45367 9.6282L9.785 8.74183L10.5197 9.16649L9.91567 9.89654ZM9.21596 10.5706C9.11738 10.5017 9.08704 10.3696 9.14596 10.2649L9.26263 10.0619L9.66863 10.2952L9.55196 10.4959C9.5193 10.5525 9.46446 10.593 9.40059 10.6073C9.33642 10.6213 9.26963 10.6082 9.21596 10.5706ZM10.786 8.78354L9.97896 8.31687L11.8453 5.08345L12.6524 5.55012L10.786 8.78354ZM12.8854 5.14645L12.0784 4.67979L12.545 3.87274L13.3521 4.33941L12.8854 5.14645Z"
      fill="#485B78" />
    <path
      d="M3.68139 10.4536L2.85568 11.2773L2.36102 10.7826C2.27002 10.6922 2.12302 10.6922 2.03202 10.7826C1.98768 10.8264 1.96289 10.8862 1.96289 10.9483C1.96289 11.0104 1.98768 11.0702 2.03202 11.114L2.52668 11.6086C2.61418 11.6956 2.73231 11.744 2.85568 11.744C2.97964 11.7446 3.09893 11.6961 3.18702 11.6086L4.01039 10.7826C4.08972 10.6899 4.08418 10.5522 3.99814 10.4659C3.91181 10.3796 3.77385 10.3743 3.68139 10.4536Z"
      fill="#485B78" />
    <path
      d="M0.933594 11.0815C0.933594 12.1767 1.82143 13.0646 2.91664 13.0646C4.01184 13.0646 4.89968 12.1767 4.89968 11.0815C4.89968 10.9526 4.79526 10.8482 4.66634 10.8482C4.53743 10.8482 4.43301 10.9526 4.43301 11.0815C4.43301 11.9189 3.75401 12.5979 2.91664 12.5979C2.07926 12.5979 1.40026 11.9189 1.40026 11.0815C1.40026 10.2442 2.07926 9.56515 2.91664 9.56515C3.24505 9.56428 3.56443 9.67073 3.82634 9.86848C3.9293 9.94578 4.07572 9.92477 4.15301 9.82182C4.2303 9.71886 4.20959 9.57244 4.10634 9.49515C3.50551 9.04452 2.70139 8.97219 2.02968 9.3079C1.35797 9.64361 0.933594 10.3305 0.933594 11.0815Z"
      fill="#485B78" />
    <path
      d="M3.03216 3.26562C2.90324 3.26562 2.79883 3.37004 2.79883 3.49896C2.79883 3.62787 2.90324 3.73229 3.03216 3.73229H7.69795C7.82687 3.73229 7.93129 3.62787 7.93129 3.49896C7.93129 3.37004 7.82687 3.26562 7.69795 3.26562H3.03216Z"
      fill="#485B78" />
    <path
      d="M4.19919 7.93151C4.3281 7.93151 4.43252 7.82709 4.43252 7.69818C4.43252 7.56926 4.3281 7.46484 4.19919 7.46484H1.86615C1.73723 7.46484 1.63281 7.56926 1.63281 7.69818C1.63281 7.82709 1.73723 7.93151 1.86615 7.93151H4.19919Z"
      fill="#485B78" />
    <path
      d="M5.13177 7.93151H6.76481C6.89373 7.93151 6.99815 7.82709 6.99815 7.69818C6.99815 7.56926 6.89373 7.46484 6.76481 7.46484H5.13177C5.00285 7.46484 4.89844 7.56926 4.89844 7.69818C4.89844 7.82739 5.00285 7.93151 5.13177 7.93151Z"
      fill="#485B78" />
    <path
      d="M10.4983 10.7316C10.3693 10.7316 10.2649 10.836 10.2649 10.9649V13.298C10.2649 13.4269 10.1605 13.5313 10.0316 13.5313H0.7C0.571083 13.5313 0.466667 13.4269 0.466667 13.298V0.7C0.466667 0.571083 0.571083 0.466667 0.7 0.466667H10.0319C10.1608 0.466667 10.2652 0.571083 10.2652 0.7V5.08142C10.2652 5.21033 10.3696 5.31475 10.4985 5.31475C10.6275 5.31475 10.7319 5.21033 10.7319 5.08142V0.7C10.7319 0.313542 10.4186 0 10.0319 0H0.7C0.31325 0 0 0.31325 0 0.7V13.298C0 13.6847 0.31325 13.998 0.7 13.998H10.0319C10.4183 13.998 10.7319 13.6847 10.7319 13.298V10.9649C10.7316 10.836 10.6272 10.7316 10.4983 10.7316Z"
      fill="#485B78" />
  </g>
  <defs>
    <clipPath id="clip0_544_18230">
      <rect width="14" height="13.9977" fill="white" />
    </clipPath>
  </defs>
</svg>