<svg width="213" height="233" viewBox="0 0 213 233" fill="none" xmlns="http://www.w3.org/2000/svg">
  <path d="M177.645 0H12.041V227.161H177.645V0Z" fill="#E6E7E8" />
  <path d="M172.539 5.55566H6.93555V232.717H172.539V5.55566Z" fill="white" />
  <path
    d="M17.0444 23.2049H14.944C14.8198 22.6007 14.6024 22.07 14.2919 21.6126C13.9869 21.1553 13.6143 20.7713 13.1739 20.4608C12.7391 20.1446 12.2564 19.9074 11.7256 19.7493C11.1949 19.5912 10.6415 19.5122 10.0656 19.5122C9.01538 19.5122 8.06397 19.7776 7.21138 20.3083C6.36444 20.8391 5.6897 21.6211 5.18718 22.6544C4.69031 23.6876 4.44187 24.9552 4.44187 26.4572C4.44187 27.9591 4.69031 29.2267 5.18718 30.2599C5.6897 31.2932 6.36444 32.0752 7.21138 32.606C8.06397 33.1367 9.01538 33.4021 10.0656 33.4021C10.6415 33.4021 11.1949 33.3231 11.7256 33.165C12.2564 33.0069 12.7391 32.7725 13.1739 32.462C13.6143 32.1458 13.9869 31.759 14.2919 31.3017C14.6024 30.8387 14.8198 30.3079 14.944 29.7094H17.0444C16.8863 30.5959 16.5984 31.3892 16.1805 32.0893C15.7627 32.7895 15.2433 33.3852 14.6222 33.8764C14.0011 34.362 13.3037 34.7318 12.5302 34.9859C11.7623 35.24 10.9408 35.367 10.0656 35.367C8.58626 35.367 7.27067 35.0057 6.11882 34.2829C4.96697 33.5602 4.06074 32.5326 3.40012 31.2001C2.73951 29.8675 2.4092 28.2866 2.4092 26.4572C2.4092 24.6278 2.73951 23.0468 3.40012 21.7143C4.06074 20.3817 4.96697 19.3541 6.11882 18.6314C7.27067 17.9086 8.58626 17.5473 10.0656 17.5473C10.9408 17.5473 11.7623 17.6743 12.5302 17.9284C13.3037 18.1825 14.0011 18.5551 14.6222 19.0464C15.2433 19.532 15.7627 20.1248 16.1805 20.825C16.5984 21.5195 16.8863 22.3128 17.0444 23.2049ZM35.0738 26.4572C35.0738 28.2866 34.7435 29.8675 34.0829 31.2001C33.4222 32.5326 32.516 33.5602 31.3642 34.2829C30.2123 35.0057 28.8967 35.367 27.4174 35.367C25.9381 35.367 24.6225 35.0057 23.4706 34.2829C22.3188 33.5602 21.4125 32.5326 20.7519 31.2001C20.0913 29.8675 19.761 28.2866 19.761 26.4572C19.761 24.6278 20.0913 23.0468 20.7519 21.7143C21.4125 20.3817 22.3188 19.3541 23.4706 18.6314C24.6225 17.9086 25.9381 17.5473 27.4174 17.5473C28.8967 17.5473 30.2123 17.9086 31.3642 18.6314C32.516 19.3541 33.4222 20.3817 34.0829 21.7143C34.7435 23.0468 35.0738 24.6278 35.0738 26.4572ZM33.0411 26.4572C33.0411 24.9552 32.7899 23.6876 32.2873 22.6544C31.7905 21.6211 31.1157 20.8391 30.2631 20.3083C29.4162 19.7776 28.4676 19.5122 27.4174 19.5122C26.3672 19.5122 25.4158 19.7776 24.5632 20.3083C23.7162 20.8391 23.0415 21.6211 22.539 22.6544C22.0421 23.6876 21.7937 24.9552 21.7937 26.4572C21.7937 27.9591 22.0421 29.2267 22.539 30.2599C23.0415 31.2932 23.7162 32.0752 24.5632 32.606C25.4158 33.1367 26.3672 33.4021 27.4174 33.4021C28.4676 33.4021 29.4162 33.1367 30.2631 32.606C31.1157 32.0752 31.7905 31.2932 32.2873 30.2599C32.7899 29.2267 33.0411 27.9591 33.0411 26.4572ZM52.36 17.7844V35.1299H50.3273L40.8754 21.511H40.706V35.1299H38.6056V17.7844H40.6382L50.124 31.4372H50.2934V17.7844H52.36ZM55.6143 19.6477V17.7844H68.6234V19.6477H63.1691V35.1299H61.0687V19.6477H55.6143ZM71.8651 35.1299V17.7844H77.726C79.0811 17.7844 80.1934 18.0159 81.063 18.4789C81.9325 18.9363 82.5762 19.5658 82.994 20.3676C83.4118 21.1694 83.6207 22.0813 83.6207 23.1032C83.6207 24.1252 83.4118 25.0315 82.994 25.8219C82.5762 26.6124 81.9353 27.2335 81.0714 27.6852C80.2075 28.1313 79.1037 28.3543 77.7599 28.3543H73.017V26.4572H77.6921C78.6181 26.4572 79.3634 26.3216 79.928 26.0506C80.4983 25.7796 80.9105 25.3956 81.1646 24.8988C81.4243 24.3963 81.5542 23.7977 81.5542 23.1032C81.5542 22.4088 81.4243 21.8018 81.1646 21.2823C80.9049 20.7629 80.4899 20.362 79.9196 20.0797C79.3493 19.7917 78.5955 19.6477 77.6582 19.6477H73.9655V35.1299H71.8651ZM80.0297 27.338L84.2983 35.1299H81.8591L77.6582 27.338H80.0297ZM87.8322 35.1299H85.6301L91.9991 17.7844H94.1673L100.536 35.1299H98.3343L93.151 20.5285H93.0155L87.8322 35.1299ZM88.6452 28.3543H97.5212V30.2176H88.6452V28.3543ZM116.381 23.2049H114.28C114.156 22.6007 113.939 22.07 113.628 21.6126C113.323 21.1553 112.95 20.7713 112.51 20.4608C112.075 20.1446 111.593 19.9074 111.062 19.7493C110.531 19.5912 109.978 19.5122 109.402 19.5122C108.352 19.5122 107.4 19.7776 106.548 20.3083C105.701 20.8391 105.026 21.6211 104.523 22.6544C104.026 23.6876 103.778 24.9552 103.778 26.4572C103.778 27.9591 104.026 29.2267 104.523 30.2599C105.026 31.2932 105.701 32.0752 106.548 32.606C107.4 33.1367 108.352 33.4021 109.402 33.4021C109.978 33.4021 110.531 33.3231 111.062 33.165C111.593 33.0069 112.075 32.7725 112.51 32.462C112.95 32.1458 113.323 31.759 113.628 31.3017C113.939 30.8387 114.156 30.3079 114.28 29.7094H116.381C116.223 30.5959 115.935 31.3892 115.517 32.0893C115.099 32.7895 114.579 33.3852 113.958 33.8764C113.337 34.362 112.64 34.7318 111.866 34.9859C111.098 35.24 110.277 35.367 109.402 35.367C107.922 35.367 106.607 35.0057 105.455 34.2829C104.303 33.5602 103.397 32.5326 102.736 31.2001C102.076 29.8675 101.745 28.2866 101.745 26.4572C101.745 24.6278 102.076 23.0468 102.736 21.7143C103.397 20.3817 104.303 19.3541 105.455 18.6314C106.607 17.9086 107.922 17.5473 109.402 17.5473C110.277 17.5473 111.098 17.6743 111.866 17.9284C112.64 18.1825 113.337 18.5551 113.958 19.0464C114.579 19.532 115.099 20.1248 115.517 20.825C115.935 21.5195 116.223 22.3128 116.381 23.2049ZM118.826 19.6477V17.7844H131.835V19.6477H126.381V35.1299H124.28V19.6477H118.826Z"
    fill="#F44336" />
  <path
    d="M137.407 206.968C142.092 206.968 145.89 203.17 145.89 198.485C145.89 193.8 142.092 190.002 137.407 190.002C132.722 190.002 128.924 193.8 128.924 198.485C128.924 203.17 132.722 206.968 137.407 206.968Z"
    fill="#F44336" />
  <path
    d="M137.406 211.922C144.828 211.922 150.844 205.906 150.844 198.484C150.844 191.063 144.828 185.047 137.406 185.047C129.985 185.047 123.969 191.063 123.969 198.484C123.969 205.906 129.985 211.922 137.406 211.922Z"
    fill="#F44336" stroke="#F57856" stroke-miterlimit="10" />
  <path
    d="M137.406 214.474C146.237 214.474 153.396 207.315 153.396 198.484C153.396 189.653 146.237 182.494 137.406 182.494C128.575 182.494 121.416 189.653 121.416 198.484C121.416 207.315 128.575 214.474 137.406 214.474Z"
    fill="#F44336" stroke="#F57856" stroke-miterlimit="10" />
  <path d="M32.459 57.6533H145.889" stroke="#F44336" stroke-miterlimit="10" stroke-linecap="round"
    stroke-linejoin="round" />
  <path d="M32.459 175.513H145.889" stroke="#F57856" stroke-miterlimit="10" stroke-linecap="round"
    stroke-linejoin="round" />
  <path d="M145.964 66.1367H32.459V70.4908H145.964V66.1367Z" fill="#808080" />
  <path d="M145.964 74.8447H32.459V79.1988H145.964V74.8447Z" fill="#808080" />
  <path d="M145.964 83.4775H32.459V87.8316H145.964V83.4775Z" fill="#AEAEAE" />
  <path d="M145.964 92.1104H32.459V96.4644H145.964V92.1104Z" fill="#AEAEAE" />
  <path d="M116.012 100.818H32.459V105.172H116.012V100.818Z" fill="#AEAEAE" />
  <path d="M145.964 109.452H32.459V113.806H145.964V109.452Z" fill="#808080" />
  <path d="M145.964 118.085H32.459V122.439H145.964V118.085Z" fill="#808080" />
  <path d="M145.964 126.718H32.459V131.072H145.964V126.718Z" fill="#AEAEAE" />
  <path d="M145.964 135.426H32.459V139.78H145.964V135.426Z" fill="#AEAEAE" />
  <path d="M145.964 144.059H32.459V148.413H145.964V144.059Z" fill="#AEAEAE" />
  <path d="M145.964 152.691H32.459V157.045H145.964V152.691Z" fill="#AEAEAE" />
  <path d="M85.9086 161.4H32.459V165.754H85.9086V161.4Z" fill="#AEAEAE" />
  <path d="M77.9512 207.718H32.459V212.072H77.9512V207.718Z" fill="#AEAEAE" />
  <path d="M65.1143 201.037H32.459V205.391H65.1143V201.037Z" fill="#808080" />
</svg>