<svg width="13" height="13" viewBox="0 0 13 13" fill="none" xmlns="http://www.w3.org/2000/svg">
    <g clip-path="url(#clip0_514_3518)">
        <path d="M1.90727 10.8825C1.90727 11.0638 1.90727 11.2451 1.90727 11.4263C1.90727 11.679 1.9092 11.9297 1.90727 12.1823C1.90342 12.6471 1.55243 13.0019 1.10309 13C0.657609 12.9981 0.306622 12.6432 0.306622 12.1862C0.304694 9.76591 0.304694 7.34565 0.306622 4.92538C0.306622 4.25427 0.838887 3.73164 1.51 3.72586C1.81471 3.72393 2.10977 3.75864 2.36433 3.94956C2.53018 4.07492 2.64396 4.24077 2.73267 4.4259C2.85802 4.68625 2.98338 4.94467 3.10101 5.20694C3.13766 5.28987 3.1878 5.31687 3.27844 5.31687C3.61978 5.31108 3.96112 5.31494 4.30247 5.31494C4.77109 5.31494 5.01987 5.54829 5.05844 6.01691C5.05844 6.02848 5.06422 6.04006 5.07387 6.07091C5.22622 6.07091 5.38243 6.07091 5.53863 6.07091C5.84141 6.07091 5.94555 6.14805 6.03233 6.43347C6.11718 6.7131 6.20782 6.9908 6.28496 7.27236C6.31582 7.38229 6.36403 7.41507 6.47781 7.41507C8.35038 7.41122 10.221 7.41122 12.0936 7.41122C12.3887 7.41122 12.5738 7.60021 12.5333 7.86248C12.5294 7.88948 12.5217 7.91841 12.514 7.94541C12.2112 8.95594 11.9065 9.96648 11.6057 10.977C11.569 11.1004 11.4958 11.1525 11.3646 11.1525C9.99539 11.1506 8.62809 11.1506 7.25885 11.1506C7.1065 11.1506 7.05443 11.1101 7.01201 10.9693C6.56652 9.49785 6.11911 8.02641 5.67556 6.55496C5.65049 6.47204 5.60999 6.44504 5.52899 6.45082C5.42293 6.45661 5.31879 6.45468 5.21272 6.45275C5.02758 6.4489 4.85209 6.44697 4.68431 6.57425C4.59367 6.64367 4.44711 6.6591 4.32561 6.66103C3.82613 6.67067 3.32665 6.66489 2.82717 6.66489C2.48004 6.66489 2.22933 6.51061 2.08277 6.19433C1.9632 5.93592 1.83785 5.68135 1.71828 5.42294C1.66236 5.30144 1.69128 5.19923 1.78771 5.14716C1.88606 5.09316 1.99791 5.13559 2.05577 5.25709C2.17726 5.50393 2.30069 5.75271 2.41254 6.00341C2.50125 6.20205 2.64396 6.28883 2.86188 6.2869C3.34979 6.28112 3.83577 6.2869 4.32368 6.28497C4.50882 6.28497 4.64574 6.18469 4.67274 6.04198C4.70745 5.85299 4.57053 5.69678 4.36418 5.69485C3.94955 5.69293 3.53493 5.68907 3.12223 5.69678C2.97373 5.69871 2.89274 5.64278 2.83103 5.50972C2.68446 5.18959 2.52632 4.87331 2.37397 4.55511C2.23512 4.26584 2.0037 4.13084 1.68743 4.10963C1.33065 4.08456 1.01631 4.16363 0.823459 4.48569C0.748248 4.61104 0.692322 4.77303 0.690393 4.91767C0.678822 5.72185 0.678822 6.52604 0.688465 7.33022C0.69425 7.82199 0.833102 8.28483 1.08574 8.70717C1.82435 9.93562 2.56682 11.1602 3.31122 12.3848C3.47129 12.649 3.77599 12.7011 3.98234 12.5063C4.13662 12.3597 4.15976 12.1515 4.03826 11.9509C3.7972 11.5517 3.55228 11.1525 3.31122 10.7552C2.92745 10.1246 2.53982 9.49592 2.16762 8.85759C2.08855 8.72259 2.03841 8.55481 2.03263 8.39861C2.01527 7.96469 2.02491 7.53078 2.02684 7.09494C2.02684 6.93295 2.12712 6.84231 2.26019 6.87509C2.37397 6.90402 2.40676 6.98888 2.40676 7.09687C2.40483 7.48643 2.40868 7.87598 2.4029 8.26554C2.40097 8.43911 2.44533 8.58953 2.53404 8.73802C3.14537 9.74277 3.75478 10.7514 4.36418 11.758C4.65153 12.2344 4.43553 12.8149 3.91484 12.9653C3.56964 13.0656 3.20708 12.9325 3.01423 12.622C2.67289 12.0705 2.33926 11.5131 2.00177 10.9577C1.98441 10.9288 1.9632 10.8999 1.94392 10.8709C1.92849 10.8767 1.91692 10.8806 1.90727 10.8825ZM6.44503 7.80849C6.50867 8.01869 6.57424 8.20961 6.62245 8.40439C6.64945 8.51239 6.69959 8.53939 6.80759 8.53939C8.45259 8.53553 10.0957 8.53746 11.7407 8.53746C11.785 8.53746 11.8313 8.54324 11.8737 8.53553C11.9007 8.53167 11.9393 8.51239 11.947 8.49117C12.0184 8.2694 12.0859 8.04569 12.1572 7.80849C10.248 7.80849 8.36003 7.80849 6.44503 7.80849ZM11.8178 8.93087C10.1304 8.93087 8.46609 8.93087 6.78637 8.93087C6.85387 9.15072 6.91944 9.35321 6.97537 9.55956C7.00044 9.6502 7.04093 9.67913 7.13543 9.67913C8.58373 9.67527 10.032 9.6772 11.4803 9.6772C11.4958 9.6772 11.515 9.68299 11.5285 9.67527C11.5575 9.65984 11.5999 9.64442 11.6095 9.61935C11.6809 9.39757 11.7465 9.17193 11.8178 8.93087ZM7.1335 10.0629C7.19521 10.2673 7.25885 10.4505 7.30514 10.6376C7.33214 10.7437 7.37649 10.7784 7.48642 10.7784C7.9454 10.7726 8.40438 10.7745 8.86336 10.7745C9.61934 10.7745 10.3734 10.7726 11.1293 10.7764C11.2412 10.7764 11.2875 10.7398 11.3145 10.6357C11.355 10.4737 11.4071 10.3155 11.4533 10.1555C11.4611 10.1265 11.4611 10.0957 11.4649 10.061C10.0205 10.0629 8.58759 10.0629 7.1335 10.0629ZM0.698107 8.81323C0.688465 8.86723 0.682679 8.88652 0.682679 8.9058C0.682679 10.007 0.678822 11.1062 0.686536 12.2074C0.686536 12.3 0.736677 12.406 0.79646 12.4812C0.906385 12.622 1.08959 12.6587 1.24773 12.6008C1.42129 12.5352 1.52736 12.3925 1.52929 12.1997C1.53315 11.6674 1.51965 11.1351 1.53507 10.6048C1.54279 10.3175 1.48686 10.0745 1.32487 9.83727C1.10695 9.51713 0.917956 9.17579 0.698107 8.81323Z" fill="#31A8DF"/>
        <path d="M9.35847e-05 1.65851C0.00973607 0.723189 0.76185 -0.00963997 1.6991 2.51595e-06C2.62092 0.009645 3.35375 0.769473 3.34218 1.70094C3.33061 2.61119 2.57271 3.34595 1.65667 3.33437C0.727137 3.32087 -0.0095489 2.57455 9.35847e-05 1.65851ZM1.66824 0.381845C0.950843 0.381845 0.381936 0.95268 0.380008 1.67587C0.378079 2.3817 0.964342 2.95832 1.68174 2.95639C2.3895 2.95446 2.96612 2.37591 2.96419 1.66815C2.96227 0.95268 2.38757 0.379916 1.66824 0.381845Z" fill="#31A8DF"/>
        <path d="M6.68433 12.2151C6.68625 11.787 7.0276 11.4514 7.46537 11.4514C7.88771 11.4533 8.23677 11.7966 8.2387 12.2151C8.24062 12.6471 7.89157 13 7.45958 13C7.02567 13 6.68433 12.6548 6.68433 12.2151ZM7.06424 12.2247C7.06424 12.4407 7.24166 12.6201 7.45573 12.622C7.67557 12.6239 7.86071 12.4388 7.85878 12.2209C7.85685 12.0068 7.67557 11.8236 7.46537 11.8217C7.24359 11.8217 7.06424 12.003 7.06424 12.2247Z" fill="#31A8DF"/>
        <path d="M11.0794 11.4514C11.5094 11.4533 11.8508 11.7985 11.8488 12.2286C11.8469 12.6548 11.4959 13.0019 11.0697 13C10.6397 12.9981 10.2906 12.6471 10.2945 12.2247C10.2983 11.785 10.6397 11.4495 11.0794 11.4514ZM10.6763 12.2209C10.6744 12.4369 10.8499 12.6182 11.0639 12.622C11.2857 12.6259 11.4689 12.4465 11.4708 12.2267C11.4728 12.0126 11.2954 11.8294 11.0813 11.8236C10.8634 11.8178 10.6782 11.9991 10.6763 12.2209Z" fill="#31A8DF"/>
        <path d="M9.26062 11.9914C9.10248 11.9914 8.94434 11.9933 8.78814 11.9914C8.657 11.9895 8.58179 11.9181 8.58179 11.8043C8.58179 11.6963 8.65507 11.6211 8.77849 11.6211C9.10634 11.6173 9.43418 11.6173 9.76203 11.6211C9.87774 11.6231 9.94909 11.6963 9.94909 11.8005C9.95102 11.9104 9.87774 11.9875 9.75817 11.9895C9.59232 11.9933 9.42647 11.9914 9.26062 11.9914Z" fill="#31A8DF"/>
    </g>
    <defs>
        <clipPath id="clip0_514_3518">
            <rect width="12.5352" height="13" fill="white"/>
        </clipPath>
    </defs>
</svg>
