<svg width="44" height="72" viewBox="0 0 44 72" fill="none" xmlns="http://www.w3.org/2000/svg">
  <g clip-path="url(#clip0_2401_8984)">
    <path
      d="M21.4531 70.0248L21.3203 69.7987C20.3245 68.1019 17.6752 64.4974 17.6487 64.4614L17.5708 64.3557L18.5672 63.3713L21.4192 65.3626C23.2066 63.0525 24.8718 61.4628 25.9609 60.531C27.1644 59.5016 27.9261 59.0411 27.9578 59.022L27.9939 59.0005H29.7499L29.4527 59.2654C25.6973 62.6102 21.6234 69.7257 21.5828 69.7972L21.4531 70.0248Z"
      fill="#4CAE50" />
    <path
      d="M21.4536 60.9169C21.5868 60.9169 21.6948 60.8089 21.6948 60.6757C21.6948 60.5426 21.5868 60.4346 21.4536 60.4346C21.3204 60.4346 21.2124 60.5426 21.2124 60.6757C21.2124 60.8089 21.3204 60.9169 21.4536 60.9169Z"
      fill="#F44336" />
    <path
      d="M21.4536 71.3525C21.5868 71.3525 21.6948 71.2445 21.6948 71.1113C21.6948 70.9781 21.5868 70.8701 21.4536 70.8701C21.3204 70.8701 21.2124 70.9781 21.2124 71.1113C21.2124 71.2445 21.3204 71.3525 21.4536 71.3525Z"
      fill="#F44336" />
    <path
      d="M16.2412 66.1347C16.3744 66.1347 16.4824 66.0267 16.4824 65.8935C16.4824 65.7603 16.3744 65.6523 16.2412 65.6523C16.108 65.6523 16 65.7603 16 65.8935C16 66.0267 16.108 66.1347 16.2412 66.1347Z"
      fill="#F44336" />
    <path
      d="M26.6655 66.1347C26.7987 66.1347 26.9067 66.0267 26.9067 65.8935C26.9067 65.7603 26.7987 65.6523 26.6655 65.6523C26.5323 65.6523 26.4243 65.7603 26.4243 65.8935C26.4243 66.0267 26.5323 66.1347 26.6655 66.1347Z"
      fill="#F44336" />
    <path
      d="M17.7636 69.8246C17.8968 69.8246 18.0048 69.7167 18.0048 69.5835C18.0048 69.4503 17.8968 69.3423 17.7636 69.3423C17.6304 69.3423 17.5225 69.4503 17.5225 69.5835C17.5225 69.7167 17.6304 69.8246 17.7636 69.8246Z"
      fill="#F44336" />
    <path
      d="M17.7675 62.4492C17.9007 62.4492 18.0087 62.3412 18.0087 62.208C18.0087 62.0748 17.9007 61.9668 17.7675 61.9668C17.6343 61.9668 17.5264 62.0748 17.5264 62.208C17.5264 62.3412 17.6343 62.4492 17.7675 62.4492Z"
      fill="#F44336" />
    <path
      d="M25.1391 69.8207C25.2723 69.8207 25.3803 69.7128 25.3803 69.5796C25.3803 69.4464 25.2723 69.3384 25.1391 69.3384C25.0059 69.3384 24.8979 69.4464 24.8979 69.5796C24.8979 69.7128 25.0059 69.8207 25.1391 69.8207Z"
      fill="#F44336" />
    <path
      d="M16.9345 63.5258C17.0677 63.5258 17.1757 63.4178 17.1757 63.2846C17.1757 63.1514 17.0677 63.0435 16.9345 63.0435C16.8013 63.0435 16.6934 63.1514 16.6934 63.2846C16.6934 63.4178 16.8013 63.5258 16.9345 63.5258Z"
      fill="#F44336" />
    <path
      d="M25.9721 68.7436C26.1053 68.7436 26.2133 68.6356 26.2133 68.5024C26.2133 68.3692 26.1053 68.2612 25.9721 68.2612C25.8389 68.2612 25.731 68.3692 25.731 68.5024C25.731 68.6356 25.8389 68.7436 25.9721 68.7436Z"
      fill="#F44336" />
    <path
      d="M19.0881 70.4245C19.0975 70.2916 18.9975 70.1763 18.8646 70.1668C18.7318 70.1574 18.6164 70.2574 18.6069 70.3903C18.5975 70.5231 18.6976 70.6385 18.8304 70.648C18.9633 70.6574 19.0787 70.5573 19.0881 70.4245Z"
      fill="#F44336" />
    <path
      d="M20.103 61.0952C20.2362 61.0952 20.3442 60.9872 20.3442 60.854C20.3442 60.7208 20.2362 60.6128 20.103 60.6128C19.9698 60.6128 19.8618 60.7208 19.8618 60.854C19.8618 60.9872 19.9698 61.0952 20.103 61.0952Z"
      fill="#F44336" />
    <path
      d="M22.8037 71.1747C22.9369 71.1747 23.0449 71.0668 23.0449 70.9336C23.0449 70.8004 22.9369 70.6924 22.8037 70.6924C22.6705 70.6924 22.5625 70.8004 22.5625 70.9336C22.5625 71.0668 22.6705 71.1747 22.8037 71.1747Z"
      fill="#F44336" />
    <path
      d="M16.4189 67.4838C16.5521 67.4838 16.6601 67.3758 16.6601 67.2426C16.6601 67.1094 16.5521 67.0015 16.4189 67.0015C16.2857 67.0015 16.1777 67.1094 16.1777 67.2426C16.1777 67.3758 16.2857 67.4838 16.4189 67.4838Z"
      fill="#F44336" />
    <path
      d="M26.4882 64.7861C26.6214 64.7861 26.7294 64.6781 26.7294 64.5449C26.7294 64.4117 26.6214 64.3037 26.4882 64.3037C26.355 64.3037 26.2471 64.4117 26.2471 64.5449C26.2471 64.6781 26.355 64.7861 26.4882 64.7861Z"
      fill="#F44336" />
    <path
      d="M16.9477 68.7437C17.0807 68.7363 17.1825 68.6225 17.1751 68.4895C17.1678 68.3565 17.054 68.2547 16.921 68.2621C16.788 68.2694 16.6861 68.3832 16.6935 68.5162C16.7009 68.6492 16.8147 68.7511 16.9477 68.7437Z"
      fill="#F44336" />
    <path
      d="M24.0595 70.6489C24.1927 70.6489 24.3007 70.5409 24.3007 70.4077C24.3007 70.2745 24.1927 70.1665 24.0595 70.1665C23.9263 70.1665 23.8184 70.2745 23.8184 70.4077C23.8184 70.5409 23.9263 70.6489 24.0595 70.6489Z"
      fill="#F44336" />
    <path
      d="M18.8471 61.621C18.9803 61.621 19.0883 61.5131 19.0883 61.3799C19.0883 61.2467 18.9803 61.1387 18.8471 61.1387C18.7139 61.1387 18.606 61.2467 18.606 61.3799C18.606 61.5131 18.7139 61.621 18.8471 61.621Z"
      fill="#F44336" />
    <path
      d="M22.8037 61.0952C22.9369 61.0952 23.0449 60.9872 23.0449 60.854C23.0449 60.7208 22.9369 60.6128 22.8037 60.6128C22.6705 60.6128 22.5625 60.7208 22.5625 60.854C22.5625 60.9872 22.6705 61.0952 22.8037 61.0952Z"
      fill="#F44336" />
    <path
      d="M20.103 71.1747C20.2362 71.1747 20.3442 71.0668 20.3442 70.9336C20.3442 70.8004 20.2362 70.6924 20.103 70.6924C19.9698 70.6924 19.8618 70.8004 19.8618 70.9336C19.8618 71.0668 19.9698 71.1747 20.103 71.1747Z"
      fill="#F44336" />
    <path
      d="M26.4882 67.4838C26.6214 67.4838 26.7294 67.3758 26.7294 67.2426C26.7294 67.1094 26.6214 67.0015 26.4882 67.0015C26.355 67.0015 26.2471 67.1094 26.2471 67.2426C26.2471 67.3758 26.355 67.4838 26.4882 67.4838Z"
      fill="#F44336" />
    <path
      d="M16.4189 64.7861C16.5521 64.7861 16.6601 64.6781 16.6601 64.5449C16.6601 64.4117 16.5521 64.3037 16.4189 64.3037C16.2857 64.3037 16.1777 64.4117 16.1777 64.5449C16.1777 64.6781 16.2857 64.7861 16.4189 64.7861Z"
      fill="#F44336" />
  </g>
  <path
    d="M11.5455 53H9.57386V47.1818H11.5852C12.1629 47.1818 12.6591 47.2983 13.0739 47.5312C13.4905 47.7623 13.8106 48.0947 14.0341 48.5284C14.2576 48.9621 14.3693 49.4811 14.3693 50.0852C14.3693 50.6913 14.2566 51.2121 14.0312 51.6477C13.8078 52.0833 13.4848 52.4176 13.0625 52.6506C12.642 52.8835 12.1364 53 11.5455 53ZM10.6278 52.0881H11.4943C11.8996 52.0881 12.2377 52.0142 12.5085 51.8665C12.7794 51.7169 12.983 51.4943 13.1193 51.1989C13.2557 50.9015 13.3239 50.5303 13.3239 50.0852C13.3239 49.6402 13.2557 49.2708 13.1193 48.9773C12.983 48.6818 12.7813 48.4612 12.5142 48.3153C12.2491 48.1676 11.9195 48.0938 11.5256 48.0938H10.6278V52.0881ZM16.8491 53.0852C16.4116 53.0852 16.0338 52.9943 15.7156 52.8125C15.3993 52.6288 15.1559 52.3693 14.9855 52.0341C14.815 51.697 14.7298 51.3002 14.7298 50.8438C14.7298 50.3949 14.815 50.0009 14.9855 49.6619C15.1578 49.321 15.3983 49.0559 15.7071 48.8665C16.0158 48.6752 16.3785 48.5795 16.7951 48.5795C17.0641 48.5795 17.3179 48.6231 17.5565 48.7102C17.797 48.7955 18.0091 48.928 18.1929 49.108C18.3785 49.2879 18.5243 49.517 18.6304 49.7955C18.7364 50.072 18.7894 50.4015 18.7894 50.7841V51.0994H15.2127V50.4062H17.8036C17.8018 50.2093 17.7591 50.0341 17.6758 49.8807C17.5925 49.7254 17.476 49.6032 17.3264 49.5142C17.1786 49.4252 17.0063 49.3807 16.8093 49.3807C16.5991 49.3807 16.4144 49.4318 16.2554 49.5341C16.0963 49.6345 15.9722 49.767 15.8832 49.9318C15.7961 50.0947 15.7516 50.2737 15.7497 50.4688V51.0739C15.7497 51.3277 15.7961 51.5455 15.8889 51.7273C15.9817 51.9072 16.1114 52.0455 16.2781 52.142C16.4447 52.2367 16.6398 52.2841 16.8633 52.2841C17.0129 52.2841 17.1483 52.2633 17.2696 52.2216C17.3908 52.178 17.4959 52.1146 17.5849 52.0312C17.6739 51.9479 17.7411 51.8447 17.7866 51.7216L18.7468 51.8295C18.6862 52.0833 18.5707 52.3049 18.4002 52.4943C18.2317 52.6818 18.0158 52.8277 17.7525 52.9318C17.4893 53.0341 17.1881 53.0852 16.8491 53.0852ZM20.2799 47.1818V53H19.2515V47.1818H20.2799ZM20.9294 53V48.6364H21.9578V53H20.9294ZM21.4465 48.017C21.2836 48.017 21.1434 47.9631 21.026 47.8551C20.9086 47.7453 20.8499 47.6136 20.8499 47.4602C20.8499 47.3049 20.9086 47.1733 21.026 47.0653C21.1434 46.9555 21.2836 46.9006 21.4465 46.9006C21.6112 46.9006 21.7514 46.9555 21.8669 47.0653C21.9843 47.1733 22.043 47.3049 22.043 47.4602C22.043 47.6136 21.9843 47.7453 21.8669 47.8551C21.7514 47.9631 21.6112 48.017 21.4465 48.017ZM26.5051 48.6364L24.9511 53H23.8147L22.2608 48.6364H23.3573L24.3602 51.8778H24.4056L25.4113 48.6364H26.5051ZM28.5921 53.0852C28.1546 53.0852 27.7768 52.9943 27.4586 52.8125C27.1423 52.6288 26.8989 52.3693 26.7285 52.0341C26.558 51.697 26.4728 51.3002 26.4728 50.8438C26.4728 50.3949 26.558 50.0009 26.7285 49.6619C26.9008 49.321 27.1413 49.0559 27.4501 48.8665C27.7588 48.6752 28.1215 48.5795 28.5381 48.5795C28.8071 48.5795 29.0609 48.6231 29.2995 48.7102C29.54 48.7955 29.7521 48.928 29.9359 49.108C30.1215 49.2879 30.2673 49.517 30.3734 49.7955C30.4794 50.072 30.5324 50.4015 30.5324 50.7841V51.0994H26.9557V50.4062H29.5466C29.5448 50.2093 29.5021 50.0341 29.4188 49.8807C29.3355 49.7254 29.219 49.6032 29.0694 49.5142C28.9216 49.4252 28.7493 49.3807 28.5523 49.3807C28.3421 49.3807 28.1574 49.4318 27.9984 49.5341C27.8393 49.6345 27.7152 49.767 27.6262 49.9318C27.5391 50.0947 27.4946 50.2737 27.4927 50.4688V51.0739C27.4927 51.3277 27.5391 51.5455 27.6319 51.7273C27.7247 51.9072 27.8544 52.0455 28.0211 52.142C28.1877 52.2367 28.3828 52.2841 28.6063 52.2841C28.7559 52.2841 28.8913 52.2633 29.0126 52.2216C29.1338 52.178 29.2389 52.1146 29.3279 52.0312C29.4169 51.9479 29.4841 51.8447 29.5296 51.7216L30.4898 51.8295C30.4292 52.0833 30.3137 52.3049 30.1432 52.4943C29.9747 52.6818 29.7588 52.8277 29.4955 52.9318C29.2323 53.0341 28.9311 53.0852 28.5921 53.0852ZM30.9945 53V48.6364H31.9916V49.3636H32.0371C32.1166 49.1117 32.253 48.9176 32.4462 48.7812C32.6413 48.643 32.8638 48.5739 33.1138 48.5739C33.1706 48.5739 33.2341 48.5767 33.3041 48.5824C33.3761 48.5862 33.4358 48.5928 33.4831 48.6023V49.5483C33.4395 49.5331 33.3704 49.5199 33.2757 49.5085C33.1829 49.4953 33.093 49.4886 33.0058 49.4886C32.8183 49.4886 32.6498 49.5294 32.5002 49.6108C32.3524 49.6903 32.2359 49.8011 32.1507 49.9432C32.0655 50.0852 32.0229 50.2491 32.0229 50.4347V53H30.9945ZM34.5304 54.6364C34.3902 54.6364 34.2605 54.625 34.1412 54.6023C34.0237 54.5814 33.93 54.5568 33.8599 54.5284L34.0985 53.7273C34.2482 53.7708 34.3817 53.7917 34.4991 53.7898C34.6165 53.7879 34.7198 53.7509 34.8088 53.679C34.8997 53.6089 34.9764 53.4915 35.0389 53.3267L35.127 53.0909L33.5446 48.6364H34.6355L35.6412 51.9318H35.6866L36.6951 48.6364H37.7889L36.0417 53.5284C35.9603 53.7595 35.8523 53.9574 35.7179 54.1222C35.5834 54.2888 35.4186 54.4157 35.2235 54.5028C35.0304 54.5919 34.7993 54.6364 34.5304 54.6364Z"
    fill="#485B78" />
  <g clip-path="url(#clip1_2401_8984)">
    <path d="M13.6245 19.8765H0.70459V21.6229H13.6245V19.8765Z" fill="#F0F0F0" />
    <path
      d="M21.0532 12.5702L21.188 9.02187L19.0429 7.54701L19.2083 7.24463L18.8345 7.31251C18.8345 7.31251 16.4013 9.55258 16.0274 10.8361C14.3848 16.4702 13.4287 20.8887 13.4287 20.8887L18.9693 21.191L21.0532 12.5702Z"
      fill="#EA5B44" />
    <path
      d="M22.4749 8.34285C22.3952 8.34285 22.3217 8.33668 22.2604 8.33051C21.5249 8.28114 21.4084 8.13304 21.2552 8.73163C21.2246 8.84887 21.2062 8.99081 21.1572 9.15742C20.9917 9.74367 19.3001 8.08367 19.0427 7.54063L19.7598 6.22004C19.7598 6.22004 18.1111 5.37461 18.8159 2.90005C19.5207 0.425485 22.2175 1.15366 22.2175 1.15366C22.2175 1.15366 23.8723 1.60414 24.5342 3.49863C24.8713 4.45514 23.8478 8.38605 22.4749 8.34285Z"
      fill="#F0CDAF" />
    <path
      d="M21.2552 8.73803C20.1827 7.75067 20.8139 6.1709 20.8139 6.1709C20.6607 7.19528 21.5678 8.1271 22.2665 8.33691C21.5249 8.28137 21.4085 8.13327 21.2552 8.73803Z"
      fill="#DCB99B" />
    <path
      d="M24.8531 3.55447C24.3995 3.57916 23.8173 3.38168 23.5108 3.06696C23.2779 3.11633 23.0634 3.25209 22.8734 3.43722C22.2666 3.99878 21.8437 5.00465 21.8253 5.30086L21.5434 5.28235C21.5434 5.28235 21.4024 4.66525 20.9183 4.52332C20.4341 4.38138 20.1828 4.70844 20.1521 5.0787C20.1337 5.27 20.2625 5.70197 20.2625 5.70197L19.9621 6.6955L19.4963 6.55974C19.4963 6.55974 17.7925 4.92443 18.2889 3.19038C18.4176 2.73373 18.6383 2.19686 18.9999 1.74637C19.6373 0.937975 20.7099 0.382587 22.5179 0.90712C23.8663 1.29589 24.4302 1.90682 24.8224 2.49306C24.896 2.83864 24.9082 3.19655 24.8531 3.55447Z"
      fill="#C89632" />
    <path
      d="M24.8286 3.8752C24.8102 3.9616 24.7857 4.04799 24.7551 4.12821L22.9041 3.43089L20.7406 2.61632L18.9571 1.94369L18.8896 1.919C19.4535 0.579901 20.8816 -0.216156 22.3403 0.0553675C22.3893 0.0615385 22.4322 0.0738804 22.4874 0.0862224C23.6703 0.363917 24.5406 1.27722 24.8102 2.388C24.9022 2.7274 24.9328 3.08532 24.8961 3.44324C24.8838 3.579 24.8654 3.7271 24.8286 3.8752Z"
      fill="#EA5B44" />
    <path
      d="M24.8288 3.8755C24.8104 3.96189 24.7859 4.04829 24.7552 4.12851L22.9043 3.43119L20.7407 2.61662C20.7652 2.5364 20.7836 2.45 20.8081 2.36361C21.0778 1.41328 21.6294 0.629565 22.3404 0.0556641C22.3894 0.061835 22.4323 0.074177 22.4875 0.086519C23.6704 0.364213 24.5407 1.27752 24.8104 2.38829C24.9023 2.7277 24.9329 3.08562 24.8962 3.44353C24.8839 3.57929 24.8655 3.7274 24.8288 3.8755Z"
      fill="#E2B3AB" />
    <path
      d="M3.29736 26.4793C3.29736 26.8928 3.63446 27.226 4.03897 27.226H22.1379C22.5485 27.226 22.8856 26.8928 22.8856 26.4793V25.8561C22.8856 25.4426 22.5485 25.1094 22.1379 25.1094H4.0451C3.63446 25.1094 3.30349 25.4488 3.30349 25.8561V26.4793H3.29736Z"
      fill="#485B78" />
    <path
      d="M26.3361 3.96793L24.8958 3.05462L22.6832 2.88184C22.4871 3.74577 24.5894 4.46161 25.5332 4.40607C26.7039 4.33819 26.3361 3.96793 26.3361 3.96793Z"
      fill="#DA1400" />
    <path
      d="M18.6688 21.1665L24.9388 21.7836C26.3975 21.9564 26.9613 22.2835 27.372 22.9129C27.7397 23.4683 27.85 24.0607 27.85 24.9308C27.85 26.9056 27.1329 35.1068 27.1329 35.1068L24.283 35.0636L24.7059 25.443C24.7059 25.443 17.1856 25.19 15.4143 25.19C13.3489 25.19 13.4163 22.9561 13.4163 20.895L18.6688 21.1665Z"
      fill="#1E5A78" />
    <path d="M24.2832 34.9028L24.3077 35.9951H28.9535L27.1332 34.946L24.2832 34.9028Z"
      fill="#323232" />
    <path
      d="M6.95006 34.4217L8.72746 33.4097L11.3384 36.2421L11.7429 38.4699L6.63135 38.1058L6.95006 34.4217Z"
      fill="#323232" />
    <path
      d="M6.95652 40.9999C5.14234 40.9999 3.67139 39.5127 3.67139 37.6861C3.67139 35.8595 5.14847 34.3784 6.95652 34.3784C8.7707 34.3784 10.2478 35.8595 10.2478 37.6861C10.2417 39.5127 8.76458 40.9999 6.95652 40.9999Z"
      fill="#485B78" />
    <g opacity="0.1">
      <path
        d="M9.52476 37.6862C9.52476 39.1117 8.37251 40.2719 6.95672 40.2719C5.54092 40.2719 4.38867 39.1117 4.38867 37.6862C4.38867 36.2607 5.54092 35.1006 6.95672 35.1006C8.37251 35.1006 9.52476 36.2607 9.52476 37.6862Z"
        fill="white" />
    </g>
    <path
      d="M9.5491 37.2419C9.53684 37.1494 9.51232 37.0568 9.48781 36.9704C9.46942 36.8964 9.4449 36.8223 9.42039 36.7544C9.38974 36.668 9.34684 36.5816 9.30394 36.4952C8.93007 35.7424 8.20072 35.1932 7.34266 35.0636C7.25073 35.0512 7.15879 35.0389 7.06686 35.0389C7.03008 35.0327 6.98718 35.0327 6.95041 35.0327C6.91363 35.0327 6.87686 35.0327 6.84008 35.0389C6.74815 35.0389 6.65621 35.0512 6.56428 35.0636C5.70622 35.187 4.97687 35.7424 4.603 36.4952C4.5601 36.5755 4.52333 36.6619 4.48655 36.7544C4.45591 36.8223 4.43752 36.8964 4.41913 36.9704C4.39462 37.0568 4.3701 37.1494 4.35784 37.2419C4.33333 37.3839 4.31494 37.5381 4.31494 37.6862C4.31494 38.4268 4.61526 39.0932 5.10558 39.5746L5.31397 39.7597C5.37526 39.8091 5.43042 39.8522 5.49784 39.8893C5.57751 39.9448 5.65719 39.988 5.73687 40.0312C6.09848 40.2225 6.51525 40.3336 6.95041 40.3336C7.39782 40.3336 7.80233 40.2225 8.17007 40.0312L8.41523 39.8831C8.47039 39.8461 8.53168 39.8029 8.59297 39.7535L8.5991 39.7473L8.79523 39.5746L8.80136 39.5684C9.28555 39.0871 9.58587 38.4206 9.58587 37.6862C9.58587 37.532 9.57361 37.39 9.5491 37.2419ZM9.212 36.8346C9.23652 36.8963 9.26103 36.9642 9.27329 37.0259C9.27329 37.0321 9.27329 37.0321 9.27329 37.0383L7.76556 37.532L7.48976 37.6245C7.48976 37.6184 7.48976 37.6184 7.48976 37.6122C7.4775 37.5443 7.45911 37.4764 7.42234 37.4209C7.42234 37.4147 7.41621 37.4147 7.41621 37.4085L7.69814 37.3221L9.20587 36.8285C9.212 36.8285 9.212 36.8285 9.212 36.8346ZM7.34266 35.2919C8.0904 35.4153 8.74007 35.8905 9.08942 36.5693L7.97395 36.9334L7.5204 37.0815L7.33653 37.137V35.2919H7.34266ZM6.84008 35.261C6.88299 35.2549 6.91363 35.2549 6.93815 35.2549H6.96879C6.99331 35.2549 7.01782 35.2549 7.04234 35.2549C7.04847 35.2549 7.06073 35.2549 7.06686 35.2549V37.1555H7.06073C7.03008 37.1494 6.99331 37.1494 6.95653 37.1494C6.91976 37.1494 6.87686 37.1494 6.84621 37.1617H6.84008V35.261ZM6.95041 37.4456C7.08524 37.4456 7.18944 37.5505 7.18944 37.6801C7.18944 37.8097 7.08524 37.9207 6.95041 37.9207C6.8217 37.9207 6.71137 37.8097 6.71137 37.6801C6.7175 37.5505 6.8217 37.4456 6.95041 37.4456ZM6.56428 35.2919V37.137L6.38041 37.0815L5.93299 36.9334L4.81139 36.5631C5.16687 35.8843 5.81654 35.4091 6.56428 35.2919ZM4.62752 37.0321C4.64591 36.9704 4.66429 36.9025 4.69494 36.8408C4.69494 36.8346 4.70107 36.8285 4.70107 36.8223L6.21493 37.316L6.50299 37.4085C6.50299 37.4085 6.50299 37.4085 6.50299 37.4147C6.46622 37.4764 6.4417 37.5443 6.43557 37.6184C6.43557 37.6184 6.43557 37.6184 6.43557 37.6245L6.15364 37.532L4.63365 37.0383C4.62752 37.0321 4.62752 37.0321 4.62752 37.0321ZM5.24042 39.3894C4.78687 38.9328 4.54171 38.328 4.54171 37.6862C4.54171 37.5566 4.54784 37.4271 4.57236 37.3098L5.70009 37.6801L6.14751 37.822L6.32525 37.8837L6.21493 38.038L5.93912 38.4206L5.24042 39.3894ZM5.62654 39.7165C5.62042 39.7103 5.62042 39.7103 5.62654 39.7165C5.55913 39.6671 5.50397 39.6301 5.4488 39.5869C5.4488 39.5869 5.4488 39.5869 5.44267 39.5807L6.38041 38.2725L6.55202 38.038C6.55202 38.0442 6.55815 38.0503 6.55815 38.0503C6.60105 38.0997 6.65621 38.1429 6.71137 38.1676C6.71137 38.1737 6.7175 38.1737 6.72363 38.1737L6.55202 38.4144L5.62654 39.7165ZM6.95041 40.1176C6.57041 40.1176 6.20267 40.0312 5.86557 39.8523L6.56428 38.8834L6.84008 38.4946L6.95653 38.3404L7.06686 38.4946L7.34266 38.8772L8.04137 39.8461C7.7104 40.025 7.34266 40.1176 6.95041 40.1176ZM8.45201 39.5869C8.40298 39.6239 8.35394 39.6671 8.29265 39.698L8.28653 39.7041L7.34266 38.4021L7.17718 38.1676C7.18331 38.1614 7.18944 38.1614 7.19556 38.1552C7.25073 38.1305 7.30589 38.0935 7.34879 38.0442C7.35492 38.038 7.36105 38.038 7.36105 38.0318L7.52653 38.2663L8.46427 39.5684L8.45201 39.5869ZM8.67265 39.3894L7.98008 38.4206L7.69814 38.038L7.58782 37.8837L7.76556 37.822L8.21298 37.6801L9.33458 37.3098C9.35297 37.4394 9.36523 37.5628 9.36523 37.6862C9.36523 38.328 9.12007 38.9328 8.67265 39.3894Z"
      fill="#B4B4B4" />
    <path
      d="M43.3256 34.8967C43.3256 36.8714 41.7382 38.4697 39.7769 38.4697C38.404 38.4697 37.215 37.686 36.6266 36.532C36.3753 36.0445 36.2344 35.4891 36.2344 34.8967C36.2344 32.922 37.3253 31.3237 39.2805 31.3237C41.0272 31.3237 42.9763 32.595 43.2643 34.2735C43.3072 34.4771 43.3256 34.6807 43.3256 34.8967Z"
      fill="#E2B3AB" />
    <path
      d="M43.3259 34.8966C43.3259 36.8713 41.7385 38.4696 39.7773 38.4696C38.4044 38.4696 37.2153 37.6858 36.627 36.5319C37.1295 34.7299 38.7721 33.4155 40.715 33.4155C41.6711 33.4155 42.5598 33.7364 43.2708 34.2733C43.3075 34.4769 43.3259 34.6806 43.3259 34.8966Z"
      fill="#323232" />
    <path
      d="M40.709 40.9999C38.8948 40.9999 37.4238 39.5127 37.4238 37.6861C37.4238 35.8595 38.9009 34.3784 40.709 34.3784C42.5231 34.3784 44.0002 35.8595 44.0002 37.6861C44.0002 39.5127 42.5231 40.9999 40.709 40.9999Z"
      fill="#485B78" />
    <g opacity="0.1">
      <path
        d="M43.2831 37.6862C43.2831 39.1117 42.1308 40.2719 40.715 40.2719C39.2992 40.2719 38.147 39.1117 38.147 37.6862C38.147 36.2607 39.2992 35.1006 40.715 35.1006C42.1308 35.1006 43.2831 36.2607 43.2831 37.6862Z"
        fill="white" />
    </g>
    <path
      d="M43.3079 37.2419C43.2956 37.1494 43.2711 37.0568 43.2466 36.9704C43.2282 36.8964 43.2037 36.8223 43.1792 36.7544C43.1485 36.668 43.1056 36.5816 43.0627 36.4952C42.6889 35.7424 41.9595 35.1932 41.1014 35.0636C41.0095 35.0512 40.9237 35.0389 40.8256 35.0389C40.7889 35.0327 40.746 35.0327 40.7092 35.0327C40.6724 35.0327 40.6356 35.0327 40.5989 35.0389C40.5069 35.0389 40.415 35.0512 40.3231 35.0636C39.465 35.187 38.7357 35.7424 38.3618 36.4952C38.3189 36.5755 38.2821 36.6619 38.2453 36.7544C38.2147 36.8223 38.1963 36.8964 38.1779 36.9704C38.1534 37.0568 38.1289 37.1494 38.1166 37.2419C38.0921 37.3839 38.0737 37.5381 38.0737 37.6862C38.0737 38.4268 38.3741 39.0932 38.8644 39.5746L39.0666 39.7597C39.1279 39.8091 39.1831 39.8522 39.2505 39.8893C39.3302 39.9448 39.4099 39.988 39.4895 40.0312C39.8511 40.2225 40.2679 40.3336 40.7031 40.3336C41.1444 40.3336 41.555 40.2225 41.9227 40.0312L42.1679 39.8831C42.2231 39.8461 42.2843 39.8029 42.3456 39.7535L42.3518 39.7473L42.5479 39.5746L42.554 39.5684C43.0382 39.0871 43.3385 38.4206 43.3385 37.6862C43.3447 37.532 43.3324 37.39 43.3079 37.2419ZM42.9708 36.8346C42.9953 36.8963 43.0198 36.9642 43.0321 37.0259C43.0321 37.0321 43.0321 37.0321 43.0321 37.0383L41.5244 37.532L41.2485 37.6245C41.2485 37.6184 41.2485 37.6184 41.2485 37.6122C41.2363 37.5443 41.2179 37.4764 41.1811 37.4209C41.1811 37.4147 41.175 37.4147 41.175 37.4085L41.4569 37.3221L42.9647 36.8285C42.9708 36.8285 42.9708 36.8285 42.9708 36.8346ZM41.1014 35.2919C41.8492 35.4153 42.4989 35.8905 42.8482 36.5693L41.7327 36.9334L41.2792 37.0815L41.0953 37.137V35.2919H41.1014ZM40.5989 35.261C40.6418 35.2549 40.6724 35.2549 40.6969 35.2549H40.7276C40.7521 35.2549 40.7766 35.2549 40.8011 35.2549C40.8073 35.2549 40.8195 35.2549 40.8256 35.2549V37.1555H40.8195C40.7889 37.1494 40.7521 37.1494 40.7153 37.1494C40.6786 37.1494 40.6356 37.1494 40.605 37.1617H40.5989V35.261ZM40.7092 37.4456C40.844 37.4456 40.9482 37.5505 40.9482 37.6801C40.9482 37.8097 40.844 37.9207 40.7092 37.9207C40.5805 37.9207 40.4702 37.8097 40.4702 37.6801C40.4763 37.5505 40.5805 37.4456 40.7092 37.4456ZM40.3231 35.2919V37.137L40.1392 37.0815L39.6918 36.9334L38.5702 36.5631C38.9257 35.8843 39.5753 35.4091 40.3231 35.2919ZM38.3863 37.0321C38.4047 36.9704 38.4231 36.9025 38.4476 36.8408C38.4476 36.8346 38.4537 36.8285 38.4537 36.8223L39.9676 37.316L40.2557 37.4085C40.2557 37.4085 40.2557 37.4085 40.2557 37.4147C40.2189 37.4764 40.1944 37.5443 40.1882 37.6184C40.1882 37.6184 40.1882 37.6184 40.1882 37.6245L39.9063 37.532L38.3863 37.0383C38.3863 37.0321 38.3863 37.0321 38.3863 37.0321ZM38.9992 39.3894C38.5457 38.9328 38.3005 38.328 38.3005 37.6862C38.3005 37.5566 38.3066 37.4271 38.3311 37.3098L39.4589 37.6801L39.9063 37.822L40.084 37.8837L39.9737 38.038L39.6979 38.4206L38.9992 39.3894ZM39.3853 39.7165C39.3792 39.7103 39.3792 39.7103 39.3853 39.7165C39.3179 39.6671 39.2628 39.6301 39.2076 39.5869C39.2076 39.5869 39.2076 39.5869 39.2015 39.5807L40.1392 38.2725L40.3108 38.038C40.3108 38.0442 40.3169 38.0503 40.3231 38.0503C40.366 38.0997 40.4211 38.1429 40.4763 38.1676C40.4763 38.1737 40.4824 38.1737 40.4886 38.1737L40.3169 38.4144L39.3853 39.7165ZM40.7092 40.1176C40.3292 40.1176 39.9615 40.0312 39.6244 39.8523L40.3231 38.8834L40.5989 38.4946L40.7153 38.3404L40.8256 38.4946L41.1014 38.8772L41.8002 39.8461C41.4692 40.025 41.1014 40.1176 40.7092 40.1176ZM42.2108 39.5869C42.1618 39.6239 42.1066 39.6671 42.0514 39.698L42.0453 39.7041L41.1014 38.4021L40.936 38.1676C40.9421 38.1614 40.9482 38.1614 40.9544 38.1552C41.0095 38.1305 41.0647 38.0935 41.1076 38.0442C41.1137 38.038 41.1198 38.038 41.1198 38.0318L41.2853 38.2663L42.2231 39.5684L42.2108 39.5869ZM42.4314 39.3894L41.7389 38.4206L41.4569 38.038L41.3466 37.8837L41.5244 37.822L41.9718 37.6801L43.0934 37.3098C43.1118 37.4394 43.124 37.5628 43.124 37.6862C43.124 38.328 42.8789 38.9328 42.4314 39.3894Z"
      fill="#B4B4B4" />
    <path
      d="M12.154 38.8831H6.49694C6.22113 38.8831 6.00049 38.661 6.00049 38.3833V36.9886C6.00049 36.7109 6.22113 36.4888 6.49694 36.4888H12.154V38.8831Z"
      fill="#B4B4B4" />
    <path
      d="M11.7433 37.5443H6.84623C6.7114 37.5443 6.60107 37.4332 6.60107 37.2913C6.60107 37.1555 6.7114 37.0444 6.84623 37.0444H11.7433C11.8781 37.0444 11.9946 37.1555 11.9946 37.2913C11.9885 37.4332 11.8781 37.5443 11.7433 37.5443Z"
      fill="#969696" />
    <path
      d="M11.7433 38.328H6.84623C6.7114 38.328 6.60107 38.2169 6.60107 38.075C6.60107 37.9392 6.7114 37.8281 6.84623 37.8281H11.7433C11.8781 37.8281 11.9946 37.9392 11.9946 38.075C11.9885 38.2169 11.8781 38.328 11.7433 38.328Z"
      fill="#969696" />
    <path d="M35.8486 39.9507L37.4299 37.5687L36.7864 36.7974L35.8486 39.9507Z" fill="#323232" />
    <path
      d="M38.9805 31.1941C39.0357 31.3175 39.0418 31.4594 38.9989 31.5829L36.1918 39.0312L35.8486 39.9445C35.7751 40.1358 35.5912 40.2654 35.3828 40.2654H12.6197C12.4236 40.2654 12.2459 40.1482 12.1662 39.9692L11.7433 39.0312L9.78815 34.693L2.37207 30.0339L4.38851 27.1953H21.8316C21.8316 27.1953 18.8836 28.2567 18.8836 30.9719C18.8836 33.6933 18.8836 32.6566 18.8836 33.5637C18.8836 34.4709 19.1594 35.9457 21.2432 35.9457H29.1741C30.2896 35.9457 31.3499 35.1991 32.0609 34.4462C32.778 33.6933 33.4154 32.8973 33.0109 30.6449C32.6554 28.664 30.6573 20.4689 30.1854 18.5312C30.1303 18.2967 30.2467 18.0499 30.4735 17.9512L31.9383 17.3217C32.1835 17.2168 32.4654 17.3217 32.5818 17.5686L38.9805 31.1941Z"
      fill="#EA5B44" />
    <path
      d="M30.2467 18.7844L29.1067 15.2423C29.027 14.9893 29.1496 14.7178 29.3948 14.6252L31.3928 13.823C31.6441 13.7242 31.9322 13.8415 32.0364 14.0945L33.1825 16.8467C33.2867 17.0936 33.1764 17.3774 32.9373 17.4885L30.2467 18.7844Z"
      fill="#EA5B44" />
    <path
      d="M13.4223 33.7427C13.4223 34.1808 13.2323 34.6004 12.8952 34.8905C12.5581 35.1743 12.1168 35.2978 11.6878 35.2237L1.99783 33.5822C1.7588 33.539 1.58105 33.3354 1.58105 33.0885V30.5646C1.58105 30.3178 1.7588 30.1141 1.99783 30.0709L11.6878 28.4356C12.1229 28.3616 12.5642 28.485 12.8952 28.7689C13.2323 29.0527 13.4223 29.4724 13.4223 29.9167V33.7427Z"
      fill="#E2B3AB" />
    <path
      d="M36.1917 39.0376L35.8485 39.9509C35.7749 40.1422 35.5911 40.2718 35.3827 40.2718H12.6196C12.4235 40.2718 12.2457 40.1545 12.1661 39.9756L11.7432 39.0376H36.1917Z"
      fill="#485B78" />
    <path
      d="M5.22172 33.2308C5.08688 33.2308 4.97656 33.1197 4.97656 32.984V30.676C4.97656 30.5403 5.08688 30.4292 5.22172 30.4292C5.35656 30.4292 5.47301 30.5403 5.47301 30.676V32.984C5.47301 33.1197 5.36269 33.2308 5.22172 33.2308Z"
      fill="#EA5B44" />
    <path
      d="M4.25959 33.2308C4.12475 33.2308 4.0083 33.1197 4.0083 32.984V30.676C4.0083 30.5403 4.11862 30.4292 4.25959 30.4292C4.39443 30.4292 4.50475 30.5403 4.50475 30.676V32.984C4.51088 33.1197 4.40056 33.2308 4.25959 33.2308Z"
      fill="#EA5B44" />
    <path
      d="M3.29719 33.2308C3.16235 33.2308 3.0459 33.1197 3.0459 32.984V30.676C3.0459 30.5403 3.15622 30.4292 3.29719 30.4292C3.43202 30.4292 3.54235 30.5403 3.54235 30.676V32.984C3.54848 33.1197 3.43815 33.2308 3.29719 33.2308Z"
      fill="#EA5B44" />
    <path
      d="M22.8857 16.433L20.3238 16.9451L17.5841 11.6258L17.3512 11.1753C17.3083 11.0333 17.296 10.8791 17.3144 10.7186L17.3635 10.6939L19.2267 9.7251H19.2328C19.4228 9.82383 19.576 9.97811 19.6925 10.1571L19.7292 10.2249L19.7721 10.3113L19.8028 10.3731L22.8857 16.433Z"
      fill="#E2B3AB" />
    <path
      d="M19.8763 11.0519C19.7599 11.7492 19.098 12.2244 18.3931 12.1071C18.0622 12.0516 17.7802 11.8726 17.5841 11.632C17.4799 11.5024 17.4002 11.3481 17.3512 11.1815C17.3083 11.0396 17.296 10.8853 17.3144 10.7248C17.3144 10.7125 17.3144 10.7002 17.3144 10.694C17.3144 10.6755 17.3206 10.657 17.3206 10.6384C17.437 9.94113 18.0989 9.46596 18.8038 9.58321C18.9509 9.60789 19.0857 9.65726 19.2083 9.72514C19.2144 9.72514 19.2144 9.73131 19.2205 9.73131C19.4105 9.83005 19.5638 9.97815 19.6802 10.1571C19.6925 10.1818 19.7109 10.2003 19.7231 10.225L19.766 10.3114C19.7783 10.3299 19.7844 10.3484 19.7905 10.3731C19.8825 10.5767 19.9131 10.8112 19.8763 11.0519Z"
      fill="#E2B3AB" />
    <path
      d="M28.5242 17.6425C27.5191 17.6795 26.6855 17.1673 26.661 16.4947C26.6365 15.8221 27.8868 15.1618 28.8858 15.0383C30.6877 14.8162 30.5774 15.964 30.6019 16.6428C30.6265 17.3154 29.5294 17.5993 28.5242 17.6425Z"
      fill="#F0CDAF" />
    <path d="M27.0532 15.3101L27.2187 17.6674L21.6168 18.124L21.5371 15.6865L27.0532 15.3101Z"
      fill="#E2B3AB" />
    <path d="M27.4387 15.3993L27.0596 15.4258L27.207 17.562L27.586 17.5355L27.4387 15.3993Z"
      fill="#F0F0F0" />
    <path
      d="M20.3237 16.9454C20.716 17.8464 21.1328 18.1673 21.6169 18.1241C22.1011 18.0871 22.0644 16.9269 22.0644 16.9269L21.5373 15.8408L20.3237 16.9454Z"
      fill="#E2B3AB" />
    <path
      d="M30.6019 16.637C30.6019 17.2788 30.0809 17.8033 29.4435 17.8033C28.8061 17.8033 28.2852 17.2788 28.2852 16.637C28.2852 15.9952 28.8061 15.4707 29.4435 15.4707C30.0871 15.4707 30.6019 15.9952 30.6019 16.637Z"
      fill="#646464" />
    <path
      d="M30.0874 16.6369C30.0874 16.9948 29.7993 17.2849 29.4438 17.2849C29.0884 17.2849 28.8003 16.9948 28.8003 16.6369C28.8003 16.279 29.0884 15.9951 29.4438 15.9951C29.7993 15.9951 30.0874 16.2852 30.0874 16.6369Z"
      fill="#787878" />
    <path d="M13.4165 23.3633H0.496582V25.1097H13.4165V23.3633Z" fill="#F0F0F0" />
    <path d="M12.9138 21.6167H0V23.3631H12.9138V21.6167Z" fill="#E6E6E6" />
    <path d="M13.3244 18.124H0.410645V19.8704H13.3244V18.124Z" fill="#E6E6E6" />
    <path d="M7.29332 18.1304H6.79688V25.1098H7.29332V18.1304Z" fill="#485B78" />
    <path
      d="M6.7417 18.4757L6.86428 18.1116C6.94396 17.8771 7.34847 16.7108 7.61202 16.4516C7.91846 16.1431 8.44556 16.1431 8.75201 16.4516C9.06459 16.7663 9.06459 17.2847 8.75201 17.5994C8.49459 17.8586 7.33008 18.2721 7.10331 18.3523L6.7417 18.4757ZM8.18201 16.5874C8.06556 16.5874 7.95524 16.6306 7.87556 16.717C7.75911 16.8342 7.53234 17.3773 7.34847 17.8648C7.83266 17.6797 8.37201 17.4513 8.48846 17.3341C8.66007 17.1613 8.66007 16.8836 8.48846 16.717C8.40878 16.6306 8.29846 16.5874 8.18201 16.5874Z"
      fill="#485B78" />
    <path
      d="M7.3424 18.4757L6.98079 18.3523C6.74789 18.2721 5.58951 17.8586 5.33209 17.5994C5.01951 17.2847 5.01951 16.7663 5.33209 16.4516C5.63854 16.1431 6.16563 16.1431 6.47208 16.4516C6.7295 16.7108 7.14014 17.8833 7.21982 18.1116L7.3424 18.4757ZM5.90209 16.5874C5.78564 16.5874 5.67531 16.6306 5.59564 16.717C5.42403 16.8898 5.42403 17.1675 5.59564 17.3341C5.71209 17.4513 6.25144 17.6797 6.73563 17.8648C6.55176 17.3773 6.32499 16.8342 6.20854 16.717C6.12886 16.6306 6.01854 16.5874 5.90209 16.5874Z"
      fill="#485B78" />
  </g>
  <defs>
    <clipPath id="clip0_2401_8984">
      <rect width="13.75" height="12.3525" fill="white" transform="translate(16 59)" />
    </clipPath>
    <clipPath id="clip1_2401_8984">
      <rect width="44" height="41" fill="white" />
    </clipPath>
  </defs>
</svg>