<svg width="225" height="351" viewBox="0 0 225 351" fill="none" xmlns="http://www.w3.org/2000/svg">
<path d="M224.5 56.4999C165.833 19.8332 39.1001 -20.0002 1.5 114" stroke="#EA5B44"/>
<path d="M1.49975 114C-1.16691 139.167 13.2 220.2 94 331" stroke="#485B78" stroke-linejoin="round" stroke-dasharray="2 2"/>
<circle cx="97" cy="337" r="14" fill="#EA5B44" fill-opacity="0.51"/>
<circle cx="97.0002" cy="337" r="9.04167" fill="#EA5B44"/>
<circle cx="97.0002" cy="337" r="3.29167" fill="#EA5B44" stroke="white"/>
<circle cx="96.9998" cy="337" r="1.45833" fill="white"/>
<g clip-path="url(#clip0_0_1)">
<path fill-rule="evenodd" clip-rule="evenodd" d="M188.257 20.394L182.26 18.5759C181.883 18.4614 181.668 18.0551 181.784 17.673L183.624 11.6062C183.739 11.2242 184.143 11.0052 184.521 11.1197L190.517 12.9378C190.895 13.0523 191.109 13.4586 190.993 13.8407L189.154 19.9081C189.038 20.2895 188.634 20.5085 188.257 20.394Z" fill="#D9D9D9"/>
<path fill-rule="evenodd" clip-rule="evenodd" d="M182.881 18.7643L182.26 18.5759C181.882 18.4614 181.668 18.0551 181.784 17.673L183.623 11.6062C183.739 11.2242 184.143 11.0052 184.521 11.1197L185.142 11.3081L182.881 18.7643Z" fill="#EEF0F2"/>
<path fill-rule="evenodd" clip-rule="evenodd" d="M185.577 14.4896L186.424 11.6968L188.614 12.3608L187.768 15.1536C187.701 15.3735 187.497 15.5072 187.313 15.4516L185.79 14.9896C185.606 14.9339 185.511 14.7095 185.577 14.4896Z" fill="#EA5B44"/>
<path fill-rule="evenodd" clip-rule="evenodd" d="M168.291 14.6631L165.273 13.7481L161.8 20.0304L166.254 21.3808L168.291 14.6631Z" fill="#EA5B44"/>
<path fill-rule="evenodd" clip-rule="evenodd" d="M168.291 14.6631L165.273 13.7481L163.868 16.2889L167.884 16.0052L168.291 14.6631Z" fill="#EA5B44"/>
<path fill-rule="evenodd" clip-rule="evenodd" d="M184.277 21.7676L174.745 18.8775C174.108 18.6845 173.747 18 173.943 17.356C174.138 16.7121 174.818 16.3432 175.454 16.5362L183.83 19.0755C184.466 19.2684 184.827 19.953 184.632 20.5969L184.277 21.7676Z" fill="#485B78"/>
<path fill-rule="evenodd" clip-rule="evenodd" d="M174.893 27.5317C174.151 29.9785 175.511 32.5568 177.929 33.29C180.347 34.0232 182.909 32.6339 183.651 30.187L174.893 27.5317Z" fill="#485B78"/>
<path fill-rule="evenodd" clip-rule="evenodd" d="M177.091 28.1982C176.722 29.4173 177.399 30.7015 178.603 31.0668C179.808 31.4321 181.084 30.7401 181.454 29.521L177.091 28.1982Z" fill="#F0F0FC"/>
<path fill-rule="evenodd" clip-rule="evenodd" d="M157.976 22.4027C157.234 24.8496 158.594 27.4279 161.012 28.1611C163.43 28.8943 165.993 27.505 166.734 25.0581L157.976 22.4027Z" fill="#485B78"/>
<path fill-rule="evenodd" clip-rule="evenodd" d="M160.174 23.0693C159.805 24.2884 160.482 25.5726 161.686 25.9379C162.891 26.3032 164.168 25.6112 164.537 24.3921L160.174 23.0693Z" fill="#F0F0FC"/>
<path fill-rule="evenodd" clip-rule="evenodd" d="M184.501 30.4447L172.179 26.709L174.718 18.3359L182.902 20.8172C185.178 21.5072 186.469 23.9558 185.771 26.258L184.501 30.4447Z" fill="#EA5B44"/>
<path fill-rule="evenodd" clip-rule="evenodd" d="M174.163 23.9434L166.869 21.7321L165.935 24.8154L173.228 27.0266L174.163 23.9434Z" fill="#EA5B44"/>
<path fill-rule="evenodd" clip-rule="evenodd" d="M165.565 10.1264L168.606 11.5837C168.919 11.7333 169.072 12.086 168.97 12.4214L168.162 15.0882L164.231 14.5262C163.19 14.3777 162.709 12.984 163.076 11.7743C163.426 10.6195 164.59 9.65962 165.565 10.1264Z" fill="#EA5B44"/>
<path fill-rule="evenodd" clip-rule="evenodd" d="M164.187 14.5195C163.177 14.3383 162.715 12.967 163.076 11.7747C163.421 10.6362 164.558 9.68711 165.524 10.1087L164.187 14.5195Z" fill="#D9D9D9"/>
<path fill-rule="evenodd" clip-rule="evenodd" d="M180.876 23.5696C177.989 22.6941 174.93 24.3527 174.044 27.2743L184.501 30.4446C185.386 27.5229 183.764 24.4452 180.876 23.5696Z" fill="#EA5B44"/>
<path fill-rule="evenodd" clip-rule="evenodd" d="M181.358 15.669L178.119 16.1734L175.116 13.3605L172.398 14.46L166.954 14.4328L166.609 13.0062C168.397 12.95 169.86 12.8123 171.687 12.6514L173.397 11.426C173.397 11.426 173.802 9.94327 174.863 9.4249C175.924 8.90654 175.935 8.88886 175.935 8.88886C180.337 10.4075 181.399 13.023 181.358 15.669Z" fill="#D9D9D9"/>
<path fill-rule="evenodd" clip-rule="evenodd" d="M166.747 14.6133C166.249 14.4621 165.966 13.9269 166.119 13.4223C166.272 12.9178 166.804 12.6294 167.303 12.7806C167.801 12.9318 168.084 13.467 167.931 13.9715C167.778 14.4761 167.246 14.7645 166.747 14.6133Z" fill="#485B78"/>
<path fill-rule="evenodd" clip-rule="evenodd" d="M180.103 18.5886L173.395 18.8692L171.808 24.3055L169.84 23.7089L171.603 17.2682C171.77 16.6588 172.27 16.2435 172.89 16.1608L181.341 15.0316L181.549 16.6997C181.663 17.6171 181.019 18.5503 180.103 18.5886Z" fill="#485B78"/>
<path fill-rule="evenodd" clip-rule="evenodd" d="M171.894 24.0357L171.692 24.7288C171.523 25.3124 170.888 25.6346 170.316 25.451L169.533 25.1996L168.575 24.9022C168.163 24.7741 167.933 24.3303 168.062 23.9128L168.093 23.8109C168.23 23.3708 168.675 23.1082 169.113 23.192L169.933 23.4407L171.894 24.0351L171.894 24.0357Z" fill="#D9D9D9"/>
<path fill-rule="evenodd" clip-rule="evenodd" d="M169.851 25.3018L169.534 25.1999L168.576 24.9025C168.164 24.7744 167.933 24.3307 168.062 23.9131L168.094 23.8112C168.231 23.3711 168.675 23.1085 169.113 23.1923L169.933 23.441L170.375 23.5747L169.851 25.3018Z" fill="#EEF0F2"/>
<path fill-rule="evenodd" clip-rule="evenodd" d="M163.959 18.4407C161.071 17.5652 158.013 19.2237 157.127 22.1454L167.583 25.3157C168.469 22.394 166.846 19.3162 163.959 18.4407Z" fill="#EA5B44"/>
<path fill-rule="evenodd" clip-rule="evenodd" d="M180.876 23.5696C177.989 22.6941 174.93 24.3526 174.044 27.2743L176.341 27.9705C177.155 25.5487 179.387 23.9843 181.804 23.947C181.512 23.7954 181.202 23.6684 180.876 23.5696Z" fill="#EA5B44"/>
<path fill-rule="evenodd" clip-rule="evenodd" d="M163.959 18.4407C161.071 17.5652 158.013 19.2237 157.127 22.1454L159.423 22.8416C160.237 20.4198 162.47 18.8554 164.886 18.8181C164.594 18.6665 164.285 18.5395 163.959 18.4407Z" fill="#EA5B44"/>
<path fill-rule="evenodd" clip-rule="evenodd" d="M167.303 12.7807C166.803 12.629 166.273 12.9162 166.119 13.4225C165.966 13.9288 166.247 14.4617 166.747 14.6134C166.809 14.6321 166.871 14.6439 166.933 14.6501C166.545 14.44 166.345 13.9756 166.48 13.5317C166.614 13.0879 167.038 12.8126 167.478 12.8535C167.423 12.824 167.365 12.7994 167.303 12.7807Z" fill="#485B78"/>
<path fill-rule="evenodd" clip-rule="evenodd" d="M177.954 16.0181L173.312 16.6379C172.692 16.7206 172.194 17.1366 172.025 17.7453L170.405 23.5843L169.915 23.4356L171.604 17.2672C171.759 16.7061 172.195 16.3088 172.747 16.1852C172.756 16.183 172.766 16.1813 172.775 16.1791C172.785 16.1775 172.794 16.1753 172.803 16.1736C172.813 16.172 172.823 16.1699 172.832 16.1683C172.841 16.1667 172.851 16.1652 172.861 16.1636C172.87 16.1619 172.88 16.1605 172.889 16.1596L181.341 15.0312L181.406 15.5535L177.954 16.0181Z" fill="#485B78"/>
<path fill-rule="evenodd" clip-rule="evenodd" d="M179.668 11.075C178.876 10.4192 177.827 9.83738 176.453 9.3633C175.996 10.0783 175.143 10.6821 174.342 10.9303C174.041 11.4327 173.914 11.9004 173.914 11.9004L172.204 13.1259C170.784 13.2508 169.366 13.3812 167.942 13.4483C167.893 13.2595 167.787 13.0892 167.638 12.9625C168.99 12.8935 170.338 12.769 171.687 12.6501L173.397 11.4247C173.397 11.4247 173.52 10.9765 173.806 10.4869C174.041 10.0856 174.386 9.65697 174.864 9.42359C175.925 8.90522 175.936 8.88755 175.936 8.88755C175.98 8.90276 176.024 8.91797 176.067 8.93376C177.696 9.51362 178.857 10.2457 179.668 11.075Z" fill="#EEF0F2"/>
<path fill-rule="evenodd" clip-rule="evenodd" d="M173.76 4.56931C172.337 4.28625 170.949 5.22325 170.659 6.66211C170.369 8.10098 171.288 9.49672 172.711 9.77977C174.134 10.0628 175.523 9.12584 175.812 7.68697L173.236 7.17454L173.76 4.56931Z" fill="#F6DCCD"/>
<path fill-rule="evenodd" clip-rule="evenodd" d="M173.9 3.87153C172.395 3.57234 170.92 4.35002 170.26 5.67592C170.159 5.87898 170.157 6.09629 170.255 6.29992C170.353 6.50356 170.523 6.63543 170.743 6.6791L172.553 7.03937C172.929 7.11385 173.173 7.48535 173.097 7.86541L172.729 9.69501C172.684 9.9177 172.739 10.1275 172.887 10.297C173.034 10.4666 173.234 10.5486 173.458 10.5325C174.92 10.4249 176.196 9.3463 176.502 7.82391C176.869 6.00032 175.704 4.23063 173.9 3.87153Z" fill="#EA5B44"/>
<path fill-rule="evenodd" clip-rule="evenodd" d="M173.9 3.87147C172.395 3.57229 170.92 4.34997 170.26 5.67587C170.159 5.87892 170.157 6.09624 170.255 6.29987C170.341 6.47674 170.481 6.6001 170.661 6.6579C170.665 6.64332 170.669 6.62798 170.674 6.61282C171.201 4.87345 173.023 3.88569 174.742 4.40691C175.086 4.51108 175.399 4.66799 175.677 4.8655C175.219 4.37135 174.609 4.01251 173.9 3.87147Z" fill="#EA5B44"/>
</g>
<defs>
<clipPath id="clip0_0_1">
<rect width="30" height="27" fill="white" transform="matrix(-0.956982 -0.290146 -0.290146 0.956982 192.327 9.44189)"/>
</clipPath>
</defs>
</svg>
