<svg width="9" height="9" viewBox="0 0 9 9" fill="none" xmlns="http://www.w3.org/2000/svg">
    <g clip-path="url(#clip0_806_7426)">
        <path d="M6.58959 6.90392C6.42272 7.0238 6.2225 7.08819 6.01717 7.08781C5.87984 7.08762 5.74384 7.0594 5.61788 7.00467L5.51427 6.60678L5.3167 5.84509L5.27446 5.68146C5.29094 5.64586 5.30023 5.60741 5.30174 5.5684C5.30212 5.52541 5.29075 5.48299 5.26897 5.44568C5.22938 5.37447 5.15778 5.32675 5.07671 5.31766C5.04129 5.31501 4.99356 5.31633 4.50562 5.31633C4.05404 5.31633 3.68733 4.95158 3.68506 4.50009V4.22625L5.05341 4.37075L5.38054 4.40484L5.7554 4.44442C6.04577 4.47529 6.26038 4.72944 6.24201 5.02089L6.1617 6.31949C6.15204 6.47857 6.21227 6.63386 6.32668 6.74465C6.36608 6.78366 6.41173 6.81586 6.46155 6.8401L6.58959 6.90392Z" fill="#8B97A7"/>
        <path d="M2.26609 6.73764L2.06436 7.27587C1.98159 7.28496 1.89843 7.26147 1.8327 7.21053H1.83138L1.80675 7.19008C1.74633 7.13288 1.71129 7.05391 1.70996 6.97058C1.70996 6.95373 1.71129 6.93687 1.71413 6.92021C1.73799 6.77741 1.85846 6.6706 2.00299 6.66397C2.04712 6.66151 2.09126 6.66852 2.13255 6.68443L2.18029 6.70355L2.26609 6.73764Z" fill="#F44336"/>
        <path d="M3.92885 8.08945C3.92847 8.16558 3.91749 8.24134 3.89608 8.31425C3.77163 8.72104 3.34109 8.95 2.93422 8.82577C2.68438 8.74945 2.49041 8.55173 2.41862 8.3008C2.39817 8.23225 2.38813 8.16104 2.38869 8.08964C2.38851 8.02014 2.39817 7.95082 2.4173 7.88397C2.53095 7.47434 2.95524 7.2342 3.36495 7.34783C3.63961 7.42396 3.84967 7.64535 3.91105 7.92355C3.9226 7.97791 3.92847 8.03358 3.92885 8.08945Z" fill="#F44336"/>
        <path d="M8.68016 8.04192C8.68035 8.13509 8.66311 8.22751 8.62978 8.31444C8.47976 8.71176 8.03576 8.91232 7.63836 8.76214C7.43171 8.68411 7.26862 8.52105 7.19058 8.31444C7.15705 8.22751 7.14001 8.13509 7.14019 8.04192C7.13963 8.00082 7.14323 7.95972 7.15118 7.9192C7.21824 7.4999 7.6126 7.21451 8.03178 7.28155C8.35986 7.33401 8.61709 7.59119 8.66956 7.9192C8.67694 7.95954 8.68054 8.00063 8.68016 8.04192Z" fill="#F44336"/>
        <path d="M4.11279 8.04192C4.11297 8.56878 3.68603 8.99602 3.15907 8.99621C2.63211 8.9964 2.20478 8.56953 2.20459 8.04267C2.20459 8.04248 2.20459 8.04211 2.20459 8.04192C2.20459 7.90026 2.28093 7.84837 2.36673 7.86333C2.38492 7.86579 2.40234 7.8728 2.41712 7.88378C2.46239 7.91333 2.48588 7.96673 2.47716 8.02014V8.04192C2.47716 8.41822 2.78231 8.72331 3.15869 8.72331C3.53506 8.72331 3.84021 8.41822 3.84021 8.04192C3.83983 7.9923 3.86711 7.94647 3.91106 7.92336C3.93075 7.91143 3.95348 7.90518 3.9764 7.90556C4.05179 7.90575 4.1126 7.96673 4.11279 8.04192Z" fill="#7C737D"/>
        <path d="M8.86406 8.04192C8.86633 8.56878 8.44109 8.99773 7.91432 9C7.38736 9.00227 6.95833 8.57711 6.95605 8.05044C6.95605 8.0476 6.95605 8.04476 6.95605 8.04192C6.95624 7.96673 7.01705 7.90575 7.09244 7.90556C7.1127 7.90594 7.13278 7.91049 7.15097 7.9192C7.19851 7.94135 7.22882 7.98927 7.22863 8.04192C7.22863 8.13566 7.24776 8.22827 7.28451 8.31444C7.43585 8.65987 7.83874 8.81725 8.18424 8.66574C8.34127 8.59681 8.46685 8.47143 8.53561 8.31444C8.57236 8.22827 8.59149 8.13566 8.59149 8.04192C8.5913 7.98946 8.62161 7.94154 8.66915 7.9192C8.68752 7.91049 8.70741 7.90594 8.72768 7.90556C8.80288 7.90575 8.86387 7.96654 8.86406 8.04192Z" fill="#7C737D"/>
        <path d="M3.89592 8.31444C3.77147 8.72123 3.34092 8.95019 2.93405 8.82596C2.68421 8.74964 2.49025 8.55192 2.41846 8.30099C2.45596 8.30932 2.49441 8.3133 2.53287 8.3133C2.5429 8.31444 2.55275 8.31482 2.56279 8.31463H3.89592V8.31444Z" fill="#F44336"/>
        <path d="M8.62963 8.31444C8.47961 8.71176 8.03561 8.91232 7.63821 8.76214C7.43156 8.68411 7.26847 8.52105 7.19043 8.31444H8.62963Z" fill="#F44336"/>
        <path d="M4.07325 8.31444C3.92228 8.81952 3.39021 9.10662 2.88522 8.95549C2.55109 8.85569 2.29802 8.58166 2.2251 8.24077C2.28647 8.26974 2.35163 8.29001 2.41868 8.3008C2.45619 8.30913 2.49464 8.31311 2.53309 8.31311C2.68349 8.65873 3.08562 8.81706 3.43131 8.6665C3.5891 8.59775 3.71525 8.472 3.7842 8.31444H4.07325Z" fill="#7C737D"/>
        <path d="M8.82462 8.31444C8.67385 8.81952 8.14215 9.10662 7.63716 8.95587C7.32879 8.86383 7.08766 8.62275 6.99561 8.31444H7.28466C7.436 8.65987 7.83889 8.81725 8.18439 8.66574C8.34142 8.59681 8.467 8.47143 8.53576 8.31444H8.82462Z" fill="#7C737D"/>
        <path d="M2.53304 8.31311C2.49459 8.3133 2.45614 8.30913 2.41864 8.30099C2.35158 8.2902 2.28642 8.26993 2.22505 8.24096C2.21122 8.17562 2.2044 8.10896 2.20459 8.04211C2.20459 7.90045 2.28093 7.84856 2.36674 7.86352C2.38492 7.86598 2.40235 7.87299 2.41712 7.88397C2.46239 7.91351 2.48588 7.96692 2.47717 8.02033V8.04211C2.47717 8.13528 2.49611 8.22732 2.53304 8.31311Z" fill="#6C646D"/>
        <path d="M3.91123 7.92336C3.86728 7.94647 3.84001 7.9923 3.84039 8.04192C3.84039 8.13566 3.82126 8.22827 3.78451 8.31444H2.56333C2.55329 8.31463 2.54325 8.31425 2.5334 8.31311C2.49666 8.22751 2.47753 8.13509 2.47753 8.04192V8.02014C2.48643 7.96692 2.46275 7.91333 2.41748 7.88378C2.53113 7.47415 2.95543 7.23401 3.36514 7.34764C3.63979 7.42358 3.84986 7.64516 3.91123 7.92336Z" fill="#F44336"/>
        <path d="M4.11263 8.04192C4.11282 8.13415 4.09956 8.226 4.07304 8.31444H3.78418C3.82093 8.22827 3.84006 8.13566 3.84006 8.04192C3.83968 7.9923 3.86696 7.94647 3.9109 7.92336C3.9306 7.91143 3.95333 7.90518 3.97625 7.90556C4.05164 7.90575 4.11244 7.96673 4.11263 8.04192Z" fill="#6C646D"/>
        <path d="M7.28421 8.31444H6.99515C6.96883 8.226 6.95557 8.13415 6.95557 8.04192C6.95576 7.96673 7.01656 7.90575 7.09195 7.90556C7.11222 7.90594 7.13229 7.91049 7.15048 7.9192C7.19802 7.94135 7.22833 7.98927 7.22814 8.04192C7.22852 8.13547 7.24746 8.22827 7.28421 8.31444Z" fill="#6C646D"/>
        <path d="M8.66925 7.9192C8.62171 7.94135 8.5914 7.98927 8.59159 8.04192C8.59159 8.13566 8.57246 8.22827 8.53571 8.31444H7.28442C7.24767 8.22827 7.22854 8.13566 7.22854 8.04192C7.22873 7.98946 7.19842 7.94154 7.15088 7.9192C7.21793 7.49991 7.6123 7.21451 8.03148 7.28155C8.35955 7.33401 8.61678 7.59119 8.66925 7.9192Z" fill="#F44336"/>
        <path d="M8.86428 8.04192C8.86447 8.13415 8.85121 8.226 8.8247 8.31444H8.53564C8.57239 8.22827 8.59152 8.13566 8.59152 8.04192C8.59133 7.98946 8.62164 7.94154 8.66918 7.9192C8.68756 7.91049 8.70745 7.90594 8.72771 7.90556C8.8031 7.90575 8.8641 7.96673 8.86428 8.04192Z" fill="#6C646D"/>
        <path d="M6.58949 6.90392C6.42261 7.0238 6.22239 7.08819 6.01706 7.08781C5.87974 7.08762 5.74373 7.0594 5.61777 7.00467L5.51416 6.60678C5.72801 6.82097 6.054 6.87608 6.32657 6.74446C6.36597 6.78347 6.41162 6.81567 6.46144 6.83991L6.58949 6.90392Z" fill="#BBBBBB"/>
        <path d="M8.86412 8.04192H2.56313C2.26234 8.04192 2.01855 7.79818 2.01855 7.49744C2.01855 7.434 2.02973 7.37113 2.05132 7.31147L2.0642 7.27606L2.26593 6.73783L2.46634 6.20226L2.56578 5.93523C2.7141 6.06363 2.90389 6.13427 3.10013 6.13427H4.54217C4.72041 6.13446 4.89373 6.07613 5.0356 5.96799C5.02878 6.07234 5.03466 6.17707 5.05341 6.2801C5.19509 7.02815 6.02512 7.30768 6.5894 6.9043C6.85117 6.72079 7.00687 6.42119 7.00649 6.10151C7.00649 6.00208 6.83886 4.33685 6.79113 3.81756C6.78563 3.75222 6.78166 3.70583 6.78014 3.68121H7.62248L7.89126 6.86529C7.90036 6.98384 7.98635 7.08232 8.10266 7.10751C8.54627 7.19841 8.86449 7.5891 8.86412 8.04192Z" fill="#485B78"/>
        <path d="M7.62261 3.68121H6.78027C6.7816 3.70583 6.78577 3.75204 6.79126 3.81756C6.79808 3.88839 6.80622 3.98251 6.81721 4.09008H6.95624C6.99848 4.08989 7.04053 4.08478 7.08164 4.07512C7.2093 4.2556 7.41672 4.36279 7.63777 4.3626H7.68001L7.62261 3.68121Z" fill="#485B78"/>
        <path d="M7.2285 3.54485C7.2285 3.59277 7.21581 3.63973 7.19175 3.68121C7.18001 3.70185 7.16523 3.7206 7.14819 3.73708C7.09761 3.78878 7.02828 3.81794 6.95612 3.81756H5.41179C5.36557 3.92153 5.31121 4.02172 5.24965 4.11735C5.19226 4.20769 5.12653 4.29253 5.05341 4.37075L3.68506 4.22625C3.68582 4.13516 3.69529 4.04425 3.71366 3.95505C3.85951 3.26419 4.51641 2.62105 4.94033 2.26804C5.02216 2.19854 5.09433 2.14134 5.15437 2.09627C5.27598 2.21615 5.426 2.30289 5.59041 2.34853C5.66845 2.4311 5.71903 2.53583 5.73494 2.64832C5.77169 2.87993 5.68455 3.13351 5.59458 3.27252H6.95612C7.10632 3.2729 7.22812 3.39467 7.2285 3.54485Z" fill="#F44336"/>
        <path d="M5.24965 4.11716C5.19226 4.2075 5.12653 4.29234 5.05341 4.37056L3.68506 4.22606C3.68582 4.13497 3.69529 4.04406 3.71366 3.95486L5.24965 4.11716Z" fill="#F44336"/>
        <path d="M3.09077 1.56903C3.09077 0.816425 2.41947 0.138248 1.59153 0.138248C0.763582 0.138248 0.0922852 0.816425 0.0922852 1.56903C0.0922852 2.32163 0.763392 2.99981 1.59153 2.99981C1.63471 2.99981 1.67695 2.99697 1.7192 2.99337L2.27305 3.40869V2.83543C2.75796 2.58961 3.09077 2.09835 3.09077 1.56903Z" fill="#485B78"/>
        <path d="M1.99215 2.72047L2.27286 2.93163V3.4085L1.71957 2.9928C1.67733 2.99678 1.63509 2.99962 1.59153 2.99962C0.762824 2.99962 0.0922852 2.32107 0.0922852 1.56884C0.0922852 1.13686 0.313146 0.729499 0.659213 0.460956C0.47131 0.699198 0.367699 0.99293 0.364857 1.29632C0.364857 2.04854 1.0354 2.7271 1.8641 2.7271C1.90767 2.72729 1.94991 2.72464 1.99215 2.72047Z" fill="#485B78"/>
        <path d="M5.05319 6.27991C4.89597 6.36399 4.72038 6.40755 4.54214 6.4066H3.1001C2.8728 6.40547 2.65137 6.33407 2.46631 6.20226L2.56575 5.93523C2.71407 6.06363 2.90386 6.13427 3.1001 6.13427H4.54214C4.72038 6.13446 4.8937 6.07613 5.03557 5.96799C5.02875 6.07215 5.03463 6.17688 5.05319 6.27991Z" fill="#485B78"/>
        <path d="M5.27405 5.68165C5.13521 5.95871 4.85203 6.1337 4.54214 6.13408H3.1001C2.79022 6.1337 2.50704 5.95871 2.36819 5.68165C2.30569 5.55722 2.35588 5.40572 2.48033 5.34322C2.51537 5.32561 2.55382 5.31652 2.59303 5.31633L5.0763 5.31785C5.21496 5.33338 5.31459 5.45818 5.29906 5.59681C5.29584 5.62635 5.28731 5.65514 5.27405 5.68165Z" fill="#7C737D"/>
        <path d="M3.14002 5.31633H1.50439V3.85525C1.50439 3.83442 1.52144 3.81737 1.54228 3.81737H3.10213C3.12297 3.81737 3.14002 3.83442 3.14002 3.85525V5.31633Z" fill="#8C98A8"/>
        <path d="M3.14002 4.90765V5.31652H1.50439V4.09008C1.50477 3.93971 1.62657 3.81794 1.77697 3.81756C1.77697 4.41961 2.2651 4.90765 2.86726 4.90765H3.14002Z" fill="#485B78"/>
        <path d="M6.68363 1.29651C6.6842 1.38798 6.67548 1.47926 6.65768 1.56903C6.59763 1.88246 6.42318 2.12089 6.13829 2.21084C6.05003 2.23793 5.95797 2.25118 5.86572 2.25043V1.29651H6.68363Z" fill="#FCD7CA"/>
        <path d="M8.45528 3.68121C8.45566 3.90676 8.27306 4.0897 8.04747 4.09008C8.04709 4.09008 8.04671 4.09008 8.04633 4.09008H7.63757C7.41178 4.08857 7.22994 3.9043 7.23145 3.67856C7.23297 3.4549 7.41386 3.27404 7.63757 3.27252H8.04633C8.27212 3.27271 8.4549 3.45546 8.45528 3.68121Z" fill="#8B97A7"/>
        <path d="M8.39514 3.89369C8.32165 4.01622 8.18905 4.09084 8.04623 4.08989H7.63747C7.41168 4.09008 7.22871 3.90714 7.22852 3.68159C7.22852 3.53879 7.30277 3.40641 7.42475 3.33237C7.30712 3.52478 7.36774 3.77609 7.56019 3.89369C7.6244 3.9329 7.69827 3.95373 7.77366 3.95373H8.18261C8.25762 3.95392 8.33112 3.93309 8.39514 3.89369Z" fill="#8B97A7"/>
        <path d="M0.958911 5.04381H0.608488C0.533289 5.04646 0.470023 4.98756 0.467371 4.91238C0.464719 4.83719 0.523628 4.77394 0.598827 4.77129C0.602047 4.7711 0.605268 4.7711 0.608488 4.77129H0.958911C1.03411 4.77394 1.09302 4.83719 1.09037 4.91238C1.08771 4.98397 1.03032 5.04135 0.958911 5.04381Z" fill="#8C98A8"/>
        <path d="M0.959238 4.49877H0.375073C0.299874 4.49631 0.240776 4.43324 0.243238 4.35787C0.245701 4.28609 0.303284 4.22852 0.375073 4.22606H0.959238C1.03444 4.22852 1.09354 4.29158 1.09107 4.36696C1.08861 4.43873 1.03103 4.4965 0.959238 4.49877Z" fill="#8C98A8"/>
        <path d="M0.959109 3.95373H0.141202C0.0660035 3.95638 0.00273798 3.89748 8.61329e-05 3.8223C-0.00256572 3.74711 0.0563432 3.68386 0.131542 3.68121C0.134762 3.68102 0.137982 3.68102 0.141202 3.68121H0.958919C1.03412 3.68386 1.09303 3.74711 1.09038 3.8223C1.0881 3.89369 1.03052 3.95127 0.959109 3.95373Z" fill="#8C98A8"/>
        <path d="M5.59051 2.34853C5.66855 2.4311 5.71913 2.53583 5.73504 2.64832H5.73106C5.71003 2.64832 5.6892 2.64699 5.66836 2.64415C5.61722 2.6362 5.56665 2.62483 5.51702 2.61006C5.3079 2.55211 5.11697 2.44189 4.96221 2.28982C4.95539 2.283 4.94725 2.27618 4.94043 2.26804C5.02226 2.19854 5.09443 2.14134 5.15447 2.09627C5.27608 2.21615 5.4261 2.30289 5.59051 2.34853Z" fill="#F44336"/>
        <path d="M6.68363 1.29651C6.6842 1.38798 6.67548 1.47926 6.65768 1.56903C6.3709 1.56903 6.13829 1.8014 6.13829 2.08813V2.21084C6.05003 2.23793 5.95797 2.25118 5.86572 2.25043V1.29651H6.68363Z" fill="#FAC1AD"/>
        <path d="M6.88383 1.29651H5.8657V2.23868C5.86608 2.31406 5.80509 2.37561 5.7297 2.3758C5.72326 2.3758 5.71663 2.37542 5.71019 2.37447C5.66985 2.36822 5.62988 2.35951 5.59048 2.34834C5.11125 2.21236 4.79852 1.75216 4.8491 1.25655C4.9082 0.69579 5.41072 0.288808 5.97178 0.347895C6.46597 0.400164 6.85106 0.800518 6.88383 1.29651Z" fill="#485B78"/>
        <path d="M5.86287 2.07582C5.8642 2.07582 5.8642 2.07582 5.86552 2.07714V2.23793C5.8659 2.31349 5.80491 2.37504 5.72933 2.37561C5.72289 2.37561 5.71645 2.37523 5.7102 2.37428C5.66985 2.36765 5.6297 2.35913 5.5903 2.34834C5.42588 2.3027 5.27568 2.21596 5.15426 2.09627C4.74985 1.70614 4.7383 1.06186 5.12869 0.657534C5.1785 0.605833 5.23381 0.559623 5.29329 0.519664C5.01314 0.92854 5.06959 1.48002 5.42683 1.82375C5.54844 1.94363 5.69846 2.03036 5.86287 2.07582Z" fill="#485B78"/>
        <path d="M4.36666 7.36052H3.27637V6.717C3.27637 6.69617 3.29341 6.67912 3.31425 6.67912H4.32877C4.34961 6.67912 4.36666 6.69617 4.36666 6.717V7.36052Z" fill="#8B97A7"/>
        <path d="M4.36666 7.22416V7.36052H3.27637V6.95164C3.27656 6.84464 3.33963 6.74749 3.43718 6.70355C3.4207 6.7384 3.41237 6.77666 3.41256 6.81529C3.41256 7.04103 3.59554 7.22416 3.82151 7.22416H4.36666Z" fill="#8B97A7"/>
        <path d="M6.95591 1.43268H5.86543C5.79023 1.43002 5.73132 1.36677 5.73397 1.29159C5.73644 1.22 5.79383 1.16262 5.86543 1.16015H6.95591C7.03111 1.16281 7.09002 1.22606 7.08736 1.30124C7.0849 1.37283 7.02751 1.43021 6.95591 1.43268Z" fill="#F44336"/>
        <path d="M6.95591 1.43268H5.86543C5.79023 1.43002 5.73132 1.36677 5.73397 1.29159C5.73644 1.22 5.79383 1.16262 5.86543 1.16015H6.95591C7.03111 1.16281 7.09002 1.22606 7.08736 1.30124C7.0849 1.37283 7.02751 1.43021 6.95591 1.43268Z" fill="#F44336"/>
        <path d="M2.26591 6.73764L2.06418 7.27587C1.9814 7.28496 1.89825 7.26147 1.83252 7.21053C2.05736 7.20788 2.1801 6.70355 2.1801 6.70355L2.26591 6.73764Z" fill="#F44336"/>
        <path d="M8.03493 6.95714L7.78641 4.22454H8.0461C8.7657 4.20561 8.76419 3.15226 8.0461 3.13446C7.81293 3.13995 7.43959 3.08693 7.26722 3.28161C7.19031 3.18881 7.07628 3.13484 6.95562 3.13446H5.81609C5.88579 2.95379 5.92102 2.72805 5.84033 2.51992C5.91591 2.53242 5.98732 2.48128 5.99982 2.40572C6.00153 2.39568 6.00209 2.38564 6.00153 2.37561C6.46409 2.31785 6.76924 1.96389 6.81337 1.43097H7.09201C7.27025 1.43021 7.27025 1.15921 7.09201 1.15845H7.00374C6.90543 0.60678 6.42582 0.204911 5.86534 0.204532C4.91048 0.190708 4.35605 1.34707 4.95651 2.07904C4.42538 2.48374 3.55823 3.28578 3.54913 4.20996C3.54894 4.21034 3.54894 4.21072 3.54913 4.21091C3.54913 4.21545 3.54838 4.22 3.54838 4.22454V4.49706C3.54838 4.75368 3.65218 4.99949 3.8361 5.17846H3.27561V3.81586C3.27561 3.74067 3.21481 3.6795 3.13942 3.6795H3.13923H1.50399C1.42879 3.6795 1.36761 3.74029 1.36761 3.81567V3.81586V5.17846H1.09504C0.916984 5.17922 0.916794 5.45022 1.09504 5.45098C1.34715 5.45117 1.96427 5.45079 2.22283 5.45098C2.15616 5.64226 2.2806 5.83467 2.40751 5.96989L2.18684 6.55849C1.61139 6.34183 1.30586 7.20201 1.89059 7.39347C1.84684 7.65482 1.9764 7.9387 2.20635 8.07411C2.27284 9.23123 3.9149 9.31343 4.10186 8.17657H6.9668C7.13974 9.25813 8.68065 9.25756 8.85321 8.17657C8.92879 8.18206 8.99452 8.12524 9.00001 8.04968C9.0002 8.04646 9.00039 8.04343 9.00039 8.04021C8.99944 7.48665 8.58481 7.02134 8.03493 6.95714ZM7.63734 3.40679H8.0461C8.40372 3.41285 8.40486 3.94539 8.0461 3.95183C8.04572 3.95202 7.63715 3.95164 7.63677 3.95202C7.27915 3.94502 7.27934 3.41323 7.63734 3.40679ZM6.00172 2.10062V1.43097H6.53985C6.51485 1.67963 6.40669 2.0351 6.00172 2.10062ZM5.86534 0.477053C6.27543 0.477242 6.63153 0.759232 6.72548 1.15845H5.86534C5.79014 1.15845 5.72914 1.21943 5.72895 1.29462V2.23793C4.66329 2.0493 4.77543 0.502809 5.86534 0.477053ZM5.13778 2.28319C5.14157 2.2794 5.14517 2.27523 5.14858 2.27107C5.24764 2.34928 5.35883 2.41064 5.4776 2.45306C5.67762 2.64889 5.62042 2.95095 5.517 3.13446H5.18362C5.00557 3.13522 5.00519 3.40622 5.18362 3.40698H6.95544C7.03063 3.40963 7.08954 3.47289 7.08689 3.54807C7.08443 3.61966 7.02704 3.67704 6.95544 3.6795C6.95525 3.67969 5.41073 3.6795 5.41016 3.6795H4.91124C4.73356 3.68007 4.73262 3.95145 4.91124 3.95202H5.18798C5.13305 4.04937 5.06845 4.14103 4.99515 4.22549L3.8289 4.10277C3.90979 3.29771 4.76084 2.56859 5.13778 2.28319ZM6.86698 6.02613C6.89046 6.29828 6.78136 6.56512 6.57376 6.74276C6.40309 6.67496 6.28262 6.51285 6.29645 6.32555L6.37752 5.02677C6.40101 4.66221 6.13223 4.34423 5.76873 4.30674L5.3147 4.25901C5.38327 4.16186 5.44369 4.05921 5.49502 3.95183H6.66922L6.86698 6.02613ZM3.82095 4.49706V4.37586L5.74032 4.57793C5.95834 4.60047 6.11972 4.79117 6.10571 5.0101L6.02445 6.30869C6.00986 6.5405 6.1148 6.76378 6.30251 6.90051C5.74771 7.11773 5.10406 6.62837 5.16695 6.03485C5.29595 5.91572 5.43365 5.75456 5.43744 5.56669C5.43555 5.3669 5.28382 5.20043 5.08512 5.17998C5.04819 5.17638 4.55267 5.17941 4.50247 5.17846C4.12629 5.17789 3.82152 4.87318 3.82095 4.49706ZM1.64018 3.95202H3.00323V5.17846H1.64018V3.95202ZM2.59428 5.45098C2.99717 5.45155 4.63071 5.44966 5.0622 5.45174C5.12566 5.45912 5.17112 5.51632 5.16373 5.57976C5.16222 5.5934 5.15805 5.60684 5.1518 5.61915C5.03701 5.85077 4.80043 5.99716 4.54187 5.99621H3.09983C2.84147 5.99526 2.60564 5.84944 2.48972 5.61877C2.46112 5.56158 2.48423 5.49208 2.54143 5.46348C2.55791 5.45496 2.57591 5.45079 2.59428 5.45098ZM1.84797 6.94085C1.86464 6.84673 1.95443 6.78385 2.04876 6.80052C2.06334 6.80317 2.07755 6.80752 2.091 6.81377L1.9709 7.1344C1.88661 7.11035 1.83377 7.02702 1.84797 6.94085ZM2.1804 7.35143L2.63349 6.14374C2.77555 6.22499 2.93637 6.26797 3.10002 6.26854H4.54206C4.66348 6.26816 4.78376 6.24468 4.89646 6.19923C4.94363 7.03194 5.98959 7.51998 6.65824 7.02096C6.66013 7.01982 6.66203 7.0185 6.66392 7.01736C6.99105 6.78707 7.17175 6.40054 7.1386 6.00189L6.94312 3.95202C7.01245 3.95354 7.08102 3.93725 7.14239 3.90487C7.2121 4.05732 7.34829 4.16943 7.51138 4.20845L7.7741 7.0986C7.78054 7.16868 7.83945 7.22246 7.90991 7.22246C8.30864 7.22322 8.64864 7.51089 8.71532 7.90386H2.56321C2.28647 7.91257 2.07489 7.60747 2.1804 7.35143ZM3.15855 8.72142C2.83332 8.72085 2.55355 8.49094 2.49048 8.17183C2.51472 8.17467 2.53897 8.17619 2.5634 8.17619H3.82644C3.76109 8.49321 3.48227 8.72104 3.15855 8.72142ZM7.90972 8.72142C7.58601 8.72104 7.30718 8.4934 7.24202 8.17638H8.57742C8.51226 8.49321 8.23344 8.72085 7.90972 8.72142Z" fill="black"/>
        <path d="M0.958643 4.76959H0.60822C0.430167 4.77034 0.429978 5.04135 0.60822 5.04211H0.958643C1.13689 5.04135 1.13707 4.77034 0.958643 4.76959Z" fill="black"/>
        <path d="M0.95838 4.22454H0.374404C0.196352 4.2253 0.195973 4.49631 0.374404 4.49706H0.95838C1.13643 4.49631 1.13681 4.22511 0.95838 4.22454Z" fill="black"/>
        <path d="M0.140518 3.95202H0.958234C1.13629 3.95127 1.13667 3.68026 0.958234 3.6795H0.140518C-0.0375352 3.68007 -0.037914 3.95127 0.140518 3.95202Z" fill="black"/>
        <path d="M3.27554 7.49498H4.36583C4.44103 7.49498 4.50221 7.43419 4.50221 7.35882C4.50221 7.35882 4.50221 7.35882 4.50221 7.35863V6.94975C4.50202 6.72401 4.31904 6.54106 4.09326 6.54087H3.54811C3.32233 6.54106 3.13954 6.72401 3.13916 6.94975V7.35863C3.13916 7.434 3.20015 7.49498 3.27554 7.49498ZM3.41173 6.94994C3.41173 6.87476 3.47291 6.81358 3.54811 6.81358H4.09326C4.16846 6.81358 4.22964 6.87457 4.22964 6.94994V7.22246H3.41173V6.94994Z" fill="black"/>
        <path d="M1.64002 3.13427C1.66919 3.13427 1.69817 3.13314 1.72677 3.13124L2.23971 3.51588C2.32495 3.58405 2.46133 3.51569 2.45773 3.40679V2.91478C3.90659 2.07941 3.27678 0.0246197 1.64002 0C0.753542 0 0.00439453 0.717758 0.00439453 1.56714C0.00439453 2.41651 0.753542 3.13427 1.64002 3.13427ZM1.64002 0.27271C3.04001 0.29733 3.53533 2.05536 2.25998 2.71214C2.21414 2.73524 2.18516 2.78221 2.18535 2.83353V3.13427L1.84951 2.88239C1.82281 2.86232 1.78947 2.85266 1.75613 2.85569C0.9852 2.92955 0.272421 2.30705 0.277156 1.56714C0.277156 0.865476 0.901288 0.27271 1.64002 0.27271Z" fill="black"/>
    </g>
    <defs>
        <clipPath id="clip0_806_7426">
            <rect width="9" height="9" fill="white"/>
        </clipPath>
    </defs>
</svg>
