<svg width="44" height="72" viewBox="0 0 44 72" fill="none" xmlns="http://www.w3.org/2000/svg">
  <path
    d="M11.5455 53H9.57386V47.1818H11.5852C12.1629 47.1818 12.6591 47.2983 13.0739 47.5312C13.4905 47.7623 13.8106 48.0947 14.0341 48.5284C14.2576 48.9621 14.3693 49.4811 14.3693 50.0852C14.3693 50.6913 14.2566 51.2121 14.0312 51.6477C13.8078 52.0833 13.4848 52.4176 13.0625 52.6506C12.642 52.8835 12.1364 53 11.5455 53ZM10.6278 52.0881H11.4943C11.8996 52.0881 12.2377 52.0142 12.5085 51.8665C12.7794 51.7169 12.983 51.4943 13.1193 51.1989C13.2557 50.9015 13.3239 50.5303 13.3239 50.0852C13.3239 49.6402 13.2557 49.2708 13.1193 48.9773C12.983 48.6818 12.7813 48.4612 12.5142 48.3153C12.2491 48.1676 11.9195 48.0938 11.5256 48.0938H10.6278V52.0881ZM16.8491 53.0852C16.4116 53.0852 16.0338 52.9943 15.7156 52.8125C15.3993 52.6288 15.1559 52.3693 14.9855 52.0341C14.815 51.697 14.7298 51.3002 14.7298 50.8438C14.7298 50.3949 14.815 50.0009 14.9855 49.6619C15.1578 49.321 15.3983 49.0559 15.7071 48.8665C16.0158 48.6752 16.3785 48.5795 16.7951 48.5795C17.0641 48.5795 17.3179 48.6231 17.5565 48.7102C17.797 48.7955 18.0091 48.928 18.1929 49.108C18.3785 49.2879 18.5243 49.517 18.6304 49.7955C18.7364 50.072 18.7894 50.4015 18.7894 50.7841V51.0994H15.2127V50.4062H17.8036C17.8018 50.2093 17.7591 50.0341 17.6758 49.8807C17.5925 49.7254 17.476 49.6032 17.3264 49.5142C17.1786 49.4252 17.0063 49.3807 16.8093 49.3807C16.5991 49.3807 16.4144 49.4318 16.2554 49.5341C16.0963 49.6345 15.9722 49.767 15.8832 49.9318C15.7961 50.0947 15.7516 50.2737 15.7497 50.4688V51.0739C15.7497 51.3277 15.7961 51.5455 15.8889 51.7273C15.9817 51.9072 16.1114 52.0455 16.2781 52.142C16.4447 52.2367 16.6398 52.2841 16.8633 52.2841C17.0129 52.2841 17.1483 52.2633 17.2696 52.2216C17.3908 52.178 17.4959 52.1146 17.5849 52.0312C17.6739 51.9479 17.7411 51.8447 17.7866 51.7216L18.7468 51.8295C18.6862 52.0833 18.5707 52.3049 18.4002 52.4943C18.2317 52.6818 18.0158 52.8277 17.7525 52.9318C17.4893 53.0341 17.1881 53.0852 16.8491 53.0852ZM20.2799 47.1818V53H19.2515V47.1818H20.2799ZM20.9294 53V48.6364H21.9578V53H20.9294ZM21.4465 48.017C21.2836 48.017 21.1434 47.9631 21.026 47.8551C20.9086 47.7453 20.8499 47.6136 20.8499 47.4602C20.8499 47.3049 20.9086 47.1733 21.026 47.0653C21.1434 46.9555 21.2836 46.9006 21.4465 46.9006C21.6112 46.9006 21.7514 46.9555 21.8669 47.0653C21.9843 47.1733 22.043 47.3049 22.043 47.4602C22.043 47.6136 21.9843 47.7453 21.8669 47.8551C21.7514 47.9631 21.6112 48.017 21.4465 48.017ZM26.5051 48.6364L24.9511 53H23.8147L22.2608 48.6364H23.3573L24.3602 51.8778H24.4056L25.4113 48.6364H26.5051ZM28.5921 53.0852C28.1546 53.0852 27.7768 52.9943 27.4586 52.8125C27.1423 52.6288 26.8989 52.3693 26.7285 52.0341C26.558 51.697 26.4728 51.3002 26.4728 50.8438C26.4728 50.3949 26.558 50.0009 26.7285 49.6619C26.9008 49.321 27.1413 49.0559 27.4501 48.8665C27.7588 48.6752 28.1215 48.5795 28.5381 48.5795C28.8071 48.5795 29.0609 48.6231 29.2995 48.7102C29.54 48.7955 29.7521 48.928 29.9359 49.108C30.1215 49.2879 30.2673 49.517 30.3734 49.7955C30.4794 50.072 30.5324 50.4015 30.5324 50.7841V51.0994H26.9557V50.4062H29.5466C29.5448 50.2093 29.5021 50.0341 29.4188 49.8807C29.3355 49.7254 29.219 49.6032 29.0694 49.5142C28.9216 49.4252 28.7493 49.3807 28.5523 49.3807C28.3421 49.3807 28.1574 49.4318 27.9984 49.5341C27.8393 49.6345 27.7152 49.767 27.6262 49.9318C27.5391 50.0947 27.4946 50.2737 27.4927 50.4688V51.0739C27.4927 51.3277 27.5391 51.5455 27.6319 51.7273C27.7247 51.9072 27.8544 52.0455 28.0211 52.142C28.1877 52.2367 28.3828 52.2841 28.6063 52.2841C28.7559 52.2841 28.8913 52.2633 29.0126 52.2216C29.1338 52.178 29.2389 52.1146 29.3279 52.0312C29.4169 51.9479 29.4841 51.8447 29.5296 51.7216L30.4898 51.8295C30.4292 52.0833 30.3137 52.3049 30.1432 52.4943C29.9747 52.6818 29.7588 52.8277 29.4955 52.9318C29.2323 53.0341 28.9311 53.0852 28.5921 53.0852ZM30.9945 53V48.6364H31.9916V49.3636H32.0371C32.1166 49.1117 32.253 48.9176 32.4462 48.7812C32.6413 48.643 32.8638 48.5739 33.1138 48.5739C33.1706 48.5739 33.2341 48.5767 33.3041 48.5824C33.3761 48.5862 33.4358 48.5928 33.4831 48.6023V49.5483C33.4395 49.5331 33.3704 49.5199 33.2757 49.5085C33.1829 49.4953 33.093 49.4886 33.0058 49.4886C32.8183 49.4886 32.6498 49.5294 32.5002 49.6108C32.3524 49.6903 32.2359 49.8011 32.1507 49.9432C32.0655 50.0852 32.0229 50.2491 32.0229 50.4347V53H30.9945ZM34.5304 54.6364C34.3902 54.6364 34.2605 54.625 34.1412 54.6023C34.0237 54.5814 33.93 54.5568 33.8599 54.5284L34.0985 53.7273C34.2482 53.7708 34.3817 53.7917 34.4991 53.7898C34.6165 53.7879 34.7198 53.7509 34.8088 53.679C34.8997 53.6089 34.9764 53.4915 35.0389 53.3267L35.127 53.0909L33.5446 48.6364H34.6355L35.6412 51.9318H35.6866L36.6951 48.6364H37.7889L36.0417 53.5284C35.9603 53.7595 35.8523 53.9574 35.7179 54.1222C35.5834 54.2888 35.4186 54.4157 35.2235 54.5028C35.0304 54.5919 34.7993 54.6364 34.5304 54.6364Z"
    fill="#485B78" />
  <g clip-path="url(#clip0_2401_8982)">
    <path d="M13.6245 19.8767H0.70459V21.6231H13.6245V19.8767Z" fill="#F0F0F0" />
    <path
      d="M21.0532 12.5702L21.188 9.02187L19.0429 7.54701L19.2083 7.24463L18.8345 7.31251C18.8345 7.31251 16.4013 9.55258 16.0274 10.8361C14.3848 16.4702 13.4287 20.8887 13.4287 20.8887L18.9693 21.191L21.0532 12.5702Z"
      fill="#EA5B44" />
    <path
      d="M22.4749 8.3431C22.3952 8.3431 22.3217 8.33693 22.2604 8.33076C21.5249 8.28139 21.4084 8.13328 21.2552 8.73187C21.2246 8.84912 21.2062 8.99105 21.1572 9.15767C20.9917 9.74391 19.3001 8.08392 19.0427 7.54087L19.7598 6.22028C19.7598 6.22028 18.1111 5.37486 18.8159 2.90029C19.5207 0.425729 22.2175 1.1539 22.2175 1.1539C22.2175 1.1539 23.8723 1.60439 24.5342 3.49888C24.8713 4.45538 23.8478 8.38629 22.4749 8.3431Z"
      fill="#F0CDAF" />
    <path
      d="M21.2552 8.73803C20.1827 7.75067 20.8139 6.1709 20.8139 6.1709C20.6607 7.19528 21.5678 8.1271 22.2665 8.33691C21.5249 8.28137 21.4085 8.13327 21.2552 8.73803Z"
      fill="#DCB99B" />
    <path
      d="M24.8531 3.55447C24.3995 3.57916 23.8173 3.38168 23.5108 3.06696C23.2779 3.11633 23.0634 3.25209 22.8734 3.43722C22.2666 3.99878 21.8437 5.00465 21.8253 5.30086L21.5434 5.28235C21.5434 5.28235 21.4024 4.66525 20.9183 4.52332C20.4341 4.38138 20.1828 4.70844 20.1521 5.0787C20.1337 5.27 20.2625 5.70197 20.2625 5.70197L19.9621 6.6955L19.4963 6.55974C19.4963 6.55974 17.7925 4.92443 18.2889 3.19038C18.4176 2.73373 18.6383 2.19686 18.9999 1.74637C19.6373 0.937975 20.7099 0.382587 22.5179 0.90712C23.8663 1.29589 24.4302 1.90682 24.8224 2.49306C24.896 2.83864 24.9082 3.19655 24.8531 3.55447Z"
      fill="#C89632" />
    <path
      d="M24.8286 3.8752C24.8102 3.9616 24.7857 4.04799 24.7551 4.12821L22.9041 3.43089L20.7406 2.61632L18.9571 1.94369L18.8896 1.919C19.4535 0.579901 20.8816 -0.216156 22.3403 0.0553675C22.3893 0.0615385 22.4322 0.0738804 22.4874 0.0862224C23.6703 0.363917 24.5406 1.27722 24.8102 2.388C24.9022 2.7274 24.9328 3.08532 24.8961 3.44324C24.8838 3.579 24.8654 3.7271 24.8286 3.8752Z"
      fill="#EA5B44" />
    <path
      d="M24.8288 3.87526C24.8104 3.96165 24.7859 4.04804 24.7552 4.12827L22.9043 3.43095L20.7407 2.61638C20.7652 2.53615 20.7836 2.44976 20.8081 2.36337C21.0778 1.41304 21.6294 0.629321 22.3404 0.0554199C22.3894 0.0615909 22.4323 0.0739329 22.4875 0.0862748C23.6704 0.363969 24.5407 1.27727 24.8104 2.38805C24.9023 2.72745 24.9329 3.08537 24.8962 3.44329C24.8839 3.57905 24.8655 3.72715 24.8288 3.87526Z"
      fill="#E2B3AB" />
    <path
      d="M3.29736 26.4796C3.29736 26.893 3.63446 27.2263 4.03897 27.2263H22.1379C22.5485 27.2263 22.8856 26.893 22.8856 26.4796V25.8563C22.8856 25.4429 22.5485 25.1096 22.1379 25.1096H4.0451C3.63446 25.1096 3.30349 25.449 3.30349 25.8563V26.4796H3.29736Z"
      fill="#485B78" />
    <path
      d="M26.3361 3.96793L24.8958 3.05462L22.6832 2.88184C22.4871 3.74577 24.5894 4.46161 25.5332 4.40607C26.7039 4.33819 26.3361 3.96793 26.3361 3.96793Z"
      fill="#DA1400" />
    <path
      d="M18.6688 21.1663L24.9388 21.7834C26.3975 21.9562 26.9613 22.2832 27.372 22.9127C27.7397 23.4681 27.85 24.0605 27.85 24.9306C27.85 26.9053 27.1329 35.1065 27.1329 35.1065L24.283 35.0633L24.7059 25.4428C24.7059 25.4428 17.1856 25.1898 15.4143 25.1898C13.3489 25.1898 13.4163 22.9559 13.4163 20.8948L18.6688 21.1663Z"
      fill="#1E5A78" />
    <path d="M24.2832 34.9031L24.3077 35.9953H28.9535L27.1332 34.9463L24.2832 34.9031Z"
      fill="#323232" />
    <path
      d="M6.95006 34.4217L8.72746 33.4097L11.3384 36.2421L11.7429 38.4699L6.63135 38.1058L6.95006 34.4217Z"
      fill="#323232" />
    <path
      d="M6.95652 40.9999C5.14234 40.9999 3.67139 39.5127 3.67139 37.6861C3.67139 35.8595 5.14847 34.3784 6.95652 34.3784C8.7707 34.3784 10.2478 35.8595 10.2478 37.6861C10.2417 39.5127 8.76458 40.9999 6.95652 40.9999Z"
      fill="#485B78" />
    <g opacity="0.1">
      <path
        d="M9.52476 37.686C9.52476 39.1115 8.37251 40.2716 6.95672 40.2716C5.54092 40.2716 4.38867 39.1115 4.38867 37.686C4.38867 36.2605 5.54092 35.1003 6.95672 35.1003C8.37251 35.1003 9.52476 36.2605 9.52476 37.686Z"
        fill="white" />
    </g>
    <path
      d="M9.5491 37.2417C9.53684 37.1491 9.51232 37.0566 9.48781 36.9702C9.46942 36.8961 9.4449 36.8221 9.42039 36.7542C9.38974 36.6678 9.34684 36.5814 9.30394 36.495C8.93007 35.7421 8.20072 35.1929 7.34266 35.0633C7.25073 35.051 7.15879 35.0386 7.06686 35.0386C7.03008 35.0325 6.98718 35.0325 6.95041 35.0325C6.91363 35.0325 6.87686 35.0325 6.84008 35.0386C6.74815 35.0386 6.65621 35.051 6.56428 35.0633C5.70622 35.1867 4.97687 35.7421 4.603 36.495C4.5601 36.5752 4.52333 36.6616 4.48655 36.7542C4.45591 36.8221 4.43752 36.8961 4.41913 36.9702C4.39462 37.0566 4.3701 37.1491 4.35784 37.2417C4.33333 37.3836 4.31494 37.5379 4.31494 37.686C4.31494 38.4265 4.61526 39.093 5.10558 39.5743L5.31397 39.7594C5.37526 39.8088 5.43042 39.852 5.49784 39.889C5.57751 39.9446 5.65719 39.9878 5.73687 40.031C6.09848 40.2223 6.51525 40.3333 6.95041 40.3333C7.39782 40.3333 7.80233 40.2223 8.17007 40.031L8.41523 39.8829C8.47039 39.8458 8.53168 39.8026 8.59297 39.7533L8.5991 39.7471L8.79523 39.5743L8.80136 39.5681C9.28555 39.0868 9.58587 38.4203 9.58587 37.686C9.58587 37.5317 9.57361 37.3898 9.5491 37.2417ZM9.212 36.8344C9.23652 36.8961 9.26103 36.964 9.27329 37.0257C9.27329 37.0319 9.27329 37.0319 9.27329 37.038L7.76556 37.5317L7.48976 37.6243C7.48976 37.6181 7.48976 37.6181 7.48976 37.6119C7.4775 37.5441 7.45911 37.4762 7.42234 37.4206C7.42234 37.4145 7.41621 37.4145 7.41621 37.4083L7.69814 37.3219L9.20587 36.8282C9.212 36.8282 9.212 36.8282 9.212 36.8344ZM7.34266 35.2917C8.0904 35.4151 8.74007 35.8902 9.08942 36.569L7.97395 36.9331L7.5204 37.0812L7.33653 37.1368V35.2917H7.34266ZM6.84008 35.2608C6.88299 35.2546 6.91363 35.2546 6.93815 35.2546H6.96879C6.99331 35.2546 7.01782 35.2546 7.04234 35.2546C7.04847 35.2546 7.06073 35.2546 7.06686 35.2546V37.1553H7.06073C7.03008 37.1491 6.99331 37.1491 6.95653 37.1491C6.91976 37.1491 6.87686 37.1491 6.84621 37.1615H6.84008V35.2608ZM6.95041 37.4453C7.08524 37.4453 7.18944 37.5502 7.18944 37.6798C7.18944 37.8094 7.08524 37.9205 6.95041 37.9205C6.8217 37.9205 6.71138 37.8094 6.71138 37.6798C6.7175 37.5502 6.8217 37.4453 6.95041 37.4453ZM6.56428 35.2917V37.1368L6.38041 37.0812L5.93299 36.9331L4.81139 36.5629C5.16687 35.8841 5.81654 35.4089 6.56428 35.2917ZM4.62752 37.0319C4.64591 36.9702 4.66429 36.9023 4.69494 36.8406C4.69494 36.8344 4.70107 36.8282 4.70107 36.8221L6.21493 37.3157L6.50299 37.4083C6.50299 37.4083 6.50299 37.4083 6.50299 37.4145C6.46622 37.4762 6.4417 37.5441 6.43557 37.6181C6.43557 37.6181 6.43557 37.6181 6.43557 37.6243L6.15364 37.5317L4.63365 37.038C4.62752 37.0319 4.62752 37.0319 4.62752 37.0319ZM5.24042 39.3892C4.78687 38.9325 4.54171 38.3278 4.54171 37.686C4.54171 37.5564 4.54784 37.4268 4.57236 37.3096L5.70009 37.6798L6.14751 37.8218L6.32525 37.8835L6.21493 38.0377L5.93912 38.4203L5.24042 39.3892ZM5.62654 39.7162C5.62042 39.7101 5.62042 39.7101 5.62654 39.7162C5.55913 39.6669 5.50397 39.6299 5.4488 39.5867C5.4488 39.5867 5.4488 39.5867 5.44268 39.5805L6.38041 38.2722L6.55202 38.0377C6.55202 38.0439 6.55815 38.0501 6.55815 38.0501C6.60105 38.0994 6.65621 38.1426 6.71138 38.1673C6.71138 38.1735 6.7175 38.1735 6.72363 38.1735L6.55202 38.4142L5.62654 39.7162ZM6.95041 40.1174C6.57041 40.1174 6.20267 40.031 5.86557 39.852L6.56428 38.8832L6.84008 38.4944L6.95653 38.3401L7.06686 38.4944L7.34266 38.877L8.04137 39.8458C7.7104 40.0248 7.34266 40.1174 6.95041 40.1174ZM8.45201 39.5867C8.40298 39.6237 8.35394 39.6669 8.29265 39.6977L8.28652 39.7039L7.34266 38.4018L7.17718 38.1673C7.18331 38.1612 7.18944 38.1612 7.19556 38.155C7.25073 38.1303 7.30589 38.0933 7.34879 38.0439C7.35492 38.0377 7.36105 38.0377 7.36105 38.0316L7.52653 38.2661L8.46427 39.5681L8.45201 39.5867ZM8.67265 39.3892L7.98008 38.4203L7.69814 38.0377L7.58782 37.8835L7.76556 37.8218L8.21298 37.6798L9.33458 37.3096C9.35297 37.4392 9.36523 37.5626 9.36523 37.686C9.36523 38.3278 9.12007 38.9325 8.67265 39.3892Z"
      fill="#B4B4B4" />
    <path
      d="M43.3256 34.8967C43.3256 36.8714 41.7382 38.4697 39.7769 38.4697C38.404 38.4697 37.215 37.686 36.6266 36.532C36.3753 36.0445 36.2344 35.4891 36.2344 34.8967C36.2344 32.922 37.3253 31.3237 39.2805 31.3237C41.0272 31.3237 42.9763 32.595 43.2643 34.2735C43.3072 34.4771 43.3256 34.6807 43.3256 34.8967Z"
      fill="#E2B3AB" />
    <path
      d="M43.3259 34.8968C43.3259 36.8715 41.7385 38.4698 39.7773 38.4698C38.4044 38.4698 37.2153 37.6861 36.627 36.5321C37.1295 34.7302 38.7721 33.4158 40.715 33.4158C41.6711 33.4158 42.5598 33.7367 43.2708 34.2735C43.3075 34.4772 43.3259 34.6808 43.3259 34.8968Z"
      fill="#323232" />
    <path
      d="M40.709 40.9999C38.8948 40.9999 37.4238 39.5127 37.4238 37.6861C37.4238 35.8595 38.9009 34.3784 40.709 34.3784C42.5231 34.3784 44.0002 35.8595 44.0002 37.6861C44.0002 39.5127 42.5231 40.9999 40.709 40.9999Z"
      fill="#485B78" />
    <g opacity="0.1">
      <path
        d="M43.2831 37.686C43.2831 39.1115 42.1308 40.2716 40.715 40.2716C39.2992 40.2716 38.147 39.1115 38.147 37.686C38.147 36.2605 39.2992 35.1003 40.715 35.1003C42.1308 35.1003 43.2831 36.2605 43.2831 37.686Z"
        fill="white" />
    </g>
    <path
      d="M43.3079 37.2417C43.2956 37.1491 43.2711 37.0566 43.2466 36.9702C43.2282 36.8961 43.2037 36.8221 43.1792 36.7542C43.1485 36.6678 43.1056 36.5814 43.0627 36.495C42.6889 35.7421 41.9595 35.1929 41.1014 35.0633C41.0095 35.051 40.9237 35.0386 40.8256 35.0386C40.7889 35.0325 40.746 35.0325 40.7092 35.0325C40.6724 35.0325 40.6356 35.0325 40.5989 35.0386C40.5069 35.0386 40.415 35.051 40.3231 35.0633C39.465 35.1867 38.7357 35.7421 38.3618 36.495C38.3189 36.5752 38.2821 36.6616 38.2453 36.7542C38.2147 36.8221 38.1963 36.8961 38.1779 36.9702C38.1534 37.0566 38.1289 37.1491 38.1166 37.2417C38.0921 37.3836 38.0737 37.5379 38.0737 37.686C38.0737 38.4265 38.3741 39.093 38.8644 39.5743L39.0666 39.7594C39.1279 39.8088 39.1831 39.852 39.2505 39.889C39.3302 39.9446 39.4099 39.9878 39.4895 40.031C39.8511 40.2223 40.2679 40.3333 40.7031 40.3333C41.1444 40.3333 41.555 40.2223 41.9227 40.031L42.1679 39.8829C42.2231 39.8458 42.2843 39.8026 42.3456 39.7533L42.3518 39.7471L42.5479 39.5743L42.554 39.5681C43.0382 39.0868 43.3385 38.4203 43.3385 37.686C43.3447 37.5317 43.3324 37.3898 43.3079 37.2417ZM42.9708 36.8344C42.9953 36.8961 43.0198 36.964 43.0321 37.0257C43.0321 37.0319 43.0321 37.0319 43.0321 37.038L41.5244 37.5317L41.2485 37.6243C41.2485 37.6181 41.2485 37.6181 41.2485 37.6119C41.2363 37.5441 41.2179 37.4762 41.1811 37.4206C41.1811 37.4145 41.175 37.4145 41.175 37.4083L41.4569 37.3219L42.9647 36.8282C42.9708 36.8282 42.9708 36.8282 42.9708 36.8344ZM41.1014 35.2917C41.8492 35.4151 42.4989 35.8902 42.8482 36.569L41.7327 36.9331L41.2792 37.0812L41.0953 37.1368V35.2917H41.1014ZM40.5989 35.2608C40.6418 35.2546 40.6724 35.2546 40.6969 35.2546H40.7276C40.7521 35.2546 40.7766 35.2546 40.8011 35.2546C40.8073 35.2546 40.8195 35.2546 40.8256 35.2546V37.1553H40.8195C40.7889 37.1491 40.7521 37.1491 40.7153 37.1491C40.6786 37.1491 40.6356 37.1491 40.605 37.1615H40.5989V35.2608ZM40.7092 37.4453C40.844 37.4453 40.9482 37.5502 40.9482 37.6798C40.9482 37.8094 40.844 37.9205 40.7092 37.9205C40.5805 37.9205 40.4702 37.8094 40.4702 37.6798C40.4763 37.5502 40.5805 37.4453 40.7092 37.4453ZM40.3231 35.2917V37.1368L40.1392 37.0812L39.6918 36.9331L38.5702 36.5629C38.9257 35.8841 39.5753 35.4089 40.3231 35.2917ZM38.3863 37.0319C38.4047 36.9702 38.4231 36.9023 38.4476 36.8406C38.4476 36.8344 38.4537 36.8282 38.4537 36.8221L39.9676 37.3157L40.2557 37.4083C40.2557 37.4083 40.2557 37.4083 40.2557 37.4145C40.2189 37.4762 40.1944 37.5441 40.1882 37.6181C40.1882 37.6181 40.1882 37.6181 40.1882 37.6243L39.9063 37.5317L38.3863 37.038C38.3863 37.0319 38.3863 37.0319 38.3863 37.0319ZM38.9992 39.3892C38.5457 38.9325 38.3005 38.3278 38.3005 37.686C38.3005 37.5564 38.3066 37.4268 38.3311 37.3096L39.4589 37.6798L39.9063 37.8218L40.084 37.8835L39.9737 38.0377L39.6979 38.4203L38.9992 39.3892ZM39.3853 39.7162C39.3792 39.7101 39.3792 39.7101 39.3853 39.7162C39.3179 39.6669 39.2628 39.6299 39.2076 39.5867C39.2076 39.5867 39.2076 39.5867 39.2015 39.5805L40.1392 38.2722L40.3108 38.0377C40.3108 38.0439 40.3169 38.0501 40.3231 38.0501C40.366 38.0994 40.4211 38.1426 40.4763 38.1673C40.4763 38.1735 40.4824 38.1735 40.4886 38.1735L40.3169 38.4142L39.3853 39.7162ZM40.7092 40.1174C40.3292 40.1174 39.9615 40.031 39.6244 39.852L40.3231 38.8832L40.5989 38.4944L40.7153 38.3401L40.8256 38.4944L41.1014 38.877L41.8002 39.8458C41.4692 40.0248 41.1014 40.1174 40.7092 40.1174ZM42.2108 39.5867C42.1618 39.6237 42.1066 39.6669 42.0514 39.6977L42.0453 39.7039L41.1014 38.4018L40.936 38.1673C40.9421 38.1612 40.9482 38.1612 40.9544 38.155C41.0095 38.1303 41.0647 38.0933 41.1076 38.0439C41.1137 38.0377 41.1198 38.0377 41.1198 38.0316L41.2853 38.2661L42.2231 39.5681L42.2108 39.5867ZM42.4314 39.3892L41.7389 38.4203L41.4569 38.0377L41.3466 37.8835L41.5244 37.8218L41.9718 37.6798L43.0934 37.3096C43.1118 37.4392 43.124 37.5626 43.124 37.686C43.124 38.3278 42.8789 38.9325 42.4314 39.3892Z"
      fill="#B4B4B4" />
    <path
      d="M12.154 38.8834H6.49694C6.22113 38.8834 6.00049 38.6612 6.00049 38.3835V36.9889C6.00049 36.7112 6.22113 36.489 6.49694 36.489H12.154V38.8834Z"
      fill="#B4B4B4" />
    <path
      d="M11.7433 37.544H6.84623C6.7114 37.544 6.60107 37.433 6.60107 37.291C6.60107 37.1553 6.7114 37.0442 6.84623 37.0442H11.7433C11.8781 37.0442 11.9946 37.1553 11.9946 37.291C11.9885 37.433 11.8781 37.544 11.7433 37.544Z"
      fill="#969696" />
    <path
      d="M11.7433 38.3277H6.84623C6.7114 38.3277 6.60107 38.2167 6.60107 38.0747C6.60107 37.939 6.7114 37.8279 6.84623 37.8279H11.7433C11.8781 37.8279 11.9946 37.939 11.9946 38.0747C11.9885 38.2167 11.8781 38.3277 11.7433 38.3277Z"
      fill="#969696" />
    <path d="M35.8486 39.9507L37.4299 37.5687L36.7864 36.7974L35.8486 39.9507Z" fill="#323232" />
    <path
      d="M38.9805 31.1941C39.0357 31.3175 39.0418 31.4594 38.9989 31.5829L36.1918 39.0312L35.8486 39.9445C35.7751 40.1358 35.5912 40.2654 35.3828 40.2654H12.6197C12.4236 40.2654 12.2459 40.1482 12.1662 39.9692L11.7433 39.0312L9.78814 34.693L2.37207 30.0339L4.38851 27.1953H21.8316C21.8316 27.1953 18.8836 28.2567 18.8836 30.9719C18.8836 33.6933 18.8836 32.6566 18.8836 33.5637C18.8836 34.4709 19.1594 35.9457 21.2432 35.9457H29.1741C30.2896 35.9457 31.3499 35.1991 32.0609 34.4462C32.778 33.6933 33.4154 32.8973 33.0109 30.6449C32.6554 28.664 30.6573 20.4689 30.1854 18.5312C30.1303 18.2967 30.2467 18.0499 30.4735 17.9512L31.9383 17.3217C32.1835 17.2168 32.4654 17.3217 32.5818 17.5686L38.9805 31.1941Z"
      fill="#EA5B44" />
    <path
      d="M30.2467 18.7844L29.1067 15.2423C29.027 14.9893 29.1496 14.7178 29.3948 14.6252L31.3928 13.823C31.6441 13.7242 31.9322 13.8415 32.0364 14.0945L33.1825 16.8467C33.2867 17.0936 33.1764 17.3774 32.9373 17.4885L30.2467 18.7844Z"
      fill="#EA5B44" />
    <path
      d="M13.4223 33.7429C13.4223 34.1811 13.2323 34.6007 12.8952 34.8907C12.5581 35.1746 12.1168 35.298 11.6878 35.224L1.99783 33.5825C1.7588 33.5393 1.58105 33.3356 1.58105 33.0888V30.5649C1.58105 30.318 1.7588 30.1144 1.99783 30.0712L11.6878 28.4359C12.1229 28.3618 12.5642 28.4852 12.8952 28.7691C13.2323 29.053 13.4223 29.4726 13.4223 29.9169V33.7429Z"
      fill="#E2B3AB" />
    <path
      d="M36.1917 39.0376L35.8485 39.9509C35.7749 40.1422 35.5911 40.2718 35.3827 40.2718H12.6196C12.4235 40.2718 12.2457 40.1545 12.1661 39.9756L11.7432 39.0376H36.1917Z"
      fill="#485B78" />
    <path
      d="M5.22172 33.2306C5.08688 33.2306 4.97656 33.1195 4.97656 32.9837V30.6758C4.97656 30.54 5.08688 30.429 5.22172 30.429C5.35656 30.429 5.47301 30.54 5.47301 30.6758V32.9837C5.47301 33.1195 5.36269 33.2306 5.22172 33.2306Z"
      fill="#EA5B44" />
    <path
      d="M4.25959 33.2306C4.12475 33.2306 4.0083 33.1195 4.0083 32.9837V30.6758C4.0083 30.54 4.11862 30.429 4.25959 30.429C4.39443 30.429 4.50475 30.54 4.50475 30.6758V32.9837C4.51088 33.1195 4.40056 33.2306 4.25959 33.2306Z"
      fill="#EA5B44" />
    <path
      d="M3.29719 33.2306C3.16235 33.2306 3.0459 33.1195 3.0459 32.9837V30.6758C3.0459 30.54 3.15622 30.429 3.29719 30.429C3.43202 30.429 3.54235 30.54 3.54235 30.6758V32.9837C3.54848 33.1195 3.43815 33.2306 3.29719 33.2306Z"
      fill="#EA5B44" />
    <path
      d="M22.8857 16.4332L20.3238 16.9454L17.5841 11.626L17.3512 11.1755C17.3083 11.0336 17.296 10.8793 17.3144 10.7189L17.3635 10.6942L19.2267 9.72534H19.2328C19.4228 9.82408 19.576 9.97835 19.6925 10.1573L19.7292 10.2252L19.7721 10.3116L19.8028 10.3733L22.8857 16.4332Z"
      fill="#E2B3AB" />
    <path
      d="M19.8763 11.0521C19.7599 11.7495 19.098 12.2246 18.3931 12.1074C18.0622 12.0518 17.7802 11.8729 17.5841 11.6322C17.4799 11.5026 17.4002 11.3484 17.3512 11.1817C17.3083 11.0398 17.296 10.8855 17.3144 10.7251C17.3144 10.7127 17.3144 10.7004 17.3144 10.6942C17.3144 10.6757 17.3206 10.6572 17.3206 10.6387C17.437 9.94137 18.0989 9.46621 18.8038 9.58345C18.9509 9.60814 19.0857 9.65751 19.2083 9.72539C19.2144 9.72539 19.2144 9.73156 19.2205 9.73156C19.4105 9.83029 19.5638 9.9784 19.6802 10.1574C19.6925 10.182 19.7109 10.2006 19.7231 10.2252L19.766 10.3116C19.7783 10.3301 19.7844 10.3487 19.7905 10.3733C19.8825 10.577 19.9131 10.8115 19.8763 11.0521Z"
      fill="#E2B3AB" />
    <path
      d="M28.5242 17.6427C27.5191 17.6798 26.6855 17.1676 26.661 16.4949C26.6365 15.8223 27.8868 15.162 28.8858 15.0386C30.6877 14.8164 30.5774 15.9642 30.6019 16.643C30.6265 17.3157 29.5294 17.5995 28.5242 17.6427Z"
      fill="#F0CDAF" />
    <path d="M27.0532 15.3101L27.2187 17.6674L21.6168 18.124L21.5371 15.6865L27.0532 15.3101Z"
      fill="#E2B3AB" />
    <path d="M27.4387 15.3998L27.0596 15.4263L27.207 17.5625L27.586 17.5359L27.4387 15.3998Z"
      fill="#F0F0F0" />
    <path
      d="M20.3237 16.9454C20.716 17.8464 21.1328 18.1673 21.6169 18.1241C22.1011 18.0871 22.0644 16.9269 22.0644 16.9269L21.5373 15.8408L20.3237 16.9454Z"
      fill="#E2B3AB" />
    <path
      d="M30.6019 16.6368C30.6019 17.2786 30.0809 17.8031 29.4435 17.8031C28.8061 17.8031 28.2852 17.2786 28.2852 16.6368C28.2852 15.995 28.8061 15.4705 29.4435 15.4705C30.0871 15.4705 30.6019 15.995 30.6019 16.6368Z"
      fill="#646464" />
    <path
      d="M30.0874 16.6369C30.0874 16.9948 29.7993 17.2849 29.4438 17.2849C29.0884 17.2849 28.8003 16.9948 28.8003 16.6369C28.8003 16.279 29.0884 15.9951 29.4438 15.9951C29.7993 15.9951 30.0874 16.2852 30.0874 16.6369Z"
      fill="#787878" />
    <path d="M13.4165 23.3633H0.496582V25.1097H13.4165V23.3633Z" fill="#F0F0F0" />
    <path d="M12.9138 21.6169H0V23.3633H12.9138V21.6169Z" fill="#E6E6E6" />
    <path d="M13.3244 18.124H0.410645V19.8704H13.3244V18.124Z" fill="#E6E6E6" />
    <path d="M7.29332 18.1301H6.79688V25.1095H7.29332V18.1301Z" fill="#485B78" />
    <path
      d="M6.7417 18.4757L6.86428 18.1116C6.94396 17.8771 7.34847 16.7108 7.61202 16.4516C7.91846 16.1431 8.44556 16.1431 8.75201 16.4516C9.06459 16.7663 9.06459 17.2847 8.75201 17.5994C8.49459 17.8586 7.33008 18.2721 7.10331 18.3523L6.7417 18.4757ZM8.18201 16.5874C8.06556 16.5874 7.95524 16.6306 7.87556 16.717C7.75911 16.8342 7.53234 17.3773 7.34847 17.8648C7.83266 17.6797 8.37201 17.4513 8.48846 17.3341C8.66007 17.1613 8.66007 16.8836 8.48846 16.717C8.40878 16.6306 8.29846 16.5874 8.18201 16.5874Z"
      fill="#485B78" />
    <path
      d="M7.3424 18.4757L6.98079 18.3523C6.74789 18.2721 5.58951 17.8586 5.33209 17.5994C5.01951 17.2847 5.01951 16.7663 5.33209 16.4516C5.63854 16.1431 6.16563 16.1431 6.47208 16.4516C6.7295 16.7108 7.14014 17.8833 7.21982 18.1116L7.3424 18.4757ZM5.90209 16.5874C5.78564 16.5874 5.67531 16.6306 5.59564 16.717C5.42403 16.8898 5.42403 17.1675 5.59564 17.3341C5.71209 17.4513 6.25144 17.6797 6.73563 17.8648C6.55176 17.3773 6.32499 16.8342 6.20854 16.717C6.12886 16.6306 6.01854 16.5874 5.90209 16.5874Z"
      fill="#485B78" />
    <g clip-path="url(#clip1_2401_8982)">
      <path d="M13.6245 19.8767H0.70459V21.6231H13.6245V19.8767Z" fill="#F0F0F0" />
      <path
        d="M21.0532 12.5702L21.188 9.02187L19.0429 7.54701L19.2083 7.24463L18.8345 7.31251C18.8345 7.31251 16.4013 9.55258 16.0274 10.8361C14.3848 16.4702 13.4287 20.8887 13.4287 20.8887L18.9693 21.191L21.0532 12.5702Z"
        fill="#F4BAB1" />
      <path
        d="M22.4749 8.3431C22.3952 8.3431 22.3217 8.33693 22.2604 8.33076C21.5249 8.28139 21.4084 8.13328 21.2552 8.73187C21.2246 8.84912 21.2062 8.99105 21.1572 9.15767C20.9917 9.74391 19.3001 8.08392 19.0427 7.54087L19.7598 6.22028C19.7598 6.22028 18.1111 5.37486 18.8159 2.90029C19.5207 0.425729 22.2175 1.1539 22.2175 1.1539C22.2175 1.1539 23.8723 1.60439 24.5342 3.49888C24.8713 4.45538 23.8478 8.38629 22.4749 8.3431Z"
        fill="#F0CDAF" />
      <path
        d="M21.2552 8.73803C20.1827 7.75067 20.8139 6.1709 20.8139 6.1709C20.6607 7.19528 21.5678 8.1271 22.2665 8.33691C21.5249 8.28137 21.4085 8.13327 21.2552 8.73803Z"
        fill="#DCB99B" />
      <path
        d="M24.8531 3.55447C24.3995 3.57916 23.8173 3.38168 23.5108 3.06696C23.2779 3.11633 23.0634 3.25209 22.8734 3.43722C22.2666 3.99878 21.8437 5.00465 21.8253 5.30086L21.5434 5.28235C21.5434 5.28235 21.4024 4.66525 20.9183 4.52332C20.4341 4.38138 20.1828 4.70844 20.1521 5.0787C20.1337 5.27 20.2625 5.70197 20.2625 5.70197L19.9621 6.6955L19.4963 6.55974C19.4963 6.55974 17.7925 4.92443 18.2889 3.19038C18.4176 2.73373 18.6383 2.19686 18.9999 1.74637C19.6373 0.937975 20.7099 0.382587 22.5179 0.90712C23.8663 1.29589 24.4302 1.90682 24.8224 2.49306C24.896 2.83864 24.9082 3.19655 24.8531 3.55447Z"
        fill="#C89632" />
      <path
        d="M24.8286 3.8752C24.8102 3.9616 24.7857 4.04799 24.7551 4.12821L22.9041 3.43089L20.7406 2.61632L18.9571 1.94369L18.8896 1.919C19.4535 0.579901 20.8816 -0.216156 22.3403 0.0553675C22.3893 0.0615385 22.4322 0.0738804 22.4874 0.0862224C23.6703 0.363917 24.5406 1.27722 24.8102 2.388C24.9022 2.7274 24.9328 3.08532 24.8961 3.44324C24.8838 3.579 24.8654 3.7271 24.8286 3.8752Z"
        fill="#F4BAB1" />
      <path
        d="M24.8288 3.87526C24.8104 3.96165 24.7859 4.04804 24.7552 4.12827L22.9043 3.43095L20.7407 2.61638C20.7652 2.53615 20.7836 2.44976 20.8081 2.36337C21.0778 1.41304 21.6294 0.629321 22.3404 0.0554199C22.3894 0.0615909 22.4323 0.0739329 22.4875 0.0862748C23.6704 0.363969 24.5407 1.27727 24.8104 2.38805C24.9023 2.72745 24.9329 3.08537 24.8962 3.44329C24.8839 3.57905 24.8655 3.72715 24.8288 3.87526Z"
        fill="#EBD1D1" />
      <path
        d="M3.29736 26.4796C3.29736 26.893 3.63446 27.2263 4.03897 27.2263H22.1379C22.5485 27.2263 22.8856 26.893 22.8856 26.4796V25.8563C22.8856 25.4429 22.5485 25.1096 22.1379 25.1096H4.0451C3.63446 25.1096 3.30349 25.449 3.30349 25.8563V26.4796H3.29736Z"
        fill="#EBD1D1" />
      <path
        d="M26.3361 3.96793L24.8958 3.05462L22.6832 2.88184C22.4871 3.74577 24.5894 4.46161 25.5332 4.40607C26.7039 4.33819 26.3361 3.96793 26.3361 3.96793Z"
        fill="#E2B3AB" />
      <path
        d="M18.6688 21.1663L24.9388 21.7834C26.3975 21.9562 26.9613 22.2832 27.372 22.9127C27.7397 23.4681 27.85 24.0605 27.85 24.9306C27.85 26.9053 27.1329 35.1065 27.1329 35.1065L24.283 35.0633L24.7059 25.4428C24.7059 25.4428 17.1856 25.1898 15.4143 25.1898C13.3489 25.1898 13.4163 22.9559 13.4163 20.8948L18.6688 21.1663Z"
        fill="#8B97A7" />
      <path d="M24.2832 34.9031L24.3077 35.9953H28.9535L27.1332 34.9463L24.2832 34.9031Z"
        fill="#323232" />
      <path
        d="M6.95006 34.4217L8.72746 33.4097L11.3384 36.2421L11.7429 38.4699L6.63135 38.1058L6.95006 34.4217Z"
        fill="#323232" />
      <path
        d="M6.95652 40.9999C5.14234 40.9999 3.67139 39.5127 3.67139 37.6861C3.67139 35.8595 5.14847 34.3784 6.95652 34.3784C8.7707 34.3784 10.2478 35.8595 10.2478 37.6861C10.2417 39.5127 8.76458 40.9999 6.95652 40.9999Z"
        fill="#EBD1D1" />
      <g opacity="0.1">
        <path
          d="M9.52476 37.686C9.52476 39.1115 8.37251 40.2716 6.95672 40.2716C5.54092 40.2716 4.38867 39.1115 4.38867 37.686C4.38867 36.2605 5.54092 35.1003 6.95672 35.1003C8.37251 35.1003 9.52476 36.2605 9.52476 37.686Z"
          fill="white" />
      </g>
      <path
        d="M9.5491 37.2417C9.53684 37.1491 9.51232 37.0566 9.48781 36.9702C9.46942 36.8961 9.4449 36.8221 9.42039 36.7542C9.38974 36.6678 9.34684 36.5814 9.30394 36.495C8.93007 35.7421 8.20072 35.1929 7.34266 35.0633C7.25073 35.051 7.15879 35.0386 7.06686 35.0386C7.03008 35.0325 6.98718 35.0325 6.95041 35.0325C6.91363 35.0325 6.87686 35.0325 6.84008 35.0386C6.74815 35.0386 6.65621 35.051 6.56428 35.0633C5.70622 35.1867 4.97687 35.7421 4.603 36.495C4.5601 36.5752 4.52333 36.6616 4.48655 36.7542C4.45591 36.8221 4.43752 36.8961 4.41913 36.9702C4.39462 37.0566 4.3701 37.1491 4.35784 37.2417C4.33333 37.3836 4.31494 37.5379 4.31494 37.686C4.31494 38.4265 4.61526 39.093 5.10558 39.5743L5.31397 39.7594C5.37526 39.8088 5.43042 39.852 5.49784 39.889C5.57751 39.9446 5.65719 39.9878 5.73687 40.031C6.09848 40.2223 6.51525 40.3333 6.95041 40.3333C7.39782 40.3333 7.80233 40.2223 8.17007 40.031L8.41523 39.8829C8.47039 39.8458 8.53168 39.8026 8.59297 39.7533L8.5991 39.7471L8.79523 39.5743L8.80136 39.5681C9.28555 39.0868 9.58587 38.4203 9.58587 37.686C9.58587 37.5317 9.57361 37.3898 9.5491 37.2417ZM9.212 36.8344C9.23652 36.8961 9.26103 36.964 9.27329 37.0257C9.27329 37.0319 9.27329 37.0319 9.27329 37.038L7.76556 37.5317L7.48976 37.6243C7.48976 37.6181 7.48976 37.6181 7.48976 37.6119C7.4775 37.5441 7.45911 37.4762 7.42234 37.4206C7.42234 37.4145 7.41621 37.4145 7.41621 37.4083L7.69814 37.3219L9.20587 36.8282C9.212 36.8282 9.212 36.8282 9.212 36.8344ZM7.34266 35.2917C8.0904 35.4151 8.74007 35.8902 9.08942 36.569L7.97395 36.9331L7.5204 37.0812L7.33653 37.1368V35.2917H7.34266ZM6.84008 35.2608C6.88299 35.2546 6.91363 35.2546 6.93815 35.2546H6.96879C6.99331 35.2546 7.01782 35.2546 7.04234 35.2546C7.04847 35.2546 7.06073 35.2546 7.06686 35.2546V37.1553H7.06073C7.03008 37.1491 6.99331 37.1491 6.95653 37.1491C6.91976 37.1491 6.87686 37.1491 6.84621 37.1615H6.84008V35.2608ZM6.95041 37.4453C7.08524 37.4453 7.18944 37.5502 7.18944 37.6798C7.18944 37.8094 7.08524 37.9205 6.95041 37.9205C6.8217 37.9205 6.71138 37.8094 6.71138 37.6798C6.7175 37.5502 6.8217 37.4453 6.95041 37.4453ZM6.56428 35.2917V37.1368L6.38041 37.0812L5.93299 36.9331L4.81139 36.5629C5.16687 35.8841 5.81654 35.4089 6.56428 35.2917ZM4.62752 37.0319C4.64591 36.9702 4.66429 36.9023 4.69494 36.8406C4.69494 36.8344 4.70107 36.8282 4.70107 36.8221L6.21493 37.3157L6.50299 37.4083C6.50299 37.4083 6.50299 37.4083 6.50299 37.4145C6.46622 37.4762 6.4417 37.5441 6.43557 37.6181C6.43557 37.6181 6.43557 37.6181 6.43557 37.6243L6.15364 37.5317L4.63365 37.038C4.62752 37.0319 4.62752 37.0319 4.62752 37.0319ZM5.24042 39.3892C4.78687 38.9325 4.54171 38.3278 4.54171 37.686C4.54171 37.5564 4.54784 37.4268 4.57236 37.3096L5.70009 37.6798L6.14751 37.8218L6.32525 37.8835L6.21493 38.0377L5.93912 38.4203L5.24042 39.3892ZM5.62654 39.7162C5.62042 39.7101 5.62042 39.7101 5.62654 39.7162C5.55913 39.6669 5.50397 39.6299 5.4488 39.5867C5.4488 39.5867 5.4488 39.5867 5.44268 39.5805L6.38041 38.2722L6.55202 38.0377C6.55202 38.0439 6.55815 38.0501 6.55815 38.0501C6.60105 38.0994 6.65621 38.1426 6.71138 38.1673C6.71138 38.1735 6.7175 38.1735 6.72363 38.1735L6.55202 38.4142L5.62654 39.7162ZM6.95041 40.1174C6.57041 40.1174 6.20267 40.031 5.86557 39.852L6.56428 38.8832L6.84008 38.4944L6.95653 38.3401L7.06686 38.4944L7.34266 38.877L8.04137 39.8458C7.7104 40.0248 7.34266 40.1174 6.95041 40.1174ZM8.45201 39.5867C8.40298 39.6237 8.35394 39.6669 8.29265 39.6977L8.28652 39.7039L7.34266 38.4018L7.17718 38.1673C7.18331 38.1612 7.18944 38.1612 7.19556 38.155C7.25073 38.1303 7.30589 38.0933 7.34879 38.0439C7.35492 38.0377 7.36105 38.0377 7.36105 38.0316L7.52653 38.2661L8.46427 39.5681L8.45201 39.5867ZM8.67265 39.3892L7.98008 38.4203L7.69814 38.0377L7.58782 37.8835L7.76556 37.8218L8.21298 37.6798L9.33458 37.3096C9.35297 37.4392 9.36523 37.5626 9.36523 37.686C9.36523 38.3278 9.12007 38.9325 8.67265 39.3892Z"
        fill="#B4B4B4" />
      <path
        d="M43.3256 34.8967C43.3256 36.8714 41.7382 38.4697 39.7769 38.4697C38.404 38.4697 37.215 37.686 36.6266 36.532C36.3753 36.0445 36.2344 35.4891 36.2344 34.8967C36.2344 32.922 37.3253 31.3237 39.2805 31.3237C41.0272 31.3237 42.9763 32.595 43.2643 34.2735C43.3072 34.4771 43.3256 34.6807 43.3256 34.8967Z"
        fill="#EBD1D1" />
      <path
        d="M43.3259 34.8968C43.3259 36.8715 41.7385 38.4698 39.7773 38.4698C38.4044 38.4698 37.2153 37.6861 36.627 36.5321C37.1295 34.7302 38.7721 33.4158 40.715 33.4158C41.6711 33.4158 42.5598 33.7367 43.2708 34.2735C43.3075 34.4772 43.3259 34.6808 43.3259 34.8968Z"
        fill="#323232" />
      <path
        d="M40.709 40.9999C38.8948 40.9999 37.4238 39.5127 37.4238 37.6861C37.4238 35.8595 38.9009 34.3784 40.709 34.3784C42.5231 34.3784 44.0002 35.8595 44.0002 37.6861C44.0002 39.5127 42.5231 40.9999 40.709 40.9999Z"
        fill="#EBD1D1" />
      <g opacity="0.1">
        <path
          d="M43.2831 37.686C43.2831 39.1115 42.1308 40.2716 40.715 40.2716C39.2992 40.2716 38.147 39.1115 38.147 37.686C38.147 36.2605 39.2992 35.1003 40.715 35.1003C42.1308 35.1003 43.2831 36.2605 43.2831 37.686Z"
          fill="white" />
      </g>
      <path
        d="M43.3079 37.2417C43.2956 37.1491 43.2711 37.0566 43.2466 36.9702C43.2282 36.8961 43.2037 36.8221 43.1792 36.7542C43.1485 36.6678 43.1056 36.5814 43.0627 36.495C42.6889 35.7421 41.9595 35.1929 41.1014 35.0633C41.0095 35.051 40.9237 35.0386 40.8256 35.0386C40.7889 35.0325 40.746 35.0325 40.7092 35.0325C40.6724 35.0325 40.6356 35.0325 40.5989 35.0386C40.5069 35.0386 40.415 35.051 40.3231 35.0633C39.465 35.1867 38.7357 35.7421 38.3618 36.495C38.3189 36.5752 38.2821 36.6616 38.2453 36.7542C38.2147 36.8221 38.1963 36.8961 38.1779 36.9702C38.1534 37.0566 38.1289 37.1491 38.1166 37.2417C38.0921 37.3836 38.0737 37.5379 38.0737 37.686C38.0737 38.4265 38.3741 39.093 38.8644 39.5743L39.0666 39.7594C39.1279 39.8088 39.1831 39.852 39.2505 39.889C39.3302 39.9446 39.4099 39.9878 39.4895 40.031C39.8511 40.2223 40.2679 40.3333 40.7031 40.3333C41.1444 40.3333 41.555 40.2223 41.9227 40.031L42.1679 39.8829C42.2231 39.8458 42.2843 39.8026 42.3456 39.7533L42.3518 39.7471L42.5479 39.5743L42.554 39.5681C43.0382 39.0868 43.3385 38.4203 43.3385 37.686C43.3447 37.5317 43.3324 37.3898 43.3079 37.2417ZM42.9708 36.8344C42.9953 36.8961 43.0198 36.964 43.0321 37.0257C43.0321 37.0319 43.0321 37.0319 43.0321 37.038L41.5244 37.5317L41.2485 37.6243C41.2485 37.6181 41.2485 37.6181 41.2485 37.6119C41.2363 37.5441 41.2179 37.4762 41.1811 37.4206C41.1811 37.4145 41.175 37.4145 41.175 37.4083L41.4569 37.3219L42.9647 36.8282C42.9708 36.8282 42.9708 36.8282 42.9708 36.8344ZM41.1014 35.2917C41.8492 35.4151 42.4989 35.8902 42.8482 36.569L41.7327 36.9331L41.2792 37.0812L41.0953 37.1368V35.2917H41.1014ZM40.5989 35.2608C40.6418 35.2546 40.6724 35.2546 40.6969 35.2546H40.7276C40.7521 35.2546 40.7766 35.2546 40.8011 35.2546C40.8073 35.2546 40.8195 35.2546 40.8256 35.2546V37.1553H40.8195C40.7889 37.1491 40.7521 37.1491 40.7153 37.1491C40.6786 37.1491 40.6356 37.1491 40.605 37.1615H40.5989V35.2608ZM40.7092 37.4453C40.844 37.4453 40.9482 37.5502 40.9482 37.6798C40.9482 37.8094 40.844 37.9205 40.7092 37.9205C40.5805 37.9205 40.4702 37.8094 40.4702 37.6798C40.4763 37.5502 40.5805 37.4453 40.7092 37.4453ZM40.3231 35.2917V37.1368L40.1392 37.0812L39.6918 36.9331L38.5702 36.5629C38.9257 35.8841 39.5753 35.4089 40.3231 35.2917ZM38.3863 37.0319C38.4047 36.9702 38.4231 36.9023 38.4476 36.8406C38.4476 36.8344 38.4537 36.8282 38.4537 36.8221L39.9676 37.3157L40.2557 37.4083C40.2557 37.4083 40.2557 37.4083 40.2557 37.4145C40.2189 37.4762 40.1944 37.5441 40.1882 37.6181C40.1882 37.6181 40.1882 37.6181 40.1882 37.6243L39.9063 37.5317L38.3863 37.038C38.3863 37.0319 38.3863 37.0319 38.3863 37.0319ZM38.9992 39.3892C38.5457 38.9325 38.3005 38.3278 38.3005 37.686C38.3005 37.5564 38.3066 37.4268 38.3311 37.3096L39.4589 37.6798L39.9063 37.8218L40.084 37.8835L39.9737 38.0377L39.6979 38.4203L38.9992 39.3892ZM39.3853 39.7162C39.3792 39.7101 39.3792 39.7101 39.3853 39.7162C39.3179 39.6669 39.2628 39.6299 39.2076 39.5867C39.2076 39.5867 39.2076 39.5867 39.2015 39.5805L40.1392 38.2722L40.3108 38.0377C40.3108 38.0439 40.3169 38.0501 40.3231 38.0501C40.366 38.0994 40.4211 38.1426 40.4763 38.1673C40.4763 38.1735 40.4824 38.1735 40.4886 38.1735L40.3169 38.4142L39.3853 39.7162ZM40.7092 40.1174C40.3292 40.1174 39.9615 40.031 39.6244 39.852L40.3231 38.8832L40.5989 38.4944L40.7153 38.3401L40.8256 38.4944L41.1014 38.877L41.8002 39.8458C41.4692 40.0248 41.1014 40.1174 40.7092 40.1174ZM42.2108 39.5867C42.1618 39.6237 42.1066 39.6669 42.0514 39.6977L42.0453 39.7039L41.1014 38.4018L40.936 38.1673C40.9421 38.1612 40.9482 38.1612 40.9544 38.155C41.0095 38.1303 41.0647 38.0933 41.1076 38.0439C41.1137 38.0377 41.1198 38.0377 41.1198 38.0316L41.2853 38.2661L42.2231 39.5681L42.2108 39.5867ZM42.4314 39.3892L41.7389 38.4203L41.4569 38.0377L41.3466 37.8835L41.5244 37.8218L41.9718 37.6798L43.0934 37.3096C43.1118 37.4392 43.124 37.5626 43.124 37.686C43.124 38.3278 42.8789 38.9325 42.4314 39.3892Z"
        fill="#B4B4B4" />
      <path
        d="M12.154 38.8834H6.49694C6.22113 38.8834 6.00049 38.6612 6.00049 38.3835V36.9889C6.00049 36.7112 6.22113 36.489 6.49694 36.489H12.154V38.8834Z"
        fill="#B4B4B4" />
      <path
        d="M11.7433 37.544H6.84623C6.7114 37.544 6.60107 37.433 6.60107 37.291C6.60107 37.1553 6.7114 37.0442 6.84623 37.0442H11.7433C11.8781 37.0442 11.9946 37.1553 11.9946 37.291C11.9885 37.433 11.8781 37.544 11.7433 37.544Z"
        fill="#969696" />
      <path
        d="M11.7433 38.3277H6.84623C6.7114 38.3277 6.60107 38.2167 6.60107 38.0747C6.60107 37.939 6.7114 37.8279 6.84623 37.8279H11.7433C11.8781 37.8279 11.9946 37.939 11.9946 38.0747C11.9885 38.2167 11.8781 38.3277 11.7433 38.3277Z"
        fill="#969696" />
      <path d="M35.8486 39.9507L37.4299 37.5687L36.7864 36.7974L35.8486 39.9507Z" fill="#323232" />
      <path
        d="M38.9805 31.1941C39.0357 31.3175 39.0418 31.4594 38.9989 31.5829L36.1918 39.0312L35.8486 39.9445C35.7751 40.1358 35.5912 40.2654 35.3828 40.2654H12.6197C12.4236 40.2654 12.2459 40.1482 12.1662 39.9692L11.7433 39.0312L9.78814 34.693L2.37207 30.0339L4.38851 27.1953H21.8316C21.8316 27.1953 18.8836 28.2567 18.8836 30.9719C18.8836 33.6933 18.8836 32.6566 18.8836 33.5637C18.8836 34.4709 19.1594 35.9457 21.2432 35.9457H29.1741C30.2896 35.9457 31.3499 35.1991 32.0609 34.4462C32.778 33.6933 33.4154 32.8973 33.0109 30.6449C32.6554 28.664 30.6573 20.4689 30.1854 18.5312C30.1303 18.2967 30.2467 18.0499 30.4735 17.9512L31.9383 17.3217C32.1835 17.2168 32.4654 17.3217 32.5818 17.5686L38.9805 31.1941Z"
        fill="#F4BAB1" />
      <path
        d="M30.2467 18.7844L29.1067 15.2423C29.027 14.9893 29.1496 14.7178 29.3948 14.6252L31.3928 13.823C31.6441 13.7242 31.9322 13.8415 32.0364 14.0945L33.1825 16.8467C33.2867 17.0936 33.1764 17.3774 32.9373 17.4885L30.2467 18.7844Z"
        fill="#F4BAB1" />
      <path
        d="M13.4223 33.7429C13.4223 34.1811 13.2323 34.6007 12.8952 34.8907C12.5581 35.1746 12.1168 35.298 11.6878 35.224L1.99783 33.5825C1.7588 33.5393 1.58105 33.3356 1.58105 33.0888V30.5649C1.58105 30.318 1.7588 30.1144 1.99783 30.0712L11.6878 28.4359C12.1229 28.3618 12.5642 28.4852 12.8952 28.7691C13.2323 29.053 13.4223 29.4726 13.4223 29.9169V33.7429Z"
        fill="#EBD1D1" />
      <path
        d="M36.1917 39.0376L35.8485 39.9509C35.7749 40.1422 35.5911 40.2718 35.3827 40.2718H12.6196C12.4235 40.2718 12.2457 40.1545 12.1661 39.9756L11.7432 39.0376H36.1917Z"
        fill="#EBD1D1" />
      <path
        d="M5.22172 33.2306C5.08688 33.2306 4.97656 33.1195 4.97656 32.9837V30.6758C4.97656 30.54 5.08688 30.429 5.22172 30.429C5.35656 30.429 5.47301 30.54 5.47301 30.6758V32.9837C5.47301 33.1195 5.36269 33.2306 5.22172 33.2306Z"
        fill="#F4BAB1" />
      <path
        d="M4.25959 33.2306C4.12475 33.2306 4.0083 33.1195 4.0083 32.9837V30.6758C4.0083 30.54 4.11862 30.429 4.25959 30.429C4.39443 30.429 4.50475 30.54 4.50475 30.6758V32.9837C4.51088 33.1195 4.40056 33.2306 4.25959 33.2306Z"
        fill="#F4BAB1" />
      <path
        d="M3.29719 33.2306C3.16235 33.2306 3.0459 33.1195 3.0459 32.9837V30.6758C3.0459 30.54 3.15622 30.429 3.29719 30.429C3.43202 30.429 3.54235 30.54 3.54235 30.6758V32.9837C3.54848 33.1195 3.43815 33.2306 3.29719 33.2306Z"
        fill="#F4BAB1" />
      <path
        d="M22.8857 16.4332L20.3238 16.9454L17.5841 11.626L17.3512 11.1755C17.3083 11.0336 17.296 10.8793 17.3144 10.7189L17.3635 10.6942L19.2267 9.72534H19.2328C19.4228 9.82408 19.576 9.97835 19.6925 10.1573L19.7292 10.2252L19.7721 10.3116L19.8028 10.3733L22.8857 16.4332Z"
        fill="#EBD1D1" />
      <path
        d="M19.8763 11.0521C19.7599 11.7495 19.098 12.2246 18.3931 12.1074C18.0622 12.0518 17.7802 11.8729 17.5841 11.6322C17.4799 11.5026 17.4002 11.3484 17.3512 11.1817C17.3083 11.0398 17.296 10.8855 17.3144 10.7251C17.3144 10.7127 17.3144 10.7004 17.3144 10.6942C17.3144 10.6757 17.3206 10.6572 17.3206 10.6387C17.437 9.94137 18.0989 9.46621 18.8038 9.58345C18.9509 9.60814 19.0857 9.65751 19.2083 9.72539C19.2144 9.72539 19.2144 9.73156 19.2205 9.73156C19.4105 9.83029 19.5638 9.9784 19.6802 10.1574C19.6925 10.182 19.7109 10.2006 19.7231 10.2252L19.766 10.3116C19.7783 10.3301 19.7844 10.3487 19.7905 10.3733C19.8825 10.577 19.9131 10.8115 19.8763 11.0521Z"
        fill="#EBD1D1" />
      <path
        d="M28.5242 17.6427C27.5191 17.6798 26.6855 17.1676 26.661 16.4949C26.6365 15.8223 27.8868 15.162 28.8858 15.0386C30.6877 14.8164 30.5774 15.9642 30.6019 16.643C30.6265 17.3157 29.5294 17.5995 28.5242 17.6427Z"
        fill="#F0CDAF" />
      <path d="M27.0532 15.3101L27.2187 17.6674L21.6168 18.124L21.5371 15.6865L27.0532 15.3101Z"
        fill="#EBD1D1" />
      <path d="M27.4387 15.3998L27.0596 15.4263L27.207 17.5625L27.586 17.5359L27.4387 15.3998Z"
        fill="#F0F0F0" />
      <path
        d="M20.3237 16.9454C20.716 17.8464 21.1328 18.1673 21.6169 18.1241C22.1011 18.0871 22.0644 16.9269 22.0644 16.9269L21.5373 15.8408L20.3237 16.9454Z"
        fill="#EBD1D1" />
      <path
        d="M30.6019 16.6368C30.6019 17.2786 30.0809 17.8031 29.4435 17.8031C28.8061 17.8031 28.2852 17.2786 28.2852 16.6368C28.2852 15.995 28.8061 15.4705 29.4435 15.4705C30.0871 15.4705 30.6019 15.995 30.6019 16.6368Z"
        fill="#646464" />
      <path
        d="M30.0874 16.6369C30.0874 16.9948 29.7993 17.2849 29.4438 17.2849C29.0884 17.2849 28.8003 16.9948 28.8003 16.6369C28.8003 16.279 29.0884 15.9951 29.4438 15.9951C29.7993 15.9951 30.0874 16.2852 30.0874 16.6369Z"
        fill="#787878" />
      <path d="M13.4165 23.3633H0.496582V25.1097H13.4165V23.3633Z" fill="#F0F0F0" />
      <path d="M12.9138 21.6169H0V23.3633H12.9138V21.6169Z" fill="#E6E6E6" />
      <path d="M13.3244 18.124H0.410645V19.8704H13.3244V18.124Z" fill="#E6E6E6" />
      <path d="M7.29332 18.1301H6.79688V25.1095H7.29332V18.1301Z" fill="#EBD1D1" />
      <path
        d="M6.7417 18.4757L6.86428 18.1116C6.94396 17.8771 7.34847 16.7108 7.61202 16.4516C7.91846 16.1431 8.44556 16.1431 8.75201 16.4516C9.06459 16.7663 9.06459 17.2847 8.75201 17.5994C8.49459 17.8586 7.33008 18.2721 7.10331 18.3523L6.7417 18.4757ZM8.18201 16.5874C8.06556 16.5874 7.95524 16.6306 7.87556 16.717C7.75911 16.8342 7.53234 17.3773 7.34847 17.8648C7.83266 17.6797 8.37201 17.4513 8.48846 17.3341C8.66007 17.1613 8.66007 16.8836 8.48846 16.717C8.40878 16.6306 8.29846 16.5874 8.18201 16.5874Z"
        fill="#EBD1D1" />
      <path
        d="M7.3424 18.4757L6.98079 18.3523C6.74789 18.2721 5.58951 17.8586 5.33209 17.5994C5.01951 17.2847 5.01951 16.7663 5.33209 16.4516C5.63854 16.1431 6.16563 16.1431 6.47208 16.4516C6.7295 16.7108 7.14014 17.8833 7.21982 18.1116L7.3424 18.4757ZM5.90209 16.5874C5.78564 16.5874 5.67531 16.6306 5.59564 16.717C5.42403 16.8898 5.42403 17.1675 5.59564 17.3341C5.71209 17.4513 6.25144 17.6797 6.73563 17.8648C6.55176 17.3773 6.32499 16.8342 6.20854 16.717C6.12886 16.6306 6.01854 16.5874 5.90209 16.5874Z"
        fill="#EBD1D1" />
    </g>
  </g>
  <g clip-path="url(#clip2_2401_8982)">
    <path
      d="M18.3331 62.9919L18.9845 62.3411L21.7968 65.1507L24.6093 62.3411L25.2607 62.9919L22.4485 65.8012L25.2607 68.6108L24.6093 69.2616L21.797 66.4523L18.9848 69.2616L18.3333 68.6108L21.1456 65.8012L18.3331 62.9919Z"
      fill="#EA5B44" />
    <path
      d="M21.8 60.5128C21.6582 60.5128 21.5433 60.398 21.5433 60.2564C21.5433 60.1148 21.6582 60 21.8 60C21.9417 60 22.0566 60.1148 22.0566 60.2564C22.0566 60.398 21.9417 60.5128 21.8 60.5128Z"
      fill="#828282" />
    <path
      d="M21.8 71.6002C21.6582 71.6002 21.5433 71.4854 21.5433 71.3438C21.5433 71.2022 21.6582 71.0874 21.8 71.0874C21.9417 71.0874 22.0566 71.2022 22.0566 71.3438C22.0566 71.4854 21.9417 71.6002 21.8 71.6002Z"
      fill="#828282" />
    <path
      d="M27.3434 66.0565C27.2017 66.0565 27.0867 65.9417 27.0867 65.8001C27.0867 65.6585 27.2017 65.5437 27.3434 65.5437C27.4852 65.5437 27.6001 65.6585 27.6001 65.8001C27.6001 65.9417 27.4852 66.0565 27.3434 66.0565Z"
      fill="#828282" />
    <path
      d="M16.2565 66.0565C16.1147 66.0565 15.9998 65.9417 15.9998 65.8001C15.9998 65.6585 16.1147 65.5437 16.2565 65.5437C16.3983 65.5437 16.5132 65.6585 16.5132 65.8001C16.5132 65.9417 16.3983 66.0565 16.2565 66.0565Z"
      fill="#828282" />
    <path
      d="M17.8761 62.1364C17.7344 62.1364 17.6195 62.0216 17.6195 61.8799C17.6195 61.7383 17.7344 61.6235 17.8761 61.6235C18.0179 61.6235 18.1328 61.7383 18.1328 61.8799C18.1328 62.0216 18.0179 62.1364 17.8761 62.1364Z"
      fill="#828282" />
    <path
      d="M25.7243 69.9764C25.5825 69.9764 25.4676 69.8616 25.4676 69.72C25.4676 69.5784 25.5825 69.4636 25.7243 69.4636C25.866 69.4636 25.981 69.5784 25.981 69.72C25.981 69.8616 25.866 69.9764 25.7243 69.9764Z"
      fill="#828282" />
    <path
      d="M25.7199 62.1405C25.5781 62.1405 25.4632 62.0257 25.4632 61.8841C25.4632 61.7425 25.5781 61.6277 25.7199 61.6277C25.8616 61.6277 25.9766 61.7425 25.9766 61.8841C25.9766 62.0257 25.8616 62.1405 25.7199 62.1405Z"
      fill="#828282" />
    <path
      d="M17.88 69.9723C17.7383 69.9723 17.6234 69.8575 17.6234 69.7159C17.6234 69.5743 17.7383 69.4595 17.88 69.4595C18.0218 69.4595 18.1367 69.5743 18.1367 69.7159C18.1367 69.8575 18.0218 69.9723 17.88 69.9723Z"
      fill="#828282" />
    <path
      d="M26.6061 63.2848C26.4644 63.2848 26.3494 63.17 26.3494 63.0284C26.3494 62.8868 26.4644 62.772 26.6061 62.772C26.7479 62.772 26.8628 62.8868 26.8628 63.0284C26.8628 63.17 26.7479 63.2848 26.6061 63.2848Z"
      fill="#828282" />
    <path
      d="M16.9943 68.8285C16.8525 68.8285 16.7376 68.7137 16.7376 68.5721C16.7376 68.4305 16.8525 68.3157 16.9943 68.3157C17.1361 68.3157 17.251 68.4305 17.251 68.5721C17.251 68.7137 17.1361 68.8285 16.9943 68.8285Z"
      fill="#828282" />
    <path
      d="M24.5719 70.8524C24.4302 70.8524 24.3153 70.7376 24.3153 70.596C24.3153 70.4544 24.4302 70.3396 24.5719 70.3396C24.7137 70.3396 24.8286 70.4544 24.8286 70.596C24.8286 70.7376 24.7137 70.8524 24.5719 70.8524Z"
      fill="#828282" />
    <path
      d="M19.0285 61.2606C18.8867 61.2606 18.7718 61.1458 18.7718 61.0042C18.7718 60.8626 18.8867 60.7478 19.0285 60.7478C19.1702 60.7478 19.2852 60.8626 19.2852 61.0042C19.2852 61.1458 19.1702 61.2606 19.0285 61.2606Z"
      fill="#828282" />
    <path
      d="M23.2365 60.7015C23.0947 60.7015 22.9798 60.5867 22.9798 60.4451C22.9798 60.3035 23.0947 60.1887 23.2365 60.1887C23.3782 60.1887 23.4932 60.3035 23.4932 60.4451C23.4932 60.5867 23.3782 60.7015 23.2365 60.7015Z"
      fill="#828282" />
    <path
      d="M20.3639 71.4113C20.2222 71.4113 20.1073 71.2965 20.1073 71.1549C20.1073 71.0132 20.2222 70.8984 20.3639 70.8984C20.5057 70.8984 20.6206 71.0132 20.6206 71.1549C20.6206 71.2965 20.5057 71.4113 20.3639 71.4113Z"
      fill="#828282" />
    <path
      d="M27.1549 67.4896C27.0132 67.4896 26.8983 67.3748 26.8983 67.2332C26.8983 67.0916 27.0132 66.9768 27.1549 66.9768C27.2967 66.9768 27.4116 67.0916 27.4116 67.2332C27.4116 67.3748 27.2967 67.4896 27.1549 67.4896Z"
      fill="#828282" />
    <path
      d="M16.4455 64.6232C16.3037 64.6232 16.1888 64.5084 16.1888 64.3668C16.1888 64.2252 16.3037 64.1104 16.4455 64.1104C16.5872 64.1104 16.7021 64.2252 16.7021 64.3668C16.7021 64.5084 16.5872 64.6232 16.4455 64.6232Z"
      fill="#828282" />
    <path
      d="M16.9943 63.2848C16.8525 63.2848 16.7376 63.17 16.7376 63.0284C16.7376 62.8868 16.8525 62.772 16.9943 62.772C17.1361 62.772 17.251 62.8868 17.251 63.0284C17.251 63.17 17.1361 63.2848 16.9943 63.2848Z"
      fill="#828282" />
    <path
      d="M26.6061 68.8285C26.4644 68.8285 26.3494 68.7137 26.3494 68.5721C26.3494 68.4305 26.4644 68.3157 26.6061 68.3157C26.7479 68.3157 26.8628 68.4305 26.8628 68.5721C26.8628 68.7137 26.7479 68.8285 26.6061 68.8285Z"
      fill="#828282" />
    <path
      d="M19.0285 70.8524C18.8867 70.8524 18.7718 70.7376 18.7718 70.596C18.7718 70.4544 18.8867 70.3396 19.0285 70.3396C19.1702 70.3396 19.2852 70.4544 19.2852 70.596C19.2852 70.7376 19.1702 70.8524 19.0285 70.8524Z"
      fill="#828282" />
    <path
      d="M24.5719 61.2606C24.4302 61.2606 24.3153 61.1458 24.3153 61.0042C24.3153 60.8626 24.4302 60.7478 24.5719 60.7478C24.7137 60.7478 24.8286 60.8626 24.8286 61.0042C24.8286 61.1458 24.7137 61.2606 24.5719 61.2606Z"
      fill="#828282" />
    <path
      d="M20.3639 60.7015C20.2222 60.7015 20.1073 60.5867 20.1073 60.4451C20.1073 60.3035 20.2222 60.1887 20.3639 60.1887C20.5057 60.1887 20.6206 60.3035 20.6206 60.4451C20.6206 60.5867 20.5057 60.7015 20.3639 60.7015Z"
      fill="#828282" />
    <path
      d="M23.2365 71.4113C23.0947 71.4113 22.9798 71.2965 22.9798 71.1549C22.9798 71.0132 23.0947 70.8984 23.2365 70.8984C23.3782 70.8984 23.4932 71.0132 23.4932 71.1549C23.4932 71.2965 23.3782 71.4113 23.2365 71.4113Z"
      fill="#828282" />
    <path
      d="M16.4455 67.4896C16.3037 67.4896 16.1888 67.3748 16.1888 67.2332C16.1888 67.0916 16.3037 66.9768 16.4455 66.9768C16.5872 66.9768 16.7021 67.0916 16.7021 67.2332C16.7021 67.3748 16.5872 67.4896 16.4455 67.4896Z"
      fill="#828282" />
    <path
      d="M27.1549 64.6232C27.0132 64.6232 26.8983 64.5084 26.8983 64.3668C26.8983 64.2252 27.0132 64.1104 27.1549 64.1104C27.2967 64.1104 27.4116 64.2252 27.4116 64.3668C27.4116 64.5084 27.2967 64.6232 27.1549 64.6232Z"
      fill="#828282" />
  </g>
  <defs>
    <clipPath id="clip0_2401_8982">
      <rect width="44" height="41" fill="white" />
    </clipPath>
    <clipPath id="clip1_2401_8982">
      <rect width="44" height="41" fill="white" />
    </clipPath>
    <clipPath id="clip2_2401_8982">
      <rect width="11.6" height="11.6" fill="white" transform="matrix(-1 0 0 1 27.6001 60)" />
    </clipPath>
  </defs>
</svg>