<svg width="16" height="13" viewBox="0 0 16 13" fill="none" xmlns="http://www.w3.org/2000/svg">
    <path d="M1.92279 2.25H11.9872V2.75H1.92279V2.25Z" fill="#F44336" />
    <path d="M1.92279 3.25H13.329V3.75H1.92279V3.25Z" fill="#F44336" />
    <path d="M1.92279 5.75H11.9872V6.25H1.92279V5.75Z" fill="#F44336" />
    <path d="M1.92279 6.75H13.329V7.25H1.92279V6.75Z" fill="#F44336" />
    <path d="M1.92279 9.25H11.9872V9.75H1.92279V9.25Z" fill="#F44336" />
    <path d="M1.92279 10.25H13.329V10.75H1.92279V10.25Z" fill="#F44336" />
    <path d="M1.70938 13H14.29C15.2344 13 16 12.2344 16 11.2906V1.70938C16 0.765625 15.2344 0 14.2906 0H1.70938C0.765625 0 0 0.765625 0 1.70938V11.29C0 12.2344 0.765625 13 1.70938 13ZM0.5 1.70938C0.5 1.0425 1.0425 0.5 1.70938 0.5H14.29C14.9575 0.5 15.5 1.0425 15.5 1.70938V11.29C15.5 11.9575 14.9575 12.5 14.2906 12.5H1.70938C1.0425 12.5 0.5 11.9575 0.5 11.2906V1.70938Z" fill="#F44336" />
</svg>
