<?xml version="1.0" encoding="utf-8"?>
<!-- Generator: Adobe Illustrator 24.0.2, SVG Export Plug-In . SVG Version: 6.00 Build 0)  -->
<svg version="1.1" id="Layer_1" xmlns="http://www.w3.org/2000/svg" xmlns:xlink="http://www.w3.org/1999/xlink" x="0px" y="0px"
	 viewBox="0 0 534 233" style="enable-background:new 0 0 534 233;" xml:space="preserve">
<style type="text/css">
	.st0{fill:#E0DFDF;}
</style>
<g>
	<path class="st0" d="M472.1,229h-415C27.8,229,4,201.5,4,167.7V51.8C4,25.2,22.9,3.7,46,4l100,1.5c15.6,0.2,30.9,5.5,44,15.2
		l38.4,28.4c4,2.9,8.6,4.6,13.3,4.7c1.9,0.1,3.7,0,5.6-0.2c4.1-0.4,8.3-0.5,12.5-0.4L485,55.1c11.7,0.1,23,5,31.6,14.1
		c8.1,8.6,12.6,19.6,12.6,37.9L530,159C530,197.8,505.7,229,472.1,229z"/>
</g>
</svg>
