<svg width="534" height="233" viewBox="0 0 534 233" fill="none" xmlns="http://www.w3.org/2000/svg">
  <g filter="url(#filter0_d_548_23253)">
    <path
      d="M472.1 231H57.1236C27.7857 231 4 203.542 4 169.674V53.832C4 27.1672 22.8862 5.65045 45.9847 6.0043L146.022 7.53387C161.635 7.77358 176.878 13.0529 190.024 22.7725L228.39 51.1495C232.374 54.0945 236.977 55.7497 241.709 55.8923C243.568 55.9494 245.432 55.8924 247.291 55.7211C251.434 55.3387 255.592 55.2532 259.75 55.2817L485.039 57.0966C496.717 57.1937 508.068 62.0792 516.641 71.2224C524.71 79.8291 529.248 90.7929 529.248 109.108L530 161.016C530 199.786 505.675 231 472.1 231Z"
      fill="#E0DFDF" />
  </g>
  <defs>
    <filter id="filter0_d_548_23253" x="0" y="0" width="534" height="233"
      filterUnits="userSpaceOnUse" color-interpolation-filters="sRGB">
      <feFlood flood-opacity="0" result="BackgroundImageFix" />
      <feColorMatrix in="SourceAlpha" type="matrix"
        values="0 0 0 0 0 0 0 0 0 0 0 0 0 0 0 0 0 0 127 0" result="hardAlpha" />
      <feOffset dy="-2" />
      <feGaussianBlur stdDeviation="2" />
      <feComposite in2="hardAlpha" operator="out" />
      <feColorMatrix type="matrix" values="0 0 0 0 0 0 0 0 0 0 0 0 0 0 0 0 0 0 0.15 0" />
      <feBlend mode="normal" in2="BackgroundImageFix" result="effect1_dropShadow_548_23253" />
      <feBlend mode="normal" in="SourceGraphic" in2="effect1_dropShadow_548_23253" result="shape" />
    </filter>
  </defs>
</svg>