<svg
	width="350"
	height="319"
	viewBox="0 0 350 319"
	fill="none"
	xmlns="http://www.w3.org/2000/svg"
>
	<g clip-path="url(#clip0_548_23262)">
		<path
			d="M41.4401 58.8824C89.1995 2.15217 162.711 0.611597 189.448 0.0518458C257.966 -1.38409 344.241 27.1569 349.104 67.0908C353.269 101.299 294.229 115.398 282.638 181.332C276.367 217.004 291.179 226.929 282.638 249.055C260.869 305.448 120.741 354.751 43.4959 283.943C-19.1962 226.475 -8.96871 118.761 41.4401 58.8824Z"
			fill="#F7F7F7"
		/>
		<path
			opacity="0.2"
			d="M329.771 95.0231L193.071 87.2509C190.274 87.0921 187.854 89.2466 187.694 92.0403L177.436 271.858C177.277 274.65 179.435 277.066 182.233 277.226L318.934 284.998C321.732 285.157 324.15 283.002 324.311 280.209L334.569 100.391C334.728 97.5975 332.568 95.182 329.771 95.0231Z"
			fill="#F44336"
		/>
		<path
			d="M325.255 297.787C325.053 297.787 324.849 297.777 324.644 297.755L188.482 283.384C185.312 283.049 183.006 280.203 183.341 277.039L202.308 97.9273C202.47 96.4006 203.223 95.024 204.426 94.052C205.629 93.08 207.133 92.6337 208.665 92.795L344.828 107.166C347.997 107.5 350.303 110.346 349.968 113.511L331.001 292.622C330.685 295.582 328.171 297.787 325.255 297.787ZM208.052 94.1326C207.049 94.1326 206.082 94.4743 205.286 95.1172C204.367 95.8598 203.793 96.9087 203.67 98.0723L184.702 277.184C184.578 278.347 184.921 279.493 185.663 280.411C186.407 281.329 187.458 281.901 188.623 282.025L324.786 296.396C327.203 296.65 329.378 294.894 329.635 292.481L348.602 113.37C348.857 110.955 347.098 108.784 344.68 108.529L208.519 94.1566C208.363 94.1402 208.207 94.1326 208.052 94.1326Z"
			fill="#485B78"
		/>
		<path
			d="M315.5 282.072L178.8 274.3C176.003 274.141 173.843 271.725 174.002 268.932L184.26 89.114C184.419 86.3216 186.839 84.1658 189.637 84.3247L326.338 92.0969C329.135 92.2557 331.294 94.6712 331.135 97.4649L320.877 277.282C320.718 280.075 318.298 282.231 315.5 282.072Z"
			fill="#F44336"
		/>
		<path
			d="M308.062 142.094L202.109 136.07C200.302 135.968 198.908 134.407 199.011 132.603C199.114 130.799 200.677 129.407 202.484 129.511L308.437 135.534C310.245 135.637 311.639 137.197 311.535 139.001C311.432 140.804 309.869 142.196 308.062 142.094Z"
			fill="#D9D9D9"
		/>
		<path
			d="M306.709 165.793L200.755 159.769C198.948 159.667 197.554 158.106 197.658 156.302C197.76 154.498 199.323 153.106 201.13 153.21L307.084 159.233C308.891 159.335 310.285 160.896 310.182 162.7C310.079 164.503 308.516 165.895 306.709 165.793Z"
			fill="#D9D9D9"
		/>
		<path
			d="M305.359 189.49L199.406 183.466C197.599 183.364 196.205 181.803 196.308 179.999C196.41 178.195 197.974 176.803 199.781 176.907L305.734 182.93C307.541 183.033 308.936 184.593 308.832 186.397C308.728 188.201 307.166 189.593 305.359 189.49Z"
			fill="#D9D9D9"
		/>
		<path
			d="M304.008 213.189L198.054 207.165C196.247 207.063 194.853 205.502 194.957 203.698C195.059 201.894 196.622 200.502 198.429 200.606L304.383 206.629C306.19 206.731 307.584 208.292 307.48 210.096C307.377 211.899 305.813 213.291 304.008 213.189Z"
			fill="#D9D9D9"
		/>
		<path
			d="M302.654 236.887L196.701 230.863C194.894 230.761 193.5 229.2 193.603 227.396C193.705 225.592 195.269 224.2 197.076 224.304L303.029 230.327C304.836 230.429 306.23 231.99 306.127 233.794C306.023 235.597 304.461 236.989 302.654 236.887Z"
			fill="#D9D9D9"
		/>
		<path
			d="M301.305 260.585L195.351 254.561C193.544 254.459 192.15 252.898 192.253 251.094C192.356 249.29 193.919 247.898 195.726 248.002L301.68 254.025C303.487 254.127 304.881 255.688 304.777 257.492C304.674 259.296 303.11 260.688 301.305 260.585Z"
			fill="#D9D9D9"
		/>
		<path
			d="M309.414 118.395L203.461 112.371C201.653 112.269 200.259 110.709 200.363 108.905C200.465 107.1 202.028 105.709 203.836 105.812L309.789 111.836C311.596 111.938 312.99 113.499 312.887 115.303C312.784 117.107 311.221 118.498 309.414 118.395Z"
			fill="#D9D9D9"
		/>
		<path
			d="M219.317 204.406L125.134 240.803C118.128 243.511 114.646 251.375 117.359 258.369C120.071 265.364 127.949 268.839 134.955 266.131L223.709 231.833C226.708 230.674 228.198 227.308 227.036 224.314L219.317 204.406Z"
			fill="#C1822F"
		/>
		<path
			opacity="0.2"
			d="M275.448 70.259L139.004 81.6696C136.212 81.9028 134.118 84.3751 134.352 87.1625L149.412 266.643C149.646 269.431 152.122 271.521 154.914 271.288L291.358 259.877C294.15 259.644 296.244 257.172 296.01 254.384L280.951 74.9034C280.716 72.1147 278.241 70.0258 275.448 70.259Z"
			fill="#F44336"
		/>
		<path
			d="M287.393 255.983L150.949 267.393C148.157 267.626 145.681 265.537 145.447 262.749L130.387 83.2679C130.153 80.4805 132.246 78.0083 135.039 77.7751L271.483 66.3645C274.275 66.1312 276.751 68.2202 276.985 71.0089L292.045 250.49C292.279 253.277 290.185 255.749 287.393 255.983Z"
			fill="white"
		/>
		<path
			d="M260.398 118.423L154.643 127.266C152.84 127.418 151.24 126.068 151.09 124.267C150.938 122.467 152.291 120.87 154.094 120.72L259.849 111.876C261.652 111.725 263.252 113.075 263.403 114.875C263.554 116.675 262.202 118.271 260.398 118.423Z"
			fill="#EAEAEE"
		/>
		<path
			d="M262.383 142.076L156.628 150.92C154.824 151.071 153.224 149.721 153.074 147.921C152.923 146.12 154.275 144.523 156.078 144.373L261.833 135.529C263.637 135.378 265.237 136.728 265.387 138.528C265.539 140.329 264.186 141.926 262.383 142.076Z"
			fill="#EAEAEE"
		/>
		<path
			d="M264.369 165.73L158.614 174.574C156.811 174.725 155.211 173.375 155.06 171.575C154.909 169.775 156.261 168.177 158.065 168.027L263.82 159.183C265.623 159.032 267.223 160.382 267.373 162.183C267.524 163.983 266.172 165.579 264.369 165.73Z"
			fill="#EAEAEE"
		/>
		<path
			d="M266.352 189.384L160.596 198.227C158.793 198.379 157.193 197.028 157.043 195.228C156.891 193.428 158.244 191.831 160.047 191.681L265.802 182.837C267.606 182.685 269.205 184.036 269.356 185.836C269.507 187.636 268.156 189.234 266.352 189.384Z"
			fill="#EAEAEE"
		/>
		<path
			d="M268.338 213.038L162.583 221.882C160.779 222.033 159.179 220.683 159.029 218.882C158.878 217.082 160.23 215.485 162.033 215.335L267.789 206.491C269.592 206.34 271.192 207.69 271.342 209.49C271.494 211.291 270.141 212.887 268.338 213.038Z"
			fill="#EAEAEE"
		/>
		<path
			d="M270.322 236.691L164.567 245.535C162.764 245.686 161.164 244.336 161.014 242.536C160.862 240.736 162.214 239.138 164.018 238.988L269.773 230.144C271.576 229.993 273.176 231.343 273.326 233.144C273.478 234.944 272.126 236.541 270.322 236.691Z"
			fill="#EAEAEE"
		/>
		<path
			d="M258.412 94.7691L152.657 103.613C150.854 103.764 149.254 102.414 149.103 100.614C148.952 98.8134 150.304 97.2161 152.108 97.0661L257.863 88.221C259.666 88.0698 261.265 89.42 261.416 91.2202C261.568 93.0218 260.217 94.6178 258.412 94.7691Z"
			fill="#485B78"
		/>
		<path
			opacity="0.2"
			d="M210.531 34.7625L232.673 91.8709C234.256 95.9518 232.224 100.541 228.137 102.119L215.554 106.982L249.956 195.711C251.421 199.489 249.538 203.738 245.754 205.2L143.921 244.553L142.998 233.899L63.5872 97.6147C62.2322 94.1188 62.4217 90.4035 63.8297 87.2227C65.2377 84.042 67.8606 81.3996 71.3623 80.0468L200.265 30.2341C204.352 28.6544 208.949 30.6829 210.531 34.7625Z"
			fill="#F44336"
		/>
		<path
			d="M238.803 189.011L204.398 100.284L216.981 95.4175C221.068 93.8416 223.101 89.2514 221.519 85.1705L199.373 28.0633C197.795 23.9824 193.197 21.9565 189.109 23.5361L60.2054 73.3502C56.7037 74.7016 54.0846 77.3428 52.6753 80.5223C51.266 83.7068 51.0791 87.4196 52.4329 90.9155L65.0761 123.53L81.2565 165.251L112.452 245.704H112.45L117.361 258.369C116.005 254.871 116.196 251.159 117.604 247.979C119.004 244.819 121.604 242.188 125.075 240.828L234.602 198.501C238.381 197.036 240.266 192.79 238.803 189.011Z"
			fill="#F9C067"
		/>
		<path
			d="M60.7444 271.44C56.1945 270.015 53.6537 265.16 55.0807 260.617L66.4978 224.292C68.5776 217.673 75.6632 213.978 82.293 216.054C88.9227 218.13 92.624 225.204 90.5442 231.823L87.4856 241.553C87.3619 241.945 86.9439 242.163 86.5512 242.041C86.1584 241.917 85.94 241.5 86.0625 241.108L89.121 231.378C90.9546 225.543 87.6915 219.305 81.8459 217.475C76.0017 215.644 69.7533 218.902 67.9197 224.738L56.5026 261.064C55.3207 264.823 57.4232 268.842 61.1889 270.021C64.9546 271.201 68.9804 269.102 70.1612 265.342L81.8901 228.022C82.4193 226.338 81.4772 224.537 79.7914 224.009C78.1042 223.481 76.3009 224.421 75.7718 226.104L66.0166 257.143C65.8929 257.535 65.4749 257.753 65.0822 257.631C64.6894 257.507 64.471 257.09 64.5935 256.698L74.3486 225.659C75.124 223.192 77.7658 221.814 80.2371 222.588C82.7084 223.362 84.0887 226 83.3133 228.467L71.5844 265.787C70.1586 270.33 65.2956 272.866 60.7444 271.44Z"
			fill="#485B78"
		/>
		<path
			d="M126.396 145.989C124.329 147.957 121.85 149.566 119.016 150.66L81.2546 165.251L65.0742 123.53L102.84 108.935C108.613 106.703 114.739 107.025 119.985 109.335C122.085 110.262 124.045 111.505 125.776 113.042C128.381 115.333 130.488 118.266 131.825 121.721C135.198 130.416 132.757 139.93 126.396 145.989Z"
			fill="#E5A755"
		/>
		<path
			d="M133.324 114.33C136.696 123.027 134.255 132.541 127.894 138.599C125.827 140.568 123.346 142.173 120.516 143.267L76.7727 160.172C73.6536 161.377 72.1054 164.881 73.3126 167.995L71.1255 162.354L36.8743 175.59L26.7832 149.564C28.9666 147.319 31.6539 145.499 34.7679 144.296L60.2981 134.43L57.1348 126.272C55.9276 123.158 57.4745 119.654 60.5949 118.449L104.339 101.544C110.111 99.3141 116.239 99.6318 121.484 101.945C123.584 102.872 125.542 104.116 127.275 105.649C129.878 107.941 131.984 110.875 133.324 114.33Z"
			fill="#F44336"
		/>
		<path
			d="M60.2975 134.43L74.2882 170.512C75.4954 173.627 73.9459 177.13 70.8255 178.336L50.9451 186.019C47.8323 187.221 44.6159 187.683 41.488 187.49C33.0221 186.969 25.2217 181.647 21.9599 173.233C19.726 167.47 20.0442 161.352 22.3615 156.116C23.4285 153.706 24.9199 151.482 26.7838 149.564C28.9672 147.319 31.6545 145.499 34.7686 144.296L60.2975 134.43Z"
			fill="#485B78"
		/>
		<path
			d="M99.2104 125.22L95.1795 114.825L84.4355 118.976L88.4664 129.373L84.6098 130.863L99.5791 142.102L103.067 123.73L99.2104 125.22Z"
			fill="white"
		/>
		<path
			d="M76.4998 128.054C76.2169 128.054 75.9492 127.883 75.8418 127.604L72.7454 119.619C72.604 119.256 72.7846 118.847 73.1483 118.707L81.1052 115.633C81.4702 115.493 81.8781 115.672 82.0182 116.035C82.1597 116.398 81.9791 116.806 81.6154 116.946L74.3164 119.766L77.1577 127.095C77.2991 127.458 77.1185 127.866 76.7549 128.006C76.6703 128.039 76.5844 128.054 76.4998 128.054Z"
			fill="white"
		/>
		<path
			d="M108.437 143.261C108.154 143.261 107.886 143.09 107.779 142.811C107.637 142.448 107.818 142.039 108.181 141.899L115.071 139.237L112.132 131.654C111.99 131.291 112.171 130.882 112.534 130.742C112.898 130.601 113.307 130.783 113.447 131.144L116.642 139.384C116.71 139.558 116.705 139.752 116.63 139.923C116.554 140.094 116.414 140.228 116.239 140.295L108.69 143.212C108.607 143.246 108.521 143.261 108.437 143.261Z"
			fill="white"
		/>
		<path
			d="M162.06 181.055L178.959 190.532L188.753 173.127L171.856 163.649L175.371 157.401L142.891 158.853L158.544 187.302L162.06 181.055Z"
			fill="#E5A755"
		/>
		<path
			d="M162.06 170.287L178.959 179.765L188.753 162.358L171.856 152.88L175.371 146.633L142.891 148.084L158.544 176.533L162.06 170.287Z"
			fill="white"
		/>
		<path
			d="M262.102 39.4947C265.128 36.4733 265.128 31.5746 262.102 28.5532C259.075 25.5317 254.169 25.5317 251.142 28.5532C248.116 31.5746 248.116 36.4733 251.142 39.4947C254.169 42.5161 259.075 42.5161 262.102 39.4947Z"
			fill="#F44336"
		/>
		<path
			d="M13.2288 75.712C16.2553 72.6906 16.2553 67.7919 13.2288 64.7704C10.2023 61.749 5.29546 61.749 2.26898 64.7704C-0.757493 67.7919 -0.757496 72.6906 2.26898 75.712C5.29546 78.7334 10.2024 78.7334 13.2288 75.712Z"
			fill="#F44336"
		/>
		<path
			d="M126.721 304.769C129.404 304.769 131.579 302.598 131.579 299.919C131.579 297.241 129.404 295.069 126.721 295.069C124.038 295.069 121.863 297.241 121.863 299.919C121.863 302.598 124.038 304.769 126.721 304.769Z"
			fill="#F44336"
		/>
	</g>
	<defs>
		<clipPath id="clip0_548_23262">
			<rect width="350" height="319" fill="white" />
		</clipPath>
	</defs>
</svg>
