<svg width="14" height="13" viewBox="0 0 14 13" fill="none" xmlns="http://www.w3.org/2000/svg">
    <g clip-path="url(#clip0_244_9252)">
        <path d="M9.14062 12.1875H1.17188C0.525 12.1866 0.000878906 11.6625 0 11.0156V3.51562C0 3.38613 0.104883 3.28125 0.234375 3.28125H3.75C3.81211 3.28125 3.87188 3.30586 3.91582 3.3498L5.01885 4.45312H9.14062C9.7875 4.454 10.3116 4.97812 10.3125 5.625V11.0156C10.3116 11.6625 9.7875 12.1866 9.14062 12.1875ZM0.46875 3.75V11.0156C0.46875 11.4038 0.783691 11.7188 1.17188 11.7188H9.14062C9.52881 11.7188 9.84375 11.4038 9.84375 11.0156V5.625C9.84375 5.23682 9.52881 4.92188 9.14062 4.92188H4.92188C4.85977 4.92188 4.8 4.89727 4.75605 4.85332L3.65303 3.75H0.46875Z" fill="#F44336" />
        <path d="M12.4219 11.25H10.0781V10.7812H12.1875V2.10938H5.625V4.6875H5.15625V1.875C5.15625 1.74551 5.26113 1.64062 5.39062 1.64062H12.4219C12.5514 1.64062 12.6562 1.74551 12.6562 1.875V11.0156C12.6562 11.1451 12.5514 11.25 12.4219 11.25Z" fill="#F44336" />
        <path d="M14.7656 9.60938H12.4219V9.14062H14.5312V0.46875H7.96875V1.875H7.5V0.234375C7.5 0.104883 7.60488 0 7.73438 0H14.7656C14.8951 0 15 0.104883 15 0.234375V9.375C15 9.50449 14.8951 9.60938 14.7656 9.60938Z" fill="#F44336" />
        <path d="M6.09375 2.57812H6.5625V3.04688H6.09375V2.57812Z" fill="#F44336" />
        <path d="M7.03125 2.57812H8.90625V3.04688H7.03125V2.57812Z" fill="#F44336" />
        <path d="M6.09375 3.51562H11.7188V3.98438H6.09375V3.51562Z" fill="#F44336" />
        <path d="M5.39062 11.25H1.17188C1.04238 11.25 0.9375 11.1451 0.9375 11.0156V9.60938C0.9375 9.47988 1.04238 9.375 1.17188 9.375H5.39062C5.52012 9.375 5.625 9.47988 5.625 9.60938V11.0156C5.625 11.1451 5.52012 11.25 5.39062 11.25ZM1.40625 10.7812H5.15625V9.84375H1.40625V10.7812Z" fill="#F44336" />
        <path d="M1.875 10.0781H2.34375V10.5469H1.875V10.0781Z" fill="#F44336" />
        <path d="M2.8125 10.0781H4.6875V10.5469H2.8125V10.0781Z" fill="#F44336" />
        <path d="M5.2248 3.91582L4.12178 2.8125H1.40625V3.51562H0.9375V2.57812C0.9375 2.44863 1.04238 2.34375 1.17187 2.34375H4.21875C4.28086 2.34375 4.34062 2.36836 4.38457 2.4123L5.55645 3.58418L5.2248 3.91582Z" fill="#F44336" />
    </g>
    <defs>
        <clipPath id="clip0_244_9252">
            <rect width="15" height="12.1875" fill="white" />
        </clipPath>
    </defs>
</svg>
