<svg width="17" height="16" viewBox="0 0 17 16" fill="none" xmlns="http://www.w3.org/2000/svg">
  <g clip-path="url(#clip0_544_16186)">
    <path
      d="M8.34827 11.2586C8.13957 11.2586 7.93088 11.1572 7.80044 11.005L5.53088 8.1651C5.34827 7.93689 5.32218 7.65797 5.45262 7.4044C5.58305 7.15084 5.81783 6.9987 6.10479 6.9987H6.65262L6.6787 5.52801C6.6787 5.40123 6.78305 5.2998 6.93957 5.2998H9.78305C9.91348 5.2998 10.0439 5.40123 10.0439 5.52801L10.0961 6.9987H10.6439C10.9048 6.9987 11.1657 7.15084 11.2961 7.4044C11.4265 7.65797 11.4004 7.96225 11.2178 8.1651L8.94827 11.005C8.76566 11.1572 8.55696 11.2586 8.34827 11.2586ZM6.0787 7.48047C5.97435 7.48047 5.92218 7.55654 5.89609 7.60725C5.87001 7.68332 5.84392 7.78475 5.92218 7.86082L8.19175 10.7008C8.24392 10.7768 8.32218 10.7768 8.34827 10.7768C8.37435 10.7768 8.45261 10.7768 8.50479 10.7008L10.7744 7.86082C10.8526 7.75939 10.8265 7.65797 10.8004 7.60725C10.7744 7.5819 10.7222 7.48047 10.6178 7.48047H9.80914C9.6787 7.48047 9.54827 7.37904 9.54827 7.25226L9.49609 5.78158H7.14827L7.12218 7.25226C7.12218 7.37904 7.01783 7.48047 6.86131 7.48047H6.0787Z"
      fill="#485B78" />
    <path
      d="M9.756 4.81822H6.9386C6.86034 4.81822 6.80817 4.79287 6.756 4.74216C6.70382 4.69144 6.67773 4.64073 6.67773 4.56466L6.72991 2.76434C6.72991 2.63756 6.83426 2.53613 6.99078 2.53613H9.72991C9.86034 2.53613 9.99078 2.63756 9.99078 2.76434L10.043 4.56466C10.043 4.64073 10.0169 4.69144 9.96469 4.74216C9.91252 4.79287 9.83426 4.81822 9.756 4.81822ZM7.19947 4.31109H9.52121L9.49513 3.01791H7.25165L7.19947 4.31109Z"
      fill="#485B78" />
    <path
      d="M9.70438 2.05388H6.99134C6.91308 2.05388 6.8609 2.02853 6.80873 1.97781C6.75656 1.9271 6.73047 1.87639 6.73047 1.80032L6.78264 0.228209C6.78264 0.101426 6.88699 0 7.04351 0H9.67829C9.80873 0 9.93916 0.101426 9.93916 0.228209L9.99134 1.77496C9.99134 1.85103 9.96525 1.90174 9.91308 1.95246C9.8609 2.02853 9.78264 2.05388 9.70438 2.05388ZM7.25221 1.54675H9.4696L9.44351 0.481775H7.27829L7.25221 1.54675Z"
      fill="#485B78" />
    <path
      d="M16.4348 15.9995H0.26087C0.130435 15.9995 0 15.8981 0 15.746V11.5368C0 11.41 0.104348 11.2832 0.26087 11.2832H2.92174C3.05217 11.2832 3.18261 11.3846 3.18261 11.5368V13.0328H13.5652V11.5368C13.5652 11.41 13.6696 11.2832 13.8261 11.2832H16.4348C16.5652 11.2832 16.6957 11.3846 16.6957 11.5368V15.746C16.6957 15.8727 16.5913 15.9995 16.4348 15.9995ZM0.495652 15.4924H16.1739V11.765H14.0348V13.261C14.0348 13.3878 13.9304 13.5146 13.7739 13.5146H2.89565C2.76522 13.5146 2.63478 13.4132 2.63478 13.261V11.765H0.495652V15.4924Z"
      fill="#485B78" />
  </g>
  <defs>
    <clipPath id="clip0_544_16186">
      <rect width="16.6957" height="16" fill="white" />
    </clipPath>
  </defs>
</svg>