<svg width="390" height="321" viewBox="0 0 390 321" fill="none" xmlns="http://www.w3.org/2000/svg">
  <g clip-path="url(#clip0_87_40894)">
    <path d="M395 118.202H0V321.073H395V118.202Z" fill="#FFD7D4" />
    <path
      d="M352.261 118.494V50.1882H317.027V15.5605H301.701V0H271.681V15.5605H256.355V66.9907H234.393V40.3259H217.329V11.5426H181.068V40.3259H150.969V23.8887L95.669 15.5605V71.5931H81.291V15.5605H69.441V0H40.211V15.5605H28.914V101.838H0V236.33H28.914H40.211H61.225H81.291H95.669H143.543H150.969H152.075H230.68H234.393H256.355H273.735H313.867H317.027H348.074H352.261H395V118.494H352.261Z"
      fill="#F48981" />
    <path
      d="M316.304 246.938H343.305C343.305 246.938 340.369 235.279 329.833 235.279C319.298 235.279 316.765 244.33 316.304 246.938Z"
      fill="#E0DFDF" />
    <path opacity="0.2"
      d="M316.304 246.938H343.305C343.305 246.938 340.369 235.279 329.833 235.279C319.298 235.279 316.765 244.33 316.304 246.938Z"
      fill="#485B78" />
    <path
      d="M249.753 245.66H276.753C276.753 245.66 273.817 234.001 263.282 234.001C252.689 234.001 250.213 243.052 249.753 245.66Z"
      fill="#E0DFDF" />
    <path opacity="0.2"
      d="M249.753 245.66H276.753C276.753 245.66 273.817 234.001 263.282 234.001C252.689 234.001 250.213 243.052 249.753 245.66Z"
      fill="#485B78" />
    <path
      d="M251.595 224.312C251.019 225.164 248.544 234.587 248.486 234.96C248.429 235.279 247.565 236.717 247.565 236.983C247.565 237.249 247.335 241.455 247.45 241.774C247.565 242.04 248.256 243.052 248.371 243.212C248.544 243.371 249.004 246.406 249.407 246.459C249.81 246.512 250.559 246.512 250.674 246.459C250.731 246.406 251.192 235.119 263.224 235.119C275.256 235.119 275.084 247.098 275.314 247.098C275.544 247.151 317.513 248.269 317.513 248.269C317.513 246.459 317.686 235.545 329.43 235.545C337.087 235.545 341.002 241.401 341.117 245.714C341.175 247.524 340.829 249.494 340.944 249.494C341.29 249.494 342.499 249.6 342.729 249.494C342.959 249.387 345.435 247.896 345.665 247.843C345.895 247.79 346.471 247.737 346.817 247.684C347.162 247.577 349.637 245.607 349.695 245.501C349.753 245.394 349.81 244.649 349.81 244.542C349.81 244.489 350.674 241.614 350.789 241.295C350.904 240.976 348.083 231.606 346.989 230.86C345.953 230.115 339.217 227.081 336.972 226.708C334.784 226.335 328.049 224.685 327.588 224.365C327.127 224.099 306.344 213.026 302.718 212.227C299.781 211.588 270.305 212.494 268.578 212.547C266.794 212.653 256.373 214.091 256.028 214.25C255.682 214.41 256.028 215.581 256.431 215.794C256.488 215.847 252.631 222.822 251.595 224.312Z"
      fill="#E0DFDF" />
    <path opacity="0.5"
      d="M251.595 224.312C251.019 225.164 248.544 234.587 248.486 234.96C248.429 235.279 247.565 236.717 247.565 236.983C247.565 237.249 247.335 241.455 247.45 241.774C247.565 242.04 248.256 243.052 248.371 243.212C248.544 243.371 249.004 246.406 249.407 246.459C249.81 246.512 250.559 246.512 250.674 246.459C250.731 246.406 251.192 235.119 263.224 235.119C275.256 235.119 275.084 247.098 275.314 247.098C275.544 247.151 317.513 248.269 317.513 248.269C317.513 246.459 317.686 235.545 329.43 235.545C337.087 235.545 341.002 241.401 341.117 245.714C341.175 247.524 340.829 249.494 340.944 249.494C341.29 249.494 342.499 249.6 342.729 249.494C342.959 249.387 345.435 247.896 345.665 247.843C345.895 247.79 346.471 247.737 346.817 247.684C347.162 247.577 349.637 245.607 349.695 245.501C349.753 245.394 349.81 244.649 349.81 244.542C349.81 244.489 350.674 241.614 350.789 241.295C350.904 240.976 348.083 231.606 346.989 230.86C345.953 230.115 339.217 227.081 336.972 226.708C334.784 226.335 328.049 224.685 327.588 224.365C327.127 224.099 306.344 213.026 302.718 212.227C299.781 211.588 270.305 212.494 268.578 212.547C266.794 212.653 256.373 214.091 256.028 214.25C255.682 214.41 256.028 215.581 256.431 215.794C256.488 215.847 252.631 222.822 251.595 224.312Z"
      fill="white" />
    <path opacity="0.1"
      d="M326.206 235.864C317.628 237.675 317.513 246.618 317.513 248.269C317.513 248.269 275.544 247.151 275.314 247.098C275.141 247.044 275.199 239.218 268.866 236.237C271.687 237.515 275.372 240.709 276.753 245.288C276.926 245.767 278.423 246.565 291.779 246.938C305.135 247.311 311.353 247.098 313.541 246.778C315.728 246.512 318.319 235.811 326.206 235.864Z"
      fill="#485B78" />
    <path opacity="0.1"
      d="M350.041 243.903C349.925 244.276 349.868 244.542 349.868 244.542C349.868 244.595 349.753 245.394 349.753 245.5C349.695 245.607 347.22 247.577 346.874 247.683C346.529 247.736 346.011 247.79 345.78 247.843H345.723C345.608 247.896 344.744 248.375 343.996 248.801C343.938 248.854 343.823 248.908 343.765 248.961C343.708 248.961 343.708 249.014 343.65 249.014C343.593 249.067 343.478 249.121 343.42 249.121C343.362 249.174 343.305 249.174 343.247 249.227C343.19 249.227 343.19 249.28 343.132 249.28C342.959 249.387 342.844 249.44 342.787 249.44C342.556 249.547 341.347 249.44 341.002 249.44V249.387C341.002 249.28 341.002 249.014 341.06 248.695C341.06 248.641 341.06 248.588 341.06 248.535C341.06 248.482 341.06 248.375 341.06 248.322C341.06 248.269 341.06 248.162 341.06 248.109C341.06 248.056 341.06 248.056 341.06 248.003C341.06 247.843 341.06 247.683 341.117 247.524C341.175 246.938 341.175 246.299 341.175 245.66C341.175 245.554 341.175 245.447 341.175 245.341C341.175 245.234 341.175 245.128 341.175 245.075C341.175 244.968 341.175 244.915 341.175 244.808C341.175 244.755 341.175 244.702 341.117 244.595C341.06 244.382 341.06 244.116 341.002 243.903C341.002 243.85 341.002 243.797 340.944 243.744C340.944 243.637 340.887 243.531 340.887 243.477C340.887 243.424 340.829 243.318 340.829 243.264C340.772 243.105 340.714 242.998 340.657 242.839C340.657 242.785 340.599 242.679 340.541 242.626C340.426 242.413 340.369 242.147 340.254 241.934C340.196 241.88 340.196 241.827 340.138 241.721C340.081 241.614 340.023 241.508 339.966 241.401C339.966 241.348 339.908 241.348 339.908 241.295C339.851 241.188 339.793 241.135 339.735 241.029C339.678 240.922 339.62 240.816 339.563 240.709C339.505 240.603 339.448 240.496 339.39 240.39C339.332 240.283 339.275 240.23 339.217 240.123C339.16 240.017 339.102 239.964 338.987 239.857C338.987 239.857 338.987 239.804 338.929 239.804C338.872 239.751 338.814 239.644 338.757 239.591L338.699 239.538C338.642 239.431 338.526 239.378 338.469 239.272C338.296 239.112 338.123 238.899 337.951 238.739L337.893 238.686C337.836 238.633 337.778 238.58 337.663 238.473L337.605 238.42C337.548 238.367 337.433 238.26 337.375 238.207C337.26 238.1 337.202 238.047 337.087 237.994C336.972 237.941 336.914 237.834 336.799 237.781C336.799 237.781 336.742 237.781 336.742 237.728C336.684 237.675 336.569 237.621 336.454 237.568C336.396 237.568 336.396 237.515 336.339 237.515C336.281 237.462 336.166 237.408 336.108 237.355C335.993 237.302 335.878 237.249 335.763 237.142C335.763 237.142 335.705 237.142 335.705 237.089C335.59 237.036 335.475 236.982 335.36 236.929C335.245 236.876 335.13 236.823 335.015 236.77C337.202 237.195 340.887 239.964 342.384 242.839C343.88 245.713 343.478 245.926 343.823 246.246C344.168 246.565 345.32 245.873 345.838 245.767C346.356 245.66 348.083 245.607 348.774 245.5C349.465 245.394 349.522 244.276 349.983 244.01C349.925 243.957 349.983 243.903 350.041 243.903Z"
      fill="#485B78" />
    <path
      d="M259.194 223.567C259.655 224.898 303.869 227.613 318.895 227.4C319.24 227.4 322.119 225.057 321.716 224.738C320.219 223.514 316.131 221.171 314.98 220.585C312.044 219.095 303.696 214.676 299.551 214.25C295.406 213.824 287.058 213.824 279.804 213.984C272.608 214.09 270.363 214.25 267.369 215.475C264.721 216.486 258.734 222.289 259.194 223.567Z"
      fill="#485B78" />
    <path
      d="M261.152 222.662C261.324 223.248 270.478 224.525 288.613 225.271C306.748 226.069 315.671 226.442 315.901 226.389C316.131 226.282 315.268 221.864 314.98 221.491C314.692 221.118 301.681 214.996 299.666 214.836C297.651 214.676 286.598 214.783 281.071 214.73C274.163 214.677 270.248 215.422 268.29 216.167C266.506 216.753 260.979 222.023 261.152 222.662Z"
      fill="#2B454E" />
    <g opacity="0.1">
      <path
        d="M278.077 214.729L268.175 223.886C265.93 223.673 264.203 223.407 263.052 223.194L271.63 215.262C273.299 214.996 275.429 214.783 278.077 214.729Z"
        fill="white" />
      <path
        d="M315.901 226.388C315.786 226.442 314.059 226.388 310.72 226.229L315.21 222.076C315.556 223.354 316.074 226.282 315.901 226.388Z"
        fill="white" />
      <path
        d="M286.137 214.676L275.487 224.525L273.126 224.365H272.781L283.201 214.73C284.122 214.676 285.101 214.676 286.137 214.676Z"
        fill="white" />
      <path
        d="M310.893 219.414L303.869 225.909C303.005 225.856 302.084 225.856 301.048 225.803L308.935 218.509C309.626 218.829 310.259 219.095 310.893 219.414Z"
        fill="white" />
      <path
        d="M269.269 215.741L261.612 222.875C261.324 222.769 261.209 222.715 261.152 222.662C261.152 222.609 261.152 222.609 261.152 222.502L267.945 216.22C268.06 216.167 268.118 216.114 268.175 216.114C268.521 216.007 268.866 215.901 269.269 215.741Z"
        fill="white" />
      <path
        d="M312.562 220.213L306.287 226.016C306.057 226.016 305.769 226.016 305.481 225.963L312.044 219.894C312.217 220.053 312.389 220.107 312.562 220.213Z"
        fill="white" />
      <path
        d="M301.739 215.422L290.973 225.377C291.261 225.377 291.491 225.377 291.779 225.431L302.315 215.688L301.739 215.422Z"
        fill="white" />
    </g>
    <path
      d="M281.992 214.943C282.107 215.262 282.28 224.792 282.28 225.111C282.28 225.431 281.877 225.484 281.877 225.484L287.749 225.75C287.749 225.75 287.346 225.644 287.289 225.484C287.231 225.324 285.389 215.049 285.389 214.943C285.389 214.783 285.677 214.677 285.677 214.677H281.589C281.647 214.623 281.935 214.73 281.992 214.943Z"
      fill="#485B78" />
    <path
      d="M340.415 247.909C341.421 242.281 337.304 236.965 331.218 236.034C325.133 235.103 319.383 238.91 318.377 244.538C317.37 250.165 321.487 255.482 327.573 256.413C333.658 257.344 339.408 253.537 340.415 247.909Z"
      fill="#485B78" />
    <path
      d="M329.373 253.805C333.888 253.805 337.548 250.421 337.548 246.246C337.548 242.071 333.888 238.686 329.373 238.686C324.858 238.686 321.198 242.071 321.198 246.246C321.198 250.421 324.858 253.805 329.373 253.805Z"
      fill="#DCDCDC" />
    <path
      d="M334.718 251.167C337.663 248.443 337.663 244.027 334.718 241.304C331.773 238.58 326.998 238.58 324.053 241.304C321.107 244.027 321.107 248.443 324.053 251.167C326.998 253.89 331.773 253.89 334.718 251.167Z"
      fill="#A8A8A8" />
    <path
      d="M327.761 246.619C328.164 246.938 328.567 247.311 329.027 247.683C328.567 247.79 328.336 248.801 329.315 250.079C330.121 251.304 332.136 252.794 332.078 252.741C331.791 252.901 331.56 253.06 331.33 253.327C328.797 251.037 328.682 250.558 328.048 250.399C327.53 250.345 327.243 250.452 327.415 253.327C326.897 253.06 326.379 252.741 325.976 252.475C326.034 252.475 326.149 250.345 326.609 249.121C326.955 247.683 327.703 247.151 327.761 246.619Z"
      fill="#DCDCDC" />
    <path
      d="M329.2 247.683C329.661 247.417 330.179 247.204 330.697 246.885C330.697 247.257 331.56 247.896 333.23 247.364C334.784 246.991 337.145 245.501 337.145 245.447C337.145 245.873 337.145 246.246 337.145 246.672C333.806 248.269 333.345 248.162 332.884 248.695C332.539 249.121 333.287 249.76 335.418 250.665C335.015 250.984 334.669 251.25 334.381 251.463C334.439 251.463 332.136 250.292 331.157 249.493C330.064 248.748 329.661 247.949 329.2 247.683Z"
      fill="#DCDCDC" />
    <path
      d="M330.812 246.779C330.697 246.299 330.639 245.767 330.524 245.235C330.869 245.341 331.848 244.809 331.848 243.158C331.963 241.721 331.1 239.166 330.985 239.112C331.503 239.378 332.021 239.645 332.481 239.911C333 242.999 332.769 243.371 333.115 243.957C333.403 244.383 334.209 243.85 335.763 242.36C335.936 242.679 336.166 242.892 336.396 243.052C336.396 243.052 334.496 244.968 333.403 245.607C332.194 246.406 331.215 246.406 330.812 246.779Z"
      fill="#DCDCDC" />
    <path
      d="M330.351 245.128C329.833 245.128 329.257 245.022 328.624 244.968C328.97 244.649 328.509 243.744 327.07 243.158C325.803 242.573 322.579 242.253 322.637 242.253C323.097 241.934 323.5 241.668 323.788 241.402C326.321 242.04 327.646 242.466 328.164 242.307C328.509 242.094 328.797 241.881 326.897 239.698C327.185 239.538 327.415 239.378 327.703 239.112C327.761 239.166 329.315 241.189 329.776 242.466C330.466 243.904 330.063 244.596 330.351 245.128Z"
      fill="#DCDCDC" />
    <path
      d="M328.509 245.022C328.279 245.501 327.991 245.927 327.761 246.459C327.53 246.033 326.437 246.246 325.458 247.311C324.479 248.216 323.27 250.665 323.27 250.612C323.097 250.292 322.867 250.026 322.637 249.813C324.019 247.79 324.825 246.725 324.825 246.246C324.709 245.873 324.594 245.554 321.485 246.725C321.485 246.299 321.485 245.873 321.485 245.447C321.543 245.447 324.076 244.702 325.515 244.702C327.243 244.596 327.876 245.128 328.509 245.022Z"
      fill="#DCDCDC" />
    <path
      d="M328.164 245.288C328.797 244.702 329.776 244.649 330.409 245.181C331.042 245.714 331.1 246.619 330.466 247.204C329.833 247.79 328.854 247.843 328.221 247.311C327.588 246.778 327.588 245.873 328.164 245.288Z"
      fill="#DCDCDC" />
    <g opacity="0.2">
      <path
        d="M284.698 226.282L284.295 228.891L284.122 230.222C284.122 230.435 284.065 230.648 284.065 230.861C284.065 231.074 284.065 231.287 284.065 231.5L284.122 236.77L284.18 239.432V240.763V241.402L284.237 242.041L284.468 244.702L284.698 247.364L284.525 244.702L284.353 242.041L284.295 241.402V240.763V239.432V236.77L284.18 231.5C284.18 231.287 284.18 231.074 284.18 230.861C284.18 230.648 284.237 230.435 284.237 230.222L284.41 228.891L284.698 226.282Z"
        fill="#485B78" />
      <path
        d="M259.482 224.046C259.482 224.046 258.849 229.263 258.849 229.37C258.849 229.476 258.849 229.583 258.849 229.689L259.482 233.469L258.964 229.742C258.964 229.636 258.964 229.529 258.964 229.476C259.021 229.263 259.482 224.046 259.482 224.046Z"
        fill="#485B78" />
      <path
        d="M316.822 232.884C316.822 234.641 316.765 236.451 316.707 238.208C316.707 238.633 316.707 239.113 316.65 239.539C316.65 239.964 316.534 240.444 316.419 240.869C316.189 241.721 315.959 242.573 315.728 243.425C315.441 244.277 315.21 245.075 314.807 245.874L314.692 246.193C314.635 246.3 314.577 246.406 314.519 246.459C314.462 246.566 314.404 246.619 314.347 246.726L314.232 246.832C314.174 246.885 314.116 246.885 314.059 246.885C313.656 246.939 313.31 246.939 312.908 246.939C309.856 246.992 306.863 246.992 303.811 246.939C300.76 246.885 301.221 246.885 298.227 246.779C295.176 246.726 292.182 246.619 289.131 246.459C287.634 246.406 286.137 246.406 284.64 246.246V246.087C286.137 246.246 287.634 246.246 289.131 246.3C292.182 246.406 295.176 246.513 298.227 246.566C301.278 246.619 300.76 246.726 303.811 246.726C306.863 246.779 309.856 246.779 312.908 246.726C313.31 246.726 313.656 246.726 314.059 246.672C314.116 246.672 314.174 246.672 314.174 246.672L314.289 246.566C314.347 246.459 314.404 246.406 314.462 246.3C314.519 246.193 314.577 246.14 314.635 246.033L314.75 245.767C315.095 244.969 315.383 244.17 315.671 243.318C315.959 242.467 316.189 241.615 316.362 240.763C316.477 240.337 316.592 239.911 316.592 239.485L316.65 238.154C316.707 236.451 316.765 234.641 316.822 232.884C316.765 232.671 316.765 232.458 316.765 232.192C316.765 232.085 316.765 231.979 316.707 231.872L316.65 231.553L316.477 230.222L316.131 227.56L316.534 230.169L316.707 231.5L316.765 231.819C316.765 231.926 316.822 232.032 316.822 232.138C316.822 232.458 316.822 232.671 316.822 232.884Z"
        fill="#485B78" />
      <path
        d="M345.607 231.925C345.147 232.351 344.571 232.671 343.995 232.99C343.42 233.309 342.902 233.629 342.326 233.948C341.75 234.268 341.175 234.534 340.599 234.853C340.023 235.173 339.447 235.439 338.872 235.705C339.39 235.386 339.966 235.066 340.541 234.747L342.211 233.789L343.88 232.884L344.744 232.404C345.089 232.245 345.377 232.085 345.607 231.925Z"
        fill="#485B78" />
      <path
        d="M284.986 237.994L288.901 238.101L292.873 238.207L300.818 238.527L308.705 238.793L312.677 238.952L316.649 239.165L312.677 239.059L308.705 238.899L300.818 238.633L292.873 238.314L288.901 238.154L284.986 237.994Z"
        fill="#485B78" />
    </g>
    <path
      d="M267.285 255.795C272.984 253.612 275.69 247.57 273.33 242.3C270.969 237.03 264.436 234.528 258.737 236.711C253.038 238.893 250.332 244.935 252.692 250.205C255.053 255.475 261.586 257.978 267.285 255.795Z"
      fill="#485B78" />
    <path
      d="M271.068 247.666C271.922 243.566 269.02 239.602 264.586 238.813C260.152 238.023 255.866 240.707 255.012 244.807C254.158 248.907 257.06 252.87 261.494 253.66C265.928 254.45 270.214 251.766 271.068 247.666Z"
      fill="#DCDCDC" />
    <path
      d="M264.736 253.021C268.79 252.135 271.3 248.379 270.343 244.631C269.385 240.882 265.323 238.561 261.27 239.446C257.216 240.331 254.706 244.088 255.663 247.836C256.621 251.585 260.683 253.906 264.736 253.021Z"
      fill="#A8A8A8" />
    <path
      d="M264.606 245.821C264.203 245.501 263.8 245.129 263.339 244.756C263.8 244.649 264.03 243.638 263.051 242.36C262.245 241.136 260.23 239.645 260.288 239.698C260.576 239.539 260.806 239.379 261.036 239.113C263.569 241.402 263.685 241.881 264.318 242.041C264.836 242.094 265.124 241.988 264.951 239.113C265.469 239.379 265.987 239.698 266.39 239.965C266.333 239.965 266.218 242.094 265.757 243.319C265.412 244.756 264.663 245.288 264.606 245.821Z"
      fill="#DCDCDC" />
    <path
      d="M263.167 244.756C262.706 245.022 262.188 245.235 261.67 245.555C261.67 245.182 260.806 244.543 259.137 245.075C257.582 245.448 255.222 246.939 255.222 246.992C255.222 246.566 255.222 246.193 255.222 245.767C258.561 244.17 259.021 244.277 259.482 243.744C259.827 243.319 259.079 242.68 256.949 241.775C257.352 241.455 257.697 241.189 257.985 240.976C257.928 240.976 260.23 242.147 261.209 242.946C262.303 243.691 262.706 244.543 263.167 244.756Z"
      fill="#DCDCDC" />
    <path
      d="M261.555 245.661C261.67 246.14 261.727 246.673 261.842 247.205C261.497 247.099 260.518 247.631 260.518 249.281C260.403 250.719 261.267 253.274 261.382 253.327C260.864 253.061 260.346 252.795 259.885 252.529C259.367 249.441 259.597 249.068 259.252 248.483C258.964 248.057 258.158 248.589 256.603 250.08C256.431 249.76 256.2 249.547 255.97 249.388C255.97 249.388 257.87 247.471 258.964 246.832C260.23 246.034 261.152 246.034 261.555 245.661Z"
      fill="#DCDCDC" />
    <path
      d="M262.015 247.312C262.533 247.312 263.109 247.418 263.742 247.471C263.397 247.791 263.857 248.696 265.297 249.281C266.563 249.867 269.787 250.186 269.73 250.186C269.269 250.506 268.866 250.772 268.578 251.038C266.045 250.399 264.721 249.973 264.203 250.133C263.857 250.346 263.57 250.559 265.469 252.742C265.182 252.901 264.951 253.061 264.663 253.327C264.606 253.274 263.051 251.251 262.591 249.973C261.9 248.536 262.303 247.844 262.015 247.312Z"
      fill="#DCDCDC" />
    <path
      d="M263.857 247.418C264.088 246.939 264.376 246.513 264.606 245.981C264.836 246.406 265.93 246.193 266.909 245.129C267.887 244.224 269.096 241.775 269.096 241.828C269.269 242.147 269.499 242.414 269.73 242.627C268.348 244.65 267.542 245.714 267.542 246.193C267.657 246.566 267.772 246.886 270.881 245.714C270.881 246.14 270.881 246.566 270.881 246.992C270.823 246.992 268.29 247.737 266.851 247.737C265.124 247.844 264.491 247.311 263.857 247.418Z"
      fill="#DCDCDC" />
    <path
      d="M264.203 247.151C263.57 247.737 262.591 247.79 261.958 247.258C261.324 246.726 261.267 245.82 261.9 245.235C262.533 244.649 263.512 244.596 264.145 245.128C264.779 245.661 264.836 246.566 264.203 247.151Z"
      fill="#DCDCDC" />
    <path
      d="M313.31 222.502C312.907 222.875 312.965 226.229 313.253 226.495C313.541 226.761 317.571 227.027 317.916 224.898C318.262 222.875 313.944 221.916 313.31 222.502Z"
      fill="#E0DFDF" />
    <path opacity="0.4"
      d="M313.31 222.502C312.907 222.875 312.965 226.229 313.253 226.495C313.541 226.761 317.571 227.027 317.916 224.898C318.262 222.875 313.944 221.916 313.31 222.502Z"
      fill="white" />
    <path
      d="M328.106 224.525H324.825C316.247 219.308 304.502 214.144 304.502 214.144L306.46 213.718C313.598 216.912 327.3 224.206 327.646 224.419C327.703 224.419 327.818 224.472 328.106 224.525Z"
      fill="#2B454E" />
    <g opacity="0.5">
      <path
        d="M250.098 239.485C250.789 238.421 251.653 237.515 252.574 236.664C253.552 235.812 254.646 235.067 255.798 234.481C258.158 233.31 260.806 232.724 263.454 232.724L264.433 232.777H264.951C265.124 232.777 265.297 232.831 265.469 232.831L266.448 232.937C266.794 232.99 267.081 233.097 267.427 233.15C268.693 233.469 269.96 233.895 271.111 234.587C272.205 235.28 273.241 236.078 274.047 237.036C274.911 237.995 275.544 239.059 276.12 240.177C275.487 239.113 274.796 238.048 273.932 237.143C273.069 236.238 272.09 235.386 270.939 234.8C268.693 233.523 266.045 232.99 263.454 232.937C262.13 232.937 260.806 233.044 259.54 233.31C258.273 233.576 257.007 234.002 255.855 234.587C254.704 235.173 253.61 235.865 252.631 236.664C251.71 237.515 250.789 238.474 250.098 239.485Z"
        fill="white" />
      <path
        d="M316.189 239.485C316.88 238.421 317.744 237.515 318.665 236.664C319.643 235.812 320.737 235.067 321.889 234.481C324.249 233.31 326.897 232.724 329.545 232.724L330.524 232.777H331.042C331.215 232.777 331.388 232.831 331.56 232.831L332.539 232.937C332.885 232.99 333.172 233.097 333.518 233.15C334.784 233.469 336.051 233.895 337.202 234.587C338.296 235.28 339.332 236.078 340.138 237.036C341.002 237.995 341.635 239.059 342.211 240.177C341.578 239.113 340.887 238.048 340.023 237.143C339.16 236.238 338.181 235.386 337.03 234.8C334.784 233.523 332.136 232.99 329.545 232.937C328.221 232.937 326.897 233.044 325.631 233.31C324.364 233.576 323.098 234.002 321.946 234.587C320.795 235.173 319.701 235.865 318.722 236.664C317.801 237.515 316.938 238.474 316.189 239.485Z"
        fill="white" />
    </g>
    <g opacity="0.3">
      <path
        d="M257.813 228.092C257.87 229.263 256.776 230.434 255.395 230.488C254.704 230.541 254.013 230.328 253.495 229.902C252.977 229.476 252.689 228.837 252.631 228.145C252.631 227.506 252.919 226.867 253.437 226.388C253.955 225.962 254.646 225.696 255.337 225.749C256.719 225.749 257.813 226.867 257.813 228.092ZM257.813 228.092C257.813 227.506 257.525 226.921 257.064 226.548C256.604 226.175 255.97 225.962 255.395 226.016C254.819 226.069 254.243 226.335 253.84 226.708C253.437 227.08 253.265 227.613 253.265 228.145C253.265 228.677 253.495 229.157 253.898 229.583C254.301 229.955 254.819 230.221 255.452 230.275C256.028 230.328 256.661 230.115 257.122 229.689C257.525 229.263 257.813 228.677 257.813 228.092Z"
        fill="#485B78" />
    </g>
    <path opacity="0.3"
      d="M252.919 227.613C252.919 227.719 252.919 227.773 252.976 227.879C252.976 227.773 252.919 227.719 252.919 227.613Z"
      fill="#485B78" />
    <path
      d="M249.695 230.435C249.695 230.435 250.213 231.393 250.156 231.659C250.098 231.925 249.753 234.907 249.522 235.013C249.292 235.173 248.774 235.386 248.371 235.332C247.968 235.279 249.695 230.435 249.695 230.435Z"
      fill="#ECECEC" />
    <path d="M257.582 215.848L252.286 224.206L251.595 224.312L256.488 215.848H257.582Z"
      fill="#2B454E" />
    <path opacity="0.1"
      d="M290.225 231.02L289.534 230.967C288.613 230.914 287.922 230.222 287.979 229.37C288.037 228.518 288.785 227.879 289.707 227.932L290.397 227.986C291.319 228.039 292.009 228.731 291.952 229.583C291.894 230.434 291.088 231.073 290.225 231.02Z"
      fill="#485B78" />
    <path
      d="M292.528 230.222L287.289 230.009C287.001 230.009 286.713 229.742 286.77 229.476C286.77 229.21 287.058 228.944 287.346 228.997L292.585 229.21C292.873 229.21 293.161 229.476 293.103 229.742C293.103 230.009 292.815 230.275 292.528 230.222Z"
      fill="#E0DFDF" />
    <g opacity="0.2">
      <path
        d="M292.528 230.222L287.289 230.009C287.001 230.009 286.713 229.742 286.77 229.476C286.77 229.21 287.058 228.944 287.346 228.997L292.585 229.21C292.873 229.21 293.161 229.476 293.103 229.742C293.103 230.009 292.815 230.275 292.528 230.222Z"
        fill="white" />
    </g>
    <path opacity="0.1"
      d="M264.318 229.21L263.627 229.157C262.706 229.104 262.073 228.358 262.13 227.507C262.188 226.655 262.994 226.069 263.915 226.122L264.606 226.176C265.527 226.229 266.16 226.974 266.103 227.826C266.045 228.678 265.239 229.264 264.318 229.21Z"
      fill="#485B78" />
    <path
      d="M266.736 228.465L261.497 228.039C261.209 228.039 260.979 227.773 260.979 227.453C260.979 227.187 261.267 226.974 261.612 226.974L266.851 227.4C267.139 227.4 267.369 227.666 267.369 227.986C267.312 228.305 267.024 228.518 266.736 228.465Z"
      fill="#E0DFDF" />
    <g opacity="0.2">
      <path
        d="M266.736 228.465L261.497 228.039C261.209 228.039 260.979 227.773 260.979 227.453C260.979 227.187 261.267 226.974 261.612 226.974L266.851 227.4C267.139 227.4 267.369 227.666 267.369 227.986C267.312 228.305 267.024 228.518 266.736 228.465Z"
        fill="white" />
    </g>
    <path
      d="M336.972 229.477C337.433 230.595 341.923 233.097 343.708 233.629C344.802 233.949 348.659 234.747 348.947 234.588C349.235 234.428 348.198 231.34 347.335 230.595C346.471 229.849 341.405 227.826 339.908 227.667C338.354 227.56 336.454 228.359 336.972 229.477Z"
      fill="white" />
    <path
      d="M336.972 229.477C337.26 230.009 337.778 230.382 338.296 230.754C338.814 231.127 339.332 231.446 339.85 231.766C340.944 232.351 342.038 232.937 343.19 233.363C343.765 233.576 344.399 233.682 344.974 233.842C345.608 233.949 346.183 234.055 346.817 234.162C347.45 234.268 348.083 234.374 348.659 234.428C348.716 234.428 348.716 234.428 348.774 234.428C348.774 234.428 348.716 234.428 348.659 234.481C348.601 234.587 348.659 234.534 348.601 234.534V234.481C348.601 234.374 348.544 234.215 348.544 234.108C348.486 233.842 348.371 233.576 348.313 233.31C348.141 232.777 347.91 232.245 347.623 231.713C347.507 231.446 347.335 231.233 347.162 231.02C346.989 230.861 346.759 230.701 346.471 230.541C345.435 229.956 344.283 229.423 343.132 228.944C342.556 228.731 341.981 228.465 341.405 228.305C340.829 228.092 340.196 227.879 339.563 227.879C338.929 227.879 338.296 227.986 337.72 228.252C337.433 228.412 337.202 228.572 337.03 228.838C336.857 228.891 336.857 229.21 336.972 229.477ZM336.972 229.477C336.857 229.21 336.857 228.891 337.03 228.625C337.202 228.359 337.433 228.199 337.72 228.039C338.296 227.773 338.929 227.613 339.563 227.613C340.196 227.613 340.829 227.773 341.462 227.986C342.096 228.146 342.671 228.359 343.247 228.572C344.456 228.997 345.608 229.423 346.759 230.009C347.047 230.169 347.335 230.328 347.565 230.541C347.795 230.808 347.968 231.074 348.141 231.34C348.428 231.872 348.659 232.458 348.889 232.99C349.004 233.256 349.062 233.576 349.119 233.842C349.177 234.002 349.177 234.162 349.177 234.321C349.177 234.374 349.177 234.428 349.177 234.481C349.177 234.534 349.177 234.587 349.062 234.747C349.004 234.854 348.947 234.854 348.831 234.854C348.774 234.854 348.774 234.854 348.716 234.854C348.659 234.854 348.601 234.854 348.544 234.854C347.853 234.8 347.277 234.694 346.644 234.534C346.011 234.428 345.377 234.268 344.802 234.108C344.168 233.949 343.593 233.789 342.959 233.523C341.808 232.99 340.714 232.405 339.678 231.766C339.16 231.446 338.642 231.074 338.123 230.754C337.778 230.382 337.26 230.009 336.972 229.477Z"
      fill="#DCDCDC" />
    <path
      d="M348.889 234.588C348.601 234.747 344.744 233.949 343.65 233.629C341.923 233.097 337.433 230.595 336.914 229.477C336.454 228.359 338.296 227.56 339.793 227.667C339.908 227.667 340.023 227.72 340.138 227.72C338.699 228.039 338.239 229.051 338.987 229.743C339.735 230.488 342.153 232.245 343.19 232.671C344.168 233.097 347.91 234.215 348.313 234.002C348.429 233.949 348.544 233.736 348.544 233.47C348.831 234.108 349.004 234.534 348.889 234.588Z"
      fill="#ECECEC" />
    <path d="M286.732 87H154.902V253.641H286.732V87Z" fill="#E6E7E8" />
    <path d="M282.668 91.0752H150.838V257.716H282.668V91.0752Z" fill="white" />
    <path
      d="M165.566 110.575H163.73C163.621 110.047 163.431 109.583 163.16 109.183C162.893 108.783 162.568 108.448 162.183 108.176C161.803 107.9 161.38 107.692 160.916 107.554C160.453 107.416 159.969 107.347 159.465 107.347C158.547 107.347 157.715 107.579 156.97 108.043C156.23 108.507 155.64 109.19 155.201 110.094C154.766 110.997 154.549 112.105 154.549 113.418C154.549 114.731 154.766 115.839 155.201 116.743C155.64 117.646 156.23 118.33 156.97 118.794C157.715 119.258 158.547 119.49 159.465 119.49C159.969 119.49 160.453 119.42 160.916 119.282C161.38 119.144 161.803 118.939 162.183 118.668C162.568 118.391 162.893 118.053 163.16 117.653C163.431 117.249 163.621 116.785 163.73 116.261H165.566C165.428 117.036 165.176 117.73 164.811 118.342C164.446 118.954 163.992 119.475 163.449 119.904C162.906 120.329 162.296 120.652 161.62 120.874C160.949 121.096 160.23 121.207 159.465 121.207C158.172 121.207 157.022 120.891 156.015 120.26C155.008 119.628 154.216 118.729 153.638 117.564C153.061 116.4 152.772 115.017 152.772 113.418C152.772 111.819 153.061 110.437 153.638 109.272C154.216 108.107 155.008 107.209 156.015 106.577C157.022 105.945 158.172 105.629 159.465 105.629C160.23 105.629 160.949 105.74 161.62 105.962C162.296 106.184 162.906 106.51 163.449 106.94C163.992 107.364 164.446 107.882 164.811 108.494C165.176 109.102 165.428 109.795 165.566 110.575ZM181.328 113.418C181.328 115.017 181.039 116.4 180.462 117.564C179.884 118.729 179.092 119.628 178.085 120.26C177.078 120.891 175.928 121.207 174.634 121.207C173.341 121.207 172.191 120.891 171.184 120.26C170.177 119.628 169.385 118.729 168.807 117.564C168.23 116.4 167.941 115.017 167.941 113.418C167.941 111.819 168.23 110.437 168.807 109.272C169.385 108.107 170.177 107.209 171.184 106.577C172.191 105.945 173.341 105.629 174.634 105.629C175.928 105.629 177.078 105.945 178.085 106.577C179.092 107.209 179.884 108.107 180.462 109.272C181.039 110.437 181.328 111.819 181.328 113.418ZM179.551 113.418C179.551 112.105 179.331 110.997 178.892 110.094C178.457 109.19 177.868 108.507 177.122 108.043C176.382 107.579 175.553 107.347 174.634 107.347C173.716 107.347 172.885 107.579 172.139 108.043C171.399 108.507 170.809 109.19 170.37 110.094C169.935 110.997 169.718 112.105 169.718 113.418C169.718 114.731 169.935 115.839 170.37 116.743C170.809 117.646 171.399 118.33 172.139 118.794C172.885 119.258 173.716 119.49 174.634 119.49C175.553 119.49 176.382 119.258 177.122 118.794C177.868 118.33 178.457 117.646 178.892 116.743C179.331 115.839 179.551 114.731 179.551 113.418ZM196.44 105.836V121H194.663L186.4 109.094H186.252V121H184.415V105.836H186.192L194.485 117.772H194.633V105.836H196.44ZM199.285 107.465V105.836H210.657V107.465H205.889V121H204.053V107.465H199.285ZM213.491 121V105.836H218.615C219.8 105.836 220.772 106.039 221.532 106.444C222.292 106.843 222.855 107.394 223.22 108.095C223.586 108.796 223.768 109.593 223.768 110.486C223.768 111.38 223.586 112.172 223.22 112.863C222.855 113.554 222.295 114.097 221.54 114.492C220.784 114.882 219.819 115.077 218.645 115.077H214.498V113.418H218.585C219.395 113.418 220.046 113.3 220.54 113.063C221.039 112.826 221.399 112.49 221.621 112.056C221.848 111.617 221.962 111.093 221.962 110.486C221.962 109.879 221.848 109.348 221.621 108.894C221.394 108.44 221.031 108.09 220.533 107.843C220.034 107.591 219.375 107.465 218.556 107.465H215.328V121H213.491ZM220.629 114.188L224.361 121H222.228L218.556 114.188H220.629ZM227.45 121H225.525L231.093 105.836H232.988L238.556 121H236.631L232.1 108.235H231.981L227.45 121ZM228.161 115.077H235.92V116.706H228.161V115.077ZM252.407 110.575H250.571C250.463 110.047 250.272 109.583 250.001 109.183C249.734 108.783 249.409 108.448 249.024 108.176C248.644 107.9 248.222 107.692 247.758 107.554C247.294 107.416 246.81 107.347 246.306 107.347C245.388 107.347 244.557 107.579 243.811 108.043C243.071 108.507 242.481 109.19 242.042 110.094C241.607 110.997 241.39 112.105 241.39 113.418C241.39 114.731 241.607 115.839 242.042 116.743C242.481 117.646 243.071 118.33 243.811 118.794C244.557 119.258 245.388 119.49 246.306 119.49C246.81 119.49 247.294 119.42 247.758 119.282C248.222 119.144 248.644 118.939 249.024 118.668C249.409 118.391 249.734 118.053 250.001 117.653C250.272 117.249 250.463 116.785 250.571 116.261H252.407C252.269 117.036 252.017 117.73 251.652 118.342C251.287 118.954 250.833 119.475 250.29 119.904C249.747 120.329 249.137 120.652 248.461 120.874C247.79 121.096 247.071 121.207 246.306 121.207C245.013 121.207 243.863 120.891 242.856 120.26C241.849 119.628 241.057 118.729 240.479 117.564C239.902 116.4 239.613 115.017 239.613 113.418C239.613 111.819 239.902 110.437 240.479 109.272C241.057 108.107 241.849 107.209 242.856 106.577C243.863 105.945 245.013 105.629 246.306 105.629C247.071 105.629 247.79 105.74 248.461 105.962C249.137 106.184 249.747 106.51 250.29 106.94C250.833 107.364 251.287 107.882 251.652 108.494C252.017 109.102 252.269 109.795 252.407 110.575ZM254.545 107.465V105.836H265.918V107.465H261.15V121H259.314V107.465H254.545Z"
      fill="#F44336" />
    <path
      d="M254.7 238.827C258.43 238.827 261.453 236.041 261.453 232.604C261.453 229.167 258.43 226.381 254.7 226.381C250.971 226.381 247.947 229.167 247.947 232.604C247.947 236.041 250.971 238.827 254.7 238.827Z"
      fill="#F44336" />
    <path
      d="M254.7 242.462C260.608 242.462 265.397 238.049 265.397 232.605C265.397 227.16 260.608 222.747 254.7 222.747C248.792 222.747 244.003 227.16 244.003 232.605C244.003 238.049 248.792 242.462 254.7 242.462Z"
      fill="#F44336" stroke="#F57856" stroke-miterlimit="10" />
    <path
      d="M254.7 244.334C261.73 244.334 267.429 239.083 267.429 232.604C267.429 226.126 261.73 220.875 254.7 220.875C247.67 220.875 241.971 226.126 241.971 232.604C241.971 239.083 247.67 244.334 254.7 244.334Z"
      fill="#F44336" stroke="#F57856" stroke-miterlimit="10" />
    <path d="M171.156 129.293H261.453" stroke="#F44336" stroke-miterlimit="10"
      stroke-linecap="round" stroke-linejoin="round" />
    <path d="M171.156 215.753H261.453" stroke="#F57856" stroke-miterlimit="10"
      stroke-linecap="round" stroke-linejoin="round" />
    <path d="M261.513 135.516H171.156V138.71H261.513V135.516Z" fill="#808080" />
    <path d="M261.513 141.904H171.156V145.098H261.513V141.904Z" fill="#808080" />
    <path d="M261.513 148.237H171.156V151.431H261.513V148.237Z" fill="#AEAEAE" />
    <path d="M261.513 154.57H171.156V157.764H261.513V154.57Z" fill="#AEAEAE" />
    <path d="M237.669 160.959H171.156V164.153H237.669V160.959Z" fill="#AEAEAE" />
    <path d="M261.513 167.292H171.156V170.486H261.513V167.292Z" fill="#808080" />
    <path d="M261.513 173.625H171.156V176.819H261.513V173.625Z" fill="#808080" />
    <path d="M261.513 179.958H171.156V183.152H261.513V179.958Z" fill="#AEAEAE" />
    <path d="M261.513 186.346H171.156V189.54H261.513V186.346Z" fill="#AEAEAE" />
    <path d="M261.513 192.679H171.156V195.873H261.513V192.679Z" fill="#AEAEAE" />
    <path d="M261.513 199.012H171.156V202.206H261.513V199.012Z" fill="#AEAEAE" />
    <path d="M213.705 205.4H171.156V208.594H213.705V205.4Z" fill="#AEAEAE" />
    <path d="M207.371 239.378H171.156V242.572H207.371V239.378Z" fill="#AEAEAE" />
    <path d="M197.152 234.477H171.156V237.671H197.152V234.477Z" fill="#808080" />
    <g clip-path="url(#clip1_87_40894)">
      <path
        d="M176.882 157.94C176.604 157.274 173.212 157.787 173.212 157.787C173.212 157.787 177.16 156.044 176.882 155.378C176.604 154.711 171.599 156.249 171.599 156.249C171.599 156.249 175.825 153.071 175.269 152.815C174.88 152.61 172.989 153.584 171.933 154.148C170.654 154.609 168.041 156.556 168.041 156.556C168.041 156.556 166.984 152.354 166.428 152.713C165.872 153.071 165.705 157.428 165.705 157.428L163.536 158.504L166.039 161.989L168.319 161.118L171.655 160.195C173.212 159.683 177.104 158.504 176.882 157.94Z"
        fill="#F9D5C7" />
      <path
        d="M113.102 112.07C113.492 111.814 113.936 111.558 114.103 111.096C114.27 110.738 114.159 110.328 114.103 109.918C113.77 107.15 116.328 104.69 119.163 103.819C121.999 102.948 125.113 103.255 128.116 103.358C131.119 103.46 134.344 103.358 136.846 101.769C137.402 101.41 138.014 100.949 138.681 101C139.404 101.051 139.904 101.564 140.293 102.128C142.351 105.254 140.961 109.559 138.069 112.07C135.178 114.582 131.174 115.709 127.282 116.427C123.111 117.195 122.778 118.733 120.943 121.859C119.719 123.858 117.773 125.549 115.104 125.242C108.042 124.524 108.432 115.145 113.102 112.07Z"
        fill="#A5680D" />
      <path
        d="M109.877 154.507C109.877 154.507 96.4208 164.552 83.298 168.754C81.1294 169.113 73.1222 153.789 73.1222 153.789L77.9043 151.842L83.9652 161.323C83.9652 161.323 96.5321 148.92 98.8119 146.409C101.314 143.59 109.877 154.507 109.877 154.507Z"
        fill="#F0F0F0" />
      <path
        d="M135.456 143.128L152.082 163.116L165.538 157.376L169.264 161.169C169.264 161.169 154.139 170.65 151.637 172.034C146.521 169.01 133.12 156.812 133.12 156.812L135.456 143.128Z"
        fill="#F0F0F0" />
      <path
        d="M115.16 137.747C115.16 137.747 100.702 143.18 98.089 147.126C97.7553 149.535 104.317 156.812 104.317 156.812C104.317 156.812 110.211 172.444 110.211 179.978C110.211 179.978 124.668 182.387 135.456 180.286C137.736 167.575 137.068 155.019 136.735 148.664C137.402 147.434 135.4 143.128 135.4 143.128L126.893 138.67L115.16 137.747Z"
        fill="#F0F0F0" />
      <path
        d="M135.845 181.669C135.845 181.669 130.896 252.088 130.896 262.082C130.563 262.39 130.563 262.39 130.563 262.39H128.894L129.562 263.62C129.562 263.62 131.23 265.721 133.176 266.951C133.51 267.566 130.229 267.874 127.282 266.029C126.948 265.414 127.282 262.39 127.282 262.39C127.282 262.39 123 202.221 122.667 200.684C122.333 199.146 116.105 262.697 116.105 262.697L114.437 263.312V265.721C114.437 265.721 110.489 267.823 108.209 267.515C109.21 266.593 112.157 262.954 112.157 262.954L110.823 262.339L109.989 182.694L135.845 181.669Z"
        fill="#485B78" />
      <path
        d="M116.828 127.446C116.828 127.446 117.44 133.596 117.05 136.21C117.273 136.21 123 143.641 126.67 141.027C126.448 139.9 126.114 133.801 126.114 133.801L116.828 127.446Z"
        fill="#F9D5C7" />
      <path
        d="M116.995 136.056L124.891 141.181L126.336 137.747C126.336 137.747 129.951 142.873 129.617 145.333C128.283 146.563 124.946 142.411 124.946 142.411C124.946 142.411 120.109 147.126 118.107 148.049C116.439 146.819 114.604 137.901 114.604 137.901L116.995 136.056Z"
        fill="white" />
      <path d="M127.059 144.512L124.891 147.382L122.667 144.564L125.002 142.36L127.059 144.512Z"
        fill="#485B78" />
      <path
        d="M123.834 145.742C123.834 145.742 125.447 158.709 123 171.419L125.224 174.802L127.838 171.829L125.28 144.615L123.834 145.742Z"
        fill="#485B78" />
      <path
        d="M110.267 179.978C111.267 179.671 128.005 182.387 136.179 179.363L135.845 183.31C135.845 183.31 127.782 188.127 110.1 182.695L110.267 179.978Z"
        fill="#93734D" />
      <path d="M116.661 180.491L116.884 185.052L114.715 184.386V180.081L116.661 180.491Z"
        fill="#485B78" />
      <path d="M133.788 179.927L133.621 184.847L130.841 185.052L131.563 180.029L133.788 179.927Z"
        fill="#485B78" />
      <path
        d="M115.382 120.63C115.382 120.63 111.824 116.222 110.878 119.553C109.989 122.833 117.773 127.805 115.382 120.63Z"
        fill="#F9D5C7" />
      <path
        d="M131.341 133.647C125.614 137.235 120.554 133.647 120.554 133.647C120.554 133.647 114.215 128.112 115.049 123.91C115.883 119.707 116.383 118.272 115.605 114.838C115.16 112.737 116.55 110.482 118.607 108.893C118.941 108.534 121.276 106.228 125.224 106.587C129.506 106.945 133.009 104.793 134.844 109.764C135.067 110.584 134.399 110.789 134.566 111.763C135.233 114.018 135.122 120.373 135.456 125.088C135.678 128.727 133.788 132.059 131.341 133.647Z"
        fill="#F9D5C7" />
      <path
        d="M115.271 119.451C115.271 119.451 115.716 124.114 116.884 124.114C118.051 124.114 117.106 117.349 117.106 117.349C117.106 117.349 122.611 113.095 122.833 110.584C123.056 108.073 126.281 115.248 135.678 113.147L135.901 106.792L127.838 105.715L121.666 105.459L115.438 109.918L112.658 115.658L115.271 119.451Z"
        fill="#A5680D" />
      <path
        d="M123.668 194.687C123.946 192.637 123.834 190.638 123.834 188.588C123.834 188.383 124.168 188.332 124.224 188.537C124.724 190.587 124.502 192.739 124.057 194.789C124.001 194.994 123.612 194.892 123.668 194.687Z"
        fill="#485B78" />
      <path
        d="M119.775 188.281C118.719 190.433 116.772 192.944 114.215 193.662C113.992 193.713 113.77 193.457 113.992 193.303C114.993 192.586 116.105 192.022 117.05 191.151C118.051 190.228 118.83 189.254 119.497 188.076C119.553 187.871 119.886 188.076 119.775 188.281Z"
        fill="#485B78" />
      <path
        d="M133.343 193.816C132.286 193.098 131.341 192.33 130.34 191.561C129.395 190.792 128.283 190.075 127.56 189.101C127.449 188.947 127.671 188.793 127.838 188.845C128.894 189.357 129.784 190.228 130.674 190.946C131.675 191.766 132.731 192.586 133.621 193.457C133.732 193.662 133.51 193.97 133.343 193.816Z"
        fill="#485B78" />
      <path
        d="M130.006 230.973C129.562 231.127 129.061 231.075 128.616 231.075C128.172 231.075 127.782 231.127 127.337 230.922C127.226 230.87 127.226 230.665 127.337 230.614C127.727 230.46 128.172 230.46 128.616 230.46C129.061 230.46 129.562 230.409 130.006 230.563C130.173 230.717 130.173 230.922 130.006 230.973Z"
        fill="#485B78" />
      <path
        d="M130.952 229.333C129.951 229.487 128.95 229.794 127.949 229.794C127.727 229.794 127.671 229.487 127.894 229.435C128.839 229.128 129.895 229.077 130.841 228.974C131.063 228.923 131.23 229.282 130.952 229.333Z"
        fill="#485B78" />
      <path
        d="M115.605 230.409C115.215 230.461 114.882 230.512 114.493 230.512C114.159 230.512 113.825 230.563 113.603 230.358C113.547 230.307 113.547 230.204 113.603 230.102C113.825 229.897 114.215 229.948 114.493 229.948C114.882 229.948 115.215 229.948 115.605 230.051C115.771 230.051 115.771 230.358 115.605 230.409Z"
        fill="#485B78" />
      <path
        d="M116.272 228.615C115.271 228.923 113.77 229.179 112.769 228.871C112.602 228.82 112.602 228.615 112.769 228.564C113.325 228.41 113.881 228.461 114.381 228.41C114.993 228.359 115.605 228.308 116.216 228.256C116.439 228.308 116.439 228.564 116.272 228.615Z"
        fill="#485B78" />
      <path
        d="M106.041 155.326C105.151 154.045 104.873 152.508 103.928 151.226C102.871 149.842 101.537 148.817 100.091 147.741C99.8684 147.587 100.146 147.331 100.369 147.434C101.981 148.151 103.316 149.381 104.317 150.765C105.206 151.944 106.43 153.789 106.207 155.326C106.207 155.378 106.096 155.378 106.041 155.326Z"
        fill="white" />
      <path
        d="M137.458 156.761C137.791 152.764 137.013 149.484 135.011 145.896C134.9 145.64 135.233 145.435 135.4 145.691C137.736 148.817 138.625 153.071 137.791 156.813C137.791 156.966 137.458 156.915 137.458 156.761Z"
        fill="white" />
      <path
        d="M120.164 163.27C117.551 163.629 114.381 163.68 111.99 162.501C111.768 162.399 111.935 162.143 112.157 162.143C114.882 162.553 117.329 163.065 120.109 162.809C120.387 162.758 120.442 163.219 120.164 163.27Z"
        fill="white" />
      <path
        d="M123.612 120.373C123.612 120.834 124.001 121.244 124.502 121.244C125.002 121.244 125.391 120.834 125.391 120.373C125.391 119.911 125.002 119.501 124.502 119.501C124.001 119.501 123.612 119.911 123.612 120.373Z"
        fill="#A5680D" />
      <path
        d="M130.451 120.117C130.451 120.578 130.841 120.988 131.341 120.988C131.841 120.988 132.231 120.578 132.231 120.117C132.231 119.656 131.841 119.246 131.341 119.246C130.896 119.246 130.451 119.656 130.451 120.117Z"
        fill="#A5680D" />
      <path
        d="M114.548 122.474C113.659 121.808 112.769 121.142 111.768 120.629C111.434 120.476 111.712 120.014 112.046 120.168C113.047 120.732 114.048 121.398 114.826 122.218C115.049 122.372 114.771 122.628 114.548 122.474Z"
        fill="#D97F5D" />
      <path
        d="M125.391 126.984C125.669 126.728 126.114 126.779 126.448 126.83C127.56 126.984 128.672 127.138 129.728 127.292C130.284 127.343 130.896 127.599 131.007 128.214C131.063 128.829 130.507 129.239 130.006 129.393C129.061 129.7 128.06 129.752 127.059 129.495C126.559 129.393 125.614 128.932 125.28 128.47C125.002 128.009 125.002 127.292 125.391 126.984Z"
        fill="#932B0A" />
      <path
        d="M125.669 117.811C125.28 118.169 124.835 118.221 124.335 118.272C124.168 118.272 123.723 118.374 123.389 118.477C122.722 118.682 121.888 118.272 121.721 117.606C121.554 116.991 121.944 116.171 122.667 116.068C123.667 115.914 125.28 115.812 125.836 116.786C126.003 117.093 125.947 117.503 125.669 117.811Z"
        fill="#A5680D" />
      <path
        d="M132.342 117.964C132.064 117.964 131.786 118.118 131.508 118.118C131.23 118.118 130.952 118.169 130.674 118.169C130.062 118.118 129.506 117.708 129.506 117.093C129.506 116.529 130.007 116.017 130.674 116.017C131.007 116.017 131.397 116.068 131.73 116.17C132.008 116.222 132.286 116.375 132.564 116.427C132.954 116.478 133.232 116.939 133.176 117.298C133.12 117.708 132.787 117.964 132.342 117.964Z"
        fill="#A5680D" />
      <path
        d="M121.666 123.038C122.055 122.423 123.334 122.167 124.223 122.423C124.39 122.423 124.557 122.474 124.724 122.577C125.447 122.935 125.28 123.755 124.78 124.165C124.557 124.37 124.279 124.473 123.945 124.524C123.501 124.627 123 124.627 122.555 124.524C121.832 124.319 121.276 123.704 121.666 123.038Z"
        fill="#F9BAA2" />
      <path
        d="M131.452 122.782C131.842 122.167 133.12 121.91 134.01 122.167C134.177 122.167 134.344 122.218 134.511 122.32C135.233 122.679 135.067 123.499 134.566 123.909C134.344 124.114 134.066 124.217 133.732 124.268C133.287 124.37 132.787 124.37 132.342 124.268C131.619 124.063 131.063 123.448 131.452 122.782Z"
        fill="#F9BAA2" />
      <path
        d="M128.283 119.604C128.227 120.373 128.227 121.09 128.283 121.859C128.338 122.269 128.283 123.192 128.561 123.551C128.894 124.012 129.228 123.858 129.673 123.653C130.062 123.499 131.285 122.628 131.73 123.038C132.175 123.448 131.563 124.217 131.285 124.524C130.618 125.293 129.506 125.806 128.45 125.908C128.283 125.908 128.171 125.652 128.338 125.601C128.894 125.344 129.45 125.191 129.951 124.883C130.229 124.678 130.896 124.319 131.007 123.961C131.119 123.551 131.007 123.704 130.674 123.807C130.062 123.961 129.172 124.729 128.45 124.524C127.893 124.319 127.949 123.704 127.838 123.243C127.671 122.064 127.615 120.834 127.782 119.655C127.893 119.348 128.338 119.348 128.283 119.604Z"
        fill="#D97F5D" />
      <path
        d="M102.315 266.541C102.371 266.746 102.537 266.849 102.76 266.849L103.483 266.746C103.705 266.695 103.816 266.541 103.816 266.336L103.427 264.184L101.926 264.44L102.315 266.541Z"
        fill="#EA5B44" />
      <path
        d="M101.537 248.962L101.036 249.065L98.5338 249.475L97.9778 249.526L98.8119 252.909L100.536 259.879L101.648 264.389L101.926 264.338L103.427 264.133L103.705 264.081L103.038 259.469L102.037 252.396L101.537 248.962Z"
        fill="#DB9030" />
      <path opacity="0.2"
        d="M103.427 264.132L101.926 264.337L102.093 265.311L103.594 265.055L103.427 264.132Z"
        fill="#EA5B44" />
      <path opacity="0.2"
        d="M103.038 259.469L100.536 259.879L100.814 260.955L103.205 260.596L103.038 259.469Z"
        fill="#EA5B44" />
      <path
        d="M78.4047 121.808C77.515 120.424 75.2352 120.783 74.9015 122.372C73.845 127.19 72.8441 136.722 75.68 151.688L77.4594 151.38L79.628 151.021L82.0746 150.611H82.1302L84.2988 150.253L85.9114 149.996C88.1356 161.528 89.6926 167.473 90.6935 170.497C90.9159 171.112 91.9168 170.958 91.8612 170.292C91.1939 162.194 88.4693 149.586 88.4693 149.586C85.689 134.672 81.1849 126.011 78.4047 121.808Z"
        fill="#EA5B44" />
      <path
        d="M87.246 177.057L82.1859 150.663H82.1303L79.6281 151.073L84.7437 177.467L87.246 177.057Z"
        fill="#F0F0F0" />
      <path d="M87.217 177.051L84.6982 177.461L98.5032 249.427L101.022 249.017L87.217 177.051Z"
        fill="#EA5B44" />
      <path
        d="M103.038 259.469L104.484 259.212L103.872 252.088L84.3544 150.304L82.1858 150.662L87.2459 177.057L101.036 249.065L101.536 248.962L102.037 252.396"
        fill="#FEFDF9" />
      <path
        d="M98.8118 252.909L97.9777 249.526L98.5338 249.475L84.7437 177.467L79.628 151.073L77.4594 151.38L96.9768 253.216L99.0898 260.135L100.536 259.879"
        fill="#FEFDF9" />
      <path opacity="0.2"
        d="M84.3544 150.304L82.1858 150.662H82.1302L79.628 151.072L77.4594 151.38L78.1822 155.019L85.0217 153.84L84.3544 150.304Z"
        fill="#EA5B44" />
      <path
        d="M71.6762 150.662C71.7874 149.945 72.0098 149.278 72.5103 148.817C73.0663 148.253 73.956 147.946 74.7901 147.843C76.1246 147.638 80.295 146.46 80.9067 148.253C81.1291 148.868 76.069 150.047 76.069 150.047C76.069 150.047 81.0735 150.15 81.4627 151.021C81.852 151.841 76.8475 152.969 76.8475 152.969C76.8475 152.969 79.6834 152.969 80.017 153.789C80.2394 154.352 75.5686 155.736 73.7892 155.019C72.2322 154.352 71.4538 152.354 71.6762 150.662Z"
        fill="#F9D5C7" />
    </g>
  </g>
  <defs>
    <clipPath id="clip0_87_40894">
      <rect width="395" height="321" fill="white" />
    </clipPath>
    <clipPath id="clip1_87_40894">
      <rect width="105.261" height="170" fill="white" transform="translate(71.6208 101)" />
    </clipPath>
  </defs>
</svg>
  