<svg width="15" height="15" viewBox="0 0 15 15" fill="none" xmlns="http://www.w3.org/2000/svg">
    <g clip-path="url(#clip0_189_4233)">
        <path d="M13.8445 9.41365C13.638 9.41365 13.4708 9.58171 13.4708 9.78924V13.1229C13.4701 13.7447 12.9688 14.2489 12.3501 14.2492H1.86771C1.249 14.2485 0.747756 13.7447 0.747007 13.1229V3.33854C0.747756 2.7167 1.249 2.21292 1.86771 2.21216H5.18454C5.39102 2.21216 5.55823 2.04411 5.55823 1.83658C5.55823 1.62943 5.39102 1.461 5.18454 1.461H1.86771C0.836783 1.46213 0.00112219 2.30202 0 3.33854V13.1229C0.00112219 14.1594 0.836783 14.9989 1.86771 15H12.3497C13.381 14.9989 14.2163 14.159 14.2175 13.1229V9.78886C14.2178 9.58171 14.0506 9.41365 13.8445 9.41365Z" fill="#EA5B44" />
        <path
            d="M14.07 0.494734C13.4135 -0.165074 12.3489 -0.165074 11.6925 0.494734L5.02774 7.19357C4.9821 7.23943 4.94918 7.2962 4.93198 7.35899L4.05554 10.5392C4.01963 10.6697 4.05629 10.8092 4.1513 10.905C4.24669 11.0005 4.38547 11.0374 4.51527 11.0013L7.67948 10.1204C7.74158 10.1031 7.79844 10.07 7.84407 10.0242L14.5084 3.32495C15.1638 2.66477 15.1638 1.59592 14.5084 0.935357L14.07 0.494734ZM5.8417 7.43756L11.2963 1.95496L13.0555 3.72309L7.60056 9.2057L5.8417 7.43756ZM5.49008 8.14625L6.89544 9.5591L4.95143 10.1005L5.49008 8.14625ZM13.9802 2.7941L13.5841 3.19224L11.8249 1.4241L12.2214 1.02596C12.5861 0.659404 13.1775 0.659404 13.5422 1.02596L13.9802 1.46621C14.3442 1.83352 14.3442 2.42716 13.9802 2.7941Z"
            fill="#EA5B44" />
    </g>
    <defs>
        <clipPath id="clip0_189_4233">
            <rect width="15" height="15" fill="white" />
        </clipPath>
    </defs>
</svg>
