<svg width="45" height="36" viewBox="0 0 45 36" fill="none" xmlns="http://www.w3.org/2000/svg">
  <g clip-path="url(#clip0_1731_14445)">
    <path opacity="0.1"
      d="M44.4736 10.8237C44.4736 6.61233 41.0993 3.19849 36.9368 3.19849C33.7122 3.19849 30.9619 5.24765 29.8859 8.12948H2.63492C1.47049 8.12948 0.527344 9.0837 0.527344 10.2618V33.8677C0.527344 35.0458 1.47049 36 2.63492 36H39.7684C40.9328 36 41.876 35.0458 41.876 33.8677V16.5809C43.4661 15.1832 44.4736 13.1234 44.4736 10.8237Z"
      fill="#485B78" />
    <path
      d="M39.7684 33.3346H2.63492C1.47049 33.3346 0.527344 32.3804 0.527344 31.2023V7.59643C0.527344 6.41833 1.47049 5.46411 2.63492 5.46411H39.7684C40.9328 5.46411 41.876 6.41833 41.876 7.59643V31.2023C41.876 32.3804 40.9318 33.3346 39.7684 33.3346Z"
      fill="#EA5B44" />
    <path
      d="M41.8761 7.59643V16.6055C40.5536 17.7665 38.8275 18.4702 36.9381 18.4702C32.7756 18.4702 29.4014 15.0564 29.4014 10.8461C29.4014 8.74576 30.2412 6.84266 31.5996 5.46411H39.7686C40.9319 5.46518 41.8761 6.41939 41.8761 7.59643Z"
      fill="#E2B3AB" />
    <path
      d="M41.876 7.59643V10.2842L23.128 24.8555C22.5779 25.283 21.894 25.5175 21.2017 25.5175C20.5093 25.5175 19.8254 25.283 19.2753 24.8555L0.527344 10.2842V7.59643C0.527344 6.41833 1.47154 5.46411 2.63492 5.46411H39.7684C40.9318 5.46411 41.876 6.41833 41.876 7.59643Z"
      fill="#E2B3AB" />
    <path
      d="M21.8434 15.6331L41.876 31.2012C41.876 32.3793 40.9328 33.3335 39.7684 33.3335H2.63492C1.47049 33.3335 0.527344 32.3793 0.527344 31.2012L20.5599 15.6331C20.9382 15.3399 21.4651 15.3399 21.8434 15.6331Z"
      fill="#E2B3AB" />
    <path
      d="M28.4192 20.7433L23.1281 24.8555C22.578 25.283 21.8941 25.5176 21.2018 25.5176C20.5094 25.5176 19.8255 25.283 19.2755 24.8555L13.9844 20.7433L20.56 15.6332C20.9383 15.3389 21.4652 15.3389 21.8435 15.6332L28.4192 20.7433Z"
      fill="#EA5B44" />
    <path
      d="M20.5599 23.1656L0.527344 7.59643C0.527344 6.41833 1.47049 5.46411 2.63492 5.46411H39.7684C40.9328 5.46411 41.876 6.41833 41.876 7.59643L21.8434 23.1656C21.4651 23.4588 20.9382 23.4588 20.5599 23.1656Z"
      fill="#EA5B44" />
    <path
      d="M36.9371 15.7835C41.0995 15.7835 44.4738 12.3695 44.4738 8.15827C44.4738 3.94699 41.0995 0.533081 36.9371 0.533081C32.7747 0.533081 29.4004 3.94699 29.4004 8.15827C29.4004 12.3695 32.7747 15.7835 36.9371 15.7835Z"
      fill="#EA5B44" />
    <path
      d="M36.9375 16.3155C41.3834 16.3155 45.0011 12.6564 45.0011 8.1572C45.0011 3.658 41.3834 0 36.9375 0C32.4915 0 28.8738 3.65906 28.8738 8.15827C28.8738 10.7746 30.0994 13.1063 31.9983 14.6L21.5216 22.7423C21.3329 22.8894 21.0684 22.8894 20.8798 22.7423L1.07276 7.34798C1.19078 6.58355 1.84624 5.99716 2.63448 5.99716H26.8053C27.0961 5.99716 27.3322 5.75834 27.3322 5.46408C27.3322 5.16982 27.0961 4.931 26.8053 4.931H2.63448C1.1813 4.931 0 6.12616 0 7.5964V31.2023C0 32.6714 1.1813 33.8677 2.63448 33.8677H39.7679C41.2201 33.8677 42.4024 32.6714 42.4024 31.2023V17.114C42.4024 16.8198 42.1664 16.5809 41.8755 16.5809C41.5847 16.5809 41.3486 16.8198 41.3486 17.114V30.1201L27.5535 19.3999L32.9215 15.228C34.1049 15.9189 35.4758 16.3155 36.9375 16.3155ZM14.849 19.3999L1.05379 30.1201V8.67855L14.849 19.3999ZM41.3275 31.4486C41.2095 32.213 40.5562 32.8015 39.7679 32.8015H2.63448C1.84624 32.8015 1.19289 32.2141 1.07487 31.4486L15.7141 20.0716L20.238 23.5877C20.5215 23.8084 20.8608 23.9183 21.2012 23.9183C21.5416 23.9183 21.8809 23.8084 22.1644 23.5877L26.6883 20.0716L41.3275 31.4486ZM29.9276 8.15827C29.9276 4.24759 33.0721 1.06616 36.9375 1.06616C40.8028 1.06616 43.9473 4.24759 43.9473 8.15827C43.9473 12.0689 40.8028 15.2504 36.9375 15.2504C33.0721 15.2493 29.9276 12.0679 29.9276 8.15827Z"
      fill="#485B78" />
    <path
      d="M33.6477 5.55786L34.7236 8.15822L33.6477 10.7586C33.4654 11.2 33.9059 11.6424 34.3411 11.4548L40.8346 8.64866C41.2614 8.46421 41.2614 7.85223 40.8346 7.66779L34.3411 4.86165C33.9059 4.67401 33.4654 5.11647 33.6477 5.55786Z"
      fill="white" />
    <path
      d="M37.1769 8.65506L33.9386 10.0549L34.7226 8.15717L33.9375 6.2594L37.1758 7.65927C37.5805 7.83519 37.5805 8.48235 37.1769 8.65506Z"
      fill="#FFDBED" />
  </g>
  <defs>
    <clipPath id="clip0_1731_14445">
      <rect width="45" height="36" fill="white" />
    </clipPath>
  </defs>
</svg>