<svg width="20" height="21" viewBox="0 0 20 21" fill="none" xmlns="http://www.w3.org/2000/svg">
<g clip-path="url(#clip0_129_1848)">
<path d="M17.5 0.77002H2.5C1.12109 0.77002 0 1.89111 0 3.27002V18.27C0 19.6489 1.12109 20.77 2.5 20.77H17.5C18.8789 20.77 20 19.6489 20 18.27V3.27002C20 1.89111 18.8789 0.77002 17.5 0.77002Z" fill="#1976D2"/>
<path d="M16.875 10.77H13.75V8.27002C13.75 7.58018 14.3102 7.64502 15 7.64502H16.25V4.52002H13.75C11.6789 4.52002 10 6.19893 10 8.27002V10.77H7.5V13.895H10V20.77H13.75V13.895H15.625L16.875 10.77Z" fill="#FAFAFA"/>
</g>
<defs>
<clipPath id="clip0_129_1848">
<rect width="20" height="20" fill="white" transform="translate(0 0.77002)"/>
</clipPath>
</defs>
</svg>
