<svg width="17" height="23" viewBox="0 0 17 23" fill="none" xmlns="http://www.w3.org/2000/svg">
    <path d="M0.758789 21.3006H16.0443V4.07251H10.5465H0.758789V21.3006Z" stroke="#97A0AD" stroke-width="1.5" stroke-miterlimit="10"/>
    <path d="M10.7052 2.4359H9.70312V0.626953H6.16199V2.4359H5.12598V4.08119H10.7052V2.86661" fill="#97A0AD"/>
    <path d="M8.46193 13.5481C10.1034 13.5481 11.4341 12.1983 11.4341 10.5332C11.4341 8.86814 10.1034 7.51831 8.46193 7.51831C6.82044 7.51831 5.48975 8.86814 5.48975 10.5332C5.48975 12.1983 6.82044 13.5481 8.46193 13.5481Z" fill="#97A0AD"/>
    <path d="M2.94238 17.855H13.9819C13.9819 15.9532 12.2105 14.4094 10.0282 14.4094H6.90288C4.71383 14.4094 2.94238 15.9532 2.94238 17.855Z" fill="#97A0AD"/>
</svg>
