<svg width="18" height="22" viewBox="0 0 18 22" fill="none" xmlns="http://www.w3.org/2000/svg">
    <path d="M1 20.6739H16.2855V3.4458H10.7877H1V20.6739Z" stroke="white" stroke-width="1.5" stroke-miterlimit="10"/>
    <mask id="path-2-inside-1_910_272" fill="white">
        <path d="M10.9465 1.80895H9.94446V0H6.40332V1.80895H5.36731V3.45424H10.9465V2.23965"/>
    </mask>
    <path d="M10.9465 1.80895H9.94446V0H6.40332V1.80895H5.36731V3.45424H10.9465V2.23965" fill="white"/>
    <path d="M9.94446 1.80895H8.94446V2.80895H9.94446V1.80895ZM9.94446 0H10.9445V-1H9.94446V0ZM6.40332 0V-1H5.40332V0H6.40332ZM6.40332 1.80895V2.80895H7.40332V1.80895H6.40332ZM5.36731 1.80895V0.808951H4.36731V1.80895H5.36731ZM5.36731 3.45424H4.36731V4.45424H5.36731V3.45424ZM10.9465 3.45424V4.45424H11.9465V3.45424H10.9465ZM10.9465 0.808951H9.94446V2.80895H10.9465V0.808951ZM10.9445 1.80895V0H8.94446V1.80895H10.9445ZM9.94446 -1H6.40332V1H9.94446V-1ZM5.40332 0V1.80895H7.40332V0H5.40332ZM6.40332 0.808951H5.36731V2.80895H6.40332V0.808951ZM4.36731 1.80895V3.45424H6.36731V1.80895H4.36731ZM5.36731 4.45424H10.9465V2.45424H5.36731V4.45424ZM11.9465 3.45424V2.23965H9.9465V3.45424H11.9465Z" fill="white" mask="url(#path-2-inside-1_910_272)"/>
    <path d="M11.1756 9.90603C11.1756 11.3017 10.062 12.421 8.70338 12.421C7.34474 12.421 6.2312 11.3017 6.2312 9.90603C6.2312 8.51033 7.34474 7.39111 8.70338 7.39111C10.062 7.39111 11.1756 8.51033 11.1756 9.90603Z" fill="white" stroke="white"/>
    <path d="M10.2694 14.2827C12.0287 14.2827 13.3967 15.3818 13.6723 16.7283H3.73445C4.01014 15.3822 5.3783 14.2827 7.14409 14.2827H10.2694Z" fill="white" stroke="white"/>
</svg>
