<svg width="14" height="12" viewBox="0 0 14 12" fill="none" xmlns="http://www.w3.org/2000/svg">
  <g clip-path="url(#clip0_544_16018)">
    <path
      d="M8.53125 11.375H1.09375C0.49 11.3742 0.000820312 10.885 0 10.2812V3.28125C0 3.16039 0.0978906 3.0625 0.21875 3.0625H3.5C3.55797 3.0625 3.61375 3.08547 3.65477 3.12648L4.68426 4.15625H8.53125C9.135 4.15707 9.62418 4.64625 9.625 5.25V10.2812C9.62418 10.885 9.135 11.3742 8.53125 11.375ZM0.4375 3.5V10.2812C0.4375 10.6436 0.731445 10.9375 1.09375 10.9375H8.53125C8.89355 10.9375 9.1875 10.6436 9.1875 10.2812V5.25C9.1875 4.8877 8.89355 4.59375 8.53125 4.59375H4.59375C4.53578 4.59375 4.48 4.57078 4.43898 4.52977L3.40949 3.5H0.4375Z"
      fill="#485B78" />
    <path
      d="M11.5938 10.5H9.40625V10.0625H11.375V1.96875H5.25V4.375H4.8125V1.75C4.8125 1.62914 4.91039 1.53125 5.03125 1.53125H11.5938C11.7146 1.53125 11.8125 1.62914 11.8125 1.75V10.2812C11.8125 10.4021 11.7146 10.5 11.5938 10.5Z"
      fill="#485B78" />
    <path
      d="M13.7812 8.96875H11.5938V8.53125H13.5625V0.4375H7.4375V1.75H7V0.21875C7 0.0978906 7.09789 0 7.21875 0H13.7812C13.9021 0 14 0.0978906 14 0.21875V8.75C14 8.87086 13.9021 8.96875 13.7812 8.96875Z"
      fill="#485B78" />
    <path d="M5.6875 2.40625H6.125V2.84375H5.6875V2.40625Z" fill="#485B78" />
    <path d="M6.5625 2.40625H8.3125V2.84375H6.5625V2.40625Z" fill="#485B78" />
    <path d="M5.6875 3.28125H10.9375V3.71875H5.6875V3.28125Z" fill="#485B78" />
    <path
      d="M5.03125 10.5H1.09375C0.972891 10.5 0.875 10.4021 0.875 10.2812V8.96875C0.875 8.84789 0.972891 8.75 1.09375 8.75H5.03125C5.15211 8.75 5.25 8.84789 5.25 8.96875V10.2812C5.25 10.4021 5.15211 10.5 5.03125 10.5ZM1.3125 10.0625H4.8125V9.1875H1.3125V10.0625Z"
      fill="#485B78" />
    <path d="M1.75 9.40625H2.1875V9.84375H1.75V9.40625Z" fill="#485B78" />
    <path d="M2.625 9.40625H4.375V9.84375H2.625V9.40625Z" fill="#485B78" />
    <path
      d="M4.87648 3.65477L3.84699 2.625H1.3125V3.28125H0.875V2.40625C0.875 2.28539 0.972891 2.1875 1.09375 2.1875H3.9375C3.99547 2.1875 4.05125 2.21047 4.09227 2.25148L5.18602 3.34523L4.87648 3.65477Z"
      fill="#485B78" />
  </g>
  <defs>
    <clipPath id="clip0_544_16018">
      <rect width="14" height="11.375" fill="white" />
    </clipPath>
  </defs>
</svg>