<svg width="15" height="15" viewBox="0 0 15 15" fill="none" xmlns="http://www.w3.org/2000/svg">
    <g clip-path="url(#clip0_244_9278)">
        <path
            d="M1.33217 6.49303C1.15548 6.43326 0.962378 6.44644 0.795357 6.52966L0.390403 6.73126C0.0431739 6.90443 -0.0986479 7.32609 0.073355 7.6739L1.4822 10.5153C1.56454 10.6829 1.71075 10.8104 1.88803 10.869C2.06501 10.9288 2.25841 10.9156 2.42572 10.8321L2.83097 10.6305C3.09293 10.5015 3.24706 10.2232 3.21717 9.9325L5.08605 9.00539C5.15843 9.07278 5.24399 9.12377 5.33746 9.15541C5.51474 9.21548 5.70843 9.202 5.87545 9.11791L6.33696 8.88847C6.38853 9.08568 6.46413 9.27585 6.562 9.45459L5.03888 14.0152C4.9079 14.4087 5.12092 14.8339 5.51445 14.9648C5.90797 15.0958 6.33315 14.8828 6.46413 14.4893L7.77627 10.554C7.85011 10.5856 7.92542 10.6135 8.00248 10.6375V14.2534C8.00248 14.6677 8.33828 15.0035 8.75262 15.0035C9.16695 15.0035 9.50275 14.6677 9.50275 14.2534V10.6375C9.57952 10.6126 9.65512 10.5856 9.72779 10.5543L11.0388 14.4884C11.1407 14.7958 11.4282 15.0032 11.752 15.0035C12.1663 15.0035 12.5021 14.6677 12.5024 14.2537C12.5024 14.1731 12.4895 14.0928 12.464 14.0163L10.9421 9.45576C11.3464 8.7235 11.3561 7.83682 10.967 7.09607L12.5481 6.31107C12.6316 6.46871 12.7723 6.58826 12.9413 6.64511C13.118 6.70489 13.3111 6.6917 13.4779 6.60848L14.291 6.20499C14.5614 6.06815 14.7138 5.77338 14.6693 5.47362C15.2521 4.9368 14.9992 3.50686 14.4126 2.32306C14.1178 1.70039 13.707 1.13985 13.2021 0.671306C12.7896 0.313236 12.394 0.158814 12.0617 0.215367C11.8513 -0.00557031 11.5214 -0.0632953 11.2486 0.0735452L10.4346 0.477327C10.0958 0.647865 9.95283 1.05604 10.1114 1.40063L6.88637 3.00082C6.62353 3.12916 6.46881 3.40812 6.499 3.69908L3.83867 5.01768C3.577 5.1469 3.42287 5.42497 3.45217 5.71565L1.58417 6.64364C1.51179 6.57596 1.42594 6.52468 1.33217 6.49303ZM4.51906 7.97073L4.82058 8.57846L3.0355 9.46426L1.84876 7.07058L3.63209 6.18478L4.51906 7.97073ZM2.71054 10.0649C2.69354 10.1162 2.65662 10.1587 2.60798 10.1827L2.20303 10.3843C2.15468 10.4087 2.09871 10.4125 2.04743 10.3952C1.99645 10.3782 1.95455 10.3416 1.93081 10.2935L0.521676 7.45179C0.47157 7.35158 0.512006 7.22969 0.612512 7.17929H0.612805L1.01776 6.97681C1.06611 6.95249 1.12237 6.94868 1.17365 6.96597C1.22463 6.98296 1.26653 7.01959 1.29027 7.06765L2.69911 9.90936V9.91053C2.72314 9.95858 2.72753 10.014 2.71054 10.0649ZM8.75144 6.25158C9.85613 6.25158 10.7519 7.14705 10.7519 8.25203C10.7519 9.35701 9.85642 10.2525 8.75144 10.2525C7.64646 10.2525 6.75099 9.35701 6.75099 8.25203C6.75246 7.14793 7.64734 6.25305 8.75144 6.25158ZM5.98885 14.3307C5.96804 14.394 5.92321 14.4465 5.86373 14.4764C5.80454 14.5063 5.73626 14.5109 5.67356 14.4898C5.60968 14.4688 5.55723 14.423 5.52763 14.363C5.49775 14.3044 5.49306 14.2361 5.51415 14.174L6.9227 9.95214C7.04548 10.0849 7.18232 10.2041 7.33059 10.3076L5.98885 14.3307ZM9.00168 14.2531C9.00168 14.3911 8.88975 14.503 8.75174 14.503C8.61372 14.503 8.50179 14.3911 8.50179 14.2531V10.7398C8.66793 10.7568 8.83554 10.7568 9.00198 10.7398V14.2531H9.00168ZM11.9893 14.1749C12.0101 14.237 12.0051 14.3047 11.9755 14.3633C11.9149 14.4872 11.7652 14.5388 11.6412 14.4781C11.5806 14.4485 11.5343 14.3955 11.5135 14.331L10.1726 10.3073C10.3209 10.2041 10.4577 10.0852 10.5808 9.95243L11.9893 14.1749ZM13.9649 2.54781C14.499 3.6229 14.5858 4.5128 14.4398 4.92508L12.3588 0.731376C12.5496 0.802579 12.7242 0.910118 12.8737 1.04842C13.3293 1.47389 13.6997 1.98199 13.9652 2.54605L13.9649 2.54781ZM10.6578 0.925648L11.4707 0.522159C11.4982 0.508387 11.5287 0.501062 11.5597 0.500769C11.582 0.500769 11.604 0.504578 11.6254 0.51161C11.6767 0.529192 11.7192 0.566405 11.7429 0.615047L14.1594 5.48504C14.2089 5.58526 14.1685 5.70686 14.0686 5.75726L13.2558 6.16045C13.1561 6.21056 13.0345 6.17071 12.9844 6.07108C12.9841 6.0705 12.9838 6.0702 12.9838 6.06962L12.8839 5.86949C12.8839 5.86802 12.8839 5.86656 12.8827 5.86509L11.2316 2.53697L10.5673 1.19728C10.5181 1.09706 10.5585 0.976341 10.6578 0.925648ZM7.00534 3.56635C7.02233 3.51536 7.05925 3.47346 7.1076 3.45002L10.3317 1.84983L10.7182 2.62839L12.3237 5.86421L10.6898 6.67529C10.0618 5.89791 9.02952 5.57207 8.069 5.84868L7.01559 3.72341C6.99186 3.67418 6.98805 3.61792 7.00534 3.56635ZM3.95851 5.5835C3.9758 5.53193 4.01301 5.48944 4.06165 5.46541L6.67803 4.1688L7.6031 6.03358C6.77356 6.46256 6.25198 7.31788 6.25081 8.25203C6.25081 8.29218 6.25491 8.33086 6.25667 8.37041L5.65129 8.67047C5.60294 8.69508 5.54668 8.69918 5.4954 8.6816C5.445 8.66519 5.40339 8.62915 5.37966 8.58168L5.07521 7.96634L3.97052 5.73733C3.94562 5.68986 3.94152 5.63448 3.95851 5.5835Z"
            fill="#F44336" />
        <path
            d="M8.75138 8.50198C8.88939 8.50198 9.00132 8.61421 9.00103 8.75222C9.00074 8.89023 8.8888 9.00217 8.75079 9.00217C8.66142 9.00217 8.57908 8.9544 8.53454 8.87705C8.4692 8.75544 8.31742 8.71002 8.19581 8.77537C8.07421 8.84071 8.02879 8.9925 8.09413 9.1141C8.09648 9.11849 8.09911 9.12289 8.10175 9.12729C8.19259 9.27936 8.33412 9.39452 8.50172 9.45224V9.50235C8.50172 9.64036 8.61366 9.7523 8.75167 9.7523C8.88968 9.7523 9.00162 9.64036 9.00162 9.50235V9.45635C9.39133 9.31892 9.59615 8.8917 9.45873 8.50198C9.35295 8.20193 9.06901 8.0015 8.75079 8.00209C8.61278 8.00209 8.50085 7.88986 8.50114 7.75185C8.50114 7.61384 8.61337 7.5019 8.75138 7.5019C8.84075 7.5019 8.92309 7.54966 8.96763 7.62702C9.03297 7.74863 9.18475 7.79404 9.30636 7.7287C9.42796 7.66336 9.47338 7.51157 9.40804 7.38997C9.40569 7.38557 9.40305 7.38118 9.40042 7.37678C9.30987 7.2247 9.16835 7.10955 9.00074 7.05182V7.00172C9.00074 6.8637 8.8888 6.75177 8.75079 6.75177C8.61278 6.75177 8.50085 6.8637 8.50085 7.00172V7.04772C8.11113 7.18515 7.90631 7.61237 8.04373 8.00209C8.14981 8.30214 8.43345 8.50257 8.75138 8.50198Z"
            fill="#F44336" />
    </g>
    <defs>
        <clipPath id="clip0_244_9278">
            <rect width="15" height="15.0032" fill="white" />
        </clipPath>
    </defs>
</svg>
