<svg width="15" height="15" viewBox="0 0 15 15" fill="none" xmlns="http://www.w3.org/2000/svg">
    <g clip-path="url(#clip0_244_9227)">
        <path
            d="M14.0789 6.49729C14.0203 4.78836 13.344 3.19051 12.1567 1.97544C10.9124 0.701318 9.25844 0 7.50015 0C3.9483 0 1.04642 2.89309 0.921449 6.49729C0.379402 6.74361 0 7.29897 0 7.94398V9.72176C0 10.5947 0.693927 11.3049 1.54691 11.3049C2.09882 11.3049 2.54789 10.8453 2.54789 10.2805V7.38495C2.54789 6.85437 2.15025 6.42201 1.64497 6.37061C1.83154 3.23059 4.3857 0.734364 7.50015 0.734364C9.06739 0.734364 10.5408 1.35949 11.65 2.4947C12.6683 3.53688 13.2644 4.89546 13.3541 6.37092C12.8492 6.42293 12.4524 6.85498 12.4524 7.38495V10.2802C12.4524 10.815 12.856 11.2502 13.3676 11.2954V12.0271C13.3676 12.8511 12.7125 13.5212 11.9074 13.5212H10.826C10.7728 13.366 10.6896 13.2225 10.573 13.1035C10.3685 12.8933 10.0959 12.7773 9.80557 12.7773H8.69098C8.53102 12.7773 8.37735 12.8122 8.23683 12.8792C7.85324 13.0597 7.60539 13.4557 7.60539 13.8884C7.60539 14.1855 7.7184 14.4645 7.9235 14.6735C8.1286 14.8837 8.40127 14.9997 8.69098 14.9997H9.80557C10.2678 14.9997 10.675 14.694 10.8269 14.2558H11.9074C13.1084 14.2558 14.0851 13.2562 14.0851 12.0274V11.1651C14.6239 10.9172 15.0003 10.364 15.0003 9.72145V7.94368C15 7.29897 14.6206 6.74361 14.0789 6.49729ZM1.83034 7.38495V10.2802C1.83034 10.4399 1.70327 10.5703 1.54691 10.5703C1.08947 10.5703 0.717546 10.1893 0.717546 9.72145V7.94368C0.717546 7.47552 1.08977 7.09488 1.54691 7.09488C1.70327 7.09488 1.83034 7.22523 1.83034 7.38495ZM10.1652 13.9676C10.1297 14.1405 9.97808 14.2659 9.80497 14.2659H8.69038C8.59231 14.2659 8.50023 14.2268 8.42997 14.1549C8.36061 14.0842 8.32234 13.9896 8.32234 13.8893C8.32234 13.7427 8.40635 13.6087 8.5379 13.5469C8.58484 13.5242 8.63626 13.5129 8.69038 13.5129H9.80497C9.90303 13.5129 9.99512 13.5518 10.0651 13.6237C10.1344 13.6944 10.1727 13.7889 10.1727 13.8893C10.173 13.9162 10.1703 13.9431 10.1652 13.9676ZM14.2825 9.72145C14.2825 10.1896 13.9102 10.5703 13.4531 10.5703C13.297 10.5703 13.1697 10.4402 13.1697 10.2802V7.38495C13.1697 7.22523 13.2967 7.09488 13.4531 7.09488C13.9105 7.09488 14.2825 7.47583 14.2825 7.94368V9.72145Z"
            fill="#EA5B44" />
        <path
            d="M9.8232 9.84813C10.6615 9.84813 11.3435 9.14987 11.3435 8.29219V5.12188C11.3435 4.70727 11.185 4.31653 10.8977 4.02217C10.6104 3.72781 10.2286 3.56595 9.8232 3.56595H5.17679C4.33846 3.56595 3.65649 4.2639 3.65649 5.12188V8.29219C3.65649 9.15018 4.33846 9.84813 5.17679 9.84813H5.2052V10.6697C5.2052 10.983 5.38757 11.2612 5.66981 11.3784C5.761 11.4157 5.85577 11.4344 5.94935 11.4344C6.14488 11.4344 6.33503 11.3551 6.47466 11.2073L7.80989 9.84813H9.8232ZM7.40956 9.22055L5.9643 10.6914C5.95772 10.6982 5.95294 10.7034 5.93949 10.6972C5.92304 10.6905 5.92304 10.6795 5.92304 10.6697V9.48095C5.92304 9.27838 5.76249 9.11376 5.56427 9.11376H5.17709C4.73431 9.11376 4.37434 8.74505 4.37434 8.29219V5.12188C4.37434 4.66872 4.73431 4.30031 5.17709 4.30031H9.8235C10.0373 4.30031 10.2385 4.38599 10.3907 4.54143C10.5428 4.69718 10.6263 4.9031 10.6263 5.12188V8.29219C10.6263 8.74536 10.266 9.11376 9.8235 9.11376H7.66279C7.56772 9.11376 7.47683 9.15201 7.40956 9.22055Z"
            fill="#EA5B44" />
        <path d="M5.75722 6.22403C5.46542 6.22403 5.22803 6.46729 5.22803 6.76562C5.22803 7.06396 5.46571 7.30722 5.75722 7.30722C6.04932 7.30722 6.28701 7.06396 6.28701 6.76562C6.28701 6.46729 6.04962 6.22403 5.75722 6.22403Z" fill="#EA5B44" />
        <path d="M7.49989 6.22403C7.20809 6.22403 6.9707 6.46729 6.9707 6.76562C6.9707 7.06396 7.20839 7.30722 7.49989 7.30722C7.79229 7.30722 8.02968 7.06396 8.02968 6.76562C8.02968 6.46729 7.79199 6.22403 7.49989 6.22403Z" fill="#EA5B44" />
        <path d="M9.24257 6.22403C8.95077 6.22403 8.71338 6.46729 8.71338 6.76562C8.71338 7.06396 8.95107 7.30722 9.24257 7.30722C9.53467 7.30722 9.77236 7.06396 9.77236 6.76562C9.77236 6.46729 9.53437 6.22403 9.24257 6.22403Z" fill="#EA5B44" />
    </g>
    <defs>
        <clipPath id="clip0_244_9227">
            <rect width="15" height="15" fill="white" />
        </clipPath>
    </defs>
</svg>
