<svg width="20" height="21" viewBox="0 0 20 21" fill="none" xmlns="http://www.w3.org/2000/svg">
<g clip-path="url(#clip0_129_1838)">
<path d="M19.2464 9.03125H11.088C10.7282 9.03125 10.437 9.32247 10.437 9.68221V12.2904C10.437 12.6501 10.7282 12.9413 11.088 12.9413H15.6833C15.1822 14.2475 14.24 15.3396 13.0451 16.0334L15.0023 19.4253C18.1415 17.6094 20.0002 14.4188 20.0002 10.8514C20.0002 10.3417 19.9616 9.97772 19.8888 9.57086C19.8289 9.25823 19.5591 9.03125 19.2464 9.03125Z" fill="#167EE6"/>
<path d="M9.99997 16.8557C7.75158 16.8557 5.79012 15.6265 4.73659 13.8107L1.34473 15.7636C3.07064 18.7572 6.30404 20.77 9.99997 20.77C11.8158 20.77 13.5246 20.2818 15.0021 19.4295V19.4253L13.0449 16.0334C12.1456 16.5559 11.1092 16.8557 9.99997 16.8557Z" fill="#12B347"/>
<path d="M14.9979 19.4296V19.4253L13.0407 16.0334C12.1456 16.5516 11.1092 16.8557 10 16.8557V20.77C11.8158 20.77 13.5246 20.2818 14.9979 19.4296Z" fill="#0F993E"/>
<path d="M3.91435 10.77C3.91435 9.6608 4.21842 8.62439 4.73662 7.72932L1.34475 5.77643C0.488223 7.24538 0 8.94988 0 10.77C0 12.5901 0.488223 14.2946 1.34475 15.7636L4.73662 13.8107C4.21413 12.9156 3.91435 11.8792 3.91435 10.77Z" fill="#FFD500"/>
<path d="M9.99997 4.68437C11.4646 4.68437 12.8137 5.20685 13.8629 6.07195C14.1242 6.28608 14.501 6.26895 14.7366 6.0334L16.5824 4.18758C16.8522 3.91777 16.8308 3.47666 16.5439 3.22826C14.7837 1.69507 12.4925 0.77002 9.99997 0.77002C6.30404 0.77002 3.07064 2.78287 1.34473 5.77644L4.73659 7.72933C5.79012 5.91349 7.75158 4.68437 9.99997 4.68437Z" fill="#FF4B26"/>
<path d="M13.863 6.07195C14.1242 6.28608 14.5011 6.26895 14.7366 6.0334L16.5824 4.18758C16.8522 3.91777 16.8308 3.47666 16.5439 3.22826C14.7837 1.69507 12.4925 0.77002 10 0.77002V4.68437C11.4647 4.68437 12.8137 5.20257 13.863 6.07195Z" fill="#D93F21"/>
</g>
<defs>
<clipPath id="clip0_129_1838">
<rect width="20" height="20" fill="white" transform="translate(0 0.77002)"/>
</clipPath>
</defs>
</svg>
