<svg width="17" height="14" viewBox="0 0 17 14" fill="none" xmlns="http://www.w3.org/2000/svg">
    <path d="M5.125 0C6.40406 0.00156264 7.62563 0.53161 8.5 1.46513C10.2466 -0.399098 13.1734 -0.494107 15.0372 1.2523C15.97 2.12644 16.4994 3.34717 16.5 4.62541C16.5 9.23082 9.0725 13.7512 8.75 13.9287C8.59156 14.0241 8.39344 14.0241 8.235 13.9287C7.9275 13.7512 0.5 9.23082 0.5 4.62541C0.502813 2.07206 2.57188 0.00281275 5.125 0ZM8.5 12.9112C9.7925 12.0861 15.5 8.23073 15.5 4.62541C15.4984 2.62305 13.8741 1.00134 11.8719 1.00321C10.6928 1.00415 9.58812 1.57858 8.91 2.54273C8.75094 2.76837 8.43906 2.82244 8.21344 2.66368C8.16656 2.63055 8.12562 2.58992 8.0925 2.54273C6.94281 0.903831 4.68188 0.507233 3.04313 1.65702C2.07563 2.33583 1.49969 3.44374 1.5 4.62541C1.5 8.22823 7.2075 12.0836 8.5 12.9112Z" fill="#485B78"/>
</svg>
