<svg width="22" height="19" viewBox="0 0 22 19" fill="none" xmlns="http://www.w3.org/2000/svg">
    <path d="M10.8083 18.338C10.6679 18.3388 10.5286 18.312 10.3986 18.2591C10.2685 18.2061 10.1502 18.1281 10.0505 18.0295L1.75712 9.75384C0.716825 8.70627 0.133301 7.29194 0.133301 5.8181C0.133301 4.34425 0.716825 2.92992 1.75712 1.88235C2.80555 0.840456 4.22574 0.255371 5.70635 0.255371C7.18696 0.255371 8.60716 0.840456 9.65559 1.88235L10.8083 3.03116L11.9611 1.88235C13.0095 0.840456 14.4297 0.255371 15.9103 0.255371C17.3909 0.255371 18.8111 0.840456 19.8596 1.88235C20.8999 2.92992 21.4834 4.34425 21.4834 5.8181C21.4834 7.29194 20.8999 8.70627 19.8596 9.75384L11.5662 18.0295C11.4664 18.1281 11.3482 18.2061 11.2181 18.2591C11.0881 18.312 10.9488 18.3388 10.8083 18.338Z" fill="#8B97A7"/>
</svg>
