<svg width="21" height="20" viewBox="0 0 21 20" fill="none" xmlns="http://www.w3.org/2000/svg">
	<path d="M11.4722 0C7.12503 0.021952 3.34041 3.06568 2.26447 7.40543L1.62449 6.4083C1.3766 5.9815 0.839864 5.84219 0.425633 6.0976C0.0114014 6.353 -0.123808 6.90602 0.124076 7.33282C0.137187 7.35562 0.151527 7.37757 0.166687 7.3991L2.08993 10.4019C2.2235 10.5944 2.42058 10.7303 2.64429 10.7848C2.87251 10.8316 3.10974 10.7848 3.30517 10.6543L6.18963 8.65247C6.59895 8.38905 6.72391 7.83349 6.46783 7.41176C6.21217 6.99003 5.67297 6.86127 5.26366 7.12512C5.24727 7.13567 5.23088 7.14707 5.2149 7.15889L3.90296 8.07032C4.93178 3.76773 9.15071 1.13897 13.3266 2.199C17.5025 3.25903 20.0539 7.60595 19.0251 11.9085C18.1687 15.4901 15.0524 18.0087 11.4722 18.0129C8.93233 18.0049 6.55593 16.7198 5.10796 14.5698C4.84451 14.1531 4.30285 14.0354 3.89845 14.3068C3.49406 14.5783 3.37974 15.1363 3.6432 15.553C3.65303 15.5686 3.66368 15.5842 3.67475 15.5994C6.6686 20.0464 12.5944 21.1508 16.9105 18.0661C19.5028 16.2133 21.0348 13.1569 20.9999 9.90669C21.0176 4.46301 16.7556 0.0312394 11.4722 0Z" fill="#8B97A7"/>
	<path d="M11.3845 4.45795C10.9018 4.45795 10.5105 4.8611 10.5105 5.3584V9.90627C10.5142 10.1444 10.606 10.3719 10.7666 10.5429L13.3888 13.2691C13.7309 13.6162 14.2792 13.6191 14.625 13.2755C14.9675 12.9251 14.97 12.3552 14.6303 12.0018L12.2588 9.53604V5.35798C12.2588 4.8611 11.8675 4.45795 11.3845 4.45795Z" fill="#8B97A7"/>
</svg>
