<svg width="22" height="21" viewBox="0 0 22 21" fill="none" xmlns="http://www.w3.org/2000/svg">
    <path
        d="M20.8899 11.2354L11.0112 2.69983L1.13242 11.2354L0.230957 10.1142L11.0112 0.800049L21.7914 10.1142L20.8899 11.2354ZM18.5986 20.3296H12.8893V13.1858H9.13309V20.3296H3.42372V7.99833H4.83229V18.8698H7.72454V11.726H14.2978V18.8698H17.1901V7.99833H18.5987L18.5986 20.3296Z"
        fill="white" />
    <rect x="13.2104" y="7.13049" width="4.58108" height="12.6614" fill="white" />
    <rect x="4.04834" y="7.92188" width="4.58108" height="11.0787" fill="white" />
    <rect x="4.81201" y="6.33911" width="11.4527" height="5.53937" fill="white" />
    <rect x="6.33887" y="4.75671" width="9.16214" height="2.37402" rx="1.18701" fill="white" />
    <rect x="8.69238" y="3.20007" width="4.61538" height="2.4" rx="1.2" fill="white" />
    <rect x="9.39355" y="2.38245" width="2.29054" height="1.58268" fill="white" />
</svg>
