<svg width="22" height="20" viewBox="0 0 22 20" fill="none" xmlns="http://www.w3.org/2000/svg">
    <path
        d="M20.659 10.4353L10.7802 1.89979L0.901462 10.4353L0 9.31412L10.7802 0L21.5604 9.31416L20.659 10.4353ZM18.3677 19.5295H12.6583V12.3858H8.90214V19.5296H3.19277V7.19829H4.60134V18.0697H7.49359V10.9259H14.0669V18.0697H16.9591V7.19829H18.3677L18.3677 19.5295Z"
        fill="#8B97A7" />
    <rect x="12.9795" y="6.33044" width="4.58108" height="12.6614" fill="#8B97A7" />
    <rect x="3.81738" y="7.12183" width="4.58108" height="11.0787" fill="#8B97A7" />
    <rect x="4.58105" y="5.53906" width="11.4527" height="5.53937" fill="#8B97A7" />
    <rect x="6.10791" y="3.95667" width="9.16214" height="2.37402" rx="1.18701" fill="#8B97A7" />
    <rect x="8.46143" y="2.40002" width="4.61538" height="2.4" rx="1.2" fill="#8B97A7" />
    <rect x="9.1626" y="1.5824" width="2.29054" height="1.58268" fill="#8B97A7" />
</svg>
