<?xml version="1.0" encoding="utf-8"?>
<!-- Generator: Adobe Illustrator 24.0.2, SVG Export Plug-In . SVG Version: 6.00 Build 0)  -->
<svg version="1.1" id="Layer_1" xmlns="http://www.w3.org/2000/svg" xmlns:xlink="http://www.w3.org/1999/xlink" x="0px" y="0px"
	 viewBox="0 0 21 23.4" enable-background="new 0 0 21 23.4" xml:space="preserve">
<path fill="none" stroke="#FFFFFF" stroke-miterlimit="10" d="M-43.9-21.2c0,1.3-1.1,2.4-2.4,2.4c-1.3,0-2.4-1.1-2.4-2.4
	c0-1.3,1.1-2.7,2.4-2.7C-45-23.8-43.9-22.5-43.9-21.2z"/>
<path fill="#FFFFFF" d="M-56.3-21.6v20.7h21v-20.7H-56.3z M-43.6-6.2h-8.2v-1.9h8.2V-6.2z M-38.6-10.8h-13.2v-1.9h13.2V-10.8z
	 M-38.6-15.3h-13.2v-1.9h13.2V-15.3z"/>
<path fill="#FFFFFF" d="M-23.8-0.9l-1.3-3.1c-0.3-0.1-0.5-0.2-0.7-0.3l-3.1,1.3L-30.8-5l1.3-3.1c-0.1-0.3-0.2-0.5-0.3-0.7l-3.1-1.3
	v-2.6l3.1-1.3c0.1-0.3,0.2-0.5,0.3-0.7l-1.3-3.1l1.9-1.9l3.1,1.3c0.2-0.1,0.5-0.2,0.7-0.3l1.3-3.1h2.6l1.3,3.1
	c0.2,0.1,0.5,0.2,0.7,0.3l3.1-1.3l1.9,1.9l-1.3,3.1c0.1,0.2,0.2,0.5,0.3,0.7l3.1,1.3v2.6l-3.1,1.3c-0.1,0.2-0.2,0.5-0.3,0.7l1.3,3.1
	L-16-3.1l-3.1-1.3c-0.2,0.1-0.5,0.2-0.7,0.3l-1.3,3.1H-23.8z M-22.5-7.5c2.2,0,3.9-1.8,3.9-3.9c0-2.2-1.8-3.9-3.9-3.9
	c-2.2,0-3.9,1.8-3.9,3.9C-26.4-9.2-24.6-7.5-22.5-7.5z"/>
<g>
	<g>
		<defs>
			<rect id="SVGID_1_" x="-81.2" y="-23.3" width="21" height="22.4"/>
		</defs>
		<clipPath id="SVGID_2_">
			<use xlink:href="#SVGID_1_"  overflow="visible"/>
		</clipPath>
		<path clip-path="url(#SVGID_2_)" fill="#FFFFFF" d="M-70.7-23.3l-10.5,8.2v14.2h21v-14.2L-70.7-23.3z M-71.2-10.3h-1.4v7.5h-1.7
			v-7.5h-1.4v-5.6h0.9v3.8h0.8v-3.8h1.1v3.8h0.8v-3.8h0.9C-71.2-12.6-71.2-12.6-71.2-10.3z M-66.7-9.3v6.5h-1.5v-6.5h-1.2V-12
			c0-4,2.7-3.9,2.7-3.9V-9.3z"/>
	</g>
</g>
<g>
	<g>
		<path fill="#FFFFFF" d="M1.4-11.4c2.9,0,5.2-2.3,5.2-5.2s-2.3-5.2-5.2-5.2c-2.9,0-5.2,2.3-5.2,5.2S-1.5-11.4,1.4-11.4z"/>
		<path fill="#FFFFFF" d="M-0.9-9.9h3.7c4.5,0,8.1,3.6,8.1,8.2h-20C-9.1-6.3-5.4-9.9-0.9-9.9z"/>
	</g>
</g>
<path fill="#FFFFFF" d="M20.1,14.6l-9.6-8.3l-9.6,8.3L0,13.5l10.5-9.1L21,13.5L20.1,14.6z M17.9,23.4h-5.6v-7H8.7v7H3.1v-12h1.4V22
	h2.8v-7h6.4v7h2.8V11.4h1.4L17.9,23.4z"/>
<rect x="12.6" y="10.6" fill="#FFFFFF" width="4.5" height="12.3"/>
<rect x="3.7" y="11.4" fill="#FFFFFF" width="4.5" height="10.8"/>
<rect x="4.5" y="9.8" fill="#FFFFFF" width="11.2" height="5.4"/>
<path fill="#FFFFFF" d="M7.1,8.3h6.6c0.6,0,1.2,0.5,1.2,1.2l0,0c0,0.6-0.5,1.2-1.2,1.2H7.1c-0.6,0-1.2-0.5-1.2-1.2l0,0
	C5.9,8.8,6.5,8.3,7.1,8.3z"/>
<path fill="#FFFFFF" d="M9.4,6.8h2.2c0.6,0,1.2,0.5,1.2,1.2l0,0c0,0.6-0.5,1.2-1.2,1.2H9.4c-0.6,0-1.2-0.5-1.2-1.2l0,0
	C8.2,7.3,8.8,6.8,9.4,6.8z"/>
<rect x="8.9" y="6" fill="#FFFFFF" width="2.2" height="1.5"/>
</svg>
