<svg width="16" height="17" viewBox="0 0 16 17" fill="none" xmlns="http://www.w3.org/2000/svg">
    <g clip-path="url(#clip0_218_23312)">
        <path
            d="M15.9863 8.42833C15.9863 9.89657 15.587 11.2735 14.8903 12.4569C14.1936 13.6382 13.2014 14.6244 12.0135 15.3153V15.7453C12.0135 16.0906 11.8719 16.4041 11.6445 16.6318C11.417 16.8586 11.1016 16.9997 10.7563 16.9997H5.23009C4.88439 16.9997 4.56933 16.8586 4.34187 16.6318C4.1144 16.4041 3.97252 16.0906 3.97252 15.7453V15.3153C2.7849 14.6244 1.79276 13.6382 1.09671 12.4569C0.399317 11.2735 0 9.89657 0 8.42833C0 8.29087 0.112235 8.17897 0.250115 8.17897H1.54065C1.06473 7.36118 0.810957 6.43216 0.785313 5.4872C0.755006 4.36061 1.08838 3.43723 1.49336 3.20481C1.74747 3.05806 2.1288 3.08727 2.40423 3.14272C2.73661 3.20946 3.1256 3.34991 3.52691 3.56141C3.64881 3.6255 3.69477 3.77591 3.63082 3.89743C3.56655 4.01895 3.41668 4.06577 3.29478 4.00202C2.9341 3.8111 2.5924 3.68659 2.30731 3.62948C2.16577 3.60126 1.87403 3.5561 1.74281 3.63513C1.47571 3.78952 1.25757 4.52929 1.28288 5.47624C1.29886 6.0636 1.4131 6.65196 1.62291 7.20147C1.75413 7.54679 1.92298 7.87251 2.1288 8.17931H4.05578L3.56688 7.32565H2.51214C2.37426 7.32565 2.26302 7.21376 2.26302 7.0763C2.26302 6.93884 2.37459 6.82794 2.51214 6.82794H3.28146L2.18742 4.91643C2.11948 4.7979 2.16178 4.6455 2.281 4.57843C2.4009 4.51069 2.55277 4.5522 2.62104 4.67173L3.05066 5.42179L3.26015 4.98517C3.31976 4.86198 3.46896 4.80919 3.59252 4.86862C3.71608 4.92806 3.76904 5.07581 3.70975 5.19899L3.35007 5.9454L3.91824 6.93751C3.9249 6.9478 3.93156 6.95909 3.93722 6.97038L4.62928 8.17997H6.01241C5.98976 7.84595 5.93414 7.493 5.83589 7.13606C5.66771 6.52147 5.39395 5.95768 5.00895 5.45233C5.00429 5.44669 4.99963 5.44005 4.99463 5.4344C4.94268 5.36766 4.88972 5.30159 4.8361 5.2385C4.63228 4.99944 4.41414 4.78761 4.19033 4.60233C4.08476 4.51468 4.07044 4.35763 4.15836 4.25304C4.24628 4.14745 4.40281 4.13251 4.50872 4.22016C4.75051 4.42071 4.98364 4.64649 5.19978 4.89784C5.71433 4.30018 6.32247 3.85028 6.8953 3.55079C7.74023 3.10952 8.54186 2.9963 8.90421 3.20548C9.03276 3.27985 9.14866 3.40602 9.24591 3.57436C9.33084 3.72212 9.40544 3.91038 9.46572 4.12886C9.50169 4.26167 9.42342 4.39813 9.2912 4.43366C9.15899 4.46952 9.02211 4.39116 8.98547 4.25968C8.93818 4.08569 8.8789 3.93794 8.81262 3.82206C8.758 3.72809 8.70505 3.66401 8.65676 3.63579C8.42729 3.50397 7.82016 3.62749 7.12443 3.99073C6.57891 4.27694 5.99609 4.71257 5.51284 5.29893C5.88085 5.81856 6.14729 6.38899 6.31614 7.00624C6.42571 7.40733 6.48699 7.80444 6.51064 8.17997H8.26943C8.32905 8.09165 8.38666 8.001 8.43928 7.90903C8.67241 7.50628 8.8366 7.08659 8.94451 6.67321C9.06807 6.19974 9.11902 5.73589 9.11736 5.31321C9.11636 5.17575 9.22793 5.06485 9.36481 5.06386C9.50269 5.06386 9.61392 5.17409 9.61492 5.31155C9.61692 5.77374 9.5613 6.28208 9.42708 6.79772C9.29953 7.28448 9.11169 7.74567 8.85792 8.1803H10.1881C10.2221 8.04749 10.257 7.91601 10.292 7.78319C10.5534 6.81266 10.8359 5.89128 11.1246 5.04991C11.385 4.29122 11.6515 3.59661 11.9139 2.98966C11.6525 2.90964 11.4427 2.73466 11.3144 2.51253C11.1796 2.28011 11.1333 1.99688 11.2079 1.71798L11.461 0.777665C11.6102 0.221512 12.1897 -0.111847 12.7468 0.0369031L15.2223 0.697645C15.7795 0.846395 16.1146 1.42413 15.9654 1.97962L15.7123 2.92093C15.6377 3.1995 15.4555 3.42163 15.2223 3.55544C14.9995 3.68427 14.7294 3.73141 14.4633 3.67132C14.4387 3.87751 14.4104 4.09001 14.3794 4.30749C14.3341 4.61993 14.2785 4.95694 14.2132 5.31753C14.1886 5.452 14.0604 5.54165 13.9245 5.51807C13.7896 5.49351 13.6997 5.36468 13.7233 5.2302C13.7839 4.89618 13.8376 4.56481 13.8858 4.23809C13.9321 3.91636 13.9708 3.61321 13.9991 3.33165C14.0151 3.18024 14.1653 3.07765 14.3115 3.11616L14.5549 3.18124C14.7011 3.22075 14.8503 3.19618 14.9732 3.12679C15.0951 3.05606 15.1914 2.93952 15.23 2.79376L15.4831 1.85245C15.5614 1.5596 15.3869 1.25745 15.0931 1.17942L12.6186 0.517684C12.3249 0.439657 12.0221 0.613641 11.9435 0.906493L11.6898 1.84548C11.6501 1.99124 11.6748 2.13999 11.7454 2.26151C11.8153 2.3837 11.9322 2.47899 12.0788 2.5185L12.3222 2.58358C12.4781 2.62509 12.5527 2.80007 12.4791 2.94018C12.1893 3.58599 11.8899 4.35298 11.5962 5.20862C11.3111 6.03704 11.0327 6.94813 10.7739 7.91102C10.7399 8.03819 10.7153 8.12651 10.7023 8.17931H13.0662C13.1428 7.88579 13.2124 7.60522 13.2767 7.33694C13.356 7.00923 13.4316 6.67255 13.5052 6.3279C13.5335 6.19343 13.6667 6.10776 13.8006 6.13599C13.9355 6.16421 14.0214 6.29702 13.9931 6.4305C13.9251 6.74759 13.8479 7.08858 13.761 7.45182C13.7023 7.69753 13.6421 7.94024 13.5805 8.17931H15.7359C15.8748 8.17897 15.986 8.29087 15.9863 8.42833ZM7.99367 10.7081C8.2288 10.7081 8.44228 10.803 8.59614 10.9574C8.75101 11.1108 8.84626 11.3236 8.84626 11.5587C8.84626 11.7931 8.75101 12.0056 8.59614 12.16C8.44228 12.3134 8.2288 12.4084 7.99367 12.4084C7.75755 12.4084 7.5444 12.3134 7.39053 12.16C7.23567 12.0056 7.14042 11.7928 7.14042 11.5587C7.14042 11.3233 7.23567 11.1108 7.39053 10.9574C7.54407 10.803 7.75755 10.7081 7.99367 10.7081ZM8.24279 11.3094C8.17951 11.2453 8.09092 11.2058 7.99367 11.2058C7.89542 11.2058 7.80783 11.2453 7.74356 11.3094C7.67928 11.3734 7.63965 11.4608 7.63965 11.5587C7.63965 11.6557 7.67928 11.744 7.74356 11.8071C7.80783 11.8712 7.89542 11.9107 7.99367 11.9107C8.09092 11.9107 8.17951 11.8712 8.24279 11.8071C8.30707 11.744 8.3467 11.6557 8.3467 11.5587C8.3467 11.4608 8.30707 11.3734 8.24279 11.3094ZM10.5784 10.7081C10.8135 10.7081 11.0267 10.803 11.1815 10.9574C11.3354 11.1108 11.4317 11.3236 11.4317 11.5587C11.4317 11.7931 11.3354 12.0056 11.1815 12.16C11.0267 12.3134 10.8132 12.4084 10.5784 12.4084C10.3433 12.4084 10.1301 12.3134 9.97527 12.16C9.82141 12.0056 9.72516 11.7928 9.72516 11.5587C9.72516 11.3233 9.82141 11.1108 9.97527 10.9574C10.1301 10.803 10.3433 10.7081 10.5784 10.7081ZM10.8285 11.3094C10.7642 11.2453 10.6757 11.2058 10.5784 11.2058C10.4812 11.2058 10.3926 11.2453 10.3283 11.3094C10.265 11.3734 10.2254 11.4608 10.2254 11.5587C10.2254 11.6557 10.265 11.744 10.3283 11.8071C10.3926 11.8712 10.4812 11.9107 10.5784 11.9107C10.6757 11.9107 10.7642 11.8712 10.8285 11.8071C10.8918 11.744 10.9314 11.6557 10.9314 11.5587C10.9314 11.4608 10.8918 11.3734 10.8285 11.3094ZM2.82286 10.7081C3.05799 10.7081 3.27114 10.803 3.426 10.9574C3.57987 11.1108 3.67512 11.3236 3.67512 11.5587C3.67512 11.7931 3.57987 12.0056 3.426 12.16C3.27114 12.3134 3.05766 12.4084 2.82286 12.4084C2.58674 12.4084 2.37359 12.3134 2.21972 12.16C2.06486 12.0056 1.96961 11.7928 1.96961 11.5587C1.96961 11.3233 2.06486 11.1108 2.21972 10.9574C2.37359 10.803 2.58674 10.7081 2.82286 10.7081ZM3.07198 11.3094C3.0087 11.2453 2.92011 11.2058 2.82286 11.2058C2.72462 11.2058 2.63703 11.2453 2.57275 11.3094C2.50847 11.3734 2.46884 11.4608 2.46884 11.5587C2.46884 11.6557 2.50847 11.744 2.57275 11.8071C2.63703 11.8712 2.72462 11.9107 2.82286 11.9107C2.92011 11.9107 3.0087 11.8712 3.07198 11.8071C3.13626 11.744 3.17589 11.6557 3.17589 11.5587C3.17589 11.4608 3.13626 11.3734 3.07198 11.3094ZM13.1635 10.7081C13.3996 10.7081 13.6128 10.803 13.7666 10.9574C13.9215 11.1108 14.0167 11.3236 14.0167 11.5587C14.0167 11.7931 13.9215 12.0056 13.7666 12.16C13.6128 12.3134 13.3993 12.4084 13.1635 12.4084C12.9284 12.4084 12.7149 12.3134 12.561 12.16C12.4061 12.0056 12.3109 11.7928 12.3109 11.5587C12.3109 11.3233 12.4061 11.1108 12.561 10.9574C12.7149 10.803 12.9284 10.7081 13.1635 10.7081ZM13.4136 11.3094C13.3493 11.2453 13.2617 11.2058 13.1635 11.2058C13.0662 11.2058 12.9776 11.2453 12.9144 11.3094C12.8501 11.3734 12.8105 11.4608 12.8105 11.5587C12.8105 11.6557 12.8501 11.744 12.9144 11.8071C12.9776 11.8712 13.0662 11.9107 13.1635 11.9107C13.2617 11.9107 13.3493 11.8712 13.4136 11.8071C13.4779 11.744 13.5175 11.6557 13.5175 11.5587C13.5175 11.4608 13.4779 11.3734 13.4136 11.3094ZM5.4076 10.7081C5.64373 10.7081 5.85687 10.803 6.01074 10.9574C6.16561 11.1108 6.26086 11.3236 6.26086 11.5587C6.26086 11.7931 6.16561 12.0056 6.01074 12.16C5.85687 12.3134 5.6434 12.4084 5.4076 12.4084C5.17247 12.4084 4.95899 12.3134 4.80446 12.16C4.6506 12.0056 4.55535 11.7928 4.55535 11.5587C4.55535 11.3233 4.6506 11.1108 4.80446 10.9574C4.95933 10.803 5.17247 10.7081 5.4076 10.7081ZM5.65805 11.3094C5.59377 11.2453 5.50618 11.2058 5.40793 11.2058C5.31069 11.2058 5.22176 11.2453 5.15782 11.3094C5.09454 11.3734 5.05491 11.4608 5.05491 11.5587C5.05491 11.6557 5.09454 11.744 5.15782 11.8071C5.2221 11.8712 5.31069 11.9107 5.40793 11.9107C5.50618 11.9107 5.59377 11.8712 5.65805 11.8071C5.72233 11.744 5.76196 11.6557 5.76196 11.5587C5.76163 11.4608 5.72199 11.3734 5.65805 11.3094ZM0.604138 9.67743H15.3829C15.4375 9.35071 15.4715 9.01669 15.4821 8.67702C10.4898 8.67702 5.49652 8.67702 0.504225 8.67702C0.51455 9.01669 0.54852 9.35071 0.604138 9.67743ZM15.281 10.1751H0.705383C0.879231 10.899 1.15865 11.5813 1.52567 12.2055C1.67687 12.4615 1.84205 12.7072 2.02123 12.9416H7.42717C7.56505 12.9416 7.67728 13.0535 7.67728 13.191C7.67728 13.3284 7.56505 13.4403 7.42717 13.4403H2.43587C2.97873 14.038 3.61684 14.5473 4.32688 14.9454C4.41281 14.9849 4.47242 15.0716 4.47242 15.1712V15.7453C4.47242 15.9535 4.55735 16.1424 4.69522 16.2799C4.8331 16.4163 5.02294 16.502 5.23042 16.502H10.7563C10.9641 16.502 11.1536 16.4163 11.2915 16.2799C11.4293 16.1424 11.5143 15.9532 11.5143 15.7453V15.1712C11.5143 15.0846 11.5616 14.9999 11.6435 14.9547C12.3602 14.5556 13.004 14.0426 13.5505 13.4403H8.55918C8.4213 13.4403 8.30906 13.3284 8.30906 13.191C8.30906 13.0535 8.4213 12.9416 8.55918 12.9416H13.9661C14.1446 12.7072 14.3098 12.4615 14.4607 12.2055C14.8277 11.5813 15.1071 10.899 15.281 10.1751Z"
            fill="#F44336" />
    </g>
    <defs>
        <clipPath id="clip0_218_23312">
            <rect width="16" height="17" fill="white" />
        </clipPath>
    </defs>
</svg>
