<svg width="15" height="15" viewBox="0 0 15 15" fill="none" xmlns="http://www.w3.org/2000/svg">
    <path
        d="M13.7205 10.0536C13.6187 9.99588 13.5006 9.98428 13.3912 10.0212C13.2817 10.0582 13.1897 10.1407 13.1346 10.2514C13.0795 10.362 13.0656 10.492 13.096 10.6137C13.1264 10.7355 13.1986 10.8393 13.2973 10.9032C13.8208 11.2205 14.1211 11.5723 14.1211 11.8684C14.1211 12.2305 13.6561 12.7916 12.3512 13.2808C11.0619 13.7641 9.33924 14.0303 7.5 14.0303C5.66076 14.0303 3.93807 13.7641 2.64883 13.2808C1.34389 12.7916 0.878894 12.2305 0.878894 11.8684C0.878894 11.5723 1.17906 11.2205 1.70255 10.9032C1.80124 10.8393 1.87345 10.7355 1.90383 10.6137C1.93422 10.492 1.92038 10.362 1.86527 10.2514C1.81016 10.1407 1.71811 10.0582 1.60869 10.0212C1.49927 9.98428 1.38111 9.99588 1.27932 10.0536C0.695708 10.4075 0 11.0094 0 11.8687C0 12.5273 0.410496 13.4662 2.36613 14.1994C3.74334 14.7159 5.56732 15 7.5 15C9.43268 15 11.2559 14.7155 12.6339 14.1994C14.5894 13.4662 15 12.5272 15 11.8687C15 11.0096 14.304 10.4073 13.7205 10.0536Z"
        fill="#D9D9D9" />
    <path
        d="M3.82414 13.3938C6.2412 14.2021 8.76028 14.2021 11.1773 13.3938C12.3868 12.9155 13 12.2222 13 11.3362C13 10.4502 12.3868 9.75691 11.1773 9.27865C10.9089 9.17252 10.6169 9.07925 10.3065 9C10.1379 9.40767 9.96124 9.82743 9.77657 10.2593C10.1202 10.3314 10.4428 10.4201 10.7357 10.5244C11.6258 10.8419 11.9509 11.1991 12.0179 11.3364C11.9511 11.4743 11.626 11.831 10.7359 12.1483C9.72976 12.475 8.70008 12.6384 7.66722 12.6352C7.61192 12.641 7.55612 12.6442 7.50016 12.6442C7.4442 12.6442 7.38825 12.641 7.33295 12.6352C6.30009 12.6384 5.2704 12.475 4.26426 12.1483C3.37418 11.831 3.0491 11.4736 2.98215 11.3364C3.04893 11.1986 3.37418 10.8419 4.26426 10.5244C4.55718 10.4201 4.8798 10.3314 5.22343 10.2593C5.03876 9.82759 4.86214 9.40782 4.69355 9C4.38307 9.07948 4.09113 9.17252 3.82267 9.27865C2.61324 9.75691 2 10.4502 2 11.3362C2 12.2222 2.61324 12.9155 3.82267 13.3938"
        fill="#D9D9D9" />
    <path
        d="M7.5 9.99999C7.71038 10.0006 7.91739 9.95808 8.10088 9.87645C8.28437 9.79481 8.4381 9.67689 8.54711 9.53415C10.1224 7.48964 12 4.79554 12 3.56961C12 2.62289 11.5259 1.71495 10.682 1.04551C9.83807 0.376082 8.69347 0 7.5 0C6.30653 0 5.16193 0.376082 4.31802 1.04551C3.4741 1.71495 3 2.62289 3 3.56961C3 4.79554 4.87774 7.49042 6.45289 9.53415C6.5619 9.67689 6.71563 9.79481 6.89912 9.87645C7.08261 9.95808 7.28962 10.0006 7.5 9.99999ZM5.69125 3.3244C5.69125 3.04063 5.79734 2.76323 5.99609 2.52728C6.19483 2.29133 6.47732 2.10743 6.80782 1.99884C7.13833 1.89024 7.502 1.86183 7.85287 1.91719C8.20373 1.97255 8.52602 2.1092 8.77897 2.30986C9.03193 2.51052 9.2042 2.76617 9.27399 3.04449C9.34378 3.32281 9.30796 3.6113 9.17106 3.87347C9.03416 4.13564 8.80233 4.35972 8.50488 4.51738C8.20744 4.67503 7.85774 4.75918 7.5 4.75918C7.02045 4.75877 6.56069 4.60748 6.2216 4.33849C5.88251 4.06951 5.69177 3.7048 5.69125 3.3244Z"
        fill="#D9D9D9" />
</svg>
