<svg width="6" height="8" viewBox="0 0 6 8" fill="none" xmlns="http://www.w3.org/2000/svg">
<path d="M3 7.99999C3.14025 8.00051 3.27826 7.96646 3.40059 7.90116C3.52292 7.83585 3.6254 7.74151 3.69807 7.62732C4.74828 5.99171 6 3.83643 6 2.85569C6 2.09831 5.68393 1.37196 5.12132 0.836411C4.55871 0.300866 3.79565 0 3 0C2.20435 0 1.44129 0.300866 0.878679 0.836411C0.316069 1.37196 0 2.09831 0 2.85569C0 3.83643 1.25183 5.99233 2.30193 7.62732C2.3746 7.74151 2.47708 7.83585 2.59941 7.90116C2.72174 7.96646 2.85975 8.00051 3 7.99999ZM1.79417 2.65952C1.79417 2.4325 1.86489 2.21058 1.99739 2.02183C2.12989 1.83307 2.31821 1.68595 2.53855 1.59907C2.75889 1.51219 3.00134 1.48946 3.23524 1.53375C3.46915 1.57804 3.68401 1.68736 3.85265 1.84789C4.02129 2.00841 4.13613 2.21293 4.18266 2.43559C4.22919 2.65825 4.20531 2.88904 4.11404 3.09878C4.02277 3.30851 3.86822 3.48778 3.66992 3.6139C3.47162 3.74003 3.23849 3.80734 3 3.80734C2.6803 3.80702 2.37379 3.68598 2.14773 3.47079C1.92167 3.2556 1.79451 2.96384 1.79417 2.65952Z" fill="white"/>
</svg>
