<svg width="15" height="15" viewBox="0 0 15 15" fill="none" xmlns="http://www.w3.org/2000/svg">
    <g clip-path="url(#clip0_189_4276)">
        <path d="M7.4751 13.7499H1.86885C1.5249 13.7499 1.246 13.4697 1.246 13.1249V1.87507C1.246 1.52998 1.5252 1.25015 1.86885 1.25015H7.4751C7.81963 1.25015 8.09795 0.970899 8.09795 0.62522C8.09795 0.279541 7.81963 0 7.4751 0H1.86885C0.838477 0 0 0.84127 0 1.87507V13.1249C0 14.1587 0.838477 15 1.86885 15H7.4751C7.81963 15 8.09795 14.7208 8.09795 14.3751C8.09795 14.0294 7.81963 13.7499 7.4751 13.7499Z" fill="#EA5B44" />
        <path d="M14.8143 7.05496L11.0271 3.30511C10.783 3.06261 10.3878 3.06584 10.1461 3.31128C9.90439 3.55673 9.90674 3.95238 10.1522 4.19488L12.859 6.87477H5.60625C5.26172 6.87477 4.9834 7.15402 4.9834 7.4997C4.9834 7.84538 5.26172 8.12463 5.60625 8.12463H12.859L10.1522 10.8045C9.90674 11.047 9.90498 11.4427 10.1461 11.6884C10.2683 11.8122 10.4288 11.8748 10.5896 11.8748C10.7479 11.8748 10.9061 11.8148 11.0271 11.6949L14.8146 7.94503C14.9329 7.82745 15.0003 7.66754 15.0003 7.49999C15 7.33245 14.9335 7.17313 14.8143 7.05496Z" fill="#EA5B44" />
    </g>
    <defs>
        <clipPath id="clip0_189_4276">
            <rect width="15" height="15" fill="white" />
        </clipPath>
    </defs>
</svg>
