<svg width="16" height="12" viewBox="0 0 16 12" fill="none" xmlns="http://www.w3.org/2000/svg">
    <path
        d="M15.0009 9.09313C15.0291 6.62406 13.7859 4.32906 11.6578 3.02906C10.9337 2.58719 10.1497 2.30219 9.34875 2.14406C9.44312 1.94813 9.5 1.73094 9.5 1.5C9.5 0.673125 8.82687 0 8 0C7.17313 0 6.5 0.673125 6.5 1.5C6.5 1.73094 6.55688 1.94813 6.65094 2.14406C5.85 2.30219 5.06594 2.58594 4.34188 3.02813C2.21406 4.32812 0.970937 6.62313 0.999062 9.09188C0.419062 9.3 0 9.84906 0 10.5C0 11.3269 0.673125 12 1.5 12H14.5C15.3269 12 16 11.3269 16 10.5C16 9.84906 15.5809 9.3 15.0009 9.09313ZM8 1C8.275 1 8.5 1.225 8.5 1.5C8.5 1.77 8.28406 1.98813 8.01594 1.99688C8.005 1.99688 7.99406 1.99688 7.98406 1.99688C7.71594 1.98813 7.5 1.77 7.5 1.5C7.5 1.225 7.725 1 8 1ZM4.86312 3.88188C5.82312 3.29594 6.89812 3.00187 7.97406 2.99781C7.98312 2.99688 7.99094 3 8 3C8.00906 3 8.01687 2.99813 8.02594 2.99688C9.10187 3.00188 10.1769 3.295 11.1359 3.88094C12.9381 4.98187 14 6.91406 14.0031 9H1.99688C2 6.91406 3.06187 4.98187 4.86312 3.88188ZM14.5 11H1.5C1.225 11 1 10.775 1 10.5C1 10.225 1.225 10 1.5 10H14.5C14.775 10 15 10.225 15 10.5C15 10.775 14.775 11 14.5 11Z"
        fill="#F44336" />
</svg>
