<svg width="24" height="24" viewBox="0 0 24 24" fill="none" xmlns="http://www.w3.org/2000/svg">
    <path d="M4.79991 12H3.99976V12.8002H4.79991V12Z" fill="url(#paint0_linear_204_2835)" />
    <path d="M7.20006 12H6.3999V12.8002H7.20006V12Z" fill="url(#paint1_linear_204_2835)" />
    <path d="M9.59996 12H8.7998V12.8002H9.59996V12Z" fill="url(#paint2_linear_204_2835)" />
    <path d="M12.0001 12H11.2V12.8002H12.0001V12Z" fill="url(#paint3_linear_204_2835)" />
    <path
        d="M23.6002 4.8H19.2V0H16.8V4.8H12.8002V1.59984H6.39984V0.800156H3.99984V1.60031H2.4V10.6125C0.96375 11.1197 0.00234375 12.4767 0 14.0002V14.4H0.615938C-0.267187 15.3886 -0.181875 16.9055 0.80625 17.7886C0.813281 17.7952 0.820781 17.8013 0.827812 17.8078C0.320156 18.0877 0.00375 18.6202 0 19.2C0.00140625 19.4822 0.0782813 19.7583 0.224063 20.0002H0V20.4C0 22.3884 1.61156 24 3.6 24H12.3998C12.8231 23.9981 13.2427 23.9222 13.6397 23.7759C13.7067 23.9133 13.8469 24.0005 13.9997 24H21.9998C22.2056 24.0014 22.3791 23.8453 22.3997 23.64L24 7.64016C24 7.64016 24 7.64016 24 7.62C24 7.59984 24 7.62 24 7.59984V5.19984C24 4.97906 23.8209 4.8 23.6002 4.8ZM17.6002 0.800156H18.4003V4.8H17.6002V0.800156ZM23.1998 5.60016V7.2H12.8002V5.60016H23.1998ZM11.1998 2.4H12V6.39984H11.1998V2.4ZM9.6 2.4H10.4002V6.39984H9.6V2.4ZM8.00016 2.4H8.80031V6.39984H8.00016V2.4ZM7.2 2.4V6.39984H6.39984V2.4H7.2ZM5.60016 1.59984V6.39984H4.8V1.59984H5.60016ZM3.20016 2.4H4.00031V6.39984H3.20016V2.4ZM3.20016 10.4002V7.2H12V7.59984L12.2761 10.3997L3.20016 10.4002ZM3.6 11.1998H12.3998C13.792 11.1994 14.9728 12.2217 15.172 13.5998H0.827812C1.02703 12.2222 2.20781 11.1998 3.6 11.1998ZM13.5998 17.6002H2.4C1.53141 17.6006 0.821719 16.9083 0.800156 16.0402C1.03359 16.0983 1.25344 16.1995 1.44797 16.3402C1.88016 16.65 2.40094 16.8112 2.93203 16.8C3.45797 16.8075 3.97219 16.6462 4.40016 16.3402C4.70531 16.1077 5.08078 15.9877 5.46422 16.0003C5.84344 15.9909 6.21422 16.1109 6.51609 16.3402C6.94828 16.65 7.46906 16.8112 8.00016 16.8C8.53031 16.8098 9.04922 16.6486 9.48 16.3402C10.1095 15.8869 10.9584 15.8869 11.588 16.3402C12.4795 16.9533 13.6566 16.9533 14.5481 16.3402C14.7441 16.1991 14.9653 16.0973 15.2002 16.0402C15.1786 16.9078 14.4684 17.6006 13.5998 17.6002ZM15.7402 14.4H16.0003V14.0002C15.9994 13.5497 15.9141 13.1034 15.7481 12.6839C15.7814 12.6506 15.8095 12.6131 15.832 12.5719C16.3983 11.3733 17.8294 10.8609 19.027 11.4277C20.2256 11.9939 20.738 13.425 20.1712 14.6227C19.605 15.8213 18.1739 16.3336 16.9762 15.7669C16.3988 15.4945 15.9534 15.0023 15.7402 14.4ZM13.5998 14.4C14.1947 14.4033 14.7384 14.7361 15.0117 15.2639C14.6916 15.3398 14.3892 15.4753 14.1197 15.6637C13.4902 16.117 12.6412 16.117 12.0117 15.6637C11.1187 15.0502 9.94031 15.0502 9.04781 15.6637C8.41969 16.1175 7.57172 16.1175 6.94406 15.6637C6.51375 15.3534 5.99438 15.1908 5.46422 15.1997C4.93969 15.1931 4.42641 15.3539 4.00031 15.6595C3.69422 15.893 3.31687 16.013 2.9325 15.9994C2.55328 16.0088 2.1825 15.8888 1.88063 15.6595C1.61016 15.473 1.30781 15.337 0.988594 15.2597C1.26328 14.7333 1.80703 14.4019 2.40047 14.3995L13.5998 14.4ZM0.800156 19.2C0.800156 18.758 1.15828 18.3998 1.60031 18.3998H14.4C14.842 18.3998 15.2002 18.758 15.2002 19.2C15.2002 19.642 14.842 20.0002 14.4 20.0002H1.59984C1.15781 20.0002 0.800156 19.642 0.800156 19.2ZM3.6 23.1998C2.20781 23.2003 1.02656 22.178 0.827812 20.7998H15.172C14.9733 22.178 13.792 23.2003 12.3998 23.1998H3.6ZM21.6398 23.1998H14.6559C15.5044 22.5178 15.9984 21.4884 15.9998 20.4V20.0002H15.7758C15.9216 19.7588 15.9984 19.4822 15.9998 19.2C15.9961 18.6206 15.6797 18.0877 15.172 17.8078C15.675 17.3728 15.975 16.748 15.9998 16.0837C17.3719 17.198 19.387 16.9889 20.5012 15.6169C21.6155 14.2448 21.4064 12.2297 20.0344 11.1155C19.4597 10.6486 18.7406 10.3955 18 10.3997C16.9069 10.4011 15.8902 10.9608 15.3038 11.8837C14.7703 11.1492 13.9786 10.6434 13.088 10.4677L12.84 7.99969H23.16L21.6398 23.1998Z"
        fill="url(#paint4_linear_204_2835)" />
    <defs>
        <linearGradient id="paint0_linear_204_2835" x1="-0.131967" y1="12.4" x2="23.8685" y2="12.4" gradientUnits="userSpaceOnUse">
            <stop stop-color="white" />
            <stop offset="1" stop-color="#D9D9D9" />
        </linearGradient>
        <linearGradient id="paint1_linear_204_2835" x1="-0.131823" y1="12.4" x2="23.8687" y2="12.4" gradientUnits="userSpaceOnUse">
            <stop stop-color="white" />
            <stop stop-color="#D9D9D9" />
            <stop offset="0.0001" stop-color="#D9D9D9" />
            <stop offset="1" stop-color="#BBBBBB" />
        </linearGradient>
        <linearGradient id="paint2_linear_204_2835" x1="-0.131922" y1="12.4" x2="23.8686" y2="12.4" gradientUnits="userSpaceOnUse">
            <stop stop-color="white" />
            <stop offset="1" stop-color="#D9D9D9" />
        </linearGradient>
        <linearGradient id="paint3_linear_204_2835" x1="-0.131776" y1="12.4" x2="23.8687" y2="12.4" gradientUnits="userSpaceOnUse">
            <stop stop-color="white" />
            <stop offset="1" stop-color="#D9D9D9" />
        </linearGradient>
        <linearGradient id="paint4_linear_204_2835" x1="-0.131879" y1="12" x2="23.8681" y2="12" gradientUnits="userSpaceOnUse">
            <stop stop-color="white" />
            <stop offset="1" stop-color="#D9D9D9" />
        </linearGradient>
    </defs>
</svg>
