<svg width="15" height="21" viewBox="0 0 15 21" fill="none" xmlns="http://www.w3.org/2000/svg">
    <path
        d="M13.8158 2.43911V1.09544C13.8195 0.751148 13.646 0.424011 13.344 0.206328C13.0877 0.025402 12.7514 -0.0411689 12.4327 0.0258104L1.10278 2.44646C0.483393 2.48322 0.00185031 2.93655 0 3.48464V19.8648C0.000462577 20.4419 0.530576 20.9095 1.1842 20.9103H13.8158C14.4694 20.9095 14.9991 20.4419 15 19.8648V3.48464C14.9991 2.90756 14.4694 2.43993 13.8158 2.43911ZM12.6182 0.703364C12.7019 0.686211 12.7898 0.704998 12.8555 0.754007C12.9679 0.839365 13.0303 0.964747 13.0257 1.09544V2.43911H4.49394L12.6182 0.703364ZM14.2104 19.8648C14.2099 20.0571 14.0337 20.2131 13.8158 20.2131H1.1842C0.966324 20.2127 0.78962 20.0571 0.78962 19.8648V3.48464C0.790082 3.29228 0.966324 3.13627 1.1842 3.13627H13.8158C14.0337 3.13668 14.2104 3.29228 14.2104 3.48464V19.8648Z"
        fill="#F44336" />
    <path d="M9.47351 14.9042C10.1271 14.9034 10.6568 14.4357 10.6577 13.8587V9.67654C11.0935 9.67613 11.4469 9.3641 11.4473 8.97938V6.88832C11.4473 5.36494 10.5596 4.30716 9.13027 4.12787L8.73939 4.07886C8.62606 4.06456 8.51181 4.09479 8.4253 4.16095C8.3388 4.22711 8.28931 4.32309 8.28931 4.42396V13.8583C8.29023 14.4357 8.81988 14.9034 9.47351 14.9042ZM9.07893 4.82625C10.5023 5.03944 10.6577 6.33533 10.6577 6.88832V8.97938H10.2631C10.0453 8.97938 9.86855 9.13539 9.86855 9.32775V13.8583C9.86855 14.0506 9.69184 14.2066 9.47397 14.2066C9.25609 14.2066 9.07939 14.0506 9.07939 13.8583L9.07893 4.82625Z" fill="#F44336" />
    <path
        d="M4.34224 8.44313V13.8587C4.34224 14.4361 4.87235 14.9042 5.52644 14.9042C6.18052 14.9042 6.71064 14.4361 6.71064 13.8587V8.44313C7.20004 8.19522 7.50118 7.73494 7.50026 7.23709V4.44887C7.50026 4.25651 7.32355 4.10049 7.10568 4.10049C6.8878 4.10049 6.7111 4.25651 6.7111 4.44887V6.19156C6.7111 6.38392 6.53439 6.53993 6.31652 6.53993C6.09865 6.53993 5.92194 6.38392 5.92194 6.19156V4.44887C5.92194 4.25651 5.74524 4.10049 5.52736 4.10049C5.30949 4.10049 5.13278 4.25651 5.13278 4.44887V6.19156C5.13278 6.38392 4.95608 6.53993 4.73821 6.53993C4.52033 6.53993 4.34363 6.38392 4.34363 6.19156V4.44887C4.34363 4.25651 4.16692 4.10049 3.94905 4.10049C3.73117 4.10049 3.55447 4.25651 3.55447 4.44887V7.23709C3.55123 7.73494 3.85283 8.19522 4.34224 8.44313ZM4.34224 7.17256C4.46852 7.21381 4.60221 7.23546 4.73682 7.23668C5.02917 7.23586 5.31041 7.13907 5.52644 6.96468C5.84469 7.22647 6.30311 7.30693 6.71064 7.17256V7.23668C6.71249 7.53074 6.50248 7.79294 6.18839 7.88973C6.0288 7.93792 5.92148 8.07066 5.92148 8.21932V13.8582C5.92148 14.0506 5.74477 14.2066 5.5269 14.2066C5.30903 14.2066 5.13232 14.0506 5.13232 13.8582V8.21932C5.13232 8.07025 5.025 7.93751 4.86541 7.88973C4.55132 7.79294 4.34131 7.53074 4.34316 7.23668L4.34224 7.17256Z"
        fill="#F44336" />
    <path d="M3.55254 17.692H9.07895C9.29683 17.692 9.47353 17.5359 9.47353 17.3436C9.47353 17.1512 9.29683 16.9952 9.07895 16.9952H3.55254C3.33466 16.9952 3.15796 17.1512 3.15796 17.3436C3.15796 17.5359 3.33466 17.692 3.55254 17.692Z" fill="#F44336" />
    <path d="M11.4474 16.9952H10.6578C10.4399 16.9952 10.2632 17.1512 10.2632 17.3436C10.2632 17.5359 10.4399 17.692 10.6578 17.692H11.4474C11.6653 17.692 11.842 17.5359 11.842 17.3436C11.842 17.1512 11.6653 16.9952 11.4474 16.9952Z" fill="#F44336" />
    <path d="M11.4474 18.3892H8.28935C8.07148 18.3892 7.89478 18.5452 7.89478 18.7376C7.89478 18.9299 8.07148 19.0859 8.28935 19.0859H11.4474C11.6652 19.0859 11.8419 18.9299 11.8419 18.7376C11.8419 18.5452 11.6652 18.3892 11.4474 18.3892Z" fill="#F44336" />
    <path d="M6.71054 18.3892H6.31597C6.09809 18.3892 5.92139 18.5452 5.92139 18.7376C5.92139 18.9299 6.09809 19.0859 6.31597 19.0859H6.71054C6.92842 19.0859 7.10512 18.9299 7.10512 18.7376C7.10512 18.5452 6.92842 18.3892 6.71054 18.3892Z" fill="#F44336" />
    <path d="M4.73674 18.3892H3.55254C3.33466 18.3892 3.15796 18.5452 3.15796 18.7376C3.15796 18.9299 3.33466 19.0859 3.55254 19.0859H4.73674C4.95461 19.0859 5.13131 18.9299 5.13131 18.7376C5.13131 18.5452 4.95461 18.3892 4.73674 18.3892Z" fill="#F44336" />
</svg>
