<svg width="15" height="15" viewBox="0 0 15 15" fill="none" xmlns="http://www.w3.org/2000/svg">
    <g clip-path="url(#clip0_225_9721)">
        <path
            d="M0.2575 14.8106C0.285313 14.9219 0.385312 15 0.5 15H11C11.1147 15 11.2147 14.9219 11.2425 14.8106L11.4925 13.8106C11.5259 13.6766 11.4447 13.5409 11.3106 13.5075C11.2906 13.5025 11.2703 13.5 11.25 13.5H10.9872C10.8703 11.0822 9.11625 9.0575 6.74 8.59688C6.74312 8.56438 6.75 8.5325 6.75 8.5C6.75 7.94781 6.30219 7.5 5.75 7.5C5.19781 7.5 4.75 7.94781 4.75 8.5C4.75 8.5325 4.75688 8.56438 4.76 8.59688C2.38375 9.0575 0.629687 11.0822 0.512812 13.5H0.25C0.111875 13.5 0 13.6119 0 13.75C0 13.7706 0.0025 13.7909 0.0075 13.8106L0.2575 14.8106ZM10.8047 14.5H0.695312L0.570312 14H10.9297L10.8047 14.5ZM5.25 8.5C5.25 8.22375 5.47375 8 5.75 8C6.02625 8 6.25 8.22375 6.25 8.5C6.25 8.50844 6.24781 8.51687 6.2475 8.525C6.08344 8.50937 5.91813 8.5 5.75 8.5C5.58187 8.5 5.41656 8.50969 5.2525 8.525C5.25219 8.51687 5.25 8.50844 5.25 8.5ZM5.75 9C8.27344 9.00406 10.3534 10.98 10.4872 13.5H1.01281C1.14656 10.98 3.22656 9.00406 5.75 9Z"
            fill="#F44336" />
        <path d="M2.06885 11.625L2.50166 11.875C3.34541 10.4172 5.05635 9.69908 6.6876 10.1181L6.8126 9.63408C4.96385 9.15877 3.02479 9.97283 2.06885 11.625Z" fill="#F44336" />
        <path d="M1.63403 12.6875L2.1181 12.8125C2.15903 12.6531 2.21091 12.4966 2.27247 12.3438L1.80903 12.1562C1.73903 12.3294 1.6806 12.5069 1.63403 12.6875Z" fill="#F44336" />
        <path d="M14.75 1.25H14V0.25C14 0.111875 13.8881 0 13.75 0C13.7372 0 13.7244 0.0009375 13.7116 0.003125L5.71156 1.25312V1.25781C5.59063 1.275 5.50094 1.37812 5.5 1.5V7H6V1.75H14.5V14.5H11.75V15H14.75C14.8881 15 15 14.8881 15 14.75V1.5C15 1.36188 14.8881 1.25 14.75 1.25ZM13.5 1.25H8.96937L13.5 0.541875V1.25Z" fill="#F44336" />
        <path
            d="M7.95198 4.44437L7.24479 3.7375L6.89136 4.09093L7.59854 4.79781C8.01854 5.21781 8.67604 5.28437 9.17167 4.95687L9.89667 5.68187L7.59854 7.98L7.95198 8.33343L10.2501 6.03562L12.5482 8.33375L12.9017 7.98031L10.6035 5.68218L10.9751 5.31062C11.4707 5.6375 12.1279 5.57125 12.5482 5.15156L12.9017 4.79812C13.3982 4.31843 13.412 3.52718 12.9323 3.03062C12.4526 2.53406 11.6614 2.52031 11.1648 3C11.1545 3.01 11.1442 3.02031 11.1342 3.03062L10.7807 3.38406C10.3607 3.80406 10.2942 4.46156 10.6217 4.95718L10.2501 5.32843L9.52511 4.60343C9.85261 4.10781 9.78604 3.45031 9.36604 3.03031L8.65917 2.32312L8.30573 2.67656L9.01261 3.38375C9.23511 3.60843 9.29261 3.94843 9.15698 4.23375L7.95229 3.02906L7.59886 3.3825L8.80354 4.58718C8.51792 4.72437 8.17729 4.66687 7.95198 4.44437ZM11.1342 3.7375L11.4876 3.38406C11.7854 3.09625 12.2604 3.10468 12.5482 3.4025C12.8289 3.69312 12.8289 4.15406 12.5482 4.44468L12.1948 4.79812C11.907 5.09593 11.4323 5.10437 11.1342 4.81656C10.8364 4.52875 10.8279 4.05406 11.1157 3.75593C11.1217 3.74968 11.1279 3.74343 11.1342 3.7375Z"
            fill="#F44336" />
        <path d="M13.25 9H13.75V9.5H13.25V9Z" fill="#F44336" />
        <path d="M13.25 10H13.75V10.5H13.25V10Z" fill="#F44336" />
        <path d="M13.25 11H13.75V11.5H13.25V11Z" fill="#F44336" />
        <path d="M9.5 9H12.75V9.5H9.5V9Z" fill="#F44336" />
        <path d="M10.5 10H12.75V10.5H10.5V10Z" fill="#F44336" />
        <path d="M11.25 11H12.75V11.5H11.25V11Z" fill="#F44336" />
        <path d="M4.5 2H5V6.5H4.5V2Z" fill="#F44336" />
    </g>
    <defs>
        <clipPath id="clip0_225_9721">
            <rect width="15" height="15" fill="white" />
        </clipPath>
    </defs>
</svg>
