<svg width="15" height="18" viewBox="0 0 15 18" fill="none" xmlns="http://www.w3.org/2000/svg">
    <g clip-path="url(#clip0_555_461)">
        <path d="M4.74838 13.3171C4.71375 13.3801 4.66024 13.399 4.60986 13.399C4.55949 13.399 4.50912 13.3801 4.47484 13.3171L4.11315 12.6378V14.015C4.11315 14.1 4.00961 14.144 3.90887 14.144C3.80498 14.144 3.70459 14.1 3.70459 14.015V12.0498C3.70459 11.899 3.80533 11.8455 3.90887 11.8455C4.05649 11.8455 4.1226 11.877 4.22649 12.0624L4.61336 12.7669L4.99989 12.0624C5.10378 11.877 5.17304 11.8455 5.32065 11.8455C5.42419 11.8455 5.52493 11.899 5.52493 12.0498V14.015C5.52493 14.1 5.42139 14.144 5.32065 14.144C5.21676 14.144 5.11637 14.1 5.11637 14.015V12.663L4.74838 13.3171Z" fill="#F44336" />
        <path d="M6.66282 12.8326H7.14064C7.22249 12.8326 7.26937 12.9114 7.26937 12.9964C7.26937 13.0688 7.22844 13.1538 7.14064 13.1538H6.66282V13.7858H7.5527C7.63456 13.7858 7.68178 13.8708 7.68178 13.9681C7.68178 14.0531 7.64085 14.1444 7.5527 14.1444H6.43335C6.34206 14.1444 6.25391 14.1003 6.25391 14.0153V11.9746C6.25391 11.8896 6.34206 11.8455 6.43335 11.8455H7.5527C7.64085 11.8455 7.68178 11.9368 7.68178 12.0218C7.68178 12.1194 7.63456 12.2041 7.5527 12.2041H6.66282V12.8326Z" fill="#F44336" />
        <path d="M9.35767 14.0149L8.68151 12.7508V14.0149C8.68151 14.0999 8.57797 14.144 8.47723 14.144C8.37369 14.144 8.27295 14.0999 8.27295 14.0149V11.9742C8.27295 11.8861 8.37369 11.8455 8.47723 11.8455C8.6252 11.8455 8.68466 11.877 8.78225 12.0624L9.38915 13.2352V11.9711C9.38915 11.8829 9.48989 11.8452 9.59343 11.8452C9.69418 11.8452 9.79772 11.8829 9.79772 11.9711V14.0149C9.79772 14.0999 9.69418 14.144 9.59343 14.144C9.49584 14.144 9.41119 14.1125 9.35767 14.0149Z" fill="#F44336" />
        <path d="M11.6185 11.9711C11.6185 11.8829 11.7193 11.8455 11.8228 11.8455C11.9236 11.8455 12.0271 11.8833 12.0271 11.9711V13.4427C12.0271 13.9677 11.6937 14.1629 11.2726 14.1629C10.8479 14.1629 10.5181 13.9681 10.5181 13.4427V11.9711C10.5181 11.8829 10.6188 11.8455 10.7223 11.8455C10.8231 11.8455 10.9266 11.8833 10.9266 11.9711V13.4427C10.9266 13.6879 11.0557 13.8044 11.2726 13.8044C11.4895 13.8044 11.6185 13.6879 11.6185 13.4427V11.9711Z" fill="#F44336" />
        <path d="M12.4269 14.7667H10.9322C10.7853 14.7667 10.6667 14.8856 10.6667 15.0322C10.6667 15.1791 10.7857 15.2977 10.9322 15.2977H12.4269C12.5738 15.2977 12.6924 15.1791 12.6924 15.0322C12.6924 14.8856 12.5735 14.7667 12.4269 14.7667Z" fill="#F44336" />
        <path d="M9.69672 14.7667H3.64733C3.50077 14.7667 3.38184 14.8856 3.38184 15.0322C3.38184 15.1791 3.50077 15.2977 3.64733 15.2977H9.69672C9.84364 15.2977 9.96222 15.1791 9.96222 15.0322C9.96222 14.8856 9.84329 14.7667 9.69672 14.7667Z" fill="#F44336" />
        <path d="M12.4269 10.7122H3.64733C3.50077 10.7122 3.38184 10.8311 3.38184 10.9777C3.38184 11.1242 3.50077 11.2432 3.64733 11.2432H12.4269C12.5738 11.2432 12.6924 11.1242 12.6924 10.9777C12.6924 10.8311 12.5735 10.7122 12.4269 10.7122Z" fill="#F44336" />
        <path
            d="M12.2792 7.42025H12.0214C11.9221 5.59081 10.5848 4.08528 8.83444 3.72884L8.88551 3.23912C8.9023 3.07927 8.85018 2.91906 8.74244 2.79978C8.63506 2.6805 8.48115 2.61194 8.32024 2.61194H7.75322C7.59231 2.61194 7.43875 2.6805 7.33101 2.79978C7.22362 2.91906 7.1715 3.07927 7.1883 3.23912L7.23937 3.72884C5.48898 4.08528 4.15171 5.59046 4.05236 7.4199H3.79456C3.5665 7.4199 3.3811 7.60529 3.3811 7.83336V8.38114C3.3811 8.60921 3.5665 8.7946 3.79456 8.7946H12.2785C12.5066 8.7946 12.692 8.60921 12.692 8.38114V7.83336C12.6924 7.60564 12.507 7.42025 12.2792 7.42025ZM7.72593 3.15517C7.73328 3.14713 7.74237 3.14293 7.75357 3.14293H8.32059C8.33143 3.14293 8.34088 3.14713 8.34822 3.15517C8.35557 3.16322 8.35872 3.17301 8.35767 3.18386L8.308 3.65818C8.21845 3.65224 8.1282 3.64874 8.03725 3.64874C7.94596 3.64874 7.85606 3.65224 7.76651 3.65818L7.71684 3.18386C7.71544 3.17301 7.71859 3.16322 7.72593 3.15517ZM12.1614 8.26361H3.9128V7.95124H5.0318C5.17871 7.95124 5.29729 7.83231 5.29729 7.68575C5.29729 7.53918 5.17836 7.42025 5.0318 7.42025H4.58476C4.69809 5.61425 6.20327 4.18008 8.0369 4.18008C9.87089 4.18008 11.3757 5.6146 11.4894 7.42025H6.26728C6.12036 7.42025 6.00178 7.53918 6.00178 7.68575C6.00178 7.83231 6.12036 7.95124 6.26728 7.95124H12.1614V8.26361Z"
            fill="#F44336" />
        <path
            d="M14.3235 0H1.75038C1.37785 0 1.07423 0.303274 1.07423 0.676158V1.15573H0.826571C0.370785 1.15573 0 1.52651 0 1.98265C0 2.43879 0.370785 2.80957 0.826571 2.80957H1.07423V3.94501H0.826571C0.370785 3.94466 0 4.31545 0 4.77158C0 5.22737 0.370785 5.59815 0.826571 5.59815H1.07423V6.73359H0.826571C0.370785 6.73359 0 7.10438 0 7.56051C0 8.0163 0.370785 8.38709 0.826571 8.38709H1.07423V9.52253H0.826571C0.370785 9.52253 0 9.89331 0 10.3491C0 10.8052 0.370785 11.176 0.826571 11.176H1.07423V12.3115H0.826571C0.370785 12.3115 0 12.6822 0 13.138C0 13.5942 0.370785 13.965 0.826571 13.965H1.07423V15.1004H0.826571C0.370785 15.1004 0 15.4712 0 15.927C0 16.3827 0.370785 16.7539 0.826571 16.7539H1.07423V17.2335C1.07423 17.6063 1.3775 17.9096 1.75038 17.9096H14.3235C14.6964 17.9096 14.9997 17.6063 14.9997 17.2335V0.676158C15 0.303274 14.6964 0 14.3235 0ZM1.07423 2.27823H0.826571C0.663565 2.27823 0.530992 2.14566 0.530992 1.9823C0.530992 1.81929 0.663565 1.68672 0.826571 1.68672H1.07423V2.27823ZM1.07423 5.06716H0.826571C0.663565 5.06716 0.530992 4.93459 0.530992 4.77158C0.530992 4.60858 0.663565 4.476 0.826571 4.476H1.07423V5.06716ZM1.07423 7.85609H0.826571C0.663565 7.85609 0.530992 7.72352 0.530992 7.56051C0.530992 7.39751 0.663565 7.26459 0.826571 7.26459H1.07423V7.85609ZM1.07423 10.645H0.826571C0.663565 10.645 0.530992 10.5125 0.530992 10.3491C0.530992 10.1861 0.663565 10.0535 0.826571 10.0535H1.07423V10.645ZM1.07423 13.434H0.826571C0.663565 13.434 0.530992 13.3014 0.530992 13.1384C0.530992 12.9754 0.663565 12.8428 0.826571 12.8428H1.07423V13.434ZM1.07423 16.2229H0.826571C0.663565 16.2229 0.530992 16.0903 0.530992 15.9273C0.530992 15.7643 0.663565 15.6317 0.826571 15.6317H1.07423V16.2229ZM14.4687 17.2335C14.4687 17.3136 14.4036 17.3786 14.3235 17.3786H1.75038C1.67028 17.3786 1.60522 17.3136 1.60522 17.2335V0.676158C1.60522 0.596054 1.67028 0.530992 1.75038 0.530992H14.3235C14.4036 0.530992 14.4687 0.596054 14.4687 0.676158V17.2335Z"
            fill="#F44336" />
    </g>
    <defs>
        <clipPath id="clip0_555_461">
            <rect width="15" height="17.9096" fill="white" />
        </clipPath>
    </defs>
</svg>
