<svg width="26" height="36" viewBox="0 0 26 36" fill="none" xmlns="http://www.w3.org/2000/svg">
  <g clip-path="url(#clip0_1731_14511)">
    <path
      d="M23.2079 36H7.29313C5.75104 36 4.50098 34.7027 4.50098 33.1024V2.89758C4.50165 1.29727 5.75172 0 7.29313 0H23.2072C24.7493 0 25.9994 1.29727 25.9994 2.89758V33.1031C25.9994 34.7027 24.7493 36 23.2079 36Z"
      fill="#485B78" />
    <path
      d="M23.2079 0H21.1143C22.6563 0 23.9064 1.29727 23.9064 2.89758V33.1031C23.9064 34.7034 22.6563 36.0007 21.1143 36.0007H23.2079C24.7499 36.0007 26 34.7034 26 33.1031V2.89758C25.9993 1.29727 24.7493 0 23.2079 0Z"
      fill="#485B78" />
    <path
      d="M20.3783 2.75271C20.3783 3.29342 19.9562 3.73217 19.4344 3.73217H11.0675C10.5465 3.73217 10.1237 3.29342 10.1237 2.75271C10.1237 2.43279 9.87365 2.17334 9.56537 2.17334H7.64251C7.06456 2.17334 6.5957 2.6599 6.5957 3.25967V32.7403C6.5957 33.3401 7.06456 33.8266 7.64251 33.8266H22.8587C23.4367 33.8266 23.9055 33.3401 23.9055 32.7403V3.25967C23.9055 2.6599 23.4367 2.17334 22.8587 2.17334H20.9359C20.6283 2.17334 20.3783 2.43279 20.3783 2.75271Z"
      fill="#F9F7F8" />
    <path
      d="M15.7654 1.96772C15.8201 1.67295 15.6341 1.38798 15.3501 1.33121C15.066 1.27445 14.7914 1.46739 14.7367 1.76217C14.682 2.05694 14.868 2.34191 15.152 2.39868C15.4361 2.45544 15.7107 2.2625 15.7654 1.96772Z"
      fill="#485B78" />
    <path
      d="M9.936 15.2107C10.787 14.1511 11.2836 12.7744 11.2342 11.276C11.1325 8.20197 8.70558 5.71713 5.74201 5.65104C2.55688 5.58002 -0.0421668 8.26104 0.000518369 11.5601C0.0418484 14.7621 2.60838 17.311 5.69458 17.311H10.831C11.0797 17.311 11.2044 16.9988 11.0282 16.816L9.95429 15.7015C9.82556 15.5686 9.81946 15.3563 9.936 15.2107Z"
      fill="#F44336" />
    <path
      d="M9.95392 15.7029C9.82519 15.5693 9.81909 15.3563 9.93563 15.2107C10.7866 14.1511 11.2833 12.7744 11.2338 11.2761C11.1322 8.20199 8.70521 5.71715 5.74164 5.65106C5.33918 5.64192 4.94553 5.67778 4.56543 5.75231C7.09673 6.24942 9.04873 8.52613 9.13952 11.2761C9.18898 12.7744 8.69234 14.1511 7.84135 15.2107C7.72481 15.3563 7.73023 15.5686 7.85964 15.7029L8.93354 16.8174C9.1097 17.0002 8.98504 17.3124 8.73638 17.3124H10.83C11.0786 17.3124 11.2033 17.0002 11.0271 16.8174L9.95392 15.7029Z"
      fill="#EA5B44" />
    <path
      d="M5.61847 12.0242C5.90772 12.0242 6.14221 11.7808 6.14221 11.4806C6.14221 11.1805 5.90772 10.9371 5.61847 10.9371C5.32921 10.9371 5.09473 11.1805 5.09473 11.4806C5.09473 11.7808 5.32921 12.0242 5.61847 12.0242Z"
      fill="#E2B3AB" />
    <path
      d="M7.71222 12.0242C8.00147 12.0242 8.23596 11.7808 8.23596 11.4806C8.23596 11.1805 8.00147 10.9371 7.71222 10.9371C7.42296 10.9371 7.18848 11.1805 7.18848 11.4806C7.18848 11.7808 7.42296 12.0242 7.71222 12.0242Z"
      fill="#E2B3AB" />
    <path
      d="M3.52472 12.0242C3.81397 12.0242 4.04846 11.7808 4.04846 11.4806C4.04846 11.1805 3.81397 10.9371 3.52472 10.9371C3.23546 10.9371 3.00098 11.1805 3.00098 11.4806C3.00098 11.7808 3.23546 12.0242 3.52472 12.0242Z"
      fill="#E2B3AB" />
    <path
      d="M20.7183 17.3118H12.9476C12.6583 17.3118 12.4238 17.0685 12.4238 16.7682C12.4238 16.468 12.6583 16.2247 12.9476 16.2247H20.7183C21.0076 16.2247 21.242 16.468 21.242 16.7682C21.242 17.0685 21.0069 17.3118 20.7183 17.3118Z"
      fill="#EEF0F2" />
    <path
      d="M20.7183 15.139H12.9476C12.6583 15.139 12.4238 14.8958 12.4238 14.5955C12.4238 14.2953 12.6583 14.052 12.9476 14.052H20.7183C21.0076 14.052 21.242 14.2953 21.242 14.5955C21.2414 14.8958 21.0069 15.139 20.7183 15.139Z"
      fill="#EEF0F2" />
    <path
      d="M20.7187 12.9657H13.9954C13.7061 12.9657 13.4717 12.7224 13.4717 12.4222C13.4717 12.1219 13.7061 11.8787 13.9954 11.8787H20.7187C21.008 11.8787 21.2424 12.1219 21.2424 12.4222C21.2424 12.7224 21.0073 12.9657 20.7187 12.9657Z"
      fill="#EEF0F2" />
  </g>
  <defs>
    <clipPath id="clip0_1731_14511">
      <rect width="26" height="36" fill="white" />
    </clipPath>
  </defs>
</svg>