<svg width="15" height="18" viewBox="0 0 15 18" fill="none" xmlns="http://www.w3.org/2000/svg">
    <path
        d="M2.33368 8.93296V7.3065C2.33368 4.93376 3.88065 2.9226 6.00027 2.26569V1.52927C6.00027 0.686131 6.67326 0 7.50024 0C8.32723 0 9.00021 0.686131 9.00021 1.52927V2.26569C11.1198 2.9226 12.6668 4.93376 12.6668 7.3065V8.93296C12.6668 11.0172 13.4461 12.9937 14.8611 14.4981C14.9998 14.6456 15.0388 14.8631 14.9601 15.0511C14.8814 15.239 14.7004 15.3606 14.5001 15.3606H9.94986C9.71753 16.5225 8.70755 17.3997 7.50024 17.3997C6.29293 17.3997 5.28295 16.5225 5.05062 15.3606H0.500378C0.300048 15.3606 0.119052 15.2386 0.0403872 15.0511C-0.0382786 14.8635 0.000720978 14.6456 0.139385 14.4981C1.55436 12.9937 2.33368 11.0172 2.33368 8.93296ZM8.00023 1.52927C8.00023 1.24822 7.7759 1.01951 7.50024 1.01951C7.22458 1.01951 7.00025 1.24822 7.00025 1.52927V2.06383C7.16492 2.04752 7.33158 2.03902 7.50024 2.03902C7.66891 2.03902 7.83557 2.04752 8.00023 2.06383V1.52927ZM7.50024 16.3802C8.1519 16.3802 8.70789 15.954 8.91422 15.3606H6.08627C6.2926 15.954 6.84826 16.3802 7.50024 16.3802ZM13.4225 14.3411C12.2838 12.785 11.6668 10.9016 11.6668 8.93296V7.3065C11.6668 4.964 9.79787 3.05854 7.50024 3.05854C5.20262 3.05854 3.33366 4.964 3.33366 7.3065V8.93296C3.33366 10.9016 2.71667 12.785 1.57802 14.3411H13.4225Z"
        fill="#EA5B44" />
    <path d="M1.00029 7.30653C1.00029 7.58792 0.776296 7.81629 0.500301 7.81629C0.224306 7.81629 0.000310659 7.58792 0.000310659 7.30653C0.000310659 5.26411 0.780295 3.34403 2.19693 1.89972C2.39226 1.70058 2.70892 1.70058 2.90392 1.89972C3.09892 2.09887 3.09925 2.42137 2.90392 2.62052C1.67628 3.87214 1.00029 5.53632 1.00029 7.30653Z" fill="#EA5B44" />
    <path d="M14.5 7.81629C14.224 7.81629 14 7.58792 14 7.30653C14 5.53632 13.324 3.87214 12.0964 2.62052C11.9011 2.42137 11.9011 2.09887 12.0964 1.89972C12.2917 1.70058 12.608 1.70058 12.8034 1.89972C14.2197 3.34403 15 5.26411 15 7.30653C15 7.58792 14.776 7.81629 14.5 7.81629Z" fill="#EA5B44" />
</svg>
