<?xml version="1.0" encoding="utf-8"?><!-- Generator: Adobe Illustrator 24.0.2, SVG Export Plug-In . SVG Version: 6.00 Build 0)  -->
<svg version="1.1" id="Layer_1" xmlns="http://www.w3.org/2000/svg" x="0px" y="0px" viewBox="0 0 14.1 18" enable-background="new 0 0 14.1 18" xml:space="preserve">
<path fill="transparent" stroke="#485B78" stroke-width="1.5" d="M5.4,16.6c-0.4-0.4-0.7-1-0.7-1.6v-0.3V14H3.9H1.3C1.2,14,1.1,14,1,14
	c-0.1-0.1-0.2-0.1-0.2-0.2c0-0.1-0.1-0.2,0-0.3c0-0.1,0.1-0.2,0.1-0.3c0,0,0,0,0,0l1.4-1.4l0.2-0.2v-0.3V7.4c0-0.7,0.1-1.3,0.4-1.9
	c0.3-0.6,0.7-1.1,1.1-1.6c0.5-0.4,1-0.8,1.7-0.9C6.3,2.8,7,2.7,7.6,2.8C8.7,3,9.7,3.5,10.4,4.4c0.7,0.9,1.1,2,1.1,3.1h0v0v3.6v0.3
	l0.2,0.2l1.4,1.4c0,0,0,0,0,0c0.1,0.1,0.1,0.2,0.1,0.3c0,0.1,0,0.2,0,0.3c0,0.1-0.1,0.2-0.2,0.2C12.9,14,12.8,14,12.7,14h-2.6H9.4
	v0.8v0.3c0,0.6-0.3,1.2-0.7,1.6c-0.4,0.4-1,0.6-1.6,0.6l0,0l0,0C6.4,17.3,5.8,17.1,5.4,16.6z M9.3,15.2L9.3,15.2L9.3,15.2l0-0.4V14
	H8.6H5.4H4.7v0.8v0.3v0l0,0c0.1,0.6,0.3,1.1,0.8,1.5c0.4,0.4,1,0.5,1.5,0.5c0.6,0,1.1-0.2,1.5-0.5C9,16.3,9.2,15.7,9.3,15.2z" />
    <rect x="6" y="0" fill="#485B78" width="2" height="3" />
</svg>