<svg width="34" height="31" viewBox="0 0 34 31" fill="none" xmlns="http://www.w3.org/2000/svg">
    <g clip-path="url(#clip0_502_6799)">
        <path d="M22.0642 14.0627C21.1748 14.0634 20.3723 13.4856 20.0264 12.5954C19.9009 12.2728 20.0396 11.901 20.3372 11.7647C20.6342 11.6283 20.9764 11.7789 21.1019 12.1016C21.3266 12.6794 21.9395 12.9497 22.4706 12.7056C23.0025 12.4614 23.2513 11.7956 23.0266 11.2185C22.8632 10.7984 22.4838 10.5249 22.0642 10.5249C20.8429 10.5257 19.852 9.45086 19.8513 8.12392C19.8506 6.79697 20.8399 5.72052 22.0613 5.71973C22.8938 5.71893 23.6563 6.22704 24.0335 7.03319C24.1794 7.34551 24.0656 7.72758 23.7781 7.88611C23.4906 8.04465 23.139 7.92099 22.993 7.60868C22.7318 7.04984 22.1036 6.8271 21.5893 7.11087C21.0749 7.39465 20.8699 8.07715 21.1311 8.63598C21.3091 9.01647 21.6688 9.25665 22.062 9.25665C23.2834 9.28043 24.256 10.3759 24.2334 11.7036C24.2115 12.9965 23.252 14.0397 22.062 14.0627H22.0642Z" fill="#485B78"/>
        <path d="M22.0642 6.98806C21.7417 6.98806 21.4805 6.70428 21.4805 6.35391V5.03649C21.4805 4.68612 21.7417 4.40234 22.0642 4.40234C22.3866 4.40234 22.6479 4.68612 22.6479 5.03649V6.35391C22.6479 6.70428 22.3866 6.98806 22.0642 6.98806Z" fill="#485B78"/>
        <path d="M22.0642 15.3801C21.7417 15.3801 21.4805 15.0964 21.4805 14.746V13.4286C21.4805 13.0782 21.7417 12.7944 22.0642 12.7944C22.3866 12.7944 22.6479 13.0782 22.6479 13.4286V14.746C22.6479 15.0964 22.3866 15.3801 22.0642 15.3801Z" fill="#485B78"/>
        <path d="M22.0641 17.7654C18.0637 17.7606 14.8213 14.238 14.8162 9.89173C14.8162 9.68484 14.8235 9.47795 14.838 9.27582C14.868 8.92704 15.1525 8.67101 15.4735 8.70351C15.7873 8.73521 16.0215 9.03247 16.0018 9.37411C15.9894 9.54374 15.9835 9.71813 15.9835 9.89173C15.9879 13.5404 18.7145 16.4939 22.0729 16.4884C25.4313 16.4828 28.1499 13.5214 28.1447 9.8727C28.1447 9.59447 28.128 9.31624 28.0951 9.0396C28.0951 9.0396 28.0951 9.03405 28.0951 9.03088C28.0287 8.47918 27.8981 7.93937 27.7062 7.42413C27.7062 7.41699 27.7004 7.41065 27.6982 7.40431C26.4367 4.02592 22.8937 2.39776 19.7834 3.7683C18.7772 4.21141 17.8988 4.93988 17.2399 5.87682C17.0488 6.15901 16.6832 6.21846 16.4235 6.01078C16.1638 5.8031 16.109 5.40597 16.3002 5.12378C16.3046 5.11744 16.309 5.1103 16.3141 5.10396C18.7444 1.65185 23.2906 0.993932 26.4681 3.63434C27.4896 4.48329 28.2841 5.61127 28.7715 6.90413C28.7744 6.91047 28.7773 6.9176 28.7795 6.92474C29.0144 7.55016 29.1735 8.2057 29.2538 8.87552V8.88741C29.2924 9.22033 29.3121 9.55484 29.3121 9.89014C29.307 14.238 26.0646 17.7606 22.0641 17.7654Z" fill="#485B78"/>
        <path d="M5.13878 3.75945C4.81629 3.76817 4.54852 3.49152 4.53977 3.14195C4.53101 2.79238 4.78638 2.50068 5.10814 2.49117C6.09093 2.43568 7.32835 2.29934 7.6129 2.1741C9.8499 1.21416 15.4103 -0.788137 18.6702 1.40599C18.7111 1.43136 18.9569 1.57483 20.4162 2.39288C20.7029 2.55379 20.8145 2.93665 20.6664 3.24817C20.5183 3.5597 20.1659 3.68097 19.8792 3.52006C18.1675 2.55854 18.0945 2.51178 18.0624 2.48879C15.1761 0.537219 9.66385 2.65842 8.0441 3.35677C7.43488 3.61915 5.54226 3.73805 5.16943 3.75866L5.13878 3.75945Z" fill="#485B78"/>
        <path d="M6.33008 11.6094H5.13862C4.81613 11.6094 4.55493 11.3256 4.55493 10.9752C4.55493 10.6249 4.81613 10.3411 5.13862 10.3411H6.33008C7.39459 10.3363 8.44377 10.0668 9.39811 9.55475C10.4196 9.00939 13.3876 8.7264 13.7897 8.71927L17.3232 8.65189C17.9273 8.64158 18.4103 8.10177 18.4008 7.44464C18.4008 7.44306 18.4008 7.44147 18.4008 7.43989V7.28135C18.3913 6.62502 17.8945 6.10026 17.2896 6.11057C17.2881 6.11057 17.2867 6.11057 17.2852 6.11057L12.731 6.19697H12.7208C12.3983 6.20014 12.1349 5.91874 12.132 5.56838C12.1291 5.21801 12.3881 4.93186 12.7106 4.92869L17.2648 4.84229H17.3049C18.5387 4.84546 19.5434 5.91874 19.5667 7.25916V7.41769C19.5872 8.77555 18.5927 9.89481 17.3429 9.92017L13.8094 9.98676C13.2505 9.99785 10.6166 10.3165 9.91249 10.693C8.79836 11.2907 7.57261 11.6038 6.33008 11.6094Z" fill="#485B78"/>
        <path d="M5.13867 14.1009H0.583691C0.261202 14.1009 0 13.8171 0 13.4668V0.634141C0 0.283778 0.261202 0 0.583691 0H5.13867C5.46116 0 5.72236 0.283778 5.72236 0.634141V13.4668C5.72236 13.8171 5.46116 14.1009 5.13867 14.1009ZM1.16738 12.8326H4.55498V1.26828H1.16738V12.8326Z" fill="#485B78"/>
        <path d="M2.86152 12.0596C2.53903 12.0596 2.27783 11.7758 2.27783 11.4255V8.53063C2.27783 8.18026 2.53903 7.89648 2.86152 7.89648C3.18401 7.89648 3.44521 8.18026 3.44521 8.53063V11.4255C3.44521 11.7758 3.18401 12.0596 2.86152 12.0596Z" fill="#485B78"/>
        <path d="M19.0925 30.5832C17.7216 30.5832 16.4002 30.3153 15.3277 29.5916C15.0322 29.4069 10.0074 26.604 6.69274 24.7602C5.55527 24.1007 5.1248 22.5645 5.73111 21.3287C6.32209 20.1247 7.68501 19.6443 8.81445 20.242L15.4437 23.9113C15.7312 24.0698 15.845 24.4519 15.6991 24.7642C15.5532 25.0765 15.2015 25.2002 14.914 25.0416L8.28475 21.366C7.70909 21.0473 7.00501 21.2962 6.71171 21.9217C6.4184 22.5471 6.6475 23.312 7.22317 23.6307C8.63424 24.4154 15.6808 28.3368 15.9399 28.512C18.8262 30.4628 24.3363 28.34 25.9567 27.64C26.5652 27.3777 28.4578 27.2596 28.8307 27.2382C29.1532 27.2199 29.4282 27.4894 29.445 27.8398C29.4618 28.1902 29.2137 28.489 28.8912 28.5064C27.9084 28.5619 26.671 28.6983 26.3865 28.8235C24.8835 29.4687 21.8884 30.5832 19.0925 30.5832Z" fill="#485B78"/>
        <path d="M16.6979 26.1529C15.4641 26.1497 14.4594 25.0764 14.4361 23.736V23.5775C14.4157 22.2196 15.4101 21.1004 16.66 21.075L20.1935 21.0084C20.7524 20.9973 23.3863 20.6787 24.0903 20.3021C25.2052 19.7053 26.431 19.3929 27.6735 19.3882H28.8649C29.1874 19.3882 29.4486 19.672 29.4486 20.0223C29.4486 20.3727 29.1874 20.6565 28.8649 20.6565H27.6698C26.6053 20.662 25.5561 20.9323 24.6018 21.4452C23.5803 21.9905 20.6123 22.2735 20.2103 22.2807L16.6767 22.348C16.0726 22.3583 15.5896 22.8982 15.5991 23.5553C15.5991 23.5569 15.5991 23.5585 15.5991 23.56V23.7186C15.6108 24.3757 16.1098 24.8989 16.7147 24.8894L21.2689 24.803C21.5914 24.7966 21.857 25.0756 21.8628 25.426C21.8687 25.7764 21.6119 26.0649 21.2894 26.0712L16.7351 26.1576L16.6979 26.1529Z" fill="#485B78"/>
        <path d="M33.4163 30.9999H28.8613C28.5388 30.9999 28.2776 30.7161 28.2776 30.3657V17.5331C28.2776 17.1827 28.5388 16.8989 28.8613 16.8989H33.4163C33.7387 16.8989 33.9999 17.1827 33.9999 17.5331V30.3657C33.9999 30.7161 33.7387 30.9999 33.4163 30.9999ZM29.445 29.7316H32.8326V18.1672H29.445V29.7316Z" fill="#485B78"/>
        <path d="M31.1384 23.1036C30.8159 23.1036 30.5547 22.8198 30.5547 22.4694V19.5746C30.5547 19.2242 30.8159 18.9404 31.1384 18.9404C31.4609 18.9404 31.7221 19.2242 31.7221 19.5746V22.4694C31.7221 22.8198 31.4609 23.1036 31.1384 23.1036Z" fill="#485B78"/>
    </g>
    <defs>
        <clipPath id="clip0_502_6799">
            <rect width="34" height="31" fill="white"/>
        </clipPath>
    </defs>
</svg>
