<svg width="343" height="145" viewBox="0 0 343 145" fill="none" xmlns="http://www.w3.org/2000/svg">
    <g filter="url(#filter0_d_1047_3379)">
        <path fill-rule="evenodd" clip-rule="evenodd" d="M218.057 23.2959L326.785 35.5186C333.165 36.232 338 41.6416 338.012 48.074V122.373C338.012 129.352 332.356 135.012 325.383 135.012H217.807C214.159 126.808 205.962 121.089 196.422 121.089C186.882 121.089 178.685 126.82 175.037 135.012H20.6289C13.6553 135.012 8 129.352 8 122.373V15.639C8 8.14823 14.4746 2.29862 21.9238 3.07133L173.41 18.6946C175.43 29.5735 184.945 37.8252 196.41 37.8252C206.188 37.8252 214.552 31.8208 218.057 23.2959ZM194.732 42.795V45.7674H196.732V42.795H194.732ZM194.732 54.231V51.8311H196.732V54.231H194.732ZM194.732 63.8299V59.0303H196.732V63.8299H194.732ZM194.732 73.429V68.6294H196.732V73.429H194.732ZM194.732 83.0279V78.2283H196.732V83.0279H194.732ZM194.732 92.627V87.8274H196.732V92.627H194.732ZM194.732 102.226V97.4263H196.732V102.226H194.732ZM194.732 109.425V107.025H196.732V109.425H194.732ZM194.732 112.457V115.429H196.732V112.457H194.732Z" fill="#EA5B44"/>
    </g>
    <defs>
        <filter id="filter0_d_1047_3379" x="0" y="0.00268555" width="342.012" height="144.009" filterUnits="userSpaceOnUse" color-interpolation-filters="sRGB">
            <feFlood flood-opacity="0" result="BackgroundImageFix"/>
            <feColorMatrix in="SourceAlpha" type="matrix" values="0 0 0 0 0 0 0 0 0 0 0 0 0 0 0 0 0 0 127 0" result="hardAlpha"/>
            <feOffset dx="-2" dy="3"/>
            <feGaussianBlur stdDeviation="3"/>
            <feComposite in2="hardAlpha" operator="out"/>
            <feColorMatrix type="matrix" values="0 0 0 0 0.917647 0 0 0 0 0.356863 0 0 0 0 0.266667 0 0 0 0.33 0"/>
            <feBlend mode="normal" in2="BackgroundImageFix" result="effect1_dropShadow_1047_3379"/>
            <feBlend mode="normal" in="SourceGraphic" in2="effect1_dropShadow_1047_3379" result="shape"/>
        </filter>
    </defs>
</svg>
