<svg width="14" height="14" viewBox="0 0 14 14" fill="none" xmlns="http://www.w3.org/2000/svg">
    <path d="M11.1234 9.35989C11.2601 9.35989 11.3709 9.24911 11.3709 9.11244C11.3709 8.97578 11.2601 8.86499 11.1234 8.86499C10.9868 8.86499 10.876 8.97578 10.876 9.11244C10.876 9.24911 10.9868 9.35989 11.1234 9.35989Z" fill="#8B97A7"/>
    <path d="M0.247452 12.8308C0.384115 12.8308 0.494903 12.7201 0.494903 12.5834C0.494903 12.4467 0.384115 12.3359 0.247452 12.3359C0.110788 12.3359 0 12.4467 0 12.5834C0 12.7201 0.110788 12.8308 0.247452 12.8308Z" fill="#8B97A7"/>
    <path d="M9.41486 4.85969H8.70708C8.59183 3.81836 7.70982 3.00854 6.63798 3.00854C5.56614 3.00854 4.68413 3.81869 4.56888 4.85969H3.8611C3.09434 4.85969 2.47266 5.48137 2.47266 6.24813C2.47266 7.01489 3.09434 7.63657 3.8611 7.63657V9.95075H9.41486V7.63657C10.1816 7.63657 10.8033 7.01489 10.8033 6.24813C10.8033 5.48137 10.1816 4.85969 9.41486 4.85969Z" fill="white"/>
    <path d="M9.41494 10.1819H3.86117C3.73338 10.1819 3.62965 10.0785 3.62965 9.95034V7.85106C2.8456 7.73852 2.24121 7.06227 2.24121 6.24771C2.24121 5.35451 2.96797 4.62775 3.86117 4.62775H4.37099C4.58692 3.55897 5.52723 2.77661 6.63805 2.77661C7.74887 2.77661 8.68919 3.55897 8.90512 4.62775H9.41494C10.3081 4.62775 11.0349 5.35451 11.0349 6.24771C11.0349 7.06227 10.4305 7.73852 9.64646 7.85106V9.95034C9.64646 10.0785 9.54273 10.1819 9.41494 10.1819ZM4.09269 9.71915H9.18375V7.63649C9.18375 7.5087 9.28748 7.40497 9.41528 7.40497C10.0532 7.40497 10.5722 6.886 10.5722 6.24805C10.5722 5.6101 10.0532 5.09113 9.41528 5.09113H8.7075C8.58953 5.09113 8.49055 5.00232 8.47733 4.88537C8.37361 3.94743 7.58278 3.23999 6.63839 3.23999C5.69401 3.23999 4.90318 3.94743 4.79945 4.88537C4.78657 5.00232 4.68725 5.09113 4.56929 5.09113H3.86151C3.22356 5.09113 2.70459 5.6101 2.70459 6.24805C2.70459 6.886 3.22356 7.40497 3.86151 7.40497C3.9893 7.40497 4.09303 7.50836 4.09303 7.63649V9.71915H4.09269Z" fill="#8B97A7"/>
    <path d="M9.41509 9.95044H3.86133V10.6664C3.86133 10.9101 4.05895 11.1077 4.30267 11.1077H8.97408C9.21781 11.1077 9.41543 10.9101 9.41543 10.6664L9.41509 9.95044Z" fill="#EEF0F2"/>
    <path d="M8.97416 11.339H4.30241C3.93157 11.339 3.62988 11.0373 3.62988 10.6664V9.95051C3.62988 9.82272 3.73361 9.71899 3.8614 9.71899H9.41517C9.54296 9.71899 9.64669 9.82238 9.64669 9.95051V10.6664C9.64669 11.0373 9.345 11.339 8.97416 11.339ZM4.09292 10.1817V10.6661C4.09292 10.7817 4.18716 10.8759 4.30275 10.8759H8.97416C9.08975 10.8759 9.18399 10.782 9.18399 10.6661V10.1817H4.09292Z" fill="#8B97A7"/>
    <path d="M4.55525 5.78519C4.42746 5.78519 4.32373 5.6818 4.32373 5.55367V4.85945C4.32373 4.73166 4.42746 4.62793 4.55525 4.62793C4.68304 4.62793 4.78677 4.73132 4.78677 4.85945V5.55367C4.78677 5.68146 4.68304 5.78519 4.55525 5.78519Z" fill="#8B97A7"/>
    <path d="M6.63799 1.04126C3.12892 1.04126 0.274414 3.89611 0.274414 7.40483C0.274414 10.9136 3.12926 13.7684 6.63799 13.7684C10.1467 13.7684 13.0016 10.9136 13.0016 7.40483C13.0016 3.89611 10.1471 1.04126 6.63799 1.04126ZM6.63799 1.73548C8.01762 1.73548 9.28335 2.2314 10.2674 3.05341L2.28657 11.0342C1.46455 10.0502 0.968635 8.78446 0.968635 7.40483C0.968635 4.27881 3.51196 1.73548 6.63799 1.73548ZM6.63799 13.0745C5.14074 13.0745 3.77806 12.4901 2.76385 11.5386L10.7718 3.53069C11.7233 4.54524 12.3077 5.90758 12.3077 7.40483C12.3073 10.5312 9.76402 13.0745 6.63799 13.0745Z" fill="#E2B3AB"/>
    <path d="M6.63806 14C3.00154 14 0.0429688 11.0414 0.0429688 7.40491C0.0429688 3.76839 3.00154 0.809814 6.63806 0.809814C10.2746 0.809814 13.2332 3.76839 13.2332 7.40491C13.2332 11.0414 10.2746 14 6.63806 14ZM6.63806 1.27285C3.25679 1.27285 0.505669 4.02364 0.505669 7.40525C0.505669 10.7869 3.25645 13.5376 6.63806 13.5376C10.0197 13.5376 12.7705 10.7869 12.7705 7.40525C12.7705 4.02364 10.0193 1.27285 6.63806 1.27285ZM6.63806 13.3058C5.13674 13.3058 3.70458 12.738 2.60562 11.7075C2.55986 11.6645 2.53342 11.6051 2.5324 11.5424C2.53138 11.4797 2.55579 11.4194 2.6002 11.3753L10.6081 3.36704C10.6525 3.32264 10.7153 3.3023 10.7756 3.29925C10.8383 3.30026 10.8976 3.3267 10.9407 3.37246C11.9715 4.47142 12.5389 5.90359 12.5389 7.40491C12.5389 10.6587 9.89188 13.3058 6.63806 13.3058ZM3.10018 11.5296C4.08728 12.3783 5.33437 12.8431 6.63806 12.8431C9.63663 12.8431 12.0762 10.4035 12.0762 7.40491C12.0762 6.10121 11.6115 4.85412 10.7627 3.86703L3.10018 11.5296ZM2.28664 11.2658C2.28325 11.2658 2.27986 11.2658 2.27614 11.2655C2.21139 11.2624 2.15071 11.2326 2.10902 11.1824C1.2243 10.1238 0.737189 8.78216 0.737189 7.40491C0.737189 4.15109 3.38424 1.50403 6.63806 1.50403C8.01532 1.50403 9.35698 1.99114 10.4156 2.87587C10.4654 2.91756 10.4956 2.97824 10.4983 3.04298C10.5014 3.10772 10.4766 3.17111 10.4309 3.21688L2.45003 11.198C2.40664 11.2414 2.34766 11.2658 2.28664 11.2658ZM6.63806 1.96707C3.63949 1.96707 1.19989 4.40668 1.19989 7.40525C1.19989 8.58963 1.59107 9.74553 2.30596 10.6875L9.9207 3.07281C8.97835 2.35825 7.82244 1.96707 6.63806 1.96707Z" fill="#8B97A7"/>
    <path d="M9.41492 7.86782H8.95222C8.82443 7.86782 8.7207 7.76444 8.7207 7.63631C8.7207 7.50817 8.82443 7.40479 8.95222 7.40479H9.41492C9.54272 7.40479 9.64644 7.50817 9.64644 7.63631C9.64644 7.76444 9.54272 7.86782 9.41492 7.86782Z" fill="#8B97A7"/>
    <path d="M4.3241 7.86782H3.8614C3.73361 7.86782 3.62988 7.76444 3.62988 7.63631C3.62988 7.50817 3.73361 7.40479 3.8614 7.40479H4.3241C4.4519 7.40479 4.55562 7.50817 4.55562 7.63631C4.55562 7.76444 4.4519 7.86782 4.3241 7.86782Z" fill="#8B97A7"/>
</svg>
