<svg width="11" height="10" viewBox="0 0 11 10" fill="none" xmlns="http://www.w3.org/2000/svg">
    <path d="M8.755 2.57152H7.94355C7.81141 1.37765 6.8002 0.449219 5.57136 0.449219C4.34252 0.449219 3.33131 1.37804 3.19917 2.57152H2.38772C1.50864 2.57152 0.795898 3.28426 0.795898 4.16334C0.795898 5.04242 1.50864 5.75516 2.38772 5.75516V8.40832H8.755V5.75516C9.63408 5.75516 10.3468 5.04242 10.3468 4.16334C10.3468 3.28426 9.63408 2.57152 8.755 2.57152Z" fill="white"/>
    <path d="M8.75481 8.67332H2.38753C2.24101 8.67332 2.12209 8.55479 2.12209 8.40789V6.00111C1.2232 5.87209 0.530273 5.09678 0.530273 4.1629C0.530273 3.13887 1.36349 2.30565 2.38753 2.30565H2.97202C3.21958 1.0803 4.29763 0.18335 5.57117 0.18335C6.8447 0.18335 7.92276 1.0803 8.17031 2.30565H8.75481C9.77885 2.30565 10.6121 3.13887 10.6121 4.1629C10.6121 5.09678 9.91914 5.87209 9.02024 6.00111V8.40789C9.02024 8.55479 8.90132 8.67332 8.75481 8.67332ZM2.65296 8.14284H8.48977V5.75511C8.48977 5.6086 8.60869 5.48968 8.7552 5.48968C9.4866 5.48968 10.0816 4.89469 10.0816 4.16329C10.0816 3.43189 9.4866 2.8369 8.7552 2.8369H7.94336C7.80811 2.8369 7.69463 2.73508 7.67948 2.601C7.56056 1.52567 6.65389 0.714604 5.57117 0.714604C4.48845 0.714604 3.58178 1.52567 3.46286 2.601C3.44809 2.73508 3.33423 2.8369 3.19898 2.8369H2.38753C1.65613 2.8369 1.06114 3.43189 1.06114 4.16329C1.06114 4.89469 1.65613 5.48968 2.38753 5.48968C2.53404 5.48968 2.65296 5.60821 2.65296 5.75511V8.14284Z" fill="#EEF0F2"/>
    <path d="M8.75498 8.4082H2.3877V9.22899C2.3877 9.50841 2.61427 9.73498 2.89369 9.73498H8.24937C8.5288 9.73498 8.75537 9.50841 8.75537 9.22899L8.75498 8.4082Z" fill="#E2B3AB"/>
    <path d="M8.24918 10.0001H2.89311C2.46795 10.0001 2.12207 9.6542 2.12207 9.22904V8.40825C2.12207 8.26174 2.24099 8.14282 2.3875 8.14282H8.75479C8.9013 8.14282 9.02022 8.26135 9.02022 8.40825V9.22904C9.02022 9.6542 8.67434 10.0001 8.24918 10.0001ZM2.65294 8.6733V9.22865C2.65294 9.36117 2.76097 9.46921 2.8935 9.46921H8.24918C8.3817 9.46921 8.48974 9.36156 8.48974 9.22865V8.6733H2.65294Z" fill="#EEF0F2"/>
    <path d="M3.1834 3.63268C3.03689 3.63268 2.91797 3.51415 2.91797 3.36725V2.57134C2.91797 2.42483 3.03689 2.30591 3.1834 2.30591C3.32991 2.30591 3.44883 2.42444 3.44883 2.57134V3.36725C3.44883 3.51376 3.32991 3.63268 3.1834 3.63268Z" fill="#EEF0F2"/>
    <path d="M8.75489 6.02037H8.22442C8.0779 6.02037 7.95898 5.90184 7.95898 5.75494C7.95898 5.60803 8.0779 5.4895 8.22442 5.4895H8.75489C8.90141 5.4895 9.02033 5.60803 9.02033 5.75494C9.02033 5.90184 8.90141 6.02037 8.75489 6.02037Z" fill="#EEF0F2"/>
    <path d="M2.91798 6.02037H2.3875C2.24099 6.02037 2.12207 5.90184 2.12207 5.75494C2.12207 5.60803 2.24099 5.4895 2.3875 5.4895H2.91798C3.06449 5.4895 3.18341 5.60803 3.18341 5.75494C3.18341 5.90184 3.06449 6.02037 2.91798 6.02037Z" fill="#EEF0F2"/>
</svg>
