<svg width="14" height="12" viewBox="0 0 14 12" fill="none" xmlns="http://www.w3.org/2000/svg">
    <g clip-path="url(#clip0_729_2804)">
        <path d="M10.638 1.99333C10.3298 1.72976 9.88301 1.64404 9.48182 1.77154C9.36847 1.80556 9.28584 1.89395 9.26795 2.00003L9.17876 2.54967C9.04364 3.38003 8.25258 3.99663 7.31806 3.99985H6.04528C5.89912 3.99985 5.77205 4.08931 5.73655 4.21654L4.78204 7.64511C4.73939 7.79833 4.84319 7.95342 5.01381 7.99145C5.03886 7.99708 5.06481 8.00003 5.09076 8.00003H6.68152C6.82768 8.00003 6.95475 7.91083 6.99024 7.7836L7.56623 5.7144H8.8071C9.75952 5.71735 10.5905 5.13422 10.8178 4.3036L11.0526 3.45851C11.2181 2.9386 11.0594 2.37904 10.638 1.99333Z" fill="#03A9F4"/>
        <path d="M0.317972 11.4285C0.142282 11.4285 0 11.3005 0 11.1427C0 11.1194 0.00328113 11.0964 0.00954511 11.0736L0.327815 9.93656V9.9245L0.646085 8.78799C0.681283 8.66075 0.808352 8.57129 0.954512 8.57129H1.76406C2.20343 8.57129 2.55958 8.89084 2.55958 9.2854C2.55958 9.34379 2.55153 9.40191 2.53602 9.4587L2.45638 9.7445C2.36779 10.0624 2.04952 10.2856 1.68441 10.2856H0.885011L0.627293 11.2118C0.591797 11.3393 0.464429 11.4288 0.317972 11.4285ZM1.0443 9.71424H1.68441C1.75749 9.71397 1.82103 9.66924 1.83833 9.60575L1.91797 9.31995C1.93975 9.24388 1.88874 9.1662 1.80403 9.14665C1.7909 9.1437 1.77748 9.14209 1.76406 9.14209H1.20328L1.0443 9.71424Z" fill="#283593"/>
        <path d="M3.72068 11.4284H3.26758C2.78048 11.4284 2.38555 11.0741 2.38525 10.6366C2.38525 10.5718 2.3942 10.5073 2.4115 10.4446L2.45356 10.2927C2.54782 9.95146 2.88936 9.71253 3.28071 9.71387H3.7338C4.2209 9.71468 4.61493 10.0699 4.61434 10.5073C4.61434 10.5718 4.60539 10.6358 4.58779 10.6985L4.54573 10.8504C4.45177 11.1903 4.11113 11.429 3.72068 11.4284ZM3.02985 10.5831C2.99704 10.7012 3.07727 10.8209 3.20912 10.8504C3.22821 10.8547 3.24819 10.8568 3.26788 10.8568H3.72097C3.81911 10.8571 3.90472 10.7971 3.92828 10.7116L3.97034 10.5598C4.00315 10.4416 3.92291 10.3219 3.79107 10.2924C3.77198 10.2882 3.752 10.286 3.73231 10.286H3.27921C3.18108 10.2857 3.09547 10.3457 3.07161 10.4312L3.02985 10.5831Z" fill="#283593"/>
        <path d="M4.13584 11.4286C3.96015 11.4286 3.81757 11.3006 3.81787 11.1428C3.81787 11.1195 3.82115 11.0965 3.82742 11.0737L4.14569 9.93076C4.18834 9.77754 4.36105 9.68433 4.53167 9.72236C4.70229 9.76067 4.80609 9.91576 4.76373 10.069L4.44546 11.2119C4.40997 11.3394 4.2823 11.4289 4.13584 11.4286Z" fill="#283593"/>
        <path d="M7.9542 11.4287C7.77851 11.4287 7.63623 11.3007 7.63623 11.1429C7.63623 11.1196 7.63951 11.0966 7.64578 11.0738L7.96405 9.93678V9.92472L8.28232 8.78821C8.31751 8.66097 8.44488 8.57178 8.59104 8.57178H9.40059C9.83996 8.57178 10.1961 8.89133 10.1961 9.28588C10.1961 9.34428 10.1881 9.4024 10.1722 9.45919L10.0926 9.74499C10.004 10.0632 9.68575 10.2861 9.32065 10.2861H8.52124L8.26352 11.2123C8.22833 11.3395 8.10066 11.429 7.9542 11.4287ZM8.68053 9.71446H9.32124C9.39432 9.71419 9.45786 9.66946 9.47516 9.60597L9.5548 9.32017C9.57657 9.2441 9.52557 9.16642 9.44085 9.14687C9.42773 9.14392 9.41431 9.14231 9.40088 9.14231H8.83951L8.68053 9.71446Z" fill="#03A9F4"/>
        <path d="M11.3569 11.4289H10.9038C10.4167 11.4289 10.0218 11.0745 10.0215 10.6371C10.0215 10.5723 10.0304 10.5078 10.0477 10.4451L10.0898 10.2932C10.184 9.95195 10.5256 9.71302 10.9169 9.71436H11.37C11.8571 9.71436 12.2521 10.0687 12.2524 10.5061C12.2524 10.571 12.2434 10.6355 12.2261 10.6982L12.184 10.8501C12.0901 11.1911 11.7483 11.4303 11.3569 11.4289ZM10.6661 10.5836C10.6333 10.7017 10.7135 10.8214 10.8453 10.8509C10.8644 10.8552 10.8844 10.8573 10.9041 10.8573H11.3572C11.4553 10.8576 11.5409 10.7976 11.5645 10.7121L11.6066 10.5603C11.6394 10.4421 11.5591 10.3224 11.4273 10.2929C11.4082 10.2886 11.3882 10.2865 11.3685 10.2865H10.9154C10.8173 10.2862 10.7317 10.3462 10.7081 10.4317L10.6661 10.5836Z" fill="#03A9F4"/>
        <path d="M11.7721 11.4286C11.5964 11.4286 11.4538 11.3006 11.4541 11.1428C11.4541 11.1195 11.4574 11.0965 11.4636 11.0737L11.7819 9.93076C11.8246 9.77754 11.9973 9.68433 12.1679 9.72236C12.3385 9.76067 12.4423 9.91576 12.4 10.069L12.0817 11.2119C12.0462 11.3394 11.9185 11.4289 11.7721 11.4286Z" fill="#03A9F4"/>
        <path d="M6.045 11.1427C5.93851 11.1427 5.83918 11.0947 5.78012 11.0152L5.14388 10.158C5.04634 10.0268 5.08572 9.84945 5.23217 9.7616C5.37863 9.67374 5.5758 9.70937 5.67334 9.84062L6.30958 10.6978C6.40712 10.829 6.36804 11.0063 6.22218 11.0942C6.16998 11.1261 6.10824 11.1427 6.045 11.1427Z" fill="#283593"/>
        <path d="M5.40879 11.9998C5.2331 11.9998 5.09082 11.8717 5.09082 11.714C5.09082 11.6473 5.11707 11.5825 5.1645 11.5313L6.75525 9.81701C6.868 9.69594 7.06875 9.6796 7.20357 9.78058C7.3384 9.88157 7.35659 10.0621 7.24384 10.1832L5.65309 11.8975C5.59254 11.9625 5.50305 11.9998 5.40879 11.9998Z" fill="#283593"/>
        <path d="M13.045 11.4287C12.8693 11.4287 12.7268 11.3007 12.7271 11.1429C12.7271 11.1196 12.7303 11.0966 12.7366 11.0738L13.3728 8.78818C13.4155 8.63497 13.5882 8.54175 13.7588 8.57979C13.9294 8.61809 14.0332 8.77318 13.9909 8.92639L13.3546 11.212C13.3188 11.3395 13.1912 11.429 13.045 11.4287Z" fill="#03A9F4"/>
        <path d="M9.58709 0.494197C9.28164 0.179732 8.83929 -0.000267559 8.37426 2.98522e-07H4.77277C4.61885 2.98522e-07 4.48701 0.0988396 4.45957 0.234911L3.18679 6.52071C3.15547 6.67607 3.27031 6.82473 3.44331 6.85286C3.4621 6.8558 3.4809 6.85741 3.49999 6.85741H5.40901C5.55517 6.85741 5.68224 6.76821 5.71774 6.64098L6.29432 4.57179H7.31803C8.56964 4.5675 9.62914 3.74116 9.80931 2.62902L9.96829 1.65241C10.0339 1.23482 9.89492 0.812411 9.58709 0.494197Z" fill="#283593"/>
    </g>
    <defs>
        <clipPath id="clip0_729_2804">
            <rect width="14" height="12" fill="white"/>
        </clipPath>
    </defs>
</svg>
