<svg width="15" height="15" viewBox="0 0 15 15" fill="none" xmlns="http://www.w3.org/2000/svg">
    <g clip-path="url(#clip0_244_9268)">
        <path
            d="M12.8032 2.19677C11.3867 0.780242 9.50323 0 7.5 0C5.49677 0 3.61331 0.780242 2.19677 2.19677C0.780242 3.61331 0 5.49677 0 7.5C0 8.68125 0.266734 9.81169 0.792943 10.8599C1.29466 11.8594 2.02863 12.7503 2.91593 13.4362C2.96008 13.4704 3.0121 13.4867 3.06381 13.4867C3.13609 13.4867 3.20776 13.4543 3.25524 13.3926C3.33689 13.2871 3.31754 13.135 3.212 13.0533C1.54234 11.7626 0.558871 9.8374 0.488407 7.74194H6.6245C6.73065 8.12571 7.08296 8.40847 7.5 8.40847C7.91734 8.40847 8.26935 8.12571 8.3755 7.74194H14.5116C14.4426 9.77601 13.5051 11.6646 11.9147 12.9535C11.811 13.0376 11.795 13.19 11.879 13.2937C11.9631 13.3975 12.1155 13.4135 12.2193 13.3294C13.9866 11.8972 15 9.77238 15 7.5C15 5.49677 14.2198 3.61331 12.8032 2.19677ZM14.5116 7.25806H11.9552C11.9211 6.62177 11.7529 6.02056 11.4789 5.48226L13.6926 4.20423C14.182 5.12056 14.4741 6.15756 14.5116 7.25806ZM13.4495 3.78569L11.2358 5.06371C10.8971 4.54597 10.4537 4.10292 9.93599 3.76391L11.214 1.5502C12.1176 2.11633 12.8837 2.88236 13.4495 3.78569ZM5.48226 3.52137L4.20423 1.30796C5.12056 0.818347 6.15756 0.52621 7.25806 0.48871V3.04506C6.62177 3.07893 6.02056 3.24708 5.48226 3.52137ZM7.74194 0.488407C8.84244 0.525907 9.87944 0.818044 10.7958 1.30766L9.51774 3.52107C8.97913 3.24677 8.37823 3.07893 7.74194 3.04476V0.488407ZM3.78569 1.5505L5.06371 3.76421C4.54597 4.10292 4.10292 4.54627 3.76421 5.06401L1.5505 3.78599C2.11633 2.88236 2.88236 2.11633 3.78569 1.5505ZM3.52137 5.48226C3.24708 6.02087 3.07923 6.62177 3.04506 7.25806H0.488407C0.525907 6.15756 0.818044 5.12056 1.30766 4.20423L3.52137 5.48226ZM6.6245 7.25806H3.52984C3.65534 5.17681 5.3879 3.52198 7.5 3.52198C9.6121 3.52198 11.3447 5.17681 11.4702 7.25806H8.3755C8.35524 7.18548 8.32651 7.11623 8.28992 7.05212L9.28246 6.05958C9.37681 5.96492 9.37681 5.81189 9.28246 5.71754C9.1878 5.62319 9.03478 5.62319 8.94042 5.71754L7.94788 6.71008C7.81542 6.63478 7.6627 6.59153 7.5 6.59153C7.08296 6.59153 6.73065 6.87429 6.6245 7.25806ZM7.5 7.9246C7.26593 7.9246 7.0754 7.73407 7.0754 7.5C7.0754 7.26593 7.26593 7.0754 7.5 7.0754C7.73407 7.0754 7.9246 7.26593 7.9246 7.5C7.9246 7.73407 7.73407 7.9246 7.5 7.9246ZM7.0376 11.0713H5.95827C5.8246 11.0713 5.71633 11.1795 5.71633 11.3132V14.7581C5.71633 14.8917 5.8246 15 5.95827 15H7.0376C7.17127 15 7.27954 14.8917 7.27954 14.7581V11.3132C7.27954 11.1795 7.17127 11.0713 7.0376 11.0713ZM6.79567 14.5161H6.2002V11.5551H6.79567V14.5161ZM9.04173 11.5213H7.9624C7.82873 11.5213 7.72046 11.6295 7.72046 11.7632V14.7581C7.72046 14.8917 7.82873 15 7.9624 15H9.04173C9.1754 15 9.28367 14.8917 9.28367 14.7581V11.7632C9.28367 11.6295 9.1754 11.5213 9.04173 11.5213ZM8.7998 14.5161H8.20433V12.0051H8.7998V14.5161ZM11.0456 9.65564H9.96623C9.83256 9.65564 9.72429 9.76391 9.72429 9.89758V14.7581C9.72429 14.8917 9.83256 15 9.96623 15H11.0456C11.1792 15 11.2875 14.8917 11.2875 14.7581V9.89758C11.2875 9.76391 11.1792 9.65564 11.0456 9.65564ZM10.8036 14.5161H10.2082V10.1395H10.8036V14.5161ZM5.03377 12.4077H3.95444C3.82077 12.4077 3.7125 12.5159 3.7125 12.6496V14.7581C3.7125 14.8917 3.82077 15 3.95444 15H5.03377C5.16744 15 5.27571 14.8917 5.27571 14.7581V12.6496C5.27571 12.5159 5.16714 12.4077 5.03377 12.4077ZM4.79183 14.5161H4.19637V12.8915H4.79183V14.5161ZM8.42933 9.97137L9.8622 8.52611C9.73367 8.53034 9.62389 8.43478 9.6127 8.30564C9.60091 8.17258 9.6995 8.05524 9.83256 8.04345L10.4849 7.98629C10.5572 7.97994 10.6285 8.00625 10.679 8.05827C10.7298 8.11028 10.7543 8.18196 10.7465 8.25423L10.6736 8.90504C10.6597 9.02873 10.555 9.12006 10.4335 9.12006C10.4244 9.12006 10.4153 9.11946 10.4062 9.11855C10.2835 9.10494 10.1927 9.00151 10.1915 8.88115L8.66794 10.4177C8.60353 10.4825 8.50827 10.5057 8.42147 10.4776L6.54526 9.86885L4.64244 11.3504C4.59829 11.3849 4.54597 11.4015 4.49395 11.4015C4.42198 11.4015 4.3506 11.3695 4.30282 11.3084C4.22087 11.2028 4.23962 11.051 4.34516 10.9688L6.34929 9.40827C6.4128 9.35897 6.49627 9.34415 6.57248 9.36895L8.42933 9.97137Z"
            fill="#F44336" />
    </g>
    <defs>
        <clipPath id="clip0_244_9268">
            <rect width="15" height="15" fill="white" />
        </clipPath>
    </defs>
</svg>
