<svg width="8" height="6" viewBox="0 0 8 6" fill="none" xmlns="http://www.w3.org/2000/svg">
    <path d="M6.42879 4.99469H1.57129C1.48504 4.99469 1.41504 4.92469 1.41504 4.83844V0.293593C1.41504 0.207343 1.48504 0.137343 1.57129 0.137343H6.42863C6.51488 0.137343 6.58488 0.207343 6.58488 0.293593V4.83859C6.58504 4.92484 6.51504 4.99469 6.42879 4.99469Z" fill="#E2AE83"/>
    <path d="M6.5852 0.298281C6.5852 0.209375 6.51316 0.137343 6.42426 0.137343H4.75879V0.787968C4.75879 0.920781 4.8141 1.04891 4.91051 1.13953C5.00066 1.22437 5.11848 1.27109 5.24223 1.27094C5.35895 1.27094 5.47191 1.22828 5.56004 1.15094L5.92488 0.830937C5.93363 0.823281 5.94473 0.819062 5.95613 0.819062H6.5852V0.298281Z" fill="#D39C72"/>
    <path d="M1.8627 4.83375V0.298281C1.8627 0.209375 1.93473 0.137343 2.02363 0.137343H1.57598C1.48707 0.137343 1.41504 0.209375 1.41504 0.298281V4.83375C1.41504 4.92266 1.48707 4.99469 1.57598 4.99469H2.02363C1.93473 4.99469 1.8627 4.92266 1.8627 4.83375Z" fill="#D39C72"/>
    <path d="M7.91963 6C7.96416 6 8.0001 5.96391 8.0001 5.91953V4.15141C8.0001 4.10688 7.964 4.07094 7.91963 4.07094H7.62744C7.44354 4.07094 7.26729 3.99797 7.13729 3.86797L6.4451 3.17578C6.33322 3.06391 6.15182 3.06391 6.03994 3.17578C5.92807 3.28766 5.92807 3.46906 6.03994 3.58094L6.32369 3.86469H6.03275H4.92994C4.78494 3.86469 4.66104 3.9775 4.65619 4.1225C4.65119 4.27406 4.77244 4.39859 4.92291 4.39859H4.65604C4.50869 4.39859 4.38916 4.51813 4.38916 4.66547C4.38916 4.81281 4.50869 4.93234 4.65604 4.93234H4.92291C4.77557 4.93234 4.65604 5.05187 4.65604 5.19922C4.65604 5.34656 4.77557 5.46609 4.92291 5.46609H5.17541C5.02494 5.46609 4.90354 5.59063 4.90869 5.74219C4.91354 5.88719 5.03744 6 5.18244 6H7.91963Z" fill="#FFCEBF"/>
    <path d="M6.32338 3.86469H6.5915L6.30775 3.58094C6.19588 3.46906 6.19588 3.28766 6.30775 3.17578C6.32853 3.155 6.35166 3.13828 6.37619 3.12516C6.26791 3.06781 6.13072 3.08469 6.03947 3.17578C5.9276 3.28766 5.9276 3.46906 6.03947 3.58094L6.32338 3.86469Z" fill="#FFB09E"/>
    <path d="M0.0804688 6C0.0360938 6 0 5.96391 0 5.91953V4.15141C0 4.10688 0.0360938 4.07094 0.0804688 4.07094H0.372656C0.556563 4.07094 0.732813 3.99797 0.862813 3.86797L1.555 3.17578C1.66688 3.06391 1.84828 3.06391 1.96016 3.17578C2.07203 3.28766 2.07203 3.46906 1.96016 3.58094L1.67641 3.86469H1.96734H3.07016C3.21516 3.86469 3.33906 3.9775 3.34391 4.1225C3.34891 4.27406 3.22766 4.39859 3.07719 4.39859H3.34406C3.49141 4.39859 3.61094 4.51813 3.61094 4.66547C3.61094 4.81281 3.49141 4.93234 3.34406 4.93234H3.07719C3.22453 4.93234 3.34406 5.05187 3.34406 5.19922C3.34406 5.34656 3.22453 5.46609 3.07719 5.46609H2.82469C2.97516 5.46609 3.09656 5.59063 3.09141 5.74219C3.08656 5.88719 2.96266 6 2.81766 6H0.0804688Z" fill="#FFCEBF"/>
    <path d="M0.365 5.91953V4.15141C0.365 4.10687 0.401094 4.07094 0.445469 4.07094H0.737656C0.921562 4.07094 1.09781 3.99797 1.22781 3.86797L1.92 3.17578C1.92641 3.16937 1.93313 3.16328 1.94 3.15766C1.8275 3.06437 1.66031 3.07031 1.55484 3.17578L0.862656 3.86797C0.732656 3.99797 0.556406 4.07094 0.3725 4.07094H0.0804688C0.0359375 4.07094 0 4.10703 0 4.15141V5.91953C0 5.96406 0.0360938 6 0.0804688 6H0.445469C0.401094 6 0.365 5.96391 0.365 5.91953Z" fill="#FFB09E"/>
    <path d="M3.34266 4.15703H2.22234C2.15562 4.15703 2.10156 4.21109 2.10156 4.27781C2.10156 4.34453 2.15562 4.39859 2.22234 4.39859H3.07719C3.21594 4.39859 3.32969 4.2925 3.34266 4.15703Z" fill="#FFB09E"/>
    <path d="M3.60969 4.69094H2.22234C2.15562 4.69094 2.10156 4.745 2.10156 4.81172C2.10156 4.87844 2.15562 4.9325 2.22234 4.9325H3.07719H3.34406C3.48281 4.93234 3.59687 4.82641 3.60969 4.69094Z" fill="#FFB09E"/>
    <path d="M2.22234 5.22469C2.15562 5.22469 2.10156 5.27875 2.10156 5.34547C2.10156 5.41219 2.15562 5.46625 2.22234 5.46625H2.82469H3.07719C3.21594 5.46625 3.33 5.36031 3.34281 5.22484L2.22234 5.22469Z" fill="#FFB09E"/>
    <path d="M5.19088 4.93234H5.7776C5.84432 4.93234 5.89838 4.87828 5.89838 4.81156C5.89838 4.74484 5.84432 4.69078 5.7776 4.69078H4.65838C4.6576 4.68234 4.65713 4.67391 4.65713 4.66531C4.65713 4.51797 4.77666 4.39844 4.924 4.39844H5.7776C5.84432 4.39844 5.89838 4.34437 5.89838 4.27766C5.89838 4.21094 5.84432 4.15687 5.7776 4.15687H4.92557C4.92447 4.14547 4.92385 4.13406 4.92432 4.12234C4.92916 3.97734 5.05307 3.86453 5.19807 3.86453H4.92994C4.78494 3.86453 4.66104 3.97734 4.65619 4.12234C4.65119 4.27391 4.77244 4.39844 4.92291 4.39844H4.65603C4.50869 4.39844 4.38916 4.51797 4.38916 4.66531C4.38916 4.81266 4.50869 4.93219 4.65603 4.93219H4.92291C4.77557 4.93219 4.65603 5.05172 4.65603 5.19906C4.65603 5.34641 4.77557 5.46594 4.92291 5.46594H5.17541C5.02494 5.46594 4.90354 5.59047 4.90869 5.74203C4.91354 5.88703 5.03744 5.99984 5.18244 5.99984H5.45057C5.30557 5.99984 5.18166 5.88703 5.17682 5.74203C5.17182 5.59047 5.29307 5.46594 5.44353 5.46594H5.77775C5.84447 5.46594 5.89853 5.41187 5.89853 5.34516C5.89853 5.27844 5.84447 5.22437 5.77775 5.22437H4.92541C4.92463 5.21594 4.92416 5.2075 4.92416 5.19891C4.924 5.05187 5.04338 4.93234 5.19088 4.93234Z" fill="#FFB09E"/>
    <g clip-path="url(#clip0_0_1)">
        <path d="M4.38585 1.51895C4.41767 1.47723 4.47382 1.44949 4.53779 1.44949C4.63702 1.44949 4.71749 1.51617 4.71749 1.5984C4.71749 1.60297 4.7172 1.6075 4.71668 1.61199C4.75883 1.60238 4.80102 1.60191 4.83826 1.61113C4.8385 1.60691 4.83864 1.6027 4.83864 1.59844C4.83864 1.46074 4.70391 1.3491 4.53774 1.3491C4.44035 1.3491 4.35384 1.38746 4.29883 1.44691L4.38585 1.51895Z" fill="#FED2A4"/>
        <path d="M3.32379 2.01348C3.31814 2.0048 3.31328 1.99598 3.30923 1.98711C3.22466 1.97504 3.16026 1.91398 3.16026 1.84043C3.16026 1.7582 3.24073 1.69152 3.33996 1.69152C3.38998 1.69152 3.43519 1.70848 3.46776 1.73578C3.47507 1.71102 3.48945 1.68852 3.51141 1.67031C3.51957 1.66355 3.52843 1.65773 3.53786 1.6527C3.48497 1.61437 3.41577 1.59109 3.33996 1.59109C3.17379 1.59109 3.03906 1.70273 3.03906 1.84043C3.03906 1.93871 3.1077 2.02367 3.20745 2.0643C3.23465 2.03875 3.2759 2.02062 3.32379 2.01348Z" fill="#FED2A4"/>
        <path d="M4.1428 1.75816C4.17957 1.74574 4.22473 1.75223 4.26942 1.77348C4.28417 1.6741 4.34786 1.59937 4.42418 1.59937C4.48037 1.59937 4.52968 1.63992 4.55768 1.70094C4.5648 1.69363 4.57244 1.68652 4.58069 1.67969L4.10994 1.28961C4.10028 1.2816 4.08448 1.28211 4.07543 1.29062C3.97592 1.38422 3.95235 1.51379 4.00439 1.62453C4.06685 1.62844 4.11984 1.68246 4.1428 1.75816Z" fill="#FB2B3A"/>
        <path d="M4.14236 1.75875C4.15791 1.75352 4.17498 1.75164 4.19284 1.75285C4.0807 1.63668 4.07839 1.47176 4.18587 1.35355L4.10945 1.29023C4.09979 1.28223 4.084 1.28273 4.07494 1.29125C3.97543 1.38484 3.95186 1.51441 4.0039 1.62516C4.06641 1.62902 4.1194 1.68305 4.14236 1.75875Z" fill="#E41F2D"/>
        <path d="M3.82105 1.43207C3.95214 1.32344 3.95785 1.15031 3.8383 1.03601C3.82934 1.02746 3.81346 1.02699 3.80379 1.035L3.34186 1.41777C3.33219 1.42578 3.33276 1.43894 3.34308 1.44637C3.48102 1.54547 3.68995 1.5407 3.82105 1.43207Z" fill="#FD4755"/>
        <path d="M3.43044 1.35742C3.42742 1.35523 3.42535 1.35258 3.42398 1.34969L3.34186 1.41777C3.33219 1.42578 3.33276 1.43894 3.34308 1.44637C3.48102 1.54547 3.68995 1.5407 3.82105 1.43207C3.84664 1.41086 3.86743 1.38715 3.88346 1.36191C3.75198 1.45195 3.55993 1.45043 3.43044 1.35742Z" fill="#FB2B3A"/>
        <path d="M3.24069 2.24016H3.61008C3.61008 2.23934 3.60999 2.23852 3.60999 2.23766C3.60999 2.22215 3.61178 2.20699 3.61503 2.1923C3.52113 2.1723 3.45537 2.12598 3.45537 2.07195C3.45537 2.02539 3.50425 1.98457 3.57789 1.96137C3.56903 1.95539 3.5603 1.94898 3.55201 1.94207C3.50157 1.90027 3.47168 1.84934 3.46395 1.80059C3.42185 1.79394 3.3806 1.79988 3.34826 1.82023C3.28505 1.86004 3.27675 1.9416 3.32366 2.01344C3.24441 2.02527 3.18322 2.06711 3.17403 2.12293C3.16677 2.16699 3.1935 2.2098 3.24069 2.24016Z" fill="#80D261"/>
        <path d="M4.08972 2.22113C4.07977 2.14668 4.00364 2.08875 3.91115 2.08875C3.81191 2.08875 3.73145 2.15543 3.73145 2.23766C3.73145 2.23848 3.73149 2.2393 3.73154 2.24016H4.07331C4.07925 2.23387 4.08477 2.22754 4.08972 2.22113Z" fill="#017B4E"/>
        <path d="M3.45557 2.07199C3.45557 2.12598 3.52138 2.17234 3.61523 2.19234C3.64097 2.07633 3.76359 1.9884 3.91109 1.9884C3.99689 1.9884 4.07424 2.0182 4.12907 2.06598C4.12992 2.05383 4.13176 2.04176 4.13425 2.02977C4.13114 2.0257 4.12813 2.02156 4.1252 2.01734C4.05251 1.91301 4.05482 1.7991 4.13039 1.76297C4.13421 1.76113 4.13821 1.75961 4.14227 1.75824C4.11837 1.67965 4.06218 1.62441 3.99656 1.62441C3.94036 1.62441 3.89105 1.66496 3.86305 1.72598C3.85575 1.71852 3.84792 1.71121 3.83943 1.70418C3.73761 1.6198 3.59072 1.60465 3.51143 1.67039C3.43209 1.73613 3.45038 1.85781 3.55221 1.94219C3.56055 1.9491 3.56922 1.95551 3.57809 1.96148C3.50445 1.98461 3.45557 2.02543 3.45557 2.07199Z" fill="#017B4E"/>
        <path d="M3.45557 2.07199C3.45557 2.12598 3.52138 2.17234 3.61523 2.19234C3.6199 2.17133 3.62772 2.15125 3.63828 2.13246C3.61929 2.11438 3.60859 2.09383 3.60859 2.07199C3.60859 2.03234 3.64413 1.9968 3.70018 1.97281C3.71404 1.96687 3.71649 1.95145 3.70546 1.94234C3.70537 1.94227 3.70527 1.94219 3.70522 1.94215C3.6034 1.85777 3.58511 1.73605 3.66445 1.67035C3.6801 1.65738 3.69839 1.64762 3.71842 1.64086C3.64144 1.6193 3.56248 1.62805 3.51143 1.67035C3.43209 1.73609 3.45038 1.85777 3.55221 1.94215C3.56055 1.94906 3.56922 1.95547 3.57809 1.96145C3.50445 1.98461 3.45557 2.02543 3.45557 2.07199Z" fill="#026841"/>
        <path d="M4.84174 1.93645C4.85065 1.93047 4.85932 1.92406 4.86762 1.91715C4.96944 1.83277 4.98773 1.71105 4.90839 1.64535C4.82905 1.57961 4.68221 1.59477 4.58039 1.67914C4.5719 1.68617 4.56408 1.69344 4.55677 1.70094C4.52877 1.63992 4.47946 1.59937 4.42327 1.59937C4.34694 1.59937 4.28326 1.6741 4.2685 1.77348C4.21886 1.74984 4.16861 1.74441 4.13 1.76289C4.05444 1.79902 4.05213 1.91293 4.12482 2.01727C4.12774 2.02148 4.13076 2.02559 4.13382 2.02965C4.1457 1.97285 4.17587 1.91812 4.22438 1.87207C4.234 1.86297 4.25087 1.86242 4.2612 1.87098L4.70672 2.24016H4.77942C4.77772 2.21941 4.76876 2.1973 4.75349 2.17531C4.87365 2.16316 4.96411 2.11035 4.96411 2.04703C4.96426 2.00051 4.91532 1.95965 4.84174 1.93645Z" fill="#68CA44"/>
        <path d="M4.21178 2.2377C4.21178 2.23852 4.21173 2.23934 4.21169 2.24019H4.7069L4.26137 1.87102C4.25105 1.86246 4.23417 1.86301 4.22456 1.87211C4.16577 1.92793 4.1339 1.99641 4.12891 2.06602C4.1802 2.11066 4.21178 2.17109 4.21178 2.2377Z" fill="white"/>
        <path d="M4.43046 2.24016H4.60983C4.63039 2.23199 4.64962 2.2209 4.66664 2.2068L4.37366 1.96402C4.29276 2.03105 4.29276 2.13977 4.37366 2.2068C4.39068 2.2209 4.40996 2.23199 4.43046 2.24016Z" fill="#FEDF74"/>
        <path d="M4.4306 2.24016H4.50829C4.48779 2.23199 4.46855 2.22086 4.45154 2.2068C4.38412 2.15094 4.3729 2.06613 4.41788 2.00062L4.37366 1.96398C4.29276 2.03102 4.29276 2.13973 4.37366 2.20676C4.39077 2.2209 4.41005 2.23199 4.4306 2.24016Z" fill="#FED402"/>
        <path d="M3.73116 2.24016C3.73116 2.23934 3.73106 2.23852 3.73106 2.23766C3.73106 2.15543 3.81153 2.08875 3.91076 2.08875C4.01 2.08875 4.09046 2.15543 4.09046 2.23766C4.09046 2.23848 4.09042 2.2393 4.09037 2.24016H4.21157C4.21157 2.23934 4.21166 2.23852 4.21166 2.23766C4.21166 2.09996 4.07694 1.98832 3.91076 1.98832C3.74459 1.98832 3.60986 2.09996 3.60986 2.23766C3.60986 2.23848 3.60991 2.2393 3.60996 2.24016H3.73116Z" fill="#FED2A4"/>
        <path d="M3.64692 2.9707H4.31655C4.3257 2.9707 4.33475 2.9693 4.34319 2.96641C4.67299 2.85355 4.90916 2.59098 4.9283 2.2809C4.92967 2.25871 4.90803 2.24016 4.88121 2.24016H3.08231C3.05549 2.24016 3.03385 2.25871 3.03522 2.2809C3.05436 2.59098 3.29053 2.85355 3.62033 2.96641C3.62872 2.9693 3.63782 2.9707 3.64692 2.9707Z" fill="#D8ECFE"/>
        <path d="M3.2144 2.2809C3.21303 2.25871 3.23467 2.24016 3.26149 2.24016H3.08231C3.05549 2.24016 3.03385 2.25871 3.03522 2.2809C3.05436 2.59098 3.29053 2.85355 3.62033 2.96641C3.62877 2.9693 3.63787 2.9707 3.64697 2.9707H3.82615C3.817 2.9707 3.80795 2.9693 3.79951 2.96641C3.46967 2.85355 3.23349 2.59098 3.2144 2.2809Z" fill="#C4E2FF"/>
        <path d="M4.88121 2.24016H3.08231C3.05549 2.24016 3.03385 2.25871 3.03522 2.2809C3.03823 2.32988 3.04667 2.37766 3.06006 2.42387H4.90351C4.91685 2.37766 4.92533 2.32988 4.92835 2.2809C4.92967 2.25871 4.90803 2.24016 4.88121 2.24016Z" fill="#EAF6FF"/>
        <path d="M3.03522 2.2809C3.03823 2.32988 3.04667 2.37766 3.06006 2.42387H3.23924C3.2259 2.37766 3.21742 2.32988 3.2144 2.2809C3.21303 2.25871 3.23467 2.24016 3.26149 2.24016H3.08236C3.05549 2.24016 3.03385 2.25871 3.03522 2.2809Z" fill="#D8ECFE"/>
        <path d="M4.5767 1.20848C4.58811 1.20594 4.59556 1.1968 4.594 1.18711C4.58782 1.14852 4.56685 1.11125 4.53107 1.0816C4.49529 1.05195 4.45031 1.03461 4.40374 1.02945C4.39205 1.02816 4.38097 1.03434 4.37791 1.04379L4.31577 1.23609C4.31106 1.25062 4.32713 1.26391 4.34462 1.26L4.5767 1.20848Z" fill="#FE9901"/>
        <path d="M4.41887 1.23668L4.47916 1.0502C4.45541 1.03965 4.42985 1.03293 4.40379 1.03008C4.39209 1.02879 4.38102 1.03496 4.37795 1.04441L4.31577 1.23668C4.31106 1.25121 4.32713 1.26449 4.34462 1.26059L4.41821 1.24426C4.41788 1.24184 4.41802 1.23926 4.41887 1.23668Z" fill="#FB8801"/>
        <path d="M4.17052 1.62375C4.1567 1.6352 4.1567 1.65375 4.17052 1.6652C4.1774 1.6709 4.18645 1.67379 4.1955 1.67379C4.20455 1.67379 4.2136 1.67094 4.22048 1.6652L4.25848 1.63371C4.27229 1.62227 4.27229 1.60371 4.25848 1.59227C4.24467 1.58082 4.22228 1.58082 4.20846 1.59227L4.17052 1.62375Z" fill="black"/>
        <path d="M4.13008 1.53395H4.18382C4.20334 1.53395 4.21918 1.52082 4.21918 1.50465C4.21918 1.48848 4.20334 1.47535 4.18382 1.47535H4.13008C4.11057 1.47535 4.09473 1.48848 4.09473 1.50465C4.09473 1.52086 4.11057 1.53395 4.13008 1.53395Z" fill="black"/>
        <path d="M3.32012 1.46849C3.39248 1.52049 3.48266 1.54623 3.5727 1.54623C3.67212 1.54623 3.77135 1.51482 3.84626 1.45279C3.98895 1.33455 3.9973 1.14306 3.86521 1.01685C3.85451 1.00666 3.83904 1.00052 3.82273 1.00006C3.80642 0.999548 3.79049 1.00478 3.77894 1.01431L3.67306 1.10205C3.65925 1.11349 3.65925 1.13205 3.67306 1.14349C3.68687 1.15494 3.70926 1.15494 3.72308 1.14349L3.81981 1.06334C3.91918 1.16638 3.9098 1.31728 3.79619 1.41142C3.68258 1.50556 3.50048 1.51334 3.37612 1.43099L3.60518 1.24119C3.61899 1.22974 3.61899 1.21119 3.60518 1.19974C3.59136 1.1883 3.56897 1.1883 3.55516 1.19974L3.31705 1.39701C3.30555 1.40654 3.29923 1.41978 3.29985 1.4333C3.30046 1.44681 3.30781 1.45963 3.32012 1.46849Z" fill="black"/>
        <path d="M3.66319 1.30676C3.64938 1.3182 3.64938 1.33676 3.66319 1.3482L3.69709 1.37629C3.70397 1.38199 3.71302 1.38488 3.72207 1.38488C3.73112 1.38488 3.74017 1.38203 3.74705 1.37629C3.76087 1.36484 3.76087 1.34629 3.74705 1.33484L3.71316 1.30676C3.6994 1.29531 3.677 1.29531 3.66319 1.30676Z" fill="black"/>
        <path d="M3.57149 1.33492C3.55197 1.33492 3.53613 1.34805 3.53613 1.36422V1.40395C3.53613 1.42012 3.55197 1.43324 3.57149 1.43324C3.591 1.43324 3.60684 1.42012 3.60684 1.40395V1.36422C3.60684 1.34801 3.591 1.33492 3.57149 1.33492Z" fill="black"/>
        <path d="M3.73946 1.26246H3.7874C3.80692 1.26246 3.82276 1.24934 3.82276 1.23316C3.82276 1.21699 3.80692 1.20387 3.7874 1.20387H3.73946C3.71994 1.20387 3.7041 1.21699 3.7041 1.23316C3.7041 1.24934 3.71989 1.26246 3.73946 1.26246Z" fill="black"/>
        <path d="M4.8814 2.21086H4.8098C4.80843 2.20645 4.80692 2.20203 4.80508 2.19758C4.9219 2.17512 4.99996 2.11641 4.99996 2.04703C4.99996 2.00066 4.96489 1.95824 4.90384 1.92848C5.00953 1.8332 5.02372 1.69918 4.93378 1.62465C4.91634 1.6102 4.89621 1.59902 4.87424 1.59098C4.87273 1.54406 4.85703 1.4982 4.82851 1.45785C4.81866 1.44391 4.79698 1.43918 4.78015 1.44738C4.76327 1.45555 4.75761 1.47352 4.76751 1.48746C4.7867 1.51461 4.79853 1.54492 4.80235 1.57621C4.78576 1.57508 4.76879 1.57535 4.75163 1.57699C4.7388 1.48879 4.64801 1.42023 4.53817 1.42023C4.47736 1.42023 4.42239 1.44133 4.38327 1.47508L4.34758 1.44551C4.39585 1.40418 4.46341 1.3784 4.53817 1.3784C4.58145 1.3784 4.62435 1.38719 4.66229 1.40387C4.67955 1.41145 4.70095 1.40598 4.71009 1.39172C4.71924 1.37746 4.71269 1.35969 4.69543 1.35211C4.64735 1.33098 4.59295 1.31984 4.53822 1.31984C4.44398 1.31984 4.35875 1.35219 4.29766 1.40414L4.13455 1.26898C4.1231 1.25949 4.10735 1.25426 4.09109 1.25473C4.07482 1.25516 4.05931 1.26121 4.04852 1.27137C3.95018 1.36387 3.92044 1.4882 3.9573 1.60012C3.91704 1.61043 3.88098 1.63637 3.85369 1.67473C3.80084 1.63434 3.73673 1.60863 3.67158 1.60191C3.62397 1.59699 3.57951 1.60258 3.54152 1.61762C3.48537 1.58266 3.4157 1.56187 3.34023 1.56187C3.15482 1.56187 3.00397 1.68687 3.00397 1.84051C3.00397 1.93816 3.06497 2.02418 3.15704 2.07395C3.14813 2.08797 3.14205 2.10312 3.13941 2.1191C3.13413 2.15129 3.14332 2.18289 3.1634 2.21094H3.08251C3.05997 2.21094 3.0381 2.21871 3.02259 2.23227C3.00694 2.2459 2.99897 2.26375 3.00011 2.2825C3.00972 2.43852 3.07289 2.58801 3.18273 2.7148C3.29035 2.83902 3.43705 2.93543 3.607 2.99359C3.61963 2.99793 3.63311 3.00012 3.64716 3.00012H4.3168C4.3308 3.00012 4.34433 2.99793 4.35696 2.99359C4.52691 2.93543 4.67361 2.83906 4.78123 2.7148C4.89107 2.58797 4.95424 2.43848 4.96385 2.2825C4.96499 2.26375 4.95702 2.24594 4.94137 2.23227C4.92581 2.21863 4.90399 2.21086 4.8814 2.21086ZM4.53812 1.47879C4.61463 1.47879 4.67738 1.52836 4.68214 1.59074C4.64707 1.60141 4.61275 1.61766 4.58131 1.63918L4.43319 1.51645C4.45949 1.49332 4.49678 1.47879 4.53812 1.47879ZM4.52408 1.71137C4.52856 1.72117 4.53907 1.72824 4.55156 1.72988C4.56405 1.73152 4.57669 1.72754 4.58461 1.71937C4.59139 1.71242 4.59851 1.70586 4.60572 1.69988C4.6936 1.62707 4.81833 1.61191 4.88376 1.66609C4.94915 1.72031 4.93086 1.82363 4.84299 1.89648C4.83587 1.90238 4.82809 1.90816 4.81979 1.91375C4.80999 1.92035 4.80518 1.93078 4.80716 1.94113C4.80914 1.95148 4.81767 1.96016 4.8295 1.96387C4.89102 1.98324 4.92925 2.01516 4.92925 2.04707C4.92925 2.09328 4.85208 2.13594 4.74974 2.14625C4.73796 2.14742 4.72768 2.15344 4.7224 2.16223C4.71712 2.17102 4.71745 2.18145 4.72339 2.18996C4.72834 2.19707 4.73235 2.20406 4.7356 2.2109H4.72188L4.49909 2.02629L4.69972 1.86004C4.71354 1.84859 4.71354 1.83004 4.69972 1.81859C4.68591 1.80715 4.66352 1.80715 4.64971 1.81859L4.44908 1.98484L4.28668 1.85027C4.27489 1.84051 4.25858 1.8352 4.24184 1.83562C4.22511 1.83609 4.20922 1.84238 4.19819 1.85281C4.16717 1.88227 4.14318 1.91492 4.12597 1.94937C4.11343 1.92035 4.10702 1.89152 4.10759 1.865C4.10801 1.84336 4.11386 1.80465 4.14808 1.78824C4.15793 1.78352 4.16958 1.78121 4.1824 1.78121C4.20295 1.78121 4.22666 1.78719 4.25127 1.79887C4.26155 1.80375 4.27409 1.80406 4.2847 1.79969C4.2953 1.79531 4.30251 1.7868 4.30398 1.77707C4.31656 1.6925 4.36799 1.62871 4.42362 1.62871C4.46218 1.62867 4.50069 1.66035 4.52408 1.71137ZM4.61435 2.20465C4.6102 2.20687 4.60601 2.20895 4.60172 2.21086H4.43927C4.4248 2.20441 4.41117 2.19617 4.39896 2.18605C4.34056 2.13766 4.33306 2.06273 4.37653 2.00754L4.61435 2.20465ZM3.9112 2.05949C3.80362 2.05949 3.71424 2.12531 3.69859 2.21086H3.64768C3.66371 2.10215 3.77572 2.01766 3.9112 2.01766C4.04668 2.01766 4.15869 2.10215 4.17472 2.21086H4.1238C4.10815 2.12527 4.01877 2.05949 3.9112 2.05949ZM4.05182 2.21086H3.77053C3.78528 2.15777 3.8427 2.11809 3.91115 2.11809C3.9796 2.11809 4.03706 2.15777 4.05182 2.21086ZM4.16595 2.05613C4.17259 1.99973 4.19857 1.94453 4.24448 1.89816L4.32576 1.96551C4.26042 2.03828 4.26216 2.13961 4.33099 2.21086H4.24585C4.23902 2.15207 4.21002 2.09859 4.16595 2.05613ZM4.09344 1.31781L4.40005 1.57187C4.32693 1.58277 4.26669 1.64391 4.24213 1.73121C4.22765 1.72711 4.21332 1.72445 4.19923 1.72328C4.18815 1.72234 4.17731 1.72238 4.16675 1.72332C4.13917 1.65746 4.08948 1.61145 4.03037 1.59867C3.99327 1.50473 4.01378 1.39812 4.09344 1.31781ZM3.53652 1.69102C3.56702 1.66574 3.61181 1.65473 3.66272 1.65996C3.71688 1.66555 3.77081 1.68855 3.81451 1.7248C3.82177 1.73082 3.82884 1.73734 3.83563 1.7443C3.8436 1.75246 3.85623 1.75645 3.86868 1.7548C3.88117 1.75316 3.89163 1.74609 3.89616 1.73629C3.91954 1.68531 3.95806 1.65359 3.99662 1.65359C4.03862 1.65359 4.07822 1.68996 4.10052 1.74422C4.06049 1.76855 4.03801 1.81051 4.03692 1.86398C4.03612 1.90473 4.04791 1.94918 4.07068 1.99242C4.0232 1.97113 3.9689 1.95902 3.9112 1.95902C3.91082 1.95902 3.91044 1.95906 3.91002 1.95906L3.77053 1.84348C3.75672 1.83203 3.73433 1.83203 3.72051 1.84348C3.7067 1.85492 3.7067 1.87348 3.72051 1.88492L3.82205 1.96906C3.71174 1.99422 3.62392 2.06484 3.59003 2.155C3.53035 2.13609 3.49098 2.10496 3.49098 2.07199C3.49098 2.04008 3.52922 2.00816 3.59073 1.98879C3.60257 1.98508 3.61105 1.97641 3.61308 1.96605C3.61511 1.9557 3.61025 1.94527 3.60045 1.93867C3.59215 1.93309 3.58437 1.9273 3.57725 1.92141C3.53355 1.8852 3.50574 1.84051 3.499 1.79562C3.49273 1.7534 3.50602 1.71625 3.53652 1.69102ZM3.25995 1.93973C3.22129 1.91824 3.19574 1.88176 3.19574 1.84039C3.19574 1.77445 3.26051 1.72078 3.34009 1.72078C3.37374 1.72078 3.40472 1.73043 3.42928 1.74648C3.428 1.75383 3.4272 1.76129 3.42692 1.76895C3.39067 1.76965 3.35607 1.77867 3.32712 1.79691C3.27663 1.82871 3.25339 1.88223 3.25995 1.93973ZM3.33014 2.0423C3.34131 2.04062 3.35083 2.03465 3.35574 2.02617C3.36064 2.0177 3.36036 2.00781 3.35498 1.99953C3.31571 1.93934 3.32198 1.87375 3.36993 1.84359C3.38822 1.83207 3.41042 1.82684 3.43418 1.82711C3.44681 1.87246 3.47524 1.91629 3.51644 1.9534C3.45544 1.98316 3.42037 2.02559 3.42037 2.07195C3.42037 2.13152 3.47797 2.1832 3.5682 2.21086H3.2533C3.22162 2.18762 3.20427 2.15754 3.20927 2.12691C3.21611 2.08547 3.26358 2.05223 3.33014 2.0423ZM3.07449 1.84039C3.07449 1.71906 3.19362 1.62035 3.34004 1.62035C3.39189 1.62035 3.44031 1.63277 3.48127 1.65418C3.46968 1.66453 3.45987 1.67598 3.4519 1.68832C3.41928 1.67176 3.381 1.66219 3.34009 1.66219C3.22153 1.66219 3.12503 1.74211 3.12503 1.84039C3.12503 1.91215 3.17651 1.9741 3.25042 2.0023C3.23237 2.00941 3.21596 2.01805 3.20163 2.02805C3.12545 1.98937 3.07449 1.91973 3.07449 1.84039ZM4.87532 2.39457H4.54208C4.52257 2.39457 4.50673 2.4077 4.50673 2.42387C4.50673 2.44004 4.52257 2.45316 4.54208 2.45316H4.85769C4.82903 2.53422 4.78396 2.61105 4.72377 2.68055C4.62387 2.79586 4.48768 2.88535 4.32995 2.93934C4.3259 2.9407 4.32151 2.94141 4.3168 2.94141H3.64711C3.6424 2.94141 3.63797 2.9407 3.63396 2.93934C3.47623 2.88535 3.34004 2.7959 3.24015 2.68055C3.17995 2.61105 3.13488 2.53426 3.10622 2.45316H4.37238C4.39189 2.45316 4.40773 2.44004 4.40773 2.42387C4.40773 2.4077 4.39189 2.39457 4.37238 2.39457H3.08859C3.07911 2.3568 3.07313 2.31832 3.07072 2.27941C3.07053 2.27617 3.07228 2.27387 3.07383 2.27254C3.07515 2.27137 3.07803 2.26945 3.08251 2.26945H4.88145C4.88593 2.26945 4.88881 2.27137 4.89013 2.27254C4.89168 2.27387 4.89343 2.27613 4.89324 2.27941C4.89079 2.31832 4.8848 2.3568 4.87532 2.39457Z" fill="black"/>
        <path d="M4.33846 1.28999C4.3436 1.28999 4.34883 1.28944 4.35397 1.28827L4.58605 1.23675C4.61457 1.23042 4.63309 1.20741 4.62923 1.18323C4.62178 1.13655 4.59651 1.09421 4.55625 1.06085C4.516 1.02749 4.46499 1.00659 4.40861 1.00042C4.37943 0.997257 4.35166 1.01261 4.34398 1.03624L4.28185 1.22851C4.27633 1.24554 4.28204 1.26319 4.29707 1.27566C4.30839 1.28499 4.32314 1.28999 4.33846 1.28999ZM4.40955 1.05983C4.44632 1.06558 4.47956 1.08015 4.50629 1.10226C4.53301 1.12441 4.55055 1.15194 4.55748 1.18241L4.35539 1.2273L4.40955 1.05983Z" fill="black"/>
    </g>
    <defs>
        <clipPath id="clip0_0_1">
            <rect width="2" height="2" fill="white" transform="translate(3 1)"/>
        </clipPath>
    </defs>
</svg>
