<svg width="48" height="56" viewBox="0 0 48 56" fill="none" xmlns="http://www.w3.org/2000/svg">
  <path
    d="M11.5739 37V31.1818H13.7557C14.2027 31.1818 14.5777 31.2652 14.8807 31.4318C15.1856 31.5985 15.4157 31.8277 15.571 32.1193C15.7282 32.4091 15.8068 32.7386 15.8068 33.108C15.8068 33.4811 15.7282 33.8125 15.571 34.1023C15.4138 34.392 15.1818 34.6203 14.875 34.7869C14.5682 34.9517 14.1903 35.0341 13.7415 35.0341H12.2955V34.1676H13.5994C13.8608 34.1676 14.0748 34.1222 14.2415 34.0312C14.4081 33.9403 14.5313 33.8153 14.6108 33.6562C14.6922 33.4972 14.733 33.3144 14.733 33.108C14.733 32.9015 14.6922 32.7197 14.6108 32.5625C14.5313 32.4053 14.4072 32.2831 14.2386 32.196C14.072 32.107 13.857 32.0625 13.5938 32.0625H12.6278V37H11.5739ZM16.2688 37V32.6364H17.2973V37H16.2688ZM16.7859 32.017C16.623 32.017 16.4829 31.9631 16.3654 31.8551C16.248 31.7453 16.1893 31.6136 16.1893 31.4602C16.1893 31.3049 16.248 31.1733 16.3654 31.0653C16.4829 30.9555 16.623 30.9006 16.7859 30.9006C16.9507 30.9006 17.0908 30.9555 17.2063 31.0653C17.3238 31.1733 17.3825 31.3049 17.3825 31.4602C17.3825 31.6136 17.3238 31.7453 17.2063 31.8551C17.0908 31.9631 16.9507 32.017 16.7859 32.017ZM19.8502 37.0852C19.4146 37.0852 19.0405 36.9896 18.728 36.7983C18.4174 36.607 18.1778 36.3428 18.0093 36.0057C17.8426 35.6667 17.7593 35.2765 17.7593 34.8352C17.7593 34.392 17.8445 34.0009 18.015 33.6619C18.1854 33.321 18.426 33.0559 18.7366 32.8665C19.0491 32.6752 19.4184 32.5795 19.8445 32.5795C20.1987 32.5795 20.5121 32.6449 20.7849 32.7756C21.0595 32.9044 21.2782 33.0871 21.4411 33.3239C21.604 33.5587 21.6968 33.8333 21.7195 34.1477H20.7366C20.6968 33.9375 20.6021 33.7623 20.4525 33.6222C20.3047 33.4801 20.1068 33.4091 19.8587 33.4091C19.6485 33.4091 19.4638 33.4659 19.3047 33.5795C19.1456 33.6913 19.0216 33.8523 18.9326 34.0625C18.8455 34.2727 18.8019 34.5246 18.8019 34.8182C18.8019 35.1155 18.8455 35.3712 18.9326 35.5852C19.0197 35.7973 19.1419 35.9612 19.2991 36.0767C19.4581 36.1903 19.6447 36.2472 19.8587 36.2472C20.0102 36.2472 20.1456 36.2187 20.265 36.1619C20.3862 36.1032 20.4875 36.0189 20.5689 35.9091C20.6504 35.7992 20.7063 35.6657 20.7366 35.5085H21.7195C21.6949 35.8172 21.604 36.0909 21.4468 36.3295C21.2896 36.5663 21.0756 36.7519 20.8047 36.8864C20.5339 37.0189 20.2157 37.0852 19.8502 37.0852ZM23.0935 35.6307L23.0906 34.3892H23.2554L24.8236 32.6364H26.0253L24.0963 34.7841H23.8832L23.0935 35.6307ZM22.156 37V31.1818H23.1844V37H22.156ZM24.8946 37L23.4742 35.0142L24.1673 34.2898L26.1247 37H24.8946ZM29.0839 35.1648V32.6364H30.1123V37H29.1152V36.2244H29.0697C28.9712 36.4687 28.8093 36.6686 28.5839 36.8239C28.3604 36.9792 28.0849 37.0568 27.7572 37.0568C27.4712 37.0568 27.2184 36.9934 26.9987 36.8665C26.7809 36.7377 26.6104 36.5511 26.4873 36.3068C26.3642 36.0606 26.3027 35.7633 26.3027 35.4148V32.6364H27.3311V35.2557C27.3311 35.5322 27.4068 35.7519 27.5583 35.9148C27.7099 36.0777 27.9087 36.1591 28.1549 36.1591C28.3064 36.1591 28.4532 36.1222 28.5953 36.0483C28.7373 35.9744 28.8538 35.8646 28.9447 35.7188C29.0375 35.571 29.0839 35.3864 29.0839 35.1648ZM30.7618 38.6364V32.6364H31.7732V33.358H31.8329C31.8859 33.2519 31.9607 33.1392 32.0573 33.0199C32.1539 32.8987 32.2846 32.7955 32.4493 32.7102C32.6141 32.6231 32.8243 32.5795 33.08 32.5795C33.4171 32.5795 33.7211 32.6657 33.992 32.8381C34.2647 33.0085 34.4806 33.2614 34.6397 33.5966C34.8007 33.9299 34.8812 34.339 34.8812 34.8239C34.8812 35.303 34.8026 35.7102 34.6454 36.0455C34.4882 36.3807 34.2742 36.6364 34.0033 36.8125C33.7325 36.9886 33.4257 37.0767 33.0829 37.0767C32.8329 37.0767 32.6255 37.035 32.4607 36.9517C32.2959 36.8684 32.1634 36.768 32.063 36.6506C31.9645 36.5312 31.8878 36.4186 31.8329 36.3125H31.7903V38.6364H30.7618ZM31.7704 34.8182C31.7704 35.1004 31.8101 35.3475 31.8897 35.5597C31.9711 35.7718 32.0876 35.9375 32.2391 36.0568C32.3925 36.1742 32.5781 36.233 32.7959 36.233C33.0232 36.233 33.2136 36.1723 33.367 36.0511C33.5204 35.928 33.6359 35.7604 33.7136 35.5483C33.7931 35.3343 33.8329 35.0909 33.8329 34.8182C33.8329 34.5473 33.794 34.3068 33.7164 34.0966C33.6387 33.8864 33.5232 33.7216 33.3698 33.6023C33.2164 33.483 33.0251 33.4233 32.7959 33.4233C32.5762 33.4233 32.3897 33.4811 32.2363 33.5966C32.0829 33.7121 31.9664 33.8741 31.8868 34.0824C31.8092 34.2907 31.7704 34.536 31.7704 34.8182Z"
    fill="#485B78" />
  <g clip-path="url(#clip0_2401_8983)">
    <path
      d="M21.4531 54.0246L21.3203 53.7985C20.3245 52.1016 17.6752 48.4972 17.6487 48.4611L17.5708 48.3555L18.5672 47.371L21.4192 49.3624C23.2066 47.0522 24.8718 45.4626 25.9609 44.5308C27.1644 43.5014 27.9261 43.0409 27.9578 43.0218L27.9939 43.0002H29.7499L29.4527 43.2651C25.6973 46.6099 21.6234 53.7255 21.5828 53.797L21.4531 54.0246Z"
      fill="#4CAE50" />
    <path
      d="M21.4536 44.9167C21.5868 44.9167 21.6948 44.8087 21.6948 44.6755C21.6948 44.5423 21.5868 44.4343 21.4536 44.4343C21.3204 44.4343 21.2124 44.5423 21.2124 44.6755C21.2124 44.8087 21.3204 44.9167 21.4536 44.9167Z"
      fill="#F44336" />
    <path
      d="M21.4536 55.3525C21.5868 55.3525 21.6948 55.2445 21.6948 55.1113C21.6948 54.9781 21.5868 54.8701 21.4536 54.8701C21.3204 54.8701 21.2124 54.9781 21.2124 55.1113C21.2124 55.2445 21.3204 55.3525 21.4536 55.3525Z"
      fill="#F44336" />
    <path
      d="M16.2412 50.1345C16.3744 50.1345 16.4824 50.0265 16.4824 49.8933C16.4824 49.7601 16.3744 49.6521 16.2412 49.6521C16.108 49.6521 16 49.7601 16 49.8933C16 50.0265 16.108 50.1345 16.2412 50.1345Z"
      fill="#F44336" />
    <path
      d="M26.6655 50.1345C26.7987 50.1345 26.9067 50.0265 26.9067 49.8933C26.9067 49.7601 26.7987 49.6521 26.6655 49.6521C26.5323 49.6521 26.4243 49.7601 26.4243 49.8933C26.4243 50.0265 26.5323 50.1345 26.6655 50.1345Z"
      fill="#F44336" />
    <path
      d="M17.7636 53.8244C17.8968 53.8244 18.0048 53.7164 18.0048 53.5832C18.0048 53.45 17.8968 53.342 17.7636 53.342C17.6304 53.342 17.5225 53.45 17.5225 53.5832C17.5225 53.7164 17.6304 53.8244 17.7636 53.8244Z"
      fill="#F44336" />
    <path
      d="M17.7675 46.4492C17.9007 46.4492 18.0087 46.3412 18.0087 46.208C18.0087 46.0748 17.9007 45.9668 17.7675 45.9668C17.6343 45.9668 17.5264 46.0748 17.5264 46.208C17.5264 46.3412 17.6343 46.4492 17.7675 46.4492Z"
      fill="#F44336" />
    <path
      d="M25.1391 53.8202C25.2723 53.8202 25.3803 53.7123 25.3803 53.5791C25.3803 53.4459 25.2723 53.3379 25.1391 53.3379C25.0059 53.3379 24.8979 53.4459 24.8979 53.5791C24.8979 53.7123 25.0059 53.8202 25.1391 53.8202Z"
      fill="#F44336" />
    <path
      d="M16.9345 47.5256C17.0677 47.5256 17.1757 47.4176 17.1757 47.2844C17.1757 47.1512 17.0677 47.0432 16.9345 47.0432C16.8013 47.0432 16.6934 47.1512 16.6934 47.2844C16.6934 47.4176 16.8013 47.5256 16.9345 47.5256Z"
      fill="#F44336" />
    <path
      d="M25.9721 52.7433C26.1053 52.7433 26.2133 52.6354 26.2133 52.5022C26.2133 52.369 26.1053 52.261 25.9721 52.261C25.8389 52.261 25.731 52.369 25.731 52.5022C25.731 52.6354 25.8389 52.7433 25.9721 52.7433Z"
      fill="#F44336" />
    <path
      d="M19.0881 54.4245C19.0975 54.2916 18.9975 54.1763 18.8646 54.1668C18.7318 54.1574 18.6164 54.2574 18.6069 54.3903C18.5975 54.5231 18.6976 54.6385 18.8304 54.648C18.9633 54.6574 19.0787 54.5573 19.0881 54.4245Z"
      fill="#F44336" />
    <path
      d="M20.103 45.0947C20.2362 45.0947 20.3442 44.9867 20.3442 44.8535C20.3442 44.7203 20.2362 44.6123 20.103 44.6123C19.9698 44.6123 19.8618 44.7203 19.8618 44.8535C19.8618 44.9867 19.9698 45.0947 20.103 45.0947Z"
      fill="#F44336" />
    <path
      d="M22.8037 55.1747C22.9369 55.1747 23.0449 55.0668 23.0449 54.9336C23.0449 54.8004 22.9369 54.6924 22.8037 54.6924C22.6705 54.6924 22.5625 54.8004 22.5625 54.9336C22.5625 55.0668 22.6705 55.1747 22.8037 55.1747Z"
      fill="#F44336" />
    <path
      d="M16.4189 51.4836C16.5521 51.4836 16.6601 51.3756 16.6601 51.2424C16.6601 51.1092 16.5521 51.0012 16.4189 51.0012C16.2857 51.0012 16.1777 51.1092 16.1777 51.2424C16.1777 51.3756 16.2857 51.4836 16.4189 51.4836Z"
      fill="#F44336" />
    <path
      d="M26.4882 48.7858C26.6214 48.7858 26.7294 48.6778 26.7294 48.5446C26.7294 48.4114 26.6214 48.3035 26.4882 48.3035C26.355 48.3035 26.2471 48.4114 26.2471 48.5446C26.2471 48.6778 26.355 48.7858 26.4882 48.7858Z"
      fill="#F44336" />
    <path
      d="M16.9477 52.7434C17.0807 52.7361 17.1825 52.6223 17.1751 52.4893C17.1678 52.3563 17.054 52.2544 16.921 52.2618C16.788 52.2692 16.6861 52.383 16.6935 52.516C16.7009 52.649 16.8147 52.7508 16.9477 52.7434Z"
      fill="#F44336" />
    <path
      d="M24.0595 54.6486C24.1927 54.6486 24.3007 54.5406 24.3007 54.4074C24.3007 54.2742 24.1927 54.1663 24.0595 54.1663C23.9263 54.1663 23.8184 54.2742 23.8184 54.4074C23.8184 54.5406 23.9263 54.6486 24.0595 54.6486Z"
      fill="#F44336" />
    <path
      d="M18.8471 45.6208C18.9803 45.6208 19.0883 45.5128 19.0883 45.3796C19.0883 45.2464 18.9803 45.1384 18.8471 45.1384C18.7139 45.1384 18.606 45.2464 18.606 45.3796C18.606 45.5128 18.7139 45.6208 18.8471 45.6208Z"
      fill="#F44336" />
    <path
      d="M22.8037 45.0947C22.9369 45.0947 23.0449 44.9867 23.0449 44.8535C23.0449 44.7203 22.9369 44.6123 22.8037 44.6123C22.6705 44.6123 22.5625 44.7203 22.5625 44.8535C22.5625 44.9867 22.6705 45.0947 22.8037 45.0947Z"
      fill="#F44336" />
    <path
      d="M20.103 55.1747C20.2362 55.1747 20.3442 55.0668 20.3442 54.9336C20.3442 54.8004 20.2362 54.6924 20.103 54.6924C19.9698 54.6924 19.8618 54.8004 19.8618 54.9336C19.8618 55.0668 19.9698 55.1747 20.103 55.1747Z"
      fill="#F44336" />
    <path
      d="M26.4882 51.4836C26.6214 51.4836 26.7294 51.3756 26.7294 51.2424C26.7294 51.1092 26.6214 51.0012 26.4882 51.0012C26.355 51.0012 26.2471 51.1092 26.2471 51.2424C26.2471 51.3756 26.355 51.4836 26.4882 51.4836Z"
      fill="#F44336" />
    <path
      d="M16.4189 48.7858C16.5521 48.7858 16.6601 48.6778 16.6601 48.5446C16.6601 48.4114 16.5521 48.3035 16.4189 48.3035C16.2857 48.3035 16.1777 48.4114 16.1777 48.5446C16.1777 48.6778 16.2857 48.7858 16.4189 48.7858Z"
      fill="#F44336" />
  </g>
  <g clip-path="url(#clip1_2401_8983)">
    <path d="M44.8726 7.8125H2.31934V12.7575H44.8726V7.8125Z" fill="#F0F0F0" />
    <path d="M44.1966 17.7024H1.63672V22.6538H44.1966V17.7024Z" fill="#F0F0F0" />
    <g opacity="0.7">
      <path
        d="M42.5532 12.7574V17.7024H44.1965V22.6538H29.1948L33.7205 17.7024L38.2462 12.7574L40.5057 10.2849L44.8723 10.5697V12.7574H42.5532Z"
        fill="#E6E6E6" />
    </g>
    <path d="M42.5533 12.7573H0V17.7023H42.5533V12.7573Z" fill="#E6E6E6" />
    <path d="M43.9183 2.85449H1.3584V7.79948H43.9183V2.85449Z" fill="#E6E6E6" />
    <path
      d="M24.3445 2.85449C24.3445 3.76711 23.5825 4.51792 22.6416 4.51792C21.7007 4.51792 20.9453 3.77359 20.9453 2.85449H24.3445Z"
      fill="#787878" />
    <path
      d="M22.9798 12.7573C22.9798 13.6699 22.2178 14.4143 21.2835 14.4143C20.3426 14.4143 19.5806 13.6699 19.5806 12.7573H22.9798Z"
      fill="#787878" />
    <path
      d="M39.2135 12.7575C39.2135 12.7575 37.9943 13.9937 37.7227 14.4209C37.4841 14.7963 34.2638 19.2753 31.4874 22.149C31.4808 22.1555 31.4675 22.162 31.4609 22.1749C31.0368 22.6086 30.6326 23.0099 30.2417 23.3465C29.0689 24.1943 27.0081 23.8707 26.4847 23.8254C25.0932 24.2591 24.245 23.8578 23.2776 23.0099L23.1583 23.0811V23.0875L22.224 23.6507C22.0451 23.7801 21.8331 23.8578 21.5945 23.8578C21.0181 23.8578 20.5476 23.4047 20.5476 22.8351C20.5476 22.505 20.7133 22.2138 20.9651 22.0261L20.9518 22.0196C20.7596 22.1943 20.5079 22.2979 20.2296 22.2979C19.6531 22.2979 19.1826 21.8448 19.1826 21.2817C19.1826 21.1523 19.2091 21.0228 19.2621 20.9063C19.3284 20.7445 22.7011 16.3432 23.2312 15.5989C23.8739 14.6798 27.3593 10.984 27.2533 10.6215C27.1539 10.2526 25.8618 9.91603 25.0203 9.96134C24.1721 10.0131 21.2765 10.2785 21.2765 10.2785C20.7 10.2785 20.2296 9.81894 20.2296 9.26231C20.2296 9.05519 20.2892 8.87396 20.3952 8.71215C20.5211 8.51797 20.7133 8.37558 20.9386 8.29791V8.29144C20.9386 8.29144 21.5217 8.12962 22.3102 7.91603C23.7878 7.51474 25.9811 6.94516 26.3389 6.94516C26.8822 6.94516 31.7061 7.19111 32.647 6.94516C33.5879 6.70568 35.3571 5.8772 35.3571 5.8772L39.2135 12.7575Z"
      fill="#F5C8AA" />
    <g opacity="0.3">
      <path
        d="M31.4613 22.1684C31.0372 22.6021 30.633 23.0034 30.2421 23.34C29.0692 24.1879 27.0085 23.8642 26.485 23.8189C25.0935 24.2526 24.2454 23.8513 23.278 23.0034L23.1587 23.0746L24.4707 21.929C24.0333 22.5244 25.2658 24.3173 27.2603 23.0034C28.0753 23.2688 30.0897 23.3917 31.4613 22.1684Z"
        fill="#F5C8AA" />
    </g>
    <path
      d="M23.2842 23.0034C23.2842 23.0034 23.6155 22.6151 24.139 22.0714C24.6691 21.5277 25.3979 20.8222 26.1467 20.149C26.9021 19.4759 27.684 18.8286 28.2869 18.3626C28.8899 17.9031 29.314 17.6118 29.314 17.6118C29.314 17.6118 28.9827 18.0002 28.4592 18.5439C27.9291 19.0875 27.2002 19.793 26.4449 20.4662C25.6895 21.1393 24.9076 21.7866 24.3046 22.2461C23.7083 22.7121 23.2842 23.0034 23.2842 23.0034Z"
      fill="#EBB496" />
    <path
      d="M20.9521 22.0195C20.9521 22.0195 21.2437 21.5729 21.734 20.9515C22.2244 20.3301 22.9135 19.5276 23.6357 18.7638C24.3646 18 25.1266 17.2622 25.723 16.7379C26.3193 16.2136 26.7567 15.8965 26.7567 15.8965C26.7567 15.8965 26.4651 16.3431 25.9748 16.9644C25.4845 17.5858 24.7953 18.3884 24.0731 19.1521C23.3442 19.9159 22.5822 20.6473 21.9858 21.1716C21.3895 21.7023 20.9521 22.0195 20.9521 22.0195Z"
      fill="#EBB496" />
    <path
      d="M30.8647 19.217C30.8647 19.217 30.646 19.5471 30.275 20.0196C29.9039 20.4856 29.3871 21.0876 28.8437 21.6636C28.2937 22.2397 27.7239 22.7899 27.2733 23.1847C26.8227 23.5795 26.498 23.819 26.498 23.819C26.498 23.819 26.7233 23.4824 27.0878 23.0164C27.4522 22.5439 27.9757 21.9484 28.519 21.3724C29.069 20.7963 29.6389 20.2462 30.0894 19.8513C30.54 19.4565 30.8647 19.217 30.8647 19.217Z"
      fill="#EBB496" />
    <g opacity="0.4">
      <path
        d="M19.872 21.7154C20.3424 22.0908 20.6671 21.9678 21.1177 21.34C21.5617 20.7121 21.5418 20.382 21.1972 20.1037C20.8527 19.8319 20.243 20.149 19.978 20.4662C19.5473 20.9905 19.4015 21.3464 19.872 21.7154Z"
        fill="#F5C8AA" />
    </g>
    <g opacity="0.4">
      <path
        d="M21.2101 23.1782C21.6475 23.6377 22.0119 23.5601 22.5818 22.9646C23.1516 22.3691 23.1847 22.0196 22.8601 21.6766C22.542 21.3335 21.8463 21.5795 21.5149 21.8772C20.9848 22.3626 20.7728 22.7186 21.2101 23.1782Z"
        fill="#F5C8AA" />
    </g>
    <g opacity="0.4">
      <path
        d="M21.7934 9.28818C21.0181 9.59886 20.6536 9.52119 20.4482 8.91925C20.4217 8.84805 20.4151 8.78332 20.4019 8.72507C20.5278 8.5309 20.7199 8.3885 20.9452 8.31083V8.30436C20.9452 8.30436 21.5283 8.14255 22.3168 7.92896C22.4493 7.99368 22.5487 8.09077 22.5951 8.23316C22.7409 8.66682 22.562 8.9775 21.7934 9.28818Z"
        fill="#F5C8AA" />
    </g>
    <path
      d="M42.6484 0.000894857L34.3154 4.62061L39.6597 13.8186L47.9927 9.19889L42.6484 0.000894857Z"
      fill="#C80000" />
    <path
      d="M42.6523 0.00113715L34.3193 4.62085L37.0602 9.33806L45.3931 4.71834L42.6523 0.00113715Z"
      fill="#DC1400" />
  </g>
  <defs>
    <clipPath id="clip0_2401_8983">
      <rect width="13.75" height="12.3525" fill="white" transform="translate(16 43)" />
    </clipPath>
    <clipPath id="clip1_2401_8983">
      <rect width="48" height="24" fill="white" />
    </clipPath>
  </defs>
</svg>