<?xml version="1.0" encoding="utf-8"?>
<!-- Generator: Adobe Illustrator 24.0.2, SVG Export Plug-In . SVG Version: 6.00 Build 0)  -->
<svg version="1.1" id="Layer_1" xmlns="http://www.w3.org/2000/svg" xmlns:xlink="http://www.w3.org/1999/xlink" x="0px" y="0px"
	 viewBox="0 0 21 23.4" enable-background="new 0 0 21 23.4" xml:space="preserve">
<path fill="#FFFFFF" stroke="#8C98A8" stroke-miterlimit="10" d="M12.4,3.2c0,1.3-1.1,2.4-2.4,2.4c-1.3,0-2.4-1.1-2.4-2.4
	c0-1.3,1.1-2.7,2.4-2.7C11.3,0.5,12.4,1.9,12.4,3.2z"/>
<path fill="#8C98A8" d="M21,2.7H0v20.7h21V2.7z"/>
<path fill="#F4F4F4" d="M17.7,7.2H4.5v1.9h13.2V7.2z"/>
<path fill="#F4F4F4" d="M17.7,11.6H4.5v1.9h13.2V11.6z"/>
<path fill="#F4F4F4" d="M12.7,16.2H4.5v1.9h8.2V16.2z"/>
<path fill="#8C98A8" d="M45.8,25.3l-1.3-3c-0.3-0.1-0.5-0.2-0.7-0.3l-3,1.3l-1.8-1.8l1.3-3c-0.1-0.3-0.2-0.5-0.3-0.7l-3-1.3v-2.6
	l3-1.3c0.1-0.3,0.2-0.5,0.3-0.7l-1.3-3l1.8-1.8l3,1.3c0.2-0.1,0.5-0.2,0.7-0.3l1.3-3h2.6l1.3,3c0.2,0.1,0.5,0.2,0.7,0.3l3-1.3
	l1.8,1.8l-1.3,3c0.1,0.2,0.2,0.5,0.3,0.7l3,1.3v2.6l-3,1.3c-0.1,0.2-0.2,0.5-0.3,0.7l1.3,3l-1.8,1.8l-3-1.3
	c-0.2,0.1-0.5,0.2-0.7,0.3l-1.3,3H45.8z M47,18.9c2.1,0,3.8-1.7,3.8-3.8c0-2.1-1.7-3.8-3.8-3.8c-2.1,0-3.8,1.7-3.8,3.8
	C43.2,17.2,44.9,18.9,47,18.9z"/>
</svg>
