<svg width="16" height="16" viewBox="0 0 16 16" fill="none" xmlns="http://www.w3.org/2000/svg">
    <g clip-path="url(#clip0_218_23281)">
        <path d="M11.6755 1.18916C11.7071 1.12573 11.7121 1.0526 11.6896 0.98541C11.6671 0.918534 11.619 0.862908 11.5555 0.831344C9.31488 -0.277115 6.68514 -0.277115 4.44416 0.831344C4.33353 0.886658 4.27509 1.01072 4.30353 1.13104C4.33197 1.25135 4.43947 1.33667 4.56291 1.33667C4.60416 1.33698 4.64447 1.32792 4.68166 1.3101C6.77295 0.275709 9.22675 0.275709 11.318 1.3101C11.3815 1.34135 11.4549 1.34635 11.5218 1.32354C11.589 1.30104 11.6443 1.2526 11.6755 1.18916Z" fill="#F44336" />
        <path
            d="M14.8112 4.32442C14.7478 4.35598 14.6996 4.4113 14.6771 4.47849C14.6546 4.54536 14.6596 4.6188 14.6912 4.68224C15.2046 5.71288 15.47 6.84916 15.4662 8.00043C15.4662 12.1243 12.1233 15.4671 7.99951 15.4671C3.87599 15.4671 0.533111 12.1243 0.533111 8.00043C0.529673 6.84884 0.795303 5.71257 1.30906 4.68224C1.35219 4.59693 1.34656 4.49474 1.29375 4.41505C1.24094 4.33505 1.14937 4.28973 1.05375 4.29598C0.958119 4.30223 0.87343 4.35911 0.831242 4.44505C0.281231 5.54882 -0.00377458 6.76666 -2.4502e-05 8.00043C-2.4502e-05 12.4186 3.58161 16.0003 7.99982 16.0003C12.418 16.0003 15.9997 12.4186 15.9997 8.00043C16.0037 6.76666 15.719 5.54913 15.1687 4.44473C15.1375 4.3813 15.0818 4.33317 15.015 4.31036C14.9478 4.28786 14.8746 4.29286 14.8112 4.32442Z"
            fill="#F44336" />
        <path
            d="M13.7622 5.21753C13.7206 5.13159 13.6365 5.07471 13.5415 5.06784C13.4465 5.06096 13.355 5.10534 13.3015 5.18409C13.2481 5.26284 13.2406 5.3644 13.2822 5.45003C13.4784 5.85473 13.6275 6.2813 13.7259 6.72037L13.2059 6.81193C13.0697 6.836 12.9743 6.95975 12.9862 7.09788C12.9981 7.23569 13.1137 7.34132 13.2518 7.34132C13.2675 7.34132 13.2831 7.34007 13.2984 7.33757L13.8165 7.246C13.8831 7.74695 13.8831 8.25477 13.8165 8.75572L13.2987 8.66416C13.1537 8.63853 13.0153 8.73541 12.9897 8.88041C12.964 9.02541 13.0609 9.16385 13.2059 9.18948L13.7244 9.28104C13.614 9.77418 13.44 10.2507 13.2068 10.6989L12.7534 10.4364C12.6709 10.3879 12.5687 10.3876 12.4856 10.4351C12.4025 10.4826 12.3515 10.5714 12.3518 10.667C12.3518 10.7626 12.4034 10.8508 12.4865 10.8983L12.94 11.1605C12.6671 11.5858 12.3412 11.9739 11.9699 12.3161L11.6331 11.9148C11.5724 11.8392 11.4759 11.8023 11.3806 11.8186C11.2852 11.8348 11.2059 11.9011 11.1737 11.9927C11.1412 12.0839 11.1609 12.1855 11.2249 12.258L11.5615 12.658C11.1602 12.9658 10.7212 13.2202 10.2549 13.4155L10.0749 12.9205C10.0437 12.8292 9.96553 12.762 9.87084 12.7445C9.77584 12.7274 9.67896 12.7624 9.6174 12.8367C9.55584 12.9111 9.53927 13.013 9.57396 13.103L9.75428 13.6008C9.27177 13.7521 8.77176 13.8399 8.26675 13.8621V13.3342C8.26675 13.1871 8.14737 13.0677 8.00018 13.0677C7.85299 13.0677 7.73361 13.1871 7.73361 13.3342V13.8608C7.2286 13.8389 6.72859 13.7514 6.24608 13.6008L6.42671 13.1052C6.4614 13.0152 6.44484 12.9133 6.38327 12.8389C6.32171 12.7645 6.22483 12.7295 6.12983 12.7467C6.03483 12.7639 5.9567 12.8314 5.92545 12.9227L5.74545 13.4177C5.27919 13.2224 4.83981 12.968 4.43886 12.6605L4.77543 12.2605C4.83949 12.188 4.85918 12.0864 4.82668 11.9952C4.79418 11.9039 4.71512 11.8373 4.6198 11.8214C4.52449 11.8052 4.42792 11.842 4.3673 11.9177L4.03042 12.3189C3.65916 11.9767 3.3329 11.5883 3.0604 11.1633L3.51384 10.9011C3.59697 10.8539 3.64853 10.7654 3.64885 10.6698C3.64885 10.5742 3.59791 10.4858 3.51478 10.4379C3.43165 10.3901 3.32946 10.3908 3.24696 10.4392L2.79352 10.7014C2.56007 10.2523 2.38601 9.7748 2.27601 9.28073L2.79445 9.18917C2.88821 9.1726 2.96633 9.10729 2.99852 9.0176C3.03102 8.92791 3.01352 8.82791 2.95227 8.75478C2.89102 8.68166 2.79539 8.64697 2.70164 8.66353L2.18382 8.7551C2.11757 8.25415 2.11757 7.74633 2.18382 7.24538L2.70226 7.33694C2.71758 7.33976 2.7332 7.34101 2.74883 7.34101C2.88727 7.34101 3.00258 7.23538 3.01477 7.09756C3.02665 6.95975 2.93133 6.83568 2.79508 6.81193L2.27444 6.72099C2.37226 6.28192 2.52101 5.85598 2.71789 5.45159C2.75945 5.36597 2.75227 5.2644 2.69883 5.18534C2.64539 5.10627 2.55382 5.0619 2.45882 5.06877C2.36382 5.07534 2.27944 5.13252 2.23788 5.21815C1.81568 6.08473 1.59756 7.03662 1.60068 8.00071C1.60131 8.37134 1.63381 8.74134 1.69818 9.10635V9.11229C1.69818 9.11448 1.70006 9.11635 1.70068 9.11854C1.82943 9.84605 2.08444 10.5451 2.45382 11.1848C2.45632 11.1898 2.45632 11.1955 2.45913 11.2005C2.46351 11.207 2.46851 11.2133 2.47382 11.2195C2.84289 11.8505 3.31665 12.4142 3.87447 12.8864C3.87979 12.8917 3.88229 12.8986 3.88791 12.9033C3.89354 12.908 3.9001 12.9096 3.90573 12.9136C6.2764 14.8962 9.72678 14.8962 12.0978 12.9136C12.1034 12.9092 12.1099 12.9077 12.1156 12.9033C12.1212 12.8989 12.1237 12.8917 12.129 12.8864C12.6871 12.4142 13.1606 11.8505 13.53 11.2195C13.5347 11.2133 13.5394 11.2073 13.5434 11.2005C13.5462 11.1955 13.5462 11.1898 13.5487 11.1848C13.9178 10.5451 14.1725 9.84574 14.3009 9.11854C14.3009 9.11604 14.3028 9.11448 14.3034 9.11229C14.3041 9.10979 14.3034 9.10823 14.3034 9.10635C14.3678 8.74134 14.4003 8.37165 14.4006 8.00071C14.4022 7.03631 14.1841 6.08442 13.7622 5.21753Z"
            fill="#F44336" />
        <path
            d="M1.21188 1.21212C0.555613 1.86869 1.05468 3.31872 1.71095 3.97405C2.02095 4.28843 2.43909 4.47281 2.88003 4.48968H2.93785C3.06379 4.48843 3.1891 4.47218 3.31129 4.44156L6.68511 7.81756C6.6748 7.87787 6.66855 7.93912 6.66667 8.00038C6.66855 8.06163 6.6748 8.12288 6.68511 8.1835L6.30229 8.56664C5.98978 8.87914 5.98978 9.38572 6.30229 9.69822C6.61479 10.0107 7.12137 10.0107 7.43387 9.69822L7.81669 9.3154C7.87732 9.32571 7.93826 9.33196 7.99982 9.33384C8.06138 9.33196 8.12264 9.32571 8.18295 9.3154L8.56733 9.69978C8.88234 10.0076 9.38579 10.0067 9.69892 9.69697C10.0061 9.38259 10.0055 8.88039 9.69767 8.56664L9.31485 8.1835C9.32516 8.12319 9.33141 8.06194 9.33328 8.00038C9.33141 7.93912 9.32516 7.87787 9.31485 7.81756L12.749 4.38312C13.053 4.53093 13.4174 4.46906 13.6556 4.22936L15.5412 2.3437C15.615 2.27776 15.6462 2.17682 15.6228 2.08088C15.599 1.98494 15.5243 1.90994 15.4284 1.88619C15.3325 1.86213 15.2312 1.89338 15.1653 1.96682L13.2799 3.85217C13.1759 3.95561 13.008 3.95561 12.904 3.85217L12.7152 3.66342L14.789 1.58962C14.8581 1.52275 14.8862 1.42337 14.8615 1.33024C14.8371 1.23712 14.7643 1.1643 14.6712 1.13993C14.5781 1.11555 14.4787 1.14337 14.4118 1.21274L12.338 3.28653L12.1493 3.09778C12.0458 2.99371 12.0458 2.8259 12.1493 2.72183L14.0346 0.836173C14.1356 0.731483 14.1343 0.56523 14.0315 0.462415C13.9287 0.359601 13.7624 0.358038 13.6577 0.458978L11.7721 2.34401C11.5321 2.58214 11.4699 2.94653 11.6174 3.25059L8.18295 6.68504C8.12232 6.67472 8.06138 6.66879 7.99982 6.6666C7.93857 6.66847 7.87732 6.67472 7.81669 6.68504L4.44444 3.3131C4.47881 3.17153 4.49381 3.02622 4.48913 2.88059C4.47225 2.43933 4.28756 2.0212 3.97349 1.71119C3.31692 1.05493 1.86658 0.55523 1.21188 1.21212ZM2.89847 3.95655C2.59253 3.94405 2.30283 3.81529 2.08814 3.59685C1.57032 3.07903 1.225 1.95338 1.58876 1.58931C1.72032 1.47931 1.88939 1.42525 2.06033 1.43868C2.63222 1.47056 3.17535 1.70025 3.59661 2.08838C3.81505 2.30308 3.9438 2.59277 3.9563 2.89871C3.9713 3.18372 3.86474 3.46154 3.66317 3.66342C3.46129 3.86529 3.18316 3.97186 2.89847 3.95655ZM7.05668 9.32103C7.00668 9.37134 6.93855 9.39947 6.86792 9.39947C6.7973 9.39947 6.72917 9.37134 6.67917 9.32103C6.62917 9.27102 6.60104 9.20321 6.60104 9.13227C6.60104 9.06133 6.62917 8.99352 6.67917 8.94352L6.88855 8.73414C6.98793 8.88383 7.11637 9.01227 7.26637 9.11133L7.05668 9.32103ZM9.31953 8.94227C9.38704 9.00946 9.41391 9.10758 9.38922 9.20009C9.36485 9.29228 9.29328 9.36446 9.20109 9.38947C9.1089 9.41447 9.01078 9.38822 8.94296 9.32103L8.73359 9.11165C8.88359 9.01227 9.01171 8.88383 9.1114 8.73383L9.31953 8.94227ZM11.9593 3.66248L12.3371 4.03999L9.11047 7.26661C9.01109 7.11661 8.88265 6.98817 8.73296 6.88879L11.9593 3.66248ZM8.79984 8.00038C8.79984 8.44226 8.4417 8.80039 7.99982 8.80039C7.55794 8.80039 7.19981 8.44226 7.19981 8.00038C7.19981 7.55849 7.55794 7.20036 7.99982 7.20036C8.4417 7.20036 8.79984 7.55849 8.79984 8.00038ZM7.26606 6.8891C7.11605 6.98848 6.98761 7.11692 6.88824 7.26692L3.83224 4.21061C3.98162 4.11061 4.11006 3.9828 4.211 3.83404L7.26606 6.8891Z"
            fill="#F44336" />
        <path
            d="M9.73334 3.23937C9.7999 3.26343 9.87334 3.25999 9.9374 3.22999C10.0015 3.19999 10.0508 3.14562 10.0749 3.07937L10.2552 2.58404C10.3546 2.62561 10.453 2.66998 10.5505 2.71748C10.683 2.78186 10.8427 2.72655 10.9071 2.59404C10.9715 2.46154 10.9162 2.30185 10.7837 2.23747C10.5902 2.14403 10.3937 2.06216 10.1943 1.98903C10.1924 1.98903 10.1912 1.98684 10.1893 1.98591C10.1874 1.98528 10.1862 1.98591 10.1846 1.98591C8.77332 1.47215 7.22641 1.47215 5.81513 1.98591H5.81201L5.80888 1.98809C5.60763 2.06122 5.41044 2.14466 5.21762 2.23747C5.08512 2.30185 5.02981 2.46154 5.09418 2.59404C5.15856 2.72655 5.31825 2.78186 5.45075 2.71748C5.54825 2.66998 5.64669 2.62561 5.74576 2.58404L5.92607 3.07937C5.95733 3.17062 6.03545 3.23781 6.13045 3.25531C6.22546 3.27249 6.32233 3.23749 6.3839 3.16312C6.44546 3.08874 6.46202 2.98686 6.42733 2.89686L6.24733 2.40216C6.72953 2.25029 7.22922 2.16247 7.73392 2.14091V2.66686C7.73392 2.81405 7.8533 2.93342 8.00049 2.93342C8.14768 2.93342 8.26706 2.81405 8.26706 2.66686V2.14122C8.77207 2.1631 9.27208 2.25122 9.75396 2.40341L9.57365 2.89749C9.54958 2.96405 9.55271 3.03749 9.58271 3.10155C9.6124 3.16562 9.66677 3.21531 9.73334 3.23937Z"
            fill="#F44336" />
    </g>
    <defs>
        <clipPath id="clip0_218_23281">
            <rect width="16" height="16.0003" fill="white" />
        </clipPath>
    </defs>
</svg>
