<svg width="16" height="16" viewBox="0 0 16 16" fill="none" xmlns="http://www.w3.org/2000/svg">
    <g clip-path="url(#clip0_218_23259)">
        <path d="M8 0C3.58875 0 0 3.58875 0 8C0 9.82594 0.63125 11.6119 1.77781 13.0288C1.88906 13.1663 2.09063 13.1875 2.22781 13.0763C2.36531 12.965 2.38656 12.7634 2.27531 12.6263C1.22062 11.3231 0.64 9.68 0.64 8C0.64 3.94156 3.94156 0.64 8 0.64C12.0584 0.64 15.36 3.94156 15.36 8C15.36 12.0584 12.0584 15.36 8 15.36C6.32 15.36 4.67719 14.7794 3.37375 13.7247C3.23625 13.6138 3.035 13.6347 2.92375 13.7722C2.8125 13.9097 2.83375 14.1109 2.97125 14.2222C4.38812 15.3687 6.17406 16 8 16C12.4113 16 16 12.4113 16 8C16 3.58875 12.4113 0 8 0Z" fill="#F44336" />
        <path
            d="M11.2562 3.49792C11.3515 3.34917 11.3081 3.15104 11.1594 3.05573C10.2165 2.4523 9.12436 2.13354 7.99999 2.13354C4.76499 2.13354 2.13342 4.76511 2.13342 8.00011C2.13342 11.2351 4.76499 13.8667 7.99999 13.8667C11.235 13.8667 13.8665 11.2351 13.8665 8.00011C13.8665 6.6323 13.3856 5.30073 12.5125 4.25073C12.3994 4.1148 12.1978 4.09636 12.0619 4.20948C11.9259 4.32261 11.9075 4.52417 12.0206 4.66011C12.7984 5.59542 13.2269 6.78136 13.2269 8.00011C13.2269 10.882 10.8822 13.2267 8.0003 13.2267C5.11842 13.2267 2.77342 10.882 2.77342 8.00011C2.77342 5.11823 5.11811 2.77355 7.99999 2.77355C9.00155 2.77355 9.97467 3.05761 10.814 3.59511C10.9631 3.69011 11.1609 3.64698 11.2562 3.49792Z"
            fill="#F44336" />
        <path
            d="M8.96002 6.72004C8.96002 6.8966 9.10315 7.04004 9.28002 7.04004C9.4569 7.04004 9.60002 6.8966 9.60002 6.72004C9.60002 5.94723 9.0494 5.30098 8.32002 5.15223V4.5866C8.32002 4.41004 8.1769 4.2666 8.00002 4.2666C7.82315 4.2666 7.68002 4.41004 7.68002 4.5866V5.15223C6.95065 5.30098 6.40002 5.94723 6.40002 6.72004C6.40002 7.49285 6.95065 8.1391 7.68002 8.28785V10.185C7.30752 10.0529 7.04002 9.69723 7.04002 9.28004C7.04002 9.10348 6.89659 8.96004 6.72002 8.96004C6.54346 8.96004 6.40002 9.10316 6.40002 9.28004C6.40002 10.0529 6.95065 10.6991 7.68002 10.8479V11.4135C7.68002 11.59 7.82346 11.7335 8.00002 11.7335C8.17659 11.7335 8.32002 11.5904 8.32002 11.4135V10.8479C9.0494 10.6991 9.60002 10.0529 9.60002 9.28004C9.60002 8.50723 9.0494 7.86098 8.32002 7.71223V5.81504C8.69252 5.94723 8.96002 6.30285 8.96002 6.72004ZM7.68002 7.62504C7.30752 7.49285 7.04002 7.13723 7.04002 6.72004C7.04002 6.30285 7.30752 5.94723 7.68002 5.81504V7.62504ZM8.96002 9.28004C8.96002 9.69723 8.69252 10.0529 8.32002 10.185V8.37504C8.69252 8.50723 8.96002 8.86285 8.96002 9.28004Z"
            fill="#F44336" />
    </g>
    <defs>
        <clipPath id="clip0_218_23259">
            <rect width="16" height="16" fill="white" />
        </clipPath>
    </defs>
</svg>
