<svg width="24" height="34" viewBox="0 0 24 34" fill="none" xmlns="http://www.w3.org/2000/svg">
    <g clip-path="url(#clip0_1645_5487)">
        <path d="M3.78247 9.00952V20.902C4.7235 20.404 5.79197 20.1215 6.92537 20.1215C10.676 20.1215 13.727 23.2064 13.727 26.9988C13.727 27.7905 13.5922 28.5499 13.3484 29.2574H22.5737C23.3616 29.2574 24 28.6119 24 27.8153V9.00952H3.78247Z" fill="#F3F0F3"/>
        <path d="M19.7666 9.00952V27.814C19.7666 28.6107 19.1282 29.2561 18.3403 29.2561H22.5738C23.3616 29.2561 24 28.6107 24 27.814V9.00952H19.7666Z" fill="#E2DEE2"/>
        <path d="M12.5102 17.5779L14.3126 15.3603C14.5381 15.0827 14.5859 14.6987 14.434 14.3728C14.282 14.047 13.9585 13.8401 13.6032 13.8401H9.66385C9.15657 13.8401 8.74487 14.2564 8.74487 14.7693C8.74487 15.2822 9.15657 15.6985 9.66385 15.6985H11.6586L9.89298 17.8716C9.66753 18.1491 9.61974 18.5332 9.77168 18.859C9.92361 19.1848 10.2471 19.3917 10.6024 19.3917H12.0103C12.5507 19.3917 12.9905 19.8365 12.9905 20.3841C12.9905 20.9317 12.5507 21.3765 12.0103 21.3765H10.8352C11.519 21.8634 12.1108 22.4742 12.5776 23.1767C13.8605 22.9103 14.8297 21.7593 14.8297 20.3841C14.8285 18.9854 13.8262 17.8183 12.5102 17.5779Z" fill="#EA5B44"/>
        <path d="M18.1184 23.2336C17.6111 23.2336 17.1994 22.8174 17.1994 22.3045V15.6997H16.7093C16.202 15.6997 15.7903 15.2834 15.7903 14.7705C15.7903 14.2576 16.202 13.8413 16.7093 13.8413H18.1184C18.6256 13.8413 19.0373 14.2576 19.0373 14.7705V22.3045C19.0373 22.8174 18.6256 23.2336 18.1184 23.2336Z" fill="#EA5B44"/>
        <path d="M22.5737 2.48657H5.20872C4.42085 2.48657 3.78247 3.13206 3.78247 3.92869V9.1384H24V3.92993C24 3.13329 23.3616 2.48657 22.5737 2.48657Z" fill="#485B78"/>
        <path d="M22.5738 2.48657H20.2543V4.86037C20.2543 5.21594 20.0558 5.52567 19.7654 5.68178V9.1384H23.9988V3.92993C24 3.13329 23.3616 2.48657 22.5738 2.48657Z" fill="#8B97A7"/>
        <path d="M19.3352 5.79077C18.828 5.79077 18.4163 5.37449 18.4163 4.86157V0.929199C18.4163 0.416281 18.828 0 19.3352 0C19.8425 0 20.2542 0.416281 20.2542 0.929199V4.86157C20.2542 5.37449 19.8437 5.79077 19.3352 5.79077Z" fill="#EA5B44"/>
        <path d="M8.44608 5.79077C7.9388 5.79077 7.5271 5.37449 7.5271 4.86157V0.929199C7.5271 0.416281 7.9388 0 8.44608 0C8.95335 0 9.36505 0.416281 9.36505 0.929199V4.86157C9.36505 5.37449 8.95335 5.79077 8.44608 5.79077Z" fill="#EA5B44"/>
        <path d="M6.92415 33.0695C10.2407 33.0695 12.9294 30.351 12.9294 26.9975C12.9294 23.6441 10.2407 20.9255 6.92415 20.9255C3.60757 20.9255 0.918945 23.6441 0.918945 26.9975C0.918945 30.351 3.60757 33.0695 6.92415 33.0695Z" fill="#FAFAFA"/>
        <path d="M6.92427 20.9255C6.45866 20.9255 6.00529 20.9788 5.57031 21.0804C8.2378 21.6986 10.2289 24.1121 10.2289 26.9975C10.2289 29.883 8.23902 32.2952 5.57154 32.9147C6.00652 33.0163 6.45988 33.0695 6.9255 33.0695C10.2424 33.0695 12.9307 30.3513 12.9307 26.9975C12.9307 23.6438 10.2412 20.9255 6.92427 20.9255Z" fill="#E8E0DF"/>
        <path d="M6.92418 34C3.10614 34 0 30.8581 0 26.9975C0 23.137 3.10614 19.9963 6.92418 19.9963C10.7422 19.9963 13.8484 23.137 13.8484 26.9975C13.8484 30.8581 10.7435 34 6.92418 34ZM6.92418 21.8547C4.11947 21.8547 1.83795 24.1616 1.83795 26.9975C1.83795 29.8335 4.11947 32.1403 6.92418 32.1403C9.7289 32.1403 12.0104 29.8335 12.0104 26.9975C12.0116 24.1616 9.7289 21.8547 6.92418 21.8547Z" fill="#485B78"/>
        <path d="M9.29261 27.9268H6.92532C6.41805 27.9268 6.00635 27.5105 6.00635 26.9976V23.6128C6.00635 23.0999 6.41805 22.6836 6.92532 22.6836C7.4326 22.6836 7.8443 23.0999 7.8443 23.6128V26.0684H9.29383C9.80111 26.0684 10.2128 26.4846 10.2128 26.9976C10.2128 27.5105 9.80111 27.9268 9.29261 27.9268Z" fill="#485B78"/>
    </g>
    <defs>
        <clipPath id="clip0_1645_5487">
            <rect width="24" height="34" fill="white"/>
        </clipPath>
    </defs>
</svg>
