<svg width="15" height="14" viewBox="0 0 15 14" fill="none" xmlns="http://www.w3.org/2000/svg">
    <g clip-path="url(#clip0_189_4270)">
        <path
            d="M3.40714 12.866H1.53214C0.983036 12.8634 0.535714 12.4261 0.535714 11.8861V4.46785C0.535714 4.04899 0.808929 3.67492 1.21339 3.54057L10.2482 0.545352C10.4759 0.471591 10.717 0.595404 10.792 0.816686C10.8054 0.858835 10.8134 0.900984 10.8134 0.943133V3.46681C10.8134 3.61169 10.9339 3.73024 11.0812 3.73024C11.2286 3.73024 11.3491 3.61169 11.3491 3.46681V0.945767C11.3437 0.418905 10.9045 -0.00522007 10.3687 4.856e-05C10.2696 4.856e-05 10.1705 0.0158545 10.0768 0.0474662L1.04196 3.04005C0.420536 3.24552 0 3.8198 0 4.46785V11.8861C0 12.7185 0.685714 13.3929 1.53214 13.3929H3.40714C3.55446 13.3929 3.675 13.2744 3.675 13.1295C3.675 12.9846 3.55446 12.866 3.40714 12.866Z"
            fill="#EA5B44" />
        <path
            d="M13.5054 5.96406H13.433V5.30285C13.433 4.4704 12.7473 3.79602 11.9009 3.79602H2.42411C2.27679 3.79602 2.15625 3.91456 2.15625 4.05945C2.15625 4.20434 2.27679 4.32288 2.42411 4.32288H11.9009C12.45 4.32288 12.8973 4.76281 12.8973 5.30285V7.0494H11.7804C11.633 7.0494 11.5125 7.16794 11.5125 7.31283C11.5125 7.45772 11.633 7.57626 11.7804 7.57626H13.1652C13.3125 7.57626 13.433 7.45772 13.433 7.31283C13.433 7.31283 13.433 7.31283 13.433 7.3102V6.49092C13.9661 6.45668 14.4268 6.85183 14.4616 7.37342C14.4643 7.39449 14.4643 7.41293 14.4643 7.43401V8.77488C14.4643 9.29647 14.0357 9.71796 13.5054 9.71796H9.11518C8.50982 9.71006 8.02768 9.22008 8.03571 8.62472C8.03839 8.34812 8.15089 8.08469 8.34643 7.88711C8.55 7.6869 8.82589 7.57363 9.11518 7.57363H10.7089C10.8562 7.57363 10.9768 7.45508 10.9768 7.3102C10.9768 7.16531 10.8562 7.04677 10.7089 7.04677H9.11518C6.96696 7.11526 6.96696 10.1684 9.11518 10.2422H12.8973V11.8834C12.8973 12.4234 12.45 12.8633 11.9009 12.8633H4.47857C4.33125 12.8633 4.21071 12.9819 4.21071 13.1268C4.21071 13.2717 4.33125 13.3902 4.47857 13.3902H11.9009C12.7473 13.3902 13.433 12.7158 13.433 11.8834V10.2422H13.5054C14.3304 10.2422 15 9.58361 15 8.77224V7.43137C15 6.62264 14.3304 5.96406 13.5054 5.96406Z"
            fill="#EA5B44" />
        <path d="M8.57153 8.61945C8.57689 9.05148 8.93582 9.39657 9.37243 9.3913C9.80368 9.38603 10.1519 9.04357 10.1572 8.61945C10.1519 8.18742 9.79296 7.84233 9.35635 7.84759C8.9251 7.85286 8.57689 8.19532 8.57153 8.61945ZM9.62153 8.61945C9.61885 8.75907 9.501 8.86971 9.35903 8.86707C9.21975 8.86444 9.10993 8.7538 9.10725 8.61945C9.10993 8.47983 9.22778 8.36919 9.36975 8.37182C9.50635 8.37446 9.61885 8.48246 9.62153 8.61945Z" fill="#EA5B44" />
    </g>
    <defs>
        <clipPath id="clip0_189_4270">
            <rect width="15" height="13.3929" fill="white" />
        </clipPath>
    </defs>
</svg>
