<?xml version="1.0" encoding="utf-8"?><!-- Generator: Adobe Illustrator 24.0.2, SVG Export Plug-In . SVG Version: 6.00 Build 0)  -->
<svg version="1.1" id="Layer_1" xmlns="http://www.w3.org/2000/svg" xmlns:xlink="http://www.w3.org/1999/xlink" x="0px" y="0px" viewBox="0 0 21 21" enable-background="new 0 0 21 21"
    xml:space="preserve">
<path fill="#8C98A8" d="M9.2,21l-1.3-3.1c-0.3-0.1-0.5-0.2-0.7-0.3L4,18.9L2.1,17l1.3-3.1c-0.1-0.3-0.2-0.5-0.3-0.7L0,11.8V9.2
	l3.1-1.3c0.1-0.3,0.2-0.5,0.3-0.7L2.1,4L4,2.1l3.1,1.3c0.2-0.1,0.5-0.2,0.7-0.3L9.2,0h2.6l1.3,3.1c0.2,0.1,0.5,0.2,0.7,0.3L17,2.1
	L18.9,4l-1.3,3.1c0.1,0.2,0.2,0.5,0.3,0.7L21,9.2v2.6l-3.1,1.3c-0.1,0.2-0.2,0.5-0.3,0.7l1.3,3.1L17,18.9l-3.1-1.3
	c-0.2,0.1-0.5,0.2-0.7,0.3L11.8,21H9.2z M10.5,14.5c2.2,0,3.9-1.8,3.9-3.9c0-2.2-1.8-3.9-3.9-3.9c-2.2,0-3.9,1.8-3.9,3.9
	C6.6,12.7,8.3,14.5,10.5,14.5z" />
</svg>