<svg width="15" height="16" viewBox="0 0 15 16" fill="none" xmlns="http://www.w3.org/2000/svg">
    <path
        d="M7.49943 3.94637C5.37517 3.94637 3.64699 5.67503 3.64699 7.79988C3.64699 9.92473 5.37517 11.6534 7.49943 11.6534C9.62369 11.6534 11.3519 9.92473 11.3519 7.79988C11.3519 5.67503 9.62369 3.94637 7.49943 3.94637ZM7.49943 10.9106C5.78455 10.9106 4.38963 9.51524 4.38963 7.79988C4.38963 6.08453 5.78455 4.68922 7.49943 4.68922C9.21431 4.68922 10.6092 6.08453 10.6092 7.79988C10.6092 9.51524 9.21431 10.9106 7.49943 10.9106ZM14.5861 9.30105L13.6711 8.61392C13.7419 8.07288 13.7419 7.5272 13.6711 6.98616L14.5861 6.29902C15.0041 5.98517 15.1223 5.40699 14.8608 4.95416L13.6442 2.84603C13.3827 2.3932 12.8232 2.20656 12.3424 2.41177L11.2897 2.86089C10.8565 2.52753 10.384 2.25423 9.88021 2.04592L9.74282 0.910915C9.68062 0.391542 9.23906 0 8.71643 0H6.28274C5.76011 0 5.31854 0.391542 5.25573 0.910605L5.11834 2.04561C4.61458 2.25423 4.14208 2.52753 3.70887 2.86089L2.65649 2.41146C2.17563 2.20625 1.61618 2.39289 1.3547 2.84572L0.138013 4.95385C-0.123458 5.40668 -0.00525471 5.98486 0.41279 6.29872L1.32778 6.98585C1.25692 7.52689 1.25692 8.07288 1.32778 8.61361L0.41279 9.30074C-0.00525471 9.61459 -0.123458 10.1928 0.138013 10.6456L1.3547 12.7537C1.61618 13.2066 2.17563 13.3932 2.65649 13.188L3.70918 12.7389C4.14239 13.0722 4.61489 13.3455 5.11865 13.5538L5.25604 14.6889C5.31885 15.2079 5.76011 15.5995 6.28305 15.5995H8.71674C9.23937 15.5995 9.68093 15.2079 9.74375 14.6889L9.88083 13.5538C10.3846 13.3452 10.8571 13.0719 11.2903 12.7389L12.343 13.188C12.8238 13.3932 13.3833 13.2066 13.6448 12.7537L14.8615 10.6456C15.1223 10.1931 15.0041 9.6149 14.5861 9.30105ZM14.2178 10.2742L13.0012 12.3823C12.9263 12.512 12.7719 12.5637 12.6342 12.5049L11.3776 11.9685C11.2498 11.914 11.1019 11.9354 10.9948 12.0242C10.5195 12.4182 9.98603 12.7268 9.40925 12.9413C9.27898 12.9899 9.18677 13.1069 9.17006 13.2449L9.00637 14.6C8.98842 14.7489 8.8665 14.8569 8.71674 14.8569H6.28305C6.13328 14.8569 6.01136 14.7489 5.99342 14.6L5.82973 13.2449C5.81302 13.1069 5.72081 12.9899 5.59054 12.9413C5.01406 12.7268 4.48029 12.4185 4.005 12.0242C3.93723 11.9679 3.85307 11.9388 3.76797 11.9388C3.71877 11.9388 3.66926 11.9487 3.62223 11.9685L2.36562 12.5049C2.22792 12.5637 2.07352 12.5123 1.99833 12.3823L0.781634 10.2742C0.706751 10.1445 0.739242 9.98478 0.859302 9.89502L1.95129 9.0751C2.06238 8.99184 2.11746 8.85349 2.09456 8.71637C1.99214 8.10847 1.99214 7.4916 2.09456 6.8834C2.11746 6.74659 2.06238 6.60823 1.95129 6.52466L0.859302 5.70444C0.739551 5.61437 0.706751 5.45497 0.781634 5.32528L1.99833 3.21714C2.07321 3.08745 2.22762 3.03576 2.36531 3.09457L3.62192 3.63066C3.74972 3.68514 3.89763 3.66378 4.00469 3.57495C4.47998 3.18093 5.01344 2.87234 5.59023 2.65784C5.7205 2.60925 5.81271 2.49225 5.82942 2.3542L5.99311 0.999128C6.01106 0.850249 6.13297 0.742227 6.28274 0.742227H8.71643C8.8662 0.742227 8.98811 0.850249 9.00606 0.999128L9.17006 2.3542C9.18677 2.49225 9.27898 2.60925 9.40925 2.65784C9.98572 2.87234 10.5195 3.18062 10.9948 3.57495C11.1019 3.66378 11.2495 3.68514 11.3772 3.63066L12.6339 3.09457C12.7716 3.03576 12.9263 3.08714 13.0012 3.21714L14.2178 5.32528C14.2927 5.45497 14.2602 5.61468 14.1405 5.70444L13.0485 6.52435C12.9374 6.60761 12.8823 6.74597 12.9052 6.88309C13.0073 7.49129 13.0073 8.10785 12.9052 8.71606C12.8823 8.85287 12.9374 8.99122 13.0485 9.07479L14.1405 9.89471C14.2602 9.98509 14.2927 10.1445 14.2178 10.2742Z"
        fill="#EA5B44" />
</svg>
