<?xml version="1.0" encoding="utf-8"?><!-- Generator: Adobe Illustrator 24.0.2, SVG Export Plug-In . SVG Version: 6.00 Build 0)  -->
<svg version="1.1" id="Layer_1" xmlns="http://www.w3.org/2000/svg" xmlns:xlink="http://www.w3.org/1999/xlink" x="0px" y="0px" viewBox="0 0 21 23.4" style="enable-background:new 0 0 21 23.4;"
    xml:space="preserve">

<path class="st0" fill="none" stroke="#FFFFFF" stroke-miterlimit="10" d="M-43.9-21.2c0,1.3-1.1,2.4-2.4,2.4c-1.3,0-2.4-1.1-2.4-2.4s1.1-2.7,2.4-2.7C-45-23.8-43.9-22.5-43.9-21.2z" />
    <path class="st1" fill="#FFFFFF" d="M-56.3-21.6v20.7h21v-20.7H-56.3z M-43.6-6.2h-8.2v-1.9h8.2V-6.2z M-38.6-10.8h-13.2v-1.9h13.2V-10.8z
	 M-38.6-15.3h-13.2v-1.9h13.2V-15.3z" />
    <path class="st1" fill="#FFFFFF" d="M9.2,23.4l-1.3-3.1c-0.3-0.1-0.5-0.2-0.7-0.3L4,21.3l-1.9-1.9l1.3-3.1c-0.1-0.3-0.2-0.5-0.3-0.7L0,14.2v-2.6
	l3.1-1.3C3.2,10,3.3,9.8,3.4,9.6L2.2,6.5L4,4.6l3.1,1.3c0.2-0.1,0.5-0.2,0.7-0.3l1.3-3.1h2.6L13,5.6c0.2,0.1,0.5,0.2,0.7,0.3L17,4.6
	l1.9,1.9l-1.3,3.1c0.1,0.2,0.2,0.5,0.3,0.7l3.1,1.3v2.6l-3.1,1.3c-0.1,0.2-0.2,0.5-0.3,0.7l1.3,3.1l-1.9,2L13.9,20
	c-0.2,0.1-0.5,0.2-0.7,0.3l-1.3,3.1H9.2z M10.5,16.9c2.2,0,3.9-1.8,3.9-3.9c0-2.2-1.8-3.9-3.9-3.9c-2.2,0-3.9,1.8-3.9,3.9
	S8.3,16.9,10.5,16.9z" />
</svg>
