<svg width="16" height="13" viewBox="0 0 16 13" fill="none" xmlns="http://www.w3.org/2000/svg">
    <path d="M7.79125 11.3398C7.79125 12.2567 7.00313 13 6.03094 13C5.05875 13 4.27063 12.2567 4.27063 11.3398C4.27063 10.7283 4.62156 10.1936 5.14375 9.90569C5.13438 9.88182 4.38188 6.98969 2.88656 1.229C2.86219 1.13439 2.77656 1.06602 2.67531 1.05718L0.56 1.05629C0.250625 1.05629 0 0.819923 0 0.528146C0 0.246095 0.234375 0.0159151 0.529375 0.000884173L2.65344 0C3.26594 0 3.80125 0.385794 3.96406 0.939582L4.24094 2.00648H15.4397C15.7491 2.00648 15.9997 2.24285 15.9997 2.53463C15.9997 2.55556 15.9922 2.61067 15.9775 2.69968L14.5813 7.98143C14.5147 8.23313 14.2669 8.39729 14.0016 8.38078L5.89219 8.38285L6.18313 9.50634C6.2075 9.60094 6.29312 9.66932 6.39437 9.67816L12.9116 9.67964C13.8838 9.67964 14.6719 10.4229 14.6719 11.3398C14.6719 12.1989 13.9797 12.906 13.0925 12.9912C13.0331 12.9968 12.9728 12.9997 12.9116 12.9997C11.9394 12.9997 11.1512 12.2564 11.1512 11.3395C11.1512 11.1264 11.1938 10.9225 11.2716 10.7353H7.67094C7.74875 10.9228 7.79125 11.1267 7.79125 11.3398ZM12.9119 10.7362C12.5584 10.7362 12.2719 11.0065 12.2719 11.3398C12.2719 11.6732 12.5584 11.9434 12.9119 11.9434C13.2653 11.9434 13.5519 11.6732 13.5519 11.3398C13.5519 11.0065 13.2653 10.7362 12.9119 10.7362ZM6.03094 10.7362C5.6775 10.7362 5.39094 11.0065 5.39094 11.3398C5.39094 11.6732 5.6775 11.9434 6.03094 11.9434C6.38438 11.9434 6.67094 11.6732 6.67094 11.3398C6.67125 11.0065 6.38469 10.7362 6.03094 10.7362ZM14.7275 3.06307H4.515L5.61906 7.32714L13.6003 7.32685L14.7275 3.06307Z" fill="#EA5B44"/>
</svg>
