<?xml version="1.0" encoding="utf-8"?>
<svg version="1.1" id="Layer_1" xmlns="http://www.w3.org/2000/svg" xmlns:xlink="http://www.w3.org/1999/xlink" x="0px" y="0px" viewBox="0 0 11.3 11.3" enable-background="new 0 0 11.3 11.3" xml:space="preserve">

	<path fill="#485B78" d="M0.7,2h9.9c0.3,0,0.6,0.3,0.6,0.7l0,0c0,0.4-0.3,0.7-0.6,0.7H0.7C0.4,3.3,0.1,3,0.1,2.6l0,0
		C0.1,2.3,0.4,2,0.7,2z" />
    <path fill="#485B78" d="M0.7,5.2h9.9c0.3,0,0.6,0.3,0.6,0.7l0,0c0,0.4-0.3,0.7-0.6,0.7H0.7c-0.3,0-0.6-0.3-0.6-0.7l0,0
		C0.1,5.5,0.4,5.2,0.7,5.2z" />
    <path fill="#485B78" d="M0.5,8.4H7c0.2,0,0.4,0.3,0.4,0.7l0,0c0,0.4-0.2,0.7-0.4,0.7H0.5c-0.2,0-0.4-0.3-0.4-0.7l0,0
		C0.1,8.7,0.3,8.4,0.5,8.4z" />

</svg>
