<svg width="10" height="10" viewBox="0 0 10 10" fill="none" xmlns="http://www.w3.org/2000/svg">
    <path
        d="M5.29996 7.69239L5.00006 7.4676L4.70017 7.69239L2.30791 9.48558C2.29294 9.49678 2.27921 9.50003 2.26827 9.5C2.25752 9.49997 2.24488 9.49681 2.23112 9.48628L2.2292 9.48483C2.19958 9.46241 2.17675 9.41015 2.19361 9.35493L2.19474 9.35112L3.0871 6.34088L3.18686 6.00435L2.90423 5.79619L0.539445 4.05445C0.510359 4.03028 0.489113 3.97834 0.50575 3.92359C0.522087 3.87223 0.559223 3.85654 0.580184 3.85608L3.51468 3.85147L3.87957 3.8509L3.99031 3.50321L4.92531 0.567681L4.92552 0.567001C4.94209 0.514732 4.97937 0.5 5.00006 0.5C5.02029 0.5 5.0579 0.514615 5.07487 0.566927C5.07496 0.567178 5.07504 0.56743 5.07512 0.567683L5.99349 3.50087L6.10309 3.8509L6.46987 3.85147L9.41874 3.85607C9.41895 3.85607 9.41917 3.85607 9.41939 3.85608C9.44197 3.85655 9.47849 3.87318 9.49387 3.92289L9.49404 3.92342C9.51102 3.97809 9.48989 4.03005 9.4606 4.05429L7.0956 5.79619L6.81298 6.00435L6.91274 6.34088L7.80509 9.35112L7.80507 9.35113L7.80655 9.35596C7.82297 9.40934 7.80098 9.46202 7.77037 9.48525L7.76889 9.48638C7.76143 9.49209 7.75484 9.49526 7.74932 9.49712C7.74368 9.49902 7.73777 9.5 7.73153 9.5C7.72114 9.5 7.70776 9.49709 7.69198 9.4854C7.69189 9.48534 7.69181 9.48527 7.69172 9.48521L5.29996 7.69239Z"
        stroke="#485B78" />
</svg>
