<svg width="18" height="15" viewBox="0 0 18 15" fill="none" xmlns="http://www.w3.org/2000/svg">
    <g clip-path="url(#clip0_461_3371)">
        <path d="M16.7288 8.91766H14.9776L12.9013 11.484H16.7288C17.4308 11.484 17.9997 10.9094 17.9997 10.201C18 9.49225 17.4308 8.91766 16.7288 8.91766Z" fill="#FFDDCE"/>
        <path d="M18 10.2006C18 10.9094 17.4308 11.484 16.7288 11.484H12.9016L13.623 10.5925H16.7288C17.2754 10.5925 17.7413 10.2443 17.9209 9.75523C17.9722 9.894 18 10.0438 18 10.2006Z" fill="#FFCBBE"/>
        <path d="M16.5456 6.35171H14.7945L12.7181 8.91802H16.5456C17.2477 8.91802 17.8165 8.34343 17.8165 7.63504C17.8165 6.92594 17.2477 6.35171 16.5456 6.35171Z" fill="#FFDDCE"/>
        <path d="M17.8168 7.63469C17.8168 8.34343 17.2477 8.91802 16.5456 8.91802H12.7185L13.4399 8.0265H16.5456C17.0923 8.0265 17.5581 7.67834 17.7377 7.18928C17.7887 7.32769 17.8168 7.47782 17.8168 7.63469Z" fill="#FFCBBE"/>
        <path d="M15.6291 3.7854H13.8779L11.8016 6.35171H15.6291C16.3311 6.35171 16.9 5.77712 16.9 5.06873C16.9 4.35999 16.3311 3.7854 15.6291 3.7854Z" fill="#FFDDCE"/>
        <path d="M16.9 5.06838C16.9 5.77712 16.3308 6.35171 15.6287 6.35171H11.802L12.5234 5.46019H15.6291C16.1757 5.46019 16.6416 5.11203 16.8212 4.62297C16.8722 4.76174 16.9 4.91151 16.9 5.06838Z" fill="#FFCBBE"/>
        <path d="M11.0718 14.0453H5.17184L2.58609 11.7796L1.98563 9.18774L3.08356 6.13167L4.29082 3.26405C4.63957 2.43535 5.2766 1.76387 6.08168 1.37667L8.29512 0.312314C8.85024 0.0450713 9.51153 0.16006 9.94641 0.598721C10.1116 0.765526 10.2298 0.964626 10.299 1.17792C10.2994 1.17792 10.2994 1.17828 10.2994 1.17828C10.3475 1.32592 10.3714 1.48066 10.3714 1.63575C10.3714 1.90548 10.2976 2.17733 10.1468 2.41831L9.23484 3.8759L10.5887 11.3715L11.0443 13.8948L11.0718 14.0453Z" fill="#FFDDCE"/>
        <path d="M11.0447 13.8948C11.0173 13.9456 10.9902 13.996 10.9628 14.0453H5.17183L4.30769 10.7706C5.47875 11.2984 8.35594 12.3712 10.5891 11.3715C10.7536 11.2976 10.915 11.2128 11.0718 11.1152C12.9498 9.94866 11.9654 12.1842 11.0447 13.8948Z" fill="#FFCBBE"/>
        <path d="M10.299 1.17828C9.94571 0.599431 8.41887 1.24571 7.4236 1.77842C6.51199 2.2657 4.06723 5.40554 3.79371 8.82397L3.08356 6.13202L4.29082 3.2644C4.63957 2.4357 5.2766 1.76422 6.08168 1.37702L8.29512 0.312314C8.85024 0.0450713 9.51153 0.16006 9.94641 0.598721C10.1116 0.765881 10.2298 0.964981 10.299 1.17828Z" fill="#FFCBBE"/>
        <path d="M12.4038 1.18361L14.3188 1.80895L13.6417 3.92204L11.7267 3.2967L12.4038 1.18361Z" fill="#485B78"/>
        <path d="M14.6884 2.55886C13.6685 2.25612 12.6578 1.92606 11.6558 1.56867C11.2491 1.42352 11.023 0.980244 11.1545 0.565362C11.1563 0.560393 11.1577 0.555424 11.1594 0.550456C11.2934 0.136638 11.7339 -0.0894355 12.1477 0.0333611C13.1676 0.336094 14.1783 0.665799 15.1803 1.02354C15.587 1.1687 15.8131 1.61197 15.6816 2.02685C15.6798 2.03182 15.6784 2.03679 15.6767 2.04176C15.5427 2.45558 15.1022 2.68165 14.6884 2.55886Z" fill="#8B97A7"/>
        <path d="M13.0011 2.0304C12.5508 1.88205 12.1025 1.72803 11.6553 1.56867C11.2486 1.42352 11.0229 0.979889 11.154 0.565362L11.1589 0.550456C11.2929 0.136638 11.7334 -0.0894355 12.1472 0.0333611C12.6021 0.168579 13.0549 0.308766 13.506 0.454632C13.1062 0.385071 12.7051 0.615403 12.5761 1.0129L12.5712 1.02851C12.4453 1.42671 12.6369 1.85082 13.0011 2.0304Z" fill="#485B78"/>
        <path d="M14.8992 11.4794H13.1484L11.0721 14.0457H14.8992C15.6013 14.0457 16.1701 13.4711 16.1701 12.7627C16.1701 12.0536 15.6013 11.4794 14.8992 11.4794Z" fill="#FFDDCE"/>
        <path d="M16.1705 12.7623C16.1705 13.4711 15.6013 14.0457 14.8992 14.0457H11.0721L11.7935 13.1541H14.8992C15.4459 13.1541 15.9117 12.806 16.0914 12.3169C16.1423 12.4553 16.1705 12.6055 16.1705 12.7623Z" fill="#FFCBBE"/>
        <path d="M11.0721 14.0453C14.1915 14.0453 16.7203 11.4925 16.7203 8.34343C16.7203 5.19437 14.1915 2.64155 11.0721 2.64155C7.95269 2.64155 5.4239 5.19437 5.4239 8.34343C5.4239 11.4925 7.95269 14.0453 11.0721 14.0453Z" fill="#8B97A7"/>
        <path d="M11.4346 14.034C11.3147 14.0414 11.1937 14.0453 11.0721 14.0453C7.95234 14.0453 5.4239 11.4921 5.4239 8.34343C5.4239 5.19472 7.95234 2.64155 11.0721 2.64155C11.1937 2.64155 11.3147 2.64545 11.4346 2.65291C8.48496 2.84313 6.15094 5.31823 6.15094 8.34343C6.15094 11.3686 8.48496 13.8437 11.4346 14.034Z" fill="#485B78"/>
        <path d="M11.0721 12.7013C13.4562 12.7013 15.3889 10.7502 15.3889 8.34343C15.3889 5.93665 13.4562 3.98557 11.0721 3.98557C8.68799 3.98557 6.75527 5.93665 6.75527 8.34343C6.75527 10.7502 8.68799 12.7013 11.0721 12.7013Z" fill="#E8E0DF"/>
        <path d="M11.8262 12.6381C11.5871 12.68 11.3411 12.7013 11.0904 12.7013C8.70609 12.7013 6.7732 10.75 6.7732 8.34308C6.7732 5.93612 8.70609 3.98486 11.0904 3.98486C11.3411 3.98486 11.5871 4.00651 11.8262 4.04803C9.79277 4.40045 8.24519 6.18917 8.24519 8.34272C8.24519 10.4963 9.79277 12.2861 11.8262 12.6381Z" fill="#FAFAFA"/>
        <path d="M11.0721 8.8985C10.7684 8.8985 10.5223 8.65007 10.5223 8.34343V6.92595C10.5223 6.61931 10.7684 6.37088 11.0721 6.37088C11.3759 6.37088 11.622 6.61931 11.622 6.92595V8.34343C11.622 8.65007 11.3755 8.8985 11.0721 8.8985Z" fill="#2B4D66"/>
        <path d="M11.0721 5.28451C10.922 5.28451 10.8004 5.16172 10.8004 5.01017V4.13392C10.8004 3.98237 10.922 3.85958 11.0721 3.85958C11.2222 3.85958 11.3439 3.98237 11.3439 4.13392V5.01017C11.3435 5.16172 11.2219 5.28451 11.0721 5.28451Z" fill="#485B78"/>
        <path d="M11.0721 12.8269C10.922 12.8269 10.8004 12.7041 10.8004 12.5526V11.6763C10.8004 11.5248 10.922 11.402 11.0721 11.402C11.2222 11.402 11.3439 11.5248 11.3439 11.6763V12.5526C11.3435 12.7041 11.2219 12.8269 11.0721 12.8269Z" fill="#485B78"/>
        <path d="M15.2416 8.61777H14.3736C14.2235 8.61777 14.1019 8.49497 14.1019 8.34343C14.1019 8.19188 14.2235 8.06909 14.3736 8.06909H15.2416C15.3918 8.06909 15.5134 8.19188 15.5134 8.34343C15.513 8.49497 15.3918 8.61777 15.2416 8.61777Z" fill="#485B78"/>
        <path d="M7.77024 8.61777H6.90223C6.75211 8.61777 6.63047 8.49497 6.63047 8.34343C6.63047 8.19188 6.75211 8.06909 6.90223 8.06909H7.77024C7.92035 8.06909 8.04199 8.19188 8.04199 8.34343C8.04199 8.49497 7.92035 8.61777 7.77024 8.61777Z" fill="#485B78"/>
        <path d="M14.2397 6.77156C14.1458 6.77156 14.0544 6.72223 14.0041 6.63457C13.9293 6.50325 13.9736 6.33574 14.1036 6.26014L14.5473 6.00142C14.677 5.92583 14.8433 5.97054 14.9182 6.10186C14.9931 6.23317 14.9488 6.40069 14.8187 6.47628L14.375 6.73501C14.3325 6.75985 14.2857 6.77156 14.2397 6.77156Z" fill="#485B78"/>
        <path d="M7.46122 10.7223C7.36735 10.7223 7.27594 10.673 7.22567 10.5854C7.15079 10.454 7.19508 10.2865 7.32516 10.2106L7.76883 9.95185C7.89856 9.87626 8.06485 9.92098 8.13973 10.0523C8.21461 10.1836 8.17032 10.3511 8.04024 10.4271L7.59657 10.6858C7.55403 10.7106 7.50727 10.7223 7.46122 10.7223Z" fill="#485B78"/>
        <path d="M12.9002 5.42044C12.8542 5.42044 12.8074 5.40873 12.7645 5.38353C12.6345 5.30794 12.5902 5.14007 12.665 5.00911L12.9213 4.56122C12.9962 4.42991 13.1625 4.38519 13.2922 4.46078C13.4223 4.53638 13.4666 4.70425 13.3917 4.83521L13.1354 5.28309C13.0855 5.37111 12.9941 5.42044 12.9002 5.42044Z" fill="#485B78"/>
        <path d="M8.98699 12.263C8.94094 12.263 8.89418 12.2513 8.85129 12.2261C8.72121 12.1505 8.67692 11.9826 8.7518 11.8516L9.00809 11.4038C9.08297 11.2724 9.24926 11.2277 9.37899 11.3033C9.50906 11.3789 9.55336 11.5468 9.47848 11.6777L9.22219 12.1256C9.17227 12.214 9.08086 12.263 8.98699 12.263Z" fill="#485B78"/>
        <path d="M9.24363 5.42044C9.14977 5.42044 9.05836 5.37111 9.00809 5.28345L8.7518 4.83556C8.67692 4.70425 8.72121 4.53673 8.85129 4.46114C8.98102 4.38554 9.14731 4.43026 9.22219 4.56157L9.47848 5.00946C9.55336 5.14078 9.50906 5.30829 9.37899 5.38389C9.33645 5.40837 9.28969 5.42044 9.24363 5.42044Z" fill="#485B78"/>
        <path d="M13.1569 12.263C13.063 12.263 12.9716 12.2137 12.9213 12.126L12.665 11.6781C12.5902 11.5468 12.6345 11.3793 12.7645 11.3037C12.8943 11.2281 13.0605 11.2728 13.1354 11.4041L13.3917 11.852C13.4666 11.9833 13.4223 12.1508 13.2922 12.2264C13.2497 12.2513 13.2029 12.263 13.1569 12.263Z" fill="#485B78"/>
        <path d="M7.90454 6.77156C7.85848 6.77156 7.81172 6.75985 7.76883 6.73465L7.32516 6.47593C7.19508 6.40033 7.15079 6.23246 7.22567 6.1015C7.30055 5.97019 7.46684 5.92547 7.59657 6.00107L8.04024 6.25979C8.17032 6.33538 8.21461 6.50325 8.13973 6.63421C8.08946 6.72258 7.9984 6.77156 7.90454 6.77156Z" fill="#485B78"/>
        <path d="M14.6827 10.7223C14.6366 10.7223 14.5898 10.7106 14.547 10.6854L14.1033 10.4267C13.9732 10.3511 13.9289 10.1832 14.0038 10.0519C14.0787 9.92062 14.245 9.8759 14.3747 9.9515L14.8184 10.2102C14.9484 10.2858 14.9927 10.4537 14.9179 10.585C14.8679 10.673 14.7765 10.7223 14.6827 10.7223Z" fill="#485B78"/>
        <path d="M11.0721 12.9756C8.54191 12.9756 6.48351 10.8977 6.48351 8.34343C6.48351 5.78919 8.54191 3.71123 11.0721 3.71123C13.6023 3.71123 15.6607 5.78919 15.6607 8.34343C15.6607 10.8977 13.602 12.9756 11.0721 12.9756ZM11.0721 4.25991C8.84144 4.25991 7.02703 6.09192 7.02703 8.34378C7.02703 10.5956 8.84179 12.4277 11.0721 12.4277C13.3028 12.4277 15.1175 10.5956 15.1175 8.34378C15.1175 6.09192 13.3024 4.25991 11.0721 4.25991Z" fill="#485B78"/>
        <path d="M5.17184 14.0453L2.08828 15L0.758672 9.96072L0 7.086L3.0832 6.13167L3.84188 9.00639L5.17184 14.0453Z" fill="#DD636E"/>
        <path d="M3.84188 9.00639L0.758672 9.96108L0 7.086L3.0832 6.13167L3.84188 9.00639Z" fill="#EA5B44"/>
    </g>
    <defs>
        <clipPath id="clip0_461_3371">
            <rect width="18" height="15" fill="white"/>
        </clipPath>
    </defs>
</svg>
