<svg width="119" height="75" viewBox="0 0 119 75" fill="none" xmlns="http://www.w3.org/2000/svg">
    <g clip-path="url(#clip0_490_18233)">
        <path d="M83.2023 17.955C83.2268 17.8862 83.8214 16.8838 84.5878 15.7948C88.1554 10.7231 93.4457 5.83514 99.6498 6.01888L99.6541 5.98129C96.8494 5.67765 94.1007 6.41475 91.6885 7.72861C87.7082 9.84554 83.8307 13.8801 81.709 16.981L83.2023 17.955Z" fill="#485B78"/>
        <path d="M98.273 8.82535L98.6929 5.97345L96.5496 4.01543C96.3051 3.79267 96.4266 3.38972 96.7545 3.33438L99.6333 2.847L100.858 0.230633C100.998 -0.0673265 101.424 -0.0779679 101.578 0.212188L102.938 2.76329L105.838 3.10453C106.168 3.14354 106.311 3.5394 106.078 3.77423L104.04 5.83866L104.607 8.66573C104.672 8.98781 104.334 9.24321 104.036 9.09777L101.416 7.82222L98.8669 9.22831C98.5757 9.38793 98.2255 9.15027 98.273 8.82535Z" fill="#485B78"/>
        <path d="M41.8206 3.6046L41.4388 5.00217L42.5834 5.95139L42.0428 7.48801L43.5785 8.12862L43.045 9.89226L44.3852 10.6542L44.153 12.4341L43.4699 12.3476L43.6432 11.0167L42.2297 10.2129L42.7423 8.51739L41.1807 7.86613L41.7775 6.1706L40.6594 5.24338L41.0132 3.94796L40.1504 3.49038L40.4761 2.89233L41.8206 3.6046Z" fill="#EA5B44"/>
        <path d="M8.84089 23.3103L8.37211 20.1264L10.7649 17.9406C11.0374 17.6916 10.9022 17.2426 10.5363 17.1801L7.32239 16.636L5.95488 13.7153C5.79886 13.3826 5.32433 13.3705 5.15177 13.6947L3.634 16.5424L0.395685 16.9226C0.0268459 16.9659 -0.131331 17.4079 0.127504 17.6703L2.40309 19.9746L1.76967 23.1308C1.69777 23.4905 2.07452 23.7757 2.40741 23.6132L5.33152 22.1894L8.17798 23.7594C8.50297 23.9388 8.89481 23.6728 8.84089 23.3103Z" fill="#485B78"/>
        <path d="M37.669 14.2098L37.5583 12.4185L35.8629 12.41L35.6752 10.6499L34.0561 10.4449L33.6973 9.15088L33.0337 9.32965L33.5133 11.0614L35.0476 11.2558L35.2431 13.0861L36.9097 13.0946L37.0104 14.7178L37.669 14.2098Z" fill="#F48C7F"/>
        <path d="M81.0346 10.1128L80.9461 11.2025L79.1537 11.255L78.8244 12.8327L77.4893 13.0888L77.6208 13.755L79.4061 13.4131L79.7181 11.9183L81.5824 11.8637L81.7162 10.2235L81.0346 10.1128Z" fill="#EA5B44"/>
        <path d="M117.403 10.2916C119.471 12.249 119.54 15.4896 117.556 17.5306C115.572 19.571 112.288 19.6391 110.22 17.6818C108.152 15.7244 108.083 12.4838 110.066 10.4427C112.05 8.40172 115.334 8.33433 117.403 10.2916Z" fill="#FFF3D9"/>
        <path d="M117.314 14.5717L115.106 15.2414L114.413 17.4158C114.357 17.5918 114.121 17.6272 114.014 17.4768L112.686 15.6117L110.377 15.6337C110.191 15.6359 110.083 15.4252 110.195 15.2783L111.582 13.4558L110.847 11.2949C110.787 11.1204 110.957 10.9543 111.133 11.0139L113.318 11.7525L115.174 10.3953C115.324 10.2854 115.536 10.3932 115.533 10.5776L115.497 12.8563L117.378 14.178C117.53 14.2851 117.492 14.5178 117.314 14.5717Z" fill="#FED333"/>
        <path d="M36.6458 49.8542C36.5977 49.884 36.4143 49.9373 36.3712 49.9763L36.0361 50.0806C36.0361 50.0806 36.8975 50.0586 37.4065 50.5977C37.4065 50.5977 37.1649 50.1692 36.6458 49.8542Z" fill="#485B78"/>
        <path d="M77.8763 51.5166C78.2143 51.2626 78.3861 50.6249 78.4594 50.2127L78.6298 49.6707C78.5004 49.6111 75.9358 49.1315 75.1578 49.0762C75.0708 49.316 75.0234 49.5196 75.0414 49.6515C75.1276 50.2843 75.7503 54.3983 75.7503 54.3983L77.9712 54.543C77.972 54.543 77.601 52.1033 77.8763 51.5166Z" fill="#EA5B44"/>
        <path d="M77.9296 49.7897C77.9296 49.7897 77.4716 49.9948 76.9618 50.6006C76.9618 50.6006 75.7417 49.7486 75.7978 49.4982C75.8718 49.1668 77.1279 49.8451 77.1279 49.8451L77.9296 49.7897Z" fill="#F47458"/>
        <path d="M78.3873 48.9626C78.1198 48.5007 77.72 48.9753 77.9789 49.5762C77.9918 49.606 77.9796 49.6514 77.9803 49.6472C77.9134 49.8047 77.293 50.2935 77.293 50.2935C77.293 50.2935 77.7898 51.6655 78.0695 51.3051C78.3492 50.944 78.5613 49.7749 78.5613 49.7749L78.3873 48.9626Z" fill="#EA5B44"/>
        <path d="M65.6611 36.0701C64.3612 36.3227 59.1687 43.1885 59.1687 43.1885L58.9854 43.6638C58.9854 43.6638 68.3803 42.633 68.7204 42.2365C69.6393 41.1666 66.7288 35.863 65.6611 36.0701ZM59.2341 43.3347C60.9482 41.1723 64.8544 38.0154 65.6985 37.345C66.452 38.104 67.588 40.343 67.7376 41.3546C66.6584 41.5739 61.9756 43.0076 59.2341 43.3347Z" fill="#485B78"/>
        <path d="M53.0754 37.242C50.5194 35.5968 49.8177 35.6096 49.0728 36.026C48.328 36.4424 45.5822 40.3301 46.8095 41.5425C48.0368 42.7549 57.7726 43.6197 57.7726 43.6197L57.9919 43.0323C57.9926 43.0323 55.6314 38.8871 53.0754 37.242ZM48.5012 41.1154C47.934 40.5571 49.3468 38.2295 49.991 37.7343C50.1549 37.6428 56.7056 41.7553 57.6194 43.16C53.9641 42.7691 49.0304 41.5787 48.5012 41.1154Z" fill="#485B78"/>
        <path d="M57.851 45.4422H58.3989C58.9417 45.4422 59.3817 45.0081 59.3817 44.4724V42.8819C59.3817 42.3463 58.9417 41.9121 58.3989 41.9121H57.851C57.3082 41.9121 56.8682 42.3463 56.8682 42.8819V44.4724C56.8682 45.0081 57.3082 45.4422 57.851 45.4422Z" fill="#485B78"/>
        <path d="M78.6196 43.6928L34.0806 43.5615C32.8958 43.558 31.9862 44.5987 32.1638 45.7558L32.8533 50.2401L35.0858 50.2358L36.431 72.8034C36.5029 74.0109 37.516 74.9544 38.7411 74.9544H74.2906L75.7696 50.1528L77.8726 50.1486L78.6196 43.6928Z" fill="#EA5B44"/>
        <path d="M75.0521 74.9538H47.7652L46.3042 44.1604H78.724L77.3644 72.8128C77.3069 74.0103 76.2888 74.9538 75.0521 74.9538Z" fill="#EA5B44"/>
        <path d="M80.0619 50.1629L44.8676 50.2551L44.0645 43.5737L78.5412 43.7043C79.6736 43.7085 80.5594 44.6684 80.4588 45.7808L80.0619 50.1629Z" fill="#EA5B44"/>
        <path d="M44.8677 50.2551L78.4357 50.1628L45.9325 51.9137L44.8677 50.2551Z" fill="#EA5B44"/>
        <path d="M59.0087 43.6255H58.0747V50.2246H59.0087V43.6255Z" fill="#485B78"/>
        <path d="M61.9508 50.1934H60.7832V74.9999H61.9508V50.1934Z" fill="#485B78"/>
        <path d="M33.7692 30.6833C36.8774 31.8737 39.4377 32.6746 41.9915 33.3443C42.8334 33.565 44.2276 34.1935 45.0026 33.6338C45.4053 33.3429 45.5742 32.9052 45.3377 32.4391C44.9034 31.5857 43.5625 31.5247 42.7134 31.3019C40.1272 30.6223 37.234 29.7319 34.3624 28.665C33.8238 28.4649 33.194 28.8664 33.043 29.3815C32.8705 29.9668 33.2314 30.4775 33.7692 30.6833Z" fill="#D9D9D9"/>
        <path d="M53.6689 25.9699C52.7515 19.0395 52.8119 19.0218 52.4222 18.3677C52.0231 17.6973 50.931 17.7888 50.7153 18.5649C50.5025 19.3318 50.5514 19.2091 51.5436 26.4977C51.6227 27.0773 52.346 27.4136 52.8737 27.2824C53.5035 27.1263 53.7458 26.5516 53.6689 25.9699Z" fill="#D9D9D9"/>
        <path d="M64.9616 26.8603C65.6568 25.9352 66.2435 24.947 66.7231 23.897C67.1689 22.9215 67.9856 21.485 67.2199 20.518C67.0553 20.3109 66.6684 20.2115 66.4197 20.296C65.3807 20.6492 65.183 22.0865 64.7682 22.9854C64.3152 23.9651 63.7558 24.898 63.1411 25.7869C62.8183 26.2537 63.0361 26.944 63.5071 27.2221C64.0398 27.535 64.6201 27.3157 64.9616 26.8603Z" fill="#D9D9D9"/>
        <path d="M80.5962 32.1277C80.9104 31.702 80.6466 31.1501 80.2777 30.8784C79.517 30.3186 78.1761 30.8351 77.3464 31.0607C76.3801 31.3239 75.4483 31.6793 74.5381 32.0908C74.0125 32.3285 73.868 33.0634 74.1347 33.5295C74.4475 34.0751 75.0572 34.1474 75.5921 33.9275C79.0871 32.4909 79.8204 33.1784 80.5962 32.1277Z" fill="#D9D9D9"/>
    </g>
    <defs>
        <clipPath id="clip0_490_18233">
            <rect width="119" height="75" fill="white"/>
        </clipPath>
    </defs>
</svg>
