<svg width="19" height="19" viewBox="0 0 19 19" fill="none" xmlns="http://www.w3.org/2000/svg">
    <path d="M16.6561 14.3119V15.0931C16.6561 15.9525 15.953 16.6556 15.0936 16.6556H4.15623C3.28905 16.6556 2.59375 15.9525 2.59375 15.0931V4.15574C2.59375 3.29638 3.28905 2.59326 4.15623 2.59326H15.0936C15.953 2.59326 16.6561 3.29638 16.6561 4.15574V4.93699H9.62492C8.75774 4.93699 8.06244 5.6401 8.06244 6.49947V12.7494C8.06244 13.6088 8.75774 14.3119 9.62492 14.3119H16.6561ZM9.62492 12.7494H17.4373V6.49947H9.62492V12.7494ZM12.7499 10.7963C12.1015 10.7963 11.578 10.2729 11.578 9.62443C11.578 8.976 12.1015 8.45257 12.7499 8.45257C13.3983 8.45257 13.9217 8.976 13.9217 9.62443C13.9217 10.2729 13.3983 10.7963 12.7499 10.7963Z" fill="#485B78"/>
</svg>
