<svg width="15" height="15" viewBox="0 0 15 15" fill="none" xmlns="http://www.w3.org/2000/svg">
    <path
        d="M8.54296 -1.83168e-05C8.00976 0.0026184 7.62597 0.254571 7.32128 0.48045C6.97558 0.741192 6.67236 0.996953 6.39492 1.24949H0.749415C0.338381 1.24949 2.29632e-06 1.58934 2.29632e-06 2.00037V6.49978C2.29632e-06 6.91111 0.338381 7.2489 0.749415 7.2489H9.24931C9.66063 7.2489 10.0008 6.91111 10.0008 6.49978V4.99919H10.7499C10.9494 5.02527 11.8532 4.67752 12.2279 4.56765C12.3782 4.52253 12.5203 4.49939 12.4995 4.49939C12.4989 4.63826 12.6117 4.75076 12.7506 4.75046H14.7492C14.8881 4.75105 15.0006 4.63826 15.0003 4.49939V0.500958C15.0012 0.361798 14.8884 0.249005 14.7492 0.249591H12.7506C12.617 0.249298 12.5065 0.353887 12.5001 0.487481L8.78085 0.015216C8.69823 0.00466918 8.61913 -0.000311285 8.54296 -1.83168e-05ZM8.55234 0.503008C8.60448 0.502715 8.65956 0.505059 8.71845 0.509747L12.4998 0.99168V3.999C12.3539 3.999 12.247 4.03914 12.0847 4.08777C11.5772 4.25007 10.8656 4.49148 10.7502 4.49939H8.7498C8.60712 4.49939 8.50077 4.39304 8.50077 4.25037C8.50077 4.10769 8.60683 3.999 8.7498 3.999H10.2504C10.3884 3.99959 10.5009 3.88797 10.5015 3.74998C10.502 3.61111 10.3892 3.49832 10.2504 3.4989H10.0014V2.00037C10.0014 1.58904 9.66122 1.24949 9.24989 1.24949H7.15605C7.30341 1.12703 7.45693 1.00369 7.62245 0.878887C7.96611 0.63543 8.187 0.505645 8.55234 0.503008ZM12.9996 0.749981H14.5002V4.25037H12.9996V0.749981ZM0.749415 1.74959H1.25039C1.25039 2.16619 0.916993 2.50017 0.500392 2.50105V2.00037C0.500392 1.85769 0.60674 1.74959 0.749415 1.74959ZM1.75049 1.74959C4.18593 1.75076 6.03251 1.74959 8.24941 1.74959C8.24941 2.43689 8.81308 3.00115 9.50038 3.00115V3.4992H8.7495C8.33818 3.4992 8.00038 3.83963 8.00038 4.25066C8.00038 4.66169 8.33818 4.99978 8.7495 4.99978H9.50038V5.49988C8.81308 5.49988 8.24941 6.06384 8.24941 6.75144H1.75049C1.75049 6.06443 1.18711 5.50076 0.500392 5.49988V3.00144C1.18711 3.00027 1.75049 2.43631 1.75049 1.74959ZM8.7495 1.74959H9.2496C9.39228 1.74959 9.50067 1.85769 9.50067 2.00066V2.50105C9.08319 2.50105 8.7495 2.16678 8.7495 1.74959ZM4.99951 2.75037C4.17392 2.75037 3.49892 3.42508 3.49892 4.25037C3.49892 5.07566 4.17392 5.75037 4.99951 5.75037C5.82509 5.75037 6.50009 5.07566 6.50009 4.25037C6.50009 3.42508 5.82509 2.75037 4.99951 2.75037ZM4.99951 3.25047C5.55468 3.25047 5.99941 3.69519 5.99941 4.25037C5.99941 4.80554 5.55468 5.25027 4.99951 5.25027C4.44433 5.25027 3.99902 4.80554 3.99902 4.25037C3.99902 3.69519 4.44433 3.25047 4.99951 3.25047ZM13.7499 3.25047C13.6119 3.25047 13.5 3.36179 13.5 3.50008C13.5 3.63836 13.6119 3.74998 13.7499 3.74998C13.8879 3.74998 13.9998 3.63806 13.9998 3.50008C13.9998 3.36209 13.8882 3.25047 13.7499 3.25047ZM0.500392 5.99939C0.916993 6.00027 1.25039 6.33425 1.25039 6.75085H0.749415C0.60674 6.75085 0.500392 6.64275 0.500392 6.49978V5.99939ZM9.50038 5.99939V6.49978C9.50038 6.64245 9.39228 6.75085 9.24931 6.75085H8.74921C8.7495 6.33366 9.08319 5.99939 9.50038 5.99939ZM13.747 5.99939C13.6693 6.00027 13.5964 6.03718 13.5498 6.09958C13.4678 6.20974 13.49 6.36531 13.5996 6.44822L14.0018 6.75085H11.25C11.112 6.75027 10.9995 6.86189 10.9989 6.99988C10.9995 7.13786 11.1117 7.24948 11.25 7.2489H14.7489C14.9871 7.24802 15.089 6.94597 14.9004 6.80066L13.9005 6.04978C13.8562 6.01638 13.8023 5.9988 13.747 5.99939ZM11.25 7.74753C11.0098 7.74782 10.9084 8.05368 11.1006 8.19782L12.1005 8.9487C12.2106 9.03073 12.3662 9.00847 12.4491 8.8989C12.5323 8.78845 12.51 8.63112 12.3993 8.54821L11.9988 8.24734H14.7469C14.8843 8.24704 14.9959 8.13571 14.9965 7.99831C14.9971 7.86003 14.8851 7.74753 14.7469 7.74724L11.25 7.74753ZM7.22314 9.99987C6.34746 10.0019 5.43134 10.0005 4.74463 9.99987C4.24101 9.97409 3.21738 10.7215 2.7501 10.7499H2.50107C2.50049 10.6116 2.38799 10.5 2.24971 10.5008H0.249025C0.111623 10.5014 0.000588233 10.6125 2.29632e-06 10.7499V14.7489C-0.00058364 14.8869 0.111037 14.9994 0.249025 15H2.24941C2.38857 15.0008 2.50137 14.8881 2.50078 14.7489H2.7498C3.93925 14.8078 5.03789 14.9932 6.25078 15C6.67382 15 7.15751 14.7679 7.72353 14.4501C8.28954 14.1322 8.91532 13.7138 9.50038 13.2966C10.2477 12.7655 10.9778 12.2033 11.6853 11.6261C11.9921 11.3622 12.2018 10.9804 12.0565 10.5299C11.9801 10.2858 11.7773 10.1203 11.5673 10.0558C11.3575 9.99138 11.1378 10.0034 10.9324 10.0611L8.09589 10.855C8.08564 10.3842 7.69745 9.9987 7.22314 9.99987ZM7.22314 11.2494H5.25087C5.11289 11.2488 5.00039 11.3604 4.9998 11.4984C4.99921 11.6373 5.11201 11.7501 5.25087 11.7495H7.22314C7.49003 11.7495 7.72763 11.625 7.88876 11.434L11.0675 10.5433C11.3144 10.4757 11.5336 10.5222 11.5787 10.6796C11.6391 10.8969 11.5755 11.0595 11.359 11.247C11.3552 11.2508 10.36 12.07 9.20917 12.8903C8.63261 13.3013 8.01796 13.7112 7.47831 14.0144C6.93866 14.3176 6.45351 14.4999 6.25136 14.4999C5.0373 14.4659 3.86836 14.3132 2.75039 14.2508H2.50137V11.25H2.75039C3.29853 11.2564 4.3333 10.5164 4.74492 10.5C5.43427 10.5006 6.34863 10.502 7.22343 10.5C7.43495 10.4994 7.59843 10.6629 7.59843 10.8744C7.59609 11.1143 7.40156 11.2517 7.22314 11.2494ZM0.500392 10.9989H2.00039V14.4999H0.500392V10.9989ZM1.2501 11.4999C1.11211 11.4999 1.0002 11.6118 1.0002 11.7498C1.0002 11.8878 1.11211 11.9997 1.2501 11.9997C1.38809 11.9997 1.5 11.8878 1.5 11.7498C1.5 11.6118 1.38809 11.4999 1.2501 11.4999Z"
        fill="#EA5B44" />
</svg>
