<svg width="5" height="7" viewBox="0 0 5 7" fill="none" xmlns="http://www.w3.org/2000/svg">
    <path d="M1.09673 6.99981H3.90316C4.29004 6.99981 4.60413 6.74063 4.60413 6.4214V1.95C4.60413 1.63076 4.29004 1.37158 3.90316 1.37158H1.09673C0.709852 1.37158 0.395756 1.63076 0.395756 1.95V6.4214C0.394479 6.74063 0.708575 6.99981 1.09673 6.99981Z" fill="#F44336"/>
    <path d="M0.435393 1.1442H4.56461C4.80465 1.1442 5 0.983004 5 0.784931C5 0.586857 4.80465 0.425659 4.56461 0.425659H0.435393C0.195352 0.425659 0 0.586857 0 0.784931C0 0.984057 0.195352 1.1442 0.435393 1.1442Z" fill="#F44336"/>
    <path d="M1.51548 0.425647H3.22514C3.36814 0.425647 3.48305 0.330825 3.48305 0.212824C3.48305 0.0948224 3.36814 0 3.22514 0H1.51548C1.37248 0 1.25757 0.0948224 1.25757 0.212824C1.25757 0.330825 1.37376 0.425647 1.51548 0.425647Z" fill="#F44336"/>
</svg>
