<svg width="21" height="12" viewBox="0 0 21 12" fill="none" xmlns="http://www.w3.org/2000/svg">
    <path d="M7.38147 6.26111C9.18968 6.26111 10.6555 4.85951 10.6555 3.13056C10.6555 1.4016 9.18968 0 7.38147 0C5.57326 0 4.10742 1.4016 4.10742 3.13056C4.10742 4.85951 5.57326 6.26111 7.38147 6.26111Z" fill="#485B78" />
    <path d="M14.5123 6.26111C16.3205 6.26111 17.7864 4.85951 17.7864 3.13056C17.7864 1.4016 16.3205 0 14.5123 0C12.7041 0 11.2383 1.4016 11.2383 3.13056C11.2383 4.85951 12.7041 6.26111 14.5123 6.26111Z" fill="#485B78" />
    <path d="M13.3606 13.2222H0V12.6972C0 9.66389 2.57586 7.20093 5.74822 7.20093H7.61233C10.7847 7.20093 13.3606 9.66389 13.3606 12.6972V13.2222Z" fill="#485B78" />
    <path d="M21.0001 12.9631C21.0001 9.78067 18.3023 7.20752 14.9808 7.20752H14.0182C13.8691 7.20752 13.7471 7.32419 13.7471 7.46678V12.9631C13.7471 13.1057 13.8691 13.2223 14.0182 13.2223H20.729C20.8781 13.2223 21.0001 13.1057 21.0001 12.9631Z" fill="#485B78" />
</svg>
