<svg width="20" height="13" viewBox="0 0 20 13" fill="none" xmlns="http://www.w3.org/2000/svg">
    <path d="M2.03704 0.0478516H17.5185C18.6435 0.0478516 19.5556 0.900709 19.5556 1.95261V11.0955C19.5556 12.1474 18.6435 13.0002 17.5185 13.0002H2.03704C0.912083 13.0002 0 12.1474 0 11.0955V1.95261C0 0.900709 0.912083 0.0478516 2.03704 0.0478516Z" fill="#8B97A7"/>
    <path d="M0 3.85693H19.5556V6.14265H0V3.85693Z" fill="#485B78"/>
    <path d="M4.48137 8.80976H2.85174C2.62665 8.80976 2.44434 8.63928 2.44434 8.4288C2.44434 8.21833 2.62665 8.04785 2.85174 8.04785H4.48137C4.70647 8.04785 4.88878 8.21833 4.88878 8.4288C4.88878 8.63928 4.70647 8.80976 4.48137 8.80976Z" fill="white"/>
    <path d="M7.74065 8.80976H6.11102C5.88593 8.80976 5.70361 8.63928 5.70361 8.4288C5.70361 8.21833 5.88593 8.04785 6.11102 8.04785H7.74065C7.96574 8.04785 8.14806 8.21833 8.14806 8.4288C8.14806 8.63928 7.96574 8.80976 7.74065 8.80976Z" fill="white"/>
    <path d="M11.8146 8.04785H16.7035C16.9286 8.04785 17.1109 8.21833 17.1109 8.4288V10.7145C17.1109 10.925 16.9286 11.0955 16.7035 11.0955H11.8146C11.5895 11.0955 11.4072 10.925 11.4072 10.7145V8.4288C11.4072 8.21833 11.5895 8.04785 11.8146 8.04785Z" fill="white"/>
</svg>
