<svg width="269" height="166" viewBox="0 0 269 166" fill="none" xmlns="http://www.w3.org/2000/svg">
    <path d="M269 9.1041V156.896C269 161.924 264.935 166 259.921 166H9.07796C4.06374 166 0 161.924 0 156.896V9.1041C0 4.07628 4.06374 0 9.07796 0H259.921C264.935 0 269 4.07628 269 9.1041Z" fill="#485B78"/>
    <path d="M64.7083 64.2282H31.092C28.908 64.2282 27.1372 62.4526 27.1372 60.2627V36.5881C27.1372 34.3982 28.908 32.6226 31.092 32.6226H64.7083C66.8923 32.6226 68.663 34.3982 68.663 36.5881V60.2611C68.663 62.4526 66.8923 64.2282 64.7083 64.2282Z" fill="#EA5B44"/>
    <path d="M52.6609 60.7423H41.7062C41.5957 60.7423 41.5049 60.6527 41.5049 60.5404V38.7507C41.5049 38.6399 41.5942 38.5488 41.7062 38.5488H52.6609C52.7714 38.5488 52.8622 38.6384 52.8622 38.7507V60.5404C52.8622 60.6512 52.7729 60.7423 52.6609 60.7423Z" fill="#EA5B44"/>
    <path d="M50.8946 37.4985H43.4739C41.8106 37.4985 40.4575 38.8553 40.4575 40.5231V58.7693C40.4575 60.4371 41.8106 61.7938 43.4739 61.7938H50.8946C52.5579 61.7938 53.911 60.4371 53.911 58.7693V40.5231C53.911 38.8553 52.5579 37.4985 50.8946 37.4985ZM51.8148 58.7693C51.8148 59.2777 51.4016 59.692 50.8946 59.692H43.4739C42.9669 59.692 42.5537 59.2777 42.5537 58.7693V40.5231C42.5537 40.0147 42.9669 39.5989 43.4739 39.5989H50.8946C51.4016 39.5989 51.8148 40.0147 51.8148 40.5231V58.7693Z" fill="#FFFDFD"/>
    <path d="M68.6629 51.7051H53.3267V53.6552H68.6629V51.7051Z" fill="white"/>
    <path d="M42.4735 51.7051H27.1372V53.6552H42.4735V51.7051Z" fill="white"/>
    <path d="M42.4735 43.5703H27.1372V45.5204H42.4735V43.5703Z" fill="white"/>
    <path d="M68.6629 43.5703H53.3267V45.5204H68.6629V43.5703Z" fill="white"/>
    <path d="M240.012 92.2868H27.2897C27.152 92.2868 27.0415 92.1745 27.0415 92.0379V87.6566C27.0415 87.5185 27.1535 87.4077 27.2897 87.4077H240.012C240.15 87.4077 240.26 87.52 240.26 87.6566V92.0379C240.262 92.176 240.15 92.2868 240.012 92.2868Z" fill="#EA5B44"/>
    <path d="M30.3425 111.183C30.2668 111.195 30.2093 111.204 30.1714 111.208C30.1336 111.215 30.0988 111.218 30.07 111.218C29.8884 111.218 29.7401 111.166 29.6251 111.063C29.51 110.96 29.454 110.823 29.454 110.653C29.454 110.512 29.504 110.387 29.6039 110.283C29.7038 110.176 29.8475 110.098 30.0352 110.044L32.6505 109.339C32.7156 109.321 32.7777 109.308 32.8397 109.299C32.9018 109.29 32.9638 109.286 33.0289 109.286C33.1409 109.286 33.2287 109.337 33.2938 109.44C33.3589 109.544 33.3906 109.683 33.3906 109.859V119.411H34.7997C35.3219 119.411 35.6533 119.454 35.7941 119.539C35.9348 119.624 36.006 119.784 36.006 120.02C36.006 120.232 35.9469 120.39 35.8304 120.496C35.7124 120.602 35.5368 120.656 35.3022 120.656H30.0382C29.8037 120.656 29.6281 120.602 29.51 120.496C29.392 120.39 29.3345 120.231 29.3345 120.02C29.3345 119.784 29.4056 119.624 29.5464 119.539C29.6871 119.454 30.0186 119.411 30.5407 119.411H32.0028V110.787L30.3425 111.183Z" fill="#C1C1C1"/>
    <path d="M40.2028 120.656C39.891 120.656 39.6609 120.592 39.5111 120.466C39.3613 120.34 39.2871 120.144 39.2871 119.879C39.2871 119.496 39.8501 118.779 40.9777 117.725L41.2335 117.478C41.403 117.314 41.6497 117.077 41.9736 116.772C44.0047 114.854 45.0202 113.456 45.0202 112.579C45.0202 111.949 44.8416 111.439 44.4829 111.048C44.1243 110.656 43.6611 110.461 43.092 110.461C42.7228 110.461 42.3686 110.537 42.0311 110.69C41.6936 110.843 41.4227 111.049 41.2168 111.307C41.182 111.355 41.126 111.433 41.0503 111.546C40.8324 111.94 40.5887 112.138 40.3193 112.138C40.1074 112.138 39.9591 112.072 39.8698 111.943C39.782 111.814 39.7381 111.567 39.7381 111.201C39.7381 110.989 39.7593 110.835 39.8002 110.738C39.8411 110.641 39.9182 110.537 40.0287 110.424C40.4041 110.06 40.8687 109.77 41.4242 109.555C41.9781 109.339 42.5472 109.233 43.1284 109.233C44.1031 109.233 44.9173 109.549 45.5712 110.178C46.225 110.808 46.5534 111.584 46.5534 112.502C46.5534 113.657 45.556 115.191 43.5597 117.105C43.0497 117.581 42.6592 117.956 42.3883 118.226L41.3061 119.269H45.329C45.3517 119.012 45.4213 118.818 45.5363 118.685C45.6514 118.551 45.8042 118.484 45.998 118.484C46.1917 118.484 46.3446 118.549 46.455 118.678C46.567 118.807 46.623 118.985 46.623 119.208C46.623 119.226 46.62 119.257 46.614 119.301C46.6079 119.345 46.6049 119.375 46.6049 119.393L46.5337 120.073C46.5156 120.255 46.4626 120.398 46.3748 120.501C46.287 120.604 46.172 120.656 46.0313 120.656H40.2028Z" fill="#C1C1C1"/>
    <path d="M55.4588 114.582C56.146 114.771 56.6787 115.114 57.0571 115.611C57.4355 116.109 57.6246 116.716 57.6246 117.434C57.6246 118.464 57.2599 119.307 56.5334 119.962C55.8054 120.618 54.864 120.947 53.7077 120.947C52.8147 120.947 52.0217 120.776 51.327 120.431C50.6308 120.087 50.2842 119.709 50.2842 119.298C50.2842 119.122 50.3477 118.976 50.4734 118.861C50.599 118.745 50.7534 118.689 50.935 118.689C51.0349 118.689 51.3966 118.839 52.0217 119.14C52.6468 119.44 53.2294 119.591 53.7698 119.591C54.4675 119.591 55.0366 119.39 55.474 118.99C55.9114 118.589 56.1293 118.071 56.1293 117.436C56.1293 116.912 55.978 116.469 55.6753 116.108C55.3726 115.745 54.9579 115.514 54.4297 115.414C54.2707 115.385 54.0634 115.361 53.8046 115.343C53.3112 115.314 53.0645 115.108 53.0645 114.725C53.0645 114.378 53.3051 114.174 53.7864 114.117C53.9741 114.098 54.13 114.079 54.2526 114.054C54.7096 113.983 55.0805 113.795 55.362 113.49C55.6435 113.183 55.7842 112.813 55.7842 112.377C55.7842 111.819 55.6117 111.362 55.2651 111.008C54.9185 110.655 54.4781 110.479 53.9438 110.479C53.4504 110.479 52.9449 110.632 52.4258 110.939C51.9067 111.245 51.5812 111.397 51.4526 111.397C51.2876 111.397 51.1514 111.344 51.044 111.238C50.935 111.131 50.8805 110.999 50.8805 110.84C50.8805 110.48 51.2089 110.124 51.8673 109.767C52.5242 109.41 53.2522 109.233 54.0513 109.233C54.9669 109.233 55.7282 109.511 56.3351 110.068C56.9421 110.623 57.2463 111.307 57.2463 112.119C57.2463 112.737 57.101 113.247 56.8104 113.646C56.5198 114.047 56.0703 114.359 55.4588 114.582Z" fill="#C1C1C1"/>
    <path d="M64.6942 120.656C64.4127 120.656 64.222 120.61 64.1221 120.519C64.0222 120.428 63.9722 120.261 63.9722 120.02C63.9722 119.807 64.0237 119.654 64.1266 119.557C64.2295 119.46 64.3945 119.411 64.6245 119.411H65.6462V117.929H61.5355C61.3887 117.929 61.2737 117.882 61.1919 117.788C61.1102 117.693 61.0693 117.558 61.0693 117.381V116.772C61.0693 116.537 61.1541 116.29 61.3251 116.03C61.3539 115.983 61.3781 115.945 61.3963 115.915L65.1119 109.594C65.1936 109.447 65.2617 109.353 65.3147 109.312C65.3677 109.271 65.4373 109.25 65.5266 109.25C65.5614 109.25 65.6235 109.256 65.7112 109.268C65.7339 109.274 65.7582 109.28 65.7824 109.286L66.6799 109.427C66.7616 109.439 66.8282 109.485 66.8781 109.564C66.9281 109.643 66.9523 109.747 66.9523 109.878V116.587H67.4018C67.5305 116.587 67.6303 116.536 67.7015 116.432C67.7726 116.329 67.8513 116.278 67.9391 116.278C68.0572 116.278 68.1555 116.322 68.2388 116.41C68.3205 116.498 68.3614 116.607 68.3614 116.736C68.3614 116.789 68.3583 116.838 68.3523 116.882C68.3462 116.926 68.3341 116.971 68.3175 117.018L68.2463 117.379C68.2055 117.592 68.1449 117.736 68.0662 117.812C67.9875 117.888 67.8619 117.927 67.6924 117.927H66.9523V119.41H67.2611C67.6364 119.41 67.8952 119.455 68.036 119.546C68.1767 119.638 68.2479 119.795 68.2479 120.018C68.2479 120.231 68.1888 120.389 68.0723 120.495C67.9542 120.601 67.7787 120.654 67.5441 120.654H64.6942V120.656ZM65.6446 116.586V110.6L62.3074 116.586H65.6446Z" fill="#C1C1C1"/>
    <path d="M84.577 113.752C84.9644 113.611 85.3216 113.506 85.6516 113.438C85.98 113.369 86.2948 113.336 86.593 113.336C87.6206 113.336 88.4757 113.694 89.1598 114.409C89.8439 115.124 90.186 116.011 90.186 117.071C90.186 118.195 89.8076 119.121 89.0509 119.851C88.2941 120.581 87.3255 120.945 86.145 120.945C85.1597 120.945 84.3333 120.812 83.6674 120.543C83.0014 120.276 82.6685 119.95 82.6685 119.567C82.6685 119.414 82.7305 119.277 82.8531 119.156C82.9757 119.036 83.1195 118.975 83.2845 118.975C83.3495 118.975 83.6946 119.089 84.3197 119.315C84.9448 119.541 85.5244 119.655 86.0587 119.655C86.8457 119.655 87.4829 119.418 87.9733 118.945C88.4636 118.471 88.7088 117.861 88.7088 117.113C88.7088 116.383 88.4773 115.776 88.0126 115.291C87.5495 114.805 86.9653 114.562 86.26 114.562C85.7318 114.562 85.2142 114.694 84.7056 114.96C84.1986 115.225 83.8914 115.357 83.7854 115.357C83.6099 115.357 83.4842 115.292 83.4116 115.163C83.3374 115.034 83.3011 114.799 83.3011 114.457V110.053C83.3011 109.859 83.3616 109.719 83.4812 109.633C83.6008 109.548 83.8111 109.504 84.1108 109.504H88.565C88.8465 109.504 89.0584 109.562 89.1992 109.677C89.3399 109.792 89.4111 109.965 89.4111 110.196C89.4111 110.414 89.3369 110.586 89.1916 110.707C89.0448 110.829 88.836 110.889 88.5666 110.889H84.5785V113.752H84.577Z" fill="#C1C1C1"/>
    <path d="M95.2908 114.873C95.6071 114.462 95.9598 114.153 96.3472 113.946C96.7347 113.74 97.1569 113.637 97.6155 113.637C98.5433 113.637 99.3303 113.987 99.9796 114.687C100.627 115.388 100.953 116.248 100.953 117.273C100.953 118.344 100.639 119.224 100.011 119.912C99.3833 120.601 98.5796 120.945 97.5989 120.945C96.4426 120.945 95.5163 120.485 94.8216 119.564C94.1254 118.643 93.7788 117.415 93.7788 115.878C93.7788 113.878 94.2919 112.269 95.3195 111.054C96.3472 109.838 97.7018 109.231 99.3863 109.231C99.9554 109.231 100.331 109.272 100.514 109.354C100.695 109.436 100.786 109.592 100.786 109.821C100.786 110.198 100.44 110.392 99.748 110.404C99.291 110.41 98.9232 110.439 98.6477 110.492C97.72 110.668 96.9677 111.136 96.3896 111.891C95.8084 112.65 95.4437 113.643 95.2908 114.873ZM95.4845 117.221C95.4845 117.945 95.6752 118.535 96.0566 118.991C96.438 119.447 96.9284 119.675 97.5262 119.675C98.0893 119.675 98.5524 119.46 98.9126 119.03C99.2728 118.601 99.4544 118.039 99.4544 117.344C99.4544 116.626 99.2683 116.043 98.8959 115.596C98.5236 115.148 98.0438 114.925 97.4566 114.925C96.8875 114.925 96.4168 115.141 96.043 115.57C95.6707 116.001 95.4845 116.55 95.4845 117.221Z" fill="#C1C1C1"/>
    <path d="M108.33 120.479C108.283 120.62 108.239 120.711 108.198 120.752C108.157 120.793 108.08 120.815 107.97 120.815H107.82H107.195C107.077 120.815 106.984 120.79 106.918 120.745C106.85 120.698 106.816 120.632 106.816 120.551C106.816 120.504 106.821 120.458 106.83 120.414C106.839 120.37 106.853 120.318 106.869 120.259L110.329 110.839H105.857C105.839 111.116 105.778 111.32 105.672 111.453C105.566 111.585 105.41 111.651 105.206 111.651C105.006 111.651 104.858 111.601 104.761 111.501C104.664 111.401 104.616 111.245 104.616 111.034C104.616 110.974 104.617 110.93 104.62 110.902C104.623 110.873 104.628 110.845 104.634 110.823L104.722 110.029C104.74 109.864 104.799 109.738 104.902 109.65C105.005 109.562 105.144 109.518 105.32 109.518H111.139C111.308 109.518 111.434 109.554 111.513 109.628C111.591 109.703 111.632 109.818 111.632 109.977V110.278C111.632 110.349 111.617 110.442 111.588 110.556C111.56 110.671 111.513 110.824 111.448 111.018L108.33 120.479Z" fill="#C1C1C1"/>
    <path d="M117.256 114.948C116.687 114.665 116.259 114.307 115.971 113.875C115.684 113.442 115.54 112.937 115.54 112.36C115.54 111.448 115.865 110.698 116.518 110.111C117.168 109.525 118.002 109.232 119.018 109.232C120.015 109.232 120.846 109.527 121.509 110.116C122.172 110.704 122.504 111.424 122.504 112.272C122.504 112.902 122.363 113.435 122.081 113.872C121.8 114.307 121.362 114.667 120.769 114.949C121.362 115.191 121.816 115.544 122.134 116.012C122.451 116.479 122.61 117.027 122.61 117.657C122.61 118.626 122.277 119.419 121.611 120.03C120.945 120.642 120.08 120.948 119.018 120.948C117.956 120.948 117.093 120.64 116.43 120.023C115.767 119.405 115.436 118.605 115.436 117.623C115.436 117.024 115.594 116.49 115.911 116.022C116.226 115.553 116.675 115.195 117.256 114.948ZM116.878 117.619C116.878 118.242 117.073 118.749 117.464 119.136C117.854 119.525 118.372 119.719 119.018 119.719C119.669 119.719 120.191 119.531 120.58 119.155C120.97 118.778 121.166 118.277 121.166 117.654C121.166 117.042 120.966 116.546 120.566 116.166C120.167 115.787 119.651 115.597 119.016 115.597C118.388 115.597 117.875 115.784 117.476 116.157C117.078 116.532 116.878 117.018 116.878 117.619ZM116.966 112.362C116.966 112.946 117.158 113.424 117.542 113.794C117.927 114.166 118.419 114.351 119.016 114.351C119.62 114.351 120.115 114.165 120.5 113.79C120.884 113.415 121.076 112.934 121.076 112.344C121.076 111.777 120.884 111.31 120.5 110.941C120.115 110.572 119.62 110.389 119.016 110.389C118.413 110.389 117.919 110.572 117.538 110.941C117.156 111.31 116.966 111.784 116.966 112.362Z" fill="#C1C1C1"/>
    <path d="M142.096 113.752C142.483 113.611 142.841 113.506 143.171 113.438C143.499 113.369 143.814 113.336 144.112 113.336C145.14 113.336 145.995 113.694 146.679 114.409C147.363 115.124 147.705 116.011 147.705 117.071C147.705 118.195 147.327 119.121 146.57 119.851C145.813 120.581 144.845 120.945 143.664 120.945C142.679 120.945 141.852 120.812 141.186 120.543C140.52 120.276 140.188 119.95 140.188 119.567C140.188 119.414 140.25 119.277 140.372 119.156C140.495 119.036 140.639 118.975 140.803 118.975C140.869 118.975 141.212 119.089 141.837 119.315C142.462 119.541 143.042 119.655 143.576 119.655C144.363 119.655 145 119.418 145.491 118.945C145.981 118.471 146.226 117.861 146.226 117.113C146.226 116.383 145.995 115.776 145.532 115.291C145.069 114.805 144.484 114.562 143.779 114.562C143.251 114.562 142.733 114.694 142.225 114.96C141.718 115.225 141.41 115.357 141.304 115.357C141.129 115.357 141.003 115.292 140.931 115.163C140.856 115.034 140.82 114.799 140.82 114.457V110.053C140.82 109.859 140.881 109.719 141 109.633C141.12 109.548 141.33 109.504 141.63 109.504H146.084C146.366 109.504 146.577 109.562 146.718 109.677C146.859 109.792 146.93 109.965 146.93 110.196C146.93 110.414 146.856 110.586 146.711 110.707C146.564 110.829 146.355 110.889 146.086 110.889H142.098V113.752H142.096Z" fill="white"/>
    <path d="M152.916 113.752C153.303 113.611 153.66 113.506 153.99 113.438C154.319 113.369 154.634 113.336 154.932 113.336C155.959 113.336 156.815 113.694 157.499 114.409C158.183 115.124 158.525 116.011 158.525 117.071C158.525 118.195 158.146 119.121 157.39 119.851C156.633 120.581 155.664 120.945 154.484 120.945C153.499 120.945 152.672 120.812 152.006 120.543C151.34 120.276 151.007 119.95 151.007 119.567C151.007 119.414 151.069 119.277 151.192 119.156C151.315 119.036 151.458 118.975 151.623 118.975C151.688 118.975 152.032 119.089 152.657 119.315C153.282 119.541 153.862 119.655 154.396 119.655C155.183 119.655 155.82 119.418 156.311 118.945C156.801 118.471 157.046 117.861 157.046 117.113C157.046 116.383 156.815 115.776 156.351 115.291C155.888 114.805 155.304 114.562 154.599 114.562C154.071 114.562 153.553 114.694 153.044 114.96C152.537 115.225 152.23 115.357 152.124 115.357C151.949 115.357 151.823 115.292 151.75 115.163C151.676 115.034 151.64 114.799 151.64 114.457V110.053C151.64 109.859 151.701 109.719 151.82 109.633C151.94 109.548 152.15 109.504 152.45 109.504H156.904C157.185 109.504 157.397 109.562 157.538 109.677C157.679 109.792 157.75 109.965 157.75 110.196C157.75 110.414 157.676 110.586 157.53 110.707C157.384 110.829 157.175 110.889 156.905 110.889H152.917V113.752H152.916Z" fill="white"/>
    <path d="M165.505 120.655C165.224 120.655 165.033 120.61 164.933 120.519C164.833 120.428 164.783 120.261 164.783 120.019C164.783 119.807 164.835 119.654 164.938 119.557C165.041 119.459 165.206 119.411 165.436 119.411H166.457V117.928H162.345C162.198 117.928 162.083 117.881 162.002 117.787C161.92 117.693 161.879 117.558 161.879 117.38V116.772C161.879 116.537 161.964 116.289 162.135 116.03C162.163 115.983 162.188 115.945 162.204 115.914L165.92 109.594C166.002 109.446 166.07 109.352 166.123 109.311C166.176 109.27 166.245 109.249 166.335 109.249C166.369 109.249 166.432 109.255 166.519 109.267C166.542 109.273 166.566 109.279 166.589 109.285L167.486 109.427C167.568 109.439 167.635 109.484 167.685 109.563C167.735 109.642 167.759 109.747 167.759 109.877V116.587H168.208C168.337 116.587 168.437 116.535 168.508 116.432C168.579 116.329 168.658 116.277 168.746 116.277C168.862 116.277 168.962 116.321 169.045 116.409C169.127 116.497 169.168 116.606 169.168 116.735C169.168 116.788 169.165 116.837 169.159 116.881C169.153 116.925 169.141 116.971 169.124 117.018L169.053 117.379C169.012 117.591 168.951 117.735 168.873 117.811C168.794 117.887 168.668 117.927 168.499 117.927H167.759V119.409H168.068C168.443 119.409 168.702 119.455 168.843 119.546C168.983 119.637 169.054 119.795 169.054 120.018C169.054 120.23 168.995 120.388 168.879 120.494C168.761 120.601 168.585 120.654 168.351 120.654H165.505V120.655ZM166.457 116.585V110.6L163.12 116.585H166.457Z" fill="white"/>
    <path d="M176.325 120.655C176.044 120.655 175.853 120.61 175.753 120.519C175.653 120.428 175.603 120.261 175.603 120.019C175.603 119.807 175.655 119.654 175.758 119.557C175.86 119.459 176.025 119.411 176.255 119.411H177.277V117.928H173.165C173.018 117.928 172.903 117.881 172.821 117.787C172.74 117.693 172.699 117.558 172.699 117.38V116.772C172.699 116.537 172.783 116.289 172.955 116.03C172.983 115.983 173.007 115.945 173.024 115.914L176.74 109.594C176.821 109.446 176.89 109.352 176.943 109.311C176.996 109.27 177.065 109.249 177.154 109.249C177.189 109.249 177.251 109.255 177.339 109.267C177.362 109.273 177.386 109.279 177.409 109.285L178.306 109.427C178.388 109.439 178.455 109.484 178.505 109.563C178.554 109.642 178.579 109.747 178.579 109.877V116.587H179.028C179.157 116.587 179.257 116.535 179.328 116.432C179.399 116.329 179.478 116.277 179.565 116.277C179.682 116.277 179.782 116.321 179.865 116.409C179.947 116.497 179.988 116.606 179.988 116.735C179.988 116.788 179.985 116.837 179.979 116.881C179.973 116.925 179.96 116.971 179.944 117.018L179.873 117.379C179.832 117.591 179.771 117.735 179.693 117.811C179.614 117.887 179.488 117.927 179.319 117.927H178.579V119.409H178.887C179.263 119.409 179.522 119.455 179.662 119.546C179.803 119.637 179.874 119.795 179.874 120.018C179.874 120.23 179.815 120.388 179.699 120.494C179.581 120.601 179.405 120.654 179.17 120.654H176.325V120.655ZM177.276 116.585V110.6L173.938 116.585H177.276Z" fill="white"/>
    <path d="M202.155 120.479C202.108 120.62 202.064 120.711 202.023 120.752C201.982 120.793 201.905 120.815 201.794 120.815H201.645H201.019C200.901 120.815 200.809 120.79 200.742 120.745C200.674 120.698 200.641 120.632 200.641 120.551C200.641 120.504 200.646 120.458 200.655 120.414C200.664 120.37 200.677 120.318 200.694 120.259L204.154 110.839H199.681C199.663 111.116 199.603 111.32 199.497 111.453C199.391 111.585 199.235 111.651 199.031 111.651C198.831 111.651 198.683 111.601 198.586 111.501C198.489 111.401 198.44 111.245 198.44 111.034C198.44 110.974 198.442 110.93 198.445 110.902C198.448 110.873 198.453 110.845 198.459 110.823L198.546 110.029C198.565 109.864 198.624 109.738 198.726 109.65C198.829 109.562 198.969 109.518 199.144 109.518H204.964C205.133 109.518 205.259 109.554 205.337 109.628C205.416 109.703 205.457 109.818 205.457 109.977V110.278C205.457 110.349 205.442 110.442 205.413 110.556C205.384 110.671 205.337 110.824 205.272 111.018L202.155 120.479Z" fill="#C1C1C1"/>
    <path d="M212.974 120.479C212.927 120.62 212.884 120.711 212.843 120.752C212.802 120.793 212.725 120.815 212.614 120.815H212.464H211.839C211.721 120.815 211.629 120.79 211.562 120.745C211.494 120.698 211.461 120.632 211.461 120.551C211.461 120.504 211.465 120.458 211.475 120.414C211.484 120.37 211.497 120.318 211.514 120.259L214.974 110.839H210.501C210.483 111.116 210.423 111.32 210.317 111.453C210.211 111.585 210.055 111.651 209.851 111.651C209.651 111.651 209.502 111.601 209.406 111.501C209.309 111.401 209.26 111.245 209.26 111.034C209.26 110.974 209.262 110.93 209.265 110.902C209.268 110.873 209.272 110.845 209.278 110.823L209.366 110.029C209.384 109.864 209.443 109.738 209.546 109.65C209.649 109.562 209.788 109.518 209.964 109.518H215.783C215.953 109.518 216.079 109.554 216.157 109.628C216.236 109.703 216.277 109.818 216.277 109.977V110.278C216.277 110.349 216.262 110.442 216.233 110.556C216.204 110.671 216.157 110.824 216.092 111.018L212.974 120.479Z" fill="#C1C1C1"/>
    <path d="M221.903 114.948C221.334 114.665 220.905 114.307 220.618 113.875C220.33 113.442 220.186 112.937 220.186 112.36C220.186 111.448 220.512 110.698 221.164 110.111C221.815 109.525 222.649 109.232 223.664 109.232C224.662 109.232 225.493 109.527 226.156 110.116C226.819 110.704 227.15 111.424 227.15 112.272C227.15 112.902 227.009 113.435 226.728 113.872C226.446 114.307 226.009 114.667 225.416 114.949C226.009 115.191 226.463 115.544 226.781 116.012C227.097 116.479 227.256 117.027 227.256 117.657C227.256 118.626 226.923 119.419 226.257 120.03C225.591 120.642 224.727 120.948 223.664 120.948C222.602 120.948 221.739 120.64 221.076 120.023C220.413 119.405 220.082 118.605 220.082 117.623C220.082 117.024 220.241 116.49 220.557 116.022C220.872 115.553 221.322 115.195 221.903 114.948ZM221.523 117.619C221.523 118.242 221.718 118.749 222.109 119.136C222.499 119.525 223.017 119.719 223.663 119.719C224.314 119.719 224.836 119.531 225.226 119.155C225.617 118.778 225.812 118.277 225.812 117.654C225.812 117.042 225.612 116.546 225.213 116.166C224.813 115.787 224.297 115.597 223.663 115.597C223.035 115.597 222.522 115.784 222.122 116.157C221.723 116.532 221.523 117.018 221.523 117.619ZM221.612 112.362C221.612 112.946 221.804 113.424 222.189 113.794C222.573 114.166 223.065 114.351 223.663 114.351C224.267 114.351 224.762 114.165 225.146 113.79C225.531 113.415 225.723 112.934 225.723 112.344C225.723 111.777 225.531 111.31 225.146 110.941C224.762 110.572 224.267 110.389 223.663 110.389C223.059 110.389 222.566 110.572 222.184 110.941C221.803 111.31 221.612 111.784 221.612 112.362Z" fill="#C1C1C1"/>
    <path d="M232.721 114.948C232.152 114.665 231.724 114.307 231.436 113.875C231.149 113.442 231.005 112.937 231.005 112.36C231.005 111.448 231.33 110.698 231.983 110.111C232.633 109.525 233.467 109.232 234.483 109.232C235.48 109.232 236.311 109.527 236.974 110.116C237.637 110.704 237.968 111.424 237.968 112.272C237.968 112.902 237.828 113.435 237.546 113.872C237.265 114.307 236.827 114.667 236.234 114.949C236.827 115.191 237.281 115.544 237.599 116.012C237.915 116.479 238.074 117.027 238.074 117.657C238.074 118.626 237.741 119.419 237.075 120.03C236.41 120.642 235.545 120.948 234.483 120.948C233.42 120.948 232.558 120.64 231.895 120.023C231.232 119.405 230.9 118.605 230.9 117.623C230.9 117.024 231.059 116.49 231.376 116.022C231.692 115.553 232.14 115.195 232.721 114.948ZM232.343 117.619C232.343 118.242 232.538 118.749 232.928 119.136C233.319 119.525 233.837 119.719 234.483 119.719C235.134 119.719 235.656 119.531 236.046 119.155C236.437 118.778 236.632 118.277 236.632 117.654C236.632 117.042 236.432 116.546 236.033 116.166C235.633 115.787 235.117 115.597 234.483 115.597C233.855 115.597 233.342 115.784 232.942 116.157C232.543 116.532 232.343 117.018 232.343 117.619ZM232.431 112.362C232.431 112.946 232.623 113.424 233.007 113.794C233.392 114.166 233.884 114.351 234.481 114.351C235.085 114.351 235.58 114.165 235.965 113.79C236.349 113.415 236.541 112.934 236.541 112.344C236.541 111.777 236.349 111.31 235.965 110.941C235.58 110.572 235.085 110.389 234.481 110.389C233.877 110.389 233.384 110.572 233.003 110.941C232.621 111.31 232.431 111.784 232.431 112.362Z" fill="#C1C1C1"/>
    <path d="M243.024 157.222H219.624C214.947 157.222 211.157 153.421 211.157 148.733V145.206C211.157 140.516 214.949 136.716 219.624 136.716H243.024C247.701 136.716 251.49 140.518 251.49 145.206V148.733C251.49 153.422 247.699 157.222 243.024 157.222Z" fill="#EA5B44"/>
    <path opacity="0.18" d="M242.539 166H151.247C139.133 147.082 126.602 120.85 116.229 92.287C115.97 91.5752 115.713 90.8604 115.457 90.1456V90.1441C115.132 89.2336 114.808 88.3215 114.485 87.4079C114.408 87.1878 114.331 86.9693 114.254 86.7477V86.7462C114.192 86.5686 114.13 86.3896 114.068 86.2105C113.716 85.2074 113.37 84.1997 113.026 83.192C110.459 75.6677 108.057 68.0235 105.861 60.3429C105.574 59.3337 105.289 58.323 105.008 57.3123C103.945 53.4986 102.937 49.6803 101.987 45.865C101.655 44.5341 101.331 43.2031 101.014 41.8737C97.6083 27.6067 95.0474 13.4627 93.6172 0H169.984C169.341 24.9342 179.037 57.3745 192.411 87.4079C193.139 89.0424 193.877 90.6692 194.625 92.287C202.126 108.51 210.612 123.856 219.001 136.716C224.153 144.614 229.269 151.574 234.097 157.222C237.036 160.661 239.869 163.616 242.539 166Z" fill="#8B97A7"/>
</svg>
