<svg width="19" height="13" viewBox="0 0 19 13" fill="none" xmlns="http://www.w3.org/2000/svg">
    <g clip-path="url(#clip0_496_3967)">
        <path d="M18.7289 13H0.271473C0.121614 13 0 12.8613 0 12.6904V9.53336C0 9.38618 0.0906219 9.25958 0.217336 9.23005C1.5394 8.92405 2.39383 7.45356 2.1251 5.94549C1.92974 4.84944 1.17848 3.99274 0.217336 3.76995C0.0906219 3.74042 0 3.61382 0 3.46664V0.309577C0 0.138683 0.121614 0 0.271473 0H18.7289C18.8788 0 19.0004 0.138683 19.0004 0.309577V3.46664C19.0004 3.61382 18.9098 3.74042 18.7831 3.76995C17.461 4.07595 16.6066 5.54644 16.8753 7.05451C17.0707 8.151 17.8219 9.00771 18.7831 9.23005C18.9094 9.25958 19.0004 9.38618 19.0004 9.53336V12.6904C19 12.8618 18.8788 13 18.7289 13ZM0.542947 12.3813H18.4574V9.77673C16.8706 9.26494 15.9479 7.38332 16.3967 5.57418C16.6787 4.43563 17.459 3.54627 18.4574 3.22416V0.619154H0.542947V3.22372C2.12981 3.7355 3.05251 5.61712 2.60371 7.42627C2.32125 8.56482 1.54136 9.45418 0.542947 9.77628V12.3813Z" fill="#8B97A7"/>
        <path d="M13.5718 1.74473C13.4219 1.74473 13.3003 1.60604 13.3003 1.43515V0.309577C13.3003 0.138683 13.4219 0 13.5718 0C13.7216 0 13.8432 0.138683 13.8432 0.309577V1.43515C13.8428 1.60604 13.7216 1.74473 13.5718 1.74473Z" fill="#8B97A7"/>
        <path d="M13.5718 4.55824C13.4219 4.55824 13.3003 4.41956 13.3003 4.24867V3.12354C13.3003 2.95265 13.4219 2.81396 13.5718 2.81396C13.7216 2.81396 13.8432 2.95265 13.8432 3.12354V4.24911C13.8428 4.42001 13.7216 4.55824 13.5718 4.55824Z" fill="#8B97A7"/>
        <path d="M13.5718 7.37217C13.4219 7.37217 13.3003 7.23348 13.3003 7.06259V5.93702C13.3003 5.76613 13.4219 5.62744 13.5718 5.62744C13.7216 5.62744 13.8432 5.76613 13.8432 5.93702V7.06259C13.8428 7.23393 13.7212 7.37217 13.5718 7.37217Z" fill="#8B97A7"/>
        <path d="M13.5718 10.1861C13.4219 10.1861 13.3003 10.0474 13.3003 9.87656V8.75098C13.3003 8.58009 13.4219 8.44141 13.5718 8.44141C13.7216 8.44141 13.8432 8.58009 13.8432 8.75098V9.87656C13.8428 10.0479 13.7216 10.1861 13.5718 10.1861Z" fill="#8B97A7"/>
        <path d="M13.5718 13.0001C13.4219 13.0001 13.3003 12.8614 13.3003 12.6905V11.5649C13.3003 11.3941 13.4219 11.2554 13.5718 11.2554C13.7216 11.2554 13.8432 11.3941 13.8432 11.5649V12.6905C13.8428 12.8619 13.7216 13.0001 13.5718 13.0001Z" fill="#8B97A7"/>
        <path d="M5.13817 9.7634C4.98831 9.7634 4.8667 9.62472 4.8667 9.45382C4.8667 9.37195 4.89534 9.29322 4.94634 9.23506L9.97644 3.49581C10.0804 3.37278 10.2522 3.36965 10.3601 3.4882C10.468 3.60675 10.4707 3.8027 10.3668 3.92572C10.3644 3.92841 10.3625 3.93065 10.3601 3.93333L5.33001 9.67303C5.27901 9.73074 5.20996 9.7634 5.13817 9.7634Z" fill="#8B97A7"/>
        <path d="M9.33192 9.91083C8.63951 9.91083 8.07812 9.27065 8.07812 8.48105C8.07812 7.69145 8.63951 7.05127 9.33192 7.05127C10.0243 7.05127 10.5857 7.69145 10.5857 8.48105C10.5845 9.2702 10.0239 9.90949 9.33192 9.91083ZM9.33192 7.66998C8.93923 7.66998 8.62107 8.03279 8.62107 8.4806C8.62107 8.92842 8.93923 9.29123 9.33192 9.29123C9.72462 9.29123 10.0428 8.92842 10.0428 8.48105C10.0424 8.03324 9.72462 7.67042 9.33192 7.66998Z" fill="#8B97A7"/>
        <path d="M5.86806 5.92987C5.17564 5.92987 4.61426 5.28969 4.61426 4.50009C4.61426 3.71049 5.17564 3.07031 5.86806 3.07031C6.56047 3.07031 7.12146 3.71005 7.12186 4.49965C7.12107 5.2888 6.56008 5.92853 5.86806 5.92987ZM5.86806 3.68902C5.47536 3.68902 5.1572 4.05183 5.1572 4.49965C5.1572 4.94746 5.47536 5.31027 5.86806 5.31027C6.26075 5.31027 6.57891 4.94746 6.57891 4.49965C6.57852 4.05228 6.26036 3.68947 5.86806 3.68902Z" fill="#8B97A7"/>
    </g>
    <defs>
        <clipPath id="clip0_496_3967">
            <rect width="19" height="13" fill="white"/>
        </clipPath>
    </defs>
</svg>
