<svg width="10" height="11" viewBox="0 0 10 11" fill="none" xmlns="http://www.w3.org/2000/svg">
    <path d="M6.49315 5.6955C6.60889 5.66062 6.87997 5.57883 7.00593 5.19303L7.26548 4.39809L7.36991 4.43502C7.41777 4.45201 7.4702 4.42505 7.4863 4.37544L7.62554 3.94909C7.64185 3.89925 7.61596 3.84488 7.5681 3.82789L4.20315 2.6365C4.15529 2.61951 4.10285 2.64647 4.08676 2.69631L3.94752 3.12266C3.9312 3.1725 3.95709 3.22687 4.00495 3.24386L4.10938 3.28079L3.84505 4.09022C3.72017 4.4724 3.80284 4.6013 3.95949 4.79658L4.64044 5.64566L4.56451 5.8781C4.30388 5.937 3.62314 6.0915 3.53133 6.11914C3.41559 6.15402 3.14452 6.23558 3.01855 6.62161L2.79512 7.30599L2.69069 7.26907C2.64283 7.25208 2.5904 7.27904 2.5743 7.32888L2.43506 7.75523C2.41875 7.80507 2.44464 7.85944 2.4925 7.87643L5.85745 9.06781C5.9051 9.08481 5.95753 9.05785 5.97384 9.00801L6.11308 8.58166C6.1294 8.53182 6.10351 8.47722 6.05565 8.46045L5.95122 8.42353L6.17944 7.72464C6.3041 7.34269 6.22164 7.21356 6.06522 7.01828L5.38426 6.1692L5.46019 5.93677C5.72061 5.87764 6.40134 5.72337 6.49315 5.6955ZM5.07098 6.31532L5.81155 7.23848C5.86833 7.30939 5.89835 7.3479 5.90662 7.38347C5.91641 7.42606 5.90336 7.50127 5.86659 7.61364L5.63837 8.31252L3.10775 7.41655L3.33118 6.73216C3.40167 6.51604 3.52959 6.47753 3.62292 6.44944C3.69602 6.42746 4.32237 6.28451 4.7255 6.19367C4.78207 6.18098 4.82841 6.13817 4.8469 6.08085L4.98265 5.66469C5.00115 5.60783 4.99005 5.54508 4.95307 5.49909L4.2149 4.57865L4.21272 4.5757C4.15594 4.5048 4.12592 4.46628 4.11765 4.43072C4.10786 4.38813 4.12091 4.31291 4.15768 4.20055L4.42201 3.39134L6.95263 4.28731L6.69309 5.08225C6.6226 5.29837 6.49468 5.33689 6.40134 5.36498C6.32846 5.38695 5.70212 5.53013 5.29877 5.62074C5.2422 5.63343 5.19586 5.67625 5.17715 5.73356L5.0414 6.14949C5.0229 6.20658 5.03422 6.26934 5.07098 6.31532Z" fill="#F48981"/>
    <path d="M7.07016 9.59608C6.99641 9.63958 6.92005 9.68149 6.8439 9.72C6.8315 9.72634 6.81975 9.73314 6.80822 9.74061C6.79604 9.74514 6.78386 9.75013 6.77167 9.75602C6.44077 9.91664 6.09594 10.0297 5.74045 10.0954C5.73589 10.0961 5.73132 10.0963 5.72675 10.0972C5.64299 10.1126 5.55771 10.1255 5.47329 10.1355C5.47242 10.1357 5.47155 10.1359 5.47047 10.1359C5.31557 10.1538 5.15893 10.1629 5.00076 10.1629C3.17633 10.1629 1.62036 8.94386 1.04384 7.24706C1.03514 7.22123 1.02643 7.19541 1.01817 7.16936C0.880017 6.73666 0.80496 6.27429 0.80496 5.79379C0.80496 5.31239 0.880452 4.84888 1.01904 4.41528C1.02208 4.40576 1.02491 4.39648 1.02796 4.38696C1.03622 4.36181 1.04493 4.33667 1.05363 4.31152C1.05776 4.29974 1.06189 4.28796 1.06603 4.27641C1.54531 2.93369 2.64114 1.90066 3.99326 1.55246C3.99413 1.55223 3.995 1.55223 3.99587 1.55201C4.01588 1.5468 4.03611 1.54181 4.05613 1.53706C4.05831 1.5366 4.06048 1.5357 4.06266 1.53502C4.35766 1.46456 4.66442 1.42673 4.97922 1.42514L4.98292 1.87438C4.98401 2.01393 5.06864 2.05403 5.17067 1.96409L6.08202 1.15986C6.18405 1.0697 6.18296 0.923579 6.07941 0.835227L5.15544 0.0468588C5.05189 -0.0414928 4.96791 0.000191075 4.96922 0.139741L4.97291 0.588069C3.64799 0.595771 2.40357 1.1363 1.4659 2.1127C1.37344 2.20898 1.28533 2.30821 1.20113 2.41038C1.2007 2.41106 1.20004 2.41151 1.19961 2.41196C1.19656 2.41581 1.19352 2.41967 1.19047 2.42329C0.452083 3.32493 0.0358969 4.44903 0.00326335 5.64133C0.00239313 5.65061 0.0015229 5.6599 0.00130534 5.66919C0.000435114 5.70906 0 5.74961 0 5.78949C0 5.85496 0.00130534 5.92156 0.00369847 5.98703C0.00391602 5.99473 0.00500381 6.00221 0.00565648 6.00968C0.0478625 7.09618 0.408789 8.12333 1.04166 8.97422C1.04384 8.97717 1.04558 8.98034 1.04775 8.98328C1.10954 9.06642 1.17502 9.14866 1.24181 9.22795C1.24617 9.23316 1.25095 9.23746 1.2553 9.24222C1.32296 9.32174 1.3928 9.39944 1.46568 9.47533C2.20798 10.2483 3.14283 10.7483 4.15751 10.9268C4.16056 10.9275 4.16382 10.9279 4.16687 10.9286C4.16926 10.9291 4.17143 10.9291 4.17383 10.9295C4.4449 10.9762 4.72142 11.0004 5.00141 11.0004C5.7385 11.0004 6.4486 10.8371 7.11172 10.5152C7.12607 10.5081 7.13956 10.5002 7.15262 10.4918C7.16741 10.4866 7.18199 10.4803 7.19656 10.4728C7.2875 10.4266 7.37844 10.3767 7.46655 10.3249C7.65974 10.2109 7.72784 9.95538 7.6184 9.75421C7.50854 9.55304 7.26335 9.48236 7.07016 9.59608Z" fill="#F48981"/>
    <path d="M8.48492 3.35665C8.56259 3.47695 8.68964 3.54174 8.81887 3.54174C8.89589 3.54174 8.97399 3.51863 9.04274 3.4706C9.22701 3.3417 9.27596 3.08163 9.15217 2.88952C9.09561 2.80207 9.03578 2.71508 8.97421 2.63149C8.83932 2.44776 8.58696 2.41287 8.41074 2.55333C8.2343 2.69379 8.20079 2.95658 8.33568 3.1403C8.38746 3.21076 8.4375 3.28348 8.48492 3.35665Z" fill="#F48981"/>
    <path d="M8.99589 4.45628C9.02178 4.54033 9.04549 4.62664 9.06659 4.7125C9.11293 4.90189 9.27654 5.02785 9.45602 5.02785C9.48887 5.02785 9.52238 5.02354 9.55566 5.01471C9.77083 4.95762 9.90093 4.72972 9.8461 4.50567C9.82108 4.4035 9.7928 4.30087 9.76191 4.20074C9.69425 3.98054 9.46799 3.85911 9.25652 3.9298C9.04462 4.00025 8.92801 4.23608 8.99589 4.45628Z" fill="#F48981"/>
    <path d="M8.7396 8.61177C8.57165 8.46066 8.31776 8.47969 8.17243 8.65458C8.11673 8.72164 8.05865 8.78756 7.99925 8.85077C7.84414 9.01614 7.84696 9.2812 8.00578 9.44295C8.0841 9.52247 8.18548 9.56211 8.28665 9.56211C8.39107 9.56211 8.4955 9.51997 8.57426 9.43593C8.64496 9.36071 8.71436 9.2821 8.7805 9.20236C8.92605 9.02747 8.90755 8.7631 8.7396 8.61177Z" fill="#F48981"/>
    <path d="M9.61014 5.52174C9.3878 5.51472 9.20287 5.69663 9.19635 5.92771C9.19395 6.01628 9.18851 6.10577 9.1809 6.19367C9.16067 6.42383 9.3234 6.62772 9.54444 6.64879C9.55684 6.64992 9.56924 6.6506 9.58164 6.6506C9.78701 6.6506 9.96236 6.48749 9.98151 6.27024C9.99086 6.16512 9.99696 6.05842 10 5.95263C10.0065 5.72155 9.83205 5.52854 9.61014 5.52174Z" fill="#F48981"/>
    <path d="M9.43087 7.14512C9.22397 7.06085 8.99075 7.16709 8.90982 7.38231C8.87893 7.46477 8.84499 7.54723 8.80931 7.62766C8.71598 7.83743 8.80365 8.08618 9.00511 8.18359C9.05993 8.2101 9.11737 8.22256 9.17393 8.22256C9.32579 8.22256 9.4709 8.13262 9.539 7.9797C9.58164 7.8841 9.62188 7.78578 9.65865 7.68769C9.73958 7.47247 9.63755 7.22939 9.43087 7.14512Z" fill="#F48981"/>
    <path d="M8.06192 2.19607C8.19419 2.01031 8.15656 1.74797 7.97816 1.61046C7.89701 1.54771 7.8126 1.487 7.72775 1.42945C7.54152 1.3035 7.29264 1.35832 7.17146 1.55224C7.0505 1.74616 7.10314 2.00532 7.28937 2.13151C7.36073 2.17976 7.43144 2.23096 7.49975 2.28352C7.57176 2.33902 7.65552 2.36575 7.73863 2.36575C7.86155 2.36553 7.98316 2.30685 8.06192 2.19607Z" fill="#F48981"/>
</svg>
