<svg width="15" height="15" viewBox="0 0 15 15" fill="none" xmlns="http://www.w3.org/2000/svg">
    <g clip-path="url(#clip0_13_881)">
        <path d="M15.0001 10.0167H11.1304" stroke="#344868" stroke-width="0.5" stroke-miterlimit="10"/>
        <path d="M11.2261 10.0168C11.4752 10.2538 11.5949 10.728 11.6045 11.0517C11.2596 10.614 10.8142 10.2311 10.2778 10.0168C10.819 9.8116 11.2453 9.40582 11.6045 8.98181C11.5757 9.33288 11.4847 9.75689 11.2261 10.0168Z" fill="#344868"/>
        <path d="M10.2778 12.9847H14.1476" stroke="#344868" stroke-width="0.5" stroke-miterlimit="10"/>
        <path d="M14.0517 12.9848C13.8027 12.7477 13.6829 12.2735 13.6733 11.9498C14.0182 12.3875 14.4636 12.7705 15 12.9848C14.4588 13.19 14.0325 13.5957 13.6733 14.0197C13.7021 13.6687 13.7883 13.2447 14.0517 12.9848Z" fill="#344868"/>
        <path d="M4.1764 2.77204C4.98049 2.77204 5.63234 2.15149 5.63234 1.38602C5.63234 0.620541 4.98049 0 4.1764 0C3.37231 0 2.72046 0.620541 2.72046 1.38602C2.72046 2.15149 3.37231 2.77204 4.1764 2.77204Z" fill="#344868"/>
        <path d="M1.53271 14.8085L3.39095 7.95593H4.77026L6.2262 9.28268V14.8085" stroke="#344868" stroke-width="1.5" stroke-miterlimit="10"/>
        <path d="M5.60837 3.26904H2.74438V7.58667H5.60837V3.26904Z" fill="#344868"/>
        <path d="M5.10547 3.87537L9.71754 7.34497" stroke="#344868" stroke-width="1.52" stroke-miterlimit="10"/>
        <path d="M3.54411 4.0669C3.48185 4.03954 1.61403 4.08058 1.61403 4.08058C1.61403 4.08058 1.23568 4.15352 1.11116 4.26751C0.584338 4.76903 0.919587 6.921 0.919587 6.921" stroke="#344868" stroke-width="1.52" stroke-miterlimit="10"/>
    </g>
    <defs>
        <clipPath id="clip0_13_881">
            <rect width="15" height="15" fill="white"/>
        </clipPath>
    </defs>
</svg>
