<svg width="47" height="41" viewBox="0 0 47 41" fill="none" xmlns="http://www.w3.org/2000/svg">
    <g clip-path="url(#clip0_469_3178)">
        <path d="M40.8313 28.6243H40.5801L37.7972 22.1085C38.2684 22.3166 38.7772 22.4238 39.2923 22.4365C39.7195 22.4365 40.065 22.0895 40.065 21.6606V15.4728C40.065 15.0438 39.7195 14.6969 39.2923 14.6969C37.6465 14.7032 36.1891 15.7629 35.6615 17.3272C35.2029 16.6838 34.4993 16.2612 33.7204 16.1603C33.2304 16.0972 32.7342 16.1288 32.2567 16.2549H31.5846C30.2843 16.2549 29.7064 15.4791 28.7955 14.2175L28.3432 13.5742C28.8081 13.5489 29.2604 13.4038 29.6498 13.1515C30.2529 12.7163 30.6549 12.054 30.768 11.316C31.2768 11.0258 31.6411 10.5402 31.7856 9.97246C31.8547 9.52462 31.6914 9.07046 31.3647 8.75508C31.0507 8.21262 30.8748 7.60077 30.8622 6.97631C31.2768 6.95108 31.5972 6.60415 31.5846 6.18785C31.5846 2.76908 28.8269 0 25.4222 0C25.3908 0 25.3657 0 25.3343 0C22.0049 0.0630769 19.3226 2.76277 19.2535 6.10585C19.2221 7.76477 19.8629 9.36061 21.025 10.5402C21.1946 10.7105 21.3768 10.8682 21.5652 11.0195C18.594 11.7449 17.0298 14.5455 16.2257 16.974C15.7672 16.5072 15.139 16.2486 14.4857 16.2486H6.30687C5.4714 16.2486 4.69246 16.6712 4.24018 17.3777C4.00775 17.7372 4.10826 18.2166 4.46632 18.45C4.82438 18.6834 5.30179 18.5825 5.53422 18.2229C5.70382 17.958 5.99278 17.8003 6.30687 17.8066H7.70142V20.1278C7.70142 20.5568 8.04691 20.9037 8.47407 20.9037H12.3248C12.7519 20.9037 13.0974 20.5568 13.0974 20.1278V17.8003H14.492C15.0008 17.8003 15.4091 18.2103 15.4091 18.7212V24.6252C15.4028 25.1298 14.9945 25.5398 14.492 25.5398H6.30687C5.8483 25.5525 5.45883 25.2182 5.38973 24.764H6.92876C7.35592 24.764 7.70142 24.4171 7.70142 23.9882C7.70142 23.5592 7.35592 23.2123 6.92876 23.2123H5.38973V21.6669H6.16239C6.58955 21.6669 6.93504 21.32 6.93504 20.8911C6.93504 20.4622 6.58955 20.1152 6.16239 20.1152H2.31168C1.88452 20.1152 1.53903 20.4622 1.53903 20.8911C1.53903 21.32 1.88452 21.6669 2.31168 21.6669H3.85071V23.2123H0.772654C0.345496 23.206 0 23.5529 0 23.9818C0 24.4108 0.345496 24.7577 0.772654 24.7577H3.85699C3.93237 26.0571 5.00027 27.0789 6.30059 27.0789H10.1513C9.79324 27.4322 9.49171 27.8295 9.25301 28.2711C8.2228 30.2958 7.69513 32.5414 7.71398 34.8185C7.71398 35.2474 8.05948 35.5943 8.48663 35.5943H10.8486C11.3009 38.9815 14.3978 41.3658 17.771 40.9117C20.5287 40.5458 22.7022 38.3634 23.0666 35.5943H34.7318C35.1589 38.9878 38.237 41.3911 41.6165 40.9622C44.9961 40.5332 47.3832 37.4425 46.9623 34.0489C46.5603 30.9392 43.9408 28.618 40.8313 28.6243ZM11.5584 19.3394H9.24673V17.794H11.5584V19.3394ZM38.5196 16.3748V20.7523C37.3135 20.3297 36.6854 19.0051 37.1063 17.794C37.3387 17.1317 37.8601 16.6082 38.5196 16.3748ZM33.4943 17.6868C34.1161 17.7814 34.6061 18.2545 34.7255 18.8726L34.9265 19.3457C33.8523 19.9008 32.6588 20.1657 31.4527 20.1215C31.2328 19.1754 31.7102 18.204 32.596 17.8003C32.8849 17.7057 33.1927 17.6742 33.4943 17.6994V17.6868ZM29.7001 10.1365C29.4362 10.2689 29.2729 10.5402 29.2792 10.8303C29.2666 11.2214 29.0907 11.5935 28.7955 11.8522C28.3558 12.1486 27.5392 12.0792 26.4838 11.6566C26.4273 11.6503 26.3708 11.6503 26.3142 11.6566L26.2011 11.5557V8.59108C26.2011 7.68908 26.9298 6.95738 27.8281 6.95738H29.2855C29.3106 7.96031 29.6247 8.93169 30.1838 9.758C30.0456 9.90938 29.8822 10.0355 29.7064 10.1365H29.7001ZM20.7988 6.11846C20.8805 3.62692 22.8718 1.62738 25.3531 1.54538H25.4222C27.6774 1.54538 29.6059 3.17908 29.9828 5.412H27.8156C26.0692 5.41831 24.6558 6.83754 24.6496 8.59108V10.7672C22.4007 10.3888 20.7674 8.41446 20.7988 6.12477V6.11846ZM23.1105 12.3757C25.6295 12.3757 26.5529 13.7003 27.5329 15.088C28.2427 16.1098 29.0719 17.22 30.4602 17.6174C30.0267 18.3238 29.8257 19.1565 29.8948 19.9828C27.96 19.5602 26.2954 18.3365 25.3091 16.6082C25.1458 16.2108 24.6998 16.0278 24.3041 16.1855C23.9083 16.3495 23.7261 16.7974 23.8832 17.1948C23.9083 17.2578 23.946 17.3209 23.99 17.3777C24.2664 17.8508 24.5867 18.2923 24.9448 18.7086L24.8757 18.7528C24.1596 19.5791 23.6508 20.5757 23.4058 21.648H16.9481V20.8722C17.0047 20.418 17.8778 12.3757 23.1105 12.3757ZM16.9481 24.6063V23.206H23.8832C24.0402 23.206 27.7339 23.2502 27.7339 27.0726V30.9392H24.6496V29.3938C24.7249 27.3375 23.1294 25.6029 21.0815 25.5272C20.9873 25.5209 20.8931 25.5209 20.7988 25.5272H16.7723C16.8916 25.2371 16.9481 24.9217 16.9481 24.6063ZM16.9481 39.4546C14.693 39.4546 12.7708 37.8209 12.3939 35.588H13.9706C14.4166 37.2343 16.1127 38.212 17.7522 37.7642C18.8075 37.474 19.6304 36.6477 19.9194 35.588H21.4961C21.1255 37.8146 19.2033 39.4483 16.9481 39.4546ZM15.6227 35.5817H18.2736C17.8401 36.3134 16.8916 36.5594 16.1629 36.1242C15.9431 35.9917 15.7546 35.8088 15.6227 35.5817ZM9.24673 34.0363C9.34723 32.2575 9.82465 30.5166 10.6476 28.9397C11.2757 27.7728 12.4944 27.0537 13.8136 27.0726H20.7988C22.0112 27.0095 23.0414 27.9368 23.1105 29.1542C23.1168 29.2362 23.1168 29.3118 23.1105 29.3938V31.7151C23.1105 32.554 23.3806 33.3677 23.8832 34.0363H9.24673ZM26.9612 34.0363C25.9813 34.0363 25.1144 33.4118 24.7878 32.4909H28.5003C29.298 32.4405 29.989 33.046 30.0393 33.8471C30.0393 33.8912 30.0456 33.9354 30.0393 33.9795C29.7817 34.0111 29.5242 34.03 29.2666 34.0363H26.9612ZM31.8987 33.1343C31.7856 33.2605 31.66 33.374 31.5218 33.4686C31.3459 32.2702 30.4539 31.3051 29.2729 31.0528V27.0789C29.4174 24.4612 27.5517 22.1652 24.9762 21.7805C25.1709 21.0866 25.5102 20.4432 25.9687 19.8882C25.9876 19.8629 26.0064 19.8314 26.0253 19.8062C27.2188 20.7775 28.6573 21.4083 30.1838 21.6165L32.3573 31.1032C32.4766 31.8034 32.3133 32.5351 31.8987 33.1343ZM33.8963 30.7752L31.7793 21.6606C33.0859 21.6732 34.3737 21.3768 35.5358 20.7965L39.1729 29.3055L35.8122 34.0426H33.1236C33.8083 33.0965 34.0847 31.9232 33.8963 30.7752ZM40.8313 34.0363H39.5059C39.933 33.2983 40.8753 33.0397 41.6103 33.4686C42.3452 33.8975 42.6028 34.8437 42.1756 35.5817C41.7485 36.3197 40.8062 36.5783 40.0712 36.1494C39.8388 36.0106 39.6441 35.8214 39.5059 35.5817H40.8313C41.2585 35.5817 41.604 35.2348 41.604 34.8058C41.5977 34.3832 41.2585 34.0363 40.8313 34.0363ZM37.703 34.0363L37.9731 33.6578C37.9292 33.784 37.8852 33.9102 37.8601 34.0363H37.703ZM40.8313 39.4546C38.5762 39.4546 36.654 37.8209 36.2771 35.588H37.8538C38.2809 37.2406 39.9644 38.2372 41.6103 37.8083C43.2561 37.3794 44.2486 35.6889 43.8214 34.0363C43.3943 32.3837 41.7108 31.3871 40.065 31.816C39.5938 31.9358 39.1604 32.1692 38.796 32.4972L40.4356 30.176C40.5675 30.176 40.6994 30.176 40.8313 30.176C43.3817 30.176 45.4547 32.2512 45.4547 34.8185C45.4547 37.3857 43.3817 39.4546 40.8313 39.4546Z" fill="#8B97A7"/>
    </g>
    <defs>
        <clipPath id="clip0_469_3178">
            <rect width="47" height="41" fill="white"/>
        </clipPath>
    </defs>
</svg>
