<svg width="23" height="30" viewBox="0 0 23 30" fill="none" xmlns="http://www.w3.org/2000/svg">
    <g clip-path="url(#clip0_1265_8922)">
        <path d="M16.3938 11.8092C14.6246 12.2563 12.7846 12.39 10.9693 12.2035C10.6721 12.1718 10.4598 11.9078 10.4916 11.6156C10.5235 11.32 10.7889 11.1088 11.0826 11.1405C12.774 11.3164 14.483 11.1933 16.132 10.7744C16.4221 10.704 16.7123 10.8835 16.783 11.1721C16.8467 11.4502 16.6769 11.7353 16.3938 11.8092ZM12.1087 25.5016C11.8115 25.5157 11.5815 25.7656 11.5956 26.0613C11.6063 26.3393 11.8327 26.5611 12.1087 26.5752C12.406 26.5752 12.6466 26.3358 12.6466 26.0401C12.6466 25.7409 12.406 25.4981 12.1087 25.5016C12.1087 25.4981 12.1087 25.4981 12.1087 25.5016ZM12.1087 27.3143C11.8115 27.3249 11.578 27.5713 11.5886 27.867C11.5992 28.1485 11.8256 28.3773 12.1087 28.3879C12.406 28.3879 12.6466 28.1485 12.6466 27.8529C12.6466 27.5537 12.406 27.3143 12.1087 27.3143ZM22.2853 28.6202C22.4552 29.1869 22.1332 29.7853 21.56 29.9543C21.4609 29.9859 21.3547 30 21.2486 30H19.3909C19.0936 29.9965 18.8566 29.7501 18.8601 29.4544C18.8636 29.1658 19.1007 28.93 19.3909 28.9264H21.2486L20.049 24.9138C19.858 24.2767 19.3307 23.7944 18.6761 23.6572C18.6761 23.6572 15.1836 22.918 15.127 22.8969C14.6316 23.5762 13.8992 24.0514 13.0712 24.2309C13.0676 24.2344 10.888 24.9595 10.8844 24.9595C10.6226 25.0475 10.4456 25.2904 10.4456 25.565V28.9229H17.236C17.5332 28.9264 17.7703 29.1693 17.7667 29.465C17.7632 29.7571 17.5261 29.9895 17.236 29.993H3.7898C3.1918 29.9895 2.71057 29.5037 2.71411 28.9053C2.71411 28.8068 2.72826 28.7082 2.75657 28.6132L3.96319 24.6005C4.26749 23.5868 5.10611 22.8159 6.14642 22.6012L9.51857 21.8937C9.81934 21.8339 10.0352 21.5699 10.0352 21.2672V20.271C9.44073 19.8839 8.87103 19.4579 8.33672 18.9898C8.11734 18.7892 8.10319 18.4513 8.30488 18.233C8.49949 18.0218 8.82857 18.0007 9.05149 18.1873C12.1972 20.8694 13.142 20.6371 16.2735 17.9374C16.4823 17.7578 16.6167 17.5079 16.6521 17.2369L17.0095 13.8367C14.0832 14.7167 10.9587 14.7131 8.03596 13.8226L8.31903 16.5752C8.3438 16.8708 8.12796 17.1313 7.83072 17.1559C7.54057 17.1806 7.28226 16.9729 7.24688 16.6843L6.90365 13.3228C6.56749 13.0342 6.35519 12.6294 6.30919 12.1894C-1.36574 13.4988 -1.90712 2.75608 3.96672 4.02324C5.56611 4.51251 7.26103 4.58994 8.90288 4.25907C11.026 0.855343 13.5913 -0.00350913 16.8963 1.07609e-05C17.1935 0.0140903 17.4235 0.267522 17.4058 0.563193C17.3916 0.851824 17.1475 1.0771 16.8538 1.07006C13.8815 1.07358 11.6027 1.81627 9.73088 4.98065C9.39826 5.58607 9.16826 6.24429 9.04796 6.92363C8.99488 7.21578 8.71534 7.40937 8.42519 7.35658C7.56534 7.12426 8.20934 6.01198 8.34734 5.44176C6.7798 5.63183 5.19103 5.49808 3.67657 5.05105C2.84503 4.78706 1.93565 5.10737 1.45442 5.83598C1.09349 6.53644 0.994417 7.33898 1.17134 8.10279C1.4438 10.183 3.36519 11.6156 6.29857 11.1229V10.9821C5.68996 10.711 5.17688 10.264 4.83365 9.69378C4.68149 9.44035 4.76288 9.10948 5.01765 8.95812C5.26888 8.81029 5.59088 8.88421 5.75011 9.12708C7.12303 11.0771 9.00549 9.97537 10.8915 8.43366C11.6806 7.72968 12.6678 7.27914 13.7187 7.13834C13.9063 7.1137 14.0973 7.10314 14.2884 7.10314C14.4972 6.75115 14.6175 6.34989 14.6423 5.94158C14.6246 5.64943 14.844 5.396 15.1376 5.37136C15.4278 5.34672 15.6861 5.55791 15.7144 5.84654C15.7215 6.32877 15.6189 6.80395 15.4101 7.24042C15.8312 7.34954 16.231 7.51849 16.6026 7.74728C17.0307 7.23338 17.2961 6.5998 17.3633 5.93454C17.3492 5.63887 17.5827 5.38896 17.88 5.37488C18.163 5.36432 18.4072 5.57199 18.439 5.85006C18.4496 5.96974 18.4956 6.97291 17.4518 8.40902C17.9047 8.85605 18.2904 9.36995 18.5947 9.92609C19.3272 9.68674 19.9995 9.28547 20.555 8.75045C22.3172 7.11018 22.4092 4.36115 20.7603 2.60825C20.233 2.04859 19.5678 1.63676 18.8283 1.41501C18.5487 1.31645 18.3966 1.01374 18.4956 0.732147C18.8849 -0.351978 21.192 1.47132 21.6201 1.95355C24.465 4.93841 22.6498 9.94369 18.8176 10.9821V12.0239C18.8141 12.5519 18.57 13.0482 18.1524 13.3685C18.0392 14.3893 17.8481 16.3393 17.7349 17.3495C17.6004 18.6413 16.132 19.4579 15.0244 20.2534V21.2637C15.0209 21.5664 15.2332 21.8304 15.534 21.8902L18.9132 22.5977C19.9535 22.8159 20.7921 23.5833 21.0964 24.597L22.2853 28.6202ZM17.2784 12.647C17.5438 12.559 17.7243 12.3126 17.7278 12.0345V10.623C16.6804 8.28231 13.9098 7.23338 11.5921 9.24675C10.5306 10.1654 8.97365 11.2425 7.49811 11.2425C7.45565 11.2425 7.41319 11.2425 7.37072 11.239C7.39903 11.7142 7.20796 12.4534 7.82011 12.6505C10.888 13.6924 14.2141 13.6924 17.2784 12.647ZM10.9198 23.8226C10.5341 23.5762 10.1944 23.2665 9.91488 22.9004C9.85826 22.918 6.36934 23.6607 6.36934 23.6607C5.71472 23.798 5.18749 24.2802 4.99642 24.9173L3.7898 28.9264H9.36996V25.5685C9.36996 24.8328 9.84057 24.1781 10.5447 23.9458L10.9198 23.8226ZM14.2601 22.2668C13.9912 21.855 13.8744 21.3622 13.9346 20.8765C13.0393 21.2848 12.0096 21.2883 11.1109 20.88C11.171 21.3657 11.0543 21.8585 10.7853 22.2668C11.1852 22.837 11.8256 23.189 12.5227 23.2207C13.2198 23.189 13.8603 22.8335 14.2601 22.2668ZM15.6012 26.0859C15.304 26.0859 15.0633 26.3252 15.0633 26.6209C15.0633 26.9166 15.304 27.1559 15.6012 27.1559H17.144C17.4412 27.1524 17.6783 26.9095 17.6747 26.6139C17.6712 26.3252 17.4341 26.0894 17.144 26.0859H15.6012Z" fill="#808A9A"/>
    </g>
    <defs>
        <clipPath id="clip0_1265_8922">
            <rect width="23" height="30" fill="white"/>
        </clipPath>
    </defs>
</svg>
