<svg width="20" height="21" viewBox="0 0 20 21" fill="none" xmlns="http://www.w3.org/2000/svg">
<g clip-path="url(#clip0_129_1845)">
<path d="M10.6689 10.4285L15.1696 16.8662H13.3225L9.64982 11.613V11.6127L9.11061 10.8416L4.82031 4.70465H6.66742L10.1297 9.65738L10.6689 10.4285Z" fill="black"/>
<path d="M17.839 0.77002H2.16104C0.967563 0.77002 0 1.73758 0 2.93106V18.609C0 19.8025 0.967563 20.77 2.16104 20.77H17.839C19.0324 20.77 20 19.8025 20 18.609V2.93106C20 1.73758 19.0324 0.77002 17.839 0.77002ZM12.7566 17.7304L9.0401 12.3214L4.38696 17.7304H3.18435L8.50611 11.5446L3.18435 3.79936H7.24336L10.7627 8.92128L15.1689 3.79936H16.3715L11.2968 9.6983H11.2965L16.8156 17.7304H12.7566Z" fill="black"/>
</g>
<defs>
<clipPath id="clip0_129_1845">
<rect width="20" height="20" fill="white" transform="translate(0 0.77002)"/>
</clipPath>
</defs>
</svg>
