<svg width="12" height="12" viewBox="0 0 12 12" fill="none" xmlns="http://www.w3.org/2000/svg">
    <g clip-path="url(#clip0_1910_5975)">
        <path d="M3.7 3.56C3.7 2.66 4.42 1.94 5.32 1.94C6.22 1.94 6.94 2.66 6.94 3.56C6.94 4.46 6.22 5.18 5.32 5.18C4.42 5.18 3.7 4.46 3.7 3.56ZM5.32 9.02C3.28 9.02 1.62 7.36 1.62 5.32C1.62 3.28 3.28 1.62 5.32 1.62C7.36 1.62 9.02 3.28 9.02 5.32C9.02 5.52 9 5.72 8.96 5.92C9.06 5.96 9.16 6 9.26 6.04C9.3 5.8 9.32 5.56 9.32 5.32C9.32 3.1 7.52 1.3 5.3 1.3C3.08 1.3 1.28 3.1 1.28 5.32C1.28 7.54 3.08 9.34 5.3 9.34C5.54 9.34 5.78 9.32 6.02 9.28C5.98 9.18 5.94 9.08 5.9 8.98C5.72 9 5.52 9.02 5.32 9.02ZM7.94 5.82C7.78 5.64 7.58 5.5 7.34 5.42L6.56 5.16C6.54 5.16 6.52 5.16 6.5 5.16C6.46 5.16 6.44 5.18 6.4 5.18C5.74 5.62 4.88 5.62 4.24 5.18C4.2 5.14 4.14 5.14 4.08 5.16L3.3 5.42C2.74 5.6 2.36 6.14 2.36 6.74C2.36 6.8 2.34 6.9 2.38 6.96C2.98 8.02 4.1 8.7 5.32 8.7C5.5 8.7 5.66 8.68 5.84 8.66C5.82 8.52 5.8 8.36 5.8 8.22C5.8 6.98 6.72 5.96 7.94 5.82ZM8 8.38C7.94 8.44 7.84 8.44 7.78 8.38L7.42 8.02L7.2 8.26L7.9 8.96L9.24 7.62L9 7.38L8 8.38ZM10.3 8.22C10.3 9.38 9.36 10.3 8.22 10.3C7.08 10.3 6.14 9.36 6.14 8.22C6.14 7.08 7.08 6.14 8.22 6.14C9.36 6.12 10.3 7.06 10.3 8.22ZM9.58 7.48L9.12 7.02C9.06 6.96 8.96 6.96 8.9 7.02L7.9 8.02L7.54 7.66C7.48 7.6 7.38 7.6 7.32 7.66L6.86 8.12C6.8 8.18 6.8 8.28 6.86 8.34L7.78 9.26C7.84 9.32 7.94 9.32 8 9.26L9.58 7.68C9.64 7.66 9.64 7.56 9.58 7.48ZM12 6C12 9.32 9.32 12 6 12C2.68 12 0 9.32 0 6C0 2.68 2.68 0 6 0C9.32 0 12 2.68 12 6ZM11.66 6C11.66 2.88 9.12 0.34 6 0.34C2.88 0.34 0.34 2.88 0.34 6C0.34 9.12 2.88 11.66 6 11.66C9.12 11.66 11.66 9.12 11.66 6Z" fill="#EA5B44"/>
    </g>
    <defs>
        <clipPath id="clip0_1910_5975">
            <rect width="12" height="12" fill="white"/>
        </clipPath>
    </defs>
</svg>
