<svg width="13" height="13" viewBox="0 0 13 13" fill="none" xmlns="http://www.w3.org/2000/svg">
    <g clip-path="url(#clip0_0_1)">
        <path d="M7.10395 5.11733C6.33728 5.31105 5.53995 5.36901 4.75335 5.28817C4.62455 5.27444 4.53255 5.16004 4.54635 5.03344C4.56015 4.90532 4.67515 4.8138 4.80241 4.82753C5.53535 4.90379 6.27595 4.85041 6.99048 4.6689C7.11621 4.63839 7.24195 4.71618 7.27261 4.84126C7.30021 4.96176 7.22661 5.0853 7.10395 5.11733ZM5.24708 11.0507C5.11828 11.0568 5.01861 11.1651 5.02475 11.2932C5.02935 11.4137 5.12748 11.5098 5.24708 11.5159C5.37588 11.5159 5.48015 11.4122 5.48015 11.2841C5.48015 11.1544 5.37588 11.0492 5.24708 11.0507C5.24708 11.0492 5.24708 11.0492 5.24708 11.0507ZM5.24708 11.8362C5.11828 11.8408 5.01708 11.9476 5.02168 12.0757C5.02628 12.1977 5.12441 12.2968 5.24708 12.3014C5.37588 12.3014 5.48015 12.1977 5.48015 12.0696C5.48015 11.9399 5.37588 11.8362 5.24708 11.8362ZM9.65695 12.4021C9.73055 12.6477 9.59101 12.907 9.34261 12.9802C9.29968 12.9939 9.25368 13 9.20768 13H8.40268C8.27388 12.9985 8.17115 12.8917 8.17268 12.7636C8.17421 12.6385 8.27695 12.5363 8.40268 12.5348H9.20768L8.68788 10.796C8.60508 10.5199 8.37661 10.3109 8.09295 10.2514C8.09295 10.2514 6.57955 9.93113 6.55501 9.92198C6.34035 10.2164 6.02295 10.4223 5.66415 10.5001C5.66261 10.5016 4.71808 10.8158 4.71655 10.8158C4.60308 10.8539 4.52641 10.9592 4.52641 11.0781V12.5333H7.46888C7.59768 12.5348 7.70041 12.64 7.69888 12.7682C7.69735 12.8948 7.59461 12.9954 7.46888 12.997H1.64221C1.38308 12.9954 1.17455 12.7849 1.17608 12.5256C1.17608 12.4829 1.18221 12.4402 1.19448 12.399L1.71735 10.6602C1.84921 10.2209 2.21261 9.8869 2.66341 9.79386L4.12468 9.48727C4.25501 9.46134 4.34855 9.34695 4.34855 9.21577V8.78412C4.09095 8.61634 3.84408 8.43178 3.61255 8.22891C3.51748 8.14197 3.51135 7.99555 3.59875 7.90098C3.68308 7.80946 3.82568 7.80031 3.92228 7.88115C5.28541 9.04342 5.69481 8.94275 7.05181 7.77285C7.14228 7.69507 7.20055 7.58677 7.21588 7.46932L7.37075 5.9959C6.10268 6.37722 4.74875 6.37569 3.48221 5.9898L3.60488 7.18257C3.61561 7.31069 3.52208 7.42356 3.39328 7.43424C3.26755 7.44492 3.15561 7.35493 3.14028 7.22985L2.99155 5.77321C2.84588 5.64813 2.75388 5.47273 2.73395 5.28206C-0.591852 5.84947 -0.826452 1.1943 1.71888 1.7434C2.41195 1.95542 3.14641 1.98898 3.85788 1.8456C4.77788 0.370649 5.88955 -0.00152062 7.32168 4.66306e-06C7.45048 0.0061058 7.55015 0.115926 7.54248 0.24405C7.53635 0.369124 7.43055 0.466742 7.30328 0.463691C6.01528 0.465216 5.02781 0.787051 4.21668 2.15828C4.07255 2.42063 3.97288 2.70586 3.92075 3.00024C3.89775 3.12684 3.77661 3.21073 3.65088 3.18785C3.27828 3.08718 3.55735 2.60519 3.61715 2.35809C2.93788 2.44046 2.24941 2.3825 1.59315 2.18879C1.23281 2.07439 0.838748 2.21319 0.630215 2.52893C0.473815 2.83246 0.430881 3.18022 0.507548 3.51121C0.625615 4.41265 1.45821 5.03344 2.72935 4.8199V4.75889C2.46561 4.64145 2.24328 4.44773 2.09455 4.20064C2.02861 4.09082 2.06388 3.94744 2.17428 3.88185C2.28315 3.81779 2.42268 3.84982 2.49168 3.95507C3.08661 4.80008 3.90235 4.32266 4.71961 3.65459C5.06155 3.34953 5.48935 3.15429 5.94475 3.09328C6.02601 3.0826 6.10881 3.07803 6.19161 3.07803C6.28208 2.9255 6.33421 2.75162 6.34495 2.57468C6.33728 2.44809 6.43235 2.33827 6.55961 2.32759C6.68535 2.31691 6.79728 2.40843 6.80955 2.5335C6.81261 2.74247 6.76815 2.94838 6.67768 3.13751C6.86015 3.1848 7.03341 3.25801 7.19441 3.35716C7.37995 3.13446 7.49495 2.85991 7.52408 2.57163C7.51795 2.44351 7.61915 2.33522 7.74795 2.32911C7.87061 2.32454 7.97641 2.41453 7.99021 2.53503C7.99481 2.58689 8.01475 3.02159 7.56241 3.64391C7.75868 3.83762 7.92581 4.06031 8.05768 4.30131C8.37508 4.19759 8.66641 4.02371 8.90715 3.79186C9.67075 3.08108 9.71061 1.88983 8.99608 1.13024C8.76761 0.88772 8.47935 0.709262 8.15888 0.613169C8.03775 0.570461 7.97181 0.439287 8.01475 0.317264C8.18341 -0.152524 9.18315 0.637574 9.36868 0.846538C10.6015 2.13998 9.81488 4.30893 8.15428 4.75889V5.21038C8.15275 5.43917 8.04695 5.65423 7.86601 5.79304C7.81695 6.23537 7.73415 7.08038 7.68508 7.51813C7.62681 8.07791 6.99048 8.43178 6.51055 8.77649V9.21425C6.50901 9.34542 6.60101 9.45982 6.73135 9.48575L8.19568 9.79233C8.64648 9.8869 9.00988 10.2194 9.14175 10.6587L9.65695 12.4021ZM7.48728 5.48035C7.60228 5.44222 7.68048 5.33545 7.68201 5.21495V4.60331C7.22815 3.589 6.02755 3.13446 5.02321 4.00693C4.56321 4.40503 3.88855 4.87176 3.24915 4.87176C3.23075 4.87176 3.21235 4.87176 3.19395 4.87024C3.20621 5.07615 3.12341 5.39646 3.38868 5.48188C4.71808 5.93336 6.15941 5.93336 7.48728 5.48035ZM4.73188 10.3231C4.56475 10.2164 4.41755 10.0821 4.29641 9.9235C4.27188 9.93113 2.76001 10.253 2.76001 10.253C2.47635 10.3125 2.24788 10.5214 2.16508 10.7975L1.64221 12.5348H4.06028V11.0797C4.06028 10.7609 4.26421 10.4772 4.56935 10.3765L4.73188 10.3231ZM6.17935 9.64895C6.06281 9.4705 6.01221 9.25696 6.03828 9.04647C5.65035 9.2234 5.20415 9.22493 4.81468 9.04799C4.84075 9.25848 4.79015 9.47202 4.67361 9.64895C4.84688 9.89605 5.12441 10.0486 5.42648 10.0623C5.72855 10.0486 6.00608 9.89452 6.17935 9.64895ZM6.76048 11.3039C6.63168 11.3039 6.52741 11.4076 6.52741 11.5357C6.52741 11.6639 6.63168 11.7676 6.76048 11.7676H7.42901C7.55781 11.766 7.66055 11.6608 7.65901 11.5327C7.65748 11.4076 7.55475 11.3054 7.42901 11.3039H6.76048Z" fill="#E85840"/>
    </g>
    <path d="M11.4 6.6001H10" stroke="#EA5B44" stroke-width="0.5" stroke-miterlimit="10"/>
    <path d="M10.6 8.2C11.4837 8.2 12.2 7.48366 12.2 6.6C12.2 5.71634 11.4837 5 10.6 5C9.71634 5 9 5.71634 9 6.6C9 7.48366 9.71634 8.2 10.6 8.2Z" stroke="#EA5B44" stroke-width="0.5" stroke-miterlimit="10"/>
    <defs>
        <clipPath id="clip0_0_1">
            <rect width="9.96667" height="13" fill="white"/>
        </clipPath>
    </defs>
</svg>
