<svg width="11" height="12" viewBox="0 0 11 12" fill="none" xmlns="http://www.w3.org/2000/svg">
    <g clip-path="url(#clip0_1908_5588)">
        <path d="M4.28564 0V0.428571H4.71422V1.28571H5.57136V0.428571H5.99993V0H4.28564Z" fill="#485B78"/>
        <path d="M4.28564 0H4.71422V0.428571H4.28564V0Z" fill="#485B78"/>
        <path d="M4.71436 0.428467H5.14293V1.28561H4.71436V0.428467Z" fill="#485B78"/>
        <path d="M5.14289 0.857178C2.78575 0.857178 0.857178 2.78575 0.857178 5.14289V6.00003H2.57146C2.76432 5.74289 3.08575 5.57146 3.42861 5.57146C3.53575 5.57146 3.64289 5.59289 3.75003 5.61432C4.17861 4.82146 5.03575 4.28575 6.00003 4.28575C7.11432 4.28575 8.05718 4.99289 8.42146 6.00003H9.42861V5.14289C9.42861 2.78575 7.50003 0.857178 5.14289 0.857178Z" fill="#F0F0F0"/>
        <path d="M0 9H1.28571V12H0V9Z" fill="#EA5B44"/>
        <path d="M0 9H0.428571V12H0V9Z" fill="#EA5B44"/>
        <path d="M9.19279 10.307L6.08564 10.7142C6.04279 10.7142 5.9785 10.7142 5.93564 10.7142H4.71422C4.4785 10.7142 4.28564 10.5213 4.28564 10.2856L6.08564 9.92132C6.2785 9.87847 6.4285 9.70704 6.4285 9.49275V9.42847H1.28564V11.1428L4.71422 11.8928C4.99279 11.957 5.29279 11.9356 5.57136 11.8713L9.2785 10.757C9.36421 10.7356 9.4285 10.6499 9.4285 10.5428V10.5213C9.4285 10.3928 9.32136 10.307 9.19279 10.307Z" fill="#F0C8A0"/>
        <path d="M9.85714 8.5715H0.428571C0.192857 8.5715 0 8.37864 0 8.14293C0 7.90721 0.192857 7.71436 0.428571 7.71436H9.85714C10.0929 7.71436 10.2857 7.90721 10.2857 8.14293C10.2857 8.37864 10.0929 8.5715 9.85714 8.5715Z" fill="#485B78"/>
        <path d="M0.857143 8.14293C0.857143 7.90721 1.05 7.71436 1.28571 7.71436H0.428571C0.192857 7.71436 0 7.90721 0 8.14293C0 8.37864 0.192857 8.5715 0.428571 8.5715H1.28571C1.05 8.5715 0.857143 8.37864 0.857143 8.14293Z" fill="#485B78"/>
        <path d="M5.57146 0.878606C5.42146 0.857178 5.29289 0.857178 5.14289 0.857178C2.78575 0.857178 0.857178 2.78575 0.857178 5.14289V6.00003H1.71432V5.14289C1.71432 2.91432 3.40718 1.09289 5.57146 0.878606Z" fill="#D2D2D2"/>
        <path d="M8.14289 6.85721C8.14289 5.67864 7.17861 4.71436 6.00003 4.71436C4.82146 4.71436 3.85718 5.67864 3.85718 6.85721C3.85718 7.15721 3.92146 7.45721 4.02861 7.71436H7.95003C8.07861 7.45721 8.14289 7.15721 8.14289 6.85721Z" fill="#FA6450"/>
        <path d="M7.69298 6.64284C7.65012 6.32141 7.52155 6.04284 7.35012 5.80713L6.5144 6.64284H7.69298Z" fill="#BE2814"/>
        <path d="M7.05007 5.50716C6.81436 5.31431 6.53578 5.20716 6.21436 5.16431V6.34288L7.05007 5.50716Z" fill="#BE2814"/>
        <path d="M5.78567 5.16431C5.46424 5.20716 5.18567 5.33574 4.94995 5.50716L5.78567 6.34288V5.16431Z" fill="#BE2814"/>
        <path d="M4.64999 5.80713C4.45713 6.04284 4.34999 6.32141 4.30713 6.64284H5.4857L4.64999 5.80713Z" fill="#BE2814"/>
        <path d="M4.28575 6.85721C4.28575 5.74293 5.14289 4.84293 6.21432 4.73578C6.15003 4.73578 6.06432 4.71436 6.00003 4.71436C4.82146 4.71436 3.85718 5.67864 3.85718 6.85721C3.85718 7.15721 3.92146 7.45721 4.02861 7.71436H4.45718C4.35003 7.45721 4.28575 7.15721 4.28575 6.85721Z" fill="#DC4632"/>
        <path d="M5.4857 7.07153H4.30713C4.32856 7.30725 4.41427 7.52153 4.52141 7.71439H4.84284L5.4857 7.07153Z" fill="#BE2814"/>
        <path d="M5.78573 7.37134L5.44287 7.71419H5.78573V7.37134Z" fill="#BE2814"/>
        <path d="M6.21436 7.37134V7.71419H6.55721L6.21436 7.37134Z" fill="#BE2814"/>
        <path d="M7.69298 7.07153H6.5144L7.15726 7.71439H7.47869C7.58583 7.52153 7.67155 7.30725 7.69298 7.07153Z" fill="#BE2814"/>
        <path d="M4.71425 7.5C4.71425 7.13571 4.43568 6.85714 4.07139 6.85714C4.04997 6.85714 4.04997 6.85714 4.02854 6.85714C4.04997 6.79286 4.07139 6.70714 4.07139 6.64286C4.07139 6.27857 3.79282 6 3.42854 6C3.06425 6 2.78568 6.27857 2.78568 6.64286C2.78568 6.72857 2.80711 6.79286 2.82854 6.85714C2.80711 6.85714 2.80711 6.85714 2.78568 6.85714C2.42139 6.85714 2.14282 7.13571 2.14282 7.5C2.14282 7.58571 2.16425 7.65 2.18568 7.71429H4.67139C4.69282 7.65 4.71425 7.58571 4.71425 7.5Z" fill="#3CC8B4"/>
        <path d="M2.57139 7.5C2.57139 7.13571 2.84997 6.85714 3.21425 6.85714C3.23568 6.85714 3.23568 6.85714 3.25711 6.85714C3.23568 6.79286 3.21425 6.70714 3.21425 6.64286C3.21425 6.36429 3.38568 6.12857 3.64282 6.04286C3.57854 6.02143 3.51425 6 3.42854 6C3.06425 6 2.78568 6.27857 2.78568 6.64286C2.78568 6.72857 2.80711 6.79286 2.82854 6.85714C2.80711 6.85714 2.80711 6.85714 2.78568 6.85714C2.42139 6.85714 2.14282 7.13571 2.14282 7.5C2.14282 7.58571 2.16425 7.65 2.18568 7.71429H2.61425C2.59282 7.65 2.57139 7.58571 2.57139 7.5Z" fill="#1EAA96"/>
    </g>
    <defs>
        <clipPath id="clip0_1908_5588">
            <rect width="10.2857" height="12" fill="white"/>
        </clipPath>
    </defs>
</svg>
