<svg width="12" height="12" viewBox="0 0 12 12" fill="none" xmlns="http://www.w3.org/2000/svg">
    <g clip-path="url(#clip0_1908_5701)">
        <path d="M6.74531 1.90312L6.08906 1.25625C5.82422 0.99375 5.48906 0.813281 5.12344 0.735937L2.67656 0.217969C2.58516 0.189844 2.48906 0.175781 2.39531 0.175781H0.438281C0.292969 0.175781 0.175781 0.292969 0.175781 0.438281V2.55C0.175781 2.69531 0.292969 2.8125 0.438281 2.8125H1.85156C1.98516 2.8125 2.11406 2.85469 2.21953 2.93203L3.88125 4.13203H7.20469L6.74531 1.90312Z" fill="#FFE5C2"/>
        <path d="M6.74531 1.90312L6.08906 1.25625C5.82422 0.99375 5.48906 0.813281 5.12344 0.735937L2.67656 0.217969C2.58516 0.189844 2.48906 0.175781 2.39531 0.175781H1.875C1.97109 0.175781 2.06484 0.189844 2.15625 0.217969L4.60547 0.738281C4.97109 0.815625 5.30625 0.996094 5.57109 1.25859L6.22734 1.90547L6.68672 4.13437H7.20469L6.74531 1.90312Z" fill="#FED2A4"/>
        <path d="M9.89536 10.1111L9.20864 6.15483C9.17349 5.95327 9.15708 5.75171 9.15708 5.5478V3.66577C9.15708 3.3353 8.88989 3.06812 8.55942 3.06812H2.72114C2.39067 3.06812 2.12349 3.3353 2.12349 3.66577V5.5478C2.12349 5.75171 2.10474 5.95562 2.07192 6.15483L1.38286 10.1111C1.22817 11.0064 1.91724 11.8244 2.82427 11.8244H8.45161C9.36099 11.8244 10.05 11.0064 9.89536 10.1111ZM8.11646 5.59702C8.11646 5.73765 8.00161 5.85249 7.86099 5.85249H3.38677C3.24614 5.85249 3.1313 5.73765 3.1313 5.59702V4.4603C3.1313 4.31968 3.24614 4.20483 3.38677 4.20483H7.86099C8.00161 4.20483 8.11646 4.31968 8.11646 4.4603V5.59702Z" fill="#EEF0F2"/>
        <path d="M9.89526 10.1111L9.20854 6.15483C9.17339 5.95327 9.15698 5.75171 9.15698 5.5478V3.66577C9.15698 3.3353 8.88979 3.06812 8.55933 3.06812H7.77417C8.10464 3.06812 8.37183 3.3353 8.37183 3.66577V5.5478C8.37183 5.75171 8.38823 5.95562 8.42339 6.15483L9.11011 10.1111C9.26479 11.0064 8.57573 11.8244 7.6687 11.8244H8.45386C9.36089 11.8244 10.05 11.0041 9.89526 10.1111Z" fill="#D9D9D9"/>
        <path d="M4.31261 4.92896C4.12745 4.92896 3.96339 4.80474 3.91183 4.62661L3.7923 4.20474C3.7173 3.93989 3.91652 3.67505 4.19308 3.67505C4.37823 3.67505 4.5423 3.79927 4.59386 3.97739L4.71339 4.39927C4.78605 4.66645 4.58683 4.92896 4.31261 4.92896Z" fill="#FFE5C2"/>
        <path d="M4.71113 4.40171L4.5916 3.97983C4.54004 3.80171 4.37832 3.67749 4.19082 3.67749C4.09004 3.67749 4.00098 3.71265 3.93066 3.7689C3.99629 3.8228 4.04785 3.89546 4.07129 3.97983L4.19082 4.40171C4.2377 4.57046 4.17441 4.73921 4.0502 4.83999C4.12285 4.89624 4.21191 4.9314 4.31035 4.9314C4.58691 4.92905 4.78613 4.66655 4.71113 4.40171Z" fill="#FED2A4"/>
        <path d="M5.2547 5.20552C5.06954 5.20552 4.90548 5.0813 4.85392 4.90317L4.65704 4.20474C4.58204 3.93989 4.78126 3.67505 5.05782 3.67505C5.24298 3.67505 5.40704 3.79927 5.4586 3.97739L5.65548 4.67583C5.72814 4.94302 5.52892 5.20552 5.2547 5.20552Z" fill="#FFE5C2"/>
        <path d="M5.65322 4.67583L5.45635 3.97739C5.40479 3.79927 5.24307 3.67505 5.05557 3.67505C4.95478 3.67505 4.86572 3.7102 4.79541 3.76645C4.86104 3.82036 4.9126 3.89302 4.93604 3.97739L5.13291 4.67583C5.17979 4.84458 5.1165 5.01333 4.99229 5.11411C5.06494 5.17036 5.154 5.20552 5.25244 5.20552C5.529 5.20552 5.72822 4.94302 5.65322 4.67583Z" fill="#FED2A4"/>
        <path d="M6.11725 5.20552C5.93209 5.20552 5.76803 5.0813 5.71647 4.90317L5.51959 4.20474C5.44459 3.93989 5.64381 3.67505 5.92037 3.67505C6.10553 3.67505 6.26959 3.79927 6.32115 3.97739L6.51803 4.67583C6.59303 4.94302 6.39381 5.20552 6.11725 5.20552Z" fill="#FFE5C2"/>
        <path d="M6.51797 4.67583L6.32109 3.97739C6.26953 3.79927 6.10781 3.67505 5.92031 3.67505C5.81953 3.67505 5.73047 3.7102 5.66016 3.76645C5.72578 3.82036 5.77734 3.89302 5.80078 3.97739L5.99766 4.67583C6.04453 4.84458 5.98125 5.01333 5.85703 5.11411C5.92969 5.17036 6.01875 5.20552 6.11719 5.20552C6.39375 5.20552 6.59297 4.94302 6.51797 4.67583Z" fill="#FED2A4"/>
        <path d="M6.98224 5.20552C6.79708 5.20552 6.63302 5.0813 6.58146 4.90317L6.38458 4.20474C6.30958 3.93989 6.5088 3.67505 6.78536 3.67505C6.97052 3.67505 7.13458 3.79927 7.18614 3.97739L7.38302 4.67583C7.45568 4.94302 7.25646 5.20552 6.98224 5.20552Z" fill="#FFE5C2"/>
        <path d="M7.38052 4.67583L7.18364 3.97739C7.13208 3.79927 6.97036 3.67505 6.78286 3.67505C6.68208 3.67505 6.59302 3.7102 6.52271 3.76645C6.58833 3.82036 6.63989 3.89302 6.66333 3.97739L6.86021 4.67583C6.90708 4.84458 6.8438 5.01333 6.71958 5.11411C6.79224 5.17036 6.8813 5.20552 6.97974 5.20552C7.2563 5.20552 7.45552 4.94302 7.38052 4.67583Z" fill="#FED2A4"/>
        <path d="M6.74521 1.90308C6.89287 2.02964 7.01943 2.17964 7.09443 2.28979L7.62881 3.18511C7.73193 3.35854 7.67568 3.58589 7.4999 3.68901C7.3335 3.78745 7.11787 3.73823 7.01006 3.57886L6.66553 3.06558L5.68115 2.40464L6.2249 1.90308H6.74521Z" fill="#FFE5C2"/>
        <path d="M7.6313 3.18511L7.09692 2.28979C7.02192 2.17964 6.89536 2.02964 6.74771 1.90308H6.22974C6.30239 1.98276 6.53442 2.22417 6.57896 2.28979L7.11333 3.18511C7.20239 3.33276 7.17427 3.51558 7.05708 3.63276C7.17427 3.74995 7.35708 3.77573 7.50239 3.68901C7.67817 3.58589 7.73442 3.36089 7.6313 3.18511Z" fill="#FED2A4"/>
        <path d="M8.81016 9.22988H2.46797C2.4 9.22988 2.34375 9.17363 2.34375 9.10566V8.59004C2.34375 8.52207 2.4 8.46582 2.46797 8.46582H8.80781C8.87578 8.46582 8.93203 8.52207 8.93203 8.59004V9.10566C8.93438 9.17363 8.87812 9.22988 8.81016 9.22988Z" fill="#FFBD86"/>
        <path d="M8.93438 8.59011V9.10573C8.93438 9.1737 8.87812 9.22995 8.81016 9.22995H7.99219C8.06016 9.22995 8.11641 9.1737 8.11641 9.10573V8.59011C8.11641 8.52214 8.06016 8.46589 7.99219 8.46589H8.81016C8.87812 8.46355 8.93438 8.5198 8.93438 8.59011Z" fill="#F6A96C"/>
        <path d="M7.44145 10.9688H3.83677C3.62114 10.9688 3.42661 10.8422 3.33989 10.6477L2.70239 9.22974H8.57817L7.94067 10.6477C7.84927 10.8422 7.65474 10.9688 7.44145 10.9688Z" fill="#FFBD86"/>
        <path d="M8.57588 9.22974L7.93838 10.6477C7.84932 10.8446 7.65479 10.9688 7.4415 10.9688H6.62354C6.83916 10.9688 7.03369 10.8422 7.12041 10.6477L7.75791 9.22974H8.57588Z" fill="#F6A96C"/>
        <path d="M7.44145 6.72437H3.83677C3.62114 6.72437 3.42661 6.85093 3.33989 7.04546L2.70239 8.46343H8.57817L7.94067 7.04546C7.84927 6.85093 7.65474 6.72437 7.44145 6.72437Z" fill="#FFBD86"/>
        <path d="M8.57588 8.46343H7.75791L7.12041 7.04546C7.03135 6.84858 6.83682 6.72437 6.62354 6.72437H7.4415C7.65713 6.72437 7.85166 6.85093 7.93838 7.04546L8.57588 8.46343Z" fill="#F6A96C"/>
        <path d="M4.94067 9.22974H6.33755L6.24145 9.6938C6.21099 9.84849 6.07505 9.95864 5.91802 9.95864H5.3602C5.20317 9.95864 5.06724 9.84849 5.03677 9.6938L4.94067 9.22974Z" fill="#EA5B44"/>
        <path d="M5.86411 9.22974L5.76802 9.6938C5.73755 9.84849 5.60161 9.95864 5.44458 9.95864H5.91802C6.07505 9.95864 6.21099 9.84849 6.24145 9.6938L6.33755 9.22974H5.86411Z" fill="#EA5B44"/>
        <path d="M9.15474 3.66567V4.08521C8.49849 4.05239 7.94067 3.64224 7.69458 3.06567H8.55708C8.88755 3.06567 9.15474 3.3352 9.15474 3.66567Z" fill="#D9D9D9"/>
        <path d="M9.8835 4.08755C10.8129 4.08755 11.5663 3.33413 11.5663 2.40474C11.5663 1.47534 10.8129 0.721924 9.8835 0.721924C8.9541 0.721924 8.20068 1.47534 8.20068 2.40474C8.20068 3.33413 8.9541 4.08755 9.8835 4.08755Z" fill="#8EE26B"/>
        <path d="M9.88359 0.721924C9.71016 0.721924 9.54375 0.747705 9.38672 0.796924C10.0734 1.01021 10.5703 1.64771 10.5703 2.40474C10.5703 3.16177 10.0711 3.79927 9.38672 4.01255C9.54375 4.06177 9.71016 4.08755 9.88359 4.08755C10.8117 4.08755 11.5664 3.33521 11.5664 2.40474C11.5664 1.47427 10.8117 0.721924 9.88359 0.721924Z" fill="#58B737"/>
        <path d="M7.44141 6.54834H3.83672C3.55312 6.54834 3.29531 6.71475 3.17813 6.97256L2.5875 8.2874H2.46797C2.30156 8.2874 2.16797 8.42334 2.16797 8.5874V9.10303C2.16797 9.26943 2.30391 9.40303 2.46797 9.40303H2.5875L3.17813 10.7179C3.29531 10.9757 3.55312 11.1421 3.83672 11.1421H7.44141C7.725 11.1421 7.98281 10.9757 8.1 10.7179L8.69297 9.40303H8.8125C8.97891 9.40303 9.1125 9.26709 9.1125 9.10303V8.5874C9.1125 8.421 8.97656 8.2874 8.8125 8.2874H8.69297L8.1 6.97256C7.98281 6.71475 7.725 6.54834 7.44141 6.54834ZM8.75859 9.05381H4.94063C4.83984 9.05146 4.74141 9.15459 4.76953 9.26475L4.86328 9.72881C4.91016 9.96318 5.11875 10.1343 5.36016 10.1343H5.91797C6.15703 10.1343 6.36563 9.96318 6.41484 9.72881L6.48047 9.40537H8.30391L7.77656 10.5749C7.71797 10.7062 7.58437 10.7929 7.43906 10.7929H3.83672C3.69141 10.7929 3.56016 10.7062 3.49922 10.5749L2.97188 9.40537H4.11328C4.20937 9.40537 4.28906 9.32568 4.28906 9.22959C4.28906 9.1335 4.20937 9.05381 4.11328 9.05381H2.51719V8.63897H8.75625V9.05381H8.75859ZM6.12188 9.40537L6.07031 9.6585C6.05625 9.73115 5.99297 9.78271 5.91797 9.78271H5.36016C5.2875 9.78271 5.22422 9.73115 5.20781 9.6585L5.15625 9.40537H6.12188ZM2.97422 8.2874L3.50156 7.11787C3.56016 6.98662 3.69375 6.8999 3.83906 6.8999H7.44375C7.58906 6.8999 7.72031 6.98662 7.78125 7.11787L8.30859 8.2874H2.97422Z" fill="black"/>
        <path d="M4.28197 7.20238C4.19056 7.17191 4.08978 7.22113 4.05931 7.31253L3.90697 7.76957C3.8765 7.86097 3.92572 7.96175 4.01712 7.99222C4.03587 7.99925 4.05462 8.0016 4.07337 8.0016C4.14603 8.0016 4.21634 7.95472 4.23978 7.88207L4.39212 7.42503C4.42494 7.33363 4.37572 7.23285 4.28197 7.20238Z" fill="black"/>
        <path d="M4.96169 7.19758C4.8656 7.18118 4.7742 7.2468 4.76013 7.3429L4.68513 7.79993C4.66873 7.89602 4.73435 7.98743 4.83045 8.00149C4.83982 8.00383 4.84919 8.00383 4.85857 8.00383C4.94294 8.00383 5.01794 7.9429 5.03201 7.85618L5.10701 7.39915C5.12341 7.30305 5.05779 7.21165 4.96169 7.19758Z" fill="black"/>
        <path d="M5.63916 7.19287C5.54307 7.19287 5.46338 7.27256 5.46338 7.36865V7.82568C5.46338 7.92178 5.54307 8.00146 5.63916 8.00146C5.73525 8.00146 5.81494 7.92178 5.81494 7.82568V7.36865C5.81494 7.27256 5.73525 7.19287 5.63916 7.19287Z" fill="black"/>
        <path d="M6.51802 7.3407C6.50161 7.24461 6.41255 7.17898 6.31645 7.19539C6.22036 7.21179 6.15708 7.30086 6.17114 7.39695L6.24614 7.85398C6.2602 7.9407 6.3352 8.00164 6.41958 8.00164C6.42895 8.00164 6.43833 8.00164 6.4477 7.99929C6.5438 7.98289 6.60708 7.89382 6.59302 7.79773L6.51802 7.3407Z" fill="black"/>
        <path d="M7.21652 7.31473C7.18605 7.22333 7.08527 7.17411 6.99386 7.20458C6.90245 7.23504 6.85089 7.33583 6.88371 7.42723L7.03605 7.88426C7.05949 7.95692 7.1298 8.00379 7.20245 8.00379C7.2212 8.00379 7.23996 8.00145 7.25871 7.99442C7.35011 7.96395 7.40167 7.86317 7.36886 7.77176L7.21652 7.31473Z" fill="black"/>
        <path d="M11.7398 2.40469C11.7398 1.38047 10.9055 0.546094 9.88125 0.546094C8.85703 0.546094 8.02266 1.38047 8.02266 2.40469C8.02266 2.57344 8.04609 2.73516 8.08828 2.88984H7.65703L7.24453 2.19844C7.24219 2.19609 7.23984 2.19141 7.23984 2.18906C7.14375 2.04844 7.00547 1.89375 6.86484 1.77187L6.21328 1.12969C5.92266 0.84375 5.55937 0.646875 5.16094 0.5625L2.71875 0.046875C2.61328 0.0164063 2.50312 0 2.39297 0H0.438281C0.196875 0 0 0.196875 0 0.438281V2.55C0 2.79141 0.196875 2.98828 0.438281 2.98828H1.85156C1.94766 2.98828 2.03906 3.01875 2.11641 3.075L2.17266 3.11719C2.03203 3.25781 1.94531 3.45234 1.94531 3.66562V5.54766C1.94531 5.73984 1.92891 5.93437 1.89609 6.12422L1.20937 10.0805C1.12734 10.5586 1.25859 11.0461 1.57031 11.4164C1.88203 11.7867 2.33906 12 2.82422 12H8.45156C8.93672 12 9.39375 11.7867 9.70547 11.4164C10.0172 11.0461 10.1484 10.5586 10.0664 10.0805L9.37969 6.12422C9.34688 5.93437 9.33047 5.73984 9.33047 5.54766V4.77188C9.33047 4.67578 9.25078 4.59609 9.15469 4.59609C9.05859 4.59609 8.97891 4.67578 8.97891 4.77188V5.54766C8.97891 5.76094 8.99766 5.97656 9.03281 6.18516L9.71953 10.1414C9.78516 10.5164 9.68203 10.8984 9.43594 11.1914C9.18984 11.482 8.83125 11.6508 8.44922 11.6508H2.82656C2.44453 11.6508 2.08594 11.4844 1.83984 11.1914C1.59375 10.8984 1.49063 10.5164 1.55625 10.1391L2.24297 6.18281C2.28047 5.97187 2.29922 5.75859 2.29922 5.54531V3.66328C2.29922 3.43125 2.48906 3.24141 2.72109 3.24141H6.57422L6.75 3.50156C6.59766 3.51094 6.45703 3.57656 6.35391 3.68906C6.24375 3.57187 6.08906 3.50156 5.92266 3.50156C5.75625 3.50156 5.60156 3.56953 5.49141 3.68906C5.38125 3.57187 5.22656 3.50156 5.06016 3.50156C4.89375 3.50156 4.73906 3.56953 4.62891 3.68906C4.51875 3.57187 4.36406 3.50156 4.19766 3.50156C4.01016 3.50156 3.83906 3.58594 3.72656 3.73594C3.66094 3.82266 3.62109 3.92344 3.60938 4.02891H3.39141C3.15234 4.02891 2.96016 4.22344 2.96016 4.46016V5.59688C2.96016 5.83594 3.15469 6.02813 3.39141 6.02813H7.86563C8.10469 6.02813 8.29688 5.83359 8.29688 5.59688V4.46016C8.29688 4.22109 8.10234 4.02891 7.86563 4.02891H7.38516C7.38281 4.02187 7.36406 3.94922 7.35234 3.91641C7.43672 3.91172 7.52109 3.88828 7.59609 3.84141C7.72031 3.76641 7.80938 3.64922 7.84453 3.50859C7.86797 3.41953 7.86797 3.32812 7.84453 3.24141H8.22656C8.53359 3.84609 9.16172 4.26328 9.88359 4.26328C10.9078 4.26328 11.7398 3.42891 11.7398 2.40469ZM6.59297 3.94687C6.63984 3.88594 6.70781 3.85078 6.78516 3.85078C6.89297 3.85078 6.98672 3.92344 7.01484 4.02422L7.21172 4.72266C7.23281 4.79531 7.21875 4.87266 7.17188 4.93359C7.125 4.99453 7.05703 5.02969 6.97969 5.02969C6.87187 5.02969 6.77812 4.95703 6.75 4.85625L6.55313 4.15781C6.53203 4.08516 6.54609 4.00781 6.59297 3.94687ZM5.72812 3.94687C5.775 3.88594 5.84297 3.85078 5.92031 3.85078C6.02813 3.85078 6.12187 3.92344 6.15 4.02422L6.33984 4.69453C6.36094 4.75781 6.36563 4.83984 6.30938 4.93359C6.2625 4.99453 6.19453 5.02969 6.11719 5.02969C6.00938 5.02969 5.91563 4.95703 5.8875 4.85625L5.69063 4.15781C5.66953 4.08516 5.68359 4.00781 5.72812 3.94687ZM4.86563 3.94687C4.9125 3.88594 4.98047 3.85078 5.05781 3.85078C5.16563 3.85078 5.25938 3.92344 5.2875 4.02422L5.48438 4.72266C5.50547 4.79531 5.49141 4.87266 5.44453 4.93359C5.39766 4.99453 5.32969 5.02969 5.25234 5.02969C5.14453 5.02969 5.05078 4.95703 5.02266 4.85625L4.82578 4.15781C4.80469 4.08516 4.81875 4.00781 4.86563 3.94687ZM4.00078 3.94687C4.04766 3.88594 4.11562 3.85078 4.19297 3.85078C4.30078 3.85078 4.39453 3.92344 4.42266 4.02422L4.54219 4.44609C4.56328 4.51875 4.54922 4.59609 4.50234 4.65703C4.45547 4.71797 4.3875 4.75313 4.31016 4.75313C4.20234 4.75313 4.10859 4.68047 4.08047 4.57969L3.96094 4.15781C3.94219 4.08281 3.95625 4.00781 4.00078 3.94687ZM7.86094 4.38047C7.90547 4.38047 7.94062 4.41563 7.94062 4.46016V5.59688C7.94062 5.64141 7.90547 5.67656 7.86094 5.67656H3.38672C3.34219 5.67656 3.30703 5.64141 3.30703 5.59688V4.46016C3.30703 4.41563 3.34219 4.38047 3.38672 4.38047H3.65859L3.74297 4.67578C3.81562 4.92891 4.04766 5.10703 4.3125 5.10703C4.45312 5.10703 4.58672 5.05781 4.68984 4.97109C4.76719 5.21484 4.99688 5.38359 5.25234 5.38359C5.41875 5.38359 5.57344 5.31562 5.68359 5.19609C5.79375 5.31328 5.94844 5.38359 6.11484 5.38359C6.28125 5.38359 6.43594 5.31562 6.54609 5.19609C6.65625 5.31328 6.81094 5.38359 6.97734 5.38359C7.16484 5.38359 7.33594 5.29922 7.44844 5.14922C7.56094 4.99922 7.59609 4.81172 7.54688 4.63125L7.47656 4.38281L7.86094 4.38047ZM7.50234 3.42188C7.49063 3.47109 7.45781 3.51328 7.41562 3.53906C7.32891 3.59063 7.21641 3.56484 7.16016 3.48047L6.81562 2.96953C6.80156 2.94844 6.78516 2.93203 6.76406 2.91797L5.78203 2.25703C5.77969 2.25 5.69297 2.21484 5.63906 2.23359C5.63203 2.23594 4.96172 2.40234 4.5 2.08594C4.42031 2.03203 4.31016 2.05078 4.25625 2.13047C4.20234 2.21016 4.22109 2.32031 4.30078 2.37422C4.59844 2.57812 4.94531 2.62969 5.22188 2.62969C5.40469 2.62969 5.55703 2.60625 5.64609 2.58984L6.08906 2.8875H2.72109C2.64609 2.8875 2.57344 2.89922 2.50313 2.91797L2.32266 2.78672C2.18438 2.68594 2.02031 2.63438 1.85156 2.63438H0.438281C0.391406 2.63438 0.351562 2.59453 0.351562 2.54766V0.438281C0.351562 0.391406 0.391406 0.351562 0.438281 0.351562H2.39297C2.47266 0.351562 2.55 0.363281 2.625 0.384375C2.62969 0.386719 2.63437 0.386719 2.63906 0.389063L5.08828 0.909375C5.42109 0.979687 5.72578 1.14375 5.96719 1.38281C5.96719 1.38281 6.88594 2.29453 6.94922 2.38594L7.48125 3.27656C7.50703 3.32109 7.51406 3.37266 7.50234 3.42188ZM8.37656 2.40469C8.37656 1.575 9.05156 0.897656 9.88359 0.897656C10.7156 0.897656 11.3906 1.57266 11.3906 2.40469C11.3906 3.23672 10.7156 3.91172 9.88359 3.91172C9.05156 3.91172 8.37656 3.23672 8.37656 2.40469Z" fill="black"/>
        <path d="M10.671 1.87495C10.6031 1.80698 10.4906 1.80698 10.4226 1.87495L9.73589 2.56167L9.34214 2.16792C9.27417 2.09995 9.16167 2.09995 9.0937 2.16792C9.02573 2.23589 9.02573 2.34839 9.0937 2.41636L9.61167 2.93433C9.64448 2.96714 9.68901 2.98589 9.73589 2.98589C9.78276 2.98589 9.8273 2.96714 9.86011 2.93433L10.671 2.12339C10.7414 2.05542 10.7414 1.94292 10.671 1.87495Z" fill="black"/>
    </g>
    <defs>
        <clipPath id="clip0_1908_5701">
            <rect width="11.7398" height="12" fill="white"/>
        </clipPath>
    </defs>
</svg>
