<svg width="12" height="12" viewBox="0 0 12 12" fill="none" xmlns="http://www.w3.org/2000/svg">
    <g clip-path="url(#clip0_1910_5951)">
        <path d="M3.6001 0H12.0001V10.8H3.6001V0Z" fill="#D9D9D9"/>
        <path d="M2 12V1.19995H8.4L10.4 3.19995V12H2Z" fill="#CCCCCC"/>
        <path d="M2 11.2H9.4V2.19995L8.4 1.19995H2V11.2Z" fill="#F2F2F2"/>
        <path d="M8.3999 1.19995V3.19995H10.3999" fill="#E2E7F6"/>
        <path d="M3 6.80005H9.4V10.8H3V6.80005Z" fill="#485B78"/>
        <path d="M3 6.80005H8.8V10.2H3V6.80005Z" fill="#485B78"/>
        <path d="M1 9.80005H3.8C4.3525 9.80005 4.8 10.2475 4.8 10.8V12H0V10.8C0 10.2475 0.4475 9.80005 1 9.80005Z" fill="#EA5B44"/>
        <path d="M3.3725 11.3375C3.705 11.3375 3.9725 11.07 3.9725 10.7375V9.81755C3.915 9.80755 3.8575 9.80005 3.8 9.80005H1C0.4475 9.80005 0 10.2475 0 10.8V11.3375H3.3725Z" fill="#EA5B44"/>
        <path d="M1.80005 9.19995V9.79995C1.80005 10.1325 2.06755 10.4 2.40005 10.4C2.73255 10.4 3.00005 10.1325 3.00005 9.79995V9.19995" fill="#F2B9A1"/>
        <path d="M1.3999 7.6001H0.799902C0.579902 7.6001 0.399902 7.7801 0.399902 8.0001C0.399902 8.2201 0.579902 8.4001 0.799902 8.4001H1.3999" fill="#F2B9A1"/>
        <path d="M3.3999 7.6001H3.9999C4.2199 7.6001 4.3999 7.7801 4.3999 8.0001C4.3999 8.2201 4.2199 8.4001 3.9999 8.4001H3.3999" fill="#F2B9A1"/>
        <path d="M3.80005 7.6001L4.00005 7.0001V6.7326C4.00005 6.1076 3.49255 5.6001 2.86755 5.6001C2.56755 5.6001 2.28005 5.7201 2.06755 5.9326L2.00005 6.0001L1.75505 5.7551C1.65505 5.6551 1.52005 5.6001 1.38005 5.6001C1.15255 5.6001 0.952549 5.7451 0.880049 5.9626C0.827549 6.1201 0.800049 6.2851 0.800049 6.4526C0.800049 6.6851 0.827549 6.9151 0.885049 7.1401L1.00005 7.6001H3.80005Z" fill="#C18E59"/>
        <path d="M3.59995 7.4001V8.2001C3.59995 8.8626 3.06245 9.4001 2.39995 9.4001C1.73745 9.4001 1.19995 8.8626 1.19995 8.2001V7.4001L2.00495 7.2851C2.34495 7.2376 2.59995 6.9451 2.59995 6.6001L3.59995 7.4001Z" fill="#FBE1CA"/>
        <path d="M5.80005 6C6.90462 6 7.80005 5.10457 7.80005 4C7.80005 2.89543 6.90462 2 5.80005 2C4.69548 2 3.80005 2.89543 3.80005 4C3.80005 5.10457 4.69548 6 5.80005 6Z" fill="#4D8C28"/>
        <path d="M5.80005 2.00001C4.69755 1.99751 3.80255 2.89251 3.80005 3.99501C3.80005 4.43001 3.94005 4.85251 4.20255 5.20001C5.08255 5.86251 6.33505 5.68751 7.00005 4.80501C7.53505 4.09251 7.53505 3.11501 7.00005 2.40251C6.65255 2.14001 6.23255 2.00001 5.80005 2.00001Z" fill="#559B2D"/>
        <path d="M5.40002 5.00006C5.34752 5.00006 5.29502 4.98006 5.25752 4.94256L4.45752 4.14256L4.74002 3.86006L5.39752 4.51756L6.85502 3.06006L7.13752 3.34256L5.53752 4.94256C5.50502 4.98006 5.45252 5.00006 5.40002 5.00006Z" fill="#F2F2F2"/>
        <path d="M5.19995 7.40015H8.79995V7.80015H5.19995V7.40015Z" fill="#F2F2F2"/>
        <path d="M5.19995 8.19995H8.79995V8.59995H5.19995V8.19995Z" fill="#F2F2F2"/>
        <path d="M5.19995 9.80005H8.79995V10.2H5.19995V9.80005Z" fill="#F2F2F2"/>
        <path d="M4 9H8.8V9.4H4V9Z" fill="#F2F2F2"/>
    </g>
    <defs>
        <clipPath id="clip0_1910_5951">
            <rect width="12" height="12" fill="white"/>
        </clipPath>
    </defs>
</svg>
