<svg width="12" height="9" viewBox="0 0 12 9" fill="none" xmlns="http://www.w3.org/2000/svg">
    <g clip-path="url(#clip0_1908_5766)">
        <path d="M6.35674 1.30821L5.83788 1.20494C5.84526 1.16805 5.85018 1.12871 5.85018 1.08936C5.85018 0.781985 5.59936 0.531165 5.29198 0.531165C4.9846 0.531165 4.73378 0.781985 4.73378 1.08936C4.73378 1.11887 4.73624 1.14592 4.74116 1.17789L4.21739 1.26149C4.20755 1.20248 4.20264 1.14346 4.20264 1.0869C4.20264 0.486903 4.69198 -0.00244141 5.29198 -0.00244141C5.89198 -0.00244141 6.38133 0.486903 6.38133 1.0869C6.37887 1.16313 6.37149 1.2369 6.35674 1.30821Z" fill="#EA5B44"/>
        <path d="M9.2607 8.23041H0.995949C0.951687 8.23041 0.912343 8.20336 0.89513 8.16402L0.275458 6.99598C0.24349 6.92221 0.297589 6.84106 0.376277 6.84106H7.31808" fill="#D9D9D9"/>
        <path d="M9.26074 8.49591H0.995981C0.850899 8.49591 0.720572 8.41231 0.656637 8.28198L0.039424 7.12132C0.036965 7.11641 0.032047 7.10903 0.029588 7.10165C-0.0220514 6.98608 -0.0097563 6.85329 0.0590962 6.74755C0.127949 6.64182 0.245981 6.57788 0.37385 6.57788H7.31565V7.10657H0.634506L1.08942 7.96477H9.26074V8.49591Z" fill="#EA5B44"/>
        <path d="M7.23943 6.19429H0.654182C0.555821 6.19429 0.462379 6.15494 0.391067 6.08117C0.314838 6.00248 0.273034 5.89674 0.275493 5.78855C0.314838 4.48035 0.853362 3.25576 1.79271 2.34101C2.73451 1.42379 3.97631 0.917236 5.28943 0.917236C7.17549 0.917236 8.88451 1.95494 9.74516 3.62215L9.27303 3.8656C8.50336 2.37297 6.97631 1.44592 5.28943 1.44592C2.8968 1.44592 0.956641 3.28773 0.811559 5.66314H7.23697V5.90658L7.33533 6.17707L7.23943 6.19429Z" fill="#EA5B44"/>
        <path d="M9.48942 8.4959C8.10499 8.4959 6.97876 7.36967 6.97876 5.98771C6.97876 4.60328 8.10499 3.47705 9.48942 3.47705C10.8738 3.47705 12.0001 4.60328 12.0001 5.98771C12.0001 7.36967 10.8738 8.4959 9.48942 8.4959ZM9.48942 4.0082C8.39761 4.0082 7.50991 4.8959 7.50991 5.98771C7.50991 7.07951 8.39761 7.96722 9.48942 7.96722C10.5812 7.96722 11.4689 7.07951 11.4689 5.98771C11.4689 4.8959 10.5812 4.0082 9.48942 4.0082Z" fill="#EA5B44"/>
        <path d="M2.24763 4.42144L1.72632 4.32308C1.8837 3.48701 2.43452 2.76898 3.20419 2.40259L3.43288 2.8821C2.81566 3.17472 2.37304 3.75259 2.24763 4.42144Z" fill="#EA5B44"/>
        <path d="M10.3601 5.18115L8.62158 6.91968L10.3601 5.18115Z" fill="#D9D9D9"/>
        <path d="M8.43213 6.73045L10.1682 4.99438L10.5444 5.36816L8.80836 7.10668L8.43213 6.73045Z" fill="#EA5B44"/>
        <path d="M10.3604 6.91943L8.62183 5.18091L10.3604 6.91943Z" fill="#D9D9D9"/>
        <path d="M8.43237 5.37037L8.8086 4.99414L10.5447 6.73021L10.1709 7.10644L8.43237 5.37037Z" fill="#EA5B44"/>
    </g>
    <defs>
        <clipPath id="clip0_1908_5766">
            <rect width="12" height="8.4959" fill="white"/>
        </clipPath>
    </defs>
</svg>
