<svg width="11" height="12" viewBox="0 0 11 12" fill="none" xmlns="http://www.w3.org/2000/svg">
    <g clip-path="url(#clip0_1910_5880)">
        <path fill-rule="evenodd" clip-rule="evenodd" d="M6.7185 9.25201C6.85677 9.28905 6.97035 9.37793 7.04195 9.50139C7.05924 9.53102 7.07405 9.56312 7.0864 9.59769V9.60016V9.60263C7.0864 9.60509 7.0864 9.60509 7.08887 9.60756C7.1185 9.70386 7.12097 9.8051 7.09628 9.90386C7.05924 10.0397 6.97035 10.1557 6.84689 10.2273C6.72344 10.2989 6.58023 10.3187 6.44195 10.2816L4.27405 9.70139C4.24689 9.69398 4.21973 9.71127 4.21479 9.73596C4.20739 9.76312 4.22467 9.79028 4.24936 9.79769L6.41726 10.3779C6.58023 10.4224 6.7506 10.3977 6.89628 10.3137C7.04195 10.2298 7.14813 10.094 7.1901 9.93102C7.21233 9.84707 7.21726 9.76065 7.20492 9.6767L7.19504 9.61003L9.36788 8.35571C9.49134 8.28411 9.63455 8.26682 9.77282 8.30386C9.90862 8.3409 10.0247 8.42732 10.0963 8.55077C10.242 8.80509 10.1555 9.13102 9.90121 9.27917L6.23208 11.3977C6.1506 11.4446 6.05677 11.4718 5.96294 11.4693H5.96047L3.50862 11.5162C3.4222 11.5187 3.34072 11.5113 3.2543 11.494L1.87158 11.2199V8.65201L3.23949 8.3804C3.33084 8.36312 3.41479 8.36559 3.50368 8.39028L6.7185 9.25201ZM3.72837 5.27917V2.51127H7.99998V5.27917H3.72837ZM7.61726 0.634725L7.45677 0.558181C6.85677 0.271762 6.18023 0.150774 5.5185 0.212502C4.69628 0.289046 3.93084 0.637194 3.33084 1.20263C2.73084 1.76806 2.34072 2.51374 2.21479 3.32855C2.09134 4.1409 2.24195 4.98287 2.64442 5.69645C2.70615 5.8051 2.84442 5.8446 2.95307 5.78287C3.06171 5.72114 3.09874 5.58287 3.03948 5.47423C2.6864 4.84707 2.55307 4.1088 2.66171 3.39769C2.77035 2.68164 3.11356 2.02979 3.64195 1.53349C4.17035 1.03719 4.83949 0.73349 5.56047 0.666823C6.11109 0.614971 6.66665 0.70386 7.17282 0.928552L7.38023 1.01991L7.16788 1.36312L7.78516 1.3804H7.7901L8.40986 1.39769L8.05183 0.731021L7.8222 0.30386L7.78516 0.365589L7.61726 0.634725ZM3.97776 6.42238L3.358 6.4051L3.71603 7.06682L3.94813 7.49645L4.00739 7.40016L4.15307 7.16559L4.31109 7.23966C4.90121 7.51374 5.56294 7.62485 6.21232 7.56559C7.03455 7.48905 7.79998 7.14337 8.39998 6.57547C8.99998 6.00756 9.3901 5.26435 9.51603 4.44954C9.63949 3.63719 9.48887 2.79522 9.0864 2.08164C9.02467 1.973 8.8864 1.93349 8.77776 1.99522C8.66912 2.05695 8.63208 2.19522 8.69134 2.30386C9.04442 2.93102 9.17776 3.66929 9.06911 4.3804C8.96047 5.09645 8.61726 5.7483 8.08887 6.2446C7.56047 6.7409 6.88887 7.0446 6.16788 7.11127C5.63455 7.16065 5.09381 7.07917 4.59998 6.86929L4.38763 6.7804L4.59751 6.43966L3.98023 6.42238H3.97776ZM1.77035 11.8026H0.19751V8.06682H1.77035V11.8026ZM4.67652 4.73843C4.67652 4.76559 4.69874 4.78781 4.7259 4.78781H6.99998C7.02714 4.78781 7.04936 4.76559 7.04936 4.73843C7.04936 4.51374 7.23208 4.33102 7.45677 4.33102C7.48393 4.33102 7.50615 4.3088 7.50615 4.28164V3.51127C7.50615 3.48411 7.48393 3.46188 7.45677 3.46188C7.23208 3.46188 7.04936 3.27917 7.04936 3.05448C7.04936 3.02732 7.02714 3.00509 6.99998 3.00509H4.7259C4.69874 3.00509 4.67652 3.02732 4.67652 3.05448C4.67652 3.27917 4.49381 3.46188 4.26911 3.46188C4.24195 3.46188 4.21973 3.48411 4.21973 3.51127V4.28164C4.21973 4.3088 4.24195 4.33102 4.26911 4.33102C4.49381 4.32855 4.67652 4.51374 4.67652 4.73843ZM4.76047 4.61497L4.78023 4.68905H6.94813L6.96788 4.61497C7.01232 4.43472 7.15553 4.29151 7.33578 4.24707L7.40986 4.22732V3.56312L7.33578 3.54337C7.15553 3.49892 7.01479 3.35571 6.96788 3.17547L6.94813 3.10139H4.78023L4.76047 3.17547C4.71603 3.35571 4.57282 3.49892 4.39257 3.54337L4.3185 3.56312V4.22732L4.39257 4.24707C4.57282 4.29151 4.71603 4.43472 4.76047 4.61497ZM4.99257 3.89398C4.99257 3.86682 4.97035 3.8446 4.94319 3.8446H4.73578C4.70862 3.8446 4.6864 3.86682 4.6864 3.89398C4.6864 3.92114 4.70862 3.94337 4.73578 3.94337H4.94319C4.97035 3.94337 4.99257 3.92361 4.99257 3.89398ZM5.86418 4.40016C6.14319 4.40016 6.37035 4.173 6.37035 3.89398C6.37035 3.61497 6.14319 3.38781 5.86418 3.38781C5.58516 3.38781 5.358 3.61497 5.358 3.89398C5.358 4.173 5.58516 4.40016 5.86418 4.40016ZM5.45677 3.89398C5.45677 4.11868 5.63948 4.30139 5.86418 4.30139C6.08887 4.30139 6.27158 4.11868 6.27158 3.89398C6.27158 3.66929 6.08887 3.48658 5.86418 3.48658C5.63948 3.48658 5.45677 3.67176 5.45677 3.89398ZM6.7827 3.94337H6.9901C7.01726 3.94337 7.03949 3.92114 7.03949 3.89398C7.03949 3.86682 7.01726 3.8446 6.9901 3.8446H6.7827C6.75553 3.8446 6.73331 3.86682 6.73331 3.89398C6.73331 3.92361 6.75553 3.94337 6.7827 3.94337Z" fill="#EEF0F2"/>
        <path fill-rule="evenodd" clip-rule="evenodd" d="M5.09136 3.89393C5.09136 3.97541 5.02469 4.04208 4.94321 4.04208H4.7358C4.65432 4.04208 4.58765 3.97541 4.58765 3.89393C4.58765 3.81245 4.65432 3.74578 4.7358 3.74578H4.94321C5.02469 3.74578 5.09136 3.81245 5.09136 3.89393ZM6.99259 3.74578C7.07407 3.74578 7.14074 3.81245 7.14074 3.89393C7.14074 3.97541 7.07407 4.04208 6.99259 4.04208H6.78519C6.7037 4.04208 6.63704 3.97541 6.63704 3.89393C6.63704 3.81245 6.7037 3.74578 6.78519 3.74578H6.99259ZM5.8642 4.20257C5.69383 4.20257 5.55556 4.0643 5.55556 3.89393C5.55556 3.72356 5.69383 3.58529 5.8642 3.58529C6.03457 3.58529 6.17284 3.72356 6.17284 3.89393C6.17284 4.0643 6.0321 4.20257 5.8642 4.20257ZM5.8642 3.29146C5.53086 3.29146 5.25926 3.56306 5.25926 3.8964C5.25926 4.22973 5.53086 4.50134 5.8642 4.50134C6.19753 4.50134 6.46914 4.22973 6.46914 3.8964C6.46667 3.56306 6.19753 3.29146 5.8642 3.29146ZM7.30864 4.15072V3.63961C7.09383 3.58529 6.92346 3.41492 6.86914 3.2001H4.85432C4.8 3.41492 4.62963 3.58529 4.41481 3.63961V4.15072C4.62963 4.20504 4.8 4.37541 4.85432 4.59022H6.86914C6.92593 4.37541 7.09383 4.20504 7.30864 4.15072ZM7.45679 3.36306C7.28642 3.36306 7.14815 3.22479 7.14815 3.05442C7.14815 2.97294 7.08148 2.90627 7 2.90627H4.72593C4.64444 2.90627 4.57778 2.97294 4.57778 3.05442C4.57778 3.22479 4.43951 3.36306 4.26914 3.36306C4.18765 3.36306 4.12099 3.42973 4.12099 3.51121V4.28158C4.12099 4.36306 4.18765 4.42973 4.26914 4.42973C4.43951 4.42973 4.57778 4.568 4.57778 4.73837C4.57778 4.81985 4.64444 4.88652 4.72593 4.88652H7C7.08148 4.88652 7.14815 4.81985 7.14815 4.73837C7.14815 4.568 7.28642 4.42973 7.45679 4.42973C7.53827 4.42973 7.60494 4.36306 7.60494 4.28158V3.51121C7.60494 3.42726 7.54074 3.36306 7.45679 3.36306ZM3.82716 2.60998V5.18035H7.90124V2.60998H3.82716ZM8.04938 5.47664C8.13087 5.47664 8.19753 5.40998 8.19753 5.3285V2.46183C8.19753 2.38035 8.13087 2.31368 8.04938 2.31368H3.67901C3.59753 2.31368 3.53086 2.38035 3.53086 2.46183V5.3285C3.53086 5.40998 3.59753 5.47664 3.67901 5.47664H8.04938ZM2.31358 3.34578C2.19259 4.1359 2.33827 4.95319 2.73333 5.65195C2.7679 5.71368 2.84691 5.7359 2.90864 5.70134C2.97037 5.66677 2.99259 5.58776 2.95802 5.52603C2.59259 4.87911 2.45679 4.12109 2.57037 3.38529C2.68395 2.64702 3.03704 1.97541 3.58025 1.4643C4.12346 0.953188 4.81482 0.637138 5.55802 0.568003C6.12593 0.516151 6.69877 0.607509 7.21975 0.837138L7.53086 0.97541L7.34815 1.26924L7.79259 1.28158H7.79753L8.24691 1.29393L7.89136 0.6322L7.82222 0.501336L7.80988 0.521089L7.66173 0.758126L7.42222 0.644546C6.83704 0.365533 6.18272 0.249484 5.5358 0.308743C4.7358 0.382817 3.99012 0.721089 3.40741 1.27171C2.81482 1.82726 2.43457 2.55072 2.31358 3.34578ZM3.05185 5.95566C3.25432 5.84208 3.32593 5.58035 3.21235 5.37788C2.87901 4.78529 2.75556 4.09887 2.85926 3.42726C2.96049 2.75566 3.28395 2.14331 3.77778 1.67664C4.27161 1.20998 4.90123 0.923558 5.57778 0.86183C6.0963 0.812447 6.61975 0.898867 7.09136 1.10627L6.94815 1.34084C6.90617 1.40751 6.9284 1.49393 6.99506 1.5359C7.01975 1.55072 7.04691 1.55813 7.07654 1.55566L7.78519 1.57541C7.78765 1.57541 7.79012 1.57541 7.79259 1.57541L8.50124 1.59516C8.57778 1.59763 8.64445 1.5359 8.64691 1.45936C8.64691 1.4322 8.64198 1.40751 8.62963 1.38776L8.28889 0.758126L7.94815 0.126027C7.91111 0.0568915 7.82469 0.0322001 7.75556 0.0692371C7.73333 0.0815828 7.71605 0.0988668 7.70123 0.11862L7.54074 0.380348C6.90864 0.0766445 6.20247 -0.0492814 5.50123 0.0173853C4.63457 0.0988668 3.82716 0.46183 3.19506 1.05936C2.56296 1.65689 2.15062 2.43961 2.01975 3.29887C1.88889 4.15813 2.04691 5.03714 2.47407 5.79516C2.59012 6.0001 2.84938 6.07171 3.05185 5.95566ZM8.82222 2.07911C8.76049 2.11368 8.74074 2.19269 8.77284 2.25442C9.13827 2.90134 9.27407 3.65936 9.16049 4.39516C9.04938 5.13343 8.69383 5.80504 8.15062 6.31615C7.60741 6.82726 6.91605 7.14331 6.17531 7.21245C5.62469 7.2643 5.06914 7.17788 4.55802 6.96306L4.23951 6.82726L4.41975 6.53343L3.97531 6.52109L3.52593 6.50874L3.88148 7.16553L3.95309 7.29887L3.97037 7.27171L4.11358 7.03961L4.35309 7.15072C4.9284 7.41739 5.57037 7.52603 6.20247 7.46924C7.00247 7.39516 7.74815 7.05689 8.33086 6.50627C8.91605 5.95566 9.2963 5.2322 9.41728 4.43714C9.53827 3.64702 9.39259 2.82973 8.99753 2.13097C8.96296 2.06677 8.88395 2.04455 8.82222 2.07911ZM8.51605 2.4001C8.84938 2.99269 8.97284 3.67911 8.86914 4.35072C8.7679 5.02232 8.44444 5.63467 7.95062 6.10134C7.45679 6.568 6.82716 6.85442 6.15062 6.91615C5.64691 6.96306 5.14074 6.88405 4.67654 6.68899L4.81728 6.46183C4.85926 6.39516 4.83704 6.30874 4.77037 6.26677C4.74568 6.25195 4.71852 6.24455 4.68889 6.24455L3.98025 6.22479C3.97778 6.22479 3.97531 6.22479 3.97037 6.22479L3.26173 6.20504C3.18519 6.20257 3.11852 6.2643 3.11605 6.34084C3.11605 6.368 3.12099 6.39269 3.13333 6.41492L3.47407 7.04455L3.81482 7.67664C3.85185 7.74578 3.93827 7.77047 4.00741 7.73343C4.02963 7.72109 4.04691 7.7038 4.06173 7.68405L4.22469 7.41985C4.84691 7.70874 5.53827 7.82726 6.22716 7.76306C7.09383 7.68158 7.89877 7.31615 8.53086 6.72109C9.16296 6.12356 9.57531 5.34084 9.70617 4.48158C9.83704 3.62232 9.67901 2.74331 9.25185 1.98529C9.1358 1.78035 8.87654 1.70874 8.67161 1.82479C8.47408 1.9359 8.40247 2.19763 8.51605 2.4001ZM9.85185 9.19022L6.18272 11.3087C6.11605 11.3482 6.03951 11.368 5.96296 11.3655C5.96049 11.3655 5.96049 11.3655 5.95802 11.3655L3.50617 11.4124C3.42469 11.4149 3.35309 11.4075 3.27407 11.3927L1.9679 11.1359V8.73343L3.25679 8.47911C3.33333 8.4643 3.4 8.46677 3.47654 8.48652L6.69136 9.34825C6.80247 9.37788 6.8963 9.44948 6.95309 9.55072C6.9679 9.57541 6.98025 9.60257 6.98765 9.62973C6.98765 9.6322 6.99012 9.63714 6.99012 9.63961C7.01482 9.71615 7.01728 9.8001 6.99506 9.87911C6.96543 9.99022 6.89383 10.0841 6.79259 10.1408C6.69136 10.1976 6.57531 10.2149 6.4642 10.1853L4.30123 9.60504C4.22222 9.58282 4.14074 9.62973 4.11852 9.70874C4.0963 9.78776 4.14321 9.86924 4.22222 9.89146L6.39012 10.4717C6.57778 10.5211 6.77531 10.4964 6.94321 10.3976C7.11111 10.2989 7.23457 10.1433 7.28395 9.95566C7.31111 9.85689 7.31605 9.75566 7.30124 9.65936L9.41481 8.43961C9.51358 8.38282 9.6321 8.36553 9.74321 8.39763C9.85432 8.42726 9.94815 8.49887 10.0074 8.6001C10.1309 8.80504 10.0593 9.07171 9.85185 9.19022ZM1.6716 11.7038H0.296296V8.16553H1.6716V11.7038ZM10.2667 8.44948C10.1704 8.28158 10.0123 8.16059 9.82222 8.10874C9.6321 8.05936 9.43704 8.08405 9.26914 8.18035L7.2 9.37541C7.10617 9.22479 6.95556 9.10627 6.77037 9.05689L3.55556 8.2001C3.43457 8.168 3.32346 8.16306 3.2 8.18776L1.9679 8.4322V8.01739C1.9679 7.9359 1.90123 7.86924 1.81975 7.86924H0.148148C0.0666667 7.86924 0 7.9359 0 8.01739V11.852C0 11.9334 0.0666667 12.0001 0.148148 12.0001H1.81975C1.90123 12.0001 1.9679 11.9334 1.9679 11.852V11.4371L3.21481 11.6841C3.30617 11.7013 3.39012 11.7112 3.48148 11.7112C3.49136 11.7112 3.50123 11.7112 3.51111 11.7112L5.96049 11.6643C6.09136 11.6643 6.21728 11.6322 6.3284 11.5655L10 9.44701C10.3481 9.24701 10.4691 8.8001 10.2667 8.44948Z" fill="#6DC548"/>
    </g>
    <defs>
        <clipPath id="clip0_1910_5880">
            <rect width="10.3654" height="12" fill="white"/>
        </clipPath>
    </defs>
</svg>
