<svg width="12" height="10" viewBox="0 0 12 10" fill="none" xmlns="http://www.w3.org/2000/svg">
    <path d="M11.2824 4.85661C11.1509 4.82231 11.0166 4.83946 10.9023 4.90521L8.45537 6.31731C8.47253 6.42879 8.46681 6.54313 8.43537 6.66033C8.3782 6.87758 8.23813 7.06052 8.04089 7.172C7.84365 7.28348 7.61783 7.31493 7.40059 7.25776L4.88796 6.58315C4.79649 6.55742 4.74218 6.46309 4.7679 6.37448C4.79363 6.28301 4.8851 6.2287 4.97658 6.25442L7.48634 6.92617C7.61497 6.96047 7.74932 6.94332 7.86652 6.87472C7.98372 6.80611 8.06662 6.70035 8.10092 6.56886C8.12665 6.47739 8.12379 6.3802 8.0952 6.29158C8.0952 6.28872 8.09235 6.28301 8.09235 6.28015C8.08091 6.24871 8.06948 6.21726 8.05233 6.18868C7.98372 6.07148 7.87796 5.98858 7.74932 5.95428L4.02755 4.95666C3.93894 4.93379 3.86176 4.93094 3.77314 4.94809L2.28101 5.24251V8.02384L3.7903 8.32112C3.88463 8.33827 3.96466 8.34685 4.059 8.34399L6.89749 8.28968C6.90035 8.28968 6.90035 8.28968 6.90321 8.28968C6.99182 8.29254 7.08043 8.26681 7.15761 8.22393L11.4054 5.77419C11.6455 5.63699 11.7284 5.32827 11.5883 5.08815C11.5225 4.97381 11.4139 4.89092 11.2824 4.85661Z" fill="#EEF0F2"/>
    <path d="M1.9352 4.58789H0.343018V8.68413H1.9352V4.58789Z" fill="#EEF0F2"/>
    <path d="M11.8857 4.91662C11.7742 4.72224 11.5912 4.58218 11.3711 4.52215C11.151 4.46498 10.9252 4.49356 10.7308 4.60504L8.3354 5.98856C8.22678 5.81419 8.05241 5.67984 7.83802 5.61981L4.11625 4.62791C3.97618 4.59075 3.84755 4.58503 3.70462 4.61362L2.27823 4.89661V4.41638C2.27823 4.32205 2.20105 4.24487 2.10672 4.24487H0.17151C0.0771796 4.24487 0 4.32205 0 4.41638V8.85564C0 8.94997 0.0771796 9.02715 0.17151 9.02715H2.10672C2.20105 9.02715 2.27823 8.94997 2.27823 8.85564V8.37541L3.72177 8.66126C3.82754 8.68127 3.92473 8.69271 4.03049 8.69271C4.04192 8.69271 4.05336 8.69271 4.06479 8.69271L6.90043 8.63839C7.05193 8.63839 7.19771 8.60123 7.32635 8.52405L11.5769 6.07146C11.98 5.83992 12.1201 5.31967 11.8857 4.91662ZM2.04955 8.79847H0.22868V4.47355H2.04955V8.79847ZM11.4626 5.87422L7.21486 8.32682C7.12053 8.38113 7.01191 8.41257 6.90329 8.40971H6.90043L4.05908 8.46117C3.95903 8.46403 3.8647 8.45545 3.76465 8.43544L2.16389 8.11815V5.15102L3.7475 4.83658C3.85326 4.81657 3.95045 4.81943 4.05336 4.84802L7.77513 5.84564C7.93521 5.88851 8.0667 5.99142 8.1496 6.13434C8.16961 6.16865 8.18676 6.20581 8.20105 6.24583V6.24868V6.25154C8.20105 6.2544 8.20105 6.2544 8.20391 6.25726C8.23821 6.36874 8.24107 6.48594 8.21248 6.60028C8.1696 6.7575 8.0667 6.89185 7.92377 6.97474C7.78085 7.05764 7.61505 7.08051 7.45498 7.03763L4.94521 6.36588C4.91377 6.35731 4.88233 6.37732 4.87375 6.4059C4.86517 6.43735 4.88518 6.46879 4.91377 6.47737L7.42354 7.14911C7.6122 7.20057 7.80943 7.17198 7.97809 7.07479C8.14674 6.9776 8.26965 6.82039 8.31825 6.63172C8.34397 6.53453 8.34969 6.43449 8.3354 6.3373L8.32396 6.26012L10.8394 4.808C10.9824 4.7251 11.1482 4.70509 11.3082 4.74797C11.4655 4.79085 11.5998 4.8909 11.6827 5.03382C11.8571 5.32539 11.757 5.70271 11.4626 5.87422Z" fill="#6DC548"/>
    <path d="M0.22876 8.79855H2.04963V4.47363H0.22876V8.79855ZM0.3431 4.58797H1.93529V8.68421H0.3431V4.58797Z" fill="#6DC548"/>
    <path d="M11.314 4.74516C11.1568 4.70228 10.9882 4.72515 10.8452 4.80519L8.32975 6.25731L8.34119 6.33449C8.35548 6.43167 8.34976 6.53458 8.32404 6.62891C8.27258 6.81757 8.15253 6.97479 7.98387 7.07198C7.81522 7.16917 7.61799 7.19489 7.42933 7.1463L4.91956 6.47455C4.88812 6.46598 4.87096 6.43453 4.87954 6.40309C4.88811 6.37165 4.91956 6.35449 4.951 6.36307L7.46077 7.03482C7.62085 7.0777 7.78664 7.05483 7.92956 6.97193C8.07249 6.88903 8.1754 6.75754 8.21827 6.59747C8.24972 6.48599 8.24686 6.36593 8.2097 6.25445C8.2097 6.25159 8.20684 6.25159 8.20684 6.24873V6.24587V6.24301C8.19255 6.20299 8.17539 6.16583 8.15539 6.13153C8.07249 5.98861 7.941 5.8857 7.78092 5.84282L4.05915 4.8452C3.95338 4.81662 3.85905 4.81376 3.75329 4.83377L2.16968 5.14821V8.11819L3.77044 8.43549C3.87049 8.4555 3.96482 8.46407 4.06487 8.46121L6.90336 8.4069H6.90622C7.01484 8.40976 7.12347 8.37832 7.2178 8.324L11.4627 5.87427C11.7571 5.70561 11.8571 5.32543 11.6885 5.03101C11.6056 4.88808 11.4713 4.78803 11.314 4.74516ZM11.4055 5.77422L7.15777 8.22681C7.08059 8.27255 6.99197 8.29542 6.90336 8.29256C6.9005 8.29256 6.9005 8.29256 6.89764 8.29256L4.05915 8.34687C3.96482 8.34973 3.88192 8.34116 3.79045 8.324L2.28116 8.02672V5.2454L3.7733 4.95097C3.86191 4.93382 3.93909 4.93668 4.02771 4.95954L7.74948 5.95716C7.87811 5.99146 7.98673 6.07436 8.05248 6.19156C8.06963 6.22015 8.08392 6.25159 8.0925 6.28303C8.0925 6.28589 8.09536 6.29161 8.09536 6.29447C8.12394 6.38308 8.1268 6.48027 8.10107 6.57174C8.06677 6.70037 7.98388 6.809 7.86668 6.8776C7.74948 6.94621 7.61513 6.96336 7.4865 6.92905L4.97673 6.25731C4.88526 6.23158 4.79093 6.28589 4.76806 6.37736C4.74233 6.46883 4.79664 6.56317 4.88812 6.58603L7.39788 7.25778C7.61513 7.31495 7.84381 7.28637 8.03819 7.17203C8.23257 7.05769 8.37549 6.8776 8.43266 6.66035C8.4641 6.54601 8.46982 6.42882 8.45267 6.31733L10.8995 4.90523C11.0139 4.83949 11.1511 4.81948 11.2797 4.85664C11.4084 4.89094 11.517 4.97384 11.5856 5.09104C11.7285 5.32829 11.6456 5.63701 11.4055 5.77422Z" fill="#6DC548"/>
    <path d="M7.4 2.6001H6" stroke="#6DC548" stroke-width="0.5" stroke-miterlimit="10"/>
    <path d="M6.6 4.2C7.48366 4.2 8.2 3.48366 8.2 2.6C8.2 1.71634 7.48366 1 6.6 1C5.71634 1 5 1.71634 5 2.6C5 3.48366 5.71634 4.2 6.6 4.2Z" stroke="#6DC548" stroke-width="0.5" stroke-miterlimit="10"/>
    <path d="M6.7002 3.2999V1.8999" stroke="#6DC548" stroke-width="0.5" stroke-miterlimit="10"/>
</svg>
