<svg width="36" height="36" viewBox="0 0 36 36" fill="none" xmlns="http://www.w3.org/2000/svg">
    <circle cx="18.0993" cy="17.6364" r="17.6364" fill="#8B97A7"/>
    <g clip-path="url(#clip0_1897_5625)">
        <path d="M25.2438 21.2649H25.1315L23.8881 18.2454C24.0986 18.3418 24.326 18.3915 24.5561 18.3974C24.747 18.3974 24.9014 18.2366 24.9014 18.0378V15.1703C24.9014 14.9715 24.747 14.8108 24.5561 14.8108C23.8208 14.8137 23.1696 15.3048 22.9338 16.0297C22.7289 15.7315 22.4146 15.5357 22.0666 15.4889C21.8476 15.4597 21.6259 15.4743 21.4126 15.5328H21.1123C20.5313 15.5328 20.2731 15.1732 19.8661 14.5886L19.664 14.2905C19.8717 14.2788 20.0738 14.2115 20.2478 14.0946C20.5172 13.8929 20.6969 13.586 20.7474 13.244C20.9747 13.1095 21.1375 12.8845 21.2021 12.6214C21.233 12.4138 21.16 12.2034 21.014 12.0572C20.8737 11.8058 20.7951 11.5223 20.7895 11.2329C20.9747 11.2212 21.1179 11.0605 21.1123 10.8675C21.1123 9.28323 19.8801 8 18.3589 8C18.3448 8 18.3336 8 18.3196 8C16.832 8.02923 15.6335 9.28031 15.6026 10.8295C15.5886 11.5983 15.8749 12.3378 16.3941 12.8845C16.4699 12.9634 16.5513 13.0365 16.6355 13.1066C15.3079 13.4428 14.6091 14.7406 14.2498 15.866C14.0449 15.6497 13.7642 15.5298 13.4723 15.5298H9.81796C9.44467 15.5298 9.09663 15.7257 8.89455 16.0531C8.7907 16.2197 8.83561 16.4418 8.99559 16.55C9.15557 16.6582 9.36889 16.6114 9.47273 16.4448C9.54852 16.322 9.67763 16.2489 9.81796 16.2518H10.4411V17.3275C10.4411 17.5263 10.5954 17.6871 10.7863 17.6871H12.5068C12.6977 17.6871 12.852 17.5263 12.852 17.3275V16.2489H13.4751C13.7025 16.2489 13.8849 16.4389 13.8849 16.6757V19.4117C13.8821 19.6455 13.6997 19.8355 13.4751 19.8355H9.81796C9.61307 19.8414 9.43905 19.6865 9.40818 19.476H10.0958C10.2867 19.476 10.4411 19.3152 10.4411 19.1165C10.4411 18.9177 10.2867 18.7569 10.0958 18.7569H9.40818V18.0408H9.75341C9.94427 18.0408 10.0986 17.88 10.0986 17.6812C10.0986 17.4825 9.94427 17.3217 9.75341 17.3217H8.03288C7.84202 17.3217 7.68765 17.4825 7.68765 17.6812C7.68765 17.88 7.84202 18.0408 8.03288 18.0408H8.72053V18.7569H7.34523C7.15437 18.754 7 18.9148 7 19.1135C7 19.3123 7.15437 19.4731 7.34523 19.4731H8.72334C8.75702 20.0752 9.23416 20.5488 9.81516 20.5488H11.5357C11.3757 20.7125 11.241 20.8966 11.1343 21.1012C10.674 22.0395 10.4383 23.0802 10.4467 24.1354C10.4467 24.3342 10.601 24.4949 10.7919 24.4949H11.8472C12.0493 26.0646 13.433 27.1695 14.9403 26.9591C16.1724 26.7895 17.1435 25.7782 17.3063 24.4949H22.5184C22.7093 26.0675 24.0846 27.1812 25.5946 26.9825C27.1046 26.7837 28.1712 25.3514 27.9832 23.7788C27.8035 22.3377 26.6331 21.262 25.2438 21.2649ZM12.1644 16.9622H11.1315V16.246H12.1644V16.9622ZM24.2109 15.5883V17.6169C23.672 17.4211 23.3913 16.8072 23.5794 16.246C23.6832 15.9391 23.9162 15.6965 24.2109 15.5883ZM21.9655 16.1963C22.2434 16.2402 22.4623 16.4594 22.5156 16.7458L22.6055 16.9651C22.1255 17.2223 21.5922 17.3451 21.0533 17.3246C20.9551 16.8862 21.1684 16.436 21.5642 16.2489C21.6933 16.2051 21.8308 16.1905 21.9655 16.2022V16.1963ZM20.2702 12.6974C20.1524 12.7588 20.0794 12.8845 20.0822 13.0189C20.0766 13.2002 19.998 13.3726 19.8661 13.4925C19.6696 13.6298 19.3047 13.5977 18.8332 13.4018C18.8079 13.3989 18.7827 13.3989 18.7574 13.4018L18.7069 13.3551V11.9812C18.7069 11.5632 19.0325 11.2242 19.4338 11.2242H20.085C20.0962 11.6889 20.2366 12.1391 20.4864 12.522C20.4246 12.5922 20.3516 12.6506 20.2731 12.6974H20.2702ZM16.2931 10.8354C16.3296 9.68077 17.2193 8.75415 18.328 8.71615H18.3589C19.3665 8.71615 20.2281 9.47323 20.3966 10.508H19.4282C18.648 10.5109 18.0164 11.1686 18.0136 11.9812V12.9897C17.0088 12.8143 16.2791 11.8994 16.2931 10.8383V10.8354ZM17.326 13.7351C18.4515 13.7351 18.8641 14.3489 19.3019 14.992C19.6191 15.4655 19.9896 15.98 20.6099 16.1642C20.4162 16.4915 20.3264 16.8774 20.3573 17.2603C19.4928 17.0645 18.749 16.4974 18.3083 15.6965C18.2354 15.5123 18.0361 15.4275 17.8593 15.5006C17.6824 15.5766 17.601 15.7842 17.6712 15.9683C17.6824 15.9975 17.6993 16.0268 17.7189 16.0531C17.8424 16.2723 17.9856 16.4769 18.1455 16.6698L18.1147 16.6903C17.7947 17.0732 17.5674 17.5351 17.4579 18.032H14.5726V17.6725C14.5978 17.462 14.988 13.7351 17.326 13.7351ZM14.5726 19.4029V18.754H17.6712C17.7414 18.754 19.3917 18.7745 19.3917 20.5458V22.3377H18.0136V21.6215C18.0473 20.6686 17.3344 19.8648 16.4194 19.8297C16.3773 19.8268 16.3352 19.8268 16.2931 19.8297H14.494C14.5473 19.6952 14.5726 19.5491 14.5726 19.4029ZM14.5726 26.2838C13.565 26.2838 12.7061 25.5268 12.5377 24.492H13.2422C13.4415 25.2549 14.1993 25.708 14.9318 25.5005C15.4034 25.366 15.771 24.9831 15.9002 24.492H16.6047C16.4391 25.5238 15.5802 26.2809 14.5726 26.2838ZM13.9804 24.4891H15.1648C14.9711 24.8282 14.5473 24.9422 14.2217 24.7405C14.1235 24.6791 14.0393 24.5943 13.9804 24.4891ZM11.1315 23.7729C11.1764 22.9486 11.3897 22.1418 11.7574 21.4111C12.0381 20.8703 12.5826 20.5371 13.172 20.5458H16.2931C16.8348 20.5166 17.2951 20.9463 17.326 21.5105C17.3288 21.5485 17.3288 21.5835 17.326 21.6215V22.6972C17.326 23.086 17.4467 23.4631 17.6712 23.7729H11.1315ZM19.0465 23.7729C18.6087 23.7729 18.2213 23.4835 18.0754 23.0568H19.7342C20.0906 23.0334 20.3994 23.314 20.4218 23.6852C20.4218 23.7057 20.4246 23.7262 20.4218 23.7466C20.3067 23.7612 20.1917 23.77 20.0766 23.7729H19.0465ZM21.2526 23.3549C21.2021 23.4134 21.1459 23.466 21.0842 23.5098C21.0056 22.9545 20.6071 22.5072 20.0794 22.3903V20.5488C20.1439 19.3357 19.3103 18.2717 18.1596 18.0934C18.2466 17.7718 18.3982 17.4737 18.603 17.2165C18.6115 17.2048 18.6199 17.1902 18.6283 17.1785C19.1616 17.6286 19.8043 17.9209 20.4864 18.0174L21.4575 22.4137C21.5108 22.7382 21.4378 23.0772 21.2526 23.3549ZM22.1451 22.2617L21.1993 18.0378C21.7831 18.0437 22.3585 17.9063 22.8777 17.6374L24.5028 21.5806L23.0012 23.7758H21.7999C22.1059 23.3374 22.2293 22.7937 22.1451 22.2617ZM25.2438 23.7729H24.6516C24.8424 23.4309 25.2634 23.3111 25.5918 23.5098C25.9202 23.7086 26.0353 24.1471 25.8444 24.4891C25.6536 24.8311 25.2326 24.9509 24.9042 24.7522C24.8003 24.6878 24.7133 24.6002 24.6516 24.4891H25.2438C25.4346 24.4891 25.589 24.3283 25.589 24.1295C25.5862 23.9337 25.4346 23.7729 25.2438 23.7729ZM23.846 23.7729L23.9667 23.5975C23.9471 23.656 23.9274 23.7145 23.9162 23.7729H23.846ZM25.2438 26.2838C24.2362 26.2838 23.3773 25.5268 23.2089 24.492H23.9134C24.1042 25.2578 24.8565 25.7197 25.5918 25.5209C26.3272 25.3222 26.7706 24.5388 26.5798 23.7729C26.3889 23.0071 25.6367 22.5452 24.9014 22.744C24.6909 22.7995 24.4972 22.9077 24.3344 23.0597L25.067 21.984C25.1259 21.984 25.1848 21.984 25.2438 21.984C26.3833 21.984 27.3095 22.9457 27.3095 24.1354C27.3095 25.3251 26.3833 26.2838 25.2438 26.2838Z" fill="white"/>
    </g>
    <defs>
        <clipPath id="clip0_1897_5625">
            <rect width="21" height="19" fill="white" transform="translate(7 8)"/>
        </clipPath>
    </defs>
</svg>
