<svg width="15" height="13" viewBox="0 0 15 13" fill="none" xmlns="http://www.w3.org/2000/svg">
    <path d="M13.0313 9.076H12.9511L12.063 7.01C12.2133 7.076 12.3757 7.11 12.5401 7.114C12.6764 7.114 12.7867 7.004 12.7867 6.868V4.906C12.7867 4.77 12.6764 4.66 12.5401 4.66C12.0148 4.662 11.5497 4.998 11.3813 5.494C11.235 5.29 11.0104 5.156 10.7618 5.124C10.6055 5.104 10.4471 5.114 10.2947 5.154H10.0802C9.6652 5.154 9.48075 4.908 9.19006 4.508L9.04571 4.304C9.19407 4.296 9.33841 4.25 9.46271 4.17C9.65517 4.032 9.78348 3.822 9.81957 3.588C9.98196 3.496 10.0982 3.342 10.1443 3.162C10.1664 3.02 10.1143 2.876 10.01 2.776C9.90978 2.604 9.85365 2.41 9.84964 2.212C9.98196 2.204 10.0842 2.094 10.0802 1.962C10.0802 0.878 9.20008 0 8.11347 0C8.10345 0 8.09543 0 8.08541 0C7.02285 0.02 6.1668 0.876 6.14475 1.936C6.13472 2.462 6.33921 2.968 6.7101 3.342C6.76423 3.396 6.82237 3.446 6.88252 3.494C5.93424 3.724 5.43504 4.612 5.17843 5.382C5.03208 5.234 4.8316 5.152 4.6231 5.152H2.01283C1.74619 5.152 1.49759 5.286 1.35325 5.51C1.27907 5.624 1.31115 5.776 1.42542 5.85C1.5397 5.924 1.69206 5.892 1.76624 5.778C1.82037 5.694 1.91259 5.644 2.01283 5.646H2.4579V6.382C2.4579 6.518 2.56816 6.628 2.70449 6.628H3.93344C4.06977 6.628 4.18003 6.518 4.18003 6.382V5.644H4.6251C4.78749 5.644 4.9178 5.774 4.9178 5.936V7.808C4.9158 7.968 4.78548 8.098 4.6251 8.098H2.01283C1.86648 8.102 1.74218 7.996 1.72013 7.852H2.21131C2.34763 7.852 2.4579 7.742 2.4579 7.606C2.4579 7.47 2.34763 7.36 2.21131 7.36H1.72013V6.87H1.96672C2.10305 6.87 2.21331 6.76 2.21331 6.624C2.21331 6.488 2.10305 6.378 1.96672 6.378H0.737771C0.601443 6.378 0.491179 6.488 0.491179 6.624C0.491179 6.76 0.601443 6.87 0.737771 6.87H1.22895V7.36H0.246592C0.110265 7.358 0 7.468 0 7.604C0 7.74 0.110265 7.85 0.246592 7.85H1.23095C1.25501 8.262 1.59583 8.586 2.01083 8.586H3.23978C3.1255 8.698 3.02927 8.824 2.95309 8.964C2.6243 9.606 2.45589 10.318 2.46191 11.04C2.46191 11.176 2.57217 11.286 2.7085 11.286H3.46231C3.60666 12.36 4.59503 13.116 5.67161 12.972C6.55172 12.856 7.24539 12.164 7.36167 11.286H11.0846C11.2209 12.362 12.2033 13.124 13.2819 12.988C14.3605 12.852 15.1223 11.872 14.988 10.796C14.8597 9.81 14.0237 9.074 13.0313 9.076ZM3.68885 6.132H2.95108V5.642H3.68885V6.132ZM12.2935 5.192V6.58C11.9086 6.446 11.7081 6.026 11.8424 5.642C11.9166 5.432 12.083 5.266 12.2935 5.192ZM10.6897 5.608C10.8881 5.638 11.0445 5.788 11.0826 5.984L11.1468 6.134C10.8039 6.31 10.423 6.394 10.0381 6.38C9.96792 6.08 10.1203 5.772 10.403 5.644C10.4952 5.614 10.5934 5.604 10.6897 5.612V5.608ZM9.47875 3.214C9.39455 3.256 9.34242 3.342 9.34443 3.434C9.34042 3.558 9.28428 3.676 9.19006 3.758C9.04972 3.852 8.78909 3.83 8.45228 3.696C8.43424 3.694 8.4162 3.694 8.39816 3.696L8.36207 3.664V2.724C8.36207 2.438 8.59463 2.206 8.88131 2.206H9.34643C9.35445 2.524 9.45469 2.832 9.63312 3.094C9.58901 3.142 9.53689 3.182 9.48075 3.214H9.47875ZM6.63793 1.94C6.66399 1.15 7.29952 0.516 8.09142 0.49H8.11347C8.8332 0.49 9.44868 1.008 9.56896 1.716H8.87731C8.31997 1.718 7.86889 2.168 7.86688 2.724V3.414C7.14916 3.294 6.62791 2.668 6.63793 1.942V1.94ZM7.3757 3.924C8.17963 3.924 8.47434 4.344 8.78709 4.784C9.01363 5.108 9.27827 5.46 9.72133 5.586C9.583 5.81 9.51884 6.074 9.5409 6.336C8.92342 6.202 8.39214 5.814 8.07739 5.266C8.02526 5.14 7.88292 5.082 7.75662 5.132C7.63031 5.184 7.57217 5.326 7.62229 5.452C7.63031 5.472 7.64234 5.492 7.65637 5.51C7.74459 5.66 7.84683 5.8 7.96111 5.932L7.93905 5.946C7.7105 6.208 7.54811 6.524 7.46993 6.864H5.40898V6.618C5.42702 6.474 5.70569 3.924 7.3757 3.924ZM5.40898 7.802V7.358H7.62229C7.67241 7.358 8.85124 7.372 8.85124 8.584V9.81H7.86688V9.32C7.89094 8.668 7.38172 8.118 6.72815 8.094C6.69808 8.092 6.668 8.092 6.63793 8.094H5.35285C5.39094 8.002 5.40898 7.902 5.40898 7.802ZM5.40898 12.51C4.68925 12.51 4.07578 11.992 3.95549 11.284H4.4587C4.60104 11.806 5.14234 12.116 5.6656 11.974C6.00241 11.882 6.26504 11.62 6.35726 11.284H6.86047C6.74218 11.99 6.12871 12.508 5.40898 12.51ZM4.98597 11.282H5.832C5.69366 11.514 5.39094 11.592 5.15838 11.454C5.08821 11.412 5.02807 11.354 4.98597 11.282ZM2.95108 10.792C2.98316 10.228 3.13553 9.676 3.39816 9.176C3.59864 8.806 3.98757 8.578 4.40858 8.584H6.63793C7.02486 8.564 7.35365 8.858 7.3757 9.244C7.37771 9.27 7.37771 9.294 7.3757 9.32V10.056C7.3757 10.322 7.46191 10.58 7.62229 10.792H2.95108ZM8.60465 10.792C8.2919 10.792 8.01524 10.594 7.91099 10.302H9.09583C9.35044 10.286 9.57097 10.478 9.58701 10.732C9.58701 10.746 9.58901 10.76 9.58701 10.774C9.50481 10.784 9.42261 10.79 9.34042 10.792H8.60465ZM10.1804 10.506C10.1443 10.546 10.1042 10.582 10.0601 10.612C10.004 10.232 9.71933 9.926 9.34242 9.846V8.586C9.38853 7.756 8.7931 7.028 7.97113 6.906C8.03328 6.686 8.14154 6.482 8.28789 6.306C8.29391 6.298 8.29992 6.288 8.30593 6.28C8.68685 6.588 9.14595 6.788 9.63312 6.854L10.3268 9.862C10.3649 10.084 10.3127 10.316 10.1804 10.506ZM10.818 9.758L10.1423 6.868C10.5593 6.872 10.9703 6.778 11.3412 6.594L12.502 9.292L11.4294 10.794H10.5714C10.7899 10.494 10.8781 10.122 10.818 9.758ZM13.0313 10.792H12.6083C12.7446 10.558 13.0453 10.476 13.2799 10.612C13.5144 10.748 13.5966 11.048 13.4603 11.282C13.324 11.516 13.0233 11.598 12.7887 11.462C12.7145 11.418 12.6524 11.358 12.6083 11.282H13.0313C13.1676 11.282 13.2779 11.172 13.2779 11.036C13.2759 10.902 13.1676 10.792 13.0313 10.792ZM12.0329 10.792L12.1191 10.672C12.1051 10.712 12.091 10.752 12.083 10.792H12.0329ZM13.0313 12.51C12.3115 12.51 11.6981 11.992 11.5778 11.284H12.081C12.2173 11.808 12.7546 12.124 13.2799 11.988C13.8051 11.852 14.1219 11.316 13.9856 10.792C13.8492 10.268 13.3119 9.952 12.7867 10.088C12.6363 10.126 12.498 10.2 12.3817 10.304L12.905 9.568C12.9471 9.568 12.9892 9.568 13.0313 9.568C13.8452 9.568 14.5068 10.226 14.5068 11.04C14.5068 11.854 13.8452 12.51 13.0313 12.51Z" fill="#EA5B44"/>
    <g clip-path="url(#clip0_0_1)">
        <path d="M11 2C11 3.10408 11.8959 4 13 4L14.0388 1.92857L13 0C11.8959 0 11 0.895918 11 2Z" fill="#8EE26B"/>
        <path d="M13 0V4C14.1041 4 15 3.10408 15 2C15 0.895918 14.1041 0 13 0Z" fill="#58B737"/>
        <path d="M12.2225 1.31836L11.6306 1.9102L12.8143 3.09387L13 2.90816L13.5061 1.99999L13 1.72652L12.8143 1.91224L12.2225 1.31836Z" fill="white"/>
        <path d="M14.3694 1.54081L13.7776 0.948975L13 1.72653V2.9102L14.3694 1.54081Z" fill="#E2E2E2"/>
    </g>
    <defs>
        <clipPath id="clip0_0_1">
            <rect width="4" height="4" fill="white" transform="translate(11)"/>
        </clipPath>
    </defs>
</svg>
