<svg width="12" height="10" viewBox="0 0 12 10" fill="none" xmlns="http://www.w3.org/2000/svg">
    <g clip-path="url(#clip0_1910_5930)">
        <path d="M11.2824 4.85661C11.1509 4.82231 11.0166 4.83946 10.9023 4.90521L8.45537 6.31731C8.47253 6.42879 8.46681 6.54313 8.43537 6.66033C8.3782 6.87758 8.23813 7.06052 8.04089 7.172C7.84365 7.28348 7.61783 7.31493 7.40059 7.25776L4.88796 6.58315C4.79649 6.55742 4.74218 6.46309 4.7679 6.37448C4.79363 6.28301 4.8851 6.2287 4.97658 6.25442L7.48634 6.92617C7.61497 6.96047 7.74932 6.94332 7.86652 6.87472C7.98372 6.80611 8.06662 6.70035 8.10092 6.56886C8.12665 6.47739 8.12379 6.3802 8.0952 6.29158C8.0952 6.28872 8.09235 6.28301 8.09235 6.28015C8.08091 6.24871 8.06948 6.21726 8.05233 6.18868C7.98372 6.07148 7.87796 5.98858 7.74932 5.95428L4.02755 4.95666C3.93894 4.93379 3.86176 4.93094 3.77314 4.94809L2.28101 5.24251V8.02384L3.7903 8.32112C3.88463 8.33827 3.96466 8.34685 4.059 8.34399L6.89749 8.28968C6.90035 8.28968 6.90035 8.28968 6.90321 8.28968C6.99182 8.29254 7.08043 8.26681 7.15761 8.22393L11.4054 5.77419C11.6455 5.63699 11.7284 5.32827 11.5883 5.08815C11.5225 4.97381 11.4139 4.89092 11.2824 4.85661Z" fill="#EEF0F2"/>
        <path d="M1.9352 4.58789H0.343018V8.68413H1.9352V4.58789Z" fill="#EEF0F2"/>
        <path d="M11.8857 4.91662C11.7742 4.72224 11.5912 4.58218 11.3711 4.52215C11.151 4.46498 10.9252 4.49356 10.7308 4.60504L8.3354 5.98856C8.22678 5.81419 8.05241 5.67984 7.83802 5.61981L4.11625 4.62791C3.97618 4.59075 3.84755 4.58503 3.70462 4.61362L2.27823 4.89661V4.41638C2.27823 4.32205 2.20105 4.24487 2.10672 4.24487H0.17151C0.0771796 4.24487 0 4.32205 0 4.41638V8.85564C0 8.94997 0.0771796 9.02715 0.17151 9.02715H2.10672C2.20105 9.02715 2.27823 8.94997 2.27823 8.85564V8.37541L3.72177 8.66126C3.82754 8.68127 3.92473 8.69271 4.03049 8.69271C4.04192 8.69271 4.05336 8.69271 4.06479 8.69271L6.90043 8.63839C7.05193 8.63839 7.19771 8.60123 7.32635 8.52405L11.5769 6.07146C11.98 5.83992 12.1201 5.31967 11.8857 4.91662ZM2.04955 8.79847H0.22868V4.47355H2.04955V8.79847ZM11.4626 5.87422L7.21486 8.32682C7.12053 8.38113 7.01191 8.41257 6.90329 8.40971H6.90043L4.05908 8.46117C3.95903 8.46403 3.8647 8.45545 3.76465 8.43544L2.16389 8.11815V5.15102L3.7475 4.83658C3.85326 4.81657 3.95045 4.81943 4.05336 4.84802L7.77513 5.84564C7.93521 5.88851 8.0667 5.99142 8.1496 6.13434C8.16961 6.16865 8.18676 6.20581 8.20105 6.24583V6.24868V6.25154C8.20105 6.2544 8.20105 6.2544 8.20391 6.25726C8.23821 6.36874 8.24107 6.48594 8.21248 6.60028C8.1696 6.7575 8.0667 6.89185 7.92377 6.97474C7.78085 7.05764 7.61505 7.08051 7.45498 7.03763L4.94521 6.36588C4.91377 6.35731 4.88233 6.37732 4.87375 6.4059C4.86517 6.43735 4.88518 6.46879 4.91377 6.47737L7.42354 7.14911C7.6122 7.20057 7.80943 7.17198 7.97809 7.07479C8.14674 6.9776 8.26965 6.82039 8.31825 6.63172C8.34397 6.53453 8.34969 6.43449 8.3354 6.3373L8.32396 6.26012L10.8394 4.808C10.9824 4.7251 11.1482 4.70509 11.3082 4.74797C11.4655 4.79085 11.5998 4.8909 11.6827 5.03382C11.8571 5.32539 11.757 5.70271 11.4626 5.87422Z" fill="#6DC548"/>
        <path d="M0.22876 8.79855H2.04963V4.47363H0.22876V8.79855ZM0.3431 4.58797H1.93529V8.68421H0.3431V4.58797Z" fill="#6DC548"/>
        <path d="M11.314 4.74516C11.1568 4.70228 10.9882 4.72515 10.8452 4.80519L8.32975 6.25731L8.34119 6.33449C8.35548 6.43167 8.34976 6.53458 8.32404 6.62891C8.27258 6.81757 8.15253 6.97479 7.98387 7.07198C7.81522 7.16917 7.61799 7.19489 7.42933 7.1463L4.91956 6.47455C4.88812 6.46598 4.87096 6.43453 4.87954 6.40309C4.88812 6.37165 4.91956 6.35449 4.951 6.36307L7.46077 7.03482C7.62085 7.0777 7.78664 7.05483 7.92956 6.97193C8.07249 6.88903 8.1754 6.75754 8.21827 6.59747C8.24972 6.48599 8.24686 6.36593 8.2097 6.25445C8.2097 6.25159 8.20684 6.25159 8.20684 6.24873V6.24587V6.24301C8.19255 6.20299 8.17539 6.16583 8.15539 6.13153C8.07249 5.98861 7.941 5.8857 7.78092 5.84282L4.05915 4.8452C3.95338 4.81662 3.85905 4.81376 3.75329 4.83377L2.16968 5.14821V8.11819L3.77044 8.43549C3.87049 8.4555 3.96482 8.46407 4.06487 8.46121L6.90336 8.4069H6.90622C7.01484 8.40976 7.12347 8.37832 7.2178 8.324L11.4627 5.87427C11.7571 5.70561 11.8571 5.32543 11.6885 5.03101C11.6056 4.88808 11.4713 4.78803 11.314 4.74516ZM11.4055 5.77422L7.15777 8.22681C7.08059 8.27255 6.99197 8.29542 6.90336 8.29256C6.9005 8.29256 6.9005 8.29256 6.89764 8.29256L4.05915 8.34687C3.96482 8.34973 3.88192 8.34116 3.79045 8.324L2.28116 8.02672V5.2454L3.7733 4.95097C3.86191 4.93382 3.93909 4.93668 4.02771 4.95954L7.74948 5.95716C7.87811 5.99146 7.98673 6.07436 8.05248 6.19156C8.06963 6.22015 8.08392 6.25159 8.0925 6.28303C8.0925 6.28589 8.09536 6.29161 8.09536 6.29447C8.12394 6.38308 8.1268 6.48027 8.10107 6.57174C8.06677 6.70037 7.98388 6.809 7.86668 6.8776C7.74948 6.94621 7.61513 6.96336 7.4865 6.92905L4.97673 6.25731C4.88526 6.23158 4.79093 6.28589 4.76806 6.37736C4.74233 6.46883 4.79664 6.56317 4.88812 6.58603L7.39788 7.25778C7.61513 7.31495 7.84381 7.28637 8.03819 7.17203C8.23257 7.05769 8.37549 6.8776 8.43266 6.66035C8.4641 6.54601 8.46982 6.42882 8.45267 6.31733L10.8995 4.90523C11.0139 4.83949 11.1511 4.81948 11.2797 4.85664C11.4084 4.89094 11.517 4.97384 11.5856 5.09104C11.7285 5.32829 11.6456 5.63701 11.4055 5.77422Z" fill="#6DC548"/>
        <path d="M8.46125 1.53494C8.21256 1.47205 8.01532 1.27481 7.95244 1.02612H5.6199C5.55701 1.27481 5.35977 1.47205 5.11108 1.53494V2.12665C5.35977 2.18953 5.55701 2.38677 5.6199 2.63546H7.95244C8.01532 2.38677 8.21256 2.18953 8.46125 2.12665V1.53494ZM5.7228 2.00087H5.48269C5.38836 2.00087 5.31118 1.92369 5.31118 1.82936C5.31118 1.73503 5.38836 1.65785 5.48269 1.65785H5.7228C5.81713 1.65785 5.89431 1.73503 5.89431 1.82936C5.89431 1.92655 5.81713 2.00087 5.7228 2.00087ZM6.78903 2.5297C6.40313 2.5297 6.08869 2.21526 6.08869 1.82936C6.08869 1.44346 6.40313 1.12903 6.78903 1.12903C7.17492 1.12903 7.48936 1.44346 7.48936 1.82936C7.4865 2.21526 7.17492 2.5297 6.78903 2.5297ZM8.09536 2.00087H7.85525C7.76092 2.00087 7.68374 1.92369 7.68374 1.82936C7.68374 1.73503 7.76092 1.65785 7.85525 1.65785H8.09536C8.18969 1.65785 8.26687 1.73503 8.26687 1.82936C8.26687 1.92655 8.18969 2.00087 8.09536 2.00087Z" fill="#EEF0F2"/>
        <path d="M6.78895 1.4751C6.59172 1.4751 6.43164 1.63517 6.43164 1.83241C6.43164 2.02965 6.59172 2.18972 6.78895 2.18972C6.98619 2.18972 7.14627 2.02965 7.14627 1.83241C7.14627 1.63517 6.98333 1.4751 6.78895 1.4751Z" fill="#EEF0F2"/>
        <path d="M9.1472 0.343018H4.43066V3.31872H9.1472V0.343018ZM8.80418 2.27537C8.80418 2.3697 8.727 2.44688 8.63267 2.44688C8.43543 2.44688 8.27535 2.60695 8.27535 2.80419C8.27535 2.89852 8.19817 2.9757 8.10384 2.9757H5.47116C5.37683 2.9757 5.29965 2.89852 5.29965 2.80419C5.29965 2.60695 5.13957 2.44688 4.94234 2.44688C4.84801 2.44688 4.77083 2.3697 4.77083 2.27537V1.38351C4.77083 1.28918 4.84801 1.212 4.94234 1.212C5.13957 1.212 5.29965 1.05193 5.29965 0.85469C5.29965 0.760359 5.37683 0.68318 5.47116 0.68318H8.10384C8.19817 0.68318 8.27535 0.760359 8.27535 0.85469C8.27535 1.05193 8.43543 1.212 8.63267 1.212C8.727 1.212 8.80418 1.28918 8.80418 1.38351V2.27537Z" fill="#EEF0F2"/>
        <path d="M6.78887 1.24634C6.46586 1.24634 6.20288 1.50932 6.20288 1.83233C6.20288 2.15534 6.46586 2.41832 6.78887 2.41832C7.11189 2.41832 7.37487 2.15534 7.37487 1.83233C7.37487 1.50932 7.11189 1.24634 6.78887 1.24634ZM6.78887 2.30113C6.52875 2.30113 6.31722 2.0896 6.31722 1.82947C6.31722 1.56935 6.52875 1.35782 6.78887 1.35782C7.049 1.35782 7.26053 1.56935 7.26053 1.82947C7.25767 2.0896 7.049 2.30113 6.78887 2.30113Z" fill="#6DC548"/>
        <path d="M9.49022 3.49023V0.17151C9.49022 0.0771796 9.41304 0 9.31871 0H4.25916C4.16483 0 4.08765 0.0771796 4.08765 0.17151V3.49023C4.08765 3.58456 4.16483 3.66174 4.25916 3.66174H9.31871C9.41304 3.66174 9.49022 3.58456 9.49022 3.49023ZM9.26154 3.43306H4.31633V0.22868H9.26154V3.43306Z" fill="#6DC548"/>
        <path d="M8.63275 1.32643C8.37263 1.32643 8.1611 1.1149 8.1611 0.854778C8.1611 0.823334 8.13537 0.797607 8.10393 0.797607H5.47125C5.4398 0.797607 5.41408 0.823334 5.41408 0.854778C5.41408 1.1149 5.20255 1.32643 4.94242 1.32643C4.91098 1.32643 4.88525 1.35216 4.88525 1.3836V2.27545C4.88525 2.3069 4.91098 2.33262 4.94242 2.33262C5.20255 2.33262 5.41408 2.54415 5.41408 2.80428C5.41408 2.83572 5.4398 2.86145 5.47125 2.86145H8.10393C8.13537 2.86145 8.1611 2.83572 8.1611 2.80428C8.1611 2.54415 8.37263 2.33262 8.63275 2.33262C8.6642 2.33262 8.68992 2.3069 8.68992 2.27545V1.3836C8.68992 1.35216 8.66705 1.32643 8.63275 1.32643ZM8.57558 2.21543L8.48983 2.23829C8.28116 2.28975 8.11822 2.45554 8.06391 2.66421L8.04104 2.74997H5.53128L5.50841 2.66421C5.45695 2.45554 5.29116 2.28975 5.08249 2.23829L4.99674 2.21543V1.44649L5.08249 1.42362C5.29116 1.37217 5.4541 1.20637 5.50841 0.997703L5.53128 0.911948H8.04104L8.06391 0.997703C8.11536 1.20637 8.28116 1.36931 8.48983 1.42362L8.57558 1.44649V2.21543Z" fill="#6DC548"/>
        <path d="M8.09538 1.77222H7.85527C7.82382 1.77222 7.7981 1.79794 7.7981 1.82939C7.7981 1.86083 7.82382 1.88656 7.85527 1.88656H8.09538C8.12682 1.88656 8.15255 1.86083 8.15255 1.82939C8.15255 1.79794 8.12682 1.77222 8.09538 1.77222Z" fill="#6DC548"/>
        <path d="M5.72282 1.77222H5.48271C5.45126 1.77222 5.42554 1.79794 5.42554 1.82939C5.42554 1.86083 5.45126 1.88656 5.48271 1.88656H5.72282C5.75426 1.88656 5.77999 1.86083 5.77999 1.82939C5.77999 1.79794 5.75426 1.77222 5.72282 1.77222Z" fill="#6DC548"/>
        <path d="M4.31641 3.43314H9.26162V0.22876H4.31641V3.43314ZM4.43075 0.3431H9.14728V3.3188H4.43075V0.3431Z" fill="#6DC548"/>
        <path d="M8.63259 1.21193C8.43535 1.21193 8.27528 1.05185 8.27528 0.854616C8.27528 0.760285 8.1981 0.683105 8.10377 0.683105H5.47109C5.37675 0.683105 5.29958 0.760285 5.29958 0.854616C5.29958 1.05185 5.1395 1.21193 4.94226 1.21193C4.84793 1.21193 4.77075 1.28911 4.77075 1.38344V2.27529C4.77075 2.36962 4.84793 2.4468 4.94226 2.4468C5.1395 2.4468 5.29958 2.60688 5.29958 2.80412C5.29958 2.89845 5.37675 2.97563 5.47109 2.97563H8.10377C8.1981 2.97563 8.27528 2.89845 8.27528 2.80412C8.27528 2.60688 8.43535 2.4468 8.63259 2.4468C8.72692 2.4468 8.8041 2.36962 8.8041 2.27529V1.38344C8.8041 1.28911 8.72978 1.21193 8.63259 1.21193ZM8.68976 2.27529C8.68976 2.30674 8.66403 2.33246 8.63259 2.33246C8.37247 2.33246 8.16094 2.54399 8.16094 2.80412C8.16094 2.83556 8.13521 2.86129 8.10377 2.86129H5.47109C5.43964 2.86129 5.41392 2.83556 5.41392 2.80412C5.41392 2.54399 5.20239 2.33246 4.94226 2.33246C4.91082 2.33246 4.88509 2.30674 4.88509 2.27529V1.38344C4.88509 1.352 4.91082 1.32627 4.94226 1.32627C5.20239 1.32627 5.41392 1.11474 5.41392 0.854616C5.41392 0.823172 5.43964 0.797446 5.47109 0.797446H8.10377C8.13521 0.797446 8.16094 0.823172 8.16094 0.854616C8.16094 1.11474 8.37247 1.32627 8.63259 1.32627C8.66403 1.32627 8.68976 1.352 8.68976 1.38344V2.27529Z" fill="#6DC548"/>
        <path d="M5.72266 1.65796H5.48255C5.38821 1.65796 5.31104 1.73514 5.31104 1.82947C5.31104 1.9238 5.38821 2.00098 5.48255 2.00098H5.72266C5.81699 2.00098 5.89417 1.9238 5.89417 1.82947C5.89417 1.73514 5.81699 1.65796 5.72266 1.65796ZM5.72266 1.88664H5.48255C5.4511 1.88664 5.42538 1.86091 5.42538 1.82947C5.42538 1.79803 5.4511 1.7723 5.48255 1.7723H5.72266C5.7541 1.7723 5.77983 1.79803 5.77983 1.82947C5.77983 1.86091 5.7541 1.88664 5.72266 1.88664Z" fill="#6DC548"/>
        <path d="M8.06376 0.99762L8.04089 0.911865H5.53112L5.50825 0.99762C5.4568 1.20629 5.29101 1.36923 5.08234 1.42354L4.99658 1.44641V2.21534L5.08234 2.23821C5.29101 2.28966 5.45394 2.45546 5.50825 2.66413L5.53112 2.74988H8.04089L8.06376 2.66413C8.11521 2.45546 8.281 2.28966 8.48967 2.23821L8.57543 2.21534V1.44641L8.48967 1.42354C8.281 1.37208 8.11807 1.20629 8.06376 0.99762ZM7.95513 2.63554H5.62259C5.55971 2.38685 5.36247 2.18962 5.11378 2.12673V1.53502C5.36247 1.47213 5.55971 1.2749 5.62259 1.02621H7.95513C8.01802 1.2749 8.21526 1.47213 8.46395 1.53502V2.12673C8.2124 2.18962 8.01802 2.38685 7.95513 2.63554Z" fill="#6DC548"/>
        <path d="M6.78896 1.13208C6.40306 1.13208 6.08862 1.44366 6.08862 1.82956C6.08862 2.21545 6.40306 2.52989 6.78896 2.52989C7.17485 2.52989 7.48929 2.21545 7.48929 1.82956C7.48643 1.44366 7.17485 1.13208 6.78896 1.13208ZM6.78896 2.41555C6.46595 2.41555 6.20296 2.15257 6.20296 1.82956C6.20296 1.50654 6.46595 1.24356 6.78896 1.24356C7.11197 1.24356 7.37495 1.50654 7.37495 1.82956C7.37495 2.15257 7.11197 2.41555 6.78896 2.41555Z" fill="#6DC548"/>
        <path d="M8.09522 1.65796H7.8551C7.76077 1.65796 7.68359 1.73514 7.68359 1.82947C7.68359 1.9238 7.76077 2.00098 7.8551 2.00098H8.09522C8.18955 2.00098 8.26673 1.9238 8.26673 1.82947C8.26673 1.73514 8.18955 1.65796 8.09522 1.65796ZM8.09522 1.88664H7.8551C7.82366 1.88664 7.79793 1.86091 7.79793 1.82947C7.79793 1.79803 7.82366 1.7723 7.8551 1.7723H8.09522C8.12666 1.7723 8.15239 1.79803 8.15239 1.82947C8.15239 1.86091 8.12666 1.88664 8.09522 1.88664Z" fill="#6DC548"/>
        <path d="M6.78904 1.3606C6.52891 1.3606 6.31738 1.57213 6.31738 1.82939C6.31738 2.08951 6.52891 2.30104 6.78904 2.30104C7.04916 2.30104 7.26069 2.08951 7.26069 1.82939C7.25783 1.57213 7.04916 1.3606 6.78904 1.3606ZM6.78904 2.1867C6.5918 2.1867 6.43172 2.02663 6.43172 1.82939C6.43172 1.63215 6.5918 1.47208 6.78904 1.47208C6.98627 1.47208 7.14635 1.63215 7.14635 1.82939C7.14635 2.02663 6.98341 2.1867 6.78904 2.1867Z" fill="#6DC548"/>
    </g>
    <defs>
        <clipPath id="clip0_1910_5930">
            <rect width="12" height="9.02716" fill="white"/>
        </clipPath>
    </defs>
</svg>
