<svg width="19" height="23" viewBox="0 0 19 23" fill="none" xmlns="http://www.w3.org/2000/svg">
    <path d="M17.9538 16.0449L16.1082 14.1954V9.63821C16.1328 7.94594 15.5421 6.30196 14.4453 5.00983C13.3485 3.7177 11.8197 2.86467 10.141 2.60827C9.16678 2.48041 8.1764 2.56108 7.23593 2.84489C6.29547 3.12871 5.42656 3.60914 4.68717 4.25414C3.94778 4.89913 3.35492 5.69386 2.94814 6.58529C2.54137 7.47672 2.33003 8.44436 2.32824 9.42364V14.1954L0.482705 16.0449C0.250892 16.2797 0.0936909 16.5775 0.0307548 16.9009C-0.0321813 17.2243 0.00193988 17.5591 0.128853 17.8633C0.255765 18.1675 0.469839 18.4277 0.744311 18.6113C1.01878 18.7949 1.34148 18.8938 1.67205 18.8957H5.11705V19.2431C5.16494 20.2804 5.6235 21.2565 6.39224 21.9575C7.16098 22.6585 8.1772 23.0272 9.21824 22.9828C10.2593 23.0272 11.2755 22.6585 12.0442 21.9575C12.813 21.2565 13.2715 20.2804 13.3194 19.2431V18.8957H16.7644C17.095 18.8938 17.4177 18.7949 17.6922 18.6113C17.9666 18.4277 18.1807 18.1675 18.3076 17.8633C18.4345 17.5591 18.4687 17.2243 18.4057 16.9009C18.3428 16.5775 18.1856 16.2797 17.9538 16.0449ZM11.2688 19.2431C11.212 19.7346 10.967 20.1852 10.585 20.5012C10.203 20.8172 9.71344 20.9741 9.21824 20.9393C8.72303 20.9741 8.23344 20.8172 7.85144 20.5012C7.46944 20.1852 7.2245 19.7346 7.16764 19.2431V18.8957H11.2688V19.2431Z" fill="white"/>
    <rect x="7.91455" width="2.34133" height="3.5" fill="white"/>
</svg>
