<svg width="12" height="12" viewBox="0 0 12 12" fill="none" xmlns="http://www.w3.org/2000/svg">
    <path d="M2.39983 6H1.99976V6.40008H2.39983V6Z" fill="url(#paint0_linear_1931_5599)"/>
    <path d="M3.60003 6H3.19995V6.40008H3.60003V6Z" fill="url(#paint1_linear_1931_5599)"/>
    <path d="M4.79998 6H4.3999V6.40008H4.79998V6Z" fill="url(#paint2_linear_1931_5599)"/>
    <path d="M5.99993 6H5.59985V6.40008H5.99993V6Z" fill="url(#paint3_linear_1931_5599)"/>
    <path d="M11.8001 2.4H9.6V0H8.4V2.4H6.40008V0.799922H3.19992V0.400078H1.99992V0.800156H1.2V5.30625C0.481875 5.55984 0.00117187 6.23836 0 7.00008V7.2H0.307969C-0.133594 7.69429 -0.0909375 8.45273 0.403125 8.89429C0.40664 8.89758 0.41039 8.90062 0.413906 8.9039C0.160078 9.04383 0.001875 9.31008 0 9.6C0.000703125 9.74109 0.0391406 9.87914 0.112031 10.0001H0V10.2C0 11.1942 0.805781 12 1.8 12H6.19992C6.41156 11.9991 6.62133 11.9611 6.81984 11.888C6.85336 11.9566 6.92344 12.0002 6.99984 12H10.9999C11.1028 12.0007 11.1895 11.9227 11.1998 11.82L12 3.82008C12 3.82008 12 3.82008 12 3.81C12 3.79992 12 3.81 12 3.79992V2.59992C12 2.48953 11.9105 2.4 11.8001 2.4ZM8.80008 0.400078H9.20015V2.4H8.80008V0.400078ZM11.5999 2.80008V3.6H6.40008V2.80008H11.5999ZM5.59992 1.2H6V3.19992H5.59992V1.2ZM4.8 1.2H5.20008V3.19992H4.8V1.2ZM4.00008 1.2H4.40016V3.19992H4.00008V1.2ZM3.6 1.2V3.19992H3.19992V1.2H3.6ZM2.80008 0.799922V3.19992H2.4V0.799922H2.80008ZM1.60008 1.2H2.00016V3.19992H1.60008V1.2ZM1.60008 5.20008V3.6H6V3.79992L6.13805 5.19984L1.60008 5.20008ZM1.8 5.59992H6.19992C6.89601 5.59969 7.4864 6.11086 7.58601 6.79992H0.413906C0.513515 6.11109 1.10391 5.59992 1.8 5.59992ZM6.79992 8.80008H1.2C0.765703 8.80031 0.410859 8.45414 0.400078 8.02008C0.516797 8.04914 0.626719 8.09976 0.723984 8.17008C0.940078 8.325 1.20047 8.40562 1.46602 8.4C1.72898 8.40375 1.98609 8.32312 2.20008 8.17008C2.35266 8.05383 2.54039 7.99383 2.73211 8.00015C2.92172 7.99547 3.10711 8.05547 3.25805 8.17008C3.47414 8.325 3.73453 8.40562 4.00008 8.4C4.26515 8.40492 4.52461 8.32429 4.74 8.17008C5.05476 7.94343 5.47922 7.94343 5.79398 8.17008C6.23976 8.47664 6.82828 8.47664 7.27406 8.17008C7.37203 8.09953 7.48265 8.04867 7.60008 8.02008C7.58929 8.4539 7.23422 8.80031 6.79992 8.80008ZM7.87008 7.2H8.00015V7.00008C7.99968 6.77484 7.95703 6.55172 7.87406 6.34195C7.8907 6.32531 7.90476 6.30656 7.91601 6.28594C8.19914 5.68664 8.91468 5.43047 9.51351 5.71383C10.1128 5.99695 10.369 6.7125 10.0856 7.31133C9.8025 7.91062 9.08695 8.16679 8.48812 7.88343C8.19937 7.74726 7.97672 7.50117 7.87008 7.2ZM6.79992 7.2C7.09734 7.20164 7.36922 7.36804 7.50586 7.63195C7.34578 7.66992 7.19461 7.73765 7.05984 7.83187C6.74508 8.05851 6.32062 8.05851 6.00586 7.83187C5.55937 7.52508 4.97015 7.52508 4.5239 7.83187C4.20984 8.05875 3.78586 8.05875 3.47203 7.83187C3.25687 7.67672 2.99719 7.59539 2.73211 7.59984C2.46984 7.59656 2.2132 7.67695 2.00016 7.82976C1.84711 7.94648 1.65844 8.00648 1.46625 7.99969C1.27664 8.00437 1.09125 7.94437 0.940312 7.82976C0.805078 7.73648 0.653906 7.66851 0.494297 7.62984C0.63164 7.36664 0.903515 7.20094 1.20023 7.19976L6.79992 7.2ZM0.400078 9.6C0.400078 9.37898 0.57914 9.19992 0.800156 9.19992H7.2C7.42101 9.19992 7.60008 9.37898 7.60008 9.6C7.60008 9.82101 7.42101 10.0001 7.2 10.0001H0.799922C0.578906 10.0001 0.400078 9.82101 0.400078 9.6ZM1.8 11.5999C1.10391 11.6002 0.513281 11.089 0.413906 10.3999H7.58601C7.48664 11.089 6.89601 11.6002 6.19992 11.5999H1.8ZM10.8199 11.5999H7.32797C7.75219 11.2589 7.99922 10.7442 7.99992 10.2V10.0001H7.88789C7.96078 9.87937 7.99922 9.74109 7.99992 9.6C7.99804 9.31031 7.83984 9.04383 7.58601 8.9039C7.8375 8.6864 7.9875 8.37398 7.99992 8.04187C8.68593 8.59898 9.69351 8.49445 10.2506 7.80843C10.8077 7.12242 10.7032 6.11484 10.0172 5.55773C9.72984 5.3243 9.37031 5.19773 9 5.19984C8.45343 5.20055 7.94508 5.48039 7.65187 5.94187C7.38515 5.57461 6.98929 5.32172 6.54398 5.23383L6.42 3.99984H11.58L10.8199 11.5999Z" fill="#EA5B44"/>
    <defs>
        <linearGradient id="paint0_linear_1931_5599" x1="-0.0661048" y1="6.20001" x2="11.9341" y2="6.20001" gradientUnits="userSpaceOnUse">
            <stop stop-color="white"/>
            <stop offset="1" stop-color="#D9D9D9"/>
        </linearGradient>
        <linearGradient id="paint1_linear_1931_5599" x1="-0.0659104" y1="6.20001" x2="11.9343" y2="6.20001" gradientUnits="userSpaceOnUse">
            <stop stop-color="white"/>
            <stop stop-color="#D9D9D9"/>
            <stop offset="0.0001" stop-color="#D9D9D9"/>
            <stop offset="1" stop-color="#BBBBBB"/>
        </linearGradient>
        <linearGradient id="paint2_linear_1931_5599" x1="-0.0659594" y1="6.20001" x2="11.9343" y2="6.20001" gradientUnits="userSpaceOnUse">
            <stop stop-color="white"/>
            <stop offset="1" stop-color="#D9D9D9"/>
        </linearGradient>
        <linearGradient id="paint3_linear_1931_5599" x1="-0.0660085" y1="6.20001" x2="11.9342" y2="6.20001" gradientUnits="userSpaceOnUse">
            <stop stop-color="white"/>
            <stop offset="1" stop-color="#D9D9D9"/>
        </linearGradient>
    </defs>
</svg>
