<svg width="60" height="60" viewBox="0 0 60 60" fill="none" xmlns="http://www.w3.org/2000/svg">
    <circle cx="30" cy="30" r="30" fill="#D4D8DF"/>
    <path d="M33.7838 34.8523C33.288 34.9477 31.3077 37.5397 31.3077 37.5397L31.2378 37.7192C31.2378 37.7192 34.8209 37.33 34.9506 37.1803C35.301 36.7764 34.191 34.7741 33.7838 34.8523ZM31.3327 37.5949C31.9864 36.7786 33.4762 35.5867 33.7981 35.3336C34.0854 35.6202 34.5187 36.4655 34.5757 36.8474C34.1641 36.9302 32.3782 37.4714 31.3327 37.5949Z" fill="#485B78"/>
    <path d="M28.9836 35.295C28.0088 34.6739 27.7412 34.6788 27.4571 34.836C27.173 34.9932 26.1258 36.4609 26.5939 36.9186C27.0619 37.3763 30.775 37.7028 30.775 37.7028L30.8586 37.4811C30.8589 37.4811 29.9584 35.9161 28.9836 35.295ZM27.2391 36.7574C27.0227 36.5466 27.5615 35.6679 27.8072 35.4809C27.8698 35.4464 30.3681 36.999 30.7166 37.5293C29.3225 37.3817 27.4409 36.9323 27.2391 36.7574Z" fill="#485B78"/>
    <path d="M30.805 38.3908H31.014C31.221 38.3908 31.3888 38.2269 31.3888 38.0247V37.4242C31.3888 37.222 31.221 37.0581 31.014 37.0581H30.805C30.598 37.0581 30.4302 37.222 30.4302 37.4242V38.0247C30.4302 38.2269 30.598 38.3908 30.805 38.3908Z" fill="#485B78"/>
    <path d="M38.7259 37.7302L21.7395 37.6807C21.2876 37.6793 20.9407 38.0722 21.0085 38.5091L21.2714 40.202L22.1229 40.2004L22.6359 48.7204C22.6633 49.1762 23.0497 49.5324 23.5169 49.5324H37.0749L37.6389 40.1691L38.441 40.1675L38.7259 37.7302Z" fill="#EA5B44"/>
    <path d="M37.3658 49.5322H26.959L26.4019 37.9067H38.7662L38.2476 48.7239C38.2257 49.176 37.8374 49.5322 37.3658 49.5322Z" fill="#EA5B44"/>
    <path d="M39.2757 40.1732L25.8532 40.208L25.5469 37.6855L38.6957 37.7348C39.1276 37.7364 39.4654 38.0988 39.427 38.5188L39.2757 40.1732Z" fill="#EA5B44"/>
    <path d="M25.8535 40.2077L38.6557 40.1729L26.2596 40.8339L25.8535 40.2077Z" fill="#EA5B44"/>
    <path d="M31.2468 37.7051H30.8906V40.1964H31.2468V37.7051Z" fill="#485B78"/>
    <path d="M32.3691 40.1846H31.9238V49.5498H32.3691V40.1846Z" fill="#485B78"/>
    <path d="M21.6207 32.8189C22.8061 33.2683 23.7825 33.5707 24.7565 33.8235C25.0776 33.9068 25.6093 34.1441 25.9049 33.9328C26.0585 33.823 26.1229 33.6577 26.0327 33.4818C25.8671 33.1596 25.3557 33.1365 25.0318 33.0524C24.0455 32.7958 22.9421 32.4597 21.8469 32.0569C21.6415 31.9814 21.4013 32.133 21.3437 32.3274C21.2779 32.5484 21.4156 32.7412 21.6207 32.8189Z" fill="#D9D9D9"/>
    <path d="M29.2095 31.0397C28.8596 28.4232 28.8826 28.4165 28.734 28.1696C28.5818 27.9165 28.1653 27.951 28.083 28.2441C28.0019 28.5336 28.0205 28.4872 28.3989 31.2389C28.4291 31.4577 28.7049 31.5847 28.9062 31.5351C29.1464 31.4762 29.2388 31.2593 29.2095 31.0397Z" fill="#D9D9D9"/>
    <path d="M33.5164 31.3758C33.7816 31.0266 34.0053 30.6535 34.1882 30.2571C34.3583 29.8888 34.6698 29.3465 34.3777 28.9814C34.3149 28.9032 34.1674 28.8657 34.0725 28.8976C33.6763 29.031 33.6009 29.5736 33.4427 29.9129C33.2699 30.2828 33.0566 30.635 32.8221 30.9706C32.699 31.1468 32.7821 31.4074 32.9617 31.5124C33.1649 31.6305 33.3862 31.5478 33.5164 31.3758Z" fill="#D9D9D9"/>
    <path d="M39.4795 33.3645C39.5994 33.2038 39.4987 32.9954 39.3581 32.8929C39.0679 32.6815 38.5565 32.8765 38.2401 32.9617C37.8716 33.0611 37.5162 33.1952 37.169 33.3506C36.9686 33.4403 36.9135 33.7178 37.0152 33.8937C37.1345 34.0997 37.367 34.127 37.571 34.044C38.904 33.5016 39.1837 33.7612 39.4795 33.3645Z" fill="#D9D9D9"/>
    <path d="M40.9993 20.8486C41.0075 20.8231 41.2063 20.4523 41.4625 20.0495C42.6554 18.1733 44.4242 16.3651 46.4986 16.4331L46.5 16.4192C45.5622 16.3069 44.6432 16.5795 43.8367 17.0656C42.5059 17.8487 41.2094 19.3412 40.5 20.4883L40.9993 20.8486Z" fill="#485B78"/>
    <path d="M45.5687 17.7336L45.6976 16.8208L45.0397 16.1941C44.9646 16.1228 45.0019 15.9939 45.1026 15.9761L45.9863 15.8202L46.3625 14.9828C46.4053 14.8874 46.5359 14.884 46.5834 14.9769L47.0008 15.7934L47.8912 15.9026C47.9925 15.9151 48.0362 16.0418 47.9649 16.1169L47.3392 16.7777L47.5133 17.6825C47.5332 17.7856 47.4294 17.8673 47.3378 17.8208L46.5337 17.4125L45.751 17.8626C45.6617 17.9137 45.5542 17.8376 45.5687 17.7336Z" fill="#485B78"/>
    <path d="M23.0916 13.646L22.9564 14.081L23.3618 14.3764L23.1703 14.8546L23.7143 15.054L23.5253 15.6029L24 15.84L23.9177 16.394L23.6758 16.3671L23.7372 15.9529L23.2365 15.7027L23.4181 15.175L22.8649 14.9723L23.0763 14.4446L22.6803 14.156L22.8056 13.7529L22.5 13.6104L22.6154 13.4243L23.0916 13.646Z" fill="#EA5B44"/>
    <path d="M14.4313 22.1882L14.3024 21.2754L14.9604 20.6488C15.0353 20.5774 14.9981 20.4486 14.8975 20.4307L14.0137 20.2747L13.6376 19.4374C13.5947 19.342 13.4642 19.3385 13.4168 19.4315L12.9994 20.2479L12.1088 20.3569C12.0074 20.3693 11.9639 20.496 12.0351 20.5713L12.6609 21.2319L12.4867 22.1368C12.4669 22.2399 12.5705 22.3217 12.662 22.2751L13.4662 21.8669L14.249 22.317C14.3383 22.3684 14.4461 22.2922 14.4313 22.1882Z" fill="#485B78"/>
    <path d="M21 16.2585L20.9642 15.7808L20.4155 15.7785L20.3548 15.309L19.8309 15.2543L19.7148 14.9092L19.5 14.9569L19.6552 15.4188L20.1517 15.4706L20.215 15.9588L20.7543 15.9611L20.7869 16.394L21 16.2585Z" fill="#F48C7F"/>
    <path d="M37.2581 14.9092L37.2267 15.3534L36.5907 15.3748L36.4738 16.018L36 16.1225L36.0467 16.394L36.6802 16.2546L36.791 15.6452L37.4525 15.623L37.5 14.9543L37.2581 14.9092Z" fill="#EA5B44"/>
    <path d="M32.4628 20.7592C35.2425 21.6188 36.7463 24.5496 35.8225 27.3056C34.8983 30.061 31.8966 31.5983 29.1169 30.7386C26.3378 29.8786 24.8334 26.9482 25.7572 24.1922C26.6811 21.4361 29.6831 19.8995 32.4628 20.7592Z" fill="#FFF3D9"/>
    <path d="M34.2831 24.7112L32.5425 26.3148L32.87 28.6128C32.8964 28.7988 32.6945 28.9371 32.5287 28.8478L30.4736 27.7398L28.3515 28.7971C28.1805 28.8826 27.9873 28.7385 28.0256 28.554L28.4957 26.2656L26.8566 24.6209C26.724 24.4882 26.8068 24.2603 26.9959 24.2357L29.3413 23.9292L30.4511 21.8556C30.5409 21.6877 30.7847 21.6909 30.864 21.8608L31.8432 23.9596L34.1678 24.3223C34.3555 24.3521 34.4237 24.5818 34.2831 24.7112Z" fill="#FED333"/>
    <path d="M40.7665 29.4933C40.7867 29.298 40.6195 28.9855 40.4992 28.7935L40.3649 28.5215C40.3024 28.5305 39.3087 29.0038 39.0387 29.1852C39.0944 29.3086 39.1502 29.4064 39.202 29.457C39.4507 29.6995 41.0874 31.2602 41.0874 31.2602L41.8535 30.7369C41.8537 30.7367 40.8826 29.8117 40.7665 29.4933Z" fill="#EA5B44"/>
    <path d="M40.4634 28.6397C40.4634 28.6397 40.3788 29.0392 40.5866 29.8464C40.5866 29.8464 39.2437 29.5687 39.0739 29.3035C38.8492 28.9527 40.0727 29.0477 40.0727 29.0477L40.4634 28.6397Z" fill="#F47458"/>
</svg>
