<svg width="60" height="60" viewBox="0 0 60 60" fill="none" xmlns="http://www.w3.org/2000/svg">
    <circle cx="30" cy="30" r="30" fill="url(#paint0_linear_0_1)"/>
    <g clip-path="url(#clip0_0_1)">
        <path d="M34.0645 28.0627C33.1751 28.0634 32.3725 27.4856 32.0267 26.5954C31.9012 26.2728 32.0398 25.901 32.3375 25.7647C32.6344 25.6283 32.9766 25.7789 33.1021 26.1016C33.3268 26.6794 33.9397 26.9497 34.4709 26.7056C35.0028 26.4614 35.2516 25.7956 35.0268 25.2185C34.8634 24.7984 34.484 24.5249 34.0645 24.5249C32.8431 24.5257 31.8523 23.4509 31.8516 22.1239C31.8508 20.797 32.8402 19.7205 34.0616 19.7197C34.8941 19.7189 35.6565 20.227 36.0337 21.0332C36.1796 21.3455 36.0658 21.7276 35.7783 21.8861C35.4909 22.0446 35.1392 21.921 34.9933 21.6087C34.7321 21.0498 34.1039 20.8271 33.5895 21.1109C33.0751 21.3947 32.8701 22.0771 33.1313 22.636C33.3093 23.0165 33.669 23.2567 34.0623 23.2567C35.2837 23.2804 36.2562 24.3759 36.2336 25.7036C36.2117 26.9965 35.2523 28.0397 34.0623 28.0627H34.0645Z" fill="#485B78"/>
        <path d="M34.0642 20.9881C33.7417 20.9881 33.4805 20.7043 33.4805 20.3539V19.0365C33.4805 18.6861 33.7417 18.4023 34.0642 18.4023C34.3866 18.4023 34.6479 18.6861 34.6479 19.0365V20.3539C34.6479 20.7043 34.3866 20.9881 34.0642 20.9881Z" fill="#485B78"/>
        <path d="M34.0642 29.3801C33.7417 29.3801 33.4805 29.0964 33.4805 28.746V27.4286C33.4805 27.0782 33.7417 26.7944 34.0642 26.7944C34.3866 26.7944 34.6479 27.0782 34.6479 27.4286V28.746C34.6479 29.0964 34.3866 29.3801 34.0642 29.3801Z" fill="#485B78"/>
        <path d="M34.0644 31.7654C30.0639 31.7606 26.8215 28.238 26.8164 23.8917C26.8164 23.6848 26.8237 23.478 26.8383 23.2758C26.8682 22.927 27.1528 22.671 27.4738 22.7035C27.7875 22.7352 28.0217 23.0325 28.002 23.3741C27.9896 23.5437 27.9838 23.7181 27.9838 23.8917C27.9882 27.5404 30.7147 30.4939 34.0731 30.4884C37.4316 30.4828 40.1501 27.5214 40.145 23.8727C40.145 23.5945 40.1282 23.3162 40.0954 23.0396C40.0954 23.0396 40.0954 23.0341 40.0954 23.0309C40.029 22.4792 39.8984 21.9394 39.7065 21.4241C39.7065 21.417 39.7007 21.4106 39.6985 21.4043C38.437 18.0259 34.894 16.3978 31.7836 17.7683C30.7775 18.2114 29.899 18.9399 29.2402 19.8768C29.049 20.159 28.6835 20.2185 28.4237 20.0108C28.164 19.8031 28.1093 19.406 28.3004 19.1238C28.3048 19.1174 28.3092 19.1103 28.3143 19.104C30.7446 15.6519 35.2909 14.9939 38.4683 17.6343C39.4898 18.4833 40.2843 19.6113 40.7717 20.9041C40.7746 20.9105 40.7776 20.9176 40.7798 20.9247C41.0147 21.5502 41.1737 22.2057 41.254 22.8755V22.8874C41.2927 23.2203 41.3124 23.5548 41.3124 23.8901C41.3073 28.238 38.0649 31.7606 34.0644 31.7654Z" fill="#485B78"/>
        <path d="M17.1388 17.7594C16.8163 17.7682 16.5485 17.4915 16.5398 17.142C16.531 16.7924 16.7864 16.5007 17.1081 16.4912C18.0909 16.4357 19.3284 16.2993 19.6129 16.1741C21.8499 15.2142 27.4103 13.2119 30.6702 15.406C30.7111 15.4314 30.9569 15.5748 32.4162 16.3929C32.7029 16.5538 32.8145 16.9367 32.6664 17.2482C32.5183 17.5597 32.1659 17.681 31.8792 17.5201C30.1675 16.5585 30.0945 16.5118 30.0624 16.4888C27.1761 14.5372 21.6638 16.6584 20.0441 17.3568C19.4349 17.6191 17.5423 17.738 17.1694 17.7587L17.1388 17.7594Z" fill="#485B78"/>
        <path d="M18.3303 25.6094H17.1389C16.8164 25.6094 16.5552 25.3256 16.5552 24.9752C16.5552 24.6249 16.8164 24.3411 17.1389 24.3411H18.3303C19.3948 24.3363 20.444 24.0668 21.3984 23.5547C22.4198 23.0094 25.3879 22.7264 25.7899 22.7193L29.3234 22.6519C29.9275 22.6416 30.4105 22.1018 30.4011 21.4446C30.4011 21.4431 30.4011 21.4415 30.4011 21.4399V21.2814C30.3916 20.625 29.8947 20.1003 29.2899 20.1106C29.2884 20.1106 29.2869 20.1106 29.2855 20.1106L24.7312 20.197H24.721C24.3985 20.2001 24.1351 19.9187 24.1322 19.5684C24.1293 19.218 24.3883 18.9319 24.7108 18.9287L29.265 18.8423H29.3052C30.539 18.8455 31.5436 19.9187 31.567 21.2592V21.4177C31.5874 22.7755 30.5929 23.8948 29.3431 23.9202L25.8096 23.9868C25.2507 23.9979 22.6168 24.3165 21.9127 24.693C20.7986 25.2907 19.5729 25.6038 18.3303 25.6094Z" fill="#485B78"/>
        <path d="M17.1387 28.1009H12.5837C12.2612 28.1009 12 27.8171 12 27.4668V14.6341C12 14.2838 12.2612 14 12.5837 14H17.1387C17.4612 14 17.7224 14.2838 17.7224 14.6341V27.4668C17.7224 27.8171 17.4612 28.1009 17.1387 28.1009ZM13.1674 26.8326H16.555V15.2683H13.1674V26.8326Z" fill="#485B78"/>
        <path d="M14.8615 26.0596C14.539 26.0596 14.2778 25.7758 14.2778 25.4255V22.5306C14.2778 22.1803 14.539 21.8965 14.8615 21.8965C15.184 21.8965 15.4452 22.1803 15.4452 22.5306V25.4255C15.4452 25.7758 15.184 26.0596 14.8615 26.0596Z" fill="#485B78"/>
        <path d="M31.0928 44.5832C29.7218 44.5832 28.4005 44.3153 27.328 43.5916C27.0325 43.4069 22.0076 40.604 18.693 38.7602C17.5555 38.1007 17.125 36.5645 17.7313 35.3287C18.3223 34.1247 19.6853 33.6443 20.8147 34.242L27.444 37.9113C27.7314 38.0698 27.8453 38.4519 27.6993 38.7642C27.5534 39.0765 27.2017 39.2002 26.9143 39.0416L20.285 35.366C19.7093 35.0473 19.0053 35.2962 18.7119 35.9217C18.4186 36.5471 18.6477 37.312 19.2234 37.6307C20.6345 38.4154 27.6811 42.3368 27.9401 42.512C30.8265 44.4628 36.3365 42.34 37.957 41.64C38.5655 41.3777 40.4581 41.2596 40.8309 41.2382C41.1534 41.2199 41.4285 41.4894 41.4453 41.8398C41.462 42.1902 41.214 42.489 40.8915 42.5064C39.9087 42.5619 38.6713 42.6983 38.3867 42.8235C36.8837 43.4687 33.8886 44.5832 31.0928 44.5832Z" fill="#485B78"/>
        <path d="M28.6981 40.1529C27.4644 40.1497 26.4597 39.0764 26.4363 37.736V37.5775C26.4159 36.2196 27.4104 35.1004 28.6602 35.075L32.1937 35.0084C32.7526 34.9973 35.3865 34.6787 36.0906 34.3021C37.2054 33.7053 38.4312 33.3929 39.6737 33.3882H40.8652C41.1877 33.3882 41.4489 33.672 41.4489 34.0223C41.4489 34.3727 41.1877 34.6565 40.8652 34.6565H39.6701C38.6056 34.662 37.5564 34.9323 36.6021 35.4452C35.5806 35.9905 32.6125 36.2735 32.2105 36.2807L28.677 36.348C28.0729 36.3583 27.5899 36.8982 27.5993 37.5553C27.5993 37.5569 27.5993 37.5585 27.5993 37.56V37.7186C27.611 38.3757 28.1101 38.8989 28.7149 38.8894L33.2692 38.803C33.5917 38.7966 33.8572 39.0756 33.8631 39.426C33.8689 39.7764 33.6121 40.0649 33.2896 40.0712L28.7354 40.1576L28.6981 40.1529Z" fill="#485B78"/>
        <path d="M45.4165 44.9999H40.8615C40.539 44.9999 40.2778 44.7161 40.2778 44.3657V31.5331C40.2778 31.1827 40.539 30.8989 40.8615 30.8989H45.4165C45.739 30.8989 46.0002 31.1827 46.0002 31.5331V44.3657C46.0002 44.7161 45.739 44.9999 45.4165 44.9999ZM41.4452 43.7316H44.8328V32.1672H41.4452V43.7316Z" fill="#485B78"/>
        <path d="M43.1384 37.1036C42.8159 37.1036 42.5547 36.8198 42.5547 36.4694V33.5746C42.5547 33.2242 42.8159 32.9404 43.1384 32.9404C43.4609 32.9404 43.7221 33.2242 43.7221 33.5746V36.4694C43.7221 36.8198 43.4609 37.1036 43.1384 37.1036Z" fill="#485B78"/>
    </g>
    <defs>
        <linearGradient id="paint0_linear_0_1" x1="30" y1="0" x2="30" y2="60" gradientUnits="userSpaceOnUse">
            <stop stop-color="#D4D8DF"/>
            <stop offset="1" stop-color="#E9EDF4"/>
        </linearGradient>
        <clipPath id="clip0_0_1">
            <rect width="34" height="31" fill="white" transform="translate(12 14)"/>
        </clipPath>
    </defs>
</svg>
