<svg width="36" height="36" viewBox="0 0 36 36" fill="none" xmlns="http://www.w3.org/2000/svg">
    <circle cx="17.901" cy="17.6364" r="17.6364" fill="#8B97A7"/>
    <g clip-path="url(#clip0_1897_5598)">
        <path fill-rule="evenodd" clip-rule="evenodd" d="M28.9408 17.6482L30.3655 13.2183H21.1093L19.6846 17.6482V25.7952H28.9408V17.6482Z" fill="white"/>
        <path fill-rule="evenodd" clip-rule="evenodd" d="M28.9409 17.6482L30.3656 13.2183L31.6825 17.6482V25.7952H28.9409V17.6482Z" fill="#485B78"/>
        <path fill-rule="evenodd" clip-rule="evenodd" d="M30.3656 13.2179H21.1094C20.6391 13.2179 20.2549 12.8193 20.2549 12.3326C20.2549 11.8453 20.6396 11.4473 21.1094 11.4473H30.3656C30.8359 11.4473 31.2201 11.8459 31.2201 12.3326C31.2206 12.8193 30.8359 13.2179 30.3656 13.2179Z" fill="#485B78"/>
        <path fill-rule="evenodd" clip-rule="evenodd" d="M24.9502 20.6007C25.0913 19.267 25.2947 18.3181 26.4436 17.3797C26.4679 17.36 26.4991 17.3561 26.5271 17.3704C26.5551 17.3846 26.5715 17.412 26.5715 17.4443V21.273H25.6224L25.6314 20.7151L24.9502 20.6007Z" fill="#CFD1D3"/>
        <path fill-rule="evenodd" clip-rule="evenodd" d="M22.2808 18.5195H24.0648V19.1114C24.0648 19.309 23.9945 19.4788 23.8561 19.6151L23.6215 19.8462H22.7236L22.489 19.6151C22.3506 19.4788 22.2803 19.309 22.2803 19.1114V18.5195H22.2808Z" fill="#CFD1D3"/>
        <path fill-rule="evenodd" clip-rule="evenodd" d="M10.2124 16.509L11.7454 15.5415L13.559 17.5974L11.6529 18.5862L10.2124 16.509Z" fill="white" fill-opacity="0.15"/>
        <path fill-rule="evenodd" clip-rule="evenodd" d="M16.3191 15.7344L17.7057 16.2364L17.2592 18.5316L15.8984 17.4399L16.3191 15.7344Z" fill="white" fill-opacity="0.15"/>
        <path fill-rule="evenodd" clip-rule="evenodd" d="M15.1002 19.7906L13.9561 17.727L13.9551 17.7254C13.9524 17.7199 13.9477 17.7144 13.944 17.71L11.8862 15.3771L12.4178 13.8802L12.6218 13.97C12.9986 14.1353 13.4002 14.2136 13.8092 14.2136C13.8388 14.2136 13.869 14.2131 13.8985 14.2125C14.0914 14.207 14.2806 14.1939 14.4703 14.1578C14.7234 14.1096 14.9702 14.0285 15.2038 13.9152L15.4025 13.8188L16.1339 15.601L15.1002 19.7906Z" fill="#F9CDAF"/>
        <path fill-rule="evenodd" clip-rule="evenodd" d="M14.4328 13.9411C14.2537 13.9751 14.0745 13.9877 13.8933 13.9926C12.9389 14.0189 12.0934 13.5863 11.5333 12.7853C10.9393 11.9367 10.5229 10.8504 10.2053 9.86106L10.1128 9.57306H13.7421C14.381 9.57306 14.9449 9.31847 15.3809 8.83447L16.6 7.48047L16.6835 7.89439C16.9192 9.06607 16.9308 10.2241 16.7384 11.4039L16.7374 11.4094L16.7363 11.4149C16.6872 11.6438 16.6243 11.8704 16.545 12.0905C16.192 13.0684 15.4258 13.7528 14.4328 13.9411Z" fill="#F9CDAF"/>
        <path fill-rule="evenodd" clip-rule="evenodd" d="M10.3579 11.6213C10.1857 11.6552 10.0076 11.6366 9.84641 11.5638C9.64613 11.4729 9.49023 11.307 9.4152 11.094C9.34016 10.881 9.35654 10.65 9.45272 10.4469C9.52564 10.293 9.63978 10.166 9.78088 10.0767L10.0044 9.93604L10.0905 10.1923C10.2184 10.5728 10.3574 10.95 10.5128 11.3191L10.6185 11.5704L10.3579 11.6213Z" fill="#F9CDAF"/>
        <path fill-rule="evenodd" clip-rule="evenodd" d="M21.8725 23.9053C22.0326 23.8686 22.1858 23.9042 22.3158 24.0087C22.4458 24.1133 22.5166 24.2562 22.523 24.427L22.524 24.4654C22.5298 24.7046 22.3999 24.9483 22.1636 25.0063L19.5426 25.6513C19.4897 25.6644 19.4548 25.7164 19.4622 25.7723C19.4696 25.8281 19.5167 25.8686 19.5711 25.867L24.3974 25.6934C24.5485 25.688 24.6822 25.74 24.7911 25.8495C24.901 25.9595 24.9554 26.0948 24.9538 26.2519V26.2618C24.9512 26.5487 24.7435 26.7879 24.4655 26.8087L20.3822 27.112C19.319 27.1909 18.2701 27.3738 17.2327 27.6229C16.2519 27.8583 15.287 28.1512 14.3247 28.4567C14.0462 28.5449 13.792 28.5525 13.504 28.5586C13.4644 28.5597 13.4247 28.5602 13.3851 28.5613C12.7409 28.5794 12.241 28.2312 11.7575 27.8293L8.83838 25.4049L11.961 23.752L13.3085 25.7964C13.3328 25.8336 13.3761 25.8517 13.4184 25.8418L21.8725 23.9053Z" fill="#F9CDAF"/>
        <path fill-rule="evenodd" clip-rule="evenodd" d="M25.301 20.3266L25.683 20.3906C25.8384 20.4164 25.952 20.5571 25.9494 20.7202L25.9457 20.9442H26.2553V17.9914C25.5921 18.6835 25.413 19.404 25.301 20.3266ZM26.3568 23.8394L26.268 21.6012H25.9145L25.7322 23.8268C25.7253 23.9128 25.7475 23.9796 25.804 24.0436C25.86 24.1071 25.9224 24.1356 26.0059 24.1356H26.0825C26.1634 24.1356 26.2241 24.1088 26.2802 24.048C26.3362 23.9872 26.3594 23.9232 26.3568 23.8394ZM24.6356 20.5647C24.7751 19.2463 24.9823 18.1557 26.2479 17.1214C26.3679 17.0234 26.528 17.0054 26.6654 17.0743C26.8038 17.1439 26.8895 17.2851 26.8895 17.4434V21.2656L26.9904 23.812C27.0004 24.0743 26.9132 24.313 26.7378 24.5025C26.5623 24.6919 26.3356 24.7921 26.0825 24.7921H26.0059C25.7448 24.7921 25.5134 24.687 25.3369 24.4877C25.1604 24.2884 25.0785 24.0409 25.1007 23.7715L25.3062 21.2562L25.3105 20.994L24.9004 20.925C24.7334 20.8971 24.6171 20.7388 24.6356 20.5647ZM24.7419 26.2507C24.7429 26.1521 24.7117 26.0744 24.6436 26.0065C24.5765 25.9386 24.5004 25.9085 24.4042 25.9123L19.5779 26.0859C19.4146 26.0924 19.274 25.9692 19.2524 25.8017C19.2307 25.6342 19.3348 25.477 19.4933 25.4382L22.1144 24.7932C22.2502 24.7598 22.3168 24.6059 22.3126 24.4707L22.3115 24.4351C22.3078 24.3294 22.2672 24.2468 22.1863 24.1816C22.106 24.117 22.0183 24.0962 21.9184 24.1192L13.4627 26.0563C13.3364 26.0853 13.2059 26.0317 13.1325 25.9205L11.8901 24.0354L9.22461 25.4464L11.889 27.6589C12.4095 28.0919 12.8408 28.358 13.3787 28.3427C13.4194 28.3416 13.459 28.3411 13.4987 28.34C13.7814 28.3339 14.0044 28.329 14.2617 28.2474C16.134 27.6528 18.1479 27.0588 20.3663 26.894L24.4496 26.5907C24.6145 26.5786 24.7403 26.4363 24.7419 26.26V26.2507ZM11.5868 23.4578L8.50646 25.0883C8.5017 25.091 8.49642 25.0932 8.49166 25.096L7.62871 25.5526L6.65743 20.0358C6.55703 19.4659 6.79166 18.9244 7.26937 18.6227L9.97395 16.9161L11.3622 18.9178C11.4235 19.006 11.5207 19.0547 11.6201 19.0547C11.6676 19.0547 11.7162 19.0437 11.7617 19.0197L13.6445 18.0434L14.8642 20.2428C14.9212 20.3457 15.0264 20.4076 15.139 20.4076C15.1532 20.4076 15.1675 20.4065 15.1818 20.4049C15.3097 20.3868 15.4143 20.2904 15.446 20.1607L15.967 18.0489L17.1349 18.9863C17.1914 19.0317 17.2601 19.0552 17.3294 19.0552C17.3664 19.0552 17.4039 19.0481 17.4398 19.0344C17.5429 18.995 17.6184 18.903 17.6401 18.7919L18.0586 16.6396L19.3744 17.5852C19.3707 17.606 19.3681 17.6273 19.3681 17.6492V24.0316L13.5351 25.3681L12.2743 23.454L11.0419 20.4399C10.9738 20.2729 10.7878 20.1946 10.6266 20.2652C10.4654 20.3359 10.3898 20.5286 10.458 20.6956L11.5868 23.4578ZM10.5172 16.5734L11.7194 18.3068L13.2144 17.5315L11.7067 15.8222L10.5172 16.5734ZM12.5395 14.1714L12.1289 15.3278L14.1 17.5622C14.1159 17.5797 14.1296 17.5994 14.1407 17.6202L15.0248 19.2146L15.9116 15.6185L15.2938 14.1134C15.0481 14.2327 14.7849 14.3209 14.5091 14.3729C14.2818 14.4162 14.0757 14.4266 13.9045 14.4315C13.8728 14.4326 13.8411 14.4326 13.8094 14.4326C13.357 14.432 12.9295 14.3422 12.5395 14.1714ZM11.7041 12.6576C12.2251 13.4022 13.0003 13.7991 13.8871 13.7745C14.0345 13.7706 14.21 13.7619 14.3944 13.7263C15.3049 13.5533 16.0162 12.9297 16.3459 12.0142C16.4183 11.8138 16.4796 11.5959 16.5288 11.3676C16.7195 10.1976 16.7042 9.07627 16.4754 7.93908L15.5348 8.98428C15.0592 9.51318 14.4393 9.79241 13.7418 9.79241H10.4057C10.8073 11.0429 11.2338 11.9847 11.7041 12.6576ZM10.3185 11.4065C10.1716 11.0577 10.0294 10.6777 9.89045 10.2644C9.78318 10.3317 9.69704 10.4281 9.64208 10.5436C9.56969 10.6964 9.55965 10.865 9.61355 11.0188C9.66798 11.1727 9.78107 11.2948 9.93114 11.3632C10.0532 11.4185 10.1874 11.4322 10.3185 11.4065ZM15.1384 7.35927H16.1309L15.0719 8.53642C14.7141 8.93391 14.2665 9.1354 13.7423 9.1354H12.9507L13.6789 8.11976C14.035 7.62207 14.5397 7.35927 15.1384 7.35927ZM10.2054 9.1354C9.6516 7.01269 10.2715 5.46158 11.9086 4.87848C13.4654 4.32385 15.4312 4.86644 15.8777 5.97406C15.9765 6.2188 16.0653 6.46134 16.1451 6.70225H15.1379C14.3426 6.70225 13.6435 7.06635 13.1695 7.72829L12.1607 9.13595H10.2054V9.1354ZM16.998 7.35927C17.1455 7.9577 17.2379 8.55011 17.276 9.14471L19.1678 8.56927C19.1837 8.56434 19.189 8.55941 19.1937 8.54244C19.1985 8.52602 19.1974 8.5189 19.1868 8.50521L18.8423 8.06172C18.4856 7.60181 17.9957 7.35872 17.4261 7.35872L16.998 7.35927ZM16.4669 16.0198L16.1377 17.3547L17.1196 18.142L17.462 16.3801L16.4669 16.0198ZM23.3177 20.1744L23.4604 23.8394C23.4636 23.9232 23.4403 23.9872 23.3843 24.048C23.3283 24.1082 23.267 24.1356 23.1861 24.1356H22.9895C22.9536 24.1356 22.9214 24.1296 22.8923 24.1186C22.8537 24.0037 22.7951 23.8974 22.7179 23.8044L23.016 20.1749H23.3177V20.1744ZM22.5985 18.8483V19.1116C22.5985 19.2189 22.6334 19.3033 22.7084 19.3772L22.8511 19.5179H23.4958L23.6385 19.3772C23.7135 19.3033 23.7484 19.2189 23.7484 19.1116V18.8483H22.5985ZM20.0022 17.7012L21.3381 13.5462H29.9264L29.6601 14.3735H22.0262C21.8513 14.3735 21.7091 14.5207 21.7091 14.702C21.7091 14.8832 21.8513 15.0305 22.0262 15.0305H29.4487L28.6407 17.5436C28.6296 17.577 28.6243 17.6125 28.6243 17.6476V25.4661H25.0108C24.8322 25.3193 24.6171 25.2471 24.382 25.2547L22.5166 25.3221C22.7021 25.2033 22.8395 25.0133 22.9045 24.7877C22.9325 24.7899 22.961 24.7915 22.9895 24.7915H23.1861C23.4392 24.7915 23.6659 24.6913 23.8414 24.5025C24.0168 24.313 24.104 24.0743 24.094 23.812L23.945 19.9805L24.075 19.8524C24.2763 19.6542 24.3825 19.398 24.3825 19.1105V18.5187C24.3825 18.505 24.3815 18.4919 24.3799 18.4787C24.3815 18.4656 24.3825 18.4524 24.3825 18.4387V17.2769C24.3825 17.0957 24.2409 16.9484 24.0654 16.9484C23.8905 16.9484 23.7484 17.0951 23.7484 17.2769V18.1902H23.4905V17.2769C23.4905 17.0957 23.3484 16.9484 23.1734 16.9484C22.9985 16.9484 22.8564 17.0951 22.8564 17.2769V18.1902H22.5985V17.2769C22.5985 17.0957 22.4563 16.9484 22.2814 16.9484C22.106 16.9484 21.9644 17.0951 21.9644 17.2769V18.4387C21.9644 18.4524 21.9654 18.4656 21.967 18.4787C21.9654 18.4919 21.9644 18.505 21.9644 18.5187V19.1105C21.9644 19.398 22.0706 19.6542 22.2719 19.8524L22.3956 19.9745L22.1097 23.4605C22.0024 23.4468 21.892 23.4512 21.7815 23.4764L20.0022 23.8843V17.7012ZM20.5724 12.3323C20.5724 12.6395 20.8134 12.8897 21.1099 12.8897H30.3661C30.6625 12.8897 30.904 12.64 30.904 12.3323C30.904 12.0252 30.6625 11.7755 30.3661 11.7755H21.1093C20.8134 11.7755 20.5724 12.0257 20.5724 12.3323ZM29.6754 25.4666H30.949L30.3122 24.7658L29.6754 25.4666ZM31.3659 17.6974L30.3545 14.2941L29.2585 17.7012V24.9673L29.9951 24.1564V17.6481C29.9951 17.4669 30.1373 17.3196 30.3122 17.3196C30.4871 17.3196 30.6293 17.4669 30.6293 17.6481V24.1564L31.3659 24.9673V17.6974ZM32 17.6481V25.7951C32 25.9769 31.8579 26.1236 31.683 26.1236H25.3675C25.3728 26.1674 25.376 26.2112 25.3755 26.2561V26.266C25.3702 26.7883 24.9913 27.2094 24.494 27.246L20.4113 27.5494C18.2589 27.7092 16.2846 28.2923 14.4472 28.8754C14.1053 28.9838 13.8168 28.9904 13.5108 28.997C13.4728 28.9975 13.4337 28.9986 13.394 28.9997C13.375 29.0003 13.356 29.0003 13.337 29.0003C12.5559 29.0003 11.9757 28.5738 11.4916 28.1719L8.60528 25.7738L7.87867 26.1587C7.70745 26.249 7.51034 26.2501 7.33807 26.162C7.16579 26.0738 7.04742 25.9112 7.01307 25.7152L6.03387 20.1541C5.88537 19.3098 6.23203 18.5083 6.93962 18.0621L11.5054 15.1805L11.9783 13.8495C11.6824 13.6354 11.4177 13.366 11.1915 13.043C10.9833 12.7457 10.7846 12.4019 10.5928 12.0104C10.4612 12.0536 10.3264 12.0766 10.1922 12.0766C10.0162 12.0766 9.84184 12.0394 9.67802 11.9655C9.36729 11.8248 9.13319 11.5691 9.01852 11.2444C8.90438 10.9203 8.92393 10.5682 9.07348 10.2529C9.204 9.97857 9.42014 9.76175 9.68912 9.63145C9.68278 9.61119 9.67696 9.59038 9.67062 9.56958C9.66904 9.56355 9.66692 9.55698 9.66534 9.55096C9.64367 9.47978 9.62253 9.40806 9.60139 9.33524C9.60034 9.3325 9.59981 9.32977 9.59875 9.32703C9.24787 7.99548 9.29807 6.85774 9.74777 5.94449C10.1362 5.15717 10.8121 4.57352 11.703 4.25596C12.5734 3.94607 13.5954 3.9165 14.5069 4.17602C15.465 4.44923 16.1779 5.01153 16.4632 5.71946C16.5964 6.05016 16.7132 6.37648 16.8141 6.70061H17.4261C18.1944 6.70061 18.855 7.02857 19.3364 7.6489L19.6809 8.09293C19.8242 8.27745 19.867 8.51233 19.7988 8.73845C19.7306 8.96403 19.5657 9.13211 19.3464 9.19836L17.2961 9.82198C17.2929 10.3695 17.2453 10.9214 17.1529 11.4842C17.1523 11.4892 17.1513 11.4946 17.1502 11.5001C17.0947 11.7613 17.0239 12.0109 16.9404 12.2425C16.7148 12.8683 16.3322 13.3923 15.8434 13.7701L16.4823 15.3278L18.1902 15.9459C18.2172 15.9558 18.2425 15.9695 18.2663 15.9864L19.5811 16.9331L20.695 13.4679C20.2532 13.2943 19.9383 12.8508 19.9383 12.3323C19.9383 11.6633 20.4636 11.1185 21.1099 11.1185H30.3661C31.0124 11.1185 31.5382 11.6633 31.5382 12.3323C31.5382 12.8536 31.2195 13.2992 30.773 13.4706L31.9858 17.5512C31.9953 17.583 32 17.6153 32 17.6481ZM12.9089 12.2009C12.9882 12.0389 13.179 11.9748 13.3354 12.0575C13.8839 12.3477 14.4858 12.2491 14.7981 11.8182C14.9033 11.6731 15.102 11.6441 15.242 11.7531C15.382 11.862 15.4101 12.0679 15.3049 12.213C14.9884 12.6504 14.5001 12.8815 13.9743 12.8815C13.6688 12.8815 13.3512 12.8037 13.0474 12.6428C12.8904 12.5606 12.8286 12.3624 12.9089 12.2009Z" fill="#222124"/>
    </g>
    <defs>
        <clipPath id="clip0_1897_5598">
            <rect width="26" height="25" fill="white" transform="translate(6 4)"/>
        </clipPath>
    </defs>
</svg>
