<svg width="15" height="15" viewBox="0 0 15 15" fill="none" xmlns="http://www.w3.org/2000/svg">
  <path
    d="M13.7205 11.0428C13.6187 10.9967 13.5006 10.9874 13.3912 11.017C13.2817 11.0465 13.1897 11.1126 13.1346 11.2011C13.0795 11.2896 13.0656 11.3936 13.096 11.491C13.1264 11.5884 13.1986 11.6714 13.2973 11.7226C13.8208 11.9764 14.1211 12.2578 14.1211 12.4947C14.1211 12.7844 13.6561 13.2332 12.3512 13.6246C11.0619 14.0113 9.33924 14.2242 7.5 14.2242C5.66076 14.2242 3.93807 14.0113 2.64883 13.6246C1.34389 13.2332 0.878894 12.7844 0.878894 12.4947C0.878894 12.2578 1.17906 11.9764 1.70255 11.7226C1.80124 11.6714 1.87345 11.5884 1.90383 11.491C1.93422 11.3936 1.92038 11.2896 1.86527 11.2011C1.81016 11.1126 1.71811 11.0465 1.60869 11.017C1.49927 10.9874 1.38111 10.9967 1.27932 11.0428C0.695708 11.326 0 11.8075 0 12.495C0 13.0219 0.410496 13.773 2.36613 14.3595C3.74334 14.7727 5.56732 15 7.5 15C9.43268 15 11.2559 14.7724 12.6339 14.3595C14.5894 13.773 15 13.0217 15 12.495C15 11.8077 14.304 11.3258 13.7205 11.0428Z"
    fill="#EA5B44" />
  <path
    d="M4.65831 12.6363C6.85563 13.1212 9.14571 13.1212 11.343 12.6363C12.4425 12.3493 13 11.9333 13 11.4017C13 10.8701 12.4425 10.4541 11.343 10.1672C11.099 10.1035 10.8336 10.0476 10.5513 10C10.3981 10.2446 10.2375 10.4965 10.0696 10.7556C10.382 10.7989 10.6753 10.8521 10.9416 10.9146C11.7507 11.1051 12.0463 11.3194 12.1071 11.4019C12.0464 11.4846 11.7509 11.6986 10.9417 11.889C10.0271 12.085 9.09098 12.183 8.15202 12.1811C8.10174 12.1846 8.05102 12.1865 8.00015 12.1865C7.94928 12.1865 7.89841 12.1846 7.84813 12.1811C6.90917 12.183 5.97309 12.085 5.05842 11.889C4.24925 11.6986 3.95373 11.4841 3.89286 11.4019C3.95358 11.3192 4.24925 11.1051 5.05842 10.9146C5.32471 10.8521 5.618 10.7989 5.93039 10.7556C5.76251 10.4966 5.60194 10.2447 5.44868 10C5.16643 10.0477 4.90103 10.1035 4.65697 10.1672C3.55749 10.4541 3 10.8701 3 11.4017C3 11.9333 3.55749 12.3493 4.65697 12.6363"
    fill="#EA5B44" />
  <path
    d="M8 12C8.187 12.0008 8.37101 11.9497 8.53412 11.8517C8.69722 11.7538 8.83387 11.6123 8.93076 11.441C10.331 8.98757 12 5.75465 12 4.28354C12 3.14747 11.5786 2.05794 10.8284 1.25462C10.0783 0.451298 9.06087 0 8 0C6.93913 0 5.92172 0.451298 5.17157 1.25462C4.42143 2.05794 4 3.14747 4 4.28354C4 5.75465 5.66911 8.9885 7.06924 11.441C7.16613 11.6123 7.30278 11.7538 7.46588 11.8517C7.62899 11.9497 7.813 12.0008 8 12ZM6.39223 3.98928C6.39223 3.64876 6.48652 3.31588 6.66319 3.03274C6.83985 2.7496 7.09095 2.52892 7.38473 2.3986C7.67851 2.26829 8.00178 2.23419 8.31366 2.30062C8.62554 2.36706 8.91201 2.53104 9.13687 2.77183C9.36172 3.01262 9.51484 3.3194 9.57688 3.65339C9.63891 3.98737 9.60707 4.33356 9.48539 4.64816C9.3637 4.96277 9.15763 5.23167 8.89323 5.42085C8.62883 5.61004 8.31799 5.71102 8 5.71102C7.57373 5.71052 7.16506 5.52897 6.86364 5.20619C6.56223 4.88341 6.39269 4.44576 6.39223 3.98928Z"
    fill="#EA5B44" />
</svg>