<svg width="11" height="15" viewBox="0 0 11 15" fill="none" xmlns="http://www.w3.org/2000/svg">
  <path
    d="M5.5 15C5.75713 15.001 6.01014 14.9371 6.23441 14.8147C6.45868 14.6922 6.64657 14.5153 6.7798 14.3012C8.70518 11.2345 11 7.19332 11 5.35442C11 3.93434 10.4205 2.57242 9.38909 1.56827C8.35764 0.564123 6.95869 0 5.5 0C4.04131 0 2.64236 0.564123 1.61091 1.56827C0.579461 2.57242 0 3.93434 0 5.35442C0 7.19332 2.29502 11.2356 4.2202 14.3012C4.35343 14.5153 4.54132 14.6922 4.76559 14.8147C4.98986 14.9371 5.24287 15.001 5.5 15ZM3.28931 4.9866C3.28931 4.56094 3.41897 4.14485 3.66188 3.79092C3.9048 3.437 4.25006 3.16115 4.65401 2.99825C5.05796 2.83536 5.50245 2.79274 5.93128 2.87578C6.36011 2.95882 6.75402 3.1638 7.06319 3.46479C7.37236 3.76578 7.58291 4.14925 7.66821 4.56673C7.75351 4.98421 7.70973 5.41695 7.5424 5.8102C7.37508 6.20346 7.09174 6.53958 6.72819 6.77607C6.36465 7.01255 5.93723 7.13877 5.5 7.13877C4.91388 7.13816 4.35196 6.91121 3.93751 6.50774C3.52306 6.10426 3.28994 5.55721 3.28931 4.9866Z"
    fill="#EA5B44" />
</svg>